<svg xmlns="http://www.w3.org/2000/svg" width="440" height="440" viewBox="0 0 440 440"><g transform="translate(-246 -576)"><circle cx="145" cy="145" r="145" transform="translate(321 651)" fill="#fff"/><circle cx="145" cy="145" r="145" transform="translate(321 651)" fill="#fff"/><circle cx="4.5" cy="4.5" r="4.5" transform="translate(492 805)" fill="#d1d1d1"/><circle cx="4" cy="4" r="4" transform="translate(476 717)" fill="#d1d1d1"/><circle cx="2" cy="2" r="2" transform="translate(359 792)" fill="#d1d1d1"/><circle cx="5.5" cy="5.5" r="5.5" transform="translate(542 788)" fill="#d1d1d1"/><circle cx="4" cy="4" r="4" transform="translate(502 682)" fill="#d1d1d1"/><circle cx="4" cy="4" r="4" transform="translate(404 734)" fill="#d1d1d1"/><circle cx="2" cy="2" r="2" transform="translate(519 723)" fill="#d1d1d1"/><circle cx="2" cy="2" r="2" transform="translate(444 690)" fill="#d1d1d1"/><circle cx="6" cy="6" r="6" transform="translate(455 748)" fill="#d1d1d1"/><circle cx="5" cy="5" r="5" transform="translate(374 756)" fill="#d1d1d1"/><circle cx="4" cy="4" r="4" transform="translate(427 770)" fill="#d1d1d1"/><circle cx="4" cy="4" r="4" transform="translate(412 809)" fill="#d1d1d1"/><circle cx="2" cy="2" r="2" transform="translate(502 764)" fill="#d1d1d1"/><circle cx="5" cy="5" r="5" transform="translate(564 752)" fill="#d1d1d1"/><circle cx="2" cy="2" r="2" transform="translate(584 805)" fill="#d1d1d1"/><circle cx="5.5" cy="5.5" r="5.5" transform="translate(393 698)" fill="#d1d1d1"/></g></svg>