<svg xmlns="http://www.w3.org/2000/svg" xmlns:xlink="http://www.w3.org/1999/xlink" viewBox="0 0 180.4521 180.455"><defs><radialGradient id="a" cx="90.22605" cy="90.2275" r="90.22677" gradientUnits="userSpaceOnUse"><stop offset="0.58505" stop-color="#2982a2"/><stop offset="0.58879" stop-color="#28809f"/><stop offset="0.66084" stop-color="#1c596f"/><stop offset="0.73249" stop-color="#123947"/><stop offset="0.80249" stop-color="#0a2028"/><stop offset="0.87035" stop-color="#050e12"/><stop offset="0.93517" stop-color="#010405"/><stop offset="0.99363"/></radialGradient><radialGradient id="b" cx="85.06231" cy="80.96854" fx="73.74275000972244" r="65.81665" gradientUnits="userSpaceOnUse"><stop offset="0" stop-color="#fff"/><stop offset="0.6719" stop-color="#ededed"/><stop offset="1" stop-color="#e2e2e2"/></radialGradient><radialGradient id="c" cx="90.75084" cy="89.18351" fx="90.75083926485058" r="57.25999" xlink:href="#b"/><radialGradient id="d" cx="91.26964" cy="81.94146" fx="91.26963913967666" r="42.48819" gradientTransform="translate(0.33376 -8.43831) rotate(4.57712)" xlink:href="#b"/><radialGradient id="e" cx="73.16446" cy="63.55788" fx="73.16445970103086" r="27.15261" xlink:href="#b"/></defs><g style="isolation:isolate"><path d="M180.4521,90.227A90.22605,90.22605,0,1,1,90.2275,0,90.22631,90.22631,0,0,1,180.4521,90.227Z" opacity="0.5" fill="url(#a)" style="mix-blend-mode:screen"/><path d="M141.2802,116.1152a57.25812,57.25812,0,1,1-23.5976-77.4624A57.25712,57.25712,0,0,1,141.2802,116.1152Z" fill="url(#b)"/><path d="M75.6845,33.9292A51.05628,51.05628,0,1,1,53.8681,45.3925c-.1875.1563-.3759.3106-.5605.4712A57.222,57.222,0,1,0,75.6845,33.9292Z" opacity="0.4" fill="url(#c)" style="mix-blend-mode:multiply"/><path d="M120.581,54.2558c13.2217,18.0225,7.9063,44.3941-11.86909,58.9004-19.77931,14.5083-46.52931,11.6587-59.75-6.3633-13.21971-18.0224-7.90431-44.394,11.875-58.9028C80.6123,33.3842,107.3623,36.2343,120.581,54.2558Z" opacity="0.3" fill="url(#d)" style="mix-blend-mode:screen"/><path d="M96.8252,43.1059c8.0468,9.3047,3.9726,26.0059-9.0957,37.3013-13.0694,11.2969-30.1817,12.9087-38.22759,3.603C41.458,74.7036,45.5312,58.0019,58.5996,46.7065,71.667,35.4121,88.7832,33.7998,96.8252,43.1059Z" opacity="0.5" fill="url(#e)" style="mix-blend-mode:screen"/><path d="M54.0947,118.5947c.7578-2.8257,6.53421-2.8418,11.3643.7114,4.831,3.5508,3.2685,8.6675,0,9.52C62.1924,129.6787,52.1054,125.9834,54.0947,118.5947Z" fill="#d3d3d3" opacity="0.4" style="mix-blend-mode:multiply"/><path d="M107.375,130.2944c-.4766-2.5415,2.1758-5.7803,6.4384-6.727,4.2647-.9483,8.2442.4741,8.9053,4.3559.6651,3.8843-4.0146,7.5786-7.6904,6.5376C111.3525,133.4189,107.9424,133.3237,107.375,130.2944Z" fill="#d3d3d3" opacity="0.4" style="mix-blend-mode:multiply"/><path d="M65.4131,134.6391c.5976-2.1284,5.3066-.6499,5.3515,2.2388C70.8105,139.7636,64.75,136.997,65.4131,134.6391Z" fill="#d3d3d3" opacity="0.4" style="mix-blend-mode:multiply"/><path d="M79.4111,135.5019c.9043,1.0083,3.6201,2.0635,4.1875-.8628C84.167,131.7148,76.5478,132.3007,79.4111,135.5019Z" fill="#d3d3d3" opacity="0.4" style="mix-blend-mode:multiply"/><path d="M99.7021,139.3857c2.0283.2407,4.877.3643,5.3047-2.3672.4277-2.7314-5.6836-2.5703-7.0098-1.1455C96.67091,137.2968,97.9043,139.1723,99.7021,139.3857Z" fill="#d3d3d3" opacity="0.4" style="mix-blend-mode:multiply"/><path d="M129.25491,75.8276c1.31639,1.0391,5.30659,1.3262,5.96769-2.2729.6612-3.6011-3.79-5.211-5.96769-4.4522C127.0771,69.8593,125.1826,72.6069,129.25491,75.8276Z" fill="#d3d3d3" opacity="0.4" style="mix-blend-mode:multiply"/><path d="M122.7842,57.6411c1.47071,1.3032,6.9843,1.9878,8.291-.3784,1.3066-2.3697-2.15629-5.6465-6.6504-5.9668C119.9287,50.9721,117.542,52.9995,122.7842,57.6411Z" fill="#d3d3d3" opacity="0.4" style="mix-blend-mode:multiply"/><path d="M88.8486,49.9839c1.82031,1.2856,7.1602.458,7.6318-2.5723.4737-3.0308-4.7529-3.7124-7.6318-2.6616C85.9677,45.7993,85.5166,47.6299,88.8486,49.9839Z" fill="#d3d3d3" opacity="0.4" style="mix-blend-mode:multiply"/><path d="M76.1162,42.4868c2.01171.9282,4.9541.6626,5.082-.7588.127-1.4209-1.7666-2.2725-3.8515-2.0835C75.2627,39.832,73.6533,41.3486,76.1162,42.4868Z" fill="#d3d3d3" opacity="0.4" style="mix-blend-mode:multiply"/><path d="M50.2558,54.893c.2647-1.4497,1.7998-.2827,1.8955.4746C52.2461,56.125,49.87791,56.978,50.2558,54.893Z" fill="#d3d3d3" opacity="0.4" style="mix-blend-mode:multiply"/><path d="M53.83491,74.0283c-.46871-1.2451,1.53709-.9478,1.63279,0C55.5615,74.9756,54.1943,74.9756,53.83491,74.0283Z" fill="#d3d3d3" opacity="0.4" style="mix-blend-mode:multiply"/><path d="M48.6474,103.7695a1.35311,1.35311,0,0,0,2.4356-1.04C50.92091,101.1191,47.9853,102.6328,48.6474,103.7695Z" fill="#d3d3d3" opacity="0.4" style="mix-blend-mode:multiply"/><path d="M45.70991,116.5517c.27249.4698,1.72459.9844,1.80959-.5932C47.6045,114.3799,45.0478,115.4091,45.70991,116.5517Z" fill="#d3d3d3" opacity="0.4" style="mix-blend-mode:multiply"/><path d="M92.66891,143.4585c1.01079.5229,1.99029-.4244,1.63279-1.5625C93.9482,140.7607,90.6084,142.395,92.66891,143.4585Z" fill="#d3d3d3" opacity="0.4" style="mix-blend-mode:multiply"/><path d="M87.9814,143.0341c.6738-.7334-1.1387-1.0209-1.8496-.4741C85.4228,143.1054,87.12691,143.957,87.9814,143.0341Z" fill="#d3d3d3" opacity="0.4" style="mix-blend-mode:multiply"/><path d="M82.581,140.5464c.79891.5205,1.41991.2143,1.4922-.4961C84.1435,139.3393,81.1601,139.622,82.581,140.5464Z" fill="#d3d3d3" opacity="0.4" style="mix-blend-mode:multiply"/><path d="M90.3252,125.6289c-.1934-.4649,1.8613-.7119,1.67571,0A.89131.89131,0,0,1,90.3252,125.6289Z" fill="#d3d3d3" opacity="0.4" style="mix-blend-mode:multiply"/><path d="M122.7842,99.8393c.0058-1.0649,1.7128-.9946,1.7832,0C124.6357,100.8359,122.7744,100.9062,122.7842,99.8393Z" fill="#d3d3d3" opacity="0.4" style="mix-blend-mode:multiply"/><path d="M131.956,82.8603c-.0713-1.0649,1.9883-1.1377,2.0606,0C134.08691,83.9966,132.0263,83.9267,131.956,82.8603Z" fill="#d3d3d3" opacity="0.4" style="mix-blend-mode:multiply"/><path d="M116.8232,45.5639c-.15429-1.2329,1.2783-1.2085,1.4902,0C118.5283,46.7705,116.8965,46.164,116.8232,45.5639Z" fill="#d3d3d3" opacity="0.4" style="mix-blend-mode:multiply"/><path d="M106.87791,45.1377c-1.11621-.7876.56539-1.4859,1.27729-.8496C108.8672,44.9243,108.08591,45.9907,106.87791,45.1377Z" fill="#d3d3d3" opacity="0.4" style="mix-blend-mode:multiply"/><path d="M97.4297,40.6621c-.712-.355.2099-1.7334,1.1357-1.0449C99.4892,40.3071,98.1396,41.0171,97.4297,40.6621Z" fill="#d3d3d3" opacity="0.4" style="mix-blend-mode:multiply"/><path d="M92.3134,36.6836c-.7656-.8999.9219-.6397,1.4922-.355C94.374,36.6132,93.5205,38.1045,92.3134,36.6836Z" fill="#d3d3d3" opacity="0.4" style="mix-blend-mode:multiply"/><path d="M104.7451,39.4287c-.709-1.4668,1.1377-.3819.9961,0C105.5976,39.8095,104.7451,39.4287,104.7451,39.4287Z" fill="#d3d3d3" opacity="0.4" style="mix-blend-mode:multiply"/><path d="M92.456,39.6172c-.6406-.5176.5508-.5581.5957-.0191C93.0947,40.1367,92.456,39.6172,92.456,39.6172Z" fill="#d3d3d3" opacity="0.4" style="mix-blend-mode:multiply"/><path d="M81.5556,40.1841c-.3369-.2457.4395-.8536.8477-.3917C82.8125,40.2544,82.164,40.6274,81.5556,40.1841Z" fill="#d3d3d3" opacity="0.4" style="mix-blend-mode:multiply"/><path d="M68.4433,48.8799c-.6435-.521,1.2803-1.1846,1.9893-.4742C71.1425,49.1176,69.4384,49.6855,68.4433,48.8799Z" fill="#d3d3d3" opacity="0.4" style="mix-blend-mode:multiply"/></g></svg>