<svg xmlns="http://www.w3.org/2000/svg" xmlns:xlink="http://www.w3.org/1999/xlink" viewBox="0 0 489.85252 458.18529"><defs><clipPath id="a" transform="translate(-8.04487 -28.97146)"><rect x="402.42396" y="261.1576" width="95.96834" height="226.71741" fill="none"/></clipPath></defs><path d="M69.77234,79.177c-1.55793-9.19664-4.42062-12.147-5.24827-12.82369a3.52776,3.52776,0,0,0-2.12755-.79357c-.11684-.00973-.23855-.01947-.36027-.01947h-.58909a14.65264,14.65264,0,0,1-15.847,0h-.594a2.9261,2.9261,0,0,0-.36027.01947,3.51419,3.51419,0,0,0-2.12268.79357c-1.31937,1.076-7.80424,7.91622-5.92986,36.57722a3.52432,3.52432,0,0,0,3.51507,3.296c.0779,0,.15093,0,.23369-.00487a3.53026,3.53026,0,0,0,1.86465-.68646l2.40018,37.02026a5.44441,5.44441,0,0,0,8.91426,3.83639,5.44475,5.44475,0,0,0,8.91427-3.83639l.8812-13.54424a8.75769,8.75769,0,0,1-1.81109-4.75168C59.39751,91.991,66.44227,82.03975,69.77234,79.177Z" transform="translate(-8.04487 -28.97146)" fill="#fff"/><path d="M63.44326,53.11585a9.91962,9.91962,0,1,0-9.92206,9.91231A9.91722,9.91722,0,0,0,63.44326,53.11585Z" transform="translate(-8.04487 -28.97146)" fill="#fff"/><path d="M103.80332,97.98416C102.0896,87.03,98.73032,83.55386,97.77608,82.77a3.95663,3.95663,0,0,0-2.39044-.89094,3.77155,3.77155,0,0,0-.409-.01948H93.14612a15.94373,15.94373,0,0,1-15.50138,0H75.80931a3.68193,3.68193,0,0,0-.40409.01948A3.95909,3.95909,0,0,0,73.0099,82.77c-1.48489,1.21713-8.78281,8.90939-6.67474,41.1731a3.97359,3.97359,0,0,0,3.95811,3.70982,2.37207,2.37207,0,0,0,.2629-.00974,3.94382,3.94382,0,0,0,2.1032-.76923l2.702,41.6697a6.12481,6.12481,0,0,0,10.034,4.31351,6.06827,6.06827,0,0,0,3.51507,1.407,6.13425,6.13425,0,0,0,6.519-5.72051l1.08081-16.6893a9.26494,9.26494,0,0,1-1.11976-3.78771C93.16072,113.94318,99.889,101.991,103.80332,97.98416Z" transform="translate(-8.04487 -28.97146)" fill="#fff"/><path d="M74.44612,65.69611a11.06684,11.06684,0,0,1,1.665-4.0214,11.28776,11.28776,0,0,1,1.38753-1.68938,10.982,10.982,0,0,1,1.69425-1.38752,10.79374,10.79374,0,0,1,1.92794-1.03213,11.12147,11.12147,0,0,1,8.54425,0,11.00554,11.00554,0,0,1,1.93281,1.03213,11.1777,11.1777,0,0,1,4.109,5.00484,11.1773,11.1773,0,0,1,.63778,2.09346,11.16162,11.16162,0,0,1,0,4.35246A11.17762,11.17762,0,0,1,95.707,72.142a11.25915,11.25915,0,0,1-2.41965,3.62218,11.28776,11.28776,0,0,1-1.68938,1.38753,11.69228,11.69228,0,0,1-1.93281,1.03213,11.16325,11.16325,0,0,1-2.09346.6329,11.19914,11.19914,0,0,1-6.45079-.6329,11.45564,11.45564,0,0,1-1.92794-1.03213,11.57789,11.57789,0,0,1-1.69425-1.38753A11.326,11.326,0,0,1,76.11115,74.07a11.06665,11.06665,0,0,1-1.665-4.0214,11.16111,11.16111,0,0,1,0-4.35246Z" transform="translate(-8.04487 -28.97146)" fill="#fff"/><path d="M142.77585,117.34141c-1.99123-11.83051-5.67183-15.628-6.738-16.49942a4.49059,4.49059,0,0,0-2.7215-1.01266,3.68117,3.68117,0,0,0-.46251-.02434h-3.60271a17.37148,17.37148,0,0,1-14.63478,0H111.0136a3.63341,3.63341,0,0,0-.46251.02434,4.493,4.493,0,0,0-2.72637,1.01266c-1.68938,1.38752-10.00482,10.15087-7.60464,46.90822a4.52314,4.52314,0,0,0,4.50826,4.22588c.10224,0,.19961-.00487.30185-.00974a4.49459,4.49459,0,0,0,2.39531-.8812l3.07691,47.473a6.97855,6.97855,0,0,0,11.43129,4.91721,6.97855,6.97855,0,0,0,11.43129-4.91721l1.19279-18.36894a9.89946,9.89946,0,0,1-2.074-5.44787C129.76715,133.23227,138.662,120.81267,142.77585,117.34141Z" transform="translate(-8.04487 -28.97146)" fill="#fff"/><path d="M109.46054,81.39223a12.71359,12.71359,0,0,1,.72054-2.38557,12.86715,12.86715,0,0,1,1.17819-2.19571,12.26034,12.26034,0,0,1,1.58227-1.92793,12.71593,12.71593,0,0,1,17.98432,0,12.70284,12.70284,0,0,1,2.75559,4.12364,12.723,12.723,0,0,1,.72541,7.3466,12.66644,12.66644,0,0,1-.72054,2.38071,12.91184,12.91184,0,0,1-1.17819,2.20057,12.72109,12.72109,0,0,1-1.58227,1.92793,12.50612,12.50612,0,0,1-1.92793,1.57741,12.53316,12.53316,0,0,1-4.58128,1.89872,12.78458,12.78458,0,0,1-4.9659,0,12.53316,12.53316,0,0,1-4.58128-1.89872,12.50612,12.50612,0,0,1-1.92793-1.57741,12.72109,12.72109,0,0,1-1.58227-1.92793,12.91184,12.91184,0,0,1-1.17819-2.20057,12.66644,12.66644,0,0,1-.72054-2.38071,12.76025,12.76025,0,0,1,0-4.961Z" transform="translate(-8.04487 -28.97146)" fill="#fff"/><path d="M185.40464,137.53605c-2.332-11.74288-6.12947-15.6377-7.27357-16.57246a5.11372,5.11372,0,0,0-3.10612-1.15384,4.62959,4.62959,0,0,0-.5258-.02921h-5.89091a18.97362,18.97362,0,0,1-13.11094,0h-5.886a4.62946,4.62946,0,0,0-.5258.02921,5.11372,5.11372,0,0,0-3.10612,1.15384c-1.92794,1.57741-11.40695,11.56762-8.666,53.46126a5.152,5.152,0,0,0,5.13629,4.815c.112,0,.224-.00487.3408-.0146a5.0359,5.0359,0,0,0,2.72637-1.00292l3.5102,54.10391a7.958,7.958,0,0,0,13.02817,5.60853,7.958,7.958,0,0,0,13.02817-5.60853l1.295-19.94148a10.683,10.683,0,0,1-5.2434-8.50531c-3.09638-47.34639,7.0837-61.06589,11.60169-64.766A10.6734,10.6734,0,0,1,185.40464,137.53605Z" transform="translate(-8.04487 -28.97146)" fill="#fff"/><path d="M147.83911,98.79721a14.57764,14.57764,0,0,1,.82278-2.71664,14.75041,14.75041,0,0,1,1.33885-2.50729,14.5068,14.5068,0,0,1,6.50921-5.3359,14.22,14.22,0,0,1,2.71664-.82278,14.55456,14.55456,0,0,1,5.65723,0,14.32622,14.32622,0,0,1,2.71663.82278,14.4753,14.4753,0,0,1,4.703,3.1402,14.41078,14.41078,0,0,1,1.80135,2.1957,14.61293,14.61293,0,0,1,2.16649,5.22393,14.42832,14.42832,0,0,1-.82765,8.369,14.52388,14.52388,0,0,1-3.14019,4.69812,14.41082,14.41082,0,0,1-2.19571,1.80136,14.092,14.092,0,0,1-2.50729,1.33884,14.34061,14.34061,0,0,1-2.71663.82765,14.55456,14.55456,0,0,1-5.65723,0,14.23374,14.23374,0,0,1-2.71664-.82765,13.92607,13.92607,0,0,1-2.50728-1.33884,14.56875,14.56875,0,0,1-4.00193-3.99706,14.41727,14.41727,0,0,1-2.16163-5.21906,14.53021,14.53021,0,0,1,0-5.65235Z" transform="translate(-8.04487 -28.97146)" fill="#fff"/><path d="M231.46088,167.00522c-2.43913-17.51208-7.6874-22.95509-9.14309-24.14788a5.84632,5.84632,0,0,0-3.52481-1.3145q-.29942-.02921-.59883-.02921h-8.924a20.67639,20.67639,0,0,1-10.41864,0h-8.924q-.29942,0-.59883.02921a5.84632,5.84632,0,0,0-3.52481,1.3145c-2.19083,1.79162-12.95027,13.14015-9.84415,60.7105a5.85742,5.85742,0,0,0,5.83736,5.46735c.12658,0,.258-.00487.38461-.01461a5.78907,5.78907,0,0,0,3.10125-1.13923l3.98245,61.44077a9.03644,9.03644,0,0,0,14.79545,6.36316,9.03643,9.03643,0,0,0,14.79544-6.36316l1.83056-28.20823a11.31169,11.31169,0,0,1-.26776-1.78188C217.25939,191.0752,226.31,173.16877,231.46088,167.00522Z" transform="translate(-8.04487 -28.97146)" fill="#fff"/><path d="M187.9168,117.68221A16.45944,16.45944,0,0,1,197.761,105.6959a16.41266,16.41266,0,0,1,12.59974,0,16.42811,16.42811,0,0,1,2.84321,1.519,16.236,16.236,0,0,1,2.49756,2.04478,16.43438,16.43438,0,0,1,2.04478,2.49269,16.67542,16.67542,0,0,1,1.52384,2.84808,16.29809,16.29809,0,0,1,.93476,3.08178,16.447,16.447,0,0,1,0,6.42158,16.23782,16.23782,0,0,1-.93476,3.08665,16.45114,16.45114,0,0,1-1.52384,2.84321,16.436,16.436,0,0,1-10.4722,6.99607,16.47122,16.47122,0,0,1-6.42645,0,16.34472,16.34472,0,0,1-3.08664-.93475,16.43308,16.43308,0,0,1-9.84416-11.99118,16.447,16.447,0,0,1,0-6.42158Z" transform="translate(-8.04487 -28.97146)" fill="#fff"/><path d="M289.20644,193.75289c-2.97467-18.072-8.5686-23.8509-10.18009-25.17027a6.755,6.755,0,0,0-4.08956-1.52384,6.52446,6.52446,0,0,0-.69619-.03895H257.90183c-.01947,0-.03408.00487-.05355.00487s-.03895-.00487-.05356-.00487H241.45109a6.597,6.597,0,0,0-.6962.03895,6.755,6.755,0,0,0-4.08956,1.52384c-2.54137,2.07886-15.02913,15.24335-11.42156,70.43294a6.795,6.795,0,0,0,6.77212,6.34855c.146,0,.297-.00974.4479-.01947a6.77566,6.77566,0,0,0,3.59784-1.31937l4.62023,71.28a10.48,10.48,0,0,0,17.16642,7.38555,10.476,10.476,0,0,0,17.16154-7.38555l1.95228-30.0826a12.3246,12.3246,0,0,1-3.6806-8.00386c-4.06522-62.19052,10.04863-78.83113,14.47412-82.44845A12.94478,12.94478,0,0,1,289.20644,193.75289Z" transform="translate(-8.04487 -28.97146)" fill="#fff"/><path d="M239.1142,139.37635A19.08236,19.08236,0,0,1,250.53575,125.467a19.0943,19.0943,0,0,1,24.95119,10.32614,19.01361,19.01361,0,0,1,0,14.61044,18.8442,18.8442,0,0,1-1.76241,3.30086,19.11057,19.11057,0,0,1-23.18878,7.03014,19.37862,19.37862,0,0,1-3.30086-1.76727,19.09188,19.09188,0,0,1-8.12069-19.59094Z" transform="translate(-8.04487 -28.97146)" fill="#fff"/><path d="M347.3999,225.51514a13.17,13.17,0,0,1,1.53359-1.07594c-3.38363-18.47118-9.23559-24.513-10.96392-25.92489a7.52456,7.52456,0,0,0-4.55207-1.69912c-.258-.02434-.51119-.03895-.77409-.03895H296.14408c-.258,0-.51606.01461-.76922.03895a7.53807,7.53807,0,0,0-4.55694,1.69912c-2.82375,2.31255-16.72338,16.96193-12.70685,78.393a7.55635,7.55635,0,0,0,7.53161,7.05936c.16553,0,.33593-.00487.50146-.01461a7.54671,7.54671,0,0,0,4.00192-1.47029l5.146,79.33259a11.66641,11.66641,0,0,0,19.10409,8.22294,11.66641,11.66641,0,0,0,19.10409-8.22294l2.23465-34.44967a13.32514,13.32514,0,0,1-4.47418-9.109C326.67946,248.20246,342.45348,229.56088,347.3999,225.51514Z" transform="translate(-8.04487 -28.97146)" fill="#fff"/><path d="M293.24244,168.07143c.06816-.6962.1704-1.38266.30672-2.06425a20.42492,20.42492,0,0,1,.50633-2.02044,20.09728,20.09728,0,0,1,.70106-1.96689q.40165-.964.89094-1.88411c.33106-.61344.68647-1.2074,1.07595-1.78675a20.66969,20.66969,0,0,1,1.24147-1.67477c.443-.53554.90555-1.05161,1.40214-1.54333q.73758-.73758,1.54332-1.40213c.5404-.43817,1.09542-.85686,1.67477-1.24148s1.17818-.74488,1.79162-1.07107,1.24147-.62317,1.88412-.89094a20.46825,20.46825,0,0,1,1.962-.70107,19.54193,19.54193,0,0,1,2.02531-.50632c.68159-.13632,1.368-.23856,2.06425-.30672.69133-.06816,1.38753-.10224,2.08373-.10224s1.38753.03408,2.08373.10224q1.037.10224,2.05938.30672a19.2376,19.2376,0,0,1,2.02531.50632,20.0055,20.0055,0,0,1,1.962.70107c.64752.26777,1.27556.56475,1.889.89094s1.20739.68646,1.78675,1.07107,1.13923.80331,1.67477,1.24148q.81061.66455,1.54819,1.40213t1.40214,1.54333c.43816.5404.852,1.09541,1.24147,1.67477.38461.57935.74488,1.17331,1.07108,1.78675a20.78531,20.78531,0,0,1,.89093,1.88411c.26777.64265.50146,1.2999.70594,1.96689.19961.66212.37,1.33884.50633,2.02044s.23855,1.368.30671,2.06425c.06816.69133.10224,1.38266.10224,2.07886s-.03408,1.3924-.10224,2.08373-.17039,1.37779-.30671,2.06425c-.13632.68159-.30672,1.35345-.50633,2.02044-.20448.667-.43817,1.31937-.70594,1.962a20.78422,20.78422,0,0,1-.89093,1.88412c-.3262.61344-.68647,1.21226-1.07108,1.79162-.38948.57448-.80331,1.13436-1.24147,1.6699q-.66456.81062-1.40214,1.54819a21.65852,21.65852,0,0,1-3.223,2.63874c-.57936.38948-1.17332.74489-1.78675,1.076-.61343.32619-1.24147.62317-1.889.89094-.64264.2629-1.295.49659-1.962.70106-.667.19961-1.33885.37-2.02531.50633q-1.02238.20448-2.05938.30672c-.6962.06816-1.38753.10224-2.08373.10224s-1.3924-.03408-2.08373-.10224c-.6962-.06816-1.38266-.1704-2.06425-.30672s-1.35832-.30672-2.02531-.50633c-.66212-.20447-1.31937-.43816-1.962-.70106q-.964-.40166-1.88412-.89094c-.61344-.33106-1.21227-.68647-1.79162-1.076a20.67145,20.67145,0,0,1-1.67477-1.24147q-.80331-.65726-1.54332-1.39727a20.10717,20.10717,0,0,1-1.40214-1.54819,20.59722,20.59722,0,0,1-1.24147-1.6699c-.38948-.57936-.74489-1.17818-1.07595-1.79162q-.48928-.92014-.89094-1.88412a20.008,20.008,0,0,1-.70106-1.962,20.77227,20.77227,0,0,1-.50633-2.02044c-.13632-.68646-.23856-1.37292-.30672-2.06425s-.10224-1.38753-.10224-2.08373S293.17428,168.76276,293.24244,168.07143Z" transform="translate(-8.04487 -28.97146)" fill="#fff"/><path d="M416.606,260.83141c-3.74877-22.67758-10.77892-29.922-12.79935-31.57724a8.501,8.501,0,0,0-5.1509-1.9182,8.64942,8.64942,0,0,0-.87634-.04869H356.48943a8.63217,8.63217,0,0,0-.87146.04869,8.50347,8.50347,0,0,0-5.15577,1.9182c-3.19375,2.61926-18.91908,19.19172-14.37188,88.685a8.54393,8.54393,0,0,0,8.51992,7.98925c.18987,0,.37487-.00974.56475-.01947a8.52,8.52,0,0,0,4.52772-1.665l5.81789,89.75124a13.20182,13.20182,0,0,0,21.61624,9.29888,13.19783,13.19783,0,0,0,21.61138-9.29888l2.74585-42.361a14.39231,14.39231,0,0,1-2.29308-6.89383C394.22049,288.53818,410.47649,266.37179,416.606,260.83141Z" transform="translate(-8.04487 -28.97146)" fill="#fff"/><path d="M353.20805,194.81423a22.06847,22.06847,0,0,1,.34566-2.332,23.123,23.123,0,0,1,.57449-2.28821,22.28836,22.28836,0,0,1,.79357-2.22q.45278-1.0954,1.00778-2.13241c.37-.6962.7741-1.36805,1.21227-2.02531q.65724-.97857,1.407-1.89385c.50146-.60857,1.02726-1.18792,1.58227-1.7478q.83982-.83251,1.75267-1.58227a23.25188,23.25188,0,0,1,1.89385-1.407q.97859-.64995,2.02531-1.21227,1.037-.555,2.13241-1.00778,1.08811-.45278,2.22-.79357c.75462-.22882,1.519-.41869,2.28821-.57449.77409-.15092,1.55306-.26777,2.33689-.34566s1.56766-.112,2.35636-.112,1.57254.03408,2.35637.112,1.5628.19474,2.332.34566c.7741.1558,1.53846.34567,2.28821.57449q1.13193.34323,2.22491.79357,1.08812.45278,2.13242,1.00778c.6962.37488,1.368.779,2.0253,1.21227q.97859.65724,1.89386,1.407.91284.75219,1.7478,1.58227c.555.55988,1.08568,1.13923,1.58714,1.7478q.74488.91284,1.40213,1.89385c.43817.65726.84226,1.32911,1.21713,2.02531q.555,1.037,1.00779,2.13241.45278,1.08812.79357,2.22c.22882.75462.41869,1.51411.57448,2.28821.15093.76922.26777,1.54819.34567,2.332s.11684,1.56766.11684,2.35637-.03895,1.57253-.11684,2.35636-.19474,1.55793-.34567,2.332c-.15579.76923-.34566,1.53359-.57448,2.28821-.22882.74975-.49172,1.49464-.79357,2.22005s-.63778,1.43621-1.00779,2.13241c-.37487.69133-.779,1.36806-1.21713,2.02044-.43816.65725-.90554,1.28529-1.40213,1.89385q-.75219.91286-1.58714,1.7478a23.45926,23.45926,0,0,1-1.7478,1.58714q-.91285.74488-1.89386,1.40214c-.65725.43816-1.3291.84225-2.0253,1.21226a22.37993,22.37993,0,0,1-2.13242,1.00778q-1.09541.45278-2.22491.79844a22.7667,22.7667,0,0,1-2.28821.56962,22.06587,22.06587,0,0,1-2.332.34566c-.78383.0779-1.56767.11685-2.35637.11685s-1.57253-.03895-2.35636-.11685a22.34552,22.34552,0,0,1-2.33689-.34566,23.4429,23.4429,0,0,1-2.28821-.56962q-1.13193-.34323-2.22-.79844a21.31276,21.31276,0,0,1-2.13241-1.00778,22.9499,22.9499,0,0,1-2.02531-1.21226c-.65725-.43817-1.28529-.90555-1.89385-1.40214-.60857-.50146-1.19279-1.02726-1.75267-1.58714q-.83251-.83252-1.58227-1.7478a23.25188,23.25188,0,0,1-1.407-1.89385c-.43817-.65238-.84226-1.32911-1.21227-2.02044q-.555-1.0443-1.00778-2.13241a22.73575,22.73575,0,0,1-.79357-2.22005,23.46917,23.46917,0,0,1-.57449-2.28821,22.25738,22.25738,0,0,1-.34566-2.332c-.0779-.78383-.11684-1.56766-.11684-2.35636S353.13015,195.59806,353.20805,194.81423Z" transform="translate(-8.04487 -28.97146)" fill="#fff"/><g clip-path="url(#a)"><path d="M496.97069,364.42386c5.146-78.67534-12.6533-97.43863-16.27548-100.3987a9.62945,9.62945,0,0,0-5.83249-2.17623,9.52832,9.52832,0,0,0-.98831-.05355H427.12685a9.52867,9.52867,0,0,0-.98832.05355,9.62947,9.62947,0,0,0-5.83249,2.17623c-3.62218,2.96007-21.4215,21.72336-16.27547,100.3987a9.68027,9.68027,0,0,0,9.64941,9.04572c.20935,0,.42356-.00974.63778-.02435a9.63987,9.63987,0,0,0,5.12655-1.88412l6.58712,101.611a14.94369,14.94369,0,0,0,24.4692,10.53062,14.94369,14.94369,0,0,0,24.4692-10.53062l6.58711-101.611a9.63988,9.63988,0,0,0,5.12656,1.88412c.21421.01461.42843.02435.63777.02435A9.68027,9.68027,0,0,0,496.97069,364.42386Z" transform="translate(-8.04487 -28.97146)" fill="#fff"/></g><path d="M423.40729,225.03316q.13146-1.32911.39435-2.64361c.17527-.87147.38949-1.73806.64752-2.59006s.55988-1.68937.90067-2.51215a26.03689,26.03689,0,0,1,1.14411-2.41479,26.58533,26.58533,0,0,1,1.37292-2.28821c.49659-.74488,1.02726-1.45569,1.592-2.147.56475-.68646,1.16358-1.34858,1.79161-1.97662.63291-.63291,1.29016-1.22687,1.98149-1.79648a25.446,25.446,0,0,1,2.147-1.58714,26.588,26.588,0,0,1,2.28821-1.37293c.7887-.41869,1.592-.8033,2.41479-1.1441s1.665-.63778,2.517-.89581a26.51815,26.51815,0,0,1,2.59006-.65238q1.31449-.2556,2.64361-.38948c.88607-.08763,1.777-.13145,2.668-.13145s1.78188.04382,2.668.13145,1.76727.21908,2.64361.38948a26.518,26.518,0,0,1,2.59005.65238c.852.258,1.69425.555,2.517.89581s1.62609.72541,2.41479,1.1441a26.58628,26.58628,0,0,1,2.2882,1.37293,25.44281,25.44281,0,0,1,2.147,1.58714c.69133.56961,1.34858,1.16357,1.98149,1.79648.628.628,1.22687,1.29016,1.79162,1.97662.56475.69133,1.09541,1.40214,1.592,2.147a26.588,26.588,0,0,1,1.37293,2.28821,26.0368,26.0368,0,0,1,1.1441,2.41479q.5112,1.23417.90068,2.51215c.258.852.47224,1.71859.64751,2.59006q.26291,1.31449.39435,2.64361c.08764.88607.13145,1.77214.13145,2.66308,0,.89581-.04381,1.78188-.13145,2.668s-.21908,1.76727-.39435,2.64361c-.17527.87146-.38948,1.73806-.64751,2.59s-.55988,1.68938-.90068,2.51216a27.26963,27.26963,0,0,1-2.517,4.703c-.49659.74488-1.02725,1.45568-1.592,2.147-.56475.68647-1.16358,1.34859-1.79162,1.97662-.63291.63291-1.29016,1.22687-1.98149,1.79649a25.44281,25.44281,0,0,1-2.147,1.58714,26.58363,26.58363,0,0,1-2.2882,1.37292c-.7887.4187-1.592.80331-2.41479,1.14411s-1.665.63777-2.517.8958a26.518,26.518,0,0,1-2.59005.65239q-1.31451.25558-2.64361.38948c-.88607.08763-1.777.13145-2.668.13145s-1.78188-.04382-2.668-.13145-1.76728-.21909-2.64361-.38948a26.5182,26.5182,0,0,1-2.59006-.65239c-.852-.258-1.69424-.555-2.517-.8958s-1.62609-.72541-2.41479-1.14411a26.58533,26.58533,0,0,1-2.28821-1.37292,25.446,25.446,0,0,1-2.147-1.58714c-.69133-.56962-1.34858-1.16358-1.98149-1.79649-.628-.628-1.22686-1.29015-1.79161-1.97662-.56475-.69133-1.09542-1.40213-1.592-2.147a27.27146,27.27146,0,0,1-2.517-4.703q-.51118-1.23417-.90067-2.51216c-.258-.852-.47225-1.71859-.64752-2.59q-.26289-1.31451-.39435-2.64361c-.08763-.88607-.12658-1.77214-.12658-2.668C423.28071,226.8053,423.31966,225.91923,423.40729,225.03316Z" transform="translate(-8.04487 -28.97146)" fill="#fff"/><path d="M38.80794,61.98974c-1.43-8.44114-4.05747-11.14909-4.81712-11.77022a3.23786,3.23786,0,0,0-1.95277-.72838c-.10725-.00894-.219-.01787-.33067-.01787h-.5407a13.44894,13.44894,0,0,1-14.5452,0h-.54517a2.68391,2.68391,0,0,0-.33067.01787,3.22543,3.22543,0,0,0-1.9483.72838c-1.211.98755-7.16312,7.2659-5.44272,33.57238a3.2348,3.2348,0,0,0,3.22631,3.02522c.07149,0,.13852,0,.21449-.00447a3.24021,3.24021,0,0,0,1.71146-.63006l2.203,33.979a4.99715,4.99715,0,0,0,8.18195,3.52123,4.99747,4.99747,0,0,0,8.182-3.52123L32.88261,107.73a8.03826,8.03826,0,0,1-1.66231-4.36133C29.28541,73.751,35.75143,64.61726,38.80794,61.98974Z" transform="translate(-8.04487 -28.97146)" fill="#fff"/><path d="M32.99879,38.06947a9.10472,9.10472,0,1,0-9.107,9.098A9.1025,9.1025,0,0,0,32.99879,38.06947Z" transform="translate(-8.04487 -28.97146)" fill="#fff"/></svg>