<svg xmlns="http://www.w3.org/2000/svg" xmlns:xlink="http://www.w3.org/1999/xlink" width="500" zoomAndPan="magnify" viewBox="0 0 375 374.999991" height="500" preserveAspectRatio="xMidYMid meet" version="1.0"><defs><clipPath id="id1"><path d="M 3 184 L 80 184 L 80 365.90625 L 3 365.90625 Z M 3 184 " clip-rule="nonzero"/></clipPath></defs><path fill="rgb(100%, 100%, 100%)" d="M 353.535156 74.160156 C 353.441406 75.59375 352.902344 76.898438 352.082031 77.972656 L 352.789062 88.839844 C 352.941406 91.25 355.023438 93.074219 357.433594 92.917969 C 358.390625 92.855469 359.253906 92.488281 359.941406 91.917969 C 360.625 92.488281 361.488281 92.855469 362.445312 92.917969 C 364.855469 93.074219 366.9375 91.25 367.09375 88.839844 L 369.019531 59.136719 C 369.441406 59.449219 369.953125 59.648438 370.515625 59.6875 C 370.582031 59.691406 370.640625 59.691406 370.703125 59.691406 C 372.183594 59.691406 373.425781 58.542969 373.523438 57.046875 C 375.027344 34.050781 369.824219 28.5625 368.765625 27.699219 C 368.265625 27.289062 367.664062 27.082031 367.0625 27.0625 C 366.96875 27.050781 366.871094 27.046875 366.773438 27.046875 L 366.296875 27.046875 C 364.457031 28.222656 362.28125 28.914062 359.941406 28.914062 C 357.601562 28.914062 355.421875 28.222656 353.582031 27.046875 L 353.109375 27.046875 C 353.011719 27.046875 352.914062 27.054688 352.820312 27.0625 C 352.214844 27.082031 351.617188 27.289062 351.113281 27.699219 C 350.449219 28.242188 348.152344 30.609375 346.902344 37.988281 C 349.574219 40.285156 355.226562 48.269531 353.535156 74.160156 Z M 353.535156 74.160156 " fill-opacity="1" fill-rule="nonzero"/><path fill="rgb(100%, 100%, 100%)" d="M 359.941406 25.03125 C 364.335938 25.03125 367.898438 21.472656 367.898438 17.078125 C 367.898438 12.6875 364.335938 9.125 359.941406 9.125 C 355.542969 9.125 351.980469 12.6875 351.980469 17.078125 C 351.980469 21.472656 355.542969 25.03125 359.941406 25.03125 Z M 359.941406 25.03125 " fill-opacity="1" fill-rule="nonzero"/><path fill="rgb(100%, 100%, 100%)" d="M 326.347656 93.261719 C 326.273438 94.359375 325.945312 95.382812 325.449219 96.300781 L 326.316406 109.691406 C 326.492188 112.402344 328.835938 114.457031 331.546875 114.28125 C 332.625 114.210938 333.597656 113.796875 334.367188 113.152344 C 335.140625 113.796875 336.113281 114.210938 337.191406 114.28125 C 339.902344 114.457031 342.242188 112.402344 342.417969 109.691406 L 344.585938 76.257812 C 345.0625 76.609375 345.640625 76.835938 346.273438 76.875 C 346.34375 76.882812 346.414062 76.882812 346.484375 76.882812 C 348.148438 76.882812 349.546875 75.589844 349.660156 73.90625 C 351.351562 48.019531 345.496094 41.847656 344.304688 40.871094 C 343.738281 40.410156 343.0625 40.175781 342.382812 40.15625 C 342.277344 40.144531 342.167969 40.140625 342.058594 40.140625 L 340.585938 40.140625 C 338.742188 41.164062 336.625 41.753906 334.367188 41.753906 C 332.113281 41.753906 329.992188 41.164062 328.148438 40.140625 L 326.679688 40.140625 C 326.566406 40.140625 326.460938 40.144531 326.351562 40.15625 C 325.675781 40.175781 325 40.410156 324.433594 40.871094 C 323.667969 41.5 320.972656 44.289062 319.597656 53.078125 C 322.738281 56.292969 328.136719 65.882812 326.347656 93.261719 Z M 326.347656 93.261719 " fill-opacity="1" fill-rule="nonzero"/><path fill="rgb(100%, 100%, 100%)" d="M 343.324219 28.917969 C 343.324219 29.507812 343.269531 30.089844 343.152344 30.664062 C 343.039062 31.242188 342.867188 31.800781 342.644531 32.34375 C 342.417969 32.886719 342.144531 33.402344 341.816406 33.890625 C 341.488281 34.382812 341.117188 34.832031 340.703125 35.25 C 340.285156 35.664062 339.832031 36.035156 339.34375 36.363281 C 338.855469 36.6875 338.339844 36.964844 337.796875 37.191406 C 337.253906 37.414062 336.691406 37.585938 336.117188 37.699219 C 335.539062 37.8125 334.957031 37.871094 334.367188 37.871094 C 333.78125 37.871094 333.199219 37.8125 332.621094 37.699219 C 332.042969 37.585938 331.484375 37.414062 330.941406 37.191406 C 330.398438 36.964844 329.882812 36.6875 329.390625 36.363281 C 328.902344 36.035156 328.449219 35.664062 328.035156 35.25 C 327.617188 34.832031 327.246094 34.382812 326.921875 33.890625 C 326.59375 33.402344 326.316406 32.886719 326.09375 32.34375 C 325.867188 31.800781 325.699219 31.242188 325.582031 30.664062 C 325.46875 30.089844 325.410156 29.507812 325.410156 28.917969 C 325.410156 28.332031 325.46875 27.75 325.582031 27.171875 C 325.699219 26.59375 325.867188 26.035156 326.09375 25.492188 C 326.316406 24.949219 326.59375 24.433594 326.921875 23.945312 C 327.246094 23.457031 327.617188 23.003906 328.035156 22.589844 C 328.449219 22.171875 328.902344 21.800781 329.390625 21.476562 C 329.882812 21.148438 330.398438 20.871094 330.941406 20.648438 C 331.484375 20.421875 332.042969 20.253906 332.621094 20.136719 C 333.199219 20.023438 333.78125 19.964844 334.367188 19.964844 C 334.957031 19.964844 335.539062 20.023438 336.117188 20.136719 C 336.691406 20.253906 337.253906 20.421875 337.796875 20.648438 C 338.339844 20.871094 338.855469 21.148438 339.34375 21.476562 C 339.832031 21.800781 340.285156 22.171875 340.703125 22.589844 C 341.117188 23.003906 341.488281 23.457031 341.816406 23.945312 C 342.144531 24.433594 342.417969 24.949219 342.644531 25.492188 C 342.867188 26.035156 343.039062 26.59375 343.152344 27.171875 C 343.269531 27.75 343.324219 28.332031 343.324219 28.917969 Z M 343.324219 28.917969 " fill-opacity="1" fill-rule="nonzero"/><path fill="rgb(100%, 100%, 100%)" d="M 296.585938 114.664062 C 296.480469 116.308594 295.871094 117.8125 294.921875 119.035156 L 295.878906 133.773438 C 296.078125 136.863281 298.746094 139.203125 301.835938 139.003906 C 303.066406 138.921875 304.171875 138.449219 305.050781 137.71875 C 305.929688 138.449219 307.039062 138.921875 308.265625 139.003906 C 311.355469 139.203125 314.023438 136.863281 314.222656 133.773438 L 316.691406 95.683594 C 317.234375 96.085938 317.890625 96.34375 318.613281 96.390625 C 318.695312 96.394531 318.773438 96.398438 318.855469 96.398438 C 320.75 96.398438 322.347656 94.925781 322.472656 93.007812 C 324.398438 63.515625 317.726562 56.484375 316.371094 55.371094 C 315.726562 54.84375 314.957031 54.582031 314.183594 54.558594 C 314.0625 54.542969 313.9375 54.539062 313.8125 54.539062 L 310.921875 54.539062 C 309.132812 55.363281 307.148438 55.835938 305.050781 55.835938 C 302.953125 55.835938 300.96875 55.363281 299.179688 54.539062 L 296.289062 54.539062 C 296.164062 54.539062 296.042969 54.542969 295.917969 54.558594 C 295.148438 54.582031 294.378906 54.84375 293.734375 55.371094 C 292.878906 56.070312 289.925781 59.117188 288.328125 68.609375 C 291.628906 71.394531 298.765625 81.359375 296.585938 114.664062 Z M 296.585938 114.664062 " fill-opacity="1" fill-rule="nonzero"/><path fill="rgb(100%, 100%, 100%)" d="M 315.253906 41.753906 C 315.253906 42.425781 315.191406 43.089844 315.058594 43.746094 C 314.929688 44.402344 314.734375 45.039062 314.480469 45.65625 C 314.222656 46.277344 313.90625 46.863281 313.535156 47.421875 C 313.164062 47.976562 312.742188 48.492188 312.265625 48.96875 C 311.792969 49.441406 311.277344 49.863281 310.71875 50.234375 C 310.164062 50.605469 309.574219 50.921875 308.957031 51.179688 C 308.335938 51.433594 307.699219 51.628906 307.042969 51.757812 C 306.382812 51.890625 305.722656 51.953125 305.050781 51.953125 C 304.378906 51.953125 303.71875 51.890625 303.058594 51.757812 C 302.402344 51.628906 301.765625 51.433594 301.144531 51.179688 C 300.527344 50.921875 299.9375 50.605469 299.382812 50.234375 C 298.824219 49.863281 298.308594 49.441406 297.835938 48.96875 C 297.359375 48.492188 296.9375 47.976562 296.566406 47.421875 C 296.195312 46.863281 295.878906 46.277344 295.621094 45.65625 C 295.367188 45.039062 295.171875 44.402344 295.042969 43.746094 C 294.910156 43.089844 294.847656 42.425781 294.847656 41.753906 C 294.847656 41.085938 294.910156 40.421875 295.042969 39.765625 C 295.171875 39.109375 295.367188 38.46875 295.625 37.851562 C 295.878906 37.234375 296.195312 36.644531 296.566406 36.089844 C 296.9375 35.53125 297.363281 35.015625 297.835938 34.542969 C 298.308594 34.070312 298.824219 33.648438 299.382812 33.273438 C 299.9375 32.902344 300.527344 32.589844 301.144531 32.332031 C 301.765625 32.074219 302.402344 31.882812 303.058594 31.75 C 303.71875 31.621094 304.378906 31.554688 305.050781 31.554688 C 305.722656 31.554688 306.382812 31.621094 307.042969 31.75 C 307.699219 31.882812 308.335938 32.074219 308.957031 32.332031 C 309.574219 32.589844 310.164062 32.902344 310.71875 33.273438 C 311.277344 33.648438 311.792969 34.070312 312.265625 34.542969 C 312.742188 35.015625 313.164062 35.53125 313.535156 36.089844 C 313.90625 36.644531 314.222656 37.234375 314.480469 37.851562 C 314.734375 38.46875 314.929688 39.109375 315.058594 39.765625 C 315.191406 40.421875 315.253906 41.085938 315.253906 41.753906 Z M 315.253906 41.753906 " fill-opacity="1" fill-rule="nonzero"/><path fill="rgb(100%, 100%, 100%)" d="M 256.265625 86.078125 C 259.890625 89.046875 268.058594 100.054688 265.574219 138.042969 C 265.386719 140.960938 263.734375 143.46875 261.367188 144.867188 L 262.40625 160.867188 C 262.632812 164.386719 265.675781 167.054688 269.195312 166.828125 C 270.597656 166.738281 271.855469 166.199219 272.859375 165.367188 C 273.863281 166.199219 275.121094 166.738281 276.523438 166.828125 C 280.042969 167.054688 283.085938 164.386719 283.3125 160.867188 L 286.128906 117.457031 C 286.742188 117.917969 287.492188 118.210938 288.316406 118.261719 C 288.410156 118.269531 288.5 118.273438 288.589844 118.273438 C 290.75 118.273438 292.570312 116.59375 292.710938 114.410156 C 294.910156 80.796875 287.304688 72.78125 285.757812 71.515625 C 285.023438 70.917969 284.148438 70.613281 283.265625 70.589844 C 283.128906 70.574219 282.988281 70.566406 282.84375 70.566406 L 278.121094 70.566406 C 276.472656 71.160156 274.707031 71.503906 272.859375 71.503906 C 271.011719 71.503906 269.246094 71.160156 267.601562 70.566406 L 262.875 70.566406 C 262.730469 70.566406 262.589844 70.574219 262.453125 70.589844 C 261.570312 70.613281 260.695312 70.917969 259.960938 71.515625 C 259.042969 72.265625 255.996094 75.390625 254.125 84.8125 C 254.886719 85.128906 255.609375 85.542969 256.265625 86.078125 Z M 256.265625 86.078125 " fill-opacity="1" fill-rule="nonzero"/><path fill="rgb(100%, 100%, 100%)" d="M 284.488281 55.996094 C 284.488281 56.761719 284.414062 57.515625 284.265625 58.265625 C 284.117188 59.011719 283.894531 59.738281 283.605469 60.445312 C 283.3125 61.148438 282.953125 61.820312 282.53125 62.453125 C 282.105469 63.089844 281.625 63.675781 281.082031 64.214844 C 280.542969 64.753906 279.957031 65.238281 279.320312 65.660156 C 278.6875 66.085938 278.015625 66.445312 277.308594 66.734375 C 276.605469 67.027344 275.878906 67.25 275.128906 67.398438 C 274.378906 67.546875 273.625 67.621094 272.859375 67.621094 C 272.097656 67.621094 271.339844 67.546875 270.589844 67.398438 C 269.84375 67.25 269.113281 67.027344 268.410156 66.734375 C 267.703125 66.445312 267.035156 66.085938 266.398438 65.660156 C 265.765625 65.238281 265.175781 64.753906 264.636719 64.214844 C 264.097656 63.675781 263.613281 63.089844 263.191406 62.453125 C 262.765625 61.820312 262.40625 61.148438 262.117188 60.445312 C 261.824219 59.738281 261.601562 59.011719 261.453125 58.265625 C 261.304688 57.515625 261.230469 56.761719 261.230469 55.996094 C 261.230469 55.234375 261.304688 54.476562 261.453125 53.730469 C 261.601562 52.980469 261.824219 52.253906 262.117188 51.550781 C 262.40625 50.84375 262.765625 50.175781 263.191406 49.539062 C 263.613281 48.90625 264.097656 48.316406 264.636719 47.777344 C 265.175781 47.238281 265.765625 46.757812 266.398438 46.332031 C 267.035156 45.910156 267.703125 45.550781 268.410156 45.257812 C 269.113281 44.964844 269.84375 44.746094 270.589844 44.597656 C 271.339844 44.449219 272.097656 44.375 272.859375 44.375 C 273.625 44.375 274.378906 44.449219 275.128906 44.597656 C 275.878906 44.746094 276.605469 44.964844 277.308594 45.257812 C 278.015625 45.550781 278.6875 45.910156 279.320312 46.332031 C 279.957031 46.757812 280.542969 47.238281 281.082031 47.777344 C 281.625 48.316406 282.105469 48.90625 282.53125 49.539062 C 282.953125 50.175781 283.3125 50.84375 283.605469 51.550781 C 283.894531 52.253906 284.117188 52.980469 284.265625 53.730469 C 284.414062 54.476562 284.488281 55.234375 284.488281 55.996094 Z M 284.488281 55.996094 " fill-opacity="1" fill-rule="nonzero"/><path fill="rgb(100%, 100%, 100%)" d="M 226.03125 166.488281 C 226 166.976562 225.921875 167.453125 225.816406 167.917969 L 227.285156 190.550781 C 227.542969 194.546875 230.996094 197.578125 234.996094 197.316406 C 236.585938 197.214844 238.019531 196.601562 239.15625 195.65625 C 240.292969 196.601562 241.726562 197.214844 243.316406 197.316406 C 247.3125 197.578125 250.769531 194.546875 251.027344 190.550781 L 254.222656 141.253906 C 254.921875 141.773438 255.773438 142.109375 256.710938 142.167969 C 256.8125 142.175781 256.917969 142.179688 257.019531 142.179688 C 259.472656 142.179688 261.539062 140.273438 261.703125 137.792969 C 264.195312 99.625 255.5625 90.519531 253.804688 89.082031 C 252.972656 88.402344 251.972656 88.058594 250.976562 88.027344 C 250.816406 88.011719 250.65625 88.003906 250.496094 88.003906 L 243.335938 88.003906 C 241.992188 88.339844 240.597656 88.539062 239.15625 88.539062 C 237.710938 88.539062 236.316406 88.339844 234.976562 88.003906 L 227.816406 88.003906 C 227.65625 88.003906 227.496094 88.011719 227.335938 88.027344 C 226.339844 88.058594 225.339844 88.402344 224.507812 89.082031 C 223.339844 90.039062 219.128906 94.40625 217.171875 108.457031 C 221.304688 113.402344 228.566406 127.769531 226.03125 166.488281 Z M 226.03125 166.488281 " fill-opacity="1" fill-rule="nonzero"/><path fill="rgb(100%, 100%, 100%)" d="M 252.363281 71.460938 C 252.363281 72.328125 252.277344 73.183594 252.109375 74.035156 C 251.941406 74.886719 251.691406 75.710938 251.359375 76.511719 C 251.027344 77.3125 250.621094 78.074219 250.136719 78.792969 C 249.65625 79.515625 249.109375 80.179688 248.496094 80.792969 C 247.882812 81.40625 247.214844 81.953125 246.492188 82.433594 C 245.773438 82.917969 245.011719 83.324219 244.210938 83.65625 C 243.410156 83.988281 242.582031 84.238281 241.734375 84.40625 C 240.882812 84.574219 240.023438 84.660156 239.15625 84.660156 C 238.289062 84.660156 237.429688 84.574219 236.578125 84.40625 C 235.730469 84.238281 234.902344 83.988281 234.101562 83.65625 C 233.300781 83.324219 232.539062 82.917969 231.820312 82.433594 C 231.097656 81.953125 230.429688 81.40625 229.816406 80.792969 C 229.203125 80.179688 228.65625 79.515625 228.175781 78.792969 C 227.695312 78.074219 227.285156 77.3125 226.953125 76.511719 C 226.621094 75.710938 226.371094 74.886719 226.203125 74.035156 C 226.035156 73.183594 225.949219 72.328125 225.949219 71.460938 C 225.949219 70.59375 226.035156 69.734375 226.203125 68.882812 C 226.371094 68.035156 226.621094 67.210938 226.953125 66.410156 C 227.285156 65.609375 227.695312 64.847656 228.175781 64.125 C 228.65625 63.40625 229.203125 62.738281 229.816406 62.125 C 230.429688 61.511719 231.097656 60.964844 231.820312 60.484375 C 232.539062 60.003906 233.300781 59.597656 234.101562 59.265625 C 234.902344 58.933594 235.730469 58.683594 236.578125 58.511719 C 237.429688 58.34375 238.289062 58.257812 239.15625 58.257812 C 240.023438 58.257812 240.882812 58.34375 241.734375 58.511719 C 242.582031 58.683594 243.410156 58.933594 244.210938 59.265625 C 245.011719 59.597656 245.773438 60.003906 246.492188 60.484375 C 247.214844 60.964844 247.882812 61.511719 248.496094 62.125 C 249.109375 62.738281 249.65625 63.40625 250.136719 64.125 C 250.621094 64.847656 251.027344 65.609375 251.359375 66.410156 C 251.691406 67.210938 251.941406 68.035156 252.109375 68.882812 C 252.277344 69.734375 252.363281 70.59375 252.363281 71.460938 Z M 252.363281 71.460938 " fill-opacity="1" fill-rule="nonzero"/><path fill="rgb(100%, 100%, 100%)" d="M 172.003906 130.734375 C 175.554688 133.636719 186.878906 146.988281 183.617188 196.886719 C 183.453125 199.40625 182.347656 201.652344 180.664062 203.308594 L 182.230469 227.445312 C 182.53125 232.085938 186.535156 235.601562 191.175781 235.300781 C 193.019531 235.179688 194.679688 234.46875 196 233.371094 C 197.320312 234.46875 198.984375 235.179688 200.828125 235.300781 C 205.464844 235.601562 209.472656 232.085938 209.773438 227.445312 L 213.480469 170.253906 C 214.296875 170.855469 215.28125 171.242188 216.367188 171.3125 C 216.488281 171.320312 216.609375 171.328125 216.726562 171.328125 C 219.574219 171.328125 221.96875 169.117188 222.160156 166.234375 C 225.054688 121.953125 215.035156 111.390625 212.996094 109.722656 C 212.03125 108.933594 210.875 108.535156 209.714844 108.5 C 209.53125 108.480469 209.34375 108.46875 209.15625 108.46875 L 196.042969 108.46875 C 196.03125 108.46875 196.015625 108.472656 196 108.472656 C 195.984375 108.472656 195.972656 108.46875 195.957031 108.46875 L 182.847656 108.46875 C 182.65625 108.46875 182.472656 108.480469 182.289062 108.5 C 181.128906 108.535156 179.972656 108.933594 179.007812 109.722656 C 177.714844 110.78125 173.226562 115.417969 170.839844 129.917969 C 171.246094 130.164062 171.632812 130.433594 172.003906 130.734375 Z M 172.003906 130.734375 " fill-opacity="1" fill-rule="nonzero"/><path fill="rgb(100%, 100%, 100%)" d="M 211.324219 89.277344 C 211.324219 90.28125 211.226562 91.277344 211.03125 92.265625 C 210.832031 93.25 210.542969 94.207031 210.15625 95.136719 C 209.773438 96.066406 209.300781 96.949219 208.742188 97.785156 C 208.183594 98.621094 207.546875 99.394531 206.835938 100.105469 C 206.125 100.816406 205.351562 101.449219 204.515625 102.007812 C 203.679688 102.566406 202.792969 103.039062 201.867188 103.425781 C 200.9375 103.808594 199.976562 104.101562 198.992188 104.296875 C 198.003906 104.492188 197.007812 104.589844 196 104.589844 C 194.996094 104.589844 194 104.492188 193.011719 104.296875 C 192.027344 104.101562 191.066406 103.808594 190.136719 103.425781 C 189.207031 103.039062 188.324219 102.566406 187.488281 102.007812 C 186.652344 101.449219 185.878906 100.816406 185.167969 100.105469 C 184.457031 99.394531 183.820312 98.621094 183.261719 97.785156 C 182.703125 96.949219 182.230469 96.066406 181.847656 95.136719 C 181.460938 94.207031 181.171875 93.25 180.972656 92.265625 C 180.777344 91.277344 180.679688 90.28125 180.679688 89.277344 C 180.679688 88.269531 180.777344 87.273438 180.972656 86.289062 C 181.171875 85.300781 181.460938 84.34375 181.847656 83.414062 C 182.230469 82.488281 182.703125 81.605469 183.261719 80.769531 C 183.820312 79.933594 184.457031 79.160156 185.167969 78.449219 C 185.878906 77.738281 186.652344 77.101562 187.488281 76.542969 C 188.324219 75.984375 189.207031 75.511719 190.136719 75.128906 C 191.066406 74.742188 192.027344 74.453125 193.011719 74.257812 C 194 74.058594 194.996094 73.960938 196 73.960938 C 197.007812 73.960938 198.003906 74.058594 198.992188 74.257812 C 199.976562 74.453125 200.9375 74.742188 201.867188 75.128906 C 202.792969 75.511719 203.679688 75.984375 204.515625 76.542969 C 205.351562 77.101562 206.125 77.738281 206.835938 78.449219 C 207.546875 79.160156 208.183594 79.933594 208.742188 80.769531 C 209.300781 81.605469 209.773438 82.488281 210.15625 83.414062 C 210.542969 84.34375 210.832031 85.300781 211.03125 86.289062 C 211.226562 87.273438 211.324219 88.269531 211.324219 89.277344 Z M 211.324219 89.277344 " fill-opacity="1" fill-rule="nonzero"/><path fill="rgb(100%, 100%, 100%)" d="M 137.097656 229.8125 C 136.910156 232.722656 135.550781 235.304688 133.507812 237.121094 L 135.300781 264.761719 C 135.636719 269.925781 140.09375 273.835938 145.257812 273.503906 C 147.3125 273.371094 149.160156 272.578125 150.628906 271.359375 C 152.101562 272.578125 153.949219 273.371094 156 273.503906 C 161.164062 273.835938 165.625 269.925781 165.957031 264.761719 L 170.085938 201.109375 C 170.992188 201.777344 172.089844 202.210938 173.296875 202.289062 C 173.429688 202.296875 173.566406 202.300781 173.699219 202.300781 C 176.867188 202.300781 179.53125 199.839844 179.742188 196.636719 C 182.964844 147.347656 171.8125 135.59375 169.546875 133.738281 C 168.46875 132.859375 167.183594 132.414062 165.890625 132.375 C 165.6875 132.355469 165.480469 132.34375 165.273438 132.34375 L 135.988281 132.34375 C 135.777344 132.34375 135.574219 132.355469 135.367188 132.375 C 134.078125 132.414062 132.789062 132.859375 131.714844 133.738281 C 130.328125 134.871094 125.632812 139.71875 122.917969 154.539062 C 123.34375 154.796875 123.757812 155.082031 124.148438 155.402344 C 128.117188 158.648438 140.773438 173.605469 137.097656 229.8125 Z M 137.097656 229.8125 " fill-opacity="1" fill-rule="nonzero"/><path fill="rgb(100%, 100%, 100%)" d="M 167.683594 110.980469 C 167.683594 111.539062 167.65625 112.097656 167.601562 112.652344 C 167.546875 113.207031 167.464844 113.757812 167.355469 114.308594 C 167.246094 114.855469 167.113281 115.394531 166.949219 115.929688 C 166.789062 116.464844 166.601562 116.988281 166.386719 117.503906 C 166.171875 118.019531 165.933594 118.523438 165.671875 119.015625 C 165.40625 119.507812 165.121094 119.988281 164.808594 120.453125 C 164.5 120.914062 164.167969 121.363281 163.8125 121.792969 C 163.457031 122.226562 163.085938 122.640625 162.6875 123.035156 C 162.292969 123.429688 161.878906 123.804688 161.449219 124.15625 C 161.015625 124.511719 160.570312 124.84375 160.105469 125.152344 C 159.640625 125.464844 159.160156 125.75 158.667969 126.015625 C 158.175781 126.277344 157.671875 126.515625 157.15625 126.730469 C 156.640625 126.941406 156.113281 127.128906 155.582031 127.292969 C 155.046875 127.453125 154.503906 127.589844 153.957031 127.699219 C 153.410156 127.808594 152.859375 127.890625 152.300781 127.945312 C 151.746094 128 151.1875 128.027344 150.628906 128.027344 C 150.070312 128.027344 149.515625 128 148.957031 127.945312 C 148.402344 127.890625 147.851562 127.808594 147.304688 127.699219 C 146.753906 127.589844 146.214844 127.453125 145.679688 127.292969 C 145.144531 127.128906 144.621094 126.941406 144.105469 126.730469 C 143.585938 126.515625 143.082031 126.277344 142.589844 126.015625 C 142.097656 125.75 141.621094 125.464844 141.15625 125.152344 C 140.691406 124.84375 140.242188 124.511719 139.8125 124.15625 C 139.378906 123.804688 138.964844 123.429688 138.570312 123.035156 C 138.175781 122.640625 137.800781 122.226562 137.445312 121.792969 C 137.09375 121.363281 136.761719 120.914062 136.449219 120.453125 C 136.140625 119.988281 135.851562 119.507812 135.589844 119.015625 C 135.328125 118.523438 135.085938 118.019531 134.875 117.503906 C 134.660156 116.988281 134.472656 116.464844 134.308594 115.929688 C 134.148438 115.394531 134.011719 114.855469 133.902344 114.308594 C 133.792969 113.757812 133.710938 113.207031 133.65625 112.652344 C 133.601562 112.097656 133.574219 111.539062 133.574219 110.980469 C 133.574219 110.421875 133.601562 109.867188 133.65625 109.3125 C 133.710938 108.753906 133.792969 108.203125 133.902344 107.65625 C 134.011719 107.109375 134.148438 106.566406 134.308594 106.035156 C 134.472656 105.5 134.660156 104.972656 134.875 104.457031 C 135.085938 103.941406 135.328125 103.4375 135.589844 102.945312 C 135.851562 102.453125 136.140625 101.976562 136.449219 101.511719 C 136.761719 101.046875 137.09375 100.601562 137.445312 100.167969 C 137.800781 99.738281 138.175781 99.324219 138.570312 98.929688 C 138.964844 98.535156 139.378906 98.160156 139.8125 97.804688 C 140.242188 97.453125 140.691406 97.117188 141.15625 96.808594 C 141.621094 96.5 142.097656 96.210938 142.589844 95.949219 C 143.082031 95.6875 143.585938 95.449219 144.105469 95.234375 C 144.621094 95.019531 145.144531 94.832031 145.679688 94.671875 C 146.214844 94.507812 146.753906 94.371094 147.304688 94.265625 C 147.851562 94.15625 148.402344 94.074219 148.957031 94.019531 C 149.515625 93.964844 150.070312 93.9375 150.628906 93.9375 C 151.1875 93.9375 151.746094 93.964844 152.300781 94.019531 C 152.859375 94.074219 153.410156 94.15625 153.957031 94.265625 C 154.503906 94.371094 155.046875 94.507812 155.582031 94.671875 C 156.113281 94.832031 156.640625 95.019531 157.15625 95.234375 C 157.671875 95.449219 158.175781 95.6875 158.667969 95.949219 C 159.160156 96.210938 159.640625 96.5 160.105469 96.808594 C 160.570312 97.117188 161.015625 97.453125 161.449219 97.804688 C 161.878906 98.160156 162.292969 98.535156 162.6875 98.929688 C 163.085938 99.324219 163.457031 99.738281 163.8125 100.167969 C 164.167969 100.601562 164.5 101.046875 164.808594 101.511719 C 165.121094 101.976562 165.40625 102.453125 165.671875 102.945312 C 165.933594 103.4375 166.171875 103.941406 166.386719 104.457031 C 166.601562 104.972656 166.789062 105.5 166.949219 106.035156 C 167.113281 106.566406 167.246094 107.109375 167.355469 107.65625 C 167.464844 108.203125 167.546875 108.753906 167.601562 109.3125 C 167.65625 109.867188 167.683594 110.421875 167.683594 110.980469 Z M 167.683594 110.980469 " fill-opacity="1" fill-rule="nonzero"/><path fill="rgb(100%, 100%, 100%)" d="M 82.585938 267.109375 C 82.453125 269.144531 81.789062 271.027344 80.746094 272.640625 L 82.949219 306.628906 C 83.328125 312.46875 88.371094 316.894531 94.214844 316.515625 C 96.535156 316.367188 98.628906 315.472656 100.289062 314.089844 C 101.953125 315.472656 104.042969 316.367188 106.367188 316.515625 C 112.207031 316.894531 117.253906 312.46875 117.632812 306.628906 L 122.300781 234.617188 C 123.324219 235.375 124.566406 235.863281 125.933594 235.953125 C 126.085938 235.960938 126.234375 235.96875 126.386719 235.96875 C 129.972656 235.96875 132.988281 233.183594 133.222656 229.558594 C 136.871094 173.800781 124.253906 160.503906 121.691406 158.402344 C 120.472656 157.40625 119.015625 156.90625 117.554688 156.863281 C 117.324219 156.839844 117.089844 156.824219 116.855469 156.824219 L 83.726562 156.824219 C 83.488281 156.824219 83.253906 156.839844 83.023438 156.863281 C 81.566406 156.90625 80.109375 157.40625 78.890625 158.402344 C 77.269531 159.730469 71.628906 165.542969 68.621094 183.738281 C 73.539062 188.183594 86.582031 205.96875 82.585938 267.109375 Z M 82.585938 267.109375 " fill-opacity="1" fill-rule="nonzero"/><path fill="rgb(100%, 100%, 100%)" d="M 119.582031 132.660156 C 119.582031 133.292969 119.550781 133.921875 119.488281 134.550781 C 119.429688 135.179688 119.335938 135.800781 119.210938 136.421875 C 119.089844 137.039062 118.933594 137.652344 118.75 138.257812 C 118.570312 138.859375 118.355469 139.457031 118.113281 140.039062 C 117.871094 140.621094 117.601562 141.191406 117.304688 141.75 C 117.007812 142.304688 116.683594 142.847656 116.332031 143.371094 C 115.980469 143.898438 115.605469 144.402344 115.203125 144.890625 C 114.800781 145.378906 114.378906 145.847656 113.933594 146.292969 C 113.484375 146.742188 113.015625 147.164062 112.527344 147.566406 C 112.039062 147.964844 111.535156 148.339844 111.007812 148.691406 C 110.484375 149.042969 109.941406 149.367188 109.382812 149.664062 C 108.828125 149.964844 108.257812 150.234375 107.671875 150.472656 C 107.089844 150.714844 106.496094 150.929688 105.890625 151.113281 C 105.285156 151.296875 104.671875 151.449219 104.054688 151.570312 C 103.433594 151.695312 102.808594 151.789062 102.179688 151.847656 C 101.550781 151.910156 100.921875 151.941406 100.289062 151.941406 C 99.65625 151.941406 99.027344 151.910156 98.398438 151.847656 C 97.769531 151.789062 97.144531 151.695312 96.527344 151.570312 C 95.90625 151.449219 95.292969 151.296875 94.691406 151.113281 C 94.085938 150.929688 93.492188 150.714844 92.90625 150.472656 C 92.324219 150.234375 91.753906 149.964844 91.195312 149.664062 C 90.636719 149.367188 90.097656 149.042969 89.570312 148.691406 C 89.046875 148.339844 88.539062 147.964844 88.050781 147.566406 C 87.5625 147.164062 87.09375 146.742188 86.648438 146.292969 C 86.203125 145.847656 85.777344 145.378906 85.375 144.890625 C 84.976562 144.402344 84.601562 143.898438 84.25 143.371094 C 83.898438 142.847656 83.574219 142.304688 83.273438 141.75 C 82.976562 141.191406 82.707031 140.621094 82.464844 140.039062 C 82.222656 139.457031 82.011719 138.859375 81.828125 138.257812 C 81.644531 137.652344 81.492188 137.039062 81.367188 136.421875 C 81.246094 135.800781 81.152344 135.179688 81.089844 134.550781 C 81.027344 133.921875 80.996094 133.292969 80.996094 132.660156 C 80.996094 132.027344 81.027344 131.398438 81.089844 130.769531 C 81.152344 130.140625 81.246094 129.515625 81.367188 128.898438 C 81.492188 128.277344 81.644531 127.667969 81.828125 127.0625 C 82.011719 126.457031 82.222656 125.863281 82.464844 125.28125 C 82.707031 124.695312 82.976562 124.125 83.273438 123.570312 C 83.574219 123.011719 83.898438 122.472656 84.25 121.945312 C 84.601562 121.421875 84.976562 120.914062 85.375 120.425781 C 85.777344 119.9375 86.203125 119.472656 86.648438 119.023438 C 87.09375 118.578125 87.5625 118.15625 88.050781 117.753906 C 88.539062 117.351562 89.046875 116.976562 89.570312 116.625 C 90.097656 116.277344 90.636719 115.953125 91.195312 115.652344 C 91.753906 115.355469 92.324219 115.085938 92.90625 114.84375 C 93.492188 114.601562 94.085938 114.390625 94.691406 114.207031 C 95.292969 114.023438 95.90625 113.871094 96.527344 113.746094 C 97.144531 113.625 97.769531 113.53125 98.398438 113.46875 C 99.027344 113.40625 99.65625 113.378906 100.289062 113.378906 C 100.921875 113.378906 101.550781 113.40625 102.179688 113.46875 C 102.808594 113.53125 103.433594 113.625 104.054688 113.746094 C 104.671875 113.871094 105.285156 114.023438 105.890625 114.207031 C 106.496094 114.390625 107.089844 114.601562 107.671875 114.84375 C 108.257812 115.085938 108.828125 115.355469 109.382812 115.652344 C 109.941406 115.953125 110.484375 116.277344 111.007812 116.625 C 111.535156 116.976562 112.039062 117.351562 112.527344 117.753906 C 113.015625 118.15625 113.484375 118.578125 113.933594 119.023438 C 114.378906 119.472656 114.800781 119.9375 115.203125 120.425781 C 115.605469 120.914062 115.980469 121.421875 116.332031 121.945312 C 116.683594 122.472656 117.007812 123.011719 117.304688 123.570312 C 117.601562 124.125 117.871094 124.695312 118.113281 125.28125 C 118.355469 125.863281 118.570312 126.457031 118.75 127.0625 C 118.933594 127.667969 119.089844 128.277344 119.210938 128.898438 C 119.335938 129.515625 119.429688 130.140625 119.488281 130.769531 C 119.550781 131.398438 119.582031 132.027344 119.582031 132.660156 Z M 119.582031 132.660156 " fill-opacity="1" fill-rule="nonzero"/><g clip-path="url(#id1)"><path fill="rgb(100%, 100%, 100%)" d="M 11.882812 274.113281 C 12.050781 274.113281 12.222656 274.105469 12.394531 274.09375 C 13.941406 273.992188 15.347656 273.441406 16.507812 272.582031 L 21.792969 354.109375 C 22.222656 360.722656 27.933594 365.730469 34.546875 365.304688 C 37.175781 365.132812 39.542969 364.121094 41.425781 362.558594 C 43.308594 364.121094 45.675781 365.132812 48.304688 365.304688 C 54.917969 365.730469 60.628906 360.722656 61.058594 354.109375 L 66.34375 272.582031 C 67.503906 273.441406 68.910156 273.992188 70.457031 274.09375 C 70.628906 274.105469 70.800781 274.113281 70.96875 274.113281 C 75.027344 274.113281 78.441406 270.960938 78.710938 266.855469 C 82.839844 203.730469 68.558594 188.675781 65.652344 186.300781 C 64.273438 185.171875 62.625 184.605469 60.972656 184.554688 C 60.710938 184.527344 60.445312 184.511719 60.179688 184.511719 L 22.671875 184.511719 C 22.40625 184.511719 22.140625 184.527344 21.878906 184.554688 C 20.226562 184.605469 18.578125 185.171875 17.199219 186.300781 C 14.292969 188.675781 0.0117188 203.730469 4.140625 266.855469 C 4.410156 270.960938 7.824219 274.113281 11.882812 274.113281 Z M 11.882812 274.113281 " fill-opacity="1" fill-rule="nonzero"/></g><path fill="rgb(100%, 100%, 100%)" d="M 63.265625 157.152344 C 63.265625 157.871094 63.234375 158.582031 63.164062 159.292969 C 63.09375 160.003906 62.988281 160.710938 62.847656 161.414062 C 62.707031 162.113281 62.535156 162.808594 62.328125 163.492188 C 62.121094 164.175781 61.878906 164.847656 61.605469 165.507812 C 61.332031 166.167969 61.027344 166.8125 60.6875 167.445312 C 60.351562 168.074219 59.984375 168.6875 59.585938 169.28125 C 59.1875 169.878906 58.761719 170.449219 58.308594 171.003906 C 57.855469 171.554688 57.375 172.085938 56.871094 172.589844 C 56.363281 173.097656 55.835938 173.574219 55.28125 174.03125 C 54.730469 174.484375 54.15625 174.910156 53.558594 175.304688 C 52.964844 175.703125 52.351562 176.070312 51.722656 176.40625 C 51.089844 176.742188 50.445312 177.050781 49.785156 177.324219 C 49.125 177.597656 48.449219 177.835938 47.765625 178.042969 C 47.082031 178.253906 46.386719 178.425781 45.6875 178.566406 C 44.984375 178.703125 44.277344 178.808594 43.566406 178.878906 C 42.855469 178.949219 42.140625 178.984375 41.425781 178.984375 C 40.710938 178.984375 39.996094 178.949219 39.285156 178.878906 C 38.574219 178.808594 37.867188 178.703125 37.164062 178.566406 C 36.464844 178.425781 35.769531 178.253906 35.085938 178.042969 C 34.402344 177.835938 33.726562 177.597656 33.066406 177.324219 C 32.40625 177.050781 31.761719 176.742188 31.128906 176.40625 C 30.5 176.070312 29.886719 175.703125 29.292969 175.304688 C 28.695312 174.910156 28.121094 174.484375 27.570312 174.03125 C 27.015625 173.574219 26.488281 173.097656 25.980469 172.589844 C 25.476562 172.085938 24.996094 171.554688 24.542969 171.003906 C 24.089844 170.449219 23.664062 169.878906 23.265625 169.28125 C 22.867188 168.6875 22.5 168.074219 22.164062 167.445312 C 21.824219 166.8125 21.519531 166.167969 21.246094 165.507812 C 20.972656 164.847656 20.730469 164.175781 20.523438 163.492188 C 20.316406 162.808594 20.144531 162.113281 20.003906 161.414062 C 19.863281 160.710938 19.757812 160.003906 19.6875 159.292969 C 19.617188 158.582031 19.582031 157.871094 19.582031 157.152344 C 19.582031 156.4375 19.617188 155.726562 19.6875 155.015625 C 19.757812 154.304688 19.863281 153.597656 20.003906 152.894531 C 20.144531 152.195312 20.316406 151.5 20.523438 150.816406 C 20.730469 150.132812 20.972656 149.460938 21.246094 148.800781 C 21.519531 148.140625 21.824219 147.492188 22.164062 146.863281 C 22.5 146.234375 22.867188 145.621094 23.265625 145.027344 C 23.664062 144.429688 24.089844 143.859375 24.542969 143.304688 C 24.996094 142.753906 25.476562 142.222656 25.980469 141.71875 C 26.488281 141.210938 27.015625 140.734375 27.570312 140.277344 C 28.121094 139.824219 28.695312 139.398438 29.292969 139.003906 C 29.886719 138.605469 30.5 138.238281 31.128906 137.902344 C 31.761719 137.566406 32.40625 137.257812 33.066406 136.984375 C 33.726562 136.710938 34.402344 136.472656 35.085938 136.265625 C 35.769531 136.054688 36.464844 135.882812 37.164062 135.742188 C 37.867188 135.605469 38.574219 135.5 39.285156 135.429688 C 39.996094 135.359375 40.710938 135.324219 41.425781 135.324219 C 42.140625 135.324219 42.855469 135.359375 43.566406 135.429688 C 44.277344 135.5 44.984375 135.605469 45.6875 135.742188 C 46.386719 135.882812 47.082031 136.054688 47.765625 136.265625 C 48.449219 136.472656 49.125 136.710938 49.785156 136.984375 C 50.445312 137.257812 51.089844 137.566406 51.722656 137.902344 C 52.351562 138.238281 52.964844 138.605469 53.558594 139.003906 C 54.15625 139.398438 54.730469 139.824219 55.28125 140.277344 C 55.835938 140.734375 56.363281 141.210938 56.871094 141.71875 C 57.375 142.222656 57.855469 142.753906 58.308594 143.304688 C 58.761719 143.859375 59.1875 144.429688 59.585938 145.027344 C 59.984375 145.621094 60.351562 146.234375 60.6875 146.863281 C 61.027344 147.492188 61.332031 148.140625 61.605469 148.800781 C 61.878906 149.460938 62.121094 150.132812 62.328125 150.816406 C 62.535156 151.5 62.707031 152.195312 62.847656 152.894531 C 62.988281 153.597656 63.09375 154.304688 63.164062 155.015625 C 63.234375 155.726562 63.265625 156.4375 63.265625 157.152344 Z M 63.265625 157.152344 " fill-opacity="1" fill-rule="nonzero"/></svg>