<?xml version="1.0" encoding="utf-8"?>
<!-- Generator: Adobe Illustrator 25.2.3, SVG Export Plug-In . SVG Version: 6.00 Build 0)  -->
<svg version="1.1" id="Layer_1" xmlns="http://www.w3.org/2000/svg" xmlns:xlink="http://www.w3.org/1999/xlink" x="0px" y="0px"
	 viewBox="0 0 635.4 98.3" style="enable-background:new 0 0 635.4 98.3;" xml:space="preserve">
<style type="text/css">
	.st0{fill:#7ED957;}
	.st1{fill:#004AAD;}
	.st2{fill:#38B6FF;}
	.st3{fill:#CB6CE6;}
	.st4{fill:#FFBD59;}
	.st5{fill:#FFFFFF;}
	.st6{fill:#8C52FF;}
</style>
<path class="st0" d="M64.5,67.8h-60c-1.8,0-3.3-1.5-3.3-3.3v-60c0-1.8,1.5-3.3,3.3-3.3h60c1.8,0,3.3,1.5,3.3,3.3v60
	C67.9,66.3,66.3,67.8,64.5,67.8"/>
<path class="st1" d="M64.5,2.2c1.3,0,2.3,1.1,2.3,2.3v60c0,1.3-1.1,2.3-2.3,2.3h-60c-1.3,0-2.3-1.1-2.3-2.3v-60
	c0-1.3,1.1-2.3,2.3-2.3H64.5 M64.5,0h-60C2,0,0,2,0,4.5v60C0,67,2,69,4.5,69h60c2.5,0,4.5-2,4.5-4.5v-60C69,2,67,0,64.5,0"/>
<path class="st0" d="M144.2,67.8h-60c-1.8,0-3.3-1.5-3.3-3.3v-60c0-1.8,1.5-3.3,3.3-3.3h60c1.8,0,3.3,1.5,3.3,3.3v60
	C147.6,66.3,146,67.8,144.2,67.8"/>
<path class="st1" d="M144.2,2.2c1.3,0,2.3,1.1,2.3,2.3v60c0,1.3-1.1,2.3-2.3,2.3h-60c-1.3,0-2.3-1.1-2.3-2.3v-60
	c0-1.3,1.1-2.3,2.3-2.3H144.2 M144.2,0h-60c-2.5,0-4.5,2-4.5,4.5v60c0,2.5,2,4.5,4.5,4.5h60c2.5,0,4.5-2,4.5-4.5v-60
	C148.7,2,146.7,0,144.2,0"/>
<path class="st2" d="M305.2,67.8h-60c-1.8,0-3.3-1.5-3.3-3.3v-60c0-1.8,1.5-3.3,3.3-3.3h60c1.8,0,3.3,1.5,3.3,3.3v60
	C308.6,66.3,307.1,67.8,305.2,67.8"/>
<path class="st1" d="M305.2,2.2c1.3,0,2.3,1.1,2.3,2.3v60c0,1.3-1.1,2.3-2.3,2.3h-60c-1.3,0-2.3-1.1-2.3-2.3v-60
	c0-1.3,1.1-2.3,2.3-2.3H305.2 M305.2,0h-60c-2.5,0-4.5,2-4.5,4.5v60c0,2.5,2,4.5,4.5,4.5h60c2.5,0,4.5-2,4.5-4.5v-60
	C309.7,2,307.7,0,305.2,0"/>
<path class="st2" d="M550.4,67.8h-60c-1.8,0-3.3-1.5-3.3-3.3v-60c0-1.8,1.5-3.3,3.3-3.3h60c1.8,0,3.3,1.5,3.3,3.3v60
	C553.7,66.3,552.2,67.8,550.4,67.8"/>
<path class="st1" d="M550.4,2.2c1.3,0,2.3,1.1,2.3,2.3v60c0,1.3-1.1,2.3-2.3,2.3h-60c-1.3,0-2.3-1.1-2.3-2.3v-60
	c0-1.3,1.1-2.3,2.3-2.3H550.4 M550.4,0h-60c-2.5,0-4.5,2-4.5,4.5v60c0,2.5,2,4.5,4.5,4.5h60c2.5,0,4.5-2,4.5-4.5v-60
	C554.8,2,552.8,0,550.4,0"/>
<path class="st3" d="M224.7,67.8h-60c-1.8,0-3.3-1.5-3.3-3.3v-60c0-1.8,1.5-3.3,3.3-3.3h60c1.8,0,3.3,1.5,3.3,3.3v60
	C228.1,66.3,226.5,67.8,224.7,67.8"/>
<path class="st1" d="M224.7,2.2c1.3,0,2.3,1.1,2.3,2.3v60c0,1.3-1.1,2.3-2.3,2.3h-60c-1.3,0-2.3-1.1-2.3-2.3v-60
	c0-1.3,1.1-2.3,2.3-2.3H224.7 M224.7,0h-60c-2.5,0-4.5,2-4.5,4.5v60c0,2.5,2,4.5,4.5,4.5h60c2.5,0,4.5-2,4.5-4.5v-60
	C229.2,2,227.2,0,224.7,0"/>
<path class="st2" d="M469.9,67.8h-60c-1.8,0-3.3-1.5-3.3-3.3v-60c0-1.8,1.5-3.3,3.3-3.3h60c1.8,0,3.3,1.5,3.3,3.3v60
	C473.2,66.3,471.7,67.8,469.9,67.8"/>
<path class="st1" d="M469.9,2.2c1.3,0,2.3,1.1,2.3,2.3v60c0,1.3-1.1,2.3-2.3,2.3h-60c-1.3,0-2.3-1.1-2.3-2.3v-60
	c0-1.3,1.1-2.3,2.3-2.3H469.9 M469.9,0h-60c-2.5,0-4.5,2-4.5,4.5v60c0,2.5,2,4.5,4.5,4.5h60c2.5,0,4.5-2,4.5-4.5v-60
	C474.3,2,472.3,0,469.9,0"/>
<path class="st4" d="M385.7,67.8h-60c-1.8,0-3.3-1.5-3.3-3.3v-60c0-1.8,1.5-3.3,3.3-3.3h60c1.8,0,3.3,1.5,3.3,3.3v60
	C389.1,66.3,387.6,67.8,385.7,67.8"/>
<path class="st1" d="M385.7,2.2c1.3,0,2.3,1.1,2.3,2.3v60c0,1.3-1.1,2.3-2.3,2.3h-60c-1.3,0-2.3-1.1-2.3-2.3v-60
	c0-1.3,1.1-2.3,2.3-2.3H385.7 M385.7,0h-60c-2.5,0-4.5,2-4.5,4.5v60c0,2.5,2,4.5,4.5,4.5h60c2.5,0,4.5-2,4.5-4.5v-60
	C390.2,2,388.2,0,385.7,0"/>
<path class="st2" d="M630.9,67.8h-60c-1.8,0-3.3-1.5-3.3-3.3v-60c0-1.8,1.5-3.3,3.3-3.3h60c1.8,0,3.3,1.5,3.3,3.3v60
	C634.2,66.3,632.7,67.8,630.9,67.8"/>
<path class="st1" d="M630.9,2.2c1.3,0,2.3,1.1,2.3,2.3v60c0,1.3-1.1,2.3-2.3,2.3h-60c-1.3,0-2.3-1.1-2.3-2.3v-60
	c0-1.3,1.1-2.3,2.3-2.3H630.9 M630.9,0h-60c-2.5,0-4.5,2-4.5,4.5v60c0,2.5,2,4.5,4.5,4.5h60c2.5,0,4.5-2,4.5-4.5v-60
	C635.4,2,633.3,0,630.9,0"/>
<g>
	<g transform="translate(75.394246, 150.878013)">
		<g>
			<path class="st5" d="M-29.5-115.1c0,5.7-1,9.8-2.9,12.5c-1.9,2.6-4.8,4-8.7,4c-3.8,0-6.7-1.4-8.7-4.1c-1.9-2.8-2.9-6.8-2.9-12.3
				c0-5.7,0.9-9.9,2.8-12.5c1.9-2.7,4.8-4,8.7-4c3.8,0,6.7,1.4,8.6,4.2C-30.5-124.7-29.5-120.6-29.5-115.1z M-44.1-115.1
				c0,3.6,0.2,6.1,0.7,7.5c0.5,1.4,1.2,2,2.3,2c1.1,0,1.8-0.7,2.3-2.1c0.4-1.4,0.7-3.9,0.7-7.4c0-3.5-0.2-6-0.7-7.4
				c-0.4-1.4-1.2-2.1-2.3-2.1c-1.1,0-1.8,0.7-2.3,2.1C-43.8-121.3-44.1-118.8-44.1-115.1z"/>
		</g>
	</g>
</g>
<g>
	<g transform="translate(135.168932, 150.878013)">
		<g>
			<path class="st5" d="M-13.7-99.2h-8.8v-17c0-2.1,0-3.9,0.1-5.6c-0.5,0.7-1.2,1.3-2,2l-3.6,3l-4.5-5.5l11-9h7.8V-99.2z"/>
		</g>
	</g>
</g>
<g>
	<g transform="translate(255.925885, 150.878013)">
		<g>
			<path class="st5" d="M10.5-99.2l11-24.8H7.6v-7.2h23.1v5.1L19.5-99.2H10.5z"/>
		</g>
	</g>
</g>
<g>
	<g transform="translate(439.78283, 150.878013)">
		<g>
			<path class="st5" d="M81.8-120.2c1.8,0,3.5,0.4,5,1.3c1.5,0.8,2.6,2.1,3.5,3.6c0.8,1.6,1.2,3.4,1.2,5.4c0,3.6-1.1,6.3-3.2,8.2
				c-2.2,1.9-5.4,2.9-9.8,2.9c-3.8,0-6.8-0.6-9.2-1.7v-7.1c1.3,0.6,2.7,1.1,4.3,1.5c1.6,0.4,3,0.6,4.1,0.6c1.6,0,2.8-0.3,3.7-1
				c0.9-0.7,1.3-1.7,1.3-3c0-1.2-0.4-2.2-1.3-2.9c-0.9-0.7-2.2-1-4-1c-1.4,0-2.8,0.3-4.4,0.8l-3.2-1.6l1.2-16.9h18.3v7.2H78.4
				l-0.4,4.2c1.2-0.2,2-0.3,2.4-0.4C80.9-120.2,81.3-120.2,81.8-120.2z"/>
		</g>
	</g>
</g>
<g>
	<g transform="translate(195.547409, 150.878013)">
		<g>
			<path class="st5" d="M-12.7-112.7c0-4.5,0.6-8.1,1.9-10.9c1.3-2.8,3.2-4.8,5.6-6.1c2.5-1.3,5.6-2,9.2-2c1.3,0,2.8,0.1,4.6,0.4
				v6.8c-1.5-0.3-3-0.4-4.8-0.4c-2.9,0-5,0.6-6.5,1.9c-1.4,1.3-2.2,3.3-2.3,6.2h0.3c1.3-2.5,3.4-3.7,6.3-3.7c2.8,0,5.1,0.9,6.6,2.8
				c1.6,1.8,2.4,4.4,2.4,7.6c0,3.5-1,6.3-3,8.4c-2,2-4.8,3-8.3,3c-3.8,0-6.7-1.2-8.9-3.7C-11.6-104.9-12.7-108.3-12.7-112.7z
				 M-0.8-105.6c0.9,0,1.7-0.3,2.2-1c0.6-0.7,0.9-1.8,0.9-3.3c0-2.6-1-3.9-3-3.9c-1,0-1.8,0.3-2.4,1c-0.6,0.7-0.9,1.5-0.9,2.4
				c0,1.4,0.3,2.6,0.9,3.5C-2.6-106-1.8-105.6-0.8-105.6z"/>
		</g>
	</g>
</g>
<g>
	<g transform="translate(379.404381, 150.878013)">
		<g>
			<path class="st5" d="M71.7-99.2H48.4v-5.7l7.8-7.9c2.2-2.3,3.7-3.9,4.4-4.8c0.7-0.9,1.2-1.6,1.4-2.2c0.3-0.6,0.4-1.3,0.4-1.9
				c0-0.8-0.3-1.5-0.8-2c-0.5-0.5-1.3-0.7-2.3-0.7c-1,0-2,0.3-3.1,0.9c-1,0.6-2.2,1.4-3.5,2.6l-4.8-5.6c1.7-1.5,3-2.5,4.2-3.1
				c1.1-0.6,2.3-1.1,3.7-1.5c1.3-0.3,2.8-0.5,4.5-0.5c2.1,0,3.9,0.4,5.6,1.1c1.6,0.7,2.9,1.8,3.8,3.1c0.9,1.3,1.4,2.9,1.4,4.5
				c0,1.2-0.2,2.4-0.5,3.5c-0.3,1.1-0.8,2.1-1.5,3.1c-0.7,1-1.5,2.1-2.6,3.2c-1.1,1.1-3.4,3.3-7,6.5v0.2h12.1V-99.2z"/>
		</g>
	</g>
</g>
<g>
	<g transform="translate(316.304363, 150.878013)">
		<g>
			<path class="st5" d="M50.6-99.2H27.4v-5.7l7.8-7.9c2.2-2.3,3.7-3.9,4.4-4.8c0.7-0.9,1.2-1.6,1.4-2.2c0.3-0.6,0.4-1.3,0.4-1.9
				c0-0.8-0.3-1.5-0.8-2c-0.5-0.5-1.3-0.7-2.3-0.7c-1,0-2,0.3-3.1,0.9c-1,0.6-2.2,1.4-3.5,2.6l-4.8-5.6c1.7-1.5,3-2.5,4.2-3.1
				c1.1-0.6,2.3-1.1,3.7-1.5c1.3-0.3,2.8-0.5,4.5-0.5c2.1,0,3.9,0.4,5.6,1.1c1.6,0.7,2.9,1.8,3.8,3.1c0.9,1.3,1.4,2.9,1.4,4.5
				c0,1.2-0.2,2.4-0.5,3.5c-0.3,1.1-0.8,2.1-1.5,3.1c-0.7,1-1.5,2.1-2.6,3.2c-1.1,1.1-3.4,3.3-7,6.5v0.2h12.1V-99.2z"/>
		</g>
	</g>
</g>
<g>
	<g transform="translate(500.161324, 150.878013)">
		<g>
			<path class="st5" d="M110.9-124.2c0,2-0.6,3.7-1.8,5.1c-1.2,1.4-3,2.4-5.2,3.1v0.1c5.3,0.7,8,3.2,8,7.6c0,3-1.2,5.3-3.5,7
				c-2.4,1.7-5.6,2.6-9.8,2.6c-1.7,0-3.3-0.1-4.8-0.4c-1.5-0.2-3-0.7-4.8-1.4v-7.2c1.4,0.7,2.8,1.3,4.3,1.6c1.5,0.3,2.8,0.5,4,0.5
				c1.9,0,3.3-0.3,4.1-0.8c0.9-0.5,1.3-1.4,1.3-2.5c0-0.9-0.2-1.5-0.7-2c-0.4-0.5-1.2-0.8-2.2-1.1c-1-0.2-2.3-0.4-3.9-0.4h-2v-6.5h2
				c4.4,0,6.6-1.1,6.6-3.4c0-0.8-0.3-1.5-1-1.9c-0.7-0.4-1.5-0.6-2.6-0.6c-2,0-4.2,0.7-6.4,2.1l-3.6-5.8c1.7-1.2,3.4-2,5.2-2.5
				c1.8-0.5,3.8-0.8,6.1-0.8c3.3,0,5.9,0.7,7.8,2C109.9-128.4,110.9-126.6,110.9-124.2z"/>
		</g>
	</g>
</g>
<g>
	<g transform="translate(79.756124, 185.642295)">
		<g>
			<path class="st6" d="M-39.4-96.8c0,3.2-0.5,5.5-1.5,7.1c-1,1.6-2.5,2.3-4.6,2.3c-2,0-3.5-0.8-4.5-2.4c-1-1.6-1.5-3.9-1.5-7
				c0-3.2,0.5-5.5,1.5-7.1c1-1.6,2.5-2.3,4.6-2.3c2,0,3.5,0.8,4.5,2.4C-39.9-102.2-39.4-99.8-39.4-96.8z M-49.4-96.8
				c0,2.7,0.3,4.6,0.9,5.8c0.6,1.2,1.6,1.8,3,1.8c1.4,0,2.4-0.6,3-1.8c0.6-1.2,0.9-3.2,0.9-5.8c0-2.6-0.3-4.5-0.9-5.8
				c-0.6-1.2-1.6-1.8-3-1.8c-1.4,0-2.4,0.6-3,1.8C-49.1-101.3-49.4-99.4-49.4-96.8z"/>
		</g>
	</g>
</g>
<g>
	<g transform="translate(202.641686, 185.642295)">
		<g>
			<path class="st6" d="M1.5-87.6h-12v-1.8l4.8-4.9c1.5-1.5,2.4-2.5,2.9-3.2c0.5-0.6,0.8-1.3,1-1.9c0.2-0.6,0.4-1.2,0.4-1.9
				c0-1-0.3-1.8-0.9-2.3c-0.6-0.6-1.4-0.9-2.5-0.9c-0.8,0-1.5,0.1-2.1,0.4c-0.7,0.2-1.4,0.7-2.3,1.4l-1.1-1.4
				c1.7-1.4,3.5-2.1,5.5-2.1c1.7,0,3.1,0.4,4,1.3c1,0.9,1.5,2.1,1.5,3.5c0,1.2-0.3,2.3-1,3.5C-1-96.7-2.2-95.3-4-93.5l-4,3.9v0.1
				h9.4V-87.6z"/>
		</g>
	</g>
</g>
<g>
	<g transform="translate(386.503331, 185.642295)">
		<g>
			<path class="st6" d="M56.4-98.8c1.9,0,3.4,0.5,4.5,1.4c1.1,1,1.7,2.3,1.7,3.9c0,1.9-0.6,3.4-1.8,4.5c-1.2,1.1-2.9,1.6-5,1.6
				c-2.1,0-3.6-0.3-4.7-1v-2c0.6,0.4,1.3,0.7,2.2,0.9c0.9,0.2,1.7,0.3,2.6,0.3c1.5,0,2.6-0.3,3.4-1c0.8-0.7,1.2-1.7,1.2-3
				c0-2.6-1.6-3.8-4.7-3.8c-0.8,0-1.8,0.1-3.2,0.4l-1.1-0.7l0.7-8.6h9.1v1.9H54l-0.5,5.5C54.5-98.7,55.5-98.8,56.4-98.8z"/>
		</g>
	</g>
</g>
<g>
	<g transform="translate(139.53081, 185.642295)">
		<g>
			<path class="st6" d="M-23.9-87.6h-2v-13c0-1.1,0-2.1,0.1-3.1c-0.2,0.2-0.4,0.3-0.6,0.5c-0.2,0.2-1.2,1-3,2.4l-1.1-1.4l4.9-3.8
				h1.8V-87.6z"/>
		</g>
	</g>
</g>
<g>
	<g transform="translate(262.416365, 185.642295)">
		<g>
			<path class="st6" d="M20.7-101.6c0,1.2-0.3,2.1-1,2.9c-0.7,0.7-1.6,1.2-2.8,1.5v0.1c1.5,0.2,2.6,0.6,3.3,1.4s1.1,1.7,1.1,3
				c0,1.8-0.6,3.1-1.8,4c-1.2,0.9-2.9,1.4-5.1,1.4c-1,0-1.9-0.1-2.7-0.2c-0.8-0.1-1.6-0.4-2.3-0.8v-2c0.8,0.4,1.6,0.7,2.5,0.9
				c0.9,0.2,1.8,0.3,2.6,0.3c3.2,0,4.7-1.2,4.7-3.7c0-2.2-1.7-3.3-5.2-3.3h-1.8v-1.8h1.8c1.4,0,2.6-0.3,3.4-0.9
				c0.8-0.6,1.2-1.5,1.2-2.6c0-0.9-0.3-1.6-0.9-2.1c-0.6-0.5-1.4-0.8-2.5-0.8c-0.8,0-1.6,0.1-2.3,0.3c-0.7,0.2-1.5,0.6-2.4,1.2
				l-1.1-1.4c0.8-0.6,1.6-1.1,2.6-1.4c1-0.3,2-0.5,3.1-0.5c1.8,0,3.2,0.4,4.1,1.2C20.2-104.1,20.7-103,20.7-101.6z"/>
		</g>
	</g>
</g>
<g>
	<g transform="translate(446.278039, 185.642295)">
		<g>
			<path class="st6" d="M70.8-95.4c0-3.6,0.7-6.3,2.1-8.1c1.4-1.8,3.5-2.7,6.2-2.7c0.9,0,1.7,0.1,2.2,0.2v1.8
				c-0.6-0.2-1.4-0.3-2.2-0.3c-2,0-3.5,0.6-4.5,1.8c-1,1.2-1.6,3.1-1.7,5.8h0.1c0.9-1.4,2.4-2.2,4.4-2.2c1.6,0,2.9,0.5,3.9,1.5
				c1,1,1.4,2.3,1.4,4c0,1.9-0.5,3.4-1.6,4.5c-1,1.1-2.4,1.6-4.2,1.6c-1.9,0-3.4-0.7-4.5-2.1C71.4-90.9,70.8-92.9,70.8-95.4z
				 M77-89.1c1.2,0,2.1-0.4,2.8-1.1c0.7-0.8,1-1.8,1-3.2c0-1.2-0.3-2.2-0.9-2.9c-0.6-0.7-1.5-1-2.7-1c-0.8,0-1.4,0.2-2.1,0.5
				c-0.6,0.3-1.1,0.7-1.5,1.3c-0.4,0.5-0.5,1.1-0.5,1.7c0,0.9,0.2,1.7,0.5,2.4c0.3,0.7,0.8,1.3,1.4,1.8C75.5-89.3,76.2-89.1,77-89.1
				z"/>
		</g>
	</g>
</g>
<g>
	<g transform="translate(320.666239, 185.642295)">
		<g>
			<path class="st6" d="M41.6-91.8h-2.7v4.2h-2v-4.2H28v-1.8l8.7-12.4h2.2v12.3h2.7V-91.8z M36.9-93.7v-6.1c0-1.2,0-2.5,0.1-4H37
				c-0.4,0.8-0.8,1.5-1.1,2l-5.7,8.1H36.9z"/>
		</g>
	</g>
</g>
<g>
	<g transform="translate(504.527853, 185.642295)">
		<g>
			<path class="st6" d="M92.4-87.6L100-104H90v-1.9h12.2v1.7l-7.5,16.6H92.4z"/>
		</g>
	</g>
</g>
</svg>
