<svg xmlns="http://www.w3.org/2000/svg" xmlns:xlink="http://www.w3.org/1999/xlink" width="794" zoomAndPan="magnify" viewBox="0 0 595.5 842.249979" height="1123" preserveAspectRatio="xMidYMid meet" version="1.0"><defs><g><g id="id1"/><g id="id2"/></g></defs><path fill="rgb(49.409485%, 85.099792%, 34.118652%)" d="M 107.921875 162.980469 L 62.90625 162.980469 C 61.53125 162.980469 60.398438 161.847656 60.398438 160.472656 L 60.398438 115.457031 C 60.398438 114.082031 61.53125 112.949219 62.90625 112.949219 L 107.886719 112.949219 C 109.261719 112.949219 110.394531 114.082031 110.394531 115.457031 L 110.394531 160.441406 C 110.429688 161.847656 109.296875 162.980469 107.921875 162.980469 " fill-opacity="1" fill-rule="nonzero"/><path fill="rgb(0%, 29.019165%, 67.83905%)" d="M 107.921875 113.707031 C 108.882812 113.707031 109.671875 114.496094 109.671875 115.457031 L 109.671875 160.472656 C 109.671875 161.4375 108.882812 162.226562 107.921875 162.226562 L 62.90625 162.226562 C 61.941406 162.226562 61.152344 161.4375 61.152344 160.472656 L 61.152344 115.457031 C 61.152344 114.496094 61.941406 113.707031 62.90625 113.707031 L 107.921875 113.707031 M 107.921875 112.09375 L 62.90625 112.09375 C 61.050781 112.09375 59.539062 113.601562 59.539062 115.457031 L 59.539062 160.472656 C 59.539062 162.328125 61.050781 163.839844 62.90625 163.839844 L 107.921875 163.839844 C 109.777344 163.839844 111.285156 162.328125 111.285156 160.472656 L 111.285156 115.457031 C 111.285156 113.601562 109.777344 112.09375 107.921875 112.09375 " fill-opacity="1" fill-rule="nonzero"/><path fill="rgb(49.409485%, 85.099792%, 34.118652%)" d="M 167.695312 162.980469 L 122.679688 162.980469 C 121.304688 162.980469 120.171875 161.847656 120.171875 160.472656 L 120.171875 115.457031 C 120.171875 114.082031 121.304688 112.949219 122.679688 112.949219 L 167.664062 112.949219 C 169.035156 112.949219 170.167969 114.082031 170.167969 115.457031 L 170.167969 160.441406 C 170.203125 161.847656 169.070312 162.980469 167.695312 162.980469 " fill-opacity="1" fill-rule="nonzero"/><path fill="rgb(0%, 29.019165%, 67.83905%)" d="M 167.695312 113.707031 C 168.65625 113.707031 169.449219 114.496094 169.449219 115.457031 L 169.449219 160.472656 C 169.449219 161.4375 168.65625 162.226562 167.695312 162.226562 L 122.679688 162.226562 C 121.71875 162.226562 120.929688 161.4375 120.929688 160.472656 L 120.929688 115.457031 C 120.929688 114.496094 121.71875 113.707031 122.679688 113.707031 L 167.695312 113.707031 M 167.695312 112.09375 L 122.679688 112.09375 C 120.824219 112.09375 119.3125 113.601562 119.3125 115.457031 L 119.3125 160.472656 C 119.3125 162.328125 120.824219 163.839844 122.679688 163.839844 L 167.695312 163.839844 C 169.550781 163.839844 171.0625 162.328125 171.0625 160.472656 L 171.0625 115.457031 C 171.0625 113.601562 169.550781 112.09375 167.695312 112.09375 " fill-opacity="1" fill-rule="nonzero"/><path fill="rgb(49.409485%, 85.099792%, 34.118652%)" d="M 288.453125 162.980469 L 243.4375 162.980469 C 242.0625 162.980469 240.929688 161.847656 240.929688 160.472656 L 240.929688 115.457031 C 240.929688 114.082031 242.0625 112.949219 243.4375 112.949219 L 288.417969 112.949219 C 289.792969 112.949219 290.925781 114.082031 290.925781 115.457031 L 290.925781 160.441406 C 290.960938 161.847656 289.828125 162.980469 288.453125 162.980469 " fill-opacity="1" fill-rule="nonzero"/><path fill="rgb(0%, 29.019165%, 67.83905%)" d="M 288.453125 113.707031 C 289.414062 113.707031 290.203125 114.496094 290.203125 115.457031 L 290.203125 160.472656 C 290.203125 161.4375 289.414062 162.226562 288.453125 162.226562 L 243.4375 162.226562 C 242.476562 162.226562 241.683594 161.4375 241.683594 160.472656 L 241.683594 115.457031 C 241.683594 114.496094 242.476562 113.707031 243.4375 113.707031 L 288.453125 113.707031 M 288.453125 112.09375 L 243.4375 112.09375 C 241.582031 112.09375 240.070312 113.601562 240.070312 115.457031 L 240.070312 160.472656 C 240.070312 162.328125 241.582031 163.839844 243.4375 163.839844 L 288.453125 163.839844 C 290.308594 163.839844 291.820312 162.328125 291.820312 160.472656 L 291.820312 115.457031 C 291.820312 113.601562 290.308594 112.09375 288.453125 112.09375 " fill-opacity="1" fill-rule="nonzero"/><path fill="rgb(49.409485%, 85.099792%, 34.118652%)" d="M 472.308594 162.980469 L 427.292969 162.980469 C 425.917969 162.980469 424.785156 161.847656 424.785156 160.472656 L 424.785156 115.457031 C 424.785156 114.082031 425.917969 112.949219 427.292969 112.949219 L 472.277344 112.949219 C 473.648438 112.949219 474.78125 114.082031 474.78125 115.457031 L 474.78125 160.441406 C 474.816406 161.847656 473.683594 162.980469 472.308594 162.980469 " fill-opacity="1" fill-rule="nonzero"/><path fill="rgb(0%, 29.019165%, 67.83905%)" d="M 472.308594 113.707031 C 473.273438 113.707031 474.0625 114.496094 474.0625 115.457031 L 474.0625 160.472656 C 474.0625 161.4375 473.273438 162.226562 472.308594 162.226562 L 427.292969 162.226562 C 426.332031 162.226562 425.542969 161.4375 425.542969 160.472656 L 425.542969 115.457031 C 425.542969 114.496094 426.332031 113.707031 427.292969 113.707031 L 472.308594 113.707031 M 472.308594 112.09375 L 427.292969 112.09375 C 425.4375 112.09375 423.929688 113.601562 423.929688 115.457031 L 423.929688 160.472656 C 423.929688 162.328125 425.4375 163.839844 427.292969 163.839844 L 472.308594 163.839844 C 474.164062 163.839844 475.675781 162.328125 475.675781 160.472656 L 475.675781 115.457031 C 475.675781 113.601562 474.164062 112.09375 472.308594 112.09375 " fill-opacity="1" fill-rule="nonzero"/><path fill="rgb(49.409485%, 85.099792%, 34.118652%)" d="M 228.074219 162.980469 L 183.058594 162.980469 C 181.683594 162.980469 180.550781 161.847656 180.550781 160.472656 L 180.550781 115.457031 C 180.550781 114.082031 181.683594 112.949219 183.058594 112.949219 L 228.039062 112.949219 C 229.414062 112.949219 230.546875 114.082031 230.546875 115.457031 L 230.546875 160.441406 C 230.582031 161.847656 229.449219 162.980469 228.074219 162.980469 " fill-opacity="1" fill-rule="nonzero"/><path fill="rgb(0%, 29.019165%, 67.83905%)" d="M 228.074219 113.707031 C 229.035156 113.707031 229.828125 114.496094 229.828125 115.457031 L 229.828125 160.472656 C 229.828125 161.4375 229.035156 162.226562 228.074219 162.226562 L 183.058594 162.226562 C 182.097656 162.226562 181.308594 161.4375 181.308594 160.472656 L 181.308594 115.457031 C 181.308594 114.496094 182.097656 113.707031 183.058594 113.707031 L 228.074219 113.707031 M 228.074219 112.09375 L 183.058594 112.09375 C 181.203125 112.09375 179.691406 113.601562 179.691406 115.457031 L 179.691406 160.472656 C 179.691406 162.328125 181.203125 163.839844 183.058594 163.839844 L 228.074219 163.839844 C 229.929688 163.839844 231.441406 162.328125 231.441406 160.472656 L 231.441406 115.457031 C 231.441406 113.601562 229.929688 112.09375 228.074219 112.09375 " fill-opacity="1" fill-rule="nonzero"/><path fill="rgb(49.409485%, 85.099792%, 34.118652%)" d="M 411.933594 162.980469 L 366.914062 162.980469 C 365.542969 162.980469 364.410156 161.847656 364.410156 160.472656 L 364.410156 115.457031 C 364.410156 114.082031 365.542969 112.949219 366.914062 112.949219 L 411.898438 112.949219 C 413.269531 112.949219 414.40625 114.082031 414.40625 115.457031 L 414.40625 160.441406 C 414.4375 161.847656 413.304688 162.980469 411.933594 162.980469 " fill-opacity="1" fill-rule="nonzero"/><path fill="rgb(0%, 29.019165%, 67.83905%)" d="M 411.933594 113.707031 C 412.894531 113.707031 413.683594 114.496094 413.683594 115.457031 L 413.683594 160.472656 C 413.683594 161.4375 412.894531 162.226562 411.933594 162.226562 L 366.914062 162.226562 C 365.953125 162.226562 365.164062 161.4375 365.164062 160.472656 L 365.164062 115.457031 C 365.164062 114.496094 365.953125 113.707031 366.914062 113.707031 L 411.933594 113.707031 M 411.933594 112.09375 L 366.914062 112.09375 C 365.0625 112.09375 363.550781 113.601562 363.550781 115.457031 L 363.550781 160.472656 C 363.550781 162.328125 365.0625 163.839844 366.914062 163.839844 L 411.933594 163.839844 C 413.785156 163.839844 415.296875 162.328125 415.296875 160.472656 L 415.296875 115.457031 C 415.296875 113.601562 413.785156 112.09375 411.933594 112.09375 " fill-opacity="1" fill-rule="nonzero"/><path fill="rgb(49.409485%, 85.099792%, 34.118652%)" d="M 348.832031 162.980469 L 303.816406 162.980469 C 302.441406 162.980469 301.308594 161.847656 301.308594 160.472656 L 301.308594 115.457031 C 301.308594 114.082031 302.441406 112.949219 303.816406 112.949219 L 348.796875 112.949219 C 350.171875 112.949219 351.304688 114.082031 351.304688 115.457031 L 351.304688 160.441406 C 351.339844 161.847656 350.207031 162.980469 348.832031 162.980469 " fill-opacity="1" fill-rule="nonzero"/><path fill="rgb(0%, 29.019165%, 67.83905%)" d="M 348.832031 113.707031 C 349.792969 113.707031 350.582031 114.496094 350.582031 115.457031 L 350.582031 160.472656 C 350.582031 161.4375 349.792969 162.226562 348.832031 162.226562 L 303.816406 162.226562 C 302.851562 162.226562 302.0625 161.4375 302.0625 160.472656 L 302.0625 115.457031 C 302.0625 114.496094 302.851562 113.707031 303.816406 113.707031 L 348.832031 113.707031 M 348.832031 112.09375 L 303.816406 112.09375 C 301.960938 112.09375 300.449219 113.601562 300.449219 115.457031 L 300.449219 160.472656 C 300.449219 162.328125 301.960938 163.839844 303.816406 163.839844 L 348.832031 163.839844 C 350.6875 163.839844 352.195312 162.328125 352.195312 160.472656 L 352.195312 115.457031 C 352.195312 113.601562 350.6875 112.09375 348.832031 112.09375 " fill-opacity="1" fill-rule="nonzero"/><path fill="rgb(49.409485%, 85.099792%, 34.118652%)" d="M 532.6875 162.980469 L 487.671875 162.980469 C 486.296875 162.980469 485.164062 161.847656 485.164062 160.472656 L 485.164062 115.457031 C 485.164062 114.082031 486.296875 112.949219 487.671875 112.949219 L 532.65625 112.949219 C 534.027344 112.949219 535.160156 114.082031 535.160156 115.457031 L 535.160156 160.441406 C 535.195312 161.847656 534.0625 162.980469 532.6875 162.980469 " fill-opacity="1" fill-rule="nonzero"/><path fill="rgb(0%, 29.019165%, 67.83905%)" d="M 532.6875 113.707031 C 533.652344 113.707031 534.441406 114.496094 534.441406 115.457031 L 534.441406 160.472656 C 534.441406 161.4375 533.652344 162.226562 532.6875 162.226562 L 487.671875 162.226562 C 486.710938 162.226562 485.921875 161.4375 485.921875 160.472656 L 485.921875 115.457031 C 485.921875 114.496094 486.710938 113.707031 487.671875 113.707031 L 532.6875 113.707031 M 532.6875 112.09375 L 487.671875 112.09375 C 485.816406 112.09375 484.308594 113.601562 484.308594 115.457031 L 484.308594 160.472656 C 484.308594 162.328125 485.816406 163.839844 487.671875 163.839844 L 532.6875 163.839844 C 534.542969 163.839844 536.054688 162.328125 536.054688 160.472656 L 536.054688 115.457031 C 536.054688 113.601562 534.542969 112.09375 532.6875 112.09375 " fill-opacity="1" fill-rule="nonzero"/><g fill="rgb(100%, 100%, 100%)" fill-opacity="1"><g transform="translate(75.394246, 150.878013)"><g><path d="M 18.53125 -11.984375 C 18.53125 -7.734375 17.816406 -4.617188 16.390625 -2.640625 C 14.972656 -0.660156 12.796875 0.328125 9.859375 0.328125 C 6.984375 0.328125 4.816406 -0.703125 3.359375 -2.765625 C 1.910156 -4.828125 1.1875 -7.898438 1.1875 -11.984375 C 1.1875 -16.253906 1.894531 -19.382812 3.3125 -21.375 C 4.738281 -23.375 6.921875 -24.375 9.859375 -24.375 C 12.722656 -24.375 14.882812 -23.332031 16.34375 -21.25 C 17.800781 -19.175781 18.53125 -16.085938 18.53125 -11.984375 Z M 7.640625 -11.984375 C 7.640625 -9.265625 7.804688 -7.394531 8.140625 -6.375 C 8.484375 -5.351562 9.054688 -4.84375 9.859375 -4.84375 C 10.671875 -4.84375 11.242188 -5.367188 11.578125 -6.421875 C 11.910156 -7.472656 12.078125 -9.328125 12.078125 -11.984375 C 12.078125 -14.640625 11.90625 -16.5 11.5625 -17.5625 C 11.226562 -18.632812 10.660156 -19.171875 9.859375 -19.171875 C 9.054688 -19.171875 8.484375 -18.65625 8.140625 -17.625 C 7.804688 -16.601562 7.640625 -14.722656 7.640625 -11.984375 Z M 7.640625 -11.984375 "/></g></g></g><g fill="rgb(100%, 100%, 100%)" fill-opacity="1"><g transform="translate(135.168932, 150.878013)"><g><path d="M 15.484375 0 L 8.890625 0 L 8.890625 -12.71875 C 8.890625 -14.257812 8.921875 -15.671875 8.984375 -16.953125 C 8.578125 -16.460938 8.078125 -15.953125 7.484375 -15.421875 L 4.75 -13.15625 L 1.375 -17.3125 L 9.625 -24.03125 L 15.484375 -24.03125 Z M 15.484375 0 "/></g></g></g><g fill="rgb(100%, 100%, 100%)" fill-opacity="1"><g transform="translate(255.925885, 150.878013)"><g><path d="M 18.4375 0 L 1 0 L 1 -4.265625 L 6.875 -10.203125 C 8.550781 -11.953125 9.644531 -13.144531 10.15625 -13.78125 C 10.664062 -14.425781 11.019531 -14.976562 11.21875 -15.4375 C 11.425781 -15.90625 11.53125 -16.390625 11.53125 -16.890625 C 11.53125 -17.515625 11.328125 -18.007812 10.921875 -18.375 C 10.523438 -18.738281 9.957031 -18.921875 9.21875 -18.921875 C 8.457031 -18.921875 7.691406 -18.703125 6.921875 -18.265625 C 6.148438 -17.828125 5.28125 -17.1875 4.3125 -16.34375 L 0.734375 -20.53125 C 1.972656 -21.632812 3.015625 -22.421875 3.859375 -22.890625 C 4.703125 -23.367188 5.617188 -23.734375 6.609375 -23.984375 C 7.609375 -24.242188 8.722656 -24.375 9.953125 -24.375 C 11.515625 -24.375 12.90625 -24.097656 14.125 -23.546875 C 15.34375 -23.003906 16.289062 -22.222656 16.96875 -21.203125 C 17.644531 -20.191406 17.984375 -19.054688 17.984375 -17.796875 C 17.984375 -16.859375 17.863281 -15.988281 17.625 -15.1875 C 17.382812 -14.382812 17.019531 -13.597656 16.53125 -12.828125 C 16.039062 -12.054688 15.382812 -11.242188 14.5625 -10.390625 C 13.75 -9.535156 12.007812 -7.910156 9.34375 -5.515625 L 9.34375 -5.359375 L 18.4375 -5.359375 Z M 18.4375 0 "/></g></g></g><g fill="rgb(100%, 100%, 100%)" fill-opacity="1"><g transform="translate(439.78283, 150.878013)"><g><path d="M 1.15625 -10.15625 C 1.15625 -13.507812 1.632812 -16.222656 2.59375 -18.296875 C 3.550781 -20.367188 4.960938 -21.898438 6.828125 -22.890625 C 8.691406 -23.878906 10.992188 -24.375 13.734375 -24.375 C 14.710938 -24.375 15.851562 -24.28125 17.15625 -24.09375 L 17.15625 -19.015625 C 16.0625 -19.222656 14.875 -19.328125 13.59375 -19.328125 C 11.425781 -19.328125 9.8125 -18.847656 8.75 -17.890625 C 7.6875 -16.941406 7.101562 -15.390625 7 -13.234375 L 7.203125 -13.234375 C 8.179688 -15.085938 9.765625 -16.015625 11.953125 -16.015625 C 14.085938 -16.015625 15.742188 -15.328125 16.921875 -13.953125 C 18.097656 -12.578125 18.6875 -10.664062 18.6875 -8.21875 C 18.6875 -5.570312 17.941406 -3.484375 16.453125 -1.953125 C 14.960938 -0.429688 12.878906 0.328125 10.203125 0.328125 C 7.367188 0.328125 5.148438 -0.585938 3.546875 -2.421875 C 1.953125 -4.265625 1.15625 -6.84375 1.15625 -10.15625 Z M 10.0625 -4.8125 C 10.75 -4.8125 11.304688 -5.070312 11.734375 -5.59375 C 12.171875 -6.113281 12.390625 -6.941406 12.390625 -8.078125 C 12.390625 -10.035156 11.632812 -11.015625 10.125 -11.015625 C 9.375 -11.015625 8.765625 -10.757812 8.296875 -10.25 C 7.835938 -9.75 7.609375 -9.140625 7.609375 -8.421875 C 7.609375 -7.367188 7.832031 -6.503906 8.28125 -5.828125 C 8.726562 -5.148438 9.320312 -4.8125 10.0625 -4.8125 Z M 10.0625 -4.8125 "/></g></g></g><g fill="rgb(100%, 100%, 100%)" fill-opacity="1"><g transform="translate(195.547409, 150.878013)"><g><path d="M 18.4375 0 L 1 0 L 1 -4.265625 L 6.875 -10.203125 C 8.550781 -11.953125 9.644531 -13.144531 10.15625 -13.78125 C 10.664062 -14.425781 11.019531 -14.976562 11.21875 -15.4375 C 11.425781 -15.90625 11.53125 -16.390625 11.53125 -16.890625 C 11.53125 -17.515625 11.328125 -18.007812 10.921875 -18.375 C 10.523438 -18.738281 9.957031 -18.921875 9.21875 -18.921875 C 8.457031 -18.921875 7.691406 -18.703125 6.921875 -18.265625 C 6.148438 -17.828125 5.28125 -17.1875 4.3125 -16.34375 L 0.734375 -20.53125 C 1.972656 -21.632812 3.015625 -22.421875 3.859375 -22.890625 C 4.703125 -23.367188 5.617188 -23.734375 6.609375 -23.984375 C 7.609375 -24.242188 8.722656 -24.375 9.953125 -24.375 C 11.515625 -24.375 12.90625 -24.097656 14.125 -23.546875 C 15.34375 -23.003906 16.289062 -22.222656 16.96875 -21.203125 C 17.644531 -20.191406 17.984375 -19.054688 17.984375 -17.796875 C 17.984375 -16.859375 17.863281 -15.988281 17.625 -15.1875 C 17.382812 -14.382812 17.019531 -13.597656 16.53125 -12.828125 C 16.039062 -12.054688 15.382812 -11.242188 14.5625 -10.390625 C 13.75 -9.535156 12.007812 -7.910156 9.34375 -5.515625 L 9.34375 -5.359375 L 18.4375 -5.359375 Z M 18.4375 0 "/></g></g></g><g fill="rgb(100%, 100%, 100%)" fill-opacity="1"><g transform="translate(379.404381, 150.878013)"><g><path d="M 10.90625 -15.75 C 12.289062 -15.75 13.535156 -15.425781 14.640625 -14.78125 C 15.753906 -14.144531 16.617188 -13.238281 17.234375 -12.0625 C 17.859375 -10.882812 18.171875 -9.53125 18.171875 -8 C 18.171875 -5.320312 17.363281 -3.265625 15.75 -1.828125 C 14.132812 -0.390625 11.691406 0.328125 8.421875 0.328125 C 5.609375 0.328125 3.316406 -0.101562 1.546875 -0.96875 L 1.546875 -6.296875 C 2.492188 -5.859375 3.566406 -5.492188 4.765625 -5.203125 C 5.972656 -4.921875 7.007812 -4.78125 7.875 -4.78125 C 9.070312 -4.78125 9.992188 -5.035156 10.640625 -5.546875 C 11.296875 -6.054688 11.625 -6.8125 11.625 -7.8125 C 11.625 -8.726562 11.289062 -9.441406 10.625 -9.953125 C 9.96875 -10.472656 8.972656 -10.734375 7.640625 -10.734375 C 6.617188 -10.734375 5.519531 -10.539062 4.34375 -10.15625 L 1.953125 -11.34375 L 2.859375 -24.03125 L 16.5625 -24.03125 L 16.5625 -18.625 L 8.375 -18.625 L 8.078125 -15.453125 C 8.941406 -15.609375 9.550781 -15.695312 9.90625 -15.71875 C 10.269531 -15.738281 10.601562 -15.75 10.90625 -15.75 Z M 10.90625 -15.75 "/></g></g></g><g fill="rgb(100%, 100%, 100%)" fill-opacity="1"><g transform="translate(316.304363, 150.878013)"><g><path d="M 17.640625 -18.8125 C 17.640625 -17.320312 17.179688 -16.039062 16.265625 -14.96875 C 15.359375 -13.90625 14.046875 -13.132812 12.328125 -12.65625 L 12.328125 -12.5625 C 16.335938 -12.050781 18.34375 -10.15625 18.34375 -6.875 C 18.34375 -4.632812 17.457031 -2.875 15.6875 -1.59375 C 13.914062 -0.3125 11.457031 0.328125 8.3125 0.328125 C 7.019531 0.328125 5.820312 0.234375 4.71875 0.046875 C 3.625 -0.140625 2.4375 -0.476562 1.15625 -0.96875 L 1.15625 -6.359375 C 2.207031 -5.816406 3.273438 -5.414062 4.359375 -5.15625 C 5.453125 -4.90625 6.457031 -4.78125 7.375 -4.78125 C 8.800781 -4.78125 9.835938 -4.976562 10.484375 -5.375 C 11.140625 -5.78125 11.46875 -6.410156 11.46875 -7.265625 C 11.46875 -7.921875 11.296875 -8.425781 10.953125 -8.78125 C 10.617188 -9.132812 10.070312 -9.398438 9.3125 -9.578125 C 8.5625 -9.765625 7.578125 -9.859375 6.359375 -9.859375 L 4.875 -9.859375 L 4.875 -14.734375 L 6.390625 -14.734375 C 9.691406 -14.734375 11.34375 -15.578125 11.34375 -17.265625 C 11.34375 -17.898438 11.097656 -18.367188 10.609375 -18.671875 C 10.117188 -18.984375 9.460938 -19.140625 8.640625 -19.140625 C 7.109375 -19.140625 5.519531 -18.625 3.875 -17.59375 L 1.1875 -21.9375 C 2.457031 -22.8125 3.753906 -23.4375 5.078125 -23.8125 C 6.410156 -24.1875 7.9375 -24.375 9.65625 -24.375 C 12.144531 -24.375 14.097656 -23.878906 15.515625 -22.890625 C 16.929688 -21.898438 17.640625 -20.539062 17.640625 -18.8125 Z M 17.640625 -18.8125 "/></g></g></g><g fill="rgb(100%, 100%, 100%)" fill-opacity="1"><g transform="translate(500.161324, 150.878013)"><g><path d="M 3.4375 0 L 11.6875 -18.625 L 1.28125 -18.625 L 1.28125 -24 L 18.625 -24 L 18.625 -20.171875 L 10.15625 0 Z M 3.4375 0 "/></g></g></g><g fill="rgb(54.899597%, 32.159424%, 100%)" fill-opacity="1"><g transform="translate(79.756124, 185.642295)"><g><path d="M 10.046875 -6.890625 C 10.046875 -4.515625 9.671875 -2.738281 8.921875 -1.5625 C 8.171875 -0.394531 7.023438 0.1875 5.484375 0.1875 C 4.003906 0.1875 2.878906 -0.410156 2.109375 -1.609375 C 1.335938 -2.804688 0.953125 -4.566406 0.953125 -6.890625 C 0.953125 -9.273438 1.320312 -11.046875 2.0625 -12.203125 C 2.8125 -13.367188 3.953125 -13.953125 5.484375 -13.953125 C 6.972656 -13.953125 8.101562 -13.347656 8.875 -12.140625 C 9.65625 -10.929688 10.046875 -9.179688 10.046875 -6.890625 Z M 2.53125 -6.890625 C 2.53125 -4.890625 2.765625 -3.429688 3.234375 -2.515625 C 3.703125 -1.609375 4.453125 -1.15625 5.484375 -1.15625 C 6.523438 -1.15625 7.273438 -1.613281 7.734375 -2.53125 C 8.203125 -3.457031 8.4375 -4.910156 8.4375 -6.890625 C 8.4375 -8.859375 8.203125 -10.300781 7.734375 -11.21875 C 7.273438 -12.132812 6.523438 -12.59375 5.484375 -12.59375 C 4.453125 -12.59375 3.703125 -12.140625 3.234375 -11.234375 C 2.765625 -10.328125 2.53125 -8.878906 2.53125 -6.890625 Z M 2.53125 -6.890625 "/></g></g></g><g fill="rgb(54.899597%, 32.159424%, 100%)" fill-opacity="1"><g transform="translate(202.641686, 185.642295)"><g><path d="M 9.96875 0 L 0.9375 0 L 0.9375 -1.34375 L 4.5625 -4.984375 C 5.65625 -6.097656 6.378906 -6.890625 6.734375 -7.359375 C 7.085938 -7.835938 7.347656 -8.300781 7.515625 -8.75 C 7.691406 -9.195312 7.78125 -9.679688 7.78125 -10.203125 C 7.78125 -10.941406 7.554688 -11.523438 7.109375 -11.953125 C 6.671875 -12.378906 6.054688 -12.59375 5.265625 -12.59375 C 4.703125 -12.59375 4.164062 -12.5 3.65625 -12.3125 C 3.144531 -12.125 2.570312 -11.78125 1.9375 -11.28125 L 1.125 -12.34375 C 2.382812 -13.394531 3.757812 -13.921875 5.25 -13.921875 C 6.539062 -13.921875 7.550781 -13.59375 8.28125 -12.9375 C 9.007812 -12.28125 9.375 -11.394531 9.375 -10.28125 C 9.375 -9.40625 9.128906 -8.539062 8.640625 -7.6875 C 8.160156 -6.84375 7.25 -5.769531 5.90625 -4.46875 L 2.90625 -1.515625 L 2.90625 -1.453125 L 9.96875 -1.453125 Z M 9.96875 0 "/></g></g></g><g fill="rgb(54.899597%, 32.159424%, 100%)" fill-opacity="1"><g transform="translate(386.503331, 185.642295)"><g><path d="M 5.234375 -8.390625 C 6.679688 -8.390625 7.816406 -8.03125 8.640625 -7.3125 C 9.472656 -6.59375 9.890625 -5.609375 9.890625 -4.359375 C 9.890625 -2.941406 9.4375 -1.828125 8.53125 -1.015625 C 7.625 -0.210938 6.378906 0.1875 4.796875 0.1875 C 3.242188 0.1875 2.0625 -0.0546875 1.25 -0.546875 L 1.25 -2.0625 C 1.6875 -1.78125 2.226562 -1.554688 2.875 -1.390625 C 3.53125 -1.234375 4.175781 -1.15625 4.8125 -1.15625 C 5.914062 -1.15625 6.769531 -1.414062 7.375 -1.9375 C 7.988281 -2.457031 8.296875 -3.207031 8.296875 -4.1875 C 8.296875 -6.101562 7.117188 -7.0625 4.765625 -7.0625 C 4.171875 -7.0625 3.378906 -6.972656 2.390625 -6.796875 L 1.578125 -7.3125 L 2.09375 -13.734375 L 8.921875 -13.734375 L 8.921875 -12.296875 L 3.421875 -12.296875 L 3.078125 -8.171875 C 3.796875 -8.316406 4.515625 -8.390625 5.234375 -8.390625 Z M 5.234375 -8.390625 "/></g></g></g><g fill="rgb(54.899597%, 32.159424%, 100%)" fill-opacity="1"><g transform="translate(139.53081, 185.642295)"><g><path d="M 6.71875 0 L 5.1875 0 L 5.1875 -9.78125 C 5.1875 -10.59375 5.210938 -11.363281 5.265625 -12.09375 C 5.140625 -11.96875 4.992188 -11.832031 4.828125 -11.6875 C 4.660156 -11.539062 3.914062 -10.929688 2.59375 -9.859375 L 1.765625 -10.921875 L 5.40625 -13.734375 L 6.71875 -13.734375 Z M 6.71875 0 "/></g></g></g><g fill="rgb(54.899597%, 32.159424%, 100%)" fill-opacity="1"><g transform="translate(262.416365, 185.642295)"><g><path d="M 9.453125 -10.5 C 9.453125 -9.625 9.203125 -8.90625 8.703125 -8.34375 C 8.210938 -7.789062 7.519531 -7.421875 6.625 -7.234375 L 6.625 -7.15625 C 7.726562 -7.019531 8.546875 -6.671875 9.078125 -6.109375 C 9.609375 -5.546875 9.875 -4.804688 9.875 -3.890625 C 9.875 -2.578125 9.414062 -1.566406 8.5 -0.859375 C 7.59375 -0.160156 6.304688 0.1875 4.640625 0.1875 C 3.910156 0.1875 3.242188 0.128906 2.640625 0.015625 C 2.035156 -0.0859375 1.453125 -0.273438 0.890625 -0.546875 L 0.890625 -2.03125 C 1.484375 -1.738281 2.113281 -1.515625 2.78125 -1.359375 C 3.457031 -1.210938 4.097656 -1.140625 4.703125 -1.140625 C 7.066406 -1.140625 8.25 -2.066406 8.25 -3.921875 C 8.25 -5.585938 6.941406 -6.421875 4.328125 -6.421875 L 2.984375 -6.421875 L 2.984375 -7.765625 L 4.34375 -7.765625 C 5.414062 -7.765625 6.265625 -8 6.890625 -8.46875 C 7.515625 -8.945312 7.828125 -9.601562 7.828125 -10.4375 C 7.828125 -11.113281 7.597656 -11.640625 7.140625 -12.015625 C 6.679688 -12.398438 6.054688 -12.59375 5.265625 -12.59375 C 4.660156 -12.59375 4.09375 -12.507812 3.5625 -12.34375 C 3.03125 -12.1875 2.425781 -11.890625 1.75 -11.453125 L 0.953125 -12.5 C 1.515625 -12.945312 2.164062 -13.296875 2.90625 -13.546875 C 3.644531 -13.796875 4.421875 -13.921875 5.234375 -13.921875 C 6.566406 -13.921875 7.601562 -13.613281 8.34375 -13 C 9.082031 -12.394531 9.453125 -11.5625 9.453125 -10.5 Z M 9.453125 -10.5 "/></g></g></g><g fill="rgb(54.899597%, 32.159424%, 100%)" fill-opacity="1"><g transform="translate(446.278039, 185.642295)"><g><path d="M 1.09375 -5.875 C 1.09375 -8.570312 1.617188 -10.585938 2.671875 -11.921875 C 3.722656 -13.253906 5.273438 -13.921875 7.328125 -13.921875 C 8.035156 -13.921875 8.59375 -13.863281 9 -13.75 L 9 -12.40625 C 8.519531 -12.5625 7.96875 -12.640625 7.34375 -12.640625 C 5.875 -12.640625 4.75 -12.179688 3.96875 -11.265625 C 3.195312 -10.347656 2.773438 -8.90625 2.703125 -6.9375 L 2.8125 -6.9375 C 3.5 -8.019531 4.585938 -8.5625 6.078125 -8.5625 C 7.304688 -8.5625 8.273438 -8.1875 8.984375 -7.4375 C 9.703125 -6.695312 10.0625 -5.6875 10.0625 -4.40625 C 10.0625 -2.976562 9.671875 -1.851562 8.890625 -1.03125 C 8.109375 -0.21875 7.054688 0.1875 5.734375 0.1875 C 4.304688 0.1875 3.175781 -0.34375 2.34375 -1.40625 C 1.507812 -2.476562 1.09375 -3.96875 1.09375 -5.875 Z M 5.703125 -1.140625 C 6.597656 -1.140625 7.289062 -1.414062 7.78125 -1.96875 C 8.269531 -2.53125 8.515625 -3.34375 8.515625 -4.40625 C 8.515625 -5.3125 8.285156 -6.023438 7.828125 -6.546875 C 7.367188 -7.066406 6.6875 -7.328125 5.78125 -7.328125 C 5.21875 -7.328125 4.703125 -7.207031 4.234375 -6.96875 C 3.765625 -6.738281 3.390625 -6.421875 3.109375 -6.015625 C 2.835938 -5.609375 2.703125 -5.1875 2.703125 -4.75 C 2.703125 -4.101562 2.828125 -3.5 3.078125 -2.9375 C 3.328125 -2.382812 3.679688 -1.945312 4.140625 -1.625 C 4.597656 -1.300781 5.117188 -1.140625 5.703125 -1.140625 Z M 5.703125 -1.140625 "/></g></g></g><g fill="rgb(54.899597%, 32.159424%, 100%)" fill-opacity="1"><g transform="translate(320.666239, 185.642295)"><g><path d="M 10.609375 -3.15625 L 8.578125 -3.15625 L 8.578125 0 L 7.078125 0 L 7.078125 -3.15625 L 0.40625 -3.15625 L 0.40625 -4.515625 L 6.921875 -13.8125 L 8.578125 -13.8125 L 8.578125 -4.578125 L 10.609375 -4.578125 Z M 7.078125 -4.578125 L 7.078125 -9.140625 C 7.078125 -10.035156 7.109375 -11.046875 7.171875 -12.171875 L 7.09375 -12.171875 C 6.800781 -11.566406 6.519531 -11.066406 6.25 -10.671875 L 1.96875 -4.578125 Z M 7.078125 -4.578125 "/></g></g></g><g fill="rgb(54.899597%, 32.159424%, 100%)" fill-opacity="1"><g transform="translate(504.527853, 185.642295)"><g><path d="M 2.671875 0 L 8.375 -12.296875 L 0.890625 -12.296875 L 0.890625 -13.734375 L 10.015625 -13.734375 L 10.015625 -12.484375 L 4.40625 0 Z M 2.671875 0 "/></g></g></g></svg>