<svg xmlns="http://www.w3.org/2000/svg" xmlns:xlink="http://www.w3.org/1999/xlink" width="500" zoomAndPan="magnify" viewBox="0 0 375 374.999991" height="500" preserveAspectRatio="xMidYMid meet" version="1.0"><defs><filter x="0%" y="0%" width="100%" xlink:type="simple" xlink:actuate="onLoad" height="100%" id="id1" xlink:show="other"><feColorMatrix values="0 0 0 0 1 0 0 0 0 1 0 0 0 0 1 0 0 0 1 0" color-interpolation-filters="sRGB"/></filter><clipPath id="id2"><path d="M 12.8125 18.75 L 350.3125 18.75 L 350.3125 356.25 L 12.8125 356.25 Z M 12.8125 18.75 " clip-rule="nonzero"/></clipPath><clipPath id="id3"><path d="M 114 108 L 350.3125 108 L 350.3125 346 L 114 346 Z M 114 108 " clip-rule="nonzero"/></clipPath><mask id="id4"><g filter="url(#id1)"><rect x="-37.5" width="450" fill="rgb(0%, 0%, 0%)" y="-37.499999" height="449.999989" fill-opacity="0.2"/></g></mask><clipPath id="id5"><rect x="0" width="237" y="0" height="238"/></clipPath></defs><g clip-path="url(#id2)"><path fill="rgb(45.098877%, 45.098877%, 45.098877%)" d="M 350.3125 187.5 C 350.3125 193.125 350.3125 198.1875 349.75 203.8125 C 344.125 265.6875 304.75 318 250.1875 342.1875 C 228.8125 351.1875 205.75 356.25 181.5625 356.25 C 88.1875 356.25 12.8125 280.875 12.8125 187.5 C 12.8125 94.125 88.1875 18.75 181.5625 18.75 C 274.9375 18.75 350.3125 94.125 350.3125 187.5 Z M 350.3125 187.5 " fill-opacity="1" fill-rule="nonzero"/></g><g clip-path="url(#id3)"><g mask="url(#id4)"><g transform="matrix(1, 0, 0, 1, 114, 108)"><g clip-path="url(#id5)"><path fill="rgb(0%, 0%, 0%)" d="M 235.75 95.8125 C 230.125 157.6875 190.75 210 136.1875 234.1875 L 58.5625 156 L 0.0625 68.25 L 67.5625 4.6875 L 113.125 50.25 L 146.3125 6.375 Z M 235.75 95.8125 " fill-opacity="1" fill-rule="nonzero"/></g></g></g></g><path fill="rgb(100%, 90.589905%, 75.689697%)" d="M 250.75 264 C 254.6875 264 258.625 262.3125 261.4375 259.5 C 267.625 253.3125 267.625 243.75 261.4375 237.5625 L 210.8125 186.9375 L 261.4375 136.3125 C 267.625 130.125 267.625 120.5625 261.4375 114.375 C 255.25 108.1875 245.6875 108.1875 239.5 114.375 L 178.1875 176.8125 C 172 183 172 192.5625 178.1875 198.75 L 239.5 260.0625 C 242.875 262.875 246.8125 264 250.75 264 Z M 250.75 264 " fill-opacity="1" fill-rule="nonzero"/><path fill="rgb(100%, 90.589905%, 75.689697%)" d="M 173.6875 264 C 177.625 264 181.5625 262.3125 184.375 259.5 C 190.5625 253.3125 190.5625 243.75 184.375 237.5625 L 133.75 186.9375 L 184.375 136.3125 C 190.5625 130.125 190.5625 120.5625 184.375 114.375 C 178.1875 108.1875 168.625 108.1875 162.4375 114.375 L 101.6875 176.8125 C 95.5 183 95.5 192.5625 101.6875 198.75 L 163 260.0625 C 165.8125 262.875 169.75 264 173.6875 264 Z M 173.6875 264 " fill-opacity="1" fill-rule="nonzero"/></svg>