<?xml version="1.0" encoding="utf-8"?>
<!-- Generator: Adobe Illustrator 25.2.3, SVG Export Plug-In . SVG Version: 6.00 Build 0)  -->
<svg version="1.1" id="Layer_1" xmlns="http://www.w3.org/2000/svg" xmlns:xlink="http://www.w3.org/1999/xlink" x="0px" y="0px"
	 viewBox="0 0 350.2 759.4" style="enable-background:new 0 0 350.2 759.4;" xml:space="preserve">
<style type="text/css">
	.st0{fill:#004AAD;}
	.st1{fill:#38B6FF;}
	.st2{fill:#FFBD59;}
	.st3{fill:#FF5757;}
	.st4{fill:#FF66C4;}
	.st5{fill:#8C52FF;}
	.st6{fill:#FFFFFF;}
	.st7{fill:#FF914D;}
	.st8{fill:#7ED957;}
	.st9{fill:none;stroke:#FF66C4;stroke-linecap:round;}
	.st10{fill:#FF66C4;stroke:#FF66C4;stroke-linecap:round;stroke-linejoin:round;}
</style>
<path class="st0" d="M5.8,640h26.8v26.8H5.8V640"/>
<path class="st0" d="M5.8,667L5.8,667l-0.1-27h27v27H5.8 M5.9,640.1v26.6h26.6v-26.6H5.9"/>
<path class="st1" d="M7.7,642h23v23h-23V642"/>
<path class="st0" d="M109.7,640h26.8v26.8h-26.8V640"/>
<path class="st0" d="M109.7,667L109.7,667l-0.1-27h27v27H109.7 M109.8,640.1v26.6h26.6v-26.6H109.8"/>
<path class="st1" d="M111.6,642h23v23h-23V642"/>
<path class="st0" d="M260.6,446.6h26.8v26.8h-26.8V446.6"/>
<path class="st0" d="M260.6,473.5L260.6,473.5l-0.1-27h27v27H260.6 M260.7,446.7v26.6h26.6v-26.6H260.7"/>
<path class="st2" d="M262.5,448.5h23v23h-23V448.5"/>
<path class="st0" d="M261.6,512h26.8v26.8h-26.8V512"/>
<path class="st0" d="M261.6,538.9L261.6,538.9l-0.1-27h27v27H261.6 M261.7,512v26.6h26.6V512H261.7"/>
<path class="st3" d="M263.5,513.9h23v23h-23V513.9"/>
<path class="st0" d="M233.6,575.4h26.8v26.8h-26.8V575.4"/>
<path class="st0" d="M233.6,602.4L233.6,602.4l-0.1-27h27v27H233.6 M233.7,575.5v26.6h26.6v-26.6H233.7"/>
<path class="st1" d="M235.5,577.4h23v23h-23V577.4"/>
<path class="st0" d="M285.4,446.6h26.8v26.8h-26.8V446.6"/>
<path class="st0" d="M285.4,473.5L285.4,473.5l-0.1-27h27v27H285.4 M285.5,446.7v26.6h26.6v-26.6H285.5"/>
<path class="st4" d="M287.3,448.5h23v23h-23V448.5"/>
<path class="st0" d="M286.5,512h26.8v26.8h-26.8V512"/>
<path class="st0" d="M286.5,538.9L286.5,538.9l-0.1-27h27v27H286.5 M286.6,512v26.6h26.6V512H286.6"/>
<path class="st5" d="M288.4,513.9h23v23h-23V513.9"/>
<path class="st0" d="M312.4,575.4h26.8v26.8h-26.8V575.4"/>
<path class="st0" d="M312.4,602.4L312.4,602.4l-0.1-27h27v27H312.4 M312.5,575.5v26.6h26.6v-26.6H312.5"/>
<path class="st1" d="M314.3,577.4h23v23h-23V577.4"/>
<path class="st0" d="M33,446.6h26.8v26.8H33V446.6"/>
<path class="st0" d="M33,473.5L33,473.5l-0.1-27h27v27H33 M33.1,446.7v26.6h26.6v-26.6H33.1"/>
<path class="st2" d="M34.9,448.5h23v23h-23V448.5"/>
<path class="st0" d="M83,446.6h26.8v26.8H83V446.6"/>
<path class="st0" d="M83,473.5L83,473.5l-0.1-27h27v27H83 M83.1,446.7v26.6h26.6v-26.6H83.1"/>
<path class="st4" d="M84.9,448.5h23v23h-23V448.5"/>
<path class="st0" d="M57.9,446.6h26.8v26.8H57.9V446.6"/>
<path class="st0" d="M57.9,473.5L57.9,473.5l-0.1-27h27v27H57.9 M58,446.7v26.6h26.6v-26.6H58"/>
<path class="st1" d="M59.8,448.5h23v23h-23V448.5"/>
<g>
	<g transform="translate(186.764, 407.711567)">
		<g>
			<path class="st6" d="M-140.9,56.5h-7.9v-1.9l2.6-2.7c0.8-0.8,1.3-1.3,1.5-1.6c0.2-0.3,0.4-0.5,0.5-0.8c0.1-0.2,0.1-0.4,0.1-0.6
				c0-0.3-0.1-0.5-0.3-0.7c-0.2-0.2-0.4-0.2-0.8-0.2c-0.3,0-0.7,0.1-1,0.3c-0.3,0.2-0.7,0.5-1.2,0.9l-1.6-1.9c0.6-0.5,1-0.9,1.4-1.1
				c0.4-0.2,0.8-0.4,1.2-0.5c0.5-0.1,1-0.2,1.5-0.2c0.7,0,1.3,0.1,1.9,0.4c0.6,0.2,1,0.6,1.3,1c0.3,0.5,0.5,1,0.5,1.5
				c0,0.4-0.1,0.8-0.2,1.2c-0.1,0.4-0.3,0.7-0.5,1.1c-0.2,0.3-0.5,0.7-0.9,1.1c-0.4,0.4-1.1,1.1-2.4,2.2v0.1h4.1V56.5z"/>
		</g>
	</g>
	<g transform="translate(193.456756, 407.711567)">
		<g>
			<path class="st6" d="M-139.1,48c0,0.7-0.2,1.3-0.6,1.8c-0.4,0.5-1,0.8-1.8,1v0c1.8,0.2,2.7,1.1,2.7,2.6c0,1-0.4,1.8-1.2,2.4
				c-0.8,0.6-1.9,0.9-3.3,0.9c-0.6,0-1.1,0-1.6-0.1c-0.5-0.1-1-0.2-1.6-0.5v-2.4c0.5,0.2,0.9,0.4,1.4,0.5c0.5,0.1,1,0.2,1.4,0.2
				c0.7,0,1.1-0.1,1.4-0.3c0.3-0.2,0.4-0.5,0.4-0.9c0-0.3-0.1-0.5-0.2-0.7c-0.2-0.2-0.4-0.3-0.8-0.4c-0.3-0.1-0.8-0.1-1.3-0.1h-0.7
				v-2.2h0.7c1.5,0,2.2-0.4,2.2-1.1c0-0.3-0.1-0.5-0.3-0.6c-0.2-0.1-0.5-0.2-0.9-0.2c-0.7,0-1.4,0.2-2.2,0.7l-1.2-2
				c0.6-0.4,1.2-0.7,1.8-0.8c0.6-0.2,1.3-0.2,2.1-0.2c1.1,0,2,0.2,2.6,0.7C-139.4,46.6-139.1,47.2-139.1,48z"/>
		</g>
	</g>
</g>
<g>
	<g transform="translate(208.753782, 407.711567)">
		<g>
			<path class="st6" d="M-133.5,50.6c0,2.1-0.5,3.7-1.4,4.6c-0.9,0.9-2.4,1.4-4.4,1.4c-0.7,0-1.2,0-1.5-0.1v-2.3
				c0.4,0.1,0.9,0.1,1.3,0.1c1,0,1.8-0.2,2.4-0.6c0.6-0.4,0.9-1.1,0.9-2.1h-0.1c-0.2,0.3-0.4,0.6-0.6,0.8c-0.2,0.2-0.4,0.3-0.7,0.4
				c-0.3,0.1-0.6,0.1-1,0.1c-0.9,0-1.7-0.3-2.2-0.9c-0.5-0.6-0.8-1.5-0.8-2.6c0-1.2,0.3-2.2,1-2.8c0.7-0.7,1.6-1,2.8-1
				c1.3,0,2.3,0.4,3.1,1.3C-133.9,47.8-133.5,49-133.5,50.6z M-137.6,47.9c-0.3,0-0.6,0.1-0.8,0.4c-0.2,0.2-0.3,0.6-0.3,1.1
				c0,0.4,0.1,0.7,0.2,1c0.2,0.2,0.4,0.4,0.8,0.4c0.3,0,0.6-0.1,0.9-0.3c0.2-0.2,0.4-0.5,0.4-0.9c0-0.4-0.1-0.8-0.3-1.1
				C-137,48.1-137.3,47.9-137.6,47.9z"/>
		</g>
	</g>
</g>
<g>
	<g transform="translate(223.893934, 407.711567)">
		<g>
			<path class="st6" d="M-129.9,56.5h-3v-5.8c0-0.7,0-1.3,0-1.9c-0.2,0.2-0.4,0.5-0.7,0.7l-1.2,1l-1.5-1.9l3.7-3h2.6V56.5z"/>
		</g>
	</g>
	<g transform="translate(230.58669, 407.711567)">
		<g>
			<path class="st6" d="M-130.2,45.5c1.1,0,2,0.2,2.7,0.7c0.6,0.5,1,1.1,1,2c0,0.6-0.2,1.1-0.5,1.5c-0.3,0.4-0.8,0.8-1.4,1.1
				c0.8,0.5,1.4,0.9,1.7,1.4c0.3,0.4,0.5,0.9,0.5,1.5c0,1-0.4,1.7-1.1,2.2c-0.7,0.5-1.7,0.8-2.9,0.8c-1.3,0-2.3-0.3-2.9-0.8
				c-0.7-0.5-1-1.3-1-2.2c0-0.6,0.2-1.2,0.5-1.6c0.3-0.4,0.8-0.8,1.5-1.2c-0.6-0.4-1-0.8-1.2-1.2c-0.3-0.4-0.4-0.9-0.4-1.5
				c0-0.8,0.3-1.5,1-1.9C-132.2,45.7-131.3,45.5-130.2,45.5z M-131.5,53.6c0,0.3,0.1,0.6,0.3,0.8c0.2,0.2,0.5,0.3,0.9,0.3
				c0.9,0,1.3-0.3,1.3-1c0-0.2-0.1-0.5-0.3-0.7c-0.2-0.2-0.5-0.5-1-0.8c-0.4,0.2-0.8,0.5-1,0.7C-131.4,53-131.5,53.3-131.5,53.6z
				 M-130.2,47.6c-0.2,0-0.5,0.1-0.6,0.2c-0.2,0.1-0.2,0.3-0.2,0.6c0,0.4,0.3,0.8,0.9,1.1c0.4-0.2,0.6-0.4,0.7-0.5s0.2-0.4,0.2-0.6
				c0-0.2-0.1-0.4-0.3-0.6C-129.7,47.7-129.9,47.6-130.2,47.6z"/>
		</g>
	</g>
</g>
<path class="st0" d="M33,512h26.8v26.8H33V512"/>
<path class="st0" d="M33,538.9L33,538.9l-0.1-27h27v27H33 M33.1,512v26.6h26.6V512H33.1"/>
<path class="st3" d="M34.9,513.9h23v23h-23V513.9"/>
<path class="st0" d="M83,512h26.8v26.8H83V512"/>
<path class="st0" d="M83,538.9L83,538.9l-0.1-27h27v27H83 M83.1,512v26.6h26.6V512H83.1"/>
<path class="st7" d="M84.9,513.9h23v23h-23V513.9"/>
<path class="st0" d="M57.9,512h26.8v26.8H57.9V512"/>
<path class="st0" d="M57.9,538.9L57.9,538.9l-0.1-27h27v27H57.9 M58,512v26.6h26.6V512H58"/>
<path class="st2" d="M59.8,513.9h23v23h-23V513.9"/>
<g>
	<g transform="translate(186.764, 456.713544)">
		<g>
			<path class="st6" d="M-142.3,72.9h-3v-5.8c0-0.7,0-1.3,0-1.9c-0.2,0.2-0.4,0.5-0.7,0.7l-1.2,1l-1.5-1.9l3.7-3h2.6V72.9z"/>
		</g>
	</g>
	<g transform="translate(193.456756, 456.713544)">
		<g>
			<path class="st6" d="M-142.5,61.9c1.1,0,2,0.2,2.7,0.7c0.6,0.5,1,1.1,1,2c0,0.6-0.2,1.1-0.5,1.5c-0.3,0.4-0.8,0.8-1.4,1.1
				c0.8,0.5,1.4,0.9,1.7,1.4c0.3,0.4,0.5,0.9,0.5,1.5c0,1-0.4,1.7-1.1,2.2c-0.7,0.5-1.7,0.8-2.9,0.8c-1.3,0-2.3-0.3-2.9-0.8
				c-0.7-0.5-1-1.3-1-2.2c0-0.6,0.2-1.2,0.5-1.6c0.3-0.4,0.8-0.8,1.5-1.2c-0.6-0.4-1-0.8-1.2-1.2c-0.3-0.4-0.4-0.9-0.4-1.5
				c0-0.8,0.3-1.5,1-1.9C-144.6,62.1-143.7,61.9-142.5,61.9z M-143.8,69.9c0,0.3,0.1,0.6,0.3,0.8c0.2,0.2,0.5,0.3,0.9,0.3
				c0.9,0,1.3-0.3,1.3-1c0-0.2-0.1-0.5-0.3-0.7c-0.2-0.2-0.5-0.5-1-0.8c-0.4,0.2-0.8,0.5-1,0.7C-143.7,69.4-143.8,69.6-143.8,69.9z
				 M-142.6,64c-0.2,0-0.5,0.1-0.6,0.2c-0.2,0.1-0.2,0.3-0.2,0.6c0,0.4,0.3,0.8,0.9,1.1c0.4-0.2,0.6-0.4,0.7-0.5
				c0.1-0.2,0.2-0.4,0.2-0.6c0-0.2-0.1-0.4-0.3-0.6C-142.1,64-142.3,64-142.6,64z"/>
		</g>
	</g>
</g>
<g>
	<g transform="translate(208.753782, 456.713544)">
		<g>
			<path class="st6" d="M-133.5,67c0,2.1-0.5,3.7-1.4,4.6c-0.9,0.9-2.4,1.4-4.4,1.4c-0.7,0-1.2,0-1.5-0.1v-2.3
				c0.4,0.1,0.9,0.1,1.3,0.1c1,0,1.8-0.2,2.4-0.6c0.6-0.4,0.9-1.1,0.9-2.1h-0.1c-0.2,0.3-0.4,0.6-0.6,0.8c-0.2,0.2-0.4,0.3-0.7,0.4
				c-0.3,0.1-0.6,0.1-1,0.1c-0.9,0-1.7-0.3-2.2-0.9c-0.5-0.6-0.8-1.5-0.8-2.6c0-1.2,0.3-2.2,1-2.8c0.7-0.7,1.6-1,2.8-1
				c1.3,0,2.3,0.4,3.1,1.3C-133.9,64.1-133.5,65.4-133.5,67z M-137.6,64.2c-0.3,0-0.6,0.1-0.8,0.4c-0.2,0.2-0.3,0.6-0.3,1.1
				c0,0.4,0.1,0.7,0.2,1c0.2,0.2,0.4,0.4,0.8,0.4c0.3,0,0.6-0.1,0.9-0.3c0.2-0.2,0.4-0.5,0.4-0.9c0-0.4-0.1-0.8-0.3-1.1
				C-137,64.4-137.3,64.2-137.6,64.2z"/>
		</g>
	</g>
</g>
<g>
	<g transform="translate(223.893934, 456.713544)">
		<g>
			<path class="st6" d="M-128.6,72.9h-7.9v-1.9l2.6-2.7c0.8-0.8,1.3-1.3,1.5-1.6c0.2-0.3,0.4-0.5,0.5-0.8c0.1-0.2,0.1-0.4,0.1-0.6
				c0-0.3-0.1-0.5-0.3-0.7c-0.2-0.2-0.4-0.2-0.8-0.2c-0.3,0-0.7,0.1-1,0.3c-0.3,0.2-0.7,0.5-1.2,0.9l-1.6-1.9c0.6-0.5,1-0.9,1.4-1.1
				c0.4-0.2,0.8-0.4,1.2-0.5c0.5-0.1,1-0.2,1.5-0.2c0.7,0,1.3,0.1,1.9,0.4c0.6,0.2,1,0.6,1.3,1c0.3,0.5,0.5,1,0.5,1.5
				c0,0.4-0.1,0.8-0.2,1.2c-0.1,0.4-0.3,0.7-0.5,1.1c-0.2,0.3-0.5,0.7-0.9,1.1c-0.4,0.4-1.1,1.1-2.4,2.2v0.1h4.1V72.9z"/>
		</g>
	</g>
	<g transform="translate(230.58669, 456.713544)">
		<g>
			<path class="st6" d="M-126.7,64.4c0,0.7-0.2,1.3-0.6,1.8c-0.4,0.5-1,0.8-1.8,1v0c1.8,0.2,2.7,1.1,2.7,2.6c0,1-0.4,1.8-1.2,2.4
				c-0.8,0.6-1.9,0.9-3.3,0.9c-0.6,0-1.1,0-1.6-0.1c-0.5-0.1-1-0.2-1.6-0.5V70c0.5,0.2,0.9,0.4,1.4,0.5c0.5,0.1,1,0.2,1.4,0.2
				c0.7,0,1.1-0.1,1.4-0.3c0.3-0.2,0.4-0.5,0.4-0.9c0-0.3-0.1-0.5-0.2-0.7c-0.2-0.2-0.4-0.3-0.8-0.4c-0.3-0.1-0.8-0.1-1.3-0.1h-0.7
				v-2.2h0.7c1.5,0,2.2-0.4,2.2-1.1c0-0.3-0.1-0.5-0.3-0.6c-0.2-0.1-0.5-0.2-0.9-0.2c-0.7,0-1.4,0.2-2.2,0.7l-1.2-2
				c0.6-0.4,1.2-0.7,1.8-0.8c0.6-0.2,1.3-0.2,2.1-0.2c1.1,0,2,0.2,2.6,0.7C-127,63-126.7,63.6-126.7,64.4z"/>
		</g>
	</g>
</g>
<path class="st0" d="M33,575.4h26.8v26.8H33V575.4"/>
<path class="st0" d="M33,602.4L33,602.4l-0.1-27h27v27H33 M33.1,575.5v26.6h26.6v-26.6H33.1"/>
<path class="st1" d="M34.9,577.4h23v23h-23V577.4"/>
<path class="st0" d="M83,575.4h26.8v26.8H83V575.4"/>
<path class="st0" d="M83,602.4L83,602.4l-0.1-27h27v27H83 M83.1,575.5v26.6h26.6v-26.6H83.1"/>
<path class="st5" d="M84.9,577.4h23v23h-23V577.4"/>
<path class="st0" d="M57.9,575.4h26.8v26.8H57.9V575.4"/>
<path class="st0" d="M57.9,602.4L57.9,602.4l-0.1-27h27v27H57.9 M58,575.5v26.6h26.6v-26.6H58"/>
<path class="st3" d="M59.8,577.4h23v23h-23V577.4"/>
<g>
	<g transform="translate(190.116123, 504.331227)">
		<g>
			<path class="st6" d="M-139.7,82.9c0,2.1-0.5,3.7-1.4,4.6c-0.9,0.9-2.4,1.4-4.4,1.4c-0.7,0-1.2,0-1.5-0.1v-2.3
				c0.4,0.1,0.9,0.1,1.3,0.1c1,0,1.8-0.2,2.4-0.6c0.6-0.4,0.9-1.1,0.9-2.1h-0.1c-0.2,0.3-0.4,0.6-0.6,0.8c-0.2,0.2-0.4,0.3-0.7,0.4
				c-0.3,0.1-0.6,0.1-1,0.1c-0.9,0-1.7-0.3-2.2-0.9c-0.5-0.6-0.8-1.5-0.8-2.6c0-1.2,0.3-2.2,1-2.8c0.7-0.7,1.6-1,2.8-1
				c1.3,0,2.3,0.4,3.1,1.3C-140.1,80-139.7,81.2-139.7,82.9z M-143.8,80.1c-0.3,0-0.6,0.1-0.8,0.4c-0.2,0.2-0.3,0.6-0.3,1.1
				c0,0.4,0.1,0.7,0.2,1c0.2,0.2,0.4,0.4,0.8,0.4c0.3,0,0.6-0.1,0.9-0.3c0.2-0.2,0.4-0.5,0.4-0.9c0-0.4-0.1-0.8-0.3-1.1
				C-143.2,80.3-143.5,80.1-143.8,80.1z"/>
		</g>
	</g>
</g>
<g>
	<g transform="translate(205.401662, 504.331227)">
		<g>
			<path class="st6" d="M-136,88.7h-3V83c0-0.7,0-1.3,0-1.9c-0.2,0.2-0.4,0.5-0.7,0.7l-1.2,1l-1.5-1.9l3.7-3h2.6V88.7z"/>
		</g>
	</g>
	<g transform="translate(212.094418, 504.331227)">
		<g>
			<path class="st6" d="M-136.3,77.7c1.1,0,2,0.2,2.7,0.7c0.6,0.5,1,1.1,1,2c0,0.6-0.2,1.1-0.5,1.5c-0.3,0.4-0.8,0.8-1.4,1.1
				c0.8,0.5,1.4,0.9,1.7,1.4c0.3,0.4,0.5,0.9,0.5,1.5c0,1-0.4,1.7-1.1,2.2c-0.7,0.5-1.7,0.8-2.9,0.8c-1.3,0-2.3-0.3-2.9-0.8
				c-0.7-0.5-1-1.3-1-2.2c0-0.6,0.2-1.2,0.5-1.6c0.3-0.4,0.8-0.8,1.5-1.2c-0.6-0.4-1-0.8-1.2-1.2c-0.3-0.4-0.4-0.9-0.4-1.5
				c0-0.8,0.3-1.5,1-1.9C-138.4,78-137.5,77.7-136.3,77.7z M-137.6,85.8c0,0.3,0.1,0.6,0.3,0.8c0.2,0.2,0.5,0.3,0.9,0.3
				c0.9,0,1.3-0.3,1.3-1c0-0.2-0.1-0.5-0.3-0.7c-0.2-0.2-0.5-0.5-1-0.8c-0.4,0.2-0.8,0.5-1,0.7C-137.5,85.3-137.6,85.5-137.6,85.8z
				 M-136.3,79.8c-0.2,0-0.5,0.1-0.6,0.2c-0.2,0.1-0.2,0.3-0.2,0.6c0,0.4,0.3,0.8,0.9,1.1c0.4-0.2,0.6-0.4,0.7-0.5
				c0.1-0.2,0.2-0.4,0.2-0.6c0-0.2-0.1-0.4-0.3-0.6C-135.9,79.9-136.1,79.8-136.3,79.8z"/>
		</g>
	</g>
</g>
<g>
	<g transform="translate(223.893934, 504.331227)">
		<g>
			<path class="st6" d="M-128.6,88.7h-7.9v-1.9l2.6-2.7c0.8-0.8,1.3-1.3,1.5-1.6c0.2-0.3,0.4-0.5,0.5-0.8c0.1-0.2,0.1-0.4,0.1-0.6
				c0-0.3-0.1-0.5-0.3-0.7c-0.2-0.2-0.4-0.2-0.8-0.2c-0.3,0-0.7,0.1-1,0.3c-0.3,0.2-0.7,0.5-1.2,0.9l-1.6-1.9c0.6-0.5,1-0.9,1.4-1.1
				c0.4-0.2,0.8-0.4,1.2-0.5c0.5-0.1,1-0.2,1.5-0.2c0.7,0,1.3,0.1,1.9,0.4c0.6,0.2,1,0.6,1.3,1c0.3,0.5,0.5,1,0.5,1.5
				c0,0.4-0.1,0.8-0.2,1.2c-0.1,0.4-0.3,0.7-0.5,1.1c-0.2,0.3-0.5,0.7-0.9,1.1c-0.4,0.4-1.1,1.1-2.4,2.2v0.1h4.1V88.7z"/>
		</g>
	</g>
	<g transform="translate(230.58669, 504.331227)">
		<g>
			<path class="st6" d="M-126.7,80.2c0,0.7-0.2,1.3-0.6,1.8c-0.4,0.5-1,0.8-1.8,1v0c1.8,0.2,2.7,1.1,2.7,2.6c0,1-0.4,1.8-1.2,2.4
				c-0.8,0.6-1.9,0.9-3.3,0.9c-0.6,0-1.1,0-1.6-0.1c-0.5-0.1-1-0.2-1.6-0.5v-2.4c0.5,0.2,0.9,0.4,1.4,0.5c0.5,0.1,1,0.2,1.4,0.2
				c0.7,0,1.1-0.1,1.4-0.3c0.3-0.2,0.4-0.5,0.4-0.9c0-0.3-0.1-0.5-0.2-0.7c-0.2-0.2-0.4-0.3-0.8-0.4c-0.3-0.1-0.8-0.1-1.3-0.1h-0.7
				v-2.2h0.7c1.5,0,2.2-0.4,2.2-1.1c0-0.3-0.1-0.5-0.3-0.6c-0.2-0.1-0.5-0.2-0.9-0.2c-0.7,0-1.4,0.2-2.2,0.7l-1.2-2
				c0.6-0.4,1.2-0.7,1.8-0.8c0.6-0.2,1.3-0.2,2.1-0.2c1.1,0,2,0.2,2.6,0.7C-127,78.8-126.7,79.4-126.7,80.2z"/>
		</g>
	</g>
</g>
<path class="st0" d="M110.3,0.1h26.8v26.8h-26.8V0.1"/>
<path class="st0" d="M110.3,27L110.3,27l-0.1-27h27v27H110.3 M110.4,0.2v26.6H137V0.2H110.4"/>
<path class="st1" d="M112.2,2h23v23h-23V2"/>
<path class="st0" d="M160.2,0.1h26.8v26.8h-26.8V0.1"/>
<path class="st0" d="M160.2,27L160.2,27l-0.1-27h27v27H160.2 M160.3,0.2v26.6H187V0.2H160.3"/>
<path class="st1" d="M162.1,2h23v23h-23V2"/>
<path class="st0" d="M208.8,0.1h26.8v26.8h-26.8V0.1"/>
<path class="st0" d="M208.8,27L208.8,27l-0.1-27h27v27H208.8 M208.9,0.2v26.6h26.6V0.2H208.9"/>
<path class="st1" d="M210.7,2h23v23h-23V2"/>
<path class="st0" d="M135.1,0.1h26.8v26.8h-26.8V0.1"/>
<path class="st0" d="M135.1,27L135.1,27L135,0h27v27H135.1 M135.2,0.2v26.6h26.6V0.2H135.2"/>
<path class="st1" d="M137,2h23v23h-23V2"/>
<path class="st0" d="M185.1,0.1h26.8v26.8h-26.8V0.1"/>
<path class="st0" d="M185.1,27L185.1,27L185,0h27v27H185.1 M185.2,0.2v26.6h26.6V0.2H185.2"/>
<path class="st1" d="M187,2h23v23h-23V2"/>
<path class="st0" d="M233.6,0.1h26.8v26.8h-26.8V0.1"/>
<path class="st0" d="M233.6,27L233.6,27l-0.1-27h27v27H233.6 M233.7,0.2v26.6h26.6V0.2H233.7"/>
<path class="st3" d="M235.5,2h23v23h-23V2"/>
<g>
	<g transform="translate(244.68405, 72.81425)">
		<g>
			<path class="st6" d="M-125-62.2c0.6,0,1.2,0.1,1.7,0.4c0.5,0.3,0.9,0.7,1.2,1.2c0.3,0.5,0.4,1.1,0.4,1.8c0,1.2-0.4,2.2-1.1,2.8
				c-0.7,0.6-1.8,1-3.3,1c-1.3,0-2.3-0.2-3.1-0.6v-2.4c0.4,0.2,0.9,0.4,1.5,0.5s1,0.2,1.4,0.2c0.5,0,1-0.1,1.2-0.3
				c0.3-0.2,0.4-0.6,0.4-1c0-0.4-0.1-0.7-0.4-1c-0.3-0.2-0.7-0.4-1.4-0.4c-0.5,0-1,0.1-1.5,0.2l-1.1-0.5l0.4-5.8h6.2v2.5h-3.7
				l-0.1,1.4c0.4-0.1,0.6-0.1,0.8-0.1C-125.3-62.2-125.2-62.2-125-62.2z"/>
		</g>
	</g>
	<g transform="translate(251.376806, 72.81425)">
		<g>
			<path class="st6" d="M-119.3-60.5c0,1.9-0.3,3.3-1,4.2c-0.6,0.9-1.6,1.3-3,1.3c-1.3,0-2.3-0.5-2.9-1.4c-0.7-0.9-1-2.3-1-4.2
				c0-1.9,0.3-3.3,1-4.2c0.7-0.9,1.6-1.4,3-1.4c1.3,0,2.3,0.5,2.9,1.4C-119.7-63.8-119.3-62.4-119.3-60.5z M-124.3-60.5
				c0,1.2,0.1,2.1,0.2,2.5c0.2,0.5,0.4,0.7,0.8,0.7c0.4,0,0.6-0.2,0.8-0.7c0.2-0.5,0.2-1.3,0.2-2.5c0-1.2-0.1-2.1-0.2-2.5
				c-0.2-0.5-0.4-0.7-0.8-0.7c-0.4,0-0.6,0.2-0.8,0.7C-124.2-62.6-124.3-61.7-124.3-60.5z"/>
		</g>
	</g>
</g>
<g>
	<g transform="translate(263.321712, 72.81425)">
		<g>
			<path class="st6" d="M-115.4-55.1h-7.9V-57l2.6-2.7c0.8-0.8,1.3-1.3,1.5-1.6c0.2-0.3,0.4-0.5,0.5-0.8c0.1-0.2,0.1-0.4,0.1-0.6
				c0-0.3-0.1-0.5-0.3-0.7c-0.2-0.2-0.4-0.2-0.8-0.2c-0.3,0-0.7,0.1-1,0.3c-0.3,0.2-0.7,0.5-1.2,0.9l-1.6-1.9c0.6-0.5,1-0.9,1.4-1.1
				c0.4-0.2,0.8-0.4,1.2-0.5c0.5-0.1,1-0.2,1.5-0.2c0.7,0,1.3,0.1,1.9,0.4c0.6,0.2,1,0.6,1.3,1c0.3,0.5,0.5,1,0.5,1.5
				c0,0.4-0.1,0.8-0.2,1.2c-0.1,0.4-0.3,0.7-0.5,1.1c-0.2,0.3-0.5,0.7-0.9,1.1c-0.4,0.4-1.1,1.1-2.4,2.2v0.1h4.1V-55.1z"/>
		</g>
	</g>
	<g transform="translate(270.014468, 72.81425)">
		<g>
			<path class="st6" d="M-113.5-63.6c0,0.7-0.2,1.3-0.6,1.8c-0.4,0.5-1,0.8-1.8,1v0c1.8,0.2,2.7,1.1,2.7,2.6c0,1-0.4,1.8-1.2,2.4
				c-0.8,0.6-1.9,0.9-3.3,0.9c-0.6,0-1.1,0-1.6-0.1c-0.5-0.1-1-0.2-1.6-0.5V-58c0.5,0.2,0.9,0.4,1.4,0.5c0.5,0.1,1,0.2,1.4,0.2
				c0.7,0,1.1-0.1,1.4-0.3c0.3-0.2,0.4-0.5,0.4-0.9c0-0.3-0.1-0.5-0.2-0.7c-0.2-0.2-0.4-0.3-0.8-0.4c-0.3-0.1-0.8-0.1-1.3-0.1h-0.7
				v-2.2h0.7c1.5,0,2.2-0.4,2.2-1.1c0-0.3-0.1-0.5-0.3-0.6c-0.2-0.1-0.5-0.2-0.9-0.2c-0.7,0-1.4,0.2-2.2,0.7l-1.2-2
				c0.6-0.4,1.2-0.7,1.8-0.8c0.6-0.2,1.3-0.2,2.1-0.2c1.1,0,2,0.2,2.6,0.7C-113.9-65-113.5-64.4-113.5-63.6z"/>
		</g>
	</g>
</g>
<g>
	<g transform="translate(300.809714, 72.81425)">
		<g>
			<path class="st6" d="M-104.2-55.1h-3v-5.8c0-0.7,0-1.3,0-1.9c-0.2,0.2-0.4,0.5-0.7,0.7l-1.2,1l-1.5-1.9l3.7-3h2.6V-55.1z"/>
		</g>
	</g>
	<g transform="translate(307.50247, 72.81425)">
		<g>
			<path class="st6" d="M-104.5-66.1c1.1,0,2,0.2,2.7,0.7c0.6,0.5,1,1.1,1,2c0,0.6-0.2,1.1-0.5,1.5c-0.3,0.4-0.8,0.8-1.4,1.1
				c0.8,0.5,1.4,0.9,1.7,1.4c0.3,0.4,0.5,0.9,0.5,1.5c0,1-0.4,1.7-1.1,2.3c-0.7,0.5-1.7,0.8-2.9,0.8c-1.3,0-2.3-0.3-2.9-0.8
				c-0.7-0.5-1-1.3-1-2.2c0-0.6,0.2-1.2,0.5-1.6c0.3-0.4,0.8-0.8,1.5-1.2c-0.6-0.4-1-0.8-1.2-1.2c-0.3-0.4-0.4-0.9-0.4-1.5
				c0-0.8,0.3-1.5,1-1.9C-106.6-65.9-105.7-66.1-104.5-66.1z M-105.8-58.1c0,0.3,0.1,0.6,0.3,0.8c0.2,0.2,0.5,0.3,0.9,0.3
				c0.9,0,1.3-0.3,1.3-1c0-0.2-0.1-0.5-0.3-0.7c-0.2-0.2-0.5-0.5-1-0.8c-0.4,0.2-0.8,0.5-1,0.7C-105.7-58.6-105.8-58.3-105.8-58.1z
				 M-104.5-64c-0.2,0-0.5,0.1-0.6,0.2c-0.2,0.1-0.2,0.3-0.2,0.6c0,0.4,0.3,0.8,0.9,1.1c0.4-0.2,0.6-0.4,0.7-0.5s0.2-0.4,0.2-0.6
				c0-0.2-0.1-0.4-0.3-0.6C-104.1-63.9-104.3-64-104.5-64z"/>
		</g>
	</g>
</g>
<g>
	<g transform="translate(285.16609, 72.81425)">
		<g>
			<path class="st6" d="M-108-61c0,2.1-0.5,3.7-1.4,4.6c-0.9,0.9-2.4,1.4-4.4,1.4c-0.7,0-1.2,0-1.5-0.1v-2.3
				c0.4,0.1,0.9,0.1,1.3,0.1c1,0,1.8-0.2,2.4-0.6c0.6-0.4,0.9-1.1,0.9-2.1h-0.1c-0.2,0.3-0.4,0.6-0.6,0.8c-0.2,0.2-0.4,0.3-0.7,0.4
				c-0.3,0.1-0.6,0.1-1,0.1c-0.9,0-1.7-0.3-2.2-0.9c-0.5-0.6-0.8-1.5-0.8-2.6c0-1.2,0.3-2.2,1-2.8c0.7-0.7,1.6-1,2.8-1
				c1.3,0,2.3,0.4,3.1,1.3C-108.4-63.9-108-62.6-108-61z M-112.1-63.7c-0.3,0-0.6,0.1-0.8,0.4c-0.2,0.2-0.3,0.6-0.3,1.1
				c0,0.4,0.1,0.7,0.2,1c0.2,0.2,0.4,0.4,0.8,0.4c0.3,0,0.6-0.1,0.9-0.3c0.2-0.2,0.4-0.5,0.4-0.9c0-0.4-0.1-0.8-0.3-1.1
				C-111.5-63.6-111.8-63.7-112.1-63.7z"/>
		</g>
	</g>
</g>
<g>
	<g transform="translate(337.200734, 72.81425)">
		<g>
			<path class="st6" d="M-91.1-63.6c0,0.7-0.2,1.3-0.6,1.8c-0.4,0.5-1,0.8-1.8,1v0c1.8,0.2,2.7,1.1,2.7,2.6c0,1-0.4,1.8-1.2,2.4
				c-0.8,0.6-1.9,0.9-3.3,0.9c-0.6,0-1.1,0-1.6-0.1c-0.5-0.1-1-0.2-1.6-0.5V-58c0.5,0.2,0.9,0.4,1.4,0.5c0.5,0.1,1,0.2,1.4,0.2
				c0.7,0,1.1-0.1,1.4-0.3c0.3-0.2,0.4-0.5,0.4-0.9c0-0.3-0.1-0.5-0.2-0.7c-0.2-0.2-0.4-0.3-0.8-0.4c-0.3-0.1-0.8-0.1-1.3-0.1h-0.7
				v-2.2h0.7c1.5,0,2.2-0.4,2.2-1.1c0-0.3-0.1-0.5-0.3-0.6c-0.2-0.1-0.5-0.2-0.9-0.2c-0.7,0-1.4,0.2-2.2,0.7l-1.2-2
				c0.6-0.4,1.2-0.7,1.8-0.8c0.6-0.2,1.3-0.2,2.1-0.2c1.1,0,2,0.2,2.6,0.7C-91.5-65-91.1-64.4-91.1-63.6z"/>
		</g>
	</g>
	<g transform="translate(343.893489, 72.81425)">
		<g>
			<path class="st6" d="M-88.6-55.1h-7.9V-57l2.6-2.7c0.8-0.8,1.3-1.3,1.5-1.6c0.2-0.3,0.4-0.5,0.5-0.8c0.1-0.2,0.1-0.4,0.1-0.6
				c0-0.3-0.1-0.5-0.3-0.7c-0.2-0.2-0.4-0.2-0.8-0.2c-0.3,0-0.7,0.1-1,0.3c-0.3,0.2-0.7,0.5-1.2,0.9l-1.6-1.9c0.6-0.5,1-0.9,1.4-1.1
				c0.4-0.2,0.8-0.4,1.2-0.5c0.5-0.1,1-0.2,1.5-0.2c0.7,0,1.3,0.1,1.9,0.4c0.6,0.2,1,0.6,1.3,1c0.3,0.5,0.5,1,0.5,1.5
				c0,0.4-0.1,0.8-0.2,1.2c-0.1,0.4-0.3,0.7-0.5,1.1c-0.2,0.3-0.5,0.7-0.9,1.1c-0.4,0.4-1.1,1.1-2.4,2.2v0.1h4.1V-55.1z"/>
		</g>
	</g>
</g>
<g>
	<g transform="translate(318.563046, 72.81425)">
		<g>
			<path class="st6" d="M-104.8-59.7c0-1.5,0.2-2.7,0.6-3.7c0.4-0.9,1.1-1.6,1.9-2.1c0.8-0.4,1.9-0.7,3.1-0.7c0.4,0,1,0,1.6,0.1v2.3
				c-0.5-0.1-1-0.1-1.6-0.1c-1,0-1.7,0.2-2.2,0.6c-0.5,0.4-0.8,1.1-0.8,2.1h0.1c0.4-0.8,1.2-1.3,2.1-1.3c1,0,1.7,0.3,2.2,0.9
				c0.5,0.6,0.8,1.5,0.8,2.6c0,1.2-0.3,2.1-1,2.8c-0.7,0.7-1.6,1-2.8,1c-1.3,0-2.3-0.4-3-1.2C-104.4-57-104.8-58.2-104.8-59.7z
				 M-100.8-57.3c0.3,0,0.6-0.1,0.8-0.3c0.2-0.2,0.3-0.6,0.3-1.1c0-0.9-0.3-1.3-1-1.3c-0.3,0-0.6,0.1-0.8,0.4
				c-0.2,0.2-0.3,0.5-0.3,0.8c0,0.5,0.1,0.9,0.3,1.2C-101.4-57.4-101.1-57.3-100.8-57.3z"/>
		</g>
	</g>
	<g transform="translate(325.255801, 72.81425)">
		<g>
			<path class="st6" d="M-96.1-55.1h-3v-5.8c0-0.7,0-1.3,0-1.9c-0.2,0.2-0.4,0.5-0.7,0.7l-1.2,1l-1.5-1.9l3.7-3h2.6V-55.1z"/>
		</g>
	</g>
</g>
<path class="st0" d="M109.8,243.2h26.8v26.8h-26.8V243.2"/>
<path class="st0" d="M109.8,270.1L109.8,270.1l-0.1-27h27v27H109.8 M109.9,243.3V270h26.6v-26.6H109.9"/>
<path class="st1" d="M111.7,245.1h23v23h-23V245.1"/>
<path class="st0" d="M159.8,243.2h26.8v26.8h-26.8V243.2"/>
<path class="st0" d="M159.8,270.1L159.8,270.1l-0.1-27h27v27H159.8 M159.9,243.3V270h26.6v-26.6H159.9"/>
<path class="st3" d="M161.7,245.1h23v23h-23V245.1"/>
<path class="st0" d="M209.2,243.2H236v26.8h-26.8V243.2"/>
<path class="st0" d="M209.2,270.1L209.2,270.1l-0.1-27h27v27H209.2 M209.3,243.3V270h26.6v-26.6H209.3"/>
<path class="st1" d="M211.1,245.1h23v23h-23V245.1"/>
<path class="st0" d="M134.7,243.2h26.8v26.8h-26.8V243.2"/>
<path class="st0" d="M134.7,270.1L134.7,270.1l-0.1-27h27v27H134.7 M134.8,243.3V270h26.6v-26.6H134.8"/>
<path class="st1" d="M136.6,245.1h23v23h-23V245.1"/>
<path class="st0" d="M184.7,243.2h26.8v26.8h-26.8V243.2"/>
<path class="st0" d="M184.7,270.1L184.7,270.1l-0.1-27h27v27H184.7 M184.8,243.3V270h26.6v-26.6H184.8"/>
<path class="st2" d="M186.6,245.1h23v23h-23V245.1"/>
<path class="st0" d="M234,243.2h26.8v26.8H234V243.2"/>
<path class="st0" d="M234,270.1L234,270.1l-0.1-27h27v27H234 M234.1,243.3V270h26.6v-26.6H234.1"/>
<path class="st7" d="M235.9,245.1h23v23h-23V245.1"/>
<g>
	<g transform="translate(244.366566, 255.170511)">
		<g>
			<path class="st6" d="M-121.7,5.7h-7.9V3.8l2.6-2.7c0.8-0.8,1.3-1.3,1.5-1.6c0.2-0.3,0.4-0.5,0.5-0.7c0.1-0.2,0.1-0.4,0.1-0.6
				c0-0.3-0.1-0.5-0.3-0.7c-0.2-0.2-0.4-0.2-0.8-0.2c-0.3,0-0.7,0.1-1,0.3c-0.3,0.2-0.7,0.5-1.2,0.9l-1.6-1.9c0.6-0.5,1-0.9,1.4-1.1
				c0.4-0.2,0.8-0.4,1.2-0.5c0.5-0.1,1-0.2,1.5-0.2c0.7,0,1.3,0.1,1.9,0.4c0.6,0.2,1,0.6,1.3,1c0.3,0.5,0.5,1,0.5,1.5
				c0,0.4-0.1,0.8-0.2,1.2c-0.1,0.4-0.3,0.7-0.5,1.1c-0.2,0.3-0.5,0.7-0.9,1.1c-0.4,0.4-1.1,1.1-2.4,2.2v0.1h4.1V5.7z"/>
		</g>
	</g>
	<g transform="translate(251.059322, 255.170511)">
		<g>
			<path class="st6" d="M-119.9-2.8c0,0.7-0.2,1.3-0.6,1.8c-0.4,0.5-1,0.8-1.8,1v0c1.8,0.2,2.7,1.1,2.7,2.6c0,1-0.4,1.8-1.2,2.4
				c-0.8,0.6-1.9,0.9-3.3,0.9c-0.6,0-1.1,0-1.6-0.1c-0.5-0.1-1-0.2-1.6-0.5V2.8c0.5,0.2,0.9,0.4,1.4,0.5c0.5,0.1,1,0.2,1.4,0.2
				c0.7,0,1.1-0.1,1.4-0.3c0.3-0.2,0.4-0.5,0.4-0.9c0-0.3-0.1-0.5-0.2-0.7c-0.2-0.2-0.4-0.3-0.8-0.4c-0.3-0.1-0.8-0.1-1.3-0.1h-0.7
				V-1h0.7c1.5,0,2.2-0.4,2.2-1.1c0-0.3-0.1-0.5-0.3-0.6c-0.2-0.1-0.5-0.2-0.9-0.2c-0.7,0-1.4,0.2-2.2,0.7l-1.2-2
				c0.6-0.4,1.2-0.7,1.8-0.8c0.6-0.2,1.3-0.2,2.1-0.2c1.1,0,2,0.2,2.6,0.7C-120.2-4.2-119.9-3.6-119.9-2.8z"/>
		</g>
	</g>
</g>
<g>
	<g transform="translate(266.356348, 255.170511)">
		<g>
			<path class="st6" d="M-114.3-0.2c0,2.1-0.5,3.7-1.4,4.6c-0.9,0.9-2.4,1.4-4.4,1.4c-0.7,0-1.2,0-1.5-0.1V3.4
				c0.4,0.1,0.9,0.1,1.3,0.1c1,0,1.8-0.2,2.4-0.6c0.6-0.4,0.9-1.1,0.9-2.1h-0.1c-0.2,0.3-0.4,0.6-0.6,0.8c-0.2,0.2-0.4,0.3-0.7,0.4
				c-0.3,0.1-0.6,0.1-1,0.1c-0.9,0-1.7-0.3-2.2-0.9c-0.5-0.6-0.8-1.5-0.8-2.6c0-1.2,0.3-2.2,1-2.8c0.7-0.7,1.6-1,2.8-1
				c1.3,0,2.3,0.4,3.1,1.3C-114.7-3.1-114.3-1.8-114.3-0.2z M-118.4-2.9c-0.3,0-0.6,0.1-0.8,0.4c-0.2,0.2-0.3,0.6-0.3,1.1
				c0,0.4,0.1,0.7,0.2,1c0.2,0.2,0.4,0.4,0.8,0.4c0.3,0,0.6-0.1,0.9-0.3c0.2-0.2,0.4-0.5,0.4-0.9c0-0.4-0.1-0.8-0.3-1.1
				C-117.8-2.8-118.1-2.9-118.4-2.9z"/>
		</g>
	</g>
</g>
<g>
	<g transform="translate(300.492213, 255.170511)">
		<g>
			<path class="st6" d="M-104.4,5.7h-3v-5.8c0-0.7,0-1.3,0-1.9c-0.2,0.2-0.4,0.5-0.7,0.7l-1.2,1l-1.5-1.9l3.7-3h2.6V5.7z"/>
		</g>
	</g>
	<g transform="translate(307.184969, 255.170511)">
		<g>
			<path class="st6" d="M-104.6-5.3c1.1,0,2,0.2,2.7,0.7c0.6,0.5,1,1.1,1,2c0,0.6-0.2,1.1-0.5,1.5c-0.3,0.4-0.8,0.8-1.4,1.1
				c0.8,0.5,1.4,0.9,1.7,1.4c0.3,0.4,0.5,0.9,0.5,1.5c0,1-0.4,1.7-1.1,2.3c-0.7,0.5-1.7,0.8-2.9,0.8c-1.3,0-2.3-0.3-2.9-0.8
				c-0.7-0.5-1-1.3-1-2.2c0-0.6,0.2-1.2,0.5-1.6c0.3-0.4,0.8-0.8,1.5-1.2c-0.6-0.4-1-0.8-1.2-1.2c-0.3-0.4-0.4-0.9-0.4-1.5
				c0-0.8,0.3-1.5,1-1.9C-106.7-5.1-105.8-5.3-104.6-5.3z M-105.9,2.7c0,0.3,0.1,0.6,0.3,0.8c0.2,0.2,0.5,0.3,0.9,0.3
				c0.9,0,1.3-0.3,1.3-1c0-0.2-0.1-0.5-0.3-0.7c-0.2-0.2-0.5-0.5-1-0.8c-0.4,0.2-0.8,0.5-1,0.7C-105.8,2.2-105.9,2.5-105.9,2.7z
				 M-104.6-3.2c-0.2,0-0.5,0.1-0.6,0.2c-0.2,0.1-0.2,0.3-0.2,0.6c0,0.4,0.3,0.8,0.9,1.1c0.4-0.2,0.6-0.4,0.7-0.5s0.2-0.4,0.2-0.6
				c0-0.2-0.1-0.4-0.3-0.6C-104.2-3.1-104.4-3.2-104.6-3.2z"/>
		</g>
	</g>
</g>
<g>
	<g transform="translate(281.496483, 255.170511)">
		<g>
			<path class="st6" d="M-109.7-2.8c0,0.7-0.2,1.3-0.6,1.8c-0.4,0.5-1,0.8-1.8,1v0c1.8,0.2,2.7,1.1,2.7,2.6c0,1-0.4,1.8-1.2,2.4
				c-0.8,0.6-1.9,0.9-3.3,0.9c-0.6,0-1.1,0-1.6-0.1c-0.5-0.1-1-0.2-1.6-0.5V2.8c0.5,0.2,0.9,0.4,1.4,0.5c0.5,0.1,1,0.2,1.4,0.2
				c0.7,0,1.1-0.1,1.4-0.3c0.3-0.2,0.4-0.5,0.4-0.9c0-0.3-0.1-0.5-0.2-0.7c-0.2-0.2-0.4-0.3-0.8-0.4c-0.3-0.1-0.8-0.1-1.3-0.1h-0.7
				V-1h0.7c1.5,0,2.2-0.4,2.2-1.1c0-0.3-0.1-0.5-0.3-0.6c-0.2-0.1-0.5-0.2-0.9-0.2c-0.7,0-1.4,0.2-2.2,0.7l-1.2-2
				c0.6-0.4,1.2-0.7,1.8-0.8c0.6-0.2,1.3-0.2,2.1-0.2c1.1,0,2,0.2,2.6,0.7C-110-4.2-109.7-3.6-109.7-2.8z"/>
		</g>
	</g>
	<g transform="translate(288.189239, 255.170511)">
		<g>
			<path class="st6" d="M-107.1,5.7h-7.9V3.8l2.6-2.7c0.8-0.8,1.3-1.3,1.5-1.6c0.2-0.3,0.4-0.5,0.5-0.7c0.1-0.2,0.1-0.4,0.1-0.6
				c0-0.3-0.1-0.5-0.3-0.7c-0.2-0.2-0.4-0.2-0.8-0.2s-0.7,0.1-1,0.3c-0.3,0.2-0.7,0.5-1.2,0.9l-1.6-1.9c0.6-0.5,1-0.9,1.4-1.1
				c0.4-0.2,0.8-0.4,1.2-0.5c0.5-0.1,1-0.2,1.5-0.2c0.7,0,1.3,0.1,1.9,0.4c0.6,0.2,1,0.6,1.3,1c0.3,0.5,0.5,1,0.5,1.5
				c0,0.4-0.1,0.8-0.2,1.2c-0.1,0.4-0.3,0.7-0.5,1.1c-0.2,0.3-0.5,0.7-0.9,1.1c-0.4,0.4-1.1,1.1-2.4,2.2v0.1h4.1V5.7z"/>
		</g>
	</g>
</g>
<g>
	<g transform="translate(337.518206, 255.170511)">
		<g>
			<path class="st6" d="M-94.1-1.4c0.6,0,1.2,0.1,1.7,0.4s0.9,0.7,1.2,1.2c0.3,0.5,0.4,1.1,0.4,1.8c0,1.2-0.4,2.2-1.1,2.8
				c-0.7,0.6-1.8,1-3.3,1c-1.3,0-2.3-0.2-3.1-0.6V2.8c0.4,0.2,0.9,0.4,1.5,0.5c0.5,0.1,1,0.2,1.4,0.2c0.5,0,1-0.1,1.2-0.3
				c0.3-0.2,0.4-0.6,0.4-1c0-0.4-0.1-0.7-0.4-1c-0.3-0.2-0.7-0.4-1.4-0.4c-0.5,0-1,0.1-1.5,0.3l-1.1-0.5l0.4-5.8h6.2v2.5h-3.7
				l-0.1,1.4c0.4-0.1,0.6-0.1,0.8-0.1C-94.4-1.4-94.2-1.4-94.1-1.4z"/>
		</g>
	</g>
	<g transform="translate(344.210962, 255.170511)">
		<g>
			<path class="st6" d="M-88.4,0.3c0,1.9-0.3,3.3-1,4.2c-0.6,0.9-1.6,1.3-3,1.3c-1.3,0-2.3-0.5-2.9-1.4c-0.7-0.9-1-2.3-1-4.2
				c0-1.9,0.3-3.3,1-4.2c0.7-0.9,1.6-1.4,3-1.4c1.3,0,2.3,0.5,2.9,1.4C-88.7-3-88.4-1.6-88.4,0.3z M-93.3,0.3c0,1.2,0.1,2.1,0.2,2.5
				c0.2,0.5,0.4,0.7,0.8,0.7c0.4,0,0.6-0.2,0.8-0.7c0.2-0.5,0.2-1.3,0.2-2.5c0-1.2-0.1-2.1-0.2-2.5C-91.7-2.8-92-3-92.3-3
				c-0.4,0-0.6,0.2-0.8,0.7C-93.2-1.8-93.3-1-93.3,0.3z"/>
		</g>
	</g>
</g>
<g>
	<g transform="translate(318.880573, 255.170511)">
		<g>
			<path class="st6" d="M-104.7,1.1c0-1.5,0.2-2.7,0.6-3.7c0.4-0.9,1.1-1.6,1.9-2.1c0.8-0.4,1.9-0.7,3.1-0.7c0.4,0,1,0,1.6,0.1v2.3
				c-0.5-0.1-1-0.1-1.6-0.1c-1,0-1.7,0.2-2.2,0.6c-0.5,0.4-0.8,1.1-0.8,2.1h0.1c0.4-0.8,1.2-1.3,2.1-1.3c1,0,1.7,0.3,2.2,0.9
				C-97,0-96.8,0.9-96.8,2c0,1.2-0.3,2.1-1,2.8c-0.7,0.7-1.6,1-2.8,1c-1.3,0-2.3-0.4-3-1.2C-104.3,3.8-104.7,2.6-104.7,1.1z
				 M-100.7,3.5c0.3,0,0.6-0.1,0.8-0.3c0.2-0.2,0.3-0.6,0.3-1.1c0-0.9-0.3-1.3-1-1.3c-0.3,0-0.6,0.1-0.8,0.4
				c-0.2,0.2-0.3,0.5-0.3,0.8c0,0.5,0.1,0.9,0.3,1.2C-101.3,3.4-101,3.5-100.7,3.5z"/>
		</g>
	</g>
	<g transform="translate(325.573329, 255.170511)">
		<g>
			<path class="st6" d="M-96,5.7h-3v-5.8c0-0.7,0-1.3,0-1.9c-0.2,0.2-0.4,0.5-0.7,0.7l-1.2,1l-1.5-1.9l3.7-3h2.6V5.7z"/>
		</g>
	</g>
</g>
<path class="st0" d="M110.3,122.4h26.8v26.8h-26.8V122.4"/>
<path class="st0" d="M110.3,149.3L110.3,149.3l-0.1-27h27v27H110.3 M110.4,122.5v26.6H137v-26.6H110.4"/>
<path class="st3" d="M112.2,124.3h23v23h-23V124.3"/>
<path class="st0" d="M160.2,122.4h26.8v26.8h-26.8V122.4"/>
<path class="st0" d="M160.2,149.3L160.2,149.3l-0.1-27h27v27H160.2 M160.3,122.5v26.6H187v-26.6H160.3"/>
<path class="st1" d="M162.1,124.3h23v23h-23V124.3"/>
<path class="st0" d="M208.8,122.4h26.8v26.8h-26.8V122.4"/>
<path class="st0" d="M208.8,149.3L208.8,149.3l-0.1-27h27v27H208.8 M208.9,122.5v26.6h26.6v-26.6H208.9"/>
<path class="st1" d="M210.7,124.3h23v23h-23V124.3"/>
<path class="st0" d="M135.1,122.4h26.8v26.8h-26.8V122.4"/>
<path class="st0" d="M135.1,149.3L135.1,149.3l-0.1-27h27v27H135.1 M135.2,122.5v26.6h26.6v-26.6H135.2"/>
<path class="st2" d="M137,124.3h23v23h-23V124.3"/>
<path class="st0" d="M185.1,122.4h26.8v26.8h-26.8V122.4"/>
<path class="st0" d="M185.1,149.3L185.1,149.3l-0.1-27h27v27H185.1 M185.2,122.5v26.6h26.6v-26.6H185.2"/>
<path class="st1" d="M187,124.3h23v23h-23V124.3"/>
<path class="st0" d="M233.6,122.4h26.8v26.8h-26.8V122.4"/>
<path class="st0" d="M233.6,149.3L233.6,149.3l-0.1-27h27v27H233.6 M233.7,122.5v26.6h26.6v-26.6H233.7"/>
<path class="st7" d="M235.5,124.3h23v23h-23V124.3"/>
<g>
	<g transform="translate(244.68405, 164.563003)">
		<g>
			<path class="st6" d="M-122-33c0,0.7-0.2,1.3-0.6,1.8c-0.4,0.5-1,0.8-1.8,1v0c1.8,0.2,2.7,1.1,2.7,2.6c0,1-0.4,1.8-1.2,2.4
				c-0.8,0.6-1.9,0.9-3.3,0.9c-0.6,0-1.1,0-1.6-0.1c-0.5-0.1-1-0.2-1.6-0.5v-2.4c0.5,0.2,0.9,0.4,1.4,0.5c0.5,0.1,1,0.2,1.4,0.2
				c0.7,0,1.1-0.1,1.4-0.3c0.3-0.2,0.4-0.5,0.4-0.9c0-0.3-0.1-0.5-0.2-0.7c-0.2-0.2-0.4-0.3-0.8-0.4c-0.3-0.1-0.8-0.1-1.3-0.1h-0.7
				v-2.2h0.7c1.5,0,2.2-0.4,2.2-1.1c0-0.3-0.1-0.5-0.3-0.6c-0.2-0.1-0.5-0.2-0.9-0.2c-0.7,0-1.4,0.2-2.2,0.7l-1.2-2
				c0.6-0.4,1.2-0.7,1.7-0.8c0.6-0.2,1.3-0.2,2.1-0.2c1.1,0,2,0.2,2.6,0.7C-122.3-34.4-122-33.8-122-33z"/>
		</g>
	</g>
	<g transform="translate(251.376806, 164.563003)">
		<g>
			<path class="st6" d="M-119.4-24.5h-7.9v-1.9l2.6-2.7c0.8-0.8,1.3-1.3,1.5-1.6c0.2-0.3,0.4-0.5,0.5-0.8c0.1-0.2,0.1-0.4,0.1-0.6
				c0-0.3-0.1-0.5-0.3-0.7c-0.2-0.2-0.4-0.2-0.8-0.2c-0.3,0-0.7,0.1-1,0.3c-0.3,0.2-0.7,0.5-1.2,0.9l-1.6-1.9c0.6-0.5,1-0.9,1.4-1.1
				c0.4-0.2,0.8-0.4,1.2-0.5c0.5-0.1,1-0.2,1.5-0.2c0.7,0,1.3,0.1,1.9,0.4c0.6,0.2,1,0.6,1.3,1c0.3,0.5,0.5,1,0.5,1.5
				c0,0.4-0.1,0.8-0.2,1.2c-0.1,0.4-0.3,0.7-0.5,1.1c-0.2,0.3-0.5,0.7-0.9,1.1c-0.4,0.4-1.1,1.1-2.4,2.2v0.1h4.1V-24.5z"/>
		</g>
	</g>
</g>
<g>
	<g transform="translate(263.321712, 164.563003)">
		<g>
			<path class="st6" d="M-115.4-24.5h-7.9v-1.9l2.6-2.7c0.8-0.8,1.3-1.3,1.5-1.6c0.2-0.3,0.4-0.5,0.5-0.8c0.1-0.2,0.1-0.4,0.1-0.6
				c0-0.3-0.1-0.5-0.3-0.7c-0.2-0.2-0.4-0.2-0.8-0.2c-0.3,0-0.7,0.1-1,0.3c-0.3,0.2-0.7,0.5-1.2,0.9l-1.6-1.9c0.6-0.5,1-0.9,1.4-1.1
				c0.4-0.2,0.8-0.4,1.2-0.5c0.5-0.1,1-0.2,1.5-0.2c0.7,0,1.3,0.1,1.9,0.4c0.6,0.2,1,0.6,1.3,1c0.3,0.5,0.5,1,0.5,1.5
				c0,0.4-0.1,0.8-0.2,1.2c-0.1,0.4-0.3,0.7-0.5,1.1c-0.2,0.3-0.5,0.7-0.9,1.1c-0.4,0.4-1.1,1.1-2.4,2.2v0.1h4.1V-24.5z"/>
		</g>
	</g>
	<g transform="translate(270.014468, 164.563003)">
		<g>
			<path class="st6" d="M-113.5-33c0,0.7-0.2,1.3-0.6,1.8c-0.4,0.5-1,0.8-1.8,1v0c1.8,0.2,2.7,1.1,2.7,2.6c0,1-0.4,1.8-1.2,2.4
				c-0.8,0.6-1.9,0.9-3.3,0.9c-0.6,0-1.1,0-1.6-0.1c-0.5-0.1-1-0.2-1.6-0.5v-2.4c0.5,0.2,0.9,0.4,1.4,0.5c0.5,0.1,1,0.2,1.4,0.2
				c0.7,0,1.1-0.1,1.4-0.3c0.3-0.2,0.4-0.5,0.4-0.9c0-0.3-0.1-0.5-0.2-0.7c-0.2-0.2-0.4-0.3-0.8-0.4c-0.3-0.1-0.8-0.1-1.3-0.1h-0.7
				v-2.2h0.7c1.5,0,2.2-0.4,2.2-1.1c0-0.3-0.1-0.5-0.3-0.6c-0.2-0.1-0.5-0.2-0.9-0.2c-0.7,0-1.4,0.2-2.2,0.7l-1.2-2
				c0.6-0.4,1.2-0.7,1.8-0.8c0.6-0.2,1.3-0.2,2.1-0.2c1.1,0,2,0.2,2.6,0.7C-113.9-34.4-113.5-33.8-113.5-33z"/>
		</g>
	</g>
</g>
<g>
	<g transform="translate(300.809714, 164.563003)">
		<g>
			<path class="st6" d="M-104.2-24.5h-3v-5.8c0-0.7,0-1.3,0-1.9c-0.2,0.2-0.4,0.5-0.7,0.7l-1.2,1l-1.5-1.9l3.7-3h2.6V-24.5z"/>
		</g>
	</g>
	<g transform="translate(307.50247, 164.563003)">
		<g>
			<path class="st6" d="M-104.5-35.5c1.1,0,2,0.2,2.7,0.7c0.6,0.5,1,1.1,1,2c0,0.6-0.2,1.1-0.5,1.5c-0.3,0.4-0.8,0.8-1.4,1.1
				c0.8,0.5,1.4,0.9,1.7,1.4c0.3,0.4,0.5,0.9,0.5,1.5c0,1-0.4,1.7-1.1,2.2c-0.7,0.5-1.7,0.8-2.9,0.8c-1.3,0-2.3-0.3-2.9-0.8
				c-0.7-0.5-1-1.3-1-2.2c0-0.6,0.2-1.2,0.5-1.6c0.3-0.4,0.8-0.8,1.5-1.2c-0.6-0.4-1-0.8-1.2-1.2c-0.3-0.4-0.4-0.9-0.4-1.5
				c0-0.8,0.3-1.5,1-1.9C-106.6-35.3-105.7-35.5-104.5-35.5z M-105.8-27.5c0,0.3,0.1,0.6,0.3,0.8c0.2,0.2,0.5,0.3,0.9,0.3
				c0.9,0,1.3-0.3,1.3-1c0-0.2-0.1-0.5-0.3-0.7c-0.2-0.2-0.5-0.5-1-0.8c-0.4,0.2-0.8,0.5-1,0.7C-105.7-28-105.8-27.7-105.8-27.5z
				 M-104.5-33.4c-0.2,0-0.5,0.1-0.6,0.2c-0.2,0.1-0.2,0.3-0.2,0.6c0,0.4,0.3,0.8,0.9,1.1c0.4-0.2,0.6-0.4,0.7-0.5
				c0.1-0.2,0.2-0.4,0.2-0.6c0-0.2-0.1-0.4-0.3-0.6C-104.1-33.3-104.3-33.4-104.5-33.4z"/>
		</g>
	</g>
</g>
<g>
	<g transform="translate(285.16609, 164.563003)">
		<g>
			<path class="st6" d="M-108-30.4c0,2.1-0.5,3.7-1.4,4.6c-0.9,0.9-2.4,1.4-4.4,1.4c-0.7,0-1.2,0-1.5-0.1v-2.3
				c0.4,0.1,0.9,0.1,1.3,0.1c1,0,1.8-0.2,2.4-0.6c0.6-0.4,0.9-1.1,0.9-2.1h-0.1c-0.2,0.3-0.4,0.6-0.6,0.8c-0.2,0.2-0.4,0.3-0.7,0.4
				c-0.3,0.1-0.6,0.1-1,0.1c-0.9,0-1.7-0.3-2.2-0.9c-0.5-0.6-0.8-1.5-0.8-2.6c0-1.2,0.3-2.2,1-2.8c0.7-0.7,1.6-1,2.8-1
				c1.3,0,2.3,0.4,3.1,1.3C-108.4-33.3-108-32-108-30.4z M-112.1-33.1c-0.3,0-0.6,0.1-0.8,0.4c-0.2,0.2-0.3,0.6-0.3,1.1
				c0,0.4,0.1,0.7,0.2,1c0.2,0.2,0.4,0.4,0.8,0.4c0.3,0,0.6-0.1,0.9-0.3c0.2-0.2,0.4-0.5,0.4-0.9c0-0.4-0.1-0.8-0.3-1.1
				C-111.5-33-111.8-33.1-112.1-33.1z"/>
		</g>
	</g>
</g>
<g>
	<g transform="translate(337.200734, 164.563003)">
		<g>
			<path class="st6" d="M-94.2-31.6c0.6,0,1.2,0.1,1.7,0.4c0.5,0.3,0.9,0.7,1.2,1.2c0.3,0.5,0.4,1.1,0.4,1.8c0,1.2-0.4,2.2-1.1,2.8
				c-0.7,0.6-1.8,1-3.3,1c-1.3,0-2.3-0.2-3.1-0.6v-2.4c0.4,0.2,0.9,0.4,1.5,0.5c0.5,0.1,1,0.2,1.4,0.2c0.5,0,1-0.1,1.2-0.3
				c0.3-0.2,0.4-0.6,0.4-1c0-0.4-0.1-0.7-0.4-1c-0.3-0.2-0.7-0.4-1.4-0.4c-0.5,0-1,0.1-1.5,0.2l-1.1-0.5l0.4-5.8h6.2v2.5h-3.7
				l-0.1,1.4c0.4-0.1,0.6-0.1,0.8-0.1C-94.5-31.6-94.3-31.6-94.2-31.6z"/>
		</g>
	</g>
	<g transform="translate(343.893489, 164.563003)">
		<g>
			<path class="st6" d="M-88.5-29.9c0,1.9-0.3,3.3-1,4.2c-0.6,0.9-1.6,1.3-3,1.3c-1.3,0-2.3-0.5-2.9-1.4c-0.7-0.9-1-2.3-1-4.2
				c0-1.9,0.3-3.3,1-4.2c0.7-0.9,1.6-1.4,3-1.4c1.3,0,2.3,0.5,2.9,1.4C-88.8-33.2-88.5-31.8-88.5-29.9z M-93.4-29.9
				c0,1.2,0.1,2.1,0.2,2.5c0.2,0.5,0.4,0.7,0.8,0.7c0.4,0,0.6-0.2,0.8-0.7c0.2-0.5,0.2-1.3,0.2-2.5c0-1.2-0.1-2.1-0.2-2.5
				c-0.2-0.5-0.4-0.7-0.8-0.7c-0.4,0-0.6,0.2-0.8,0.7C-93.4-32-93.4-31.2-93.4-29.9z"/>
		</g>
	</g>
</g>
<g>
	<g transform="translate(318.563046, 164.563003)">
		<g>
			<path class="st6" d="M-104.8-29.1c0-1.5,0.2-2.7,0.6-3.7c0.4-0.9,1.1-1.6,1.9-2.1c0.8-0.4,1.9-0.7,3.1-0.7c0.4,0,1,0,1.6,0.1v2.3
				c-0.5-0.1-1-0.1-1.6-0.1c-1,0-1.7,0.2-2.2,0.6c-0.5,0.4-0.8,1.1-0.8,2.1h0.1c0.4-0.8,1.2-1.3,2.1-1.3c1,0,1.7,0.3,2.2,0.9
				c0.5,0.6,0.8,1.5,0.8,2.6c0,1.2-0.3,2.1-1,2.8c-0.7,0.7-1.6,1-2.8,1c-1.3,0-2.3-0.4-3-1.2C-104.4-26.4-104.8-27.6-104.8-29.1z
				 M-100.8-26.7c0.3,0,0.6-0.1,0.8-0.3c0.2-0.2,0.3-0.6,0.3-1.1c0-0.9-0.3-1.3-1-1.3c-0.3,0-0.6,0.1-0.8,0.4
				c-0.2,0.2-0.3,0.5-0.3,0.8c0,0.5,0.1,0.9,0.3,1.2C-101.4-26.8-101.1-26.7-100.8-26.7z"/>
		</g>
	</g>
	<g transform="translate(325.255801, 164.563003)">
		<g>
			<path class="st6" d="M-96.1-24.5h-3v-5.8c0-0.7,0-1.3,0-1.9c-0.2,0.2-0.4,0.5-0.7,0.7l-1.2,1l-1.5-1.9l3.7-3h2.6V-24.5z"/>
		</g>
	</g>
</g>
<path class="st0" d="M110.3,365.6h26.8v26.8h-26.8V365.6"/>
<path class="st0" d="M110.3,392.5L110.3,392.5l-0.1-27h27v27H110.3 M110.4,365.7v26.6H137v-26.6H110.4"/>
<path class="st1" d="M112.2,367.5h23v23h-23V367.5"/>
<path class="st0" d="M160.2,365.6h26.8v26.8h-26.8V365.6"/>
<path class="st0" d="M160.2,392.5L160.2,392.5l-0.1-27h27v27H160.2 M160.3,365.7v26.6H187v-26.6H160.3"/>
<path class="st1" d="M162.1,367.5h23v23h-23V367.5"/>
<path class="st0" d="M208.8,365.6h26.8v26.8h-26.8V365.6"/>
<path class="st0" d="M208.8,392.5L208.8,392.5l-0.1-27h27v27H208.8 M208.9,365.7v26.6h26.6v-26.6H208.9"/>
<path class="st1" d="M210.7,367.5h23v23h-23V367.5"/>
<path class="st0" d="M135.1,365.6h26.8v26.8h-26.8V365.6"/>
<path class="st0" d="M135.1,392.5L135.1,392.5l-0.1-27h27v27H135.1 M135.2,365.7v26.6h26.6v-26.6H135.2"/>
<path class="st1" d="M137,367.5h23v23h-23V367.5"/>
<path class="st0" d="M185.1,365.6h26.8v26.8h-26.8V365.6"/>
<path class="st0" d="M185.1,392.5L185.1,392.5l-0.1-27h27v27H185.1 M185.2,365.7v26.6h26.6v-26.6H185.2"/>
<path class="st3" d="M187,367.5h23v23h-23V367.5"/>
<path class="st0" d="M233.6,365.6h26.8v26.8h-26.8V365.6"/>
<path class="st0" d="M233.6,392.5L233.6,392.5l-0.1-27h27v27H233.6 M233.7,365.7v26.6h26.6v-26.6H233.7"/>
<path class="st5" d="M235.5,367.5h23v23h-23V367.5"/>
<g>
	<g transform="translate(244.68405, 346.919287)">
		<g>
			<path class="st6" d="M-121.6,36.3h-7.9v-1.9l2.6-2.7c0.8-0.8,1.3-1.3,1.5-1.6c0.2-0.3,0.4-0.5,0.5-0.8c0.1-0.2,0.1-0.4,0.1-0.6
				c0-0.3-0.1-0.5-0.3-0.7c-0.2-0.2-0.4-0.2-0.8-0.2s-0.7,0.1-1,0.3c-0.3,0.2-0.7,0.5-1.2,0.9l-1.6-1.9c0.6-0.5,1-0.9,1.4-1.1
				c0.4-0.2,0.8-0.4,1.2-0.5c0.5-0.1,1-0.2,1.5-0.2c0.7,0,1.3,0.1,1.9,0.4c0.6,0.2,1,0.6,1.3,1c0.3,0.5,0.5,1,0.5,1.5
				c0,0.4-0.1,0.8-0.2,1.2c-0.1,0.4-0.3,0.7-0.5,1.1c-0.2,0.3-0.5,0.7-0.9,1.1c-0.4,0.4-1.1,1.1-2.4,2.2v0.1h4.1V36.3z"/>
		</g>
	</g>
	<g transform="translate(251.376806, 346.919287)">
		<g>
			<path class="st6" d="M-119.7,27.8c0,0.7-0.2,1.3-0.6,1.8c-0.4,0.5-1,0.8-1.8,1v0c1.8,0.2,2.7,1.1,2.7,2.6c0,1-0.4,1.8-1.2,2.4
				c-0.8,0.6-1.9,0.9-3.3,0.9c-0.6,0-1.1,0-1.6-0.1c-0.5-0.1-1-0.2-1.6-0.5v-2.4c0.5,0.2,0.9,0.4,1.4,0.5c0.5,0.1,1,0.2,1.4,0.2
				c0.7,0,1.1-0.1,1.4-0.3c0.3-0.2,0.4-0.5,0.4-0.9c0-0.3-0.1-0.5-0.2-0.7c-0.2-0.2-0.4-0.3-0.8-0.4c-0.3-0.1-0.8-0.1-1.3-0.1h-0.7
				v-2.2h0.7c1.5,0,2.2-0.4,2.2-1.1c0-0.3-0.1-0.5-0.3-0.6c-0.2-0.1-0.5-0.2-0.9-0.2c-0.7,0-1.4,0.2-2.2,0.7l-1.2-2
				c0.6-0.4,1.2-0.7,1.8-0.8c0.6-0.2,1.3-0.2,2.1-0.2c1.1,0,2,0.2,2.6,0.7C-120.1,26.4-119.7,27-119.7,27.8z"/>
		</g>
	</g>
</g>
<g>
	<g transform="translate(266.673818, 346.919287)">
		<g>
			<path class="st6" d="M-114.2,30.4c0,2.1-0.5,3.7-1.4,4.6c-0.9,0.9-2.4,1.4-4.4,1.4c-0.7,0-1.2,0-1.5-0.1V34
				c0.4,0.1,0.9,0.1,1.3,0.1c1,0,1.8-0.2,2.4-0.6c0.6-0.4,0.9-1.1,0.9-2.1h-0.1c-0.2,0.3-0.4,0.6-0.6,0.8c-0.2,0.2-0.4,0.3-0.7,0.4
				c-0.3,0.1-0.6,0.1-1,0.1c-0.9,0-1.7-0.3-2.2-0.9c-0.5-0.6-0.8-1.5-0.8-2.6c0-1.2,0.3-2.2,1-2.8c0.7-0.7,1.6-1,2.8-1
				c1.3,0,2.3,0.4,3.1,1.3C-114.6,27.5-114.2,28.8-114.2,30.4z M-118.3,27.7c-0.3,0-0.6,0.1-0.8,0.4c-0.2,0.2-0.3,0.6-0.3,1.1
				c0,0.4,0.1,0.7,0.2,1c0.2,0.2,0.4,0.4,0.8,0.4c0.3,0,0.6-0.1,0.9-0.3c0.2-0.2,0.4-0.5,0.4-0.9c0-0.4-0.1-0.8-0.3-1.1
				C-117.7,27.8-118,27.7-118.3,27.7z"/>
		</g>
	</g>
</g>
<g>
	<g transform="translate(300.809714, 346.919287)">
		<g>
			<path class="st6" d="M-103.3,27.8c0,0.7-0.2,1.3-0.6,1.8c-0.4,0.5-1,0.8-1.8,1v0c1.8,0.2,2.7,1.1,2.7,2.6c0,1-0.4,1.8-1.2,2.4
				c-0.8,0.6-1.9,0.9-3.3,0.9c-0.6,0-1.1,0-1.6-0.1c-0.5-0.1-1-0.2-1.6-0.5v-2.4c0.5,0.2,0.9,0.4,1.4,0.5c0.5,0.1,1,0.2,1.4,0.2
				c0.7,0,1.1-0.1,1.4-0.3c0.3-0.2,0.4-0.5,0.4-0.9c0-0.3-0.1-0.5-0.2-0.7c-0.2-0.2-0.4-0.3-0.8-0.4c-0.3-0.1-0.8-0.1-1.3-0.1h-0.7
				v-2.2h0.7c1.5,0,2.2-0.4,2.2-1.1c0-0.3-0.1-0.5-0.3-0.6c-0.2-0.1-0.5-0.2-0.9-0.2c-0.7,0-1.4,0.2-2.2,0.7l-1.2-2
				c0.6-0.4,1.2-0.7,1.8-0.8c0.6-0.2,1.3-0.2,2.1-0.2c1.1,0,2,0.2,2.6,0.7C-103.6,26.4-103.3,27-103.3,27.8z"/>
		</g>
	</g>
	<g transform="translate(307.50247, 346.919287)">
		<g>
			<path class="st6" d="M-100.7,36.3h-7.9v-1.9l2.6-2.7c0.8-0.8,1.3-1.3,1.5-1.6c0.2-0.3,0.4-0.5,0.5-0.8c0.1-0.2,0.1-0.4,0.1-0.6
				c0-0.3-0.1-0.5-0.3-0.7c-0.2-0.2-0.4-0.2-0.8-0.2s-0.7,0.1-1,0.3c-0.3,0.2-0.7,0.5-1.2,0.9l-1.6-1.9c0.6-0.5,1-0.9,1.4-1.1
				c0.4-0.2,0.8-0.4,1.2-0.5c0.5-0.1,1-0.2,1.5-0.2c0.7,0,1.3,0.1,1.9,0.4c0.6,0.2,1,0.6,1.3,1c0.3,0.5,0.5,1,0.5,1.5
				c0,0.4-0.1,0.8-0.2,1.2c-0.1,0.4-0.3,0.7-0.5,1.1c-0.2,0.3-0.5,0.7-0.9,1.1c-0.4,0.4-1.1,1.1-2.4,2.2v0.1h4.1V36.3z"/>
		</g>
	</g>
</g>
<g>
	<g transform="translate(281.813984, 346.919287)">
		<g>
			<path class="st6" d="M-110.6,36.3h-3v-5.8c0-0.7,0-1.3,0-1.9c-0.2,0.2-0.4,0.5-0.7,0.7l-1.2,1l-1.5-1.9l3.7-3h2.6V36.3z"/>
		</g>
	</g>
	<g transform="translate(288.50674, 346.919287)">
		<g>
			<path class="st6" d="M-110.8,25.3c1.1,0,2,0.2,2.7,0.7c0.6,0.5,1,1.1,1,2c0,0.6-0.2,1.1-0.5,1.5c-0.3,0.4-0.8,0.8-1.4,1.1
				c0.8,0.5,1.4,0.9,1.7,1.4c0.3,0.4,0.5,0.9,0.5,1.5c0,1-0.4,1.7-1.1,2.2c-0.7,0.5-1.7,0.8-2.9,0.8c-1.3,0-2.3-0.3-2.9-0.8
				c-0.7-0.5-1-1.3-1-2.2c0-0.6,0.2-1.2,0.5-1.6c0.3-0.4,0.8-0.8,1.5-1.2c-0.6-0.4-1-0.8-1.2-1.2c-0.3-0.4-0.4-0.9-0.4-1.5
				c0-0.8,0.3-1.5,1-1.9C-112.9,25.5-112,25.3-110.8,25.3z M-112.2,33.3c0,0.3,0.1,0.6,0.3,0.8c0.2,0.2,0.5,0.3,0.9,0.3
				c0.9,0,1.3-0.3,1.3-1c0-0.2-0.1-0.5-0.3-0.7c-0.2-0.2-0.5-0.5-1-0.8c-0.4,0.2-0.8,0.5-1,0.7C-112.1,32.8-112.2,33-112.2,33.3z
				 M-110.9,27.4c-0.2,0-0.5,0.1-0.6,0.2c-0.2,0.1-0.2,0.3-0.2,0.6c0,0.4,0.3,0.8,0.9,1.1c0.4-0.2,0.6-0.4,0.7-0.5
				c0.1-0.2,0.2-0.4,0.2-0.6c0-0.2-0.1-0.4-0.3-0.6C-110.4,27.4-110.6,27.4-110.9,27.4z"/>
		</g>
	</g>
</g>
<g>
	<g transform="translate(337.200734, 346.919287)">
		<g>
			<path class="st6" d="M-94.2,29.2c0.6,0,1.2,0.1,1.7,0.4s0.9,0.7,1.2,1.2c0.3,0.5,0.4,1.1,0.4,1.8c0,1.2-0.4,2.2-1.1,2.8
				c-0.7,0.6-1.8,1-3.3,1c-1.3,0-2.3-0.2-3.1-0.6v-2.4c0.4,0.2,0.9,0.4,1.5,0.5c0.5,0.1,1,0.2,1.4,0.2c0.5,0,1-0.1,1.2-0.3
				c0.3-0.2,0.4-0.6,0.4-1c0-0.4-0.1-0.7-0.4-1c-0.3-0.2-0.7-0.4-1.4-0.4c-0.5,0-1,0.1-1.5,0.2l-1.1-0.5l0.4-5.8h6.2v2.5h-3.7
				l-0.1,1.4c0.4-0.1,0.6-0.1,0.8-0.1C-94.5,29.2-94.3,29.2-94.2,29.2z"/>
		</g>
	</g>
	<g transform="translate(343.893489, 346.919287)">
		<g>
			<path class="st6" d="M-88.5,30.9c0,1.9-0.3,3.3-1,4.2c-0.6,0.9-1.6,1.3-3,1.3c-1.3,0-2.3-0.5-2.9-1.4c-0.7-0.9-1-2.3-1-4.2
				c0-1.9,0.3-3.3,1-4.2c0.7-0.9,1.6-1.4,3-1.4c1.3,0,2.3,0.5,2.9,1.4C-88.8,27.6-88.5,29-88.5,30.9z M-93.4,30.9
				c0,1.2,0.1,2.1,0.2,2.5c0.2,0.5,0.4,0.7,0.8,0.7c0.4,0,0.6-0.2,0.8-0.7c0.2-0.5,0.2-1.3,0.2-2.5c0-1.2-0.1-2.1-0.2-2.5
				c-0.2-0.5-0.4-0.7-0.8-0.7c-0.4,0-0.6,0.2-0.8,0.7C-93.4,28.8-93.4,29.6-93.4,30.9z"/>
		</g>
	</g>
</g>
<g>
	<g transform="translate(318.563046, 346.919287)">
		<g>
			<path class="st6" d="M-104.8,31.7c0-1.5,0.2-2.7,0.6-3.7c0.4-0.9,1.1-1.6,1.9-2.1c0.8-0.4,1.9-0.7,3.1-0.7c0.4,0,1,0,1.6,0.1v2.3
				c-0.5-0.1-1-0.1-1.6-0.1c-1,0-1.7,0.2-2.2,0.6c-0.5,0.4-0.8,1.1-0.8,2.1h0.1c0.4-0.8,1.2-1.3,2.1-1.3c1,0,1.7,0.3,2.2,0.9
				c0.5,0.6,0.8,1.5,0.8,2.6c0,1.2-0.3,2.1-1,2.8c-0.7,0.7-1.6,1-2.8,1c-1.3,0-2.3-0.4-3-1.2C-104.4,34.3-104.8,33.2-104.8,31.7z
				 M-100.8,34.1c0.3,0,0.6-0.1,0.8-0.3c0.2-0.2,0.3-0.6,0.3-1.1c0-0.9-0.3-1.3-1-1.3c-0.3,0-0.6,0.1-0.8,0.4
				c-0.2,0.2-0.3,0.5-0.3,0.8c0,0.5,0.1,0.9,0.3,1.2C-101.4,33.9-101.1,34.1-100.8,34.1z"/>
		</g>
	</g>
	<g transform="translate(325.255801, 346.919287)">
		<g>
			<path class="st6" d="M-96.1,36.3h-3v-5.8c0-0.7,0-1.3,0-1.9c-0.2,0.2-0.4,0.5-0.7,0.7l-1.2,1l-1.5-1.9l3.7-3h2.6V36.3z"/>
		</g>
	</g>
</g>
<path class="st0" d="M200,732.5h26.8v26.8H200V732.5"/>
<path class="st0" d="M200,759.4L200,759.4l-0.1-27h27v27H200 M200.1,732.6v26.6h26.6v-26.6H200.1"/>
<path class="st8" d="M201.9,734.4h23v23h-23V734.4"/>
<path class="st0" d="M249.9,732.5h26.8v26.8h-26.8V732.5"/>
<path class="st0" d="M249.9,759.4L249.9,759.4l-0.1-27h27v27H249.9 M250,732.6v26.6h26.6v-26.6H250"/>
<path class="st8" d="M251.8,734.4h23v23h-23V734.4"/>
<path class="st0" d="M298.5,732.5h26.8v26.8h-26.8V732.5"/>
<path class="st0" d="M298.5,759.4L298.5,759.4l-0.1-27h27v27H298.5 M298.6,732.6v26.6h26.6v-26.6H298.6"/>
<path class="st8" d="M300.4,734.4h23v23h-23V734.4"/>
<path class="st0" d="M224.8,732.5h26.8v26.8h-26.8V732.5"/>
<path class="st0" d="M224.8,759.4L224.8,759.4l-0.1-27h27v27H224.8 M224.9,732.6v26.6h26.6v-26.6H224.9"/>
<path class="st8" d="M226.7,734.4h23v23h-23V734.4"/>
<path class="st0" d="M274.8,732.5h26.8v26.8h-26.8V732.5"/>
<path class="st0" d="M274.8,759.4L274.8,759.4l-0.1-27h27v27H274.8 M274.9,732.6v26.6h26.6v-26.6H274.9"/>
<path class="st8" d="M276.7,734.4h23v23h-23V734.4"/>
<path class="st0" d="M323.3,732.5h26.8v26.8h-26.8V732.5"/>
<path class="st0" d="M323.3,759.4L323.3,759.4l-0.1-27h27v27H323.3 M323.4,732.6v26.6H350v-26.6H323.4"/>
<path class="st8" d="M325.2,734.4h23v23h-23V734.4"/>
<g>
	<g transform="translate(315.304108, 622.140209)">
		<g>
			<path class="st6" d="M-98,122.1c0,2.1-0.5,3.7-1.4,4.6c-0.9,0.9-2.4,1.4-4.4,1.4c-0.7,0-1.2,0-1.5-0.1v-2.3
				c0.4,0.1,0.9,0.1,1.3,0.1c1,0,1.8-0.2,2.4-0.6c0.6-0.4,0.9-1.1,0.9-2.1h-0.1c-0.2,0.3-0.4,0.6-0.6,0.8c-0.2,0.2-0.4,0.3-0.7,0.4
				c-0.3,0.1-0.6,0.1-1,0.1c-0.9,0-1.7-0.3-2.2-0.9c-0.5-0.6-0.8-1.5-0.8-2.6c0-1.2,0.3-2.2,1-2.8c0.7-0.7,1.6-1,2.8-1
				c1.3,0,2.3,0.4,3.1,1.3C-98.4,119.2-98,120.5-98,122.1z M-102.1,119.4c-0.3,0-0.6,0.1-0.8,0.4c-0.2,0.2-0.3,0.6-0.3,1.1
				c0,0.4,0.1,0.7,0.2,1c0.2,0.2,0.4,0.4,0.8,0.4c0.3,0,0.6-0.1,0.9-0.3c0.2-0.2,0.4-0.5,0.4-0.9c0-0.4-0.1-0.8-0.3-1.1
				C-101.5,119.6-101.7,119.4-102.1,119.4z"/>
		</g>
	</g>
</g>
<g>
	<g transform="translate(368.079417, 622.140209)">
		<g>
			<path class="st6" d="M-80.8,119.5c0,0.7-0.2,1.3-0.6,1.8c-0.4,0.5-1,0.8-1.8,1v0c1.8,0.2,2.7,1.1,2.7,2.6c0,1-0.4,1.8-1.2,2.4
				c-0.8,0.6-1.9,0.9-3.3,0.9c-0.6,0-1.1,0-1.6-0.1c-0.5-0.1-1-0.2-1.6-0.5v-2.4c0.5,0.2,0.9,0.4,1.4,0.5c0.5,0.1,1,0.2,1.4,0.2
				c0.7,0,1.1-0.1,1.4-0.3c0.3-0.2,0.4-0.5,0.4-0.9c0-0.3-0.1-0.5-0.2-0.7c-0.2-0.2-0.4-0.3-0.8-0.4c-0.3-0.1-0.8-0.1-1.3-0.1h-0.7
				v-2.2h0.7c1.5,0,2.2-0.4,2.2-1.1c0-0.3-0.1-0.5-0.3-0.6c-0.2-0.1-0.5-0.2-0.9-0.2c-0.7,0-1.4,0.2-2.2,0.7l-1.2-2
				c0.6-0.4,1.2-0.7,1.8-0.8c0.6-0.2,1.3-0.2,2.1-0.2c1.1,0,2,0.2,2.6,0.7C-81.2,118.1-80.8,118.7-80.8,119.5z"/>
		</g>
	</g>
	<g transform="translate(374.772173, 622.140209)">
		<g>
			<path class="st6" d="M-78.3,128h-7.9v-1.9l2.6-2.7c0.8-0.8,1.3-1.3,1.5-1.6c0.2-0.3,0.4-0.5,0.5-0.8c0.1-0.2,0.1-0.4,0.1-0.6
				c0-0.3-0.1-0.5-0.3-0.7c-0.2-0.2-0.4-0.2-0.8-0.2c-0.3,0-0.7,0.1-1,0.3c-0.3,0.2-0.7,0.5-1.2,0.9l-1.6-1.9c0.6-0.5,1-0.9,1.4-1.1
				c0.4-0.2,0.8-0.4,1.2-0.5c0.5-0.1,1-0.2,1.5-0.2c0.7,0,1.3,0.1,1.9,0.4c0.6,0.2,1,0.6,1.3,1c0.3,0.5,0.5,1,0.5,1.5
				c0,0.4-0.1,0.8-0.2,1.2c-0.1,0.4-0.3,0.7-0.5,1.1c-0.2,0.3-0.5,0.7-0.9,1.1c-0.4,0.4-1.1,1.1-2.4,2.2v0.1h4.1V128z"/>
		</g>
	</g>
</g>
<g>
	<g transform="translate(349.083687, 622.140209)">
		<g>
			<path class="st6" d="M-86.8,128h-7.9v-1.9l2.6-2.7c0.8-0.8,1.3-1.3,1.5-1.6c0.2-0.3,0.4-0.5,0.5-0.8c0.1-0.2,0.1-0.4,0.1-0.6
				c0-0.3-0.1-0.5-0.3-0.7c-0.2-0.2-0.4-0.2-0.8-0.2s-0.7,0.1-1,0.3c-0.3,0.2-0.7,0.5-1.2,0.9l-1.6-1.9c0.6-0.5,1-0.9,1.4-1.1
				c0.4-0.2,0.8-0.4,1.2-0.5c0.5-0.1,1-0.2,1.5-0.2c0.7,0,1.3,0.1,1.9,0.4c0.6,0.2,1,0.6,1.3,1c0.3,0.5,0.5,1,0.5,1.5
				c0,0.4-0.1,0.8-0.2,1.2c-0.1,0.4-0.3,0.7-0.5,1.1c-0.2,0.3-0.5,0.7-0.9,1.1c-0.4,0.4-1.1,1.1-2.4,2.2v0.1h4.1V128z"/>
		</g>
	</g>
	<g transform="translate(355.776443, 622.140209)">
		<g>
			<path class="st6" d="M-84.9,119.5c0,0.7-0.2,1.3-0.6,1.8c-0.4,0.5-1,0.8-1.8,1v0c1.8,0.2,2.7,1.1,2.7,2.6c0,1-0.4,1.8-1.2,2.4
				c-0.8,0.6-1.9,0.9-3.3,0.9c-0.6,0-1.1,0-1.6-0.1c-0.5-0.1-1-0.2-1.6-0.5v-2.4c0.5,0.2,0.9,0.4,1.4,0.5c0.5,0.1,1,0.2,1.4,0.2
				c0.7,0,1.1-0.1,1.4-0.3c0.3-0.2,0.4-0.5,0.4-0.9c0-0.3-0.1-0.5-0.2-0.7c-0.2-0.2-0.4-0.3-0.8-0.4c-0.3-0.1-0.8-0.1-1.3-0.1h-0.7
				v-2.2h0.7c1.5,0,2.2-0.4,2.2-1.1c0-0.3-0.1-0.5-0.3-0.6c-0.2-0.1-0.5-0.2-0.9-0.2c-0.7,0-1.4,0.2-2.2,0.7l-1.2-2
				c0.6-0.4,1.2-0.7,1.8-0.8c0.6-0.2,1.3-0.2,2.1-0.2c1.1,0,2,0.2,2.6,0.7C-85.3,118.1-84.9,118.7-84.9,119.5z"/>
		</g>
	</g>
</g>
<g>
	<g transform="translate(330.591415, 622.140209)">
		<g>
			<path class="st6" d="M-94.3,128h-3v-5.8c0-0.7,0-1.3,0-1.9c-0.2,0.2-0.4,0.5-0.7,0.7l-1.2,1l-1.5-1.9l3.7-3h2.6V128z"/>
		</g>
	</g>
	<g transform="translate(337.284171, 622.140209)">
		<g>
			<path class="st6" d="M-94.6,117c1.1,0,2,0.2,2.7,0.7c0.6,0.5,1,1.1,1,2c0,0.6-0.2,1.1-0.5,1.5c-0.3,0.4-0.8,0.8-1.4,1.1
				c0.8,0.5,1.4,0.9,1.7,1.4c0.3,0.4,0.5,0.9,0.5,1.5c0,1-0.4,1.7-1.1,2.2c-0.7,0.5-1.7,0.8-2.9,0.8c-1.3,0-2.3-0.3-2.9-0.8
				c-0.7-0.5-1-1.3-1-2.2c0-0.6,0.2-1.2,0.5-1.6c0.3-0.4,0.8-0.8,1.5-1.2c-0.6-0.4-1-0.8-1.2-1.2c-0.3-0.4-0.4-0.9-0.4-1.5
				c0-0.8,0.3-1.5,1-1.9C-96.6,117.2-95.7,117-94.6,117z M-95.9,125c0,0.3,0.1,0.6,0.3,0.8c0.2,0.2,0.5,0.3,0.9,0.3
				c0.9,0,1.3-0.3,1.3-1c0-0.2-0.1-0.5-0.3-0.7c-0.2-0.2-0.5-0.5-1-0.8c-0.4,0.2-0.8,0.5-1,0.7C-95.8,124.5-95.9,124.8-95.9,125z
				 M-94.6,119.1c-0.2,0-0.5,0.1-0.6,0.2c-0.2,0.1-0.2,0.3-0.2,0.6c0,0.4,0.3,0.8,0.9,1.1c0.4-0.2,0.6-0.4,0.7-0.5s0.2-0.4,0.2-0.6
				c0-0.2-0.1-0.4-0.3-0.6C-94.2,119.2-94.4,119.1-94.6,119.1z"/>
		</g>
	</g>
</g>
<g>
	<g transform="translate(404.470413, 622.140209)">
		<g>
			<path class="st6" d="M-76.2,123.4c0-1.5,0.2-2.7,0.6-3.7c0.4-0.9,1.1-1.6,1.9-2.1c0.8-0.4,1.9-0.7,3.1-0.7c0.4,0,1,0,1.6,0.1v2.3
				c-0.5-0.1-1-0.1-1.6-0.1c-1,0-1.7,0.2-2.2,0.6c-0.5,0.4-0.8,1.1-0.8,2.1h0.1c0.4-0.8,1.2-1.3,2.1-1.3c1,0,1.7,0.3,2.2,0.9
				c0.5,0.6,0.8,1.5,0.8,2.6c0,1.2-0.3,2.1-1,2.8c-0.7,0.7-1.6,1-2.8,1c-1.3,0-2.3-0.4-3-1.2C-75.8,126.1-76.2,124.9-76.2,123.4z
				 M-72.2,125.8c0.3,0,0.6-0.1,0.8-0.3c0.2-0.2,0.3-0.6,0.3-1.1c0-0.9-0.3-1.3-1-1.3c-0.3,0-0.6,0.1-0.8,0.4
				c-0.2,0.2-0.3,0.5-0.3,0.8c0,0.5,0.1,0.9,0.3,1.2C-72.7,125.7-72.5,125.8-72.2,125.8z"/>
		</g>
	</g>
	<g transform="translate(411.163169, 622.140209)">
		<g>
			<path class="st6" d="M-67.5,128h-3v-5.8c0-0.7,0-1.3,0-1.9c-0.2,0.2-0.4,0.5-0.7,0.7l-1.2,1l-1.5-1.9l3.7-3h2.6V128z"/>
		</g>
	</g>
</g>
<g>
	<g transform="translate(385.832778, 622.140209)">
		<g>
			<path class="st6" d="M-78,120.9c0.6,0,1.2,0.1,1.7,0.4c0.5,0.3,0.9,0.7,1.2,1.2c0.3,0.5,0.4,1.1,0.4,1.8c0,1.2-0.4,2.2-1.1,2.8
				c-0.7,0.6-1.8,1-3.3,1c-1.3,0-2.3-0.2-3.1-0.6v-2.4c0.4,0.2,0.9,0.4,1.5,0.5s1,0.2,1.4,0.2c0.5,0,1-0.1,1.2-0.3
				c0.3-0.2,0.4-0.6,0.4-1c0-0.4-0.1-0.7-0.4-1c-0.3-0.2-0.7-0.4-1.4-0.4c-0.5,0-1,0.1-1.5,0.2l-1.1-0.5l0.4-5.8h6.2v2.5h-3.7
				l-0.1,1.4c0.4-0.1,0.6-0.1,0.8-0.1C-78.3,120.9-78.1,120.9-78,120.9z"/>
		</g>
	</g>
	<g transform="translate(392.525534, 622.140209)">
		<g>
			<path class="st6" d="M-72.3,122.6c0,1.9-0.3,3.3-1,4.2c-0.6,0.9-1.6,1.3-3,1.3c-1.3,0-2.3-0.5-2.9-1.4c-0.7-0.9-1-2.3-1-4.2
				c0-1.9,0.3-3.3,1-4.2c0.7-0.9,1.6-1.4,3-1.4c1.3,0,2.3,0.5,2.9,1.4C-72.6,119.3-72.3,120.7-72.3,122.6z M-77.2,122.6
				c0,1.2,0.1,2.1,0.2,2.5c0.2,0.5,0.4,0.7,0.8,0.7c0.4,0,0.6-0.2,0.8-0.7c0.2-0.5,0.2-1.3,0.2-2.5c0-1.2-0.1-2.1-0.2-2.5
				c-0.2-0.5-0.4-0.7-0.8-0.7c-0.4,0-0.6,0.2-0.8,0.7C-77.1,120.5-77.2,121.4-77.2,122.6z"/>
		</g>
	</g>
</g>
<path class="st0" d="M110.3,60.5h26.8v26.8h-26.8V60.5"/>
<path class="st0" d="M110.3,87.4L110.3,87.4l-0.1-27h27v27H110.3 M110.4,60.6v26.6H137V60.6H110.4"/>
<path class="st7" d="M112.2,62.4h23v23h-23V62.4"/>
<path class="st0" d="M160.2,60.5h26.8v26.8h-26.8V60.5"/>
<path class="st0" d="M160.2,87.4L160.2,87.4l-0.1-27h27v27H160.2 M160.3,60.6v26.6H187V60.6H160.3"/>
<path class="st1" d="M162.1,62.4h23v23h-23V62.4"/>
<path class="st0" d="M208.8,60.5h26.8v26.8h-26.8V60.5"/>
<path class="st0" d="M208.8,87.4L208.8,87.4l-0.1-27h27v27H208.8 M208.9,60.6v26.6h26.6V60.6H208.9"/>
<path class="st1" d="M210.7,62.4h23v23h-23V62.4"/>
<path class="st0" d="M135.1,60.5h26.8v26.8h-26.8V60.5"/>
<path class="st0" d="M135.1,87.4L135.1,87.4l-0.1-27h27v27H135.1 M135.2,60.6v26.6h26.6V60.6H135.2"/>
<path class="st1" d="M137,62.4h23v23h-23V62.4"/>
<path class="st0" d="M185.1,60.5h26.8v26.8h-26.8V60.5"/>
<path class="st0" d="M185.1,87.4L185.1,87.4l-0.1-27h27v27H185.1 M185.2,60.6v26.6h26.6V60.6H185.2"/>
<path class="st1" d="M187,62.4h23v23h-23V62.4"/>
<path class="st0" d="M233.6,60.5h26.8v26.8h-26.8V60.5"/>
<path class="st0" d="M233.6,87.4L233.6,87.4l-0.1-27h27v27H233.6 M233.7,60.6v26.6h26.6V60.6H233.7"/>
<path class="st3" d="M235.5,62.4h23v23h-23V62.4"/>
<g>
	<g transform="translate(244.68405, 118.092857)">
		<g>
			<path class="st6" d="M-125-47.1c0.6,0,1.2,0.1,1.7,0.4c0.5,0.3,0.9,0.7,1.2,1.2c0.3,0.5,0.4,1.1,0.4,1.8c0,1.2-0.4,2.2-1.1,2.8
				c-0.7,0.6-1.8,1-3.3,1c-1.3,0-2.3-0.2-3.1-0.6v-2.4c0.4,0.2,0.9,0.4,1.5,0.5s1,0.2,1.4,0.2c0.5,0,1-0.1,1.2-0.3
				c0.3-0.2,0.4-0.6,0.4-1c0-0.4-0.1-0.7-0.4-1c-0.3-0.2-0.7-0.4-1.4-0.4c-0.5,0-1,0.1-1.5,0.2l-1.1-0.5l0.4-5.8h6.2v2.5h-3.7
				l-0.1,1.4c0.4-0.1,0.6-0.1,0.8-0.1C-125.3-47.1-125.2-47.1-125-47.1z"/>
		</g>
	</g>
	<g transform="translate(251.376806, 118.092857)">
		<g>
			<path class="st6" d="M-119.3-45.4c0,1.9-0.3,3.3-1,4.2c-0.6,0.9-1.6,1.3-3,1.3c-1.3,0-2.3-0.5-2.9-1.4c-0.7-0.9-1-2.3-1-4.2
				c0-1.9,0.3-3.3,1-4.2c0.7-0.9,1.6-1.4,3-1.4c1.3,0,2.3,0.5,2.9,1.4C-119.7-48.7-119.3-47.3-119.3-45.4z M-124.3-45.4
				c0,1.2,0.1,2.1,0.2,2.5c0.2,0.5,0.4,0.7,0.8,0.7c0.4,0,0.6-0.2,0.8-0.7c0.2-0.5,0.2-1.3,0.2-2.5c0-1.2-0.1-2.1-0.2-2.5
				c-0.2-0.5-0.4-0.7-0.8-0.7c-0.4,0-0.6,0.2-0.8,0.7C-124.2-47.5-124.3-46.7-124.3-45.4z"/>
		</g>
	</g>
</g>
<g>
	<g transform="translate(263.321712, 118.092857)">
		<g>
			<path class="st6" d="M-115.4-40h-7.9v-1.9l2.6-2.7c0.8-0.8,1.3-1.3,1.5-1.6c0.2-0.3,0.4-0.5,0.5-0.8c0.1-0.2,0.1-0.4,0.1-0.6
				c0-0.3-0.1-0.5-0.3-0.7c-0.2-0.2-0.4-0.2-0.8-0.2c-0.3,0-0.7,0.1-1,0.3c-0.3,0.2-0.7,0.5-1.2,0.9l-1.6-1.9c0.6-0.5,1-0.9,1.4-1.1
				c0.4-0.2,0.8-0.4,1.2-0.5c0.5-0.1,1-0.2,1.5-0.2c0.7,0,1.3,0.1,1.9,0.4c0.6,0.2,1,0.6,1.3,1c0.3,0.5,0.5,1,0.5,1.5
				c0,0.4-0.1,0.8-0.2,1.2c-0.1,0.4-0.3,0.7-0.5,1.1c-0.2,0.3-0.5,0.7-0.9,1.1c-0.4,0.4-1.1,1.1-2.4,2.2v0.1h4.1V-40z"/>
		</g>
	</g>
	<g transform="translate(270.014468, 118.092857)">
		<g>
			<path class="st6" d="M-113.5-48.5c0,0.7-0.2,1.3-0.6,1.8c-0.4,0.5-1,0.8-1.8,1v0c1.8,0.2,2.7,1.1,2.7,2.6c0,1-0.4,1.8-1.2,2.4
				c-0.8,0.6-1.9,0.9-3.3,0.9c-0.6,0-1.1,0-1.6-0.1c-0.5-0.1-1-0.2-1.6-0.5v-2.4c0.5,0.2,0.9,0.4,1.4,0.5c0.5,0.1,1,0.2,1.4,0.2
				c0.7,0,1.1-0.1,1.4-0.3c0.3-0.2,0.4-0.5,0.4-0.9c0-0.3-0.1-0.5-0.2-0.7c-0.2-0.2-0.4-0.3-0.8-0.4c-0.3-0.1-0.8-0.1-1.3-0.1h-0.7
				v-2.2h0.7c1.5,0,2.2-0.4,2.2-1.1c0-0.3-0.1-0.5-0.3-0.6c-0.2-0.1-0.5-0.2-0.9-0.2c-0.7,0-1.4,0.2-2.2,0.7l-1.2-2
				c0.6-0.4,1.2-0.7,1.8-0.8c0.6-0.2,1.3-0.2,2.1-0.2c1.1,0,2,0.2,2.6,0.7C-113.9-49.9-113.5-49.3-113.5-48.5z"/>
		</g>
	</g>
</g>
<g>
	<g transform="translate(300.809714, 118.092857)">
		<g>
			<path class="st6" d="M-104.2-40h-3v-5.8c0-0.7,0-1.3,0-1.9c-0.2,0.2-0.4,0.5-0.7,0.7l-1.2,1l-1.5-1.9l3.7-3h2.6V-40z"/>
		</g>
	</g>
	<g transform="translate(307.50247, 118.092857)">
		<g>
			<path class="st6" d="M-104.5-51c1.1,0,2,0.2,2.7,0.7c0.6,0.5,1,1.1,1,2c0,0.6-0.2,1.1-0.5,1.5c-0.3,0.4-0.8,0.8-1.4,1.1
				c0.8,0.5,1.4,0.9,1.7,1.4c0.3,0.4,0.5,0.9,0.5,1.5c0,1-0.4,1.7-1.1,2.2c-0.7,0.5-1.7,0.8-2.9,0.8c-1.3,0-2.3-0.3-2.9-0.8
				c-0.7-0.5-1-1.3-1-2.2c0-0.6,0.2-1.2,0.5-1.6c0.3-0.4,0.8-0.8,1.5-1.2c-0.6-0.4-1-0.8-1.2-1.2c-0.3-0.4-0.4-0.9-0.4-1.5
				c0-0.8,0.3-1.5,1-1.9C-106.6-50.8-105.7-51-104.5-51z M-105.8-43c0,0.3,0.1,0.6,0.3,0.8c0.2,0.2,0.5,0.3,0.9,0.3
				c0.9,0,1.3-0.3,1.3-1c0-0.2-0.1-0.5-0.3-0.7c-0.2-0.2-0.5-0.5-1-0.8c-0.4,0.2-0.8,0.5-1,0.7C-105.7-43.5-105.8-43.2-105.8-43z
				 M-104.5-48.9c-0.2,0-0.5,0.1-0.6,0.2c-0.2,0.1-0.2,0.3-0.2,0.6c0,0.4,0.3,0.8,0.9,1.1c0.4-0.2,0.6-0.4,0.7-0.5s0.2-0.4,0.2-0.6
				c0-0.2-0.1-0.4-0.3-0.6C-104.1-48.8-104.3-48.9-104.5-48.9z"/>
		</g>
	</g>
</g>
<g>
	<g transform="translate(285.16609, 118.092857)">
		<g>
			<path class="st6" d="M-108-45.9c0,2.1-0.5,3.7-1.4,4.6c-0.9,0.9-2.4,1.4-4.4,1.4c-0.7,0-1.2,0-1.5-0.1v-2.3
				c0.4,0.1,0.9,0.1,1.3,0.1c1,0,1.8-0.2,2.4-0.6c0.6-0.4,0.9-1.1,0.9-2.1h-0.1c-0.2,0.3-0.4,0.6-0.6,0.8c-0.2,0.2-0.4,0.3-0.7,0.4
				c-0.3,0.1-0.6,0.1-1,0.1c-0.9,0-1.7-0.3-2.2-0.9c-0.5-0.6-0.8-1.5-0.8-2.6c0-1.2,0.3-2.2,1-2.8c0.7-0.7,1.6-1,2.8-1
				c1.3,0,2.3,0.4,3.1,1.3C-108.4-48.8-108-47.5-108-45.9z M-112.1-48.6c-0.3,0-0.6,0.1-0.8,0.4c-0.2,0.2-0.3,0.6-0.3,1.1
				c0,0.4,0.1,0.7,0.2,1c0.2,0.2,0.4,0.4,0.8,0.4c0.3,0,0.6-0.1,0.9-0.3c0.2-0.2,0.4-0.5,0.4-0.9c0-0.4-0.1-0.8-0.3-1.1
				C-111.5-48.5-111.8-48.6-112.1-48.6z"/>
		</g>
	</g>
</g>
<g>
	<g transform="translate(337.200734, 118.092857)">
		<g>
			<path class="st6" d="M-91.1-48.5c0,0.7-0.2,1.3-0.6,1.8c-0.4,0.5-1,0.8-1.8,1v0c1.8,0.2,2.7,1.1,2.7,2.6c0,1-0.4,1.8-1.2,2.4
				c-0.8,0.6-1.9,0.9-3.3,0.9c-0.6,0-1.1,0-1.6-0.1c-0.5-0.1-1-0.2-1.6-0.5v-2.4c0.5,0.2,0.9,0.4,1.4,0.5c0.5,0.1,1,0.2,1.4,0.2
				c0.7,0,1.1-0.1,1.4-0.3c0.3-0.2,0.4-0.5,0.4-0.9c0-0.3-0.1-0.5-0.2-0.7c-0.2-0.2-0.4-0.3-0.8-0.4c-0.3-0.1-0.8-0.1-1.3-0.1h-0.7
				v-2.2h0.7c1.5,0,2.2-0.4,2.2-1.1c0-0.3-0.1-0.5-0.3-0.6c-0.2-0.1-0.5-0.2-0.9-0.2c-0.7,0-1.4,0.2-2.2,0.7l-1.2-2
				c0.6-0.4,1.2-0.7,1.8-0.8c0.6-0.2,1.3-0.2,2.1-0.2c1.1,0,2,0.2,2.6,0.7C-91.5-49.9-91.1-49.3-91.1-48.5z"/>
		</g>
	</g>
	<g transform="translate(343.893489, 118.092857)">
		<g>
			<path class="st6" d="M-88.6-40h-7.9v-1.9l2.6-2.7c0.8-0.8,1.3-1.3,1.5-1.6c0.2-0.3,0.4-0.5,0.5-0.8c0.1-0.2,0.1-0.4,0.1-0.6
				c0-0.3-0.1-0.5-0.3-0.7c-0.2-0.2-0.4-0.2-0.8-0.2c-0.3,0-0.7,0.1-1,0.3c-0.3,0.2-0.7,0.5-1.2,0.9l-1.6-1.9c0.6-0.5,1-0.9,1.4-1.1
				c0.4-0.2,0.8-0.4,1.2-0.5c0.5-0.1,1-0.2,1.5-0.2c0.7,0,1.3,0.1,1.9,0.4c0.6,0.2,1,0.6,1.3,1c0.3,0.5,0.5,1,0.5,1.5
				c0,0.4-0.1,0.8-0.2,1.2c-0.1,0.4-0.3,0.7-0.5,1.1c-0.2,0.3-0.5,0.7-0.9,1.1c-0.4,0.4-1.1,1.1-2.4,2.2v0.1h4.1V-40z"/>
		</g>
	</g>
</g>
<g>
	<g transform="translate(318.563046, 118.092857)">
		<g>
			<path class="st6" d="M-104.8-44.6c0-1.5,0.2-2.7,0.6-3.7c0.4-0.9,1.1-1.6,1.9-2.1c0.8-0.4,1.9-0.7,3.1-0.7c0.4,0,1,0,1.6,0.1v2.3
				c-0.5-0.1-1-0.1-1.6-0.1c-1,0-1.7,0.2-2.2,0.6c-0.5,0.4-0.8,1.1-0.8,2.1h0.1c0.4-0.8,1.2-1.3,2.1-1.3c1,0,1.7,0.3,2.2,0.9
				c0.5,0.6,0.8,1.5,0.8,2.6c0,1.2-0.3,2.1-1,2.8c-0.7,0.7-1.6,1-2.8,1c-1.3,0-2.3-0.4-3-1.2C-104.4-41.9-104.8-43.1-104.8-44.6z
				 M-100.8-42.2c0.3,0,0.6-0.1,0.8-0.3c0.2-0.2,0.3-0.6,0.3-1.1c0-0.9-0.3-1.3-1-1.3c-0.3,0-0.6,0.1-0.8,0.4
				c-0.2,0.2-0.3,0.5-0.3,0.8c0,0.5,0.1,0.9,0.3,1.2C-101.4-42.3-101.1-42.2-100.8-42.2z"/>
		</g>
	</g>
	<g transform="translate(325.255801, 118.092857)">
		<g>
			<path class="st6" d="M-96.1-40h-3v-5.8c0-0.7,0-1.3,0-1.9c-0.2,0.2-0.4,0.5-0.7,0.7l-1.2,1l-1.5-1.9l3.7-3h2.6V-40z"/>
		</g>
	</g>
</g>
<path class="st0" d="M110.3,303.6h26.8v26.8h-26.8V303.6"/>
<path class="st0" d="M110.3,330.5L110.3,330.5l-0.1-27h27v27H110.3 M110.4,303.7v26.6H137v-26.6H110.4"/>
<path class="st1" d="M112.2,305.5h23v23h-23V305.5"/>
<path class="st0" d="M160.2,303.6h26.8v26.8h-26.8V303.6"/>
<path class="st0" d="M160.2,330.5L160.2,330.5l-0.1-27h27v27H160.2 M160.3,303.7v26.6H187v-26.6H160.3"/>
<path class="st1" d="M162.1,305.5h23v23h-23V305.5"/>
<path class="st0" d="M208.8,303.6h26.8v26.8h-26.8V303.6"/>
<path class="st0" d="M208.8,330.5L208.8,330.5l-0.1-27h27v27H208.8 M208.9,303.7v26.6h26.6v-26.6H208.9"/>
<path class="st2" d="M210.7,305.5h23v23h-23V305.5"/>
<path class="st0" d="M135.1,303.6h26.8v26.8h-26.8V303.6"/>
<path class="st0" d="M135.1,330.5L135.1,330.5l-0.1-27h27v27H135.1 M135.2,303.7v26.6h26.6v-26.6H135.2"/>
<path class="st1" d="M137,305.5h23v23h-23V305.5"/>
<path class="st0" d="M185.1,303.6h26.8v26.8h-26.8V303.6"/>
<path class="st0" d="M185.1,330.5L185.1,330.5l-0.1-27h27v27H185.1 M185.2,303.7v26.6h26.6v-26.6H185.2"/>
<path class="st3" d="M187,305.5h23v23h-23V305.5"/>
<path class="st0" d="M233.6,303.6h26.8v26.8h-26.8V303.6"/>
<path class="st0" d="M233.6,330.5L233.6,330.5l-0.1-27h27v27H233.6 M233.7,303.7v26.6h26.6v-26.6H233.7"/>
<path class="st7" d="M235.5,305.5h23v23h-23V305.5"/>
<g>
	<g transform="translate(244.68405, 300.449129)">
		<g>
			<path class="st6" d="M-121.6,20.8h-7.9v-1.9l2.6-2.7c0.8-0.8,1.3-1.3,1.5-1.6c0.2-0.3,0.4-0.5,0.5-0.8c0.1-0.2,0.1-0.4,0.1-0.6
				c0-0.3-0.1-0.5-0.3-0.7c-0.2-0.2-0.4-0.2-0.8-0.2s-0.7,0.1-1,0.3c-0.3,0.2-0.7,0.5-1.2,0.9l-1.6-1.9c0.6-0.5,1-0.9,1.4-1.1
				c0.4-0.2,0.8-0.4,1.2-0.5c0.5-0.1,1-0.2,1.5-0.2c0.7,0,1.3,0.1,1.9,0.4c0.6,0.2,1,0.6,1.3,1c0.3,0.5,0.5,1,0.5,1.5
				c0,0.4-0.1,0.8-0.2,1.2c-0.1,0.4-0.3,0.7-0.5,1.1c-0.2,0.3-0.5,0.7-0.9,1.1c-0.4,0.4-1.1,1.1-2.4,2.2v0.1h4.1V20.8z"/>
		</g>
	</g>
	<g transform="translate(251.376806, 300.449129)">
		<g>
			<path class="st6" d="M-119.7,12.3c0,0.7-0.2,1.3-0.6,1.8c-0.4,0.5-1,0.8-1.8,1v0c1.8,0.2,2.7,1.1,2.7,2.6c0,1-0.4,1.8-1.2,2.4
				c-0.8,0.6-1.9,0.9-3.3,0.9c-0.6,0-1.1,0-1.6-0.1c-0.5-0.1-1-0.2-1.6-0.5v-2.4c0.5,0.2,0.9,0.4,1.4,0.5c0.5,0.1,1,0.2,1.4,0.2
				c0.7,0,1.1-0.1,1.4-0.3c0.3-0.2,0.4-0.5,0.4-0.9c0-0.3-0.1-0.5-0.2-0.7c-0.2-0.2-0.4-0.3-0.8-0.4c-0.3-0.1-0.8-0.1-1.3-0.1h-0.7
				v-2.2h0.7c1.5,0,2.2-0.4,2.2-1.1c0-0.3-0.1-0.5-0.3-0.6c-0.2-0.1-0.5-0.2-0.9-0.2c-0.7,0-1.4,0.2-2.2,0.7l-1.2-2
				c0.6-0.4,1.2-0.7,1.8-0.8c0.6-0.2,1.3-0.2,2.1-0.2c1.1,0,2,0.2,2.6,0.7C-120.1,10.9-119.7,11.5-119.7,12.3z"/>
		</g>
	</g>
</g>
<g>
	<g transform="translate(266.673818, 300.449129)">
		<g>
			<path class="st6" d="M-114.2,14.9c0,2.1-0.5,3.7-1.4,4.6c-0.9,0.9-2.4,1.4-4.4,1.4c-0.7,0-1.2,0-1.5-0.1v-2.3
				c0.4,0.1,0.9,0.1,1.3,0.1c1,0,1.8-0.2,2.4-0.6c0.6-0.4,0.9-1.1,0.9-2.1h-0.1c-0.2,0.3-0.4,0.6-0.6,0.8c-0.2,0.2-0.4,0.3-0.7,0.4
				c-0.3,0.1-0.6,0.1-1,0.1c-0.9,0-1.7-0.3-2.2-0.9c-0.5-0.6-0.8-1.5-0.8-2.6c0-1.2,0.3-2.2,1-2.8c0.7-0.7,1.6-1,2.8-1
				c1.3,0,2.3,0.4,3.1,1.3C-114.6,12-114.2,13.3-114.2,14.9z M-118.3,12.2c-0.3,0-0.6,0.1-0.8,0.4c-0.2,0.2-0.3,0.6-0.3,1.1
				c0,0.4,0.1,0.7,0.2,1c0.2,0.2,0.4,0.4,0.8,0.4c0.3,0,0.6-0.1,0.9-0.3c0.2-0.2,0.4-0.5,0.4-0.9c0-0.4-0.1-0.8-0.3-1.1
				C-117.7,12.3-118,12.2-118.3,12.2z"/>
		</g>
	</g>
</g>
<g>
	<g transform="translate(300.809714, 300.449129)">
		<g>
			<path class="st6" d="M-103.3,12.3c0,0.7-0.2,1.3-0.6,1.8c-0.4,0.5-1,0.8-1.8,1v0c1.8,0.2,2.7,1.1,2.7,2.6c0,1-0.4,1.8-1.2,2.4
				c-0.8,0.6-1.9,0.9-3.3,0.9c-0.6,0-1.1,0-1.6-0.1c-0.5-0.1-1-0.2-1.6-0.5v-2.4c0.5,0.2,0.9,0.4,1.4,0.5c0.5,0.1,1,0.2,1.4,0.2
				c0.7,0,1.1-0.1,1.4-0.3c0.3-0.2,0.4-0.5,0.4-0.9c0-0.3-0.1-0.5-0.2-0.7c-0.2-0.2-0.4-0.3-0.8-0.4c-0.3-0.1-0.8-0.1-1.3-0.1h-0.7
				v-2.2h0.7c1.5,0,2.2-0.4,2.2-1.1c0-0.3-0.1-0.5-0.3-0.6c-0.2-0.1-0.5-0.2-0.9-0.2c-0.7,0-1.4,0.2-2.2,0.7l-1.2-2
				c0.6-0.4,1.2-0.7,1.8-0.8c0.6-0.2,1.3-0.2,2.1-0.2c1.1,0,2,0.2,2.6,0.7C-103.6,10.9-103.3,11.5-103.3,12.3z"/>
		</g>
	</g>
	<g transform="translate(307.50247, 300.449129)">
		<g>
			<path class="st6" d="M-100.7,20.8h-7.9v-1.9l2.6-2.7c0.8-0.8,1.3-1.3,1.5-1.6c0.2-0.3,0.4-0.5,0.5-0.8c0.1-0.2,0.1-0.4,0.1-0.6
				c0-0.3-0.1-0.5-0.3-0.7c-0.2-0.2-0.4-0.2-0.8-0.2s-0.7,0.1-1,0.3c-0.3,0.2-0.7,0.5-1.2,0.9l-1.6-1.9c0.6-0.5,1-0.9,1.4-1.1
				c0.4-0.2,0.8-0.4,1.2-0.5c0.5-0.1,1-0.2,1.5-0.2c0.7,0,1.3,0.1,1.9,0.4c0.6,0.2,1,0.6,1.3,1c0.3,0.5,0.5,1,0.5,1.5
				c0,0.4-0.1,0.8-0.2,1.2c-0.1,0.4-0.3,0.7-0.5,1.1c-0.2,0.3-0.5,0.7-0.9,1.1c-0.4,0.4-1.1,1.1-2.4,2.2v0.1h4.1V20.8z"/>
		</g>
	</g>
</g>
<g>
	<g transform="translate(281.813984, 300.449129)">
		<g>
			<path class="st6" d="M-110.6,20.8h-3V15c0-0.7,0-1.3,0-1.9c-0.2,0.2-0.4,0.5-0.7,0.7l-1.2,1L-117,13l3.7-3h2.6V20.8z"/>
		</g>
	</g>
	<g transform="translate(288.50674, 300.449129)">
		<g>
			<path class="st6" d="M-110.8,9.8c1.1,0,2,0.2,2.7,0.7c0.6,0.5,1,1.1,1,2c0,0.6-0.2,1.1-0.5,1.5c-0.3,0.4-0.8,0.8-1.4,1.1
				c0.8,0.5,1.4,0.9,1.7,1.4c0.3,0.4,0.5,0.9,0.5,1.5c0,1-0.4,1.7-1.1,2.2c-0.7,0.5-1.7,0.8-2.9,0.8c-1.3,0-2.3-0.3-2.9-0.8
				c-0.7-0.5-1-1.3-1-2.2c0-0.6,0.2-1.2,0.5-1.6c0.3-0.4,0.8-0.8,1.5-1.2c-0.6-0.4-1-0.8-1.2-1.2c-0.3-0.4-0.4-0.9-0.4-1.5
				c0-0.8,0.3-1.5,1-1.9C-112.9,10-112,9.8-110.8,9.8z M-112.2,17.8c0,0.3,0.1,0.6,0.3,0.8c0.2,0.2,0.5,0.3,0.9,0.3
				c0.9,0,1.3-0.3,1.3-1c0-0.2-0.1-0.5-0.3-0.7c-0.2-0.2-0.5-0.5-1-0.8c-0.4,0.2-0.8,0.5-1,0.7C-112.1,17.3-112.2,17.5-112.2,17.8z
				 M-110.9,11.9c-0.2,0-0.5,0.1-0.6,0.2c-0.2,0.1-0.2,0.3-0.2,0.6c0,0.4,0.3,0.8,0.9,1.1c0.4-0.2,0.6-0.4,0.7-0.5
				c0.1-0.2,0.2-0.4,0.2-0.6c0-0.2-0.1-0.4-0.3-0.6C-110.4,11.9-110.6,11.9-110.9,11.9z"/>
		</g>
	</g>
</g>
<g>
	<g transform="translate(337.200734, 300.449129)">
		<g>
			<path class="st6" d="M-94.2,13.7c0.6,0,1.2,0.1,1.7,0.4s0.9,0.7,1.2,1.2c0.3,0.5,0.4,1.1,0.4,1.8c0,1.2-0.4,2.2-1.1,2.8
				c-0.7,0.6-1.8,1-3.3,1c-1.3,0-2.3-0.2-3.1-0.6v-2.4c0.4,0.2,0.9,0.4,1.5,0.5c0.5,0.1,1,0.2,1.4,0.2c0.5,0,1-0.1,1.2-0.3
				c0.3-0.2,0.4-0.6,0.4-1c0-0.4-0.1-0.7-0.4-1c-0.3-0.2-0.7-0.4-1.4-0.4c-0.5,0-1,0.1-1.5,0.3l-1.1-0.5l0.4-5.8h6.2v2.5h-3.7
				l-0.1,1.4c0.4-0.1,0.6-0.1,0.8-0.1C-94.5,13.7-94.3,13.7-94.2,13.7z"/>
		</g>
	</g>
	<g transform="translate(343.893489, 300.449129)">
		<g>
			<path class="st6" d="M-88.5,15.4c0,1.9-0.3,3.3-1,4.2c-0.6,0.9-1.6,1.3-3,1.3c-1.3,0-2.3-0.5-2.9-1.4c-0.7-0.9-1-2.3-1-4.2
				c0-1.9,0.3-3.3,1-4.2c0.7-0.9,1.6-1.4,3-1.4c1.3,0,2.3,0.5,2.9,1.4C-88.8,12.1-88.5,13.5-88.5,15.4z M-93.4,15.4
				c0,1.2,0.1,2.1,0.2,2.5c0.2,0.5,0.4,0.7,0.8,0.7c0.4,0,0.6-0.2,0.8-0.7c0.2-0.5,0.2-1.3,0.2-2.5c0-1.2-0.1-2.1-0.2-2.5
				c-0.2-0.5-0.4-0.7-0.8-0.7c-0.4,0-0.6,0.2-0.8,0.7C-93.4,13.3-93.4,14.1-93.4,15.4z"/>
		</g>
	</g>
</g>
<g>
	<g transform="translate(318.563046, 300.449129)">
		<g>
			<path class="st6" d="M-104.8,16.2c0-1.5,0.2-2.7,0.6-3.7c0.4-0.9,1.1-1.6,1.9-2.1c0.8-0.4,1.9-0.7,3.1-0.7c0.4,0,1,0,1.6,0.1v2.3
				c-0.5-0.1-1-0.1-1.6-0.1c-1,0-1.7,0.2-2.2,0.6c-0.5,0.4-0.8,1.1-0.8,2.1h0.1c0.4-0.8,1.2-1.3,2.1-1.3c1,0,1.7,0.3,2.2,0.9
				c0.5,0.6,0.8,1.5,0.8,2.6c0,1.2-0.3,2.1-1,2.8c-0.7,0.7-1.6,1-2.8,1c-1.3,0-2.3-0.4-3-1.2C-104.4,18.8-104.8,17.7-104.8,16.2z
				 M-100.8,18.6c0.3,0,0.6-0.1,0.8-0.3c0.2-0.2,0.3-0.6,0.3-1.1c0-0.9-0.3-1.3-1-1.3c-0.3,0-0.6,0.1-0.8,0.4
				c-0.2,0.2-0.3,0.5-0.3,0.8c0,0.5,0.1,0.9,0.3,1.2C-101.4,18.5-101.1,18.6-100.8,18.6z"/>
		</g>
	</g>
	<g transform="translate(325.255801, 300.449129)">
		<g>
			<path class="st6" d="M-96.1,20.8h-3V15c0-0.7,0-1.3,0-1.9c-0.2,0.2-0.4,0.5-0.7,0.7l-1.2,1l-1.5-1.9l3.7-3h2.6V20.8z"/>
		</g>
	</g>
</g>
<path class="st0" d="M110.3,182.8h26.8v26.8h-26.8V182.8"/>
<path class="st0" d="M110.3,209.7L110.3,209.7l-0.1-27h27v27H110.3 M110.4,182.9v26.6H137v-26.6H110.4"/>
<path class="st1" d="M112.2,184.7h23v23h-23V184.7"/>
<path class="st0" d="M160.2,182.8h26.8v26.8h-26.8V182.8"/>
<path class="st0" d="M160.2,209.7L160.2,209.7l-0.1-27h27v27H160.2 M160.3,182.9v26.6H187v-26.6H160.3"/>
<path class="st2" d="M162.1,184.7h23v23h-23V184.7"/>
<path class="st0" d="M208.8,182.8h26.8v26.8h-26.8V182.8"/>
<path class="st0" d="M208.8,209.7L208.8,209.7l-0.1-27h27v27H208.8 M208.9,182.9v26.6h26.6v-26.6H208.9"/>
<path class="st1" d="M210.7,184.7h23v23h-23V184.7"/>
<path class="st0" d="M135.1,182.8h26.8v26.8h-26.8V182.8"/>
<path class="st0" d="M135.1,209.7L135.1,209.7l-0.1-27h27v27H135.1 M135.2,182.9v26.6h26.6v-26.6H135.2"/>
<path class="st3" d="M137,184.7h23v23h-23V184.7"/>
<path class="st0" d="M185.1,182.8h26.8v26.8h-26.8V182.8"/>
<path class="st0" d="M185.1,209.7L185.1,209.7l-0.1-27h27v27H185.1 M185.2,182.9v26.6h26.6v-26.6H185.2"/>
<path class="st1" d="M187,184.7h23v23h-23V184.7"/>
<path class="st0" d="M233.6,182.8h26.8v26.8h-26.8V182.8"/>
<path class="st0" d="M233.6,209.7L233.6,209.7l-0.1-27h27v27H233.6 M233.7,182.9v26.6h26.6v-26.6H233.7"/>
<path class="st7" d="M235.5,184.7h23v23h-23V184.7"/>
<g>
	<g transform="translate(244.68405, 209.841621)">
		<g>
			<path class="st6" d="M-121.6-9.4h-7.9v-1.9l2.6-2.7c0.8-0.8,1.3-1.3,1.5-1.6c0.2-0.3,0.4-0.5,0.5-0.8c0.1-0.2,0.1-0.4,0.1-0.6
				c0-0.3-0.1-0.5-0.3-0.7c-0.2-0.2-0.4-0.2-0.8-0.2s-0.7,0.1-1,0.3c-0.3,0.2-0.7,0.5-1.2,0.9l-1.6-1.9c0.6-0.5,1-0.9,1.4-1.1
				c0.4-0.2,0.8-0.4,1.2-0.5c0.5-0.1,1-0.2,1.5-0.2c0.7,0,1.3,0.1,1.9,0.4c0.6,0.2,1,0.6,1.3,1c0.3,0.5,0.5,1,0.5,1.5
				c0,0.4-0.1,0.8-0.2,1.2c-0.1,0.4-0.3,0.7-0.5,1.1c-0.2,0.3-0.5,0.7-0.9,1.1c-0.4,0.4-1.1,1.1-2.4,2.2v0.1h4.1V-9.4z"/>
		</g>
	</g>
	<g transform="translate(251.376806, 209.841621)">
		<g>
			<path class="st6" d="M-119.7-17.9c0,0.7-0.2,1.3-0.6,1.8c-0.4,0.5-1,0.8-1.8,1v0c1.8,0.2,2.7,1.1,2.7,2.6c0,1-0.4,1.8-1.2,2.4
				c-0.8,0.6-1.9,0.9-3.3,0.9c-0.6,0-1.1,0-1.6-0.1c-0.5-0.1-1-0.2-1.6-0.5v-2.4c0.5,0.2,0.9,0.4,1.4,0.5c0.5,0.1,1,0.2,1.4,0.2
				c0.7,0,1.1-0.1,1.4-0.3c0.3-0.2,0.4-0.5,0.4-0.9c0-0.3-0.1-0.5-0.2-0.7c-0.2-0.2-0.4-0.3-0.8-0.4c-0.3-0.1-0.8-0.1-1.3-0.1h-0.7
				v-2.2h0.7c1.5,0,2.2-0.4,2.2-1.1c0-0.3-0.1-0.5-0.3-0.6c-0.2-0.1-0.5-0.2-0.9-0.2c-0.7,0-1.4,0.2-2.2,0.7l-1.2-2
				c0.6-0.4,1.2-0.7,1.8-0.8c0.6-0.2,1.3-0.2,2.1-0.2c1.1,0,2,0.2,2.6,0.7C-120.1-19.3-119.7-18.7-119.7-17.9z"/>
		</g>
	</g>
</g>
<g>
	<g transform="translate(263.321712, 209.841621)">
		<g>
			<path class="st6" d="M-115.8-17.9c0,0.7-0.2,1.3-0.6,1.8c-0.4,0.5-1,0.8-1.8,1v0c1.8,0.2,2.7,1.1,2.7,2.6c0,1-0.4,1.8-1.2,2.4
				c-0.8,0.6-1.9,0.9-3.3,0.9c-0.6,0-1.1,0-1.6-0.1c-0.5-0.1-1-0.2-1.6-0.5v-2.4c0.5,0.2,0.9,0.4,1.4,0.5c0.5,0.1,1,0.2,1.4,0.2
				c0.7,0,1.1-0.1,1.4-0.3c0.3-0.2,0.4-0.5,0.4-0.9c0-0.3-0.1-0.5-0.2-0.7c-0.2-0.2-0.4-0.3-0.8-0.4c-0.3-0.1-0.8-0.1-1.3-0.1h-0.7
				v-2.2h0.7c1.5,0,2.2-0.4,2.2-1.1c0-0.3-0.1-0.5-0.3-0.6c-0.2-0.1-0.5-0.2-0.9-0.2c-0.7,0-1.4,0.2-2.2,0.7l-1.2-2
				c0.6-0.4,1.2-0.7,1.8-0.8c0.6-0.2,1.3-0.2,2.1-0.2c1.1,0,2,0.2,2.6,0.7C-116.1-19.3-115.8-18.7-115.8-17.9z"/>
		</g>
	</g>
	<g transform="translate(270.014468, 209.841621)">
		<g>
			<path class="st6" d="M-113.2-9.4h-7.9v-1.9l2.6-2.7c0.8-0.8,1.3-1.3,1.5-1.6c0.2-0.3,0.4-0.5,0.5-0.8c0.1-0.2,0.1-0.4,0.1-0.6
				c0-0.3-0.1-0.5-0.3-0.7c-0.2-0.2-0.4-0.2-0.8-0.2s-0.7,0.1-1,0.3c-0.3,0.2-0.7,0.5-1.2,0.9l-1.6-1.9c0.6-0.5,1-0.9,1.4-1.1
				c0.4-0.2,0.8-0.4,1.2-0.5c0.5-0.1,1-0.2,1.5-0.2c0.7,0,1.3,0.1,1.9,0.4c0.6,0.2,1,0.6,1.3,1c0.3,0.5,0.5,1,0.5,1.5
				c0,0.4-0.1,0.8-0.2,1.2c-0.1,0.4-0.3,0.7-0.5,1.1c-0.2,0.3-0.5,0.7-0.9,1.1c-0.4,0.4-1.1,1.1-2.4,2.2v0.1h4.1V-9.4z"/>
		</g>
	</g>
</g>
<g>
	<g transform="translate(300.809714, 209.841621)">
		<g>
			<path class="st6" d="M-104.2-9.4h-3v-5.8c0-0.7,0-1.3,0-1.9c-0.2,0.2-0.4,0.5-0.7,0.7l-1.2,1l-1.5-1.9l3.7-3h2.6V-9.4z"/>
		</g>
	</g>
	<g transform="translate(307.50247, 209.841621)">
		<g>
			<path class="st6" d="M-104.5-20.4c1.1,0,2,0.2,2.7,0.7c0.6,0.5,1,1.1,1,2c0,0.6-0.2,1.1-0.5,1.5c-0.3,0.4-0.8,0.8-1.4,1.1
				c0.8,0.5,1.4,0.9,1.7,1.4c0.3,0.4,0.5,0.9,0.5,1.5c0,1-0.4,1.7-1.1,2.2c-0.7,0.5-1.7,0.8-2.9,0.8c-1.3,0-2.3-0.3-2.9-0.8
				c-0.7-0.5-1-1.3-1-2.2c0-0.6,0.2-1.2,0.5-1.6c0.3-0.4,0.8-0.8,1.5-1.2c-0.6-0.4-1-0.8-1.2-1.2c-0.3-0.4-0.4-0.9-0.4-1.5
				c0-0.8,0.3-1.5,1-1.9C-106.6-20.2-105.7-20.4-104.5-20.4z M-105.8-12.4c0,0.3,0.1,0.6,0.3,0.8c0.2,0.2,0.5,0.3,0.9,0.3
				c0.9,0,1.3-0.3,1.3-1c0-0.2-0.1-0.5-0.3-0.7c-0.2-0.2-0.5-0.5-1-0.8c-0.4,0.2-0.8,0.5-1,0.7C-105.7-12.9-105.8-12.7-105.8-12.4z
				 M-104.5-18.3c-0.2,0-0.5,0.1-0.6,0.2c-0.2,0.1-0.2,0.3-0.2,0.6c0,0.4,0.3,0.8,0.9,1.1c0.4-0.2,0.6-0.4,0.7-0.5s0.2-0.4,0.2-0.6
				c0-0.2-0.1-0.4-0.3-0.6C-104.1-18.3-104.3-18.3-104.5-18.3z"/>
		</g>
	</g>
</g>
<g>
	<g transform="translate(285.16609, 209.841621)">
		<g>
			<path class="st6" d="M-108-15.3c0,2.1-0.5,3.7-1.4,4.6c-0.9,0.9-2.4,1.4-4.4,1.4c-0.7,0-1.2,0-1.5-0.1v-2.3
				c0.4,0.1,0.9,0.1,1.3,0.1c1,0,1.8-0.2,2.4-0.6c0.6-0.4,0.9-1.1,0.9-2.1h-0.1c-0.2,0.3-0.4,0.6-0.6,0.8c-0.2,0.2-0.4,0.3-0.7,0.4
				c-0.3,0.1-0.6,0.1-1,0.1c-0.9,0-1.7-0.3-2.2-0.9c-0.5-0.6-0.8-1.5-0.8-2.6c0-1.2,0.3-2.2,1-2.8c0.7-0.7,1.6-1,2.8-1
				c1.3,0,2.3,0.4,3.1,1.3C-108.4-18.2-108-16.9-108-15.3z M-112.1-18c-0.3,0-0.6,0.1-0.8,0.4c-0.2,0.2-0.3,0.6-0.3,1.1
				c0,0.4,0.1,0.7,0.2,1c0.2,0.2,0.4,0.4,0.8,0.4c0.3,0,0.6-0.1,0.9-0.3c0.2-0.2,0.4-0.5,0.4-0.9c0-0.4-0.1-0.8-0.3-1.1
				C-111.5-17.9-111.8-18-112.1-18z"/>
		</g>
	</g>
</g>
<g>
	<g transform="translate(337.200734, 209.841621)">
		<g>
			<path class="st6" d="M-94.2-16.5c0.6,0,1.2,0.1,1.7,0.4c0.5,0.3,0.9,0.7,1.2,1.2c0.3,0.5,0.4,1.1,0.4,1.8c0,1.2-0.4,2.2-1.1,2.8
				c-0.7,0.6-1.8,1-3.3,1c-1.3,0-2.3-0.2-3.1-0.6v-2.4c0.4,0.2,0.9,0.4,1.5,0.5c0.5,0.1,1,0.2,1.4,0.2c0.5,0,1-0.1,1.2-0.3
				c0.3-0.2,0.4-0.6,0.4-1c0-0.4-0.1-0.7-0.4-1c-0.3-0.2-0.7-0.4-1.4-0.4c-0.5,0-1,0.1-1.5,0.2l-1.1-0.5l0.4-5.8h6.2v2.5h-3.7
				l-0.1,1.4c0.4-0.1,0.6-0.1,0.8-0.1C-94.5-16.5-94.3-16.5-94.2-16.5z"/>
		</g>
	</g>
	<g transform="translate(343.893489, 209.841621)">
		<g>
			<path class="st6" d="M-88.5-14.8c0,1.9-0.3,3.3-1,4.2c-0.6,0.9-1.6,1.3-3,1.3c-1.3,0-2.3-0.5-2.9-1.4c-0.7-0.9-1-2.3-1-4.2
				c0-1.9,0.3-3.3,1-4.2c0.7-0.9,1.6-1.4,3-1.4c1.3,0,2.3,0.5,2.9,1.4C-88.8-18.1-88.5-16.7-88.5-14.8z M-93.4-14.8
				c0,1.2,0.1,2.1,0.2,2.5c0.2,0.5,0.4,0.7,0.8,0.7c0.4,0,0.6-0.2,0.8-0.7c0.2-0.5,0.2-1.3,0.2-2.5c0-1.2-0.1-2.1-0.2-2.5
				c-0.2-0.5-0.4-0.7-0.8-0.7c-0.4,0-0.6,0.2-0.8,0.7C-93.4-16.9-93.4-16.1-93.4-14.8z"/>
		</g>
	</g>
</g>
<g>
	<g transform="translate(318.563046, 209.841621)">
		<g>
			<path class="st6" d="M-104.8-14c0-1.5,0.2-2.7,0.6-3.7c0.4-0.9,1.1-1.6,1.9-2.1c0.8-0.4,1.9-0.7,3.1-0.7c0.4,0,1,0,1.6,0.1v2.3
				c-0.5-0.1-1-0.1-1.6-0.1c-1,0-1.7,0.2-2.2,0.6c-0.5,0.4-0.8,1.1-0.8,2.1h0.1c0.4-0.8,1.2-1.3,2.1-1.3c1,0,1.7,0.3,2.2,0.9
				c0.5,0.6,0.8,1.5,0.8,2.6c0,1.2-0.3,2.1-1,2.8c-0.7,0.7-1.6,1-2.8,1c-1.3,0-2.3-0.4-3-1.2C-104.4-11.4-104.8-12.5-104.8-14z
				 M-100.8-11.6c0.3,0,0.6-0.1,0.8-0.3c0.2-0.2,0.3-0.6,0.3-1.1c0-0.9-0.3-1.3-1-1.3c-0.3,0-0.6,0.1-0.8,0.4
				c-0.2,0.2-0.3,0.5-0.3,0.8c0,0.5,0.1,0.9,0.3,1.2C-101.4-11.8-101.1-11.6-100.8-11.6z"/>
		</g>
	</g>
	<g transform="translate(325.255801, 209.841621)">
		<g>
			<path class="st6" d="M-96.1-9.4h-3v-5.8c0-0.7,0-1.3,0-1.9c-0.2,0.2-0.4,0.5-0.7,0.7l-1.2,1l-1.5-1.9l3.7-3h2.6V-9.4z"/>
		</g>
	</g>
</g>
<path class="st9" d="M185.3,32.4v15.5"/>
<path class="st10" d="M189.8,49.4l-4.5,6l-4.5-6H189.8z"/>
<path class="st9" d="M185.3,93.7v15.5"/>
<path class="st10" d="M189.8,110.7l-4.5,6l-4.5-6H189.8z"/>
<path class="st9" d="M185.3,156.4v15.5"/>
<path class="st10" d="M189.8,173.4l-4.5,6l-4.5-6H189.8z"/>
<path class="st9" d="M185.3,216.1v15.5"/>
<path class="st10" d="M189.8,233.2l-4.5,6l-4.5-6H189.8z"/>
<path class="st9" d="M185.3,275.6v15.5"/>
<path class="st10" d="M189.8,292.7l-4.5,6l-4.5-6H189.8z"/>
<path class="st9" d="M185.3,337v15.5"/>
<path class="st10" d="M189.8,354l-4.5,6l-4.5-6H189.8z"/>
<path class="st9" d="M139.5,400.9l-27.4,32.6"/>
<path class="st10" d="M114.6,437.6l-7.3,1.7l0.4-7.4L114.6,437.6z"/>
<path class="st9" d="M43.2,607.6L24,630"/>
<path class="st10" d="M26.5,634l-7.3,1.6l0.5-7.5L26.5,634z"/>
<path class="st9" d="M267.9,543l-19.2,22.4"/>
<path class="st10" d="M251.2,569.4l-7.3,1.6l0.5-7.5L251.2,569.4z"/>
<path class="st9" d="M247.6,400.8l21.4,36.8"/>
<path class="st10" d="M273.7,436.7l-0.9,7.4l-6.9-2.9L273.7,436.7z"/>
<path class="st9" d="M101.7,607.5l12.2,21.2"/>
<path class="st10" d="M118.5,627.7l-0.9,7.5l-6.9-3L118.5,627.7z"/>
<path class="st9" d="M307.8,543.5l12.2,21.2"/>
<path class="st10" d="M324.7,563.8l-0.9,7.5l-6.9-3L324.7,563.8z"/>
<path class="st9" d="M71.4,483.4v15.5"/>
<path class="st10" d="M75.9,500.4l-4.5,6l-4.5-6H75.9z"/>
<path class="st9" d="M286.8,483.4v15.5"/>
<path class="st10" d="M291.3,500.4l-4.5,6l-4.5-6H291.3z"/>
<path class="st9" d="M71.4,546.1v15.5"/>
<path class="st10" d="M75.9,563.1l-4.5,6l-4.5-6H75.9z"/>
<g>
	<g transform="translate(169.68406, 552.779506)">
		<g>
			<path class="st6" d="M-146.5,99c0,2.1-0.5,3.7-1.4,4.6c-0.9,0.9-2.4,1.4-4.4,1.4c-0.7,0-1.2,0-1.5-0.1v-2.3
				c0.4,0.1,0.9,0.1,1.3,0.1c1,0,1.8-0.2,2.4-0.6c0.6-0.4,0.9-1.1,0.9-2.1h-0.1c-0.2,0.3-0.4,0.6-0.6,0.8c-0.2,0.2-0.4,0.3-0.7,0.4
				c-0.3,0.1-0.6,0.1-1,0.1c-0.9,0-1.7-0.3-2.2-0.9c-0.5-0.6-0.8-1.5-0.8-2.6c0-1.2,0.3-2.2,1-2.8c0.7-0.7,1.6-1,2.8-1
				c1.3,0,2.3,0.4,3.1,1.3C-146.9,96.1-146.5,97.4-146.5,99z M-150.6,96.3c-0.3,0-0.6,0.1-0.8,0.4c-0.2,0.2-0.3,0.6-0.3,1.1
				c0,0.4,0.1,0.7,0.2,1c0.2,0.2,0.4,0.4,0.8,0.4c0.3,0,0.6-0.1,0.9-0.3c0.2-0.2,0.4-0.5,0.4-0.9c0-0.4-0.1-0.8-0.3-1.1
				C-150,96.4-150.3,96.3-150.6,96.3z"/>
		</g>
	</g>
</g>
<g>
	<g transform="translate(243.902155, 552.779506)">
		<g>
			<path class="st6" d="M-121.9,104.9h-7.9V103l2.6-2.7c0.8-0.8,1.3-1.3,1.5-1.6c0.2-0.3,0.4-0.5,0.5-0.8c0.1-0.2,0.1-0.4,0.1-0.6
				c0-0.3-0.1-0.5-0.3-0.7c-0.2-0.2-0.4-0.2-0.8-0.2c-0.3,0-0.7,0.1-1,0.3c-0.3,0.2-0.7,0.5-1.2,0.9l-1.6-1.9c0.6-0.5,1-0.9,1.4-1.1
				c0.4-0.2,0.8-0.4,1.2-0.5c0.5-0.1,1-0.2,1.5-0.2c0.7,0,1.3,0.1,1.9,0.4c0.6,0.2,1,0.6,1.3,1c0.3,0.5,0.5,1,0.5,1.5
				c0,0.4-0.1,0.8-0.2,1.2c-0.1,0.4-0.3,0.7-0.5,1.1c-0.2,0.3-0.5,0.7-0.9,1.1c-0.4,0.4-1.1,1.1-2.4,2.2v0.1h4.1V104.9z"/>
		</g>
	</g>
	<g transform="translate(250.594911, 552.779506)">
		<g>
			<path class="st6" d="M-120,96.4c0,0.7-0.2,1.3-0.6,1.8c-0.4,0.5-1,0.8-1.8,1v0c1.8,0.2,2.7,1.1,2.7,2.6c0,1-0.4,1.8-1.2,2.4
				c-0.8,0.6-1.9,0.9-3.3,0.9c-0.6,0-1.1,0-1.6-0.1c-0.5-0.1-1-0.2-1.6-0.5V102c0.5,0.2,0.9,0.4,1.4,0.5c0.5,0.1,1,0.2,1.4,0.2
				c0.7,0,1.1-0.1,1.4-0.3c0.3-0.2,0.4-0.5,0.4-0.9c0-0.3-0.1-0.5-0.2-0.7c-0.2-0.2-0.4-0.3-0.8-0.4c-0.3-0.1-0.8-0.1-1.3-0.1h-0.7
				v-2.2h0.7c1.5,0,2.2-0.4,2.2-1.1c0-0.3-0.1-0.5-0.3-0.6c-0.2-0.1-0.5-0.2-0.9-0.2c-0.7,0-1.4,0.2-2.2,0.7l-1.2-2
				c0.6-0.4,1.2-0.7,1.8-0.8c0.6-0.2,1.3-0.2,2.1-0.2c1.1,0,2,0.2,2.6,0.7C-120.3,95-120,95.6-120,96.4z"/>
		</g>
	</g>
</g>
<g>
	<g transform="translate(376.058523, 407.711567)">
		<g>
			<path class="st6" d="M-81.2,49.4c0.6,0,1.2,0.1,1.7,0.4c0.5,0.3,0.9,0.7,1.2,1.2c0.3,0.5,0.4,1.1,0.4,1.8c0,1.2-0.4,2.2-1.1,2.8
				c-0.7,0.6-1.8,1-3.3,1c-1.3,0-2.3-0.2-3.1-0.6v-2.4c0.4,0.2,0.9,0.4,1.5,0.5c0.5,0.1,1,0.2,1.4,0.2c0.5,0,1-0.1,1.2-0.3
				c0.3-0.2,0.4-0.6,0.4-1c0-0.4-0.1-0.7-0.4-1c-0.3-0.2-0.7-0.4-1.4-0.4c-0.5,0-1,0.1-1.5,0.2l-1.1-0.5l0.4-5.8h6.2v2.5h-3.7
				l-0.1,1.4c0.4-0.1,0.6-0.1,0.8-0.1C-81.5,49.4-81.4,49.4-81.2,49.4z"/>
		</g>
	</g>
	<g transform="translate(382.751279, 407.711567)">
		<g>
			<path class="st6" d="M-75.5,51.1c0,1.9-0.3,3.3-1,4.2c-0.6,0.9-1.6,1.3-3,1.3c-1.3,0-2.3-0.5-2.9-1.4c-0.7-0.9-1-2.3-1-4.2
				c0-1.9,0.3-3.3,1-4.2c0.7-0.9,1.6-1.4,3-1.4c1.3,0,2.3,0.5,2.9,1.4C-75.9,47.9-75.5,49.3-75.5,51.1z M-80.5,51.1
				c0,1.2,0.1,2.1,0.2,2.5c0.2,0.5,0.4,0.7,0.8,0.7c0.4,0,0.6-0.2,0.8-0.7c0.2-0.5,0.2-1.3,0.2-2.5c0-1.2-0.1-2.1-0.2-2.5
				c-0.2-0.5-0.4-0.7-0.8-0.7c-0.4,0-0.6,0.2-0.8,0.7C-80.4,49-80.5,49.9-80.5,51.1z"/>
		</g>
	</g>
</g>
<g>
	<g transform="translate(376.84977, 456.713544)">
		<g>
			<path class="st6" d="M-85.4,68.3c0-1.5,0.2-2.7,0.6-3.7c0.4-0.9,1.1-1.6,1.9-2.1c0.8-0.4,1.9-0.7,3.1-0.7c0.4,0,1,0,1.6,0.1v2.3
				c-0.5-0.1-1-0.1-1.6-0.1c-1,0-1.7,0.2-2.2,0.6c-0.5,0.4-0.8,1.1-0.8,2.1h0.1c0.4-0.8,1.2-1.3,2.1-1.3c1,0,1.7,0.3,2.2,0.9
				c0.5,0.6,0.8,1.5,0.8,2.6c0,1.2-0.3,2.1-1,2.8c-0.7,0.7-1.6,1-2.8,1c-1.3,0-2.3-0.4-3-1.2C-85,70.9-85.4,69.8-85.4,68.3z
				 M-81.4,70.7c0.3,0,0.6-0.1,0.8-0.3c0.2-0.2,0.3-0.6,0.3-1.1c0-0.9-0.3-1.3-1-1.3c-0.3,0-0.6,0.1-0.8,0.4
				c-0.2,0.2-0.3,0.5-0.3,0.8c0,0.5,0.1,0.9,0.3,1.2C-81.9,70.5-81.7,70.7-81.4,70.7z"/>
		</g>
	</g>
	<g transform="translate(383.542526, 456.713544)">
		<g>
			<path class="st6" d="M-76.7,72.9h-3v-5.8c0-0.7,0-1.3,0-1.9c-0.2,0.2-0.4,0.5-0.7,0.7l-1.2,1L-83,65l3.7-3h2.6V72.9z"/>
		</g>
	</g>
</g>
<g>
	<g transform="translate(396.278679, 504.331275)">
		<g>
			<path class="st6" d="M-78.9,84.1c0-1.5,0.2-2.7,0.6-3.7c0.4-0.9,1.1-1.6,1.9-2.1c0.8-0.4,1.9-0.7,3.1-0.7c0.4,0,1,0,1.6,0.1v2.3
				c-0.5-0.1-1-0.1-1.6-0.1c-1,0-1.7,0.2-2.2,0.6c-0.5,0.4-0.8,1.1-0.8,2.1h0.1c0.4-0.8,1.2-1.3,2.1-1.3c1,0,1.7,0.3,2.2,0.9
				c0.5,0.6,0.8,1.5,0.8,2.6c0,1.2-0.3,2.1-1,2.8c-0.7,0.7-1.6,1-2.8,1c-1.3,0-2.3-0.4-3-1.2C-78.5,86.8-78.9,85.6-78.9,84.1z
				 M-74.9,86.6c0.3,0,0.6-0.1,0.8-0.3c0.2-0.2,0.3-0.6,0.3-1.1c0-0.9-0.3-1.3-1-1.3c-0.3,0-0.6,0.1-0.8,0.4
				c-0.2,0.2-0.3,0.5-0.3,0.8c0,0.5,0.1,0.9,0.3,1.2C-75.5,86.4-75.2,86.6-74.9,86.6z"/>
		</g>
	</g>
	<g transform="translate(402.971435, 504.331275)">
		<g>
			<path class="st6" d="M-70.2,88.7h-3V83c0-0.7,0-1.3,0-1.9c-0.2,0.2-0.4,0.5-0.7,0.7l-1.2,1l-1.5-1.9l3.7-3h2.6V88.7z"/>
		</g>
	</g>
</g>
<g>
	<g transform="translate(357.420861, 407.711567)">
		<g>
			<path class="st6" d="M-91.9,51.9c0-1.5,0.2-2.7,0.6-3.7c0.4-0.9,1.1-1.6,1.9-2.1c0.8-0.4,1.9-0.7,3.1-0.7c0.4,0,1,0,1.6,0.1v2.3
				c-0.5-0.1-1-0.1-1.6-0.1c-1,0-1.7,0.2-2.2,0.6c-0.5,0.4-0.8,1.1-0.8,2.1h0.1c0.4-0.8,1.2-1.3,2.1-1.3c1,0,1.7,0.3,2.2,0.9
				c0.5,0.6,0.8,1.5,0.8,2.6c0,1.2-0.3,2.1-1,2.8c-0.7,0.7-1.6,1-2.8,1c-1.3,0-2.3-0.4-3-1.2C-91.5,54.6-91.9,53.4-91.9,51.9z
				 M-87.8,54.4c0.3,0,0.6-0.1,0.8-0.3c0.2-0.2,0.3-0.6,0.3-1.1c0-0.9-0.3-1.3-1-1.3c-0.3,0-0.6,0.1-0.8,0.4
				c-0.2,0.2-0.3,0.5-0.3,0.8c0,0.5,0.1,0.9,0.3,1.2C-88.4,54.2-88.2,54.4-87.8,54.4z"/>
		</g>
	</g>
	<g transform="translate(364.113617, 407.711567)">
		<g>
			<path class="st6" d="M-83.1,56.5h-3v-5.8c0-0.7,0-1.3,0-1.9c-0.2,0.2-0.4,0.5-0.7,0.7l-1.2,1l-1.5-1.9l3.7-3h2.6V56.5z"/>
		</g>
	</g>
</g>
<g>
	<g transform="translate(358.212111, 456.713544)">
		<g>
			<path class="st6" d="M-87.2,65.7c0.6,0,1.2,0.1,1.7,0.4s0.9,0.7,1.2,1.2c0.3,0.5,0.4,1.1,0.4,1.8c0,1.2-0.4,2.2-1.1,2.8
				c-0.7,0.6-1.8,1-3.3,1c-1.3,0-2.3-0.2-3.1-0.6V70c0.4,0.2,0.9,0.4,1.5,0.5c0.5,0.1,1,0.2,1.4,0.2c0.5,0,1-0.1,1.2-0.3
				c0.3-0.2,0.4-0.6,0.4-1c0-0.4-0.1-0.7-0.4-1c-0.3-0.2-0.7-0.4-1.4-0.4c-0.5,0-1,0.1-1.5,0.2l-1.1-0.5l0.4-5.8h6.2v2.5h-3.7
				l-0.1,1.4c0.4-0.1,0.6-0.1,0.8-0.1C-87.5,65.8-87.3,65.7-87.2,65.7z"/>
		</g>
	</g>
	<g transform="translate(364.904867, 456.713544)">
		<g>
			<path class="st6" d="M-81.5,67.5c0,1.9-0.3,3.3-1,4.2c-0.6,0.9-1.6,1.3-3,1.3c-1.3,0-2.3-0.5-2.9-1.4c-0.7-0.9-1-2.3-1-4.2
				c0-1.9,0.3-3.3,1-4.2c0.7-0.9,1.6-1.4,3-1.4c1.3,0,2.3,0.5,2.9,1.4C-81.8,64.2-81.5,65.6-81.5,67.5z M-86.4,67.5
				c0,1.2,0.1,2.1,0.2,2.5c0.2,0.5,0.4,0.7,0.8,0.7c0.4,0,0.6-0.2,0.8-0.7c0.2-0.5,0.2-1.3,0.2-2.5c0-1.2-0.1-2.1-0.2-2.5
				c-0.2-0.5-0.4-0.7-0.8-0.7c-0.4,0-0.6,0.2-0.8,0.7C-86.3,65.4-86.4,66.2-86.4,67.5z"/>
		</g>
	</g>
</g>
<g>
	<g transform="translate(337.200734, 504.331275)">
		<g>
			<path class="st6" d="M-94.2,81.6c0.6,0,1.2,0.1,1.7,0.4s0.9,0.7,1.2,1.2c0.3,0.5,0.4,1.1,0.4,1.8c0,1.2-0.4,2.2-1.1,2.8
				c-0.7,0.6-1.8,1-3.3,1c-1.3,0-2.3-0.2-3.1-0.6v-2.4c0.4,0.2,0.9,0.4,1.5,0.5c0.5,0.1,1,0.2,1.4,0.2c0.5,0,1-0.1,1.2-0.3
				c0.3-0.2,0.4-0.6,0.4-1c0-0.4-0.1-0.7-0.4-1c-0.3-0.2-0.7-0.4-1.4-0.4c-0.5,0-1,0.1-1.5,0.2l-1.1-0.5l0.4-5.8h6.2v2.5h-3.7
				l-0.1,1.4c0.4-0.1,0.6-0.1,0.8-0.1C-94.5,81.6-94.3,81.6-94.2,81.6z"/>
		</g>
	</g>
	<g transform="translate(343.893489, 504.331275)">
		<g>
			<path class="st6" d="M-88.5,83.3c0,1.9-0.3,3.3-1,4.2c-0.6,0.9-1.6,1.3-3,1.3c-1.3,0-2.3-0.5-2.9-1.4c-0.7-0.9-1-2.3-1-4.2
				c0-1.9,0.3-3.3,1-4.2c0.7-0.9,1.6-1.4,3-1.4c1.3,0,2.3,0.5,2.9,1.4C-88.8,80.1-88.5,81.5-88.5,83.3z M-93.4,83.3
				c0,1.2,0.1,2.1,0.2,2.5c0.2,0.5,0.4,0.7,0.8,0.7c0.4,0,0.6-0.2,0.8-0.7c0.2-0.5,0.2-1.3,0.2-2.5c0-1.2-0.1-2.1-0.2-2.5
				c-0.2-0.5-0.4-0.7-0.8-0.7c-0.4,0-0.6,0.2-0.8,0.7C-93.4,81.2-93.4,82.1-93.4,83.3z"/>
		</g>
	</g>
</g>
<path class="st4" d="M199.9,394l-0.1,9c0,0.2,0,0.4-0.1,0.6c-0.1,0.2-0.2,0.3-0.3,0.5c-0.1,0.1-0.3,0.2-0.5,0.3
	c-0.2,0.1-0.4,0.1-0.6,0.1c-0.2,0-0.4,0-0.6-0.1c-0.2-0.1-0.3-0.2-0.5-0.3s-0.2-0.3-0.3-0.5c-0.1-0.2-0.1-0.4-0.1-0.6l0.1-9
	c0-0.2,0-0.4,0.1-0.6s0.2-0.3,0.3-0.5s0.3-0.2,0.5-0.3c0.2-0.1,0.4-0.1,0.6-0.1c0.2,0,0.4,0,0.6,0.1c0.2,0.1,0.3,0.2,0.5,0.3
	s0.2,0.3,0.3,0.5S200,393.8,199.9,394z M199.9,408.9l-0.1,9c0,0.2,0,0.4-0.1,0.6c-0.1,0.2-0.2,0.3-0.3,0.5c-0.1,0.1-0.3,0.2-0.5,0.3
	c-0.2,0.1-0.4,0.1-0.6,0.1c-0.2,0-0.4,0-0.6-0.1c-0.2-0.1-0.3-0.2-0.5-0.3s-0.2-0.3-0.3-0.5c-0.1-0.2-0.1-0.4-0.1-0.6l0.1-9
	c0-0.2,0-0.4,0.1-0.6c0.1-0.2,0.2-0.3,0.3-0.5c0.1-0.1,0.3-0.2,0.5-0.3c0.2-0.1,0.4-0.1,0.6-0.1c0.2,0,0.4,0,0.6,0.1
	c0.2,0.1,0.3,0.2,0.5,0.3s0.2,0.3,0.3,0.5C199.8,408.5,199.9,408.7,199.9,408.9z M199.8,423.9l-0.1,9c0,0.2,0,0.4-0.1,0.6
	c-0.1,0.2-0.2,0.3-0.3,0.5c-0.1,0.1-0.3,0.2-0.5,0.3c-0.2,0.1-0.4,0.1-0.6,0.1c-0.2,0-0.4,0-0.6-0.1s-0.3-0.2-0.5-0.3
	s-0.2-0.3-0.3-0.5c-0.1-0.2-0.1-0.4-0.1-0.6l0.1-9c0-0.2,0-0.4,0.1-0.6c0.1-0.2,0.2-0.3,0.3-0.5c0.1-0.1,0.3-0.2,0.5-0.3
	c0.2-0.1,0.4-0.1,0.6-0.1c0.2,0,0.4,0,0.6,0.1s0.3,0.2,0.5,0.3s0.2,0.3,0.3,0.5C199.7,423.5,199.8,423.7,199.8,423.9z M199.7,438.9
	l0,6.1c0,0.2,0,0.4-0.1,0.6c-0.1,0.2-0.2,0.3-0.3,0.5c-0.1,0.1-0.3,0.2-0.5,0.3c-0.2,0.1-0.4,0.1-0.6,0.1c-0.2,0-0.4,0-0.6-0.1
	c-0.2-0.1-0.3-0.2-0.5-0.3c-0.1-0.1-0.2-0.3-0.3-0.5c-0.1-0.2-0.1-0.4-0.1-0.6l0-6.1c0-0.2,0-0.4,0.1-0.6c0.1-0.2,0.2-0.3,0.3-0.5
	s0.3-0.2,0.5-0.3c0.2-0.1,0.4-0.1,0.6-0.1c0.2,0,0.4,0,0.6,0.1c0.2,0.1,0.3,0.2,0.5,0.3s0.2,0.3,0.3,0.5
	C199.6,438.5,199.7,438.7,199.7,438.9z"/>
<path class="st4" d="M198.1,446.5c-10.5,0-19,8.5-19,19c0,10.5,8.5,19,19,19c10.5,0,19-8.5,19-19C217.1,455,208.6,446.5,198.1,446.5
	"/>
<g>
	<g transform="translate(303.135396, 414.072139)">
		<g>
			<path class="st6" d="M-99.5,56h-1.5v2.7h-3.6V56h-5.5v-2.7l5.7-8.4h3.4v8.3h1.5V56z M-104.7,53.2v-1.6c0-0.3,0-0.7,0-1.2
				c0-0.5,0-0.8,0.1-0.8h-0.1c-0.2,0.5-0.5,0.9-0.7,1.4l-1.5,2.3H-104.7z"/>
		</g>
	</g>
</g>
<path class="st4" d="M20.8,668.4l-0.1,9c0,0.2,0,0.4-0.1,0.6c-0.1,0.2-0.2,0.3-0.3,0.5s-0.3,0.2-0.5,0.3c-0.2,0.1-0.4,0.1-0.6,0.1
	c-0.2,0-0.4,0-0.6-0.1c-0.2-0.1-0.3-0.2-0.5-0.3c-0.1-0.1-0.2-0.3-0.3-0.5c-0.1-0.2-0.1-0.4-0.1-0.6l0.1-9c0-0.2,0-0.4,0.1-0.6
	c0.1-0.2,0.2-0.3,0.3-0.5s0.3-0.2,0.5-0.3c0.2-0.1,0.4-0.1,0.6-0.1c0.2,0,0.4,0,0.6,0.1c0.2,0.1,0.3,0.2,0.5,0.3
	c0.1,0.1,0.2,0.3,0.3,0.5C20.8,668,20.8,668.2,20.8,668.4z M20.7,683.4l-0.1,9c0,0.2,0,0.4-0.1,0.6c-0.1,0.2-0.2,0.3-0.3,0.5
	c-0.1,0.1-0.3,0.2-0.5,0.3c-0.2,0.1-0.4,0.1-0.6,0.1c-0.2,0-0.4,0-0.6-0.1c-0.2-0.1-0.3-0.2-0.5-0.3c-0.1-0.1-0.2-0.3-0.3-0.5
	c-0.1-0.2-0.1-0.4-0.1-0.6l0.1-9c0-0.2,0-0.4,0.1-0.6c0.1-0.2,0.2-0.3,0.3-0.5s0.3-0.2,0.5-0.3c0.2-0.1,0.4-0.1,0.6-0.1
	s0.4,0,0.6,0.1c0.2,0.1,0.3,0.2,0.5,0.3s0.2,0.3,0.3,0.5C20.7,683,20.8,683.2,20.7,683.4z M20.7,698.4l-0.1,9c0,0.2,0,0.4-0.1,0.6
	c-0.1,0.2-0.2,0.3-0.3,0.5c-0.1,0.1-0.3,0.2-0.5,0.3c-0.2,0.1-0.4,0.1-0.6,0.1c-0.2,0-0.4,0-0.6-0.1c-0.2-0.1-0.3-0.2-0.5-0.3
	s-0.2-0.3-0.3-0.5c-0.1-0.2-0.1-0.4-0.1-0.6l0.1-9c0-0.2,0-0.4,0.1-0.6c0.1-0.2,0.2-0.3,0.3-0.5c0.1-0.1,0.3-0.2,0.5-0.3
	c0.2-0.1,0.4-0.1,0.6-0.1c0.2,0,0.4,0,0.6,0.1s0.3,0.2,0.5,0.3s0.2,0.3,0.3,0.5C20.6,698,20.7,698.2,20.7,698.4z M20.6,713.4l0,6.1
	c0,0.2,0,0.4-0.1,0.6c-0.1,0.2-0.2,0.3-0.3,0.5c-0.1,0.1-0.3,0.2-0.5,0.3c-0.2,0.1-0.4,0.1-0.6,0.1c-0.2,0-0.4,0-0.6-0.1
	c-0.2-0.1-0.3-0.2-0.5-0.3c-0.1-0.1-0.2-0.3-0.3-0.5c-0.1-0.2-0.1-0.4-0.1-0.6l0-6.1c0-0.2,0-0.4,0.1-0.6c0.1-0.2,0.2-0.3,0.3-0.5
	c0.1-0.1,0.3-0.2,0.5-0.3c0.2-0.1,0.4-0.1,0.6-0.1c0.2,0,0.4,0,0.6,0.1c0.2,0.1,0.3,0.2,0.5,0.3s0.2,0.3,0.3,0.5
	C20.5,713,20.6,713.2,20.6,713.4z"/>
<path class="st4" d="M19,721c-10.5,0-19,8.5-19,19c0,10.5,8.5,19,19,19c10.5,0,19-8.5,19-19C38,729.5,29.5,721,19,721"/>
<g>
	<g transform="translate(168.800038, 619.932424)">
		<g>
			<path class="st6" d="M-146.4,127.3h-3.8V120c0-0.9,0-1.7,0.1-2.4c-0.2,0.3-0.5,0.6-0.9,0.9l-1.6,1.3l-1.9-2.4l4.7-3.8h3.4V127.3z
				"/>
		</g>
	</g>
</g>
<path class="st4" d="M124.3,668.4l-0.1,9c0,0.2,0,0.4-0.1,0.6c-0.1,0.2-0.2,0.3-0.3,0.5s-0.3,0.2-0.5,0.3c-0.2,0.1-0.4,0.1-0.6,0.1
	c-0.2,0-0.4,0-0.6-0.1c-0.2-0.1-0.3-0.2-0.5-0.3c-0.1-0.1-0.2-0.3-0.3-0.5c-0.1-0.2-0.1-0.4-0.1-0.6l0.1-9c0-0.2,0-0.4,0.1-0.6
	c0.1-0.2,0.2-0.3,0.3-0.5s0.3-0.2,0.5-0.3c0.2-0.1,0.4-0.1,0.6-0.1s0.4,0,0.6,0.1c0.2,0.1,0.3,0.2,0.5,0.3c0.1,0.1,0.2,0.3,0.3,0.5
	C124.2,668,124.3,668.2,124.3,668.4z M124.2,683.4l-0.1,9c0,0.2,0,0.4-0.1,0.6c-0.1,0.2-0.2,0.3-0.3,0.5c-0.1,0.1-0.3,0.2-0.5,0.3
	c-0.2,0.1-0.4,0.1-0.6,0.1c-0.2,0-0.4,0-0.6-0.1c-0.2-0.1-0.3-0.2-0.5-0.3c-0.1-0.1-0.2-0.3-0.3-0.5c-0.1-0.2-0.1-0.4-0.1-0.6l0.1-9
	c0-0.2,0-0.4,0.1-0.6c0.1-0.2,0.2-0.3,0.3-0.5s0.3-0.2,0.5-0.3c0.2-0.1,0.4-0.1,0.6-0.1c0.2,0,0.4,0,0.6,0.1
	c0.2,0.1,0.3,0.2,0.5,0.3s0.2,0.3,0.3,0.5C124.1,683,124.2,683.2,124.2,683.4z M124.1,698.4l-0.1,9c0,0.2,0,0.4-0.1,0.6
	c-0.1,0.2-0.2,0.3-0.3,0.5c-0.1,0.1-0.3,0.2-0.5,0.3c-0.2,0.1-0.4,0.1-0.6,0.1c-0.2,0-0.4,0-0.6-0.1c-0.2-0.1-0.3-0.2-0.5-0.3
	s-0.2-0.3-0.3-0.5c-0.1-0.2-0.1-0.4-0.1-0.6l0.1-9c0-0.2,0-0.4,0.1-0.6c0.1-0.2,0.2-0.3,0.3-0.5c0.1-0.1,0.3-0.2,0.5-0.3
	c0.2-0.1,0.4-0.1,0.6-0.1c0.2,0,0.4,0,0.6,0.1c0.2,0.1,0.3,0.2,0.5,0.3s0.2,0.3,0.3,0.5C124,698,124.1,698.2,124.1,698.4z
	 M124,713.4l0,6.1c0,0.2,0,0.4-0.1,0.6c-0.1,0.2-0.2,0.3-0.3,0.5c-0.1,0.1-0.3,0.2-0.5,0.3c-0.2,0.1-0.4,0.1-0.6,0.1
	c-0.2,0-0.4,0-0.6-0.1c-0.2-0.1-0.3-0.2-0.5-0.3c-0.1-0.1-0.2-0.3-0.3-0.5c-0.1-0.2-0.1-0.4-0.1-0.6l0-6.1c0-0.2,0-0.4,0.1-0.6
	c0.1-0.2,0.2-0.3,0.3-0.5c0.1-0.1,0.3-0.2,0.5-0.3c0.2-0.1,0.4-0.1,0.6-0.1c0.2,0,0.4,0,0.6,0.1c0.2,0.1,0.3,0.2,0.5,0.3
	s0.2,0.3,0.3,0.5C124,713,124,713.2,124,713.4z"/>
<path class="st4" d="M122.4,721c-10.5,0-19,8.5-19,19c0,10.5,8.5,19,19,19c10.5,0,19-8.5,19-19C141.4,729.5,132.9,721,122.4,721"/>
<g>
	<g transform="translate(246.370255, 619.932424)">
		<g>
			<path class="st6" d="M-119.3,116.5c0,0.8-0.3,1.6-0.8,2.2c-0.5,0.6-1.3,1.1-2.2,1.3v0.1c2.3,0.3,3.4,1.4,3.4,3.2
				c0,1.3-0.5,2.3-1.5,3c-1,0.7-2.4,1.1-4.2,1.1c-0.7,0-1.4-0.1-2.1-0.2c-0.6-0.1-1.3-0.3-2-0.6v-3.1c0.6,0.3,1.2,0.5,1.8,0.7
				c0.6,0.1,1.2,0.2,1.7,0.2c0.8,0,1.4-0.1,1.8-0.3c0.4-0.2,0.6-0.6,0.6-1.1c0-0.4-0.1-0.7-0.3-0.9c-0.2-0.2-0.5-0.4-1-0.5
				c-0.4-0.1-1-0.1-1.7-0.1h-0.8v-2.8h0.9c1.9,0,2.8-0.5,2.8-1.5c0-0.4-0.1-0.6-0.4-0.8c-0.3-0.2-0.7-0.3-1.1-0.3
				c-0.9,0-1.8,0.3-2.7,0.9l-1.5-2.5c0.7-0.5,1.5-0.9,2.2-1.1c0.8-0.2,1.6-0.3,2.6-0.3c1.4,0,2.5,0.3,3.3,0.9
				C-119.7,114.8-119.3,115.5-119.3,116.5z"/>
		</g>
	</g>
</g>
<path class="st4" d="M71.6,603.8l-0.1,9c0,0.2,0,0.4-0.1,0.6c-0.1,0.2-0.2,0.3-0.3,0.5s-0.3,0.2-0.5,0.3s-0.4,0.1-0.6,0.1
	c-0.2,0-0.4,0-0.6-0.1c-0.2-0.1-0.3-0.2-0.5-0.3c-0.1-0.1-0.2-0.3-0.3-0.5c-0.1-0.2-0.1-0.4-0.1-0.6l0.1-9c0-0.2,0-0.4,0.1-0.6
	s0.2-0.3,0.3-0.5c0.1-0.1,0.3-0.2,0.5-0.3c0.2-0.1,0.4-0.1,0.6-0.1c0.2,0,0.4,0,0.6,0.1c0.2,0.1,0.3,0.2,0.5,0.3
	c0.1,0.1,0.2,0.3,0.3,0.5C71.5,603.4,71.6,603.6,71.6,603.8z M71.5,618.8l-0.1,9c0,0.2,0,0.4-0.1,0.6c-0.1,0.2-0.2,0.3-0.3,0.5
	s-0.3,0.2-0.5,0.3c-0.2,0.1-0.4,0.1-0.6,0.1c-0.2,0-0.4,0-0.6-0.1c-0.2-0.1-0.3-0.2-0.5-0.3c-0.1-0.1-0.2-0.3-0.3-0.5
	c-0.1-0.2-0.1-0.4-0.1-0.6l0.1-9c0-0.2,0-0.4,0.1-0.6c0.1-0.2,0.2-0.3,0.3-0.5s0.3-0.2,0.5-0.3c0.2-0.1,0.4-0.1,0.6-0.1
	s0.4,0,0.6,0.1c0.2,0.1,0.3,0.2,0.5,0.3c0.1,0.1,0.2,0.3,0.3,0.5C71.4,618.4,71.5,618.6,71.5,618.8z M71.4,633.8l-0.1,9
	c0,0.2,0,0.4-0.1,0.6c-0.1,0.2-0.2,0.3-0.3,0.5s-0.3,0.2-0.5,0.3c-0.2,0.1-0.4,0.1-0.6,0.1c-0.2,0-0.4,0-0.6-0.1
	c-0.2-0.1-0.3-0.2-0.5-0.3c-0.1-0.1-0.2-0.3-0.3-0.5c-0.1-0.2-0.1-0.4-0.1-0.6l0.1-9c0-0.2,0-0.4,0.1-0.6c0.1-0.2,0.2-0.3,0.3-0.5
	s0.3-0.2,0.5-0.3c0.2-0.1,0.4-0.1,0.6-0.1c0.2,0,0.4,0,0.6,0.1c0.2,0.1,0.3,0.2,0.5,0.3s0.2,0.3,0.3,0.5
	C71.4,633.4,71.4,633.6,71.4,633.8z M71.3,648.8l0,6.1c0,0.2,0,0.4-0.1,0.6s-0.2,0.3-0.3,0.5s-0.3,0.2-0.5,0.3
	c-0.2,0.1-0.4,0.1-0.6,0.1c-0.2,0-0.4,0-0.6-0.1c-0.2-0.1-0.3-0.2-0.5-0.3c-0.1-0.1-0.2-0.3-0.3-0.5c-0.1-0.2-0.1-0.4-0.1-0.6l0-6.1
	c0-0.2,0-0.4,0.1-0.6s0.2-0.3,0.3-0.5s0.3-0.2,0.5-0.3c0.2-0.1,0.4-0.1,0.6-0.1c0.2,0,0.4,0,0.6,0.1c0.2,0.1,0.3,0.2,0.5,0.3
	s0.2,0.3,0.3,0.5C71.3,648.4,71.3,648.6,71.3,648.8z"/>
<path class="st4" d="M69.7,656.4c-10.5,0-19,8.5-19,19c0,10.5,8.5,19,19,19c10.5,0,19-8.5,19-19C88.7,664.9,80.2,656.4,69.7,656.4"
	/>
<g>
	<g transform="translate(206.851123, 571.484145)">
		<g>
			<path class="st6" d="M-132,111.1h-10v-2.4l3.4-3.4c1-1,1.6-1.7,1.9-2c0.3-0.4,0.5-0.7,0.6-1c0.1-0.3,0.2-0.5,0.2-0.8
				c0-0.4-0.1-0.6-0.4-0.9c-0.2-0.2-0.5-0.3-1-0.3c-0.4,0-0.9,0.1-1.3,0.4c-0.4,0.2-0.9,0.6-1.5,1.1l-2-2.4c0.7-0.6,1.3-1.1,1.8-1.4
				c0.5-0.3,1-0.5,1.6-0.6c0.6-0.1,1.2-0.2,1.9-0.2c0.9,0,1.7,0.2,2.4,0.5c0.7,0.3,1.2,0.8,1.6,1.3c0.4,0.6,0.6,1.2,0.6,1.9
				c0,0.5-0.1,1-0.2,1.5c-0.1,0.4-0.3,0.9-0.6,1.3c-0.3,0.4-0.7,0.9-1.1,1.4c-0.5,0.5-1.5,1.4-3,2.8v0.1h5.2V111.1z"/>
		</g>
	</g>
</g>
<path class="st4" d="M247.5,603.8l-0.1,9c0,0.2,0,0.4-0.1,0.6c-0.1,0.2-0.2,0.3-0.3,0.5c-0.1,0.1-0.3,0.2-0.5,0.3
	c-0.2,0.1-0.4,0.1-0.6,0.1c-0.2,0-0.4,0-0.6-0.1c-0.2-0.1-0.3-0.2-0.5-0.3s-0.2-0.3-0.3-0.5c-0.1-0.2-0.1-0.4-0.1-0.6l0.1-9
	c0-0.2,0-0.4,0.1-0.6s0.2-0.3,0.3-0.5c0.1-0.1,0.3-0.2,0.5-0.3c0.2-0.1,0.4-0.1,0.6-0.1c0.2,0,0.4,0,0.6,0.1s0.3,0.2,0.5,0.3
	s0.2,0.3,0.3,0.5C247.5,603.4,247.5,603.6,247.5,603.8z M247.4,618.8l-0.1,9c0,0.2,0,0.4-0.1,0.6c-0.1,0.2-0.2,0.3-0.3,0.5
	s-0.3,0.2-0.5,0.3c-0.2,0.1-0.4,0.1-0.6,0.1s-0.4,0-0.6-0.1c-0.2-0.1-0.3-0.2-0.5-0.3c-0.1-0.1-0.2-0.3-0.3-0.5
	c-0.1-0.2-0.1-0.4-0.1-0.6l0.1-9c0-0.2,0-0.4,0.1-0.6c0.1-0.2,0.2-0.3,0.3-0.5s0.3-0.2,0.5-0.3c0.2-0.1,0.4-0.1,0.6-0.1
	c0.2,0,0.4,0,0.6,0.1c0.2,0.1,0.3,0.2,0.5,0.3c0.1,0.1,0.2,0.3,0.3,0.5C247.4,618.4,247.4,618.6,247.4,618.8z M247.3,633.8l-0.1,9
	c0,0.2,0,0.4-0.1,0.6s-0.2,0.3-0.3,0.5s-0.3,0.2-0.5,0.3c-0.2,0.1-0.4,0.1-0.6,0.1c-0.2,0-0.4,0-0.6-0.1c-0.2-0.1-0.3-0.2-0.5-0.3
	s-0.2-0.3-0.3-0.5c-0.1-0.2-0.1-0.4-0.1-0.6l0.1-9c0-0.2,0-0.4,0.1-0.6c0.1-0.2,0.2-0.3,0.3-0.5c0.1-0.1,0.3-0.2,0.5-0.3
	c0.2-0.1,0.4-0.1,0.6-0.1s0.4,0,0.6,0.1c0.2,0.1,0.3,0.2,0.5,0.3s0.2,0.3,0.3,0.5C247.3,633.4,247.3,633.6,247.3,633.8z
	 M247.2,648.8l0,6.1c0,0.2,0,0.4-0.1,0.6c-0.1,0.2-0.2,0.3-0.3,0.5c-0.1,0.1-0.3,0.2-0.5,0.3c-0.2,0.1-0.4,0.1-0.6,0.1
	c-0.2,0-0.4,0-0.6-0.1s-0.3-0.2-0.5-0.3c-0.1-0.1-0.2-0.3-0.3-0.5c-0.1-0.2-0.1-0.4-0.1-0.6l0-6.1c0-0.2,0-0.4,0.1-0.6
	c0.1-0.2,0.2-0.3,0.3-0.5c0.1-0.1,0.3-0.2,0.5-0.3c0.2-0.1,0.4-0.1,0.6-0.1c0.2,0,0.4,0,0.6,0.1s0.3,0.2,0.5,0.3s0.2,0.3,0.3,0.5
	C247.2,648.4,247.2,648.6,247.2,648.8z"/>
<path class="st4" d="M245.7,656.4c-10.5,0-19,8.5-19,19c0,10.5,8.5,19,19,19c10.5,0,19-8.5,19-19
	C264.7,664.9,256.2,656.4,245.7,656.4"/>
<g>
	<g transform="translate(338.802637, 571.484145)">
		<g>
			<path class="st6" d="M-92.4,102.1c0.8,0,1.5,0.2,2.1,0.6c0.6,0.4,1.1,0.9,1.5,1.5c0.3,0.7,0.5,1.4,0.5,2.3c0,1.5-0.5,2.7-1.4,3.5
				c-0.9,0.8-2.3,1.2-4.2,1.2c-1.6,0-2.9-0.2-3.9-0.8v-3c0.6,0.2,1.2,0.5,1.9,0.6c0.7,0.2,1.3,0.2,1.8,0.2c0.7,0,1.2-0.1,1.6-0.4
				c0.4-0.3,0.6-0.7,0.6-1.3c0-0.5-0.2-0.9-0.6-1.2c-0.4-0.3-0.9-0.4-1.7-0.4c-0.6,0-1.2,0.1-1.9,0.3l-1.4-0.7l0.5-7.2h7.8v3.1h-4.7
				l-0.2,1.8c0.5-0.1,0.8-0.1,1-0.1C-92.7,102.1-92.5,102.1-92.4,102.1z"/>
		</g>
	</g>
</g>
<path class="st4" d="M327.4,603.8l-0.1,9c0,0.2,0,0.4-0.1,0.6c-0.1,0.2-0.2,0.3-0.3,0.5s-0.3,0.2-0.5,0.3c-0.2,0.1-0.4,0.1-0.6,0.1
	c-0.2,0-0.4,0-0.6-0.1c-0.2-0.1-0.3-0.2-0.5-0.3s-0.2-0.3-0.3-0.5c-0.1-0.2-0.1-0.4-0.1-0.6l0.1-9c0-0.2,0-0.4,0.1-0.6
	c0.1-0.2,0.2-0.3,0.3-0.5c0.1-0.1,0.3-0.2,0.5-0.3c0.2-0.1,0.4-0.1,0.6-0.1c0.2,0,0.4,0,0.6,0.1c0.2,0.1,0.3,0.2,0.5,0.3
	s0.2,0.3,0.3,0.5C327.4,603.4,327.4,603.6,327.4,603.8z M327.3,618.8l-0.1,9c0,0.2,0,0.4-0.1,0.6c-0.1,0.2-0.2,0.3-0.3,0.5
	s-0.3,0.2-0.5,0.3c-0.2,0.1-0.4,0.1-0.6,0.1c-0.2,0-0.4,0-0.6-0.1c-0.2-0.1-0.3-0.2-0.5-0.3c-0.1-0.1-0.2-0.3-0.3-0.5
	c-0.1-0.2-0.1-0.4-0.1-0.6l0.1-9c0-0.2,0-0.4,0.1-0.6c0.1-0.2,0.2-0.3,0.3-0.5c0.1-0.1,0.3-0.2,0.5-0.3c0.2-0.1,0.4-0.1,0.6-0.1
	c0.2,0,0.4,0,0.6,0.1c0.2,0.1,0.3,0.2,0.5,0.3c0.1,0.1,0.2,0.3,0.3,0.5C327.3,618.4,327.3,618.6,327.3,618.8z M327.3,633.8l-0.1,9
	c0,0.2,0,0.4-0.1,0.6s-0.2,0.3-0.3,0.5s-0.3,0.2-0.5,0.3c-0.2,0.1-0.4,0.1-0.6,0.1s-0.4,0-0.6-0.1c-0.2-0.1-0.3-0.2-0.5-0.3
	s-0.2-0.3-0.3-0.5c-0.1-0.2-0.1-0.4-0.1-0.6l0.1-9c0-0.2,0-0.4,0.1-0.6c0.1-0.2,0.2-0.3,0.3-0.5s0.3-0.2,0.5-0.3
	c0.2-0.1,0.4-0.1,0.6-0.1c0.2,0,0.4,0,0.6,0.1c0.2,0.1,0.3,0.2,0.5,0.3c0.1,0.1,0.2,0.3,0.3,0.5
	C327.2,633.4,327.3,633.6,327.3,633.8z M327.2,648.8l0,6.1c0,0.2,0,0.4-0.1,0.6s-0.2,0.3-0.3,0.5s-0.3,0.2-0.5,0.3
	c-0.2,0.1-0.4,0.1-0.6,0.1c-0.2,0-0.4,0-0.6-0.1c-0.2-0.1-0.3-0.2-0.5-0.3c-0.1-0.1-0.2-0.3-0.3-0.5c-0.1-0.2-0.1-0.4-0.1-0.6l0-6.1
	c0-0.2,0-0.4,0.1-0.6s0.2-0.3,0.3-0.5s0.3-0.2,0.5-0.3c0.2-0.1,0.4-0.1,0.6-0.1c0.2,0,0.4,0,0.6,0.1c0.2,0.1,0.3,0.2,0.5,0.3
	c0.1,0.1,0.2,0.3,0.3,0.5C327.1,648.4,327.2,648.6,327.2,648.8z"/>
<path class="st4" d="M325.6,656.4c-10.5,0-19,8.5-19,19c0,10.5,8.5,19,19,19c10.5,0,19-8.5,19-19
	C344.6,664.9,336.1,656.4,325.6,656.4"/>
<g>
	<g transform="translate(398.746794, 571.484145)">
		<g>
			<path class="st6" d="M-77.9,105.3c0-1.9,0.3-3.4,0.8-4.6c0.5-1.2,1.3-2.1,2.4-2.6c1.1-0.6,2.4-0.9,4-0.9c0.6,0,1.2,0.1,2,0.1v2.9
				c-0.6-0.1-1.3-0.2-2-0.2c-1.2,0-2.2,0.3-2.8,0.8c-0.6,0.5-0.9,1.4-1,2.7h0.1c0.6-1.1,1.5-1.6,2.7-1.6c1.2,0,2.2,0.4,2.8,1.2
				c0.7,0.8,1,1.9,1,3.3c0,1.5-0.4,2.7-1.3,3.6c-0.8,0.9-2,1.3-3.6,1.3c-1.6,0-2.9-0.5-3.8-1.6C-77.5,108.7-77.9,107.2-77.9,105.3z
				 M-72.9,108.4c0.4,0,0.7-0.1,1-0.4c0.2-0.3,0.4-0.8,0.4-1.4c0-1.1-0.4-1.7-1.3-1.7c-0.4,0-0.8,0.1-1,0.4c-0.3,0.3-0.4,0.6-0.4,1
				c0,0.6,0.1,1.1,0.4,1.5C-73.6,108.2-73.3,108.4-72.9,108.4z"/>
		</g>
	</g>
</g>
</svg>
