<svg xmlns="http://www.w3.org/2000/svg" xmlns:xlink="http://www.w3.org/1999/xlink" width="794" zoomAndPan="magnify" viewBox="0 0 595.5 842.249979" height="1123" preserveAspectRatio="xMidYMid meet" version="1.0"><defs><g><g id="id1"/><g id="id2"/></g></defs><path fill="rgb(0%, 29.019165%, 67.83905%)" d="M 235.398438 59.617188 L 262.960938 59.617188 L 262.960938 87.179688 L 235.398438 87.179688 L 235.398438 59.617188 " fill-opacity="1" fill-rule="nonzero"/><path fill="rgb(0%, 29.019165%, 67.83905%)" d="M 235.398438 87.273438 L 235.304688 87.273438 L 235.304688 59.523438 L 263.054688 59.523438 L 263.054688 87.273438 L 235.398438 87.273438 M 235.488281 59.710938 L 235.488281 87.085938 L 262.867188 87.085938 L 262.867188 59.710938 L 235.488281 59.710938 " fill-opacity="1" fill-rule="nonzero"/><path fill="rgb(49.409485%, 85.099792%, 34.118652%)" d="M 237.34375 61.582031 L 260.992188 61.582031 L 260.992188 85.234375 L 237.34375 85.234375 L 237.34375 61.582031 " fill-opacity="1" fill-rule="nonzero"/><path fill="rgb(0%, 29.019165%, 67.83905%)" d="M 287.464844 59.617188 L 315.027344 59.617188 L 315.027344 87.179688 L 287.464844 87.179688 L 287.464844 59.617188 " fill-opacity="1" fill-rule="nonzero"/><path fill="rgb(0%, 29.019165%, 67.83905%)" d="M 287.464844 87.273438 L 287.371094 87.273438 L 287.371094 59.523438 L 315.117188 59.523438 L 315.117188 87.273438 L 287.464844 87.273438 M 287.554688 59.710938 L 287.554688 87.085938 L 314.933594 87.085938 L 314.933594 59.710938 L 287.554688 59.710938 " fill-opacity="1" fill-rule="nonzero"/><path fill="rgb(49.409485%, 85.099792%, 34.118652%)" d="M 289.410156 61.582031 L 313.058594 61.582031 L 313.058594 85.234375 L 289.410156 85.234375 L 289.410156 61.582031 " fill-opacity="1" fill-rule="nonzero"/><path fill="rgb(0%, 29.019165%, 67.83905%)" d="M 338.007812 59.617188 L 365.570312 59.617188 L 365.570312 87.179688 L 338.007812 87.179688 L 338.007812 59.617188 " fill-opacity="1" fill-rule="nonzero"/><path fill="rgb(0%, 29.019165%, 67.83905%)" d="M 338.007812 87.273438 L 337.914062 87.273438 L 337.914062 59.523438 L 365.660156 59.523438 L 365.660156 87.273438 L 338.007812 87.273438 M 338.097656 59.710938 L 338.097656 87.085938 L 365.476562 87.085938 L 365.476562 59.710938 L 338.097656 59.710938 " fill-opacity="1" fill-rule="nonzero"/><path fill="rgb(49.409485%, 85.099792%, 34.118652%)" d="M 339.953125 61.582031 L 363.601562 61.582031 L 363.601562 85.234375 L 339.953125 85.234375 L 339.953125 61.582031 " fill-opacity="1" fill-rule="nonzero"/><path fill="rgb(0%, 29.019165%, 67.83905%)" d="M 261.28125 59.617188 L 288.84375 59.617188 L 288.84375 87.179688 L 261.28125 87.179688 L 261.28125 59.617188 " fill-opacity="1" fill-rule="nonzero"/><path fill="rgb(0%, 29.019165%, 67.83905%)" d="M 261.28125 87.273438 L 261.191406 87.273438 L 261.191406 59.523438 L 288.9375 59.523438 L 288.9375 87.273438 L 261.28125 87.273438 M 261.375 59.710938 L 261.375 87.085938 L 288.753906 87.085938 L 288.753906 59.710938 L 261.375 59.710938 " fill-opacity="1" fill-rule="nonzero"/><path fill="rgb(49.409485%, 85.099792%, 34.118652%)" d="M 263.230469 61.582031 L 286.878906 61.582031 L 286.878906 85.234375 L 263.230469 85.234375 L 263.230469 61.582031 " fill-opacity="1" fill-rule="nonzero"/><path fill="rgb(0%, 29.019165%, 67.83905%)" d="M 313.347656 59.617188 L 340.910156 59.617188 L 340.910156 87.179688 L 313.347656 87.179688 L 313.347656 59.617188 " fill-opacity="1" fill-rule="nonzero"/><path fill="rgb(0%, 29.019165%, 67.83905%)" d="M 313.347656 87.273438 L 313.257812 87.273438 L 313.257812 59.523438 L 341.003906 59.523438 L 341.003906 87.273438 L 313.347656 87.273438 M 313.441406 59.710938 L 313.441406 87.085938 L 340.820312 87.085938 L 340.820312 59.710938 L 313.441406 59.710938 " fill-opacity="1" fill-rule="nonzero"/><path fill="rgb(49.409485%, 85.099792%, 34.118652%)" d="M 315.296875 61.582031 L 338.945312 61.582031 L 338.945312 85.234375 L 315.296875 85.234375 L 315.296875 61.582031 " fill-opacity="1" fill-rule="nonzero"/><path fill="rgb(0%, 29.019165%, 67.83905%)" d="M 363.890625 59.617188 L 391.453125 59.617188 L 391.453125 87.179688 L 363.890625 87.179688 L 363.890625 59.617188 " fill-opacity="1" fill-rule="nonzero"/><path fill="rgb(0%, 29.019165%, 67.83905%)" d="M 363.890625 87.273438 L 363.796875 87.273438 L 363.796875 59.523438 L 391.546875 59.523438 L 391.546875 87.273438 L 363.890625 87.273438 M 363.984375 59.710938 L 363.984375 87.085938 L 391.363281 87.085938 L 391.363281 59.710938 L 363.984375 59.710938 " fill-opacity="1" fill-rule="nonzero"/><path fill="rgb(49.409485%, 85.099792%, 34.118652%)" d="M 365.839844 61.582031 L 389.488281 61.582031 L 389.488281 85.234375 L 365.839844 85.234375 L 365.839844 61.582031 " fill-opacity="1" fill-rule="nonzero"/><g fill="rgb(100%, 100%, 100%)" fill-opacity="1"><g transform="translate(244.700141, 77.982315)"><g><path d="M 7.296875 0 L 4.1875 0 L 4.1875 -6 C 4.1875 -6.71875 4.203125 -7.378906 4.234375 -7.984375 C 4.046875 -7.753906 3.8125 -7.515625 3.53125 -7.265625 L 2.234375 -6.203125 L 0.65625 -8.15625 L 4.53125 -11.328125 L 7.296875 -11.328125 Z M 7.296875 0 "/></g></g></g><g fill="rgb(100%, 100%, 100%)" fill-opacity="1"><g transform="translate(270.585577, 77.982315)"><g><path d="M 8.3125 -8.859375 C 8.3125 -8.160156 8.097656 -7.554688 7.671875 -7.046875 C 7.242188 -6.546875 6.625 -6.1875 5.8125 -5.96875 L 5.8125 -5.921875 C 7.695312 -5.679688 8.640625 -4.785156 8.640625 -3.234375 C 8.640625 -2.179688 8.222656 -1.351562 7.390625 -0.75 C 6.554688 -0.144531 5.398438 0.15625 3.921875 0.15625 C 3.304688 0.15625 2.738281 0.109375 2.21875 0.015625 C 1.707031 -0.0664062 1.148438 -0.222656 0.546875 -0.453125 L 0.546875 -3 C 1.035156 -2.75 1.535156 -2.5625 2.046875 -2.4375 C 2.566406 -2.3125 3.046875 -2.25 3.484375 -2.25 C 4.148438 -2.25 4.632812 -2.34375 4.9375 -2.53125 C 5.25 -2.71875 5.40625 -3.015625 5.40625 -3.421875 C 5.40625 -3.734375 5.320312 -3.972656 5.15625 -4.140625 C 5 -4.304688 4.742188 -4.429688 4.390625 -4.515625 C 4.035156 -4.597656 3.570312 -4.640625 3 -4.640625 L 2.296875 -4.640625 L 2.296875 -6.953125 L 3.015625 -6.953125 C 4.566406 -6.953125 5.34375 -7.347656 5.34375 -8.140625 C 5.34375 -8.441406 5.226562 -8.660156 5 -8.796875 C 4.769531 -8.941406 4.460938 -9.015625 4.078125 -9.015625 C 3.347656 -9.015625 2.597656 -8.773438 1.828125 -8.296875 L 0.5625 -10.34375 C 1.15625 -10.75 1.765625 -11.039062 2.390625 -11.21875 C 3.023438 -11.394531 3.742188 -11.484375 4.546875 -11.484375 C 5.722656 -11.484375 6.644531 -11.25 7.3125 -10.78125 C 7.976562 -10.320312 8.3125 -9.679688 8.3125 -8.859375 Z M 8.3125 -8.859375 "/></g></g></g><g fill="rgb(100%, 100%, 100%)" fill-opacity="1"><g transform="translate(322.651787, 77.982315)"><g><path d="M 5.140625 -7.421875 C 5.796875 -7.421875 6.382812 -7.269531 6.90625 -6.96875 C 7.425781 -6.664062 7.832031 -6.238281 8.125 -5.6875 C 8.414062 -5.132812 8.5625 -4.492188 8.5625 -3.765625 C 8.5625 -2.503906 8.179688 -1.535156 7.421875 -0.859375 C 6.660156 -0.179688 5.507812 0.15625 3.96875 0.15625 C 2.644531 0.15625 1.566406 -0.046875 0.734375 -0.453125 L 0.734375 -2.96875 C 1.179688 -2.757812 1.6875 -2.585938 2.25 -2.453125 C 2.8125 -2.316406 3.296875 -2.25 3.703125 -2.25 C 4.273438 -2.25 4.710938 -2.367188 5.015625 -2.609375 C 5.316406 -2.847656 5.46875 -3.203125 5.46875 -3.671875 C 5.46875 -4.109375 5.3125 -4.445312 5 -4.6875 C 4.695312 -4.9375 4.226562 -5.0625 3.59375 -5.0625 C 3.113281 -5.0625 2.597656 -4.96875 2.046875 -4.78125 L 0.921875 -5.34375 L 1.34375 -11.328125 L 7.8125 -11.328125 L 7.8125 -8.78125 L 3.953125 -8.78125 L 3.8125 -7.28125 C 4.207031 -7.351562 4.488281 -7.394531 4.65625 -7.40625 C 4.832031 -7.414062 4.992188 -7.421875 5.140625 -7.421875 Z M 5.140625 -7.421875 "/></g></g></g><g fill="rgb(100%, 100%, 100%)" fill-opacity="1"><g transform="translate(296.271492, 77.982315)"><g><path d="M 9.046875 -2.1875 L 7.8125 -2.1875 L 7.8125 0 L 4.78125 0 L 4.78125 -2.1875 L 0.265625 -2.1875 L 0.265625 -4.4375 L 4.984375 -11.328125 L 7.8125 -11.328125 L 7.8125 -4.46875 L 9.046875 -4.46875 Z M 4.78125 -4.46875 L 4.78125 -5.796875 C 4.78125 -6.046875 4.789062 -6.378906 4.8125 -6.796875 C 4.832031 -7.210938 4.847656 -7.429688 4.859375 -7.453125 L 4.765625 -7.453125 C 4.585938 -7.054688 4.390625 -6.6875 4.171875 -6.34375 L 2.921875 -4.46875 Z M 4.78125 -4.46875 "/></g></g></g><g fill="rgb(100%, 100%, 100%)" fill-opacity="1"><g transform="translate(373.194452, 77.982315)"><g><path d="M 4.671875 -11.484375 C 5.867188 -11.484375 6.796875 -11.242188 7.453125 -10.765625 C 8.117188 -10.285156 8.453125 -9.601562 8.453125 -8.71875 C 8.453125 -8.125 8.296875 -7.597656 7.984375 -7.140625 C 7.671875 -6.691406 7.175781 -6.300781 6.5 -5.96875 C 7.34375 -5.488281 7.9375 -5.007812 8.28125 -4.53125 C 8.625 -4.0625 8.796875 -3.554688 8.796875 -3.015625 C 8.796875 -2.003906 8.429688 -1.222656 7.703125 -0.671875 C 6.972656 -0.117188 5.953125 0.15625 4.640625 0.15625 C 3.304688 0.15625 2.285156 -0.113281 1.578125 -0.65625 C 0.878906 -1.195312 0.53125 -1.972656 0.53125 -2.984375 C 0.53125 -3.640625 0.6875 -4.195312 1 -4.65625 C 1.3125 -5.113281 1.84375 -5.535156 2.59375 -5.921875 C 1.988281 -6.316406 1.546875 -6.742188 1.265625 -7.203125 C 0.992188 -7.671875 0.859375 -8.179688 0.859375 -8.734375 C 0.859375 -9.597656 1.195312 -10.269531 1.875 -10.75 C 2.550781 -11.238281 3.484375 -11.484375 4.671875 -11.484375 Z M 3.328125 -3.109375 C 3.328125 -2.785156 3.441406 -2.523438 3.671875 -2.328125 C 3.898438 -2.140625 4.210938 -2.046875 4.609375 -2.046875 C 5.523438 -2.046875 5.984375 -2.378906 5.984375 -3.046875 C 5.984375 -3.296875 5.878906 -3.539062 5.671875 -3.78125 C 5.472656 -4.03125 5.117188 -4.304688 4.609375 -4.609375 C 4.148438 -4.367188 3.820312 -4.125 3.625 -3.875 C 3.425781 -3.632812 3.328125 -3.378906 3.328125 -3.109375 Z M 4.65625 -9.28125 C 4.394531 -9.28125 4.171875 -9.203125 3.984375 -9.046875 C 3.804688 -8.890625 3.71875 -8.691406 3.71875 -8.453125 C 3.71875 -8.015625 4.019531 -7.625 4.625 -7.28125 C 5 -7.488281 5.25 -7.679688 5.375 -7.859375 C 5.507812 -8.035156 5.578125 -8.234375 5.578125 -8.453125 C 5.578125 -8.703125 5.488281 -8.898438 5.3125 -9.046875 C 5.132812 -9.203125 4.914062 -9.28125 4.65625 -9.28125 Z M 4.65625 -9.28125 "/></g></g></g><g fill="rgb(100%, 100%, 100%)" fill-opacity="1"><g transform="translate(347.309019, 77.982315)"><g><path d="M 1.625 0 L 5.5 -8.78125 L 0.609375 -8.78125 L 0.609375 -11.3125 L 8.78125 -11.3125 L 8.78125 -9.5 L 4.78125 0 Z M 1.625 0 "/></g></g></g><g fill="rgb(100%, 100%, 100%)" fill-opacity="1"><g transform="translate(203.393596, 80.690817)"><g><path d="M 8.265625 -4.875 L 6.6875 -9.171875 C 6.613281 -9.367188 6.535156 -9.597656 6.453125 -9.859375 C 6.367188 -10.117188 6.285156 -10.398438 6.203125 -10.703125 C 6.128906 -10.398438 6.050781 -10.113281 5.96875 -9.84375 C 5.882812 -9.582031 5.800781 -9.351562 5.71875 -9.15625 L 4.15625 -4.875 Z M 12.515625 0 L 10.65625 0 C 10.445312 0 10.273438 -0.0507812 10.140625 -0.15625 C 10.015625 -0.257812 9.914062 -0.390625 9.84375 -0.546875 L 8.890625 -3.1875 L 3.53125 -3.1875 L 2.5625 -0.546875 C 2.519531 -0.410156 2.425781 -0.285156 2.28125 -0.171875 C 2.144531 -0.0546875 1.976562 0 1.78125 0 L -0.09375 0 L 4.984375 -12.921875 L 7.4375 -12.921875 Z M 12.515625 0 "/></g></g></g><g fill="rgb(100%, 100%, 100%)" fill-opacity="1"><g transform="translate(215.804391, 80.690817)"><g><path d="M 3.171875 -7.578125 C 3.460938 -8.128906 3.800781 -8.5625 4.1875 -8.875 C 4.582031 -9.1875 5.050781 -9.34375 5.59375 -9.34375 C 6.007812 -9.34375 6.347656 -9.25 6.609375 -9.0625 L 6.46875 -7.40625 C 6.4375 -7.300781 6.390625 -7.222656 6.328125 -7.171875 C 6.273438 -7.128906 6.203125 -7.109375 6.109375 -7.109375 C 6.015625 -7.109375 5.878906 -7.125 5.703125 -7.15625 C 5.523438 -7.1875 5.351562 -7.203125 5.1875 -7.203125 C 4.945312 -7.203125 4.726562 -7.164062 4.53125 -7.09375 C 4.34375 -7.019531 4.171875 -6.914062 4.015625 -6.78125 C 3.867188 -6.65625 3.738281 -6.492188 3.625 -6.296875 C 3.507812 -6.109375 3.398438 -5.894531 3.296875 -5.65625 L 3.296875 0 L 1.09375 0 L 1.09375 -9.171875 L 2.390625 -9.171875 C 2.609375 -9.171875 2.765625 -9.128906 2.859375 -9.046875 C 2.953125 -8.960938 3.007812 -8.816406 3.03125 -8.609375 Z M 3.171875 -7.578125 "/></g></g></g><g fill="rgb(100%, 100%, 100%)" fill-opacity="1"><g transform="translate(222.469938, 80.690817)"><g><path d="M 3.171875 -7.578125 C 3.460938 -8.128906 3.800781 -8.5625 4.1875 -8.875 C 4.582031 -9.1875 5.050781 -9.34375 5.59375 -9.34375 C 6.007812 -9.34375 6.347656 -9.25 6.609375 -9.0625 L 6.46875 -7.40625 C 6.4375 -7.300781 6.390625 -7.222656 6.328125 -7.171875 C 6.273438 -7.128906 6.203125 -7.109375 6.109375 -7.109375 C 6.015625 -7.109375 5.878906 -7.125 5.703125 -7.15625 C 5.523438 -7.1875 5.351562 -7.203125 5.1875 -7.203125 C 4.945312 -7.203125 4.726562 -7.164062 4.53125 -7.09375 C 4.34375 -7.019531 4.171875 -6.914062 4.015625 -6.78125 C 3.867188 -6.65625 3.738281 -6.492188 3.625 -6.296875 C 3.507812 -6.109375 3.398438 -5.894531 3.296875 -5.65625 L 3.296875 0 L 1.09375 0 L 1.09375 -9.171875 L 2.390625 -9.171875 C 2.609375 -9.171875 2.765625 -9.128906 2.859375 -9.046875 C 2.953125 -8.960938 3.007812 -8.816406 3.03125 -8.609375 Z M 3.171875 -7.578125 "/></g></g></g></svg>