<?xml version="1.0" encoding="utf-8"?>
<!-- Generator: Adobe Illustrator 25.2.3, SVG Export Plug-In . SVG Version: 6.00 Build 0)  -->
<svg version="1.1" id="Layer_1" xmlns="http://www.w3.org/2000/svg" xmlns:xlink="http://www.w3.org/1999/xlink" x="0px" y="0px"
	 viewBox="0 0 251 37" style="enable-background:new 0 0 251 37;" xml:space="preserve">
<style type="text/css">
	.st0{fill:#004AAD;}
	.st1{fill:#7ED957;}
	.st2{fill:#FFFFFF;}
</style>
<path class="st0" d="M42.8,0.1h36.8v36.8H42.8V0.1"/>
<path class="st0" d="M42.8,37h-0.1V0h37v37H42.8 M42.9,0.2v36.5h36.5V0.2H42.9"/>
<path class="st1" d="M45.4,2.7h31.5v31.5H45.4V2.7"/>
<path class="st0" d="M112.2,0.1H149v36.8h-36.8V0.1"/>
<path class="st0" d="M112.2,37h-0.1V0h37v37H112.2 M112.3,0.2v36.5h36.5V0.2H112.3"/>
<path class="st1" d="M114.8,2.7h31.5v31.5h-31.5V2.7"/>
<path class="st0" d="M179.6,0.1h36.8v36.8h-36.8V0.1"/>
<path class="st0" d="M179.6,37h-0.1V0h37v37H179.6 M179.7,0.2v36.5h36.5V0.2H179.7"/>
<path class="st1" d="M182.2,2.7h31.5v31.5h-31.5V2.7"/>
<path class="st0" d="M77.3,0.1h36.8v36.8H77.3V0.1"/>
<path class="st0" d="M77.3,37h-0.1V0h37v37H77.3 M77.4,0.2v36.5h36.5V0.2H77.4"/>
<path class="st1" d="M79.9,2.7h31.5v31.5H79.9V2.7"/>
<path class="st0" d="M146.7,0.1h36.8v36.8h-36.8V0.1"/>
<path class="st0" d="M146.7,37h-0.1V0h37v37H146.7 M146.9,0.2v36.5h36.5V0.2H146.9"/>
<path class="st1" d="M149.3,2.7h31.5v31.5h-31.5V2.7"/>
<path class="st0" d="M214.1,0.1h36.8v36.8h-36.8V0.1"/>
<path class="st0" d="M214.1,37H214V0h37v37H214.1 M214.2,0.2v36.5h36.5V0.2H214.2"/>
<path class="st1" d="M216.7,2.7h31.5v31.5h-31.5V2.7"/>
<g>
	<g transform="translate(244.700141, 77.982315)">
		<g>
			<path class="st2" d="M-179.8-53.4h-4.1v-8c0-1,0-1.8,0.1-2.6c-0.2,0.3-0.6,0.6-0.9,1l-1.7,1.4l-2.1-2.6l5.2-4.2h3.7V-53.4z"/>
		</g>
	</g>
</g>
<g>
	<g transform="translate(270.585577, 77.982315)">
		<g>
			<path class="st2" d="M-169.8-65.2c0,0.9-0.3,1.7-0.9,2.4c-0.6,0.7-1.4,1.1-2.5,1.4v0.1c2.5,0.3,3.8,1.5,3.8,3.6
				c0,1.4-0.6,2.5-1.7,3.3c-1.1,0.8-2.7,1.2-4.6,1.2c-0.8,0-1.6-0.1-2.3-0.2c-0.7-0.1-1.4-0.3-2.2-0.6v-3.4c0.7,0.3,1.3,0.6,2,0.8
				c0.7,0.2,1.3,0.2,1.9,0.2c0.9,0,1.5-0.1,1.9-0.4c0.4-0.2,0.6-0.6,0.6-1.2c0-0.4-0.1-0.7-0.3-1c-0.2-0.2-0.6-0.4-1-0.5
				c-0.5-0.1-1.1-0.2-1.9-0.2h-0.9v-3.1h1c2.1,0,3.1-0.5,3.1-1.6c0-0.4-0.2-0.7-0.5-0.9c-0.3-0.2-0.7-0.3-1.2-0.3c-1,0-2,0.3-3,1
				l-1.7-2.7c0.8-0.5,1.6-0.9,2.4-1.2c0.8-0.2,1.8-0.4,2.9-0.4c1.6,0,2.8,0.3,3.7,0.9C-170.2-67.1-169.8-66.3-169.8-65.2z"/>
		</g>
	</g>
</g>
<g>
	<g transform="translate(322.651787, 77.982315)">
		<g>
			<path class="st2" d="M-156.7-63.3c0.9,0,1.7,0.2,2.4,0.6c0.7,0.4,1.2,1,1.6,1.7c0.4,0.7,0.6,1.6,0.6,2.6c0,1.7-0.5,3-1.5,3.9
				c-1,0.9-2.6,1.4-4.6,1.4c-1.8,0-3.2-0.3-4.3-0.8v-3.4c0.6,0.3,1.3,0.5,2,0.7c0.8,0.2,1.4,0.3,1.9,0.3c0.8,0,1.3-0.2,1.8-0.5
				c0.4-0.3,0.6-0.8,0.6-1.4c0-0.6-0.2-1-0.6-1.4c-0.4-0.3-1-0.5-1.9-0.5c-0.6,0-1.3,0.1-2.1,0.4l-1.5-0.8l0.6-8h8.6v3.4h-5.1
				l-0.2,2c0.5-0.1,0.9-0.2,1.1-0.2C-157.1-63.3-156.9-63.3-156.7-63.3z"/>
		</g>
	</g>
</g>
<g>
	<g transform="translate(296.271492, 77.982315)">
		<g>
			<path class="st2" d="M-160.2-56.3h-1.6v2.9h-4v-2.9h-6v-3l6.3-9.2h3.8v9.1h1.6V-56.3z M-165.9-59.3v-1.8c0-0.3,0-0.8,0-1.3
				c0-0.6,0-0.8,0.1-0.9h-0.1c-0.2,0.5-0.5,1-0.8,1.5l-1.7,2.5H-165.9z"/>
		</g>
	</g>
</g>
<g>
	<g transform="translate(373.194452, 77.982315)">
		<g>
			<path class="st2" d="M-140.4-68.7c1.6,0,2.8,0.3,3.7,1c0.9,0.6,1.3,1.6,1.3,2.7c0,0.8-0.2,1.5-0.6,2.1c-0.4,0.6-1.1,1.1-2,1.6
				c1.1,0.6,1.9,1.3,2.4,1.9c0.5,0.6,0.7,1.3,0.7,2c0,1.3-0.5,2.4-1.5,3.1c-1,0.7-2.3,1.1-4.1,1.1c-1.8,0-3.1-0.4-4.1-1.1
				c-0.9-0.7-1.4-1.8-1.4-3.1c0-0.9,0.2-1.6,0.6-2.2c0.4-0.6,1.1-1.2,2.1-1.7c-0.8-0.5-1.4-1.1-1.8-1.7c-0.4-0.6-0.5-1.3-0.5-2
				c0-1.2,0.4-2,1.4-2.7C-143.3-68.4-142-68.7-140.4-68.7z M-142.2-57.5c0,0.4,0.2,0.8,0.5,1c0.3,0.2,0.7,0.4,1.2,0.4
				c1.2,0,1.8-0.4,1.8-1.3c0-0.3-0.1-0.7-0.4-1c-0.3-0.3-0.7-0.7-1.4-1.1c-0.6,0.3-1.1,0.6-1.3,1C-142.1-58.2-142.2-57.9-142.2-57.5
				z M-140.5-65.7c-0.3,0-0.6,0.1-0.9,0.3c-0.2,0.2-0.4,0.5-0.4,0.8c0,0.6,0.4,1.1,1.2,1.6c0.5-0.3,0.8-0.5,1-0.8
				c0.2-0.2,0.3-0.5,0.3-0.8c0-0.3-0.1-0.6-0.4-0.8C-139.8-65.6-140.1-65.7-140.5-65.7z"/>
		</g>
	</g>
</g>
<g>
	<g transform="translate(347.309019, 77.982315)">
		<g>
			<path class="st2" d="M-153.1-53.4l5.2-11.7h-6.5v-3.4h10.9v2.4l-5.3,12.7H-153.1z"/>
		</g>
	</g>
</g>
<g>
	<g transform="translate(203.393596, 80.690817)">
		<g>
			<path class="st2" d="M-192.2-59l-2.1-5.7c-0.1-0.3-0.2-0.6-0.3-0.9c-0.1-0.3-0.2-0.7-0.3-1.1c-0.1,0.4-0.2,0.8-0.3,1.1
				c-0.1,0.3-0.2,0.7-0.3,0.9l-2.1,5.7H-192.2z M-186.6-52.5h-2.5c-0.3,0-0.5-0.1-0.7-0.2c-0.2-0.1-0.3-0.3-0.4-0.5l-1.3-3.5h-7.1
				l-1.3,3.5c-0.1,0.2-0.2,0.3-0.4,0.5c-0.2,0.2-0.4,0.2-0.7,0.2h-2.5l6.8-17.2h3.3L-186.6-52.5z"/>
		</g>
	</g>
</g>
<g>
	<g transform="translate(215.804391, 80.690817)">
		<g>
			<path class="st2" d="M-194.9-62.6c0.4-0.7,0.8-1.3,1.4-1.7c0.5-0.4,1.2-0.6,1.9-0.6c0.6,0,1,0.1,1.4,0.4l-0.2,2.2
				c0,0.1-0.1,0.2-0.2,0.3c-0.1,0.1-0.2,0.1-0.3,0.1s-0.3,0-0.5-0.1c-0.2,0-0.5-0.1-0.7-0.1c-0.3,0-0.6,0.1-0.9,0.1
				c-0.2,0.1-0.5,0.2-0.7,0.4c-0.2,0.2-0.4,0.4-0.5,0.6c-0.2,0.2-0.3,0.5-0.4,0.9v7.5h-2.9v-12.2h1.7c0.3,0,0.5,0.1,0.6,0.2
				c0.1,0.1,0.2,0.3,0.2,0.6L-194.9-62.6z"/>
		</g>
	</g>
</g>
<g>
	<g transform="translate(222.469938, 80.690817)">
		<g>
			<path class="st2" d="M-192.7-62.6c0.4-0.7,0.8-1.3,1.4-1.7c0.5-0.4,1.2-0.6,1.9-0.6c0.6,0,1,0.1,1.4,0.4l-0.2,2.2
				c0,0.1-0.1,0.2-0.2,0.3c-0.1,0.1-0.2,0.1-0.3,0.1s-0.3,0-0.5-0.1c-0.2,0-0.5-0.1-0.7-0.1c-0.3,0-0.6,0.1-0.9,0.1
				c-0.2,0.1-0.5,0.2-0.7,0.4c-0.2,0.2-0.4,0.4-0.5,0.6c-0.2,0.2-0.3,0.5-0.4,0.9v7.5h-2.9v-12.2h1.7c0.3,0,0.5,0.1,0.6,0.2
				c0.1,0.1,0.2,0.3,0.2,0.6L-192.7-62.6z"/>
		</g>
	</g>
</g>
</svg>
