<?xml version="1.0" encoding="utf-8"?>
<!-- Generator: Adobe Illustrator 25.2.3, SVG Export Plug-In . SVG Version: 6.00 Build 0)  -->
<svg version="1.1" id="Layer_1" xmlns="http://www.w3.org/2000/svg" xmlns:xlink="http://www.w3.org/1999/xlink" x="0px" y="0px"
	 viewBox="0 0 563.7 330.3" style="enable-background:new 0 0 563.7 330.3;" xml:space="preserve">
<style type="text/css">
	.st0{fill:none;stroke:#FFDE59;stroke-linecap:round;}
	.st1{fill:#FF66C4;}
	.st2{fill:#FFFFFF;}
	.st3{clip-path:url(#SVGID_2_);}
	.st4{fill:#38B6FF;}
	.st5{fill:#004AAD;}
</style>
<path class="st0" d="M79.6,227l40.4-52.2"/>
<path class="st0" d="M145.2,174.5l40,52.6"/>
<path class="st0" d="M196.9,243.4l40,52.6"/>
<path class="st0" d="M84.7,243.4l40,52.6"/>
<path class="st0" d="M24.4,300.7l40.4-52.2"/>
<path class="st1" d="M132.6,148.6c-10.8,0-19.5,8.7-19.5,19.5c0,10.8,8.7,19.5,19.5,19.5c10.8,0,19.5-8.7,19.5-19.5
	C152.1,157.4,143.4,148.6,132.6,148.6"/>
<path class="st1" d="M19.5,290.6C8.7,290.6,0,299.3,0,310.1c0,10.8,8.7,19.5,19.5,19.5S39,320.9,39,310.1
	C39,299.3,30.3,290.6,19.5,290.6"/>
<path class="st1" d="M76.3,217.6c-10.8,0-19.5,8.7-19.5,19.5c0,10.8,8.7,19.5,19.5,19.5s19.5-8.7,19.5-19.5
	C95.8,226.4,87.1,217.6,76.3,217.6"/>
<path class="st1" d="M132.6,290.6c-10.8,0-19.5,8.7-19.5,19.5c0,10.8,8.7,19.5,19.5,19.5c10.8,0,19.5-8.7,19.5-19.5
	C152.1,299.3,143.4,290.6,132.6,290.6"/>
<path class="st1" d="M188.9,217.6c-10.8,0-19.5,8.7-19.5,19.5c0,10.8,8.7,19.5,19.5,19.5c10.8,0,19.5-8.7,19.5-19.5
	C208.4,226.4,199.7,217.6,188.9,217.6"/>
<path class="st1" d="M246.2,290.6c-10.8,0-19.5,8.7-19.5,19.5c0,10.8,8.7,19.5,19.5,19.5c10.8,0,19.5-8.7,19.5-19.5
	C265.7,299.3,257,290.6,246.2,290.6"/>
<path class="st0" d="M377.7,227.7l40.4-52.2"/>
<path class="st0" d="M443.2,175.2l40,52.6"/>
<path class="st0" d="M494.9,244.1l40,52.6"/>
<path class="st0" d="M382.7,244.1l40,52.6"/>
<path class="st0" d="M322.4,301.4l40.4-52.2"/>
<path class="st1" d="M430.6,149.3c-10.8,0-19.5,8.7-19.5,19.5c0,10.8,8.7,19.5,19.5,19.5c10.8,0,19.5-8.7,19.5-19.5
	C450.1,158,441.4,149.3,430.6,149.3"/>
<path class="st1" d="M317.5,291.3c-10.8,0-19.5,8.7-19.5,19.5c0,10.8,8.7,19.5,19.5,19.5c10.8,0,19.5-8.7,19.5-19.5
	C337,300,328.3,291.3,317.5,291.3"/>
<path class="st1" d="M374.3,218.3c-10.8,0-19.5,8.7-19.5,19.5c0,10.8,8.7,19.5,19.5,19.5c10.8,0,19.5-8.7,19.5-19.5
	C393.8,227,385.1,218.3,374.3,218.3"/>
<path class="st1" d="M430.6,291.3c-10.8,0-19.5,8.7-19.5,19.5c0,10.8,8.7,19.5,19.5,19.5c10.8,0,19.5-8.7,19.5-19.5
	C450.1,300,441.4,291.3,430.6,291.3"/>
<path class="st1" d="M487,218.3c-10.8,0-19.5,8.7-19.5,19.5c0,10.8,8.7,19.5,19.5,19.5c10.8,0,19.5-8.7,19.5-19.5
	C506.5,227,497.7,218.3,487,218.3"/>
<path class="st1" d="M544.2,291.3c-10.8,0-19.5,8.7-19.5,19.5c0,10.8,8.7,19.5,19.5,19.5c10.8,0,19.5-8.7,19.5-19.5
	C563.7,300,555,291.3,544.2,291.3"/>
<g>
	<g transform="translate(426.694309, 188.758568)">
		<g>
			<path class="st2" d="M4.1-27.7c1.7,0,2.9,0.3,3.8,1c0.9,0.7,1.4,1.6,1.4,2.8c0,0.8-0.2,1.6-0.6,2.2c-0.4,0.6-1.1,1.2-2,1.6
				c1.2,0.7,2,1.3,2.4,2c0.5,0.7,0.7,1.4,0.7,2.1c0,1.4-0.5,2.5-1.5,3.2c-1,0.8-2.4,1.1-4.2,1.1c-1.8,0-3.2-0.4-4.2-1.1
				c-1-0.8-1.5-1.8-1.5-3.2c0-0.9,0.2-1.7,0.6-2.3c0.4-0.6,1.2-1.2,2.2-1.7c-0.8-0.6-1.4-1.2-1.8-1.8c-0.4-0.6-0.6-1.3-0.6-2.1
				c0-1.2,0.5-2.1,1.4-2.8C1.2-27.4,2.5-27.7,4.1-27.7z M2.3-16.1c0,0.4,0.2,0.8,0.5,1.1C3-14.8,3.5-14.7,4-14.7
				c1.2,0,1.9-0.5,1.9-1.4c0-0.3-0.1-0.7-0.4-1c-0.3-0.3-0.8-0.7-1.5-1.1c-0.6,0.3-1.1,0.7-1.4,1C2.4-16.9,2.3-16.5,2.3-16.1z
				 M4.1-24.7c-0.4,0-0.7,0.1-0.9,0.3c-0.2,0.2-0.4,0.5-0.4,0.8c0,0.6,0.4,1.2,1.3,1.6c0.5-0.3,0.8-0.6,1-0.8
				c0.2-0.2,0.3-0.5,0.3-0.8c0-0.3-0.1-0.6-0.4-0.8C4.7-24.5,4.4-24.7,4.1-24.7z"/>
		</g>
	</g>
</g>
<g>
	<g transform="translate(384.466388, 240.516735)">
		<g>
			<path class="st2" d="M-3.9,2.4h-1.7v3h-4.2v-3H-16v-3.1l6.5-9.5h3.9v9.4h1.7V2.4z M-9.8-0.8v-1.8c0-0.3,0-0.8,0-1.4
				c0-0.6,0-0.9,0.1-0.9h-0.1c-0.2,0.5-0.5,1.1-0.8,1.5l-1.8,2.6H-9.8z"/>
		</g>
	</g>
</g>
<g>
	<g transform="translate(340.607799, 295.244613)">
		<g>
			<path class="st2" d="M-21,23.7h-4.3v-8.3c0-1,0-1.9,0.1-2.8c-0.3,0.3-0.6,0.7-1,1l-1.8,1.5l-2.2-2.7l5.4-4.4h3.8V23.7z"/>
		</g>
	</g>
</g>
<g>
	<g transform="translate(426.694309, 295.244613)">
		<g>
			<path class="st2" d="M9.1,11.4c0,1-0.3,1.8-0.9,2.5c-0.6,0.7-1.5,1.2-2.6,1.5v0.1c2.6,0.3,3.9,1.6,3.9,3.7c0,1.5-0.6,2.6-1.7,3.4
				c-1.2,0.8-2.8,1.2-4.8,1.2c-0.8,0-1.6-0.1-2.4-0.2C0,23.6-0.8,23.4-1.6,23v-3.5c0.7,0.4,1.4,0.6,2.1,0.8c0.7,0.2,1.4,0.2,2,0.2
				c0.9,0,1.6-0.1,2-0.4c0.4-0.3,0.6-0.7,0.6-1.2c0-0.4-0.1-0.8-0.3-1c-0.2-0.2-0.6-0.4-1.1-0.5c-0.5-0.1-1.1-0.2-1.9-0.2h-1v-3.2h1
				C4,14.1,5,13.5,5,12.4c0-0.4-0.2-0.7-0.5-0.9c-0.3-0.2-0.7-0.3-1.3-0.3c-1,0-2,0.3-3.1,1l-1.8-2.8c0.8-0.6,1.7-1,2.5-1.2
				c0.9-0.2,1.9-0.4,3-0.4c1.6,0,2.9,0.3,3.8,1C8.7,9.4,9.1,10.3,9.1,11.4z"/>
		</g>
	</g>
</g>
<g>
	<g transform="translate(511.870008, 295.244613)">
		<g>
			<path class="st2" d="M33.2,13.4c0.9,0,1.7,0.2,2.4,0.6c0.7,0.4,1.3,1,1.7,1.8c0.4,0.8,0.6,1.6,0.6,2.6c0,1.8-0.5,3.1-1.6,4
				c-1.1,0.9-2.6,1.4-4.8,1.4c-1.8,0-3.3-0.3-4.5-0.8v-3.5c0.6,0.3,1.3,0.5,2.1,0.7c0.8,0.2,1.4,0.3,2,0.3c0.8,0,1.4-0.2,1.8-0.5
				c0.4-0.3,0.6-0.8,0.6-1.5c0-0.6-0.2-1.1-0.6-1.4c-0.4-0.3-1.1-0.5-1.9-0.5c-0.7,0-1.4,0.1-2.2,0.4l-1.5-0.8L27.9,8h8.9v3.5h-5.3
				l-0.2,2.1c0.6-0.1,1-0.2,1.2-0.2C32.7,13.4,32.9,13.4,33.2,13.4z"/>
		</g>
	</g>
</g>
<g>
	<g transform="translate(468.922239, 240.516735)">
		<g>
			<path class="st2" d="M14,5.4l5.4-12.1h-6.8v-3.5h11.3v2.5L18.3,5.4H14z"/>
		</g>
	</g>
</g>
<g>
	<defs>
		<rect id="SVGID_1_" x="255" y="201.1" width="50" height="49"/>
	</defs>
	<clipPath id="SVGID_2_">
		<use xlink:href="#SVGID_1_"  style="overflow:visible;"/>
	</clipPath>
	<g class="st3">
		<path class="st4" d="M281.2,201.1c0.1,0,0.2,0,0.2,0.1c0.1,0,0.2,0.1,0.2,0.1l23.1,23.9c0.2,0.2,0.2,0.5,0,0.8l-23.1,23.9
			c-0.1,0.1-0.2,0.2-0.4,0.2l-3.5,0.1c-0.2,0-0.3-0.1-0.4-0.2c-0.2-0.1-0.2-0.2-0.2-0.4v-9.3c0-0.2,0.1-0.3,0.2-0.4l14-14.3
			l-14.1-14.2c-0.1-0.1-0.2-0.2-0.2-0.4v-7c0-0.2,0.1-0.4,0.3-0.4l3.5-2.2C281,201.1,281.1,201.1,281.2,201.1z M303.7,225.5
			l-22.5-23.2l-2.9,1.9v6.5l14.2,14.4c0.2,0.2,0.2,0.6,0,0.8l-14.2,14.5v8.6l2.8-0.1L303.7,225.5z M259,201.1c0.1,0,0.2,0,0.2,0.1
			c0.1,0,0.2,0.1,0.2,0.1l23.2,23.9c0.2,0.2,0.2,0.5,0,0.8l-23.2,23.9c-0.1,0.1-0.2,0.2-0.4,0.2l-3.5,0.1c-0.2,0-0.3-0.1-0.4-0.2
			s-0.2-0.2-0.2-0.4v-9.3c0-0.2,0.1-0.3,0.2-0.4l14-14.3l-14-14.2c-0.1-0.1-0.2-0.2-0.2-0.4v-7c0-0.2,0.1-0.4,0.3-0.4l3.5-2.2
			C258.9,201.1,259,201.1,259,201.1z M281.5,225.5L259,202.3l-2.9,1.9v6.5l14.2,14.4c0.2,0.2,0.2,0.6,0,0.8l-14.2,14.5v8.6l2.8-0.1
			L281.5,225.5z"/>
	</g>
</g>
<g>
	<g transform="translate(203.1707, 188.252213)">
		<g>
			<path class="st2" d="M-64.3-15h-1.7v3h-4.2v-3h-6.2v-3.1l6.5-9.5h3.9v9.4h1.7V-15z M-70.2-18.2V-20c0-0.3,0-0.8,0-1.4
				c0-0.6,0-0.9,0.1-0.9h-0.1c-0.2,0.5-0.5,1.1-0.8,1.5l-1.8,2.6H-70.2z"/>
		</g>
	</g>
</g>
<g>
	<g transform="translate(160.942775, 240.010378)">
		<g>
			<path class="st2" d="M-79.4-7c0,1-0.3,1.8-0.9,2.5c-0.6,0.7-1.5,1.2-2.6,1.5v0.1c2.6,0.3,3.9,1.6,3.9,3.7c0,1.5-0.6,2.6-1.7,3.4
				c-1.2,0.8-2.8,1.2-4.8,1.2c-0.8,0-1.6-0.1-2.4-0.2c-0.7-0.1-1.5-0.3-2.3-0.6V1.1c0.7,0.4,1.4,0.6,2.1,0.8s1.4,0.3,2,0.3
				c0.9,0,1.6-0.1,2-0.4c0.4-0.3,0.6-0.7,0.6-1.2c0-0.4-0.1-0.8-0.3-1C-84-0.7-84.4-0.9-84.9-1c-0.5-0.1-1.1-0.2-1.9-0.2h-1v-3.2h1
				c2.1,0,3.2-0.5,3.2-1.6c0-0.4-0.2-0.7-0.5-0.9c-0.3-0.2-0.7-0.3-1.3-0.3c-1,0-2,0.3-3.1,1L-90.2-9c0.8-0.6,1.7-1,2.5-1.2
				c0.9-0.2,1.9-0.4,3-0.4c1.6,0,2.9,0.3,3.8,1C-79.9-9-79.4-8.1-79.4-7z"/>
		</g>
	</g>
</g>
<g>
	<g transform="translate(117.084193, 294.738259)">
		<g>
			<path class="st2" d="M-95.5,23.5h-4.3v-8.3c0-1,0-1.9,0.1-2.8c-0.3,0.3-0.6,0.7-1,1l-1.8,1.5l-2.2-2.7l5.4-4.4h3.8V23.5z"/>
		</g>
	</g>
</g>
<g>
	<g transform="translate(203.1707, 294.738259)">
		<g>
			<path class="st2" d="M-70.4,7.6c1.7,0,2.9,0.3,3.8,1c0.9,0.7,1.4,1.6,1.4,2.8c0,0.8-0.2,1.6-0.6,2.2c-0.4,0.6-1.1,1.2-2,1.6
				c1.2,0.7,2,1.3,2.4,2c0.5,0.7,0.7,1.4,0.7,2.1c0,1.4-0.5,2.5-1.5,3.2c-1,0.8-2.4,1.1-4.2,1.1c-1.8,0-3.2-0.4-4.2-1.1
				c-1-0.8-1.5-1.8-1.5-3.2c0-0.9,0.2-1.7,0.6-2.3c0.4-0.6,1.2-1.2,2.2-1.7c-0.8-0.6-1.4-1.2-1.8-1.8c-0.4-0.6-0.6-1.3-0.6-2.1
				c0-1.2,0.5-2.1,1.4-2.8C-73.3,8-72,7.6-70.4,7.6z M-72.2,19.2c0,0.4,0.2,0.8,0.5,1.1c0.3,0.3,0.8,0.4,1.3,0.4
				c1.2,0,1.9-0.5,1.9-1.4c0-0.3-0.1-0.7-0.4-1c-0.3-0.3-0.8-0.7-1.5-1.1c-0.6,0.3-1.1,0.7-1.4,1C-72.1,18.5-72.2,18.8-72.2,19.2z
				 M-70.4,10.7c-0.4,0-0.7,0.1-0.9,0.3s-0.4,0.5-0.4,0.8c0,0.6,0.4,1.2,1.2,1.6c0.5-0.3,0.8-0.6,1-0.8c0.2-0.2,0.3-0.5,0.3-0.8
				c0-0.3-0.1-0.6-0.4-0.8S-70.1,10.7-70.4,10.7z"/>
		</g>
	</g>
</g>
<g>
	<g transform="translate(288.346381, 294.738259)">
		<g>
			<path class="st2" d="M-41.4,13.2c0.9,0,1.7,0.2,2.4,0.6c0.7,0.4,1.3,1,1.7,1.8c0.4,0.8,0.6,1.6,0.6,2.6c0,1.8-0.5,3.1-1.6,4
				c-1.1,0.9-2.6,1.4-4.8,1.4c-1.8,0-3.3-0.3-4.5-0.8v-3.5c0.6,0.3,1.3,0.5,2.1,0.7c0.8,0.2,1.4,0.3,2,0.3c0.8,0,1.4-0.2,1.8-0.5
				c0.4-0.3,0.6-0.8,0.6-1.5c0-0.6-0.2-1.1-0.6-1.4c-0.4-0.3-1.1-0.5-1.9-0.5c-0.7,0-1.4,0.1-2.2,0.4l-1.5-0.8l0.6-8.2h8.9v3.5H-43
				l-0.2,2.1c0.6-0.1,1-0.2,1.2-0.2C-41.8,13.2-41.6,13.2-41.4,13.2z"/>
		</g>
	</g>
</g>
<g>
	<g transform="translate(245.398597, 240.010378)">
		<g>
			<path class="st2" d="M-60.5,5.2l5.4-12.1h-6.8v-3.5h11.3v2.5l-5.5,13.1H-60.5z"/>
		</g>
	</g>
</g>
<path class="st5" d="M175.6,0.1h37.2v37.2h-37.2V0.1"/>
<path class="st5" d="M175.6,37.5h-0.1V0H213v37.5H175.6 M175.8,0.2v37h37v-37H175.8"/>
<path class="st4" d="M178.3,2.8h32v32h-32V2.8"/>
<path class="st5" d="M245.1,0.1h37.2v37.2h-37.2V0.1"/>
<path class="st5" d="M245.1,37.5h-0.1V0h37.5v37.5H245.1 M245.2,0.2v37h37v-37H245.2"/>
<path class="st4" d="M247.7,2.8h32v32h-32V2.8"/>
<path class="st5" d="M312.4,0.1h37.2v37.2h-37.2V0.1"/>
<path class="st5" d="M312.4,37.5h-0.1V0h37.5v37.5H312.4 M312.6,0.2v37h37v-37H312.6"/>
<path class="st4" d="M315.1,2.8h32v32h-32V2.8"/>
<path class="st5" d="M210.1,0.1h37.2v37.2h-37.2V0.1"/>
<path class="st5" d="M210.1,37.5H210V0h37.5v37.5H210.1 M210.3,0.2v37h37v-37H210.3"/>
<path class="st4" d="M212.8,2.8h32v32h-32V2.8"/>
<path class="st5" d="M279.6,0.1h37.2v37.2h-37.2V0.1"/>
<path class="st5" d="M279.6,37.5h-0.1V0h37.5v37.5H279.6 M279.7,0.2v37h37v-37H279.7"/>
<path class="st4" d="M282.2,2.8h32v32h-32V2.8"/>
<path class="st5" d="M347,0.1h37.2v37.2H347V0.1"/>
<path class="st5" d="M347,37.5h-0.1V0h37.5v37.5H347 M347.1,0.2v37h37v-37H347.1"/>
<path class="st4" d="M349.6,2.8h32v32h-32V2.8"/>
<g>
	<g transform="translate(249.45492, 74.526632)">
		<g>
			<path class="st2" d="M-49.4-52.8H-51v2.9h-4v-2.9h-6v-3l6.3-9.2h3.8v9.1h1.6V-52.8z M-55-55.9v-1.8c0-0.3,0-0.8,0-1.3
				c0-0.6,0-0.8,0.1-0.9h-0.1c-0.2,0.5-0.5,1-0.8,1.5l-1.7,2.5H-55z"/>
		</g>
	</g>
</g>
<g>
	<g transform="translate(275.340355, 74.526632)">
		<g>
			<path class="st2" d="M-41.7-61.7c0,0.9-0.3,1.7-0.9,2.4c-0.6,0.7-1.4,1.1-2.5,1.4v0.1c2.5,0.3,3.8,1.5,3.8,3.6
				c0,1.4-0.6,2.5-1.7,3.3c-1.1,0.8-2.7,1.2-4.6,1.2c-0.8,0-1.6-0.1-2.3-0.2c-0.7-0.1-1.4-0.3-2.2-0.6v-3.4c0.7,0.3,1.3,0.6,2,0.8
				c0.7,0.2,1.3,0.2,1.9,0.2c0.9,0,1.5-0.1,1.9-0.4c0.4-0.2,0.6-0.6,0.6-1.2c0-0.4-0.1-0.7-0.3-1c-0.2-0.2-0.6-0.4-1-0.5
				c-0.5-0.1-1.1-0.2-1.9-0.2h-0.9v-3.1h1c2.1,0,3.1-0.5,3.1-1.6c0-0.4-0.2-0.7-0.5-0.9c-0.3-0.2-0.7-0.3-1.2-0.3c-1,0-2,0.3-3,1
				l-1.7-2.7c0.8-0.5,1.6-0.9,2.4-1.2c0.8-0.2,1.8-0.4,2.9-0.4c1.6,0,2.8,0.3,3.7,0.9C-42.2-63.7-41.7-62.8-41.7-61.7z"/>
		</g>
	</g>
</g>
<g>
	<g transform="translate(327.406566, 74.526632)">
		<g>
			<path class="st2" d="M-25.7-49.9h-4.1v-8c0-1,0-1.8,0.1-2.6c-0.2,0.3-0.6,0.6-0.9,1l-1.7,1.4l-2.1-2.6l5.2-4.2h3.7V-49.9z"/>
		</g>
	</g>
</g>
<g>
	<g transform="translate(301.02627, 74.526632)">
		<g>
			<path class="st2" d="M-42.1-49.9l5.2-11.7h-6.5V-65h10.9v2.4l-5.3,12.7H-42.1z"/>
		</g>
	</g>
</g>
<g>
	<g transform="translate(377.949233, 74.526632)">
		<g>
			<path class="st2" d="M-11.7-59.8c0.9,0,1.7,0.2,2.4,0.6c0.7,0.4,1.2,1,1.6,1.7c0.4,0.7,0.6,1.6,0.6,2.6c0,1.7-0.5,3-1.5,3.9
				c-1,0.9-2.6,1.4-4.6,1.4c-1.8,0-3.2-0.3-4.3-0.8v-3.4c0.6,0.3,1.3,0.5,2,0.7c0.8,0.2,1.4,0.3,1.9,0.3c0.8,0,1.3-0.2,1.8-0.5
				c0.4-0.3,0.6-0.8,0.6-1.4c0-0.6-0.2-1-0.6-1.4c-0.4-0.3-1-0.5-1.9-0.5c-0.6,0-1.3,0.1-2.1,0.4l-1.5-0.8l0.6-8h8.6v3.4h-5.1
				l-0.2,2c0.5-0.1,0.9-0.2,1.1-0.2C-12.1-59.8-11.9-59.8-11.7-59.8z"/>
		</g>
	</g>
</g>
<g>
	<g transform="translate(352.063798, 74.526632)">
		<g>
			<path class="st2" d="M-21-65.2c1.6,0,2.8,0.3,3.7,1c0.9,0.6,1.3,1.6,1.3,2.7c0,0.8-0.2,1.5-0.6,2.1c-0.4,0.6-1.1,1.1-2,1.6
				c1.1,0.6,1.9,1.3,2.4,1.9c0.5,0.6,0.7,1.3,0.7,2c0,1.3-0.5,2.4-1.5,3.1c-1,0.7-2.3,1.1-4.1,1.1c-1.8,0-3.1-0.4-4.1-1.1
				c-0.9-0.7-1.4-1.8-1.4-3.1c0-0.9,0.2-1.6,0.6-2.2c0.4-0.6,1.1-1.2,2.1-1.7c-0.8-0.5-1.4-1.1-1.8-1.7c-0.4-0.6-0.5-1.3-0.5-2
				c0-1.2,0.4-2,1.4-2.7C-23.8-64.9-22.6-65.2-21-65.2z M-22.8-54.1c0,0.4,0.2,0.8,0.5,1c0.3,0.2,0.7,0.4,1.2,0.4
				c1.2,0,1.8-0.4,1.8-1.3c0-0.3-0.1-0.7-0.4-1c-0.3-0.3-0.7-0.7-1.4-1.1c-0.6,0.3-1.1,0.6-1.3,1C-22.7-54.8-22.8-54.4-22.8-54.1z
				 M-21-62.3c-0.3,0-0.6,0.1-0.9,0.3c-0.2,0.2-0.4,0.5-0.4,0.8c0,0.6,0.4,1.1,1.2,1.6c0.5-0.3,0.8-0.5,1-0.8
				c0.2-0.2,0.3-0.5,0.3-0.8c0-0.3-0.1-0.6-0.4-0.8C-20.4-62.2-20.7-62.3-21-62.3z"/>
		</g>
	</g>
</g>
<g>
	<g transform="translate(208.148375, 77.235135)">
		<g>
			<path class="st2" d="M-64.2-55.5l-2.1-5.7c-0.1-0.3-0.2-0.6-0.3-0.9c-0.1-0.3-0.2-0.7-0.3-1.1c-0.1,0.4-0.2,0.8-0.3,1.1
				c-0.1,0.3-0.2,0.7-0.3,0.9l-2.1,5.7H-64.2z M-58.5-49H-61c-0.3,0-0.5-0.1-0.7-0.2c-0.2-0.1-0.3-0.3-0.4-0.5l-1.3-3.5h-7.1
				l-1.3,3.5c-0.1,0.2-0.2,0.3-0.4,0.5c-0.2,0.2-0.4,0.2-0.7,0.2h-2.5l6.8-17.2h3.3L-58.5-49z"/>
		</g>
	</g>
</g>
<g>
	<g transform="translate(220.55917, 77.235135)">
		<g>
			<path class="st2" d="M-66.8-59.1c0.4-0.7,0.8-1.3,1.4-1.7c0.5-0.4,1.2-0.6,1.9-0.6c0.6,0,1,0.1,1.4,0.4l-0.2,2.2
				c0,0.1-0.1,0.2-0.2,0.3c-0.1,0.1-0.2,0.1-0.3,0.1s-0.3,0-0.5-0.1c-0.2,0-0.5-0.1-0.7-0.1c-0.3,0-0.6,0.1-0.9,0.1
				c-0.2,0.1-0.5,0.2-0.7,0.4c-0.2,0.2-0.4,0.4-0.5,0.6c-0.2,0.2-0.3,0.5-0.4,0.9v7.5h-2.9v-12.2h1.7c0.3,0,0.5,0.1,0.6,0.2
				c0.1,0.1,0.2,0.3,0.2,0.6L-66.8-59.1z"/>
		</g>
	</g>
</g>
<g>
	<g transform="translate(227.224717, 77.235135)">
		<g>
			<path class="st2" d="M-64.6-59.1c0.4-0.7,0.8-1.3,1.4-1.7c0.5-0.4,1.2-0.6,1.9-0.6c0.6,0,1,0.1,1.4,0.4l-0.2,2.2
				c0,0.1-0.1,0.2-0.2,0.3c-0.1,0.1-0.2,0.1-0.3,0.1s-0.3,0-0.5-0.1c-0.2,0-0.5-0.1-0.7-0.1c-0.3,0-0.6,0.1-0.9,0.1
				c-0.2,0.1-0.5,0.2-0.7,0.4c-0.2,0.2-0.4,0.4-0.5,0.6c-0.2,0.2-0.3,0.5-0.4,0.9v7.5h-2.9v-12.2h1.7c0.3,0,0.5,0.1,0.6,0.2
				c0.1,0.1,0.2,0.3,0.2,0.6L-64.6-59.1z"/>
		</g>
	</g>
</g>
<g>
	<g transform="translate(141.990484, 149.781414)">
		<g>
			<path class="st2" d="M-92.1-24.8h-3.2v-17.2h3.2V-24.8z"/>
		</g>
	</g>
</g>
<g>
	<g transform="translate(147.288978, 149.781414)">
		<g>
			<path class="st2" d="M-91.3-35.6c0.2-0.2,0.5-0.5,0.8-0.7c0.3-0.2,0.6-0.4,0.9-0.5c0.3-0.2,0.6-0.3,1-0.4
				c0.3-0.1,0.7-0.1,1.1-0.1c0.7,0,1.3,0.1,1.8,0.4c0.5,0.2,1,0.5,1.3,0.9c0.3,0.4,0.6,0.9,0.8,1.5c0.2,0.6,0.3,1.2,0.3,1.9v7.8
				h-2.9v-7.8c0-0.7-0.2-1.3-0.5-1.7c-0.3-0.4-0.9-0.6-1.6-0.6c-0.5,0-1,0.1-1.4,0.4c-0.4,0.2-0.9,0.5-1.3,0.9v8.8H-94v-12.2h1.8
				c0.4,0,0.6,0.2,0.8,0.5L-91.3-35.6z"/>
		</g>
	</g>
</g>
<g>
	<g transform="translate(157.367723, 149.781414)">
		<g>
			<path class="st2" d="M-87.6-37.1v12.2h-3v-12.2H-87.6z M-87.2-40.6c0,0.2-0.1,0.5-0.2,0.7c-0.1,0.2-0.2,0.4-0.4,0.6
				c-0.2,0.2-0.4,0.3-0.6,0.4c-0.2,0.1-0.5,0.1-0.7,0.1c-0.2,0-0.5,0-0.7-0.1c-0.2-0.1-0.4-0.2-0.6-0.4c-0.2-0.2-0.3-0.4-0.4-0.6
				c-0.1-0.2-0.1-0.5-0.1-0.7c0-0.3,0-0.5,0.1-0.7c0.1-0.2,0.2-0.4,0.4-0.6c0.2-0.2,0.4-0.3,0.6-0.4c0.2-0.1,0.5-0.1,0.7-0.1
				c0.3,0,0.5,0.1,0.7,0.1c0.2,0.1,0.4,0.2,0.6,0.4c0.2,0.2,0.3,0.4,0.4,0.6C-87.3-41.1-87.2-40.9-87.2-40.6z"/>
		</g>
	</g>
</g>
<g>
	<g transform="translate(161.906734, 149.781414)">
		<g>
			<path class="st2" d="M-85.1-24.6c-1.1,0-1.9-0.3-2.4-0.9c-0.6-0.6-0.9-1.4-0.9-2.5v-6.8h-1.2c-0.2,0-0.3,0-0.4-0.1
				c-0.1-0.1-0.2-0.3-0.2-0.5v-1.2l2-0.3l0.6-3.3c0-0.2,0.1-0.3,0.2-0.4c0.1-0.1,0.3-0.1,0.4-0.1h1.5v3.8h3.3v2.1h-3.3v6.6
				c0,0.4,0.1,0.7,0.3,0.9c0.2,0.2,0.5,0.3,0.8,0.3c0.2,0,0.3,0,0.4-0.1c0.1,0,0.2-0.1,0.3-0.1c0.1-0.1,0.2-0.1,0.2-0.1
				c0.1,0,0.1-0.1,0.2-0.1c0.1,0,0.2,0,0.2,0.1c0.1,0,0.1,0.1,0.2,0.2l0.9,1.4c-0.4,0.4-0.9,0.6-1.5,0.8
				C-83.9-24.7-84.5-24.6-85.1-24.6z"/>
		</g>
	</g>
</g>
<g>
	<g transform="translate(168.554417, 149.781414)">
		<g>
			<path class="st2" d="M-83.9-37.1v12.2h-3v-12.2H-83.9z M-83.5-40.6c0,0.2-0.1,0.5-0.2,0.7c-0.1,0.2-0.2,0.4-0.4,0.6
				c-0.2,0.2-0.4,0.3-0.6,0.4c-0.2,0.1-0.5,0.1-0.7,0.1c-0.2,0-0.5,0-0.7-0.1c-0.2-0.1-0.4-0.2-0.6-0.4c-0.2-0.2-0.3-0.4-0.4-0.6
				c-0.1-0.2-0.1-0.5-0.1-0.7c0-0.3,0-0.5,0.1-0.7c0.1-0.2,0.2-0.4,0.4-0.6c0.2-0.2,0.4-0.3,0.6-0.4c0.2-0.1,0.5-0.1,0.7-0.1
				c0.3,0,0.5,0.1,0.7,0.1c0.2,0.1,0.4,0.2,0.6,0.4c0.2,0.2,0.3,0.4,0.4,0.6C-83.5-41.1-83.5-40.9-83.5-40.6z"/>
		</g>
	</g>
</g>
<g>
	<g transform="translate(173.093428, 149.781414)">
		<g>
			<path class="st2" d="M-79-30.1c-0.8,0-1.6,0.1-2.1,0.2c-0.6,0.1-1.1,0.2-1.4,0.4c-0.3,0.2-0.6,0.4-0.8,0.6
				c-0.2,0.2-0.2,0.5-0.2,0.7c0,0.5,0.2,0.9,0.5,1.1c0.3,0.2,0.7,0.3,1.2,0.3c0.6,0,1.1-0.1,1.5-0.3c0.4-0.2,0.9-0.6,1.3-1V-30.1z
				 M-85.7-35.4c1.4-1.3,3.1-1.9,5.1-1.9c0.7,0,1.3,0.1,1.9,0.4c0.6,0.2,1,0.6,1.4,1c0.4,0.4,0.7,0.9,0.9,1.5
				c0.2,0.6,0.3,1.2,0.3,1.9v7.7h-1.3c-0.3,0-0.5,0-0.6-0.1c-0.2-0.1-0.3-0.2-0.4-0.5l-0.3-0.9c-0.3,0.3-0.6,0.5-0.9,0.8
				c-0.3,0.2-0.6,0.4-0.9,0.5c-0.3,0.1-0.6,0.2-1,0.3c-0.4,0.1-0.8,0.1-1.2,0.1c-0.5,0-1-0.1-1.4-0.2c-0.4-0.1-0.8-0.3-1.1-0.6
				c-0.3-0.3-0.6-0.6-0.8-1c-0.2-0.4-0.2-0.9-0.2-1.5c0-0.3,0-0.6,0.1-0.9c0.1-0.3,0.3-0.6,0.5-0.9c0.2-0.3,0.5-0.5,0.9-0.8
				c0.4-0.2,0.8-0.5,1.4-0.6c0.6-0.2,1.2-0.3,1.9-0.4c0.7-0.1,1.5-0.2,2.5-0.2v-0.7c0-0.8-0.2-1.4-0.5-1.8c-0.3-0.4-0.8-0.6-1.5-0.6
				c-0.5,0-0.9,0.1-1.2,0.2c-0.3,0.1-0.6,0.2-0.8,0.4c-0.2,0.1-0.5,0.3-0.6,0.4c-0.2,0.1-0.4,0.2-0.6,0.2c-0.2,0-0.4-0.1-0.5-0.2
				c-0.1-0.1-0.3-0.2-0.4-0.4L-85.7-35.4z"/>
		</g>
	</g>
</g>
<g>
	<g transform="translate(182.162513, 149.781414)">
		<g>
			<path class="st2" d="M-79.4-42.5v17.7h-2.9v-17.7H-79.4z"/>
		</g>
	</g>
</g>
<g>
	<g transform="translate(186.603235, 149.781414)">
	</g>
</g>
<g>
	<g transform="translate(190.945669, 149.781414)">
		<g>
			<path class="st2" d="M-75.8-39.5v4.8h6v2.5h-6v4.9h7.6v2.6H-79v-17.2h10.9v2.5H-75.8z"/>
		</g>
	</g>
</g>
<g>
	<g transform="translate(201.22098, 149.781414)">
		<g>
			<path class="st2" d="M-73.1-42.5v17.7H-76v-17.7H-73.1z"/>
		</g>
	</g>
</g>
<g>
	<g transform="translate(205.661702, 149.781414)">
		<g>
			<path class="st2" d="M-66.7-32.4c0-0.4-0.1-0.7-0.2-1.1c-0.1-0.3-0.3-0.6-0.5-0.9c-0.2-0.3-0.5-0.5-0.8-0.6
				c-0.3-0.2-0.7-0.2-1.1-0.2c-0.9,0-1.5,0.2-2,0.7c-0.5,0.5-0.8,1.2-0.9,2.1H-66.7z M-72.3-30.6c0.1,0.6,0.2,1.2,0.3,1.6
				c0.2,0.5,0.4,0.8,0.7,1.1c0.3,0.3,0.6,0.5,1,0.7c0.4,0.1,0.8,0.2,1.3,0.2c0.5,0,0.9-0.1,1.2-0.2c0.3-0.1,0.6-0.2,0.9-0.4
				c0.3-0.1,0.5-0.3,0.7-0.4c0.2-0.1,0.4-0.2,0.6-0.2c0.2,0,0.4,0.1,0.5,0.3l0.9,1.1c-0.3,0.4-0.7,0.7-1.1,1
				c-0.4,0.2-0.8,0.5-1.3,0.6c-0.4,0.2-0.9,0.3-1.4,0.3c-0.4,0.1-0.9,0.1-1.3,0.1c-0.9,0-1.7-0.1-2.4-0.4c-0.7-0.3-1.4-0.7-1.9-1.3
				c-0.5-0.6-1-1.2-1.3-2c-0.3-0.8-0.5-1.8-0.5-2.8c0-0.8,0.1-1.6,0.4-2.4c0.3-0.7,0.7-1.4,1.2-1.9s1.1-1,1.8-1.3
				c0.7-0.3,1.6-0.5,2.5-0.5c0.8,0,1.5,0.1,2.1,0.4c0.7,0.2,1.2,0.6,1.7,1.1c0.5,0.5,0.8,1.1,1.1,1.7c0.3,0.7,0.4,1.5,0.4,2.4
				c0,0.4-0.1,0.7-0.1,0.9c-0.1,0.2-0.3,0.2-0.5,0.2H-72.3z"/>
		</g>
	</g>
</g>
<g>
	<g transform="translate(215.204342, 149.781414)">
		<g>
			<path class="st2" d="M-71.4-24.8v-12.2h1.8c0.4,0,0.6,0.2,0.8,0.5l0.2,0.9c0.2-0.2,0.4-0.4,0.7-0.6c0.2-0.2,0.5-0.4,0.8-0.5
				c0.3-0.2,0.5-0.3,0.9-0.4c0.3-0.1,0.6-0.1,1-0.1c0.8,0,1.4,0.2,1.9,0.6c0.5,0.4,0.9,1,1.1,1.7c0.2-0.4,0.4-0.8,0.7-1
				c0.3-0.3,0.6-0.5,0.9-0.7c0.3-0.2,0.7-0.3,1.1-0.4c0.4-0.1,0.8-0.1,1.2-0.1c0.7,0,1.3,0.1,1.8,0.3c0.5,0.2,1,0.5,1.3,0.9
				c0.4,0.4,0.6,0.9,0.8,1.4c0.2,0.6,0.3,1.2,0.3,2v7.8h-2.9v-7.8c0-0.8-0.2-1.4-0.5-1.8c-0.3-0.4-0.8-0.6-1.5-0.6
				c-0.3,0-0.6,0.1-0.9,0.2c-0.2,0.1-0.5,0.2-0.7,0.4c-0.2,0.2-0.3,0.4-0.5,0.7c-0.1,0.3-0.2,0.6-0.2,1v7.8h-3v-7.8
				c0-0.8-0.2-1.4-0.5-1.8c-0.3-0.4-0.8-0.6-1.4-0.6c-0.4,0-0.8,0.1-1.2,0.3c-0.4,0.2-0.7,0.5-1,0.9v9H-71.4z"/>
		</g>
	</g>
</g>
<g>
	<g transform="translate(230.170564, 149.781414)">
		<g>
			<path class="st2" d="M-58.5-32.4c0-0.4-0.1-0.7-0.2-1.1c-0.1-0.3-0.3-0.6-0.5-0.9c-0.2-0.3-0.5-0.5-0.8-0.6
				c-0.3-0.2-0.7-0.2-1.1-0.2c-0.9,0-1.5,0.2-2,0.7c-0.5,0.5-0.8,1.2-0.9,2.1H-58.5z M-64.1-30.6c0.1,0.6,0.2,1.2,0.3,1.6
				c0.2,0.5,0.4,0.8,0.7,1.1c0.3,0.3,0.6,0.5,1,0.7c0.4,0.1,0.8,0.2,1.3,0.2c0.5,0,0.9-0.1,1.2-0.2c0.3-0.1,0.6-0.2,0.9-0.4
				c0.3-0.1,0.5-0.3,0.7-0.4c0.2-0.1,0.4-0.2,0.6-0.2c0.2,0,0.4,0.1,0.5,0.3l0.9,1.1c-0.3,0.4-0.7,0.7-1.1,1
				c-0.4,0.2-0.8,0.5-1.3,0.6c-0.4,0.2-0.9,0.3-1.4,0.3c-0.4,0.1-0.9,0.1-1.3,0.1c-0.9,0-1.7-0.1-2.4-0.4c-0.7-0.3-1.4-0.7-1.9-1.3
				c-0.5-0.6-1-1.2-1.3-2c-0.3-0.8-0.5-1.8-0.5-2.8c0-0.8,0.1-1.6,0.4-2.4c0.3-0.7,0.7-1.4,1.2-1.9s1.1-1,1.8-1.3
				c0.7-0.3,1.6-0.5,2.5-0.5c0.8,0,1.5,0.1,2.1,0.4c0.7,0.2,1.2,0.6,1.7,1.1c0.5,0.5,0.8,1.1,1.1,1.7c0.3,0.7,0.4,1.5,0.4,2.4
				c0,0.4-0.1,0.7-0.1,0.9c-0.1,0.2-0.3,0.2-0.5,0.2H-64.1z"/>
		</g>
	</g>
</g>
<g>
	<g transform="translate(239.713203, 149.781414)">
		<g>
			<path class="st2" d="M-60.5-35.6c0.2-0.2,0.5-0.5,0.8-0.7c0.3-0.2,0.6-0.4,0.9-0.5c0.3-0.2,0.6-0.3,1-0.4
				c0.3-0.1,0.7-0.1,1.1-0.1c0.7,0,1.3,0.1,1.8,0.4c0.5,0.2,1,0.5,1.3,0.9c0.3,0.4,0.6,0.9,0.8,1.5c0.2,0.6,0.3,1.2,0.3,1.9v7.8
				h-2.9v-7.8c0-0.7-0.2-1.3-0.5-1.7c-0.3-0.4-0.9-0.6-1.6-0.6c-0.5,0-1,0.1-1.4,0.4c-0.4,0.2-0.9,0.5-1.3,0.9v8.8h-2.9v-12.2h1.8
				c0.4,0,0.6,0.2,0.8,0.5L-60.5-35.6z"/>
		</g>
	</g>
</g>
<g>
	<g transform="translate(249.791949, 149.781414)">
		<g>
			<path class="st2" d="M-55.8-24.6c-1.1,0-1.9-0.3-2.4-0.9c-0.6-0.6-0.9-1.4-0.9-2.5v-6.8h-1.2c-0.2,0-0.3,0-0.4-0.1
				c-0.1-0.1-0.2-0.3-0.2-0.5v-1.2l2-0.3l0.6-3.3c0-0.2,0.1-0.3,0.2-0.4c0.1-0.1,0.3-0.1,0.4-0.1h1.5v3.8h3.3v2.1h-3.3v6.6
				c0,0.4,0.1,0.7,0.3,0.9c0.2,0.2,0.5,0.3,0.8,0.3c0.2,0,0.3,0,0.4-0.1c0.1,0,0.2-0.1,0.3-0.1c0.1-0.1,0.2-0.1,0.2-0.1
				c0.1,0,0.1-0.1,0.2-0.1c0.1,0,0.2,0,0.2,0.1c0.1,0,0.1,0.1,0.2,0.2l0.9,1.4c-0.4,0.4-0.9,0.6-1.5,0.8
				C-54.6-24.7-55.2-24.6-55.8-24.6z"/>
		</g>
	</g>
</g>
<g>
	<g transform="translate(256.439632, 149.781414)">
		<g>
			<path class="st2" d="M-50.2-34.7c-0.1,0.1-0.2,0.2-0.2,0.3c-0.1,0-0.2,0.1-0.3,0.1c-0.1,0-0.3,0-0.5-0.1
				c-0.2-0.1-0.4-0.2-0.6-0.3c-0.2-0.1-0.5-0.2-0.7-0.3c-0.3-0.1-0.6-0.1-1-0.1c-0.6,0-1,0.1-1.4,0.4c-0.3,0.2-0.5,0.6-0.5,1
				c0,0.3,0.1,0.5,0.2,0.7c0.2,0.2,0.4,0.3,0.7,0.5c0.3,0.1,0.6,0.2,1,0.4c0.4,0.1,0.7,0.2,1.1,0.4c0.4,0.1,0.7,0.3,1.1,0.4
				c0.4,0.2,0.7,0.4,1,0.6c0.3,0.2,0.5,0.6,0.7,0.9c0.2,0.3,0.2,0.8,0.2,1.2c0,0.6-0.1,1.1-0.3,1.6c-0.2,0.5-0.5,0.9-0.9,1.3
				c-0.4,0.4-0.9,0.6-1.5,0.9c-0.6,0.2-1.3,0.3-2.1,0.3c-0.4,0-0.8,0-1.2-0.1c-0.4-0.1-0.8-0.2-1.1-0.3c-0.4-0.1-0.7-0.3-1-0.5
				c-0.3-0.2-0.6-0.4-0.8-0.6l0.7-1.1c0.1-0.1,0.2-0.2,0.3-0.3c0.1-0.1,0.3-0.1,0.5-0.1c0.2,0,0.4,0.1,0.5,0.2
				c0.2,0.1,0.4,0.2,0.6,0.3c0.2,0.1,0.5,0.2,0.8,0.3c0.3,0.1,0.7,0.1,1.1,0.1c0.3,0,0.6,0,0.9-0.1c0.2-0.1,0.4-0.2,0.6-0.3
				c0.2-0.1,0.3-0.3,0.4-0.5c0.1-0.2,0.1-0.4,0.1-0.6c0-0.3-0.1-0.5-0.3-0.7c-0.2-0.2-0.4-0.4-0.7-0.5c-0.3-0.1-0.6-0.3-1-0.4
				c-0.4-0.1-0.7-0.2-1.1-0.4c-0.4-0.1-0.7-0.3-1.1-0.4c-0.4-0.2-0.7-0.4-1-0.6c-0.3-0.3-0.5-0.6-0.7-1c-0.2-0.4-0.2-0.9-0.2-1.4
				c0-0.5,0.1-1,0.3-1.4c0.2-0.5,0.5-0.9,0.9-1.2c0.4-0.3,0.9-0.6,1.4-0.8c0.6-0.2,1.3-0.3,2-0.3c0.8,0,1.6,0.1,2.3,0.4
				c0.7,0.3,1.3,0.6,1.7,1.1L-50.2-34.7z"/>
		</g>
	</g>
</g>
<g>
	<g transform="translate(385.400896, 149.781414)">
		<g>
			<path class="st2" d="M4.5-42.1v17.2H1.7V-36c0-0.4,0-0.9,0.1-1.4l-5.2,9.8c-0.3,0.5-0.6,0.7-1.1,0.7H-5c-0.5,0-0.9-0.2-1.1-0.7
				l-5.3-9.8c0,0.3,0,0.5,0,0.8c0,0.2,0,0.5,0,0.7v11.1h-2.8v-17.2h2.4c0.2,0,0.3,0,0.4,0c0.1,0,0.2,0,0.3,0.1
				c0.1,0,0.2,0.1,0.2,0.1c0.1,0.1,0.1,0.2,0.2,0.3l5.1,9.6c0.1,0.2,0.3,0.5,0.4,0.8c0.1,0.3,0.2,0.5,0.4,0.8
				c0.1-0.3,0.2-0.6,0.3-0.9c0.1-0.3,0.3-0.5,0.4-0.8L1-41.6c0.1-0.1,0.1-0.2,0.2-0.3c0.1-0.1,0.2-0.1,0.2-0.1C1.5-42,1.6-42,1.7-42
				c0.1,0,0.2,0,0.4,0H4.5z"/>
		</g>
	</g>
</g>
<g>
	<g transform="translate(402.288152, 149.781414)">
		<g>
			<path class="st2" d="M-2.6-30.1c-0.8,0-1.6,0.1-2.1,0.2c-0.6,0.1-1.1,0.2-1.4,0.4c-0.3,0.2-0.6,0.4-0.8,0.6
				c-0.2,0.2-0.2,0.5-0.2,0.7c0,0.5,0.2,0.9,0.5,1.1c0.3,0.2,0.7,0.3,1.2,0.3c0.6,0,1.1-0.1,1.5-0.3c0.4-0.2,0.9-0.6,1.3-1V-30.1z
				 M-9.3-35.4c1.4-1.3,3.1-1.9,5.1-1.9c0.7,0,1.3,0.1,1.9,0.4c0.6,0.2,1,0.6,1.4,1c0.4,0.4,0.7,0.9,0.9,1.5
				c0.2,0.6,0.3,1.2,0.3,1.9v7.7H-1c-0.3,0-0.5,0-0.6-0.1C-1.8-25-1.9-25.2-2-25.5l-0.3-0.9c-0.3,0.3-0.6,0.5-0.9,0.8
				c-0.3,0.2-0.6,0.4-0.9,0.5c-0.3,0.1-0.6,0.2-1,0.3c-0.4,0.1-0.8,0.1-1.2,0.1c-0.5,0-1-0.1-1.4-0.2c-0.4-0.1-0.8-0.3-1.1-0.6
				c-0.3-0.3-0.6-0.6-0.8-1c-0.2-0.4-0.2-0.9-0.2-1.5c0-0.3,0-0.6,0.1-0.9c0.1-0.3,0.3-0.6,0.5-0.9c0.2-0.3,0.5-0.5,0.9-0.8
				C-8-30.8-7.5-31-7-31.2c0.6-0.2,1.2-0.3,1.9-0.4c0.7-0.1,1.5-0.2,2.5-0.2v-0.7c0-0.8-0.2-1.4-0.5-1.8C-3.5-34.8-4-35-4.6-35
				c-0.5,0-0.9,0.1-1.2,0.2c-0.3,0.1-0.6,0.2-0.8,0.4c-0.2,0.1-0.5,0.3-0.6,0.4c-0.2,0.1-0.4,0.2-0.6,0.2c-0.2,0-0.4-0.1-0.5-0.2
				c-0.1-0.1-0.3-0.2-0.4-0.4L-9.3-35.4z"/>
		</g>
	</g>
</g>
<g>
	<g transform="translate(411.357236, 149.781414)">
		<g>
			<path class="st2" d="M4.9-24.8H2.1c-0.2,0-0.4-0.1-0.5-0.2c-0.1-0.1-0.2-0.2-0.3-0.4l-2.6-4.3c0,0.1-0.1,0.3-0.1,0.4
				c0,0.1-0.1,0.2-0.2,0.3L-4-25.4C-4-25.2-4.1-25.1-4.3-25c-0.1,0.1-0.3,0.2-0.5,0.2h-2.6l4.2-6.3l-4-5.9h2.9c0.2,0,0.4,0,0.5,0.1
				c0.1,0.1,0.2,0.1,0.3,0.3l2.6,4.1c0.1-0.3,0.2-0.5,0.4-0.8l2.1-3.2c0.2-0.3,0.4-0.4,0.7-0.4h2.7l-4,5.8L4.9-24.8z"/>
		</g>
	</g>
</g>
<g>
	<g transform="translate(420.685436, 149.781414)">
	</g>
</g>
<g>
	<g transform="translate(425.02787, 149.781414)">
		<g>
			<path class="st2" d="M13.5-42.1v17.2h-3.2v-7.5H2.2v7.5H-1v-17.2h3.2v7.4h8.1v-7.4H13.5z"/>
		</g>
	</g>
</g>
<g>
	<g transform="translate(438.796792, 149.781414)">
		<g>
			<path class="st2" d="M11-32.4c0-0.4-0.1-0.7-0.2-1.1c-0.1-0.3-0.3-0.6-0.5-0.9c-0.2-0.3-0.5-0.5-0.8-0.6
				c-0.3-0.2-0.7-0.2-1.1-0.2c-0.9,0-1.5,0.2-2,0.7c-0.5,0.5-0.8,1.2-0.9,2.1H11z M5.4-30.6C5.5-30,5.6-29.4,5.7-29
				c0.2,0.5,0.4,0.8,0.7,1.1c0.3,0.3,0.6,0.5,1,0.7c0.4,0.1,0.8,0.2,1.3,0.2c0.5,0,0.9-0.1,1.2-0.2c0.3-0.1,0.6-0.2,0.9-0.4
				c0.3-0.1,0.5-0.3,0.7-0.4c0.2-0.1,0.4-0.2,0.6-0.2c0.2,0,0.4,0.1,0.5,0.3l0.9,1.1c-0.3,0.4-0.7,0.7-1.1,1
				c-0.4,0.2-0.8,0.5-1.3,0.6c-0.4,0.2-0.9,0.3-1.4,0.3c-0.4,0.1-0.9,0.1-1.3,0.1c-0.9,0-1.7-0.1-2.4-0.4c-0.7-0.3-1.4-0.7-1.9-1.3
				c-0.5-0.6-1-1.2-1.3-2c-0.3-0.8-0.5-1.8-0.5-2.8c0-0.8,0.1-1.6,0.4-2.4c0.3-0.7,0.7-1.4,1.2-1.9s1.1-1,1.8-1.3
				c0.7-0.3,1.6-0.5,2.5-0.5c0.8,0,1.5,0.1,2.1,0.4c0.7,0.2,1.2,0.6,1.7,1.1c0.5,0.5,0.8,1.1,1.1,1.7c0.3,0.7,0.4,1.5,0.4,2.4
				c0,0.4-0.1,0.7-0.1,0.9c-0.1,0.2-0.3,0.2-0.5,0.2H5.4z"/>
		</g>
	</g>
</g>
<g>
	<g transform="translate(448.339432, 149.781414)">
		<g>
			<path class="st2" d="M12.8-30.1c-0.8,0-1.6,0.1-2.1,0.2c-0.6,0.1-1.1,0.2-1.4,0.4c-0.3,0.2-0.6,0.4-0.8,0.6
				c-0.2,0.2-0.2,0.5-0.2,0.7c0,0.5,0.2,0.9,0.5,1.1c0.3,0.2,0.7,0.3,1.2,0.3c0.6,0,1.1-0.1,1.5-0.3c0.4-0.2,0.9-0.6,1.3-1V-30.1z
				 M6-35.4c1.4-1.3,3.1-1.9,5.1-1.9c0.7,0,1.3,0.1,1.9,0.4c0.6,0.2,1,0.6,1.4,1c0.4,0.4,0.7,0.9,0.9,1.5c0.2,0.6,0.3,1.2,0.3,1.9
				v7.7h-1.3c-0.3,0-0.5,0-0.6-0.1c-0.2-0.1-0.3-0.2-0.4-0.5l-0.3-0.9c-0.3,0.3-0.6,0.5-0.9,0.8c-0.3,0.2-0.6,0.4-0.9,0.5
				c-0.3,0.1-0.6,0.2-1,0.3c-0.4,0.1-0.8,0.1-1.2,0.1c-0.5,0-1-0.1-1.4-0.2c-0.4-0.1-0.8-0.3-1.1-0.6c-0.3-0.3-0.6-0.6-0.8-1
				c-0.2-0.4-0.2-0.9-0.2-1.5c0-0.3,0-0.6,0.1-0.9c0.1-0.3,0.3-0.6,0.5-0.9C6.4-30,6.7-30.3,7-30.5c0.4-0.2,0.8-0.5,1.4-0.6
				c0.6-0.2,1.2-0.3,1.9-0.4c0.7-0.1,1.5-0.2,2.5-0.2v-0.7c0-0.8-0.2-1.4-0.5-1.8c-0.3-0.4-0.8-0.6-1.5-0.6c-0.5,0-0.9,0.1-1.2,0.2
				c-0.3,0.1-0.6,0.2-0.8,0.4c-0.2,0.1-0.5,0.3-0.6,0.4c-0.2,0.1-0.4,0.2-0.6,0.2c-0.2,0-0.4-0.1-0.5-0.2c-0.1-0.1-0.3-0.2-0.4-0.4
				L6-35.4z"/>
		</g>
	</g>
</g>
<g>
	<g transform="translate(457.408516, 149.781414)">
		<g>
			<path class="st2" d="M12.3-28c0.3,0.4,0.7,0.7,1.1,0.9c0.4,0.2,0.8,0.2,1.3,0.2c0.4,0,0.8-0.1,1.2-0.2c0.4-0.2,0.7-0.4,0.9-0.8
				c0.2-0.3,0.4-0.8,0.6-1.3c0.1-0.5,0.2-1.1,0.2-1.9c0-0.7-0.1-1.3-0.2-1.8c-0.1-0.5-0.3-0.9-0.5-1.2c-0.2-0.3-0.5-0.5-0.8-0.7
				c-0.3-0.1-0.7-0.2-1-0.2c-0.6,0-1.1,0.1-1.6,0.4c-0.4,0.2-0.8,0.6-1.2,1.1V-28z M12.1-35.4c0.5-0.6,1.1-1,1.7-1.4
				c0.6-0.4,1.4-0.5,2.2-0.5c0.7,0,1.3,0.1,1.8,0.4c0.6,0.3,1,0.7,1.4,1.2c0.4,0.5,0.7,1.2,0.9,2c0.2,0.8,0.3,1.7,0.3,2.7
				c0,0.9-0.1,1.8-0.4,2.5c-0.2,0.8-0.6,1.5-1.1,2c-0.4,0.6-1,1-1.6,1.4c-0.7,0.3-1.4,0.5-2.2,0.5c-0.7,0-1.3-0.1-1.8-0.3
				c-0.5-0.2-0.9-0.5-1.3-0.9v5H9.4v-16.2h1.8c0.4,0,0.6,0.2,0.8,0.5L12.1-35.4z"/>
		</g>
	</g>
</g>
</svg>
