<svg xmlns="http://www.w3.org/2000/svg" xmlns:xlink="http://www.w3.org/1999/xlink" width="794" zoomAndPan="magnify" viewBox="0 0 595.5 842.249979" height="1123" preserveAspectRatio="xMidYMid meet" version="1.0"><defs><g><g id="id1"/><g id="id2"/><g id="id3"/></g><clipPath id="id4"><path d="M 299.695312 206.863281 L 337.191406 206.863281 L 337.191406 243.613281 L 299.695312 243.613281 Z M 299.695312 206.863281 " clip-rule="nonzero"/></clipPath></defs><path stroke-linecap="round" transform="matrix(2.284883, -2.948392, 2.963965, 2.296951, 167.00619, 227.781669)" fill="none" stroke-linejoin="miter" d="M 0.499731 0.000142076 L 13.777215 -0.000384234 " stroke="rgb(100%, 87.059021%, 34.899902%)" stroke-width="1" stroke-opacity="1" stroke-miterlimit="4"/><path stroke-linecap="round" transform="matrix(2.258247, 2.968843, -2.984523, 2.270174, 216.165443, 185.457719)" fill="none" stroke-linejoin="miter" d="M 0.499584 0.000220744 L 13.776986 -0.0000212314 " stroke="rgb(100%, 87.059021%, 34.899902%)" stroke-width="1" stroke-opacity="1" stroke-miterlimit="4"/><path stroke-linecap="round" transform="matrix(2.258247, 2.968843, -2.984523, 2.270174, 254.961531, 237.14041)" fill="none" stroke-linejoin="miter" d="M 0.499904 0.00019926 L 13.777306 -0.0000427153 " stroke="rgb(100%, 87.059021%, 34.899902%)" stroke-width="1" stroke-opacity="1" stroke-miterlimit="4"/><path stroke-linecap="round" transform="matrix(2.258247, 2.968843, -2.984523, 2.270174, 170.787671, 237.14041)" fill="none" stroke-linejoin="miter" d="M 0.500227 -0.000222043 L 13.776995 0.0003651 " stroke="rgb(100%, 87.059021%, 34.899902%)" stroke-width="1" stroke-opacity="1" stroke-miterlimit="4"/><path stroke-linecap="round" transform="matrix(2.284883, -2.948392, 2.963965, 2.296951, 125.568268, 283.070435)" fill="none" stroke-linejoin="miter" d="M 0.499737 0.000279681 L 13.777221 -0.000246629 " stroke="rgb(100%, 87.059021%, 34.899902%)" stroke-width="1" stroke-opacity="1" stroke-miterlimit="4"/><path fill="rgb(100%, 39.99939%, 76.858521%)" d="M 207.890625 167.542969 C 199.816406 167.542969 193.269531 174.089844 193.269531 182.164062 C 193.269531 190.242188 199.816406 196.789062 207.890625 196.789062 C 215.96875 196.789062 222.515625 190.242188 222.515625 182.164062 C 222.515625 174.089844 215.96875 167.542969 207.890625 167.542969 " fill-opacity="1" fill-rule="nonzero"/><path fill="rgb(100%, 39.99939%, 76.858521%)" d="M 123.054688 274.027344 C 114.976562 274.027344 108.429688 280.574219 108.429688 288.652344 C 108.429688 296.726562 114.976562 303.277344 123.054688 303.277344 C 131.132812 303.277344 137.679688 296.726562 137.679688 288.652344 C 137.679688 280.574219 131.132812 274.027344 123.054688 274.027344 " fill-opacity="1" fill-rule="nonzero"/><path fill="rgb(100%, 39.99939%, 76.858521%)" d="M 165.664062 219.300781 C 157.585938 219.300781 151.039062 225.847656 151.039062 233.921875 C 151.039062 242 157.585938 248.546875 165.664062 248.546875 C 173.742188 248.546875 180.289062 242 180.289062 233.921875 C 180.289062 225.847656 173.742188 219.300781 165.664062 219.300781 " fill-opacity="1" fill-rule="nonzero"/><path fill="rgb(100%, 39.99939%, 76.858521%)" d="M 207.890625 274.027344 C 199.816406 274.027344 193.269531 280.574219 193.269531 288.652344 C 193.269531 296.726562 199.816406 303.277344 207.890625 303.277344 C 215.96875 303.277344 222.515625 296.726562 222.515625 288.652344 C 222.515625 280.574219 215.96875 274.027344 207.890625 274.027344 " fill-opacity="1" fill-rule="nonzero"/><path fill="rgb(100%, 39.99939%, 76.858521%)" d="M 250.121094 219.300781 C 242.042969 219.300781 235.496094 225.847656 235.496094 233.921875 C 235.496094 242 242.042969 248.546875 250.121094 248.546875 C 258.195312 248.546875 264.746094 242 264.746094 233.921875 C 264.746094 225.847656 258.195312 219.300781 250.121094 219.300781 " fill-opacity="1" fill-rule="nonzero"/><path fill="rgb(100%, 39.99939%, 76.858521%)" d="M 293.066406 274.027344 C 284.992188 274.027344 278.445312 280.574219 278.445312 288.652344 C 278.445312 296.726562 284.992188 303.277344 293.066406 303.277344 C 301.144531 303.277344 307.691406 296.726562 307.691406 288.652344 C 307.691406 280.574219 301.144531 274.027344 293.066406 274.027344 " fill-opacity="1" fill-rule="nonzero"/><path stroke-linecap="round" transform="matrix(2.284883, -2.948392, 2.963965, 2.296951, 390.529806, 228.288038)" fill="none" stroke-linejoin="miter" d="M 0.500223 -0.00029776 L 13.77688 -0.000185963 " stroke="rgb(100%, 87.059021%, 34.899902%)" stroke-width="1" stroke-opacity="1" stroke-miterlimit="4"/><path stroke-linecap="round" transform="matrix(2.258247, 2.968843, -2.984523, 2.270174, 439.689049, 185.964073)" fill="none" stroke-linejoin="miter" d="M 0.499868 0.00049186 L 13.77727 0.000249884 " stroke="rgb(100%, 87.059021%, 34.899902%)" stroke-width="1" stroke-opacity="1" stroke-miterlimit="4"/><path stroke-linecap="round" transform="matrix(2.258247, 2.968843, -2.984523, 2.270174, 478.485156, 237.646765)" fill="none" stroke-linejoin="miter" d="M 0.500185 0.000474447 L 13.777587 0.000232472 " stroke="rgb(100%, 87.059021%, 34.899902%)" stroke-width="1" stroke-opacity="1" stroke-miterlimit="4"/><path stroke-linecap="round" transform="matrix(2.258247, 2.968843, -2.984523, 2.270174, 394.311272, 237.646765)" fill="none" stroke-linejoin="miter" d="M 0.500511 0.0000480546 L 13.777279 0.000635198 " stroke="rgb(100%, 87.059021%, 34.899902%)" stroke-width="1" stroke-opacity="1" stroke-miterlimit="4"/><path stroke-linecap="round" transform="matrix(2.284883, -2.948392, 2.963965, 2.296951, 349.091883, 283.576789)" fill="none" stroke-linejoin="miter" d="M 0.500227 -0.000157805 L 13.776883 -0.0000460077 " stroke="rgb(100%, 87.059021%, 34.899902%)" stroke-width="1" stroke-opacity="1" stroke-miterlimit="4"/><path fill="rgb(100%, 39.99939%, 76.858521%)" d="M 431.414062 168.046875 C 423.339844 168.046875 416.792969 174.59375 416.792969 182.671875 C 416.792969 190.75 423.339844 197.296875 431.414062 197.296875 C 439.492188 197.296875 446.039062 190.75 446.039062 182.671875 C 446.039062 174.59375 439.492188 168.046875 431.414062 168.046875 " fill-opacity="1" fill-rule="nonzero"/><path fill="rgb(100%, 39.99939%, 76.858521%)" d="M 346.578125 274.535156 C 338.5 274.535156 331.953125 281.082031 331.953125 289.15625 C 331.953125 297.234375 338.5 303.78125 346.578125 303.78125 C 354.65625 303.78125 361.203125 297.234375 361.203125 289.15625 C 361.203125 281.082031 354.65625 274.535156 346.578125 274.535156 " fill-opacity="1" fill-rule="nonzero"/><path fill="rgb(100%, 39.99939%, 76.858521%)" d="M 389.1875 219.804688 C 381.113281 219.804688 374.5625 226.351562 374.5625 234.429688 C 374.5625 242.507812 381.113281 249.054688 389.1875 249.054688 C 397.265625 249.054688 403.8125 242.507812 403.8125 234.429688 C 403.8125 226.351562 397.265625 219.804688 389.1875 219.804688 " fill-opacity="1" fill-rule="nonzero"/><path fill="rgb(100%, 39.99939%, 76.858521%)" d="M 431.414062 274.535156 C 423.339844 274.535156 416.792969 281.082031 416.792969 289.15625 C 416.792969 297.234375 423.339844 303.78125 431.414062 303.78125 C 439.492188 303.78125 446.039062 297.234375 446.039062 289.15625 C 446.039062 281.082031 439.492188 274.535156 431.414062 274.535156 " fill-opacity="1" fill-rule="nonzero"/><path fill="rgb(100%, 39.99939%, 76.858521%)" d="M 473.644531 219.804688 C 465.566406 219.804688 459.019531 226.351562 459.019531 234.429688 C 459.019531 242.507812 465.566406 249.054688 473.644531 249.054688 C 481.71875 249.054688 488.269531 242.507812 488.269531 234.429688 C 488.269531 226.351562 481.71875 219.804688 473.644531 219.804688 " fill-opacity="1" fill-rule="nonzero"/><path fill="rgb(100%, 39.99939%, 76.858521%)" d="M 516.589844 274.535156 C 508.515625 274.535156 501.96875 281.082031 501.96875 289.15625 C 501.96875 297.234375 508.515625 303.78125 516.589844 303.78125 C 524.667969 303.78125 531.214844 297.234375 531.214844 289.15625 C 531.214844 281.082031 524.667969 274.535156 516.589844 274.535156 " fill-opacity="1" fill-rule="nonzero"/><g fill="rgb(100%, 100%, 100%)" fill-opacity="1"><g transform="translate(426.694309, 188.758568)"><g><path d="M 4.84375 -11.890625 C 6.082031 -11.890625 7.039062 -11.640625 7.71875 -11.140625 C 8.40625 -10.648438 8.75 -9.945312 8.75 -9.03125 C 8.75 -8.40625 8.585938 -7.859375 8.265625 -7.390625 C 7.941406 -6.929688 7.429688 -6.523438 6.734375 -6.171875 C 7.597656 -5.679688 8.207031 -5.191406 8.5625 -4.703125 C 8.914062 -4.210938 9.09375 -3.6875 9.09375 -3.125 C 9.09375 -2.082031 8.71875 -1.273438 7.96875 -0.703125 C 7.21875 -0.128906 6.164062 0.15625 4.8125 0.15625 C 3.4375 0.15625 2.378906 -0.117188 1.640625 -0.671875 C 0.910156 -1.234375 0.546875 -2.039062 0.546875 -3.09375 C 0.546875 -3.769531 0.707031 -4.347656 1.03125 -4.828125 C 1.363281 -5.304688 1.910156 -5.738281 2.671875 -6.125 C 2.054688 -6.539062 1.601562 -6.988281 1.3125 -7.46875 C 1.03125 -7.945312 0.890625 -8.472656 0.890625 -9.046875 C 0.890625 -9.941406 1.238281 -10.640625 1.9375 -11.140625 C 2.632812 -11.640625 3.601562 -11.890625 4.84375 -11.890625 Z M 3.453125 -3.21875 C 3.453125 -2.882812 3.566406 -2.613281 3.796875 -2.40625 C 4.035156 -2.207031 4.363281 -2.109375 4.78125 -2.109375 C 5.71875 -2.109375 6.1875 -2.457031 6.1875 -3.15625 C 6.1875 -3.414062 6.082031 -3.671875 5.875 -3.921875 C 5.675781 -4.179688 5.3125 -4.46875 4.78125 -4.78125 C 4.300781 -4.53125 3.957031 -4.273438 3.75 -4.015625 C 3.550781 -3.765625 3.453125 -3.5 3.453125 -3.21875 Z M 4.828125 -9.609375 C 4.554688 -9.609375 4.328125 -9.53125 4.140625 -9.375 C 3.953125 -9.21875 3.859375 -9.007812 3.859375 -8.75 C 3.859375 -8.289062 4.171875 -7.882812 4.796875 -7.53125 C 5.171875 -7.75 5.425781 -7.945312 5.5625 -8.125 C 5.707031 -8.3125 5.78125 -8.519531 5.78125 -8.75 C 5.78125 -9.007812 5.6875 -9.21875 5.5 -9.375 C 5.3125 -9.53125 5.085938 -9.609375 4.828125 -9.609375 Z M 4.828125 -9.609375 "/></g></g></g><g fill="rgb(100%, 100%, 100%)" fill-opacity="1"><g transform="translate(384.466388, 240.516735)"><g><path d="M 9.375 -2.265625 L 8.078125 -2.265625 L 8.078125 0 L 4.953125 0 L 4.953125 -2.265625 L 0.28125 -2.265625 L 0.28125 -4.59375 L 5.15625 -11.71875 L 8.078125 -11.71875 L 8.078125 -4.640625 L 9.375 -4.640625 Z M 4.953125 -4.640625 L 4.953125 -6 C 4.953125 -6.25 4.960938 -6.59375 4.984375 -7.03125 C 5.003906 -7.46875 5.019531 -7.695312 5.03125 -7.71875 L 4.9375 -7.71875 C 4.757812 -7.3125 4.554688 -6.925781 4.328125 -6.5625 L 3.015625 -4.640625 Z M 4.953125 -4.640625 "/></g></g></g><g fill="rgb(100%, 100%, 100%)" fill-opacity="1"><g transform="translate(340.607799, 295.244613)"><g><path d="M 7.546875 0 L 4.34375 0 L 4.34375 -6.203125 C 4.34375 -6.960938 4.359375 -7.65625 4.390625 -8.28125 C 4.191406 -8.039062 3.941406 -7.785156 3.640625 -7.515625 L 2.3125 -6.421875 L 0.671875 -8.4375 L 4.703125 -11.71875 L 7.546875 -11.71875 Z M 7.546875 0 "/></g></g></g><g fill="rgb(100%, 100%, 100%)" fill-opacity="1"><g transform="translate(426.694309, 295.244613)"><g><path d="M 8.609375 -9.1875 C 8.609375 -8.457031 8.382812 -7.832031 7.9375 -7.3125 C 7.488281 -6.789062 6.847656 -6.410156 6.015625 -6.171875 L 6.015625 -6.125 C 7.972656 -5.875 8.953125 -4.953125 8.953125 -3.359375 C 8.953125 -2.265625 8.519531 -1.40625 7.65625 -0.78125 C 6.789062 -0.15625 5.59375 0.15625 4.0625 0.15625 C 3.425781 0.15625 2.835938 0.109375 2.296875 0.015625 C 1.765625 -0.0664062 1.1875 -0.226562 0.5625 -0.46875 L 0.5625 -3.109375 C 1.070312 -2.835938 1.59375 -2.640625 2.125 -2.515625 C 2.65625 -2.390625 3.144531 -2.328125 3.59375 -2.328125 C 4.289062 -2.328125 4.796875 -2.425781 5.109375 -2.625 C 5.429688 -2.820312 5.59375 -3.128906 5.59375 -3.546875 C 5.59375 -3.867188 5.507812 -4.113281 5.34375 -4.28125 C 5.175781 -4.457031 4.910156 -4.585938 4.546875 -4.671875 C 4.179688 -4.765625 3.703125 -4.8125 3.109375 -4.8125 L 2.375 -4.8125 L 2.375 -7.1875 L 3.125 -7.1875 C 4.726562 -7.1875 5.53125 -7.597656 5.53125 -8.421875 C 5.53125 -8.734375 5.410156 -8.960938 5.171875 -9.109375 C 4.929688 -9.265625 4.613281 -9.34375 4.21875 -9.34375 C 3.46875 -9.34375 2.691406 -9.09375 1.890625 -8.59375 L 0.578125 -10.703125 C 1.191406 -11.128906 1.820312 -11.429688 2.46875 -11.609375 C 3.125 -11.796875 3.875 -11.890625 4.71875 -11.890625 C 5.925781 -11.890625 6.875 -11.648438 7.5625 -11.171875 C 8.257812 -10.691406 8.609375 -10.03125 8.609375 -9.1875 Z M 8.609375 -9.1875 "/></g></g></g><g fill="rgb(100%, 100%, 100%)" fill-opacity="1"><g transform="translate(511.870008, 295.244613)"><g><path d="M 5.328125 -7.6875 C 5.992188 -7.6875 6.597656 -7.53125 7.140625 -7.21875 C 7.691406 -6.90625 8.117188 -6.460938 8.421875 -5.890625 C 8.722656 -5.316406 8.875 -4.65625 8.875 -3.90625 C 8.875 -2.59375 8.476562 -1.585938 7.6875 -0.890625 C 6.894531 -0.191406 5.703125 0.15625 4.109375 0.15625 C 2.734375 0.15625 1.613281 -0.0507812 0.75 -0.46875 L 0.75 -3.078125 C 1.21875 -2.859375 1.742188 -2.675781 2.328125 -2.53125 C 2.910156 -2.394531 3.414062 -2.328125 3.84375 -2.328125 C 4.425781 -2.328125 4.875 -2.453125 5.1875 -2.703125 C 5.507812 -2.953125 5.671875 -3.320312 5.671875 -3.8125 C 5.671875 -4.257812 5.507812 -4.609375 5.1875 -4.859375 C 4.863281 -5.109375 4.378906 -5.234375 3.734375 -5.234375 C 3.234375 -5.234375 2.691406 -5.140625 2.109375 -4.953125 L 0.953125 -5.53125 L 1.390625 -11.71875 L 8.078125 -11.71875 L 8.078125 -9.078125 L 4.09375 -9.078125 L 3.9375 -7.53125 C 4.363281 -7.613281 4.660156 -7.660156 4.828125 -7.671875 C 5.003906 -7.679688 5.171875 -7.6875 5.328125 -7.6875 Z M 5.328125 -7.6875 "/></g></g></g><g fill="rgb(100%, 100%, 100%)" fill-opacity="1"><g transform="translate(468.922239, 240.516735)"><g><path d="M 1.671875 0 L 5.703125 -9.078125 L 0.625 -9.078125 L 0.625 -11.703125 L 9.078125 -11.703125 L 9.078125 -9.84375 L 4.953125 0 Z M 1.671875 0 "/></g></g></g><g clip-path="url(#id4)"><path fill="rgb(21.958923%, 71.369934%, 100%)" d="M 319.359375 206.882812 C 319.398438 206.882812 319.480469 206.882812 319.523438 206.925781 C 319.5625 206.925781 319.644531 206.96875 319.683594 207.007812 L 337.03125 224.910156 C 337.191406 225.074219 337.191406 225.320312 337.03125 225.488281 L 319.683594 243.386719 C 319.605469 243.46875 319.523438 243.511719 319.398438 243.511719 L 316.792969 243.59375 C 316.671875 243.59375 316.589844 243.550781 316.507812 243.46875 C 316.386719 243.386719 316.347656 243.304688 316.347656 243.179688 L 316.347656 236.167969 C 316.347656 236.046875 316.386719 235.964844 316.46875 235.878906 L 326.972656 225.15625 L 316.429688 214.515625 C 316.347656 214.433594 316.304688 214.351562 316.304688 214.226562 L 316.304688 208.988281 C 316.304688 208.863281 316.386719 208.699219 316.507812 208.65625 L 319.113281 206.96875 C 319.195312 206.882812 319.277344 206.882812 319.359375 206.882812 Z M 336.175781 225.199219 L 319.320312 207.792969 L 317.160156 209.195312 L 317.160156 214.0625 L 327.789062 224.867188 C 327.949219 225.03125 327.949219 225.28125 327.789062 225.445312 L 317.121094 236.335938 L 317.121094 242.769531 L 319.195312 242.6875 Z M 316.753906 208.988281 Z M 302.707031 206.882812 C 302.746094 206.882812 302.828125 206.882812 302.871094 206.925781 C 302.910156 206.925781 302.992188 206.96875 303.03125 207.007812 L 320.417969 224.910156 C 320.582031 225.074219 320.582031 225.320312 320.417969 225.488281 L 303.03125 243.386719 C 302.953125 243.46875 302.871094 243.511719 302.746094 243.511719 L 300.101562 243.59375 C 299.980469 243.59375 299.898438 243.550781 299.816406 243.46875 C 299.734375 243.386719 299.695312 243.304688 299.695312 243.179688 L 299.695312 236.167969 C 299.695312 236.046875 299.734375 235.964844 299.816406 235.878906 L 310.320312 225.15625 L 299.816406 214.515625 C 299.734375 214.433594 299.695312 214.351562 299.695312 214.226562 L 299.695312 208.988281 C 299.695312 208.863281 299.777344 208.699219 299.898438 208.65625 L 302.503906 206.96875 C 302.585938 206.882812 302.667969 206.882812 302.707031 206.882812 Z M 319.523438 225.199219 L 302.667969 207.792969 L 300.507812 209.195312 L 300.507812 214.0625 L 311.175781 224.867188 C 311.339844 225.03125 311.339844 225.28125 311.175781 225.445312 L 300.507812 236.335938 L 300.507812 242.769531 L 302.585938 242.6875 Z M 300.101562 208.988281 Z M 300.101562 208.988281 " fill-opacity="1" fill-rule="nonzero"/></g><g fill="rgb(100%, 100%, 100%)" fill-opacity="1"><g transform="translate(203.1707, 188.252213)"><g><path d="M 9.375 -2.265625 L 8.078125 -2.265625 L 8.078125 0 L 4.953125 0 L 4.953125 -2.265625 L 0.28125 -2.265625 L 0.28125 -4.59375 L 5.15625 -11.71875 L 8.078125 -11.71875 L 8.078125 -4.640625 L 9.375 -4.640625 Z M 4.953125 -4.640625 L 4.953125 -6 C 4.953125 -6.25 4.960938 -6.59375 4.984375 -7.03125 C 5.003906 -7.46875 5.019531 -7.695312 5.03125 -7.71875 L 4.9375 -7.71875 C 4.757812 -7.3125 4.554688 -6.925781 4.328125 -6.5625 L 3.015625 -4.640625 Z M 4.953125 -4.640625 "/></g></g></g><g fill="rgb(100%, 100%, 100%)" fill-opacity="1"><g transform="translate(160.942775, 240.010378)"><g><path d="M 8.609375 -9.1875 C 8.609375 -8.457031 8.382812 -7.832031 7.9375 -7.3125 C 7.488281 -6.789062 6.847656 -6.410156 6.015625 -6.171875 L 6.015625 -6.125 C 7.972656 -5.875 8.953125 -4.953125 8.953125 -3.359375 C 8.953125 -2.265625 8.519531 -1.40625 7.65625 -0.78125 C 6.789062 -0.15625 5.59375 0.15625 4.0625 0.15625 C 3.425781 0.15625 2.835938 0.109375 2.296875 0.015625 C 1.765625 -0.0664062 1.1875 -0.226562 0.5625 -0.46875 L 0.5625 -3.109375 C 1.070312 -2.835938 1.59375 -2.640625 2.125 -2.515625 C 2.65625 -2.390625 3.144531 -2.328125 3.59375 -2.328125 C 4.289062 -2.328125 4.796875 -2.425781 5.109375 -2.625 C 5.429688 -2.820312 5.59375 -3.128906 5.59375 -3.546875 C 5.59375 -3.867188 5.507812 -4.113281 5.34375 -4.28125 C 5.175781 -4.457031 4.910156 -4.585938 4.546875 -4.671875 C 4.179688 -4.765625 3.703125 -4.8125 3.109375 -4.8125 L 2.375 -4.8125 L 2.375 -7.1875 L 3.125 -7.1875 C 4.726562 -7.1875 5.53125 -7.597656 5.53125 -8.421875 C 5.53125 -8.734375 5.410156 -8.960938 5.171875 -9.109375 C 4.929688 -9.265625 4.613281 -9.34375 4.21875 -9.34375 C 3.46875 -9.34375 2.691406 -9.09375 1.890625 -8.59375 L 0.578125 -10.703125 C 1.191406 -11.128906 1.820312 -11.429688 2.46875 -11.609375 C 3.125 -11.796875 3.875 -11.890625 4.71875 -11.890625 C 5.925781 -11.890625 6.875 -11.648438 7.5625 -11.171875 C 8.257812 -10.691406 8.609375 -10.03125 8.609375 -9.1875 Z M 8.609375 -9.1875 "/></g></g></g><g fill="rgb(100%, 100%, 100%)" fill-opacity="1"><g transform="translate(117.084193, 294.738259)"><g><path d="M 7.546875 0 L 4.34375 0 L 4.34375 -6.203125 C 4.34375 -6.960938 4.359375 -7.65625 4.390625 -8.28125 C 4.191406 -8.039062 3.941406 -7.785156 3.640625 -7.515625 L 2.3125 -6.421875 L 0.671875 -8.4375 L 4.703125 -11.71875 L 7.546875 -11.71875 Z M 7.546875 0 "/></g></g></g><g fill="rgb(100%, 100%, 100%)" fill-opacity="1"><g transform="translate(203.1707, 294.738259)"><g><path d="M 4.84375 -11.890625 C 6.082031 -11.890625 7.039062 -11.640625 7.71875 -11.140625 C 8.40625 -10.648438 8.75 -9.945312 8.75 -9.03125 C 8.75 -8.40625 8.585938 -7.859375 8.265625 -7.390625 C 7.941406 -6.929688 7.429688 -6.523438 6.734375 -6.171875 C 7.597656 -5.679688 8.207031 -5.191406 8.5625 -4.703125 C 8.914062 -4.210938 9.09375 -3.6875 9.09375 -3.125 C 9.09375 -2.082031 8.71875 -1.273438 7.96875 -0.703125 C 7.21875 -0.128906 6.164062 0.15625 4.8125 0.15625 C 3.4375 0.15625 2.378906 -0.117188 1.640625 -0.671875 C 0.910156 -1.234375 0.546875 -2.039062 0.546875 -3.09375 C 0.546875 -3.769531 0.707031 -4.347656 1.03125 -4.828125 C 1.363281 -5.304688 1.910156 -5.738281 2.671875 -6.125 C 2.054688 -6.539062 1.601562 -6.988281 1.3125 -7.46875 C 1.03125 -7.945312 0.890625 -8.472656 0.890625 -9.046875 C 0.890625 -9.941406 1.238281 -10.640625 1.9375 -11.140625 C 2.632812 -11.640625 3.601562 -11.890625 4.84375 -11.890625 Z M 3.453125 -3.21875 C 3.453125 -2.882812 3.566406 -2.613281 3.796875 -2.40625 C 4.035156 -2.207031 4.363281 -2.109375 4.78125 -2.109375 C 5.71875 -2.109375 6.1875 -2.457031 6.1875 -3.15625 C 6.1875 -3.414062 6.082031 -3.671875 5.875 -3.921875 C 5.675781 -4.179688 5.3125 -4.46875 4.78125 -4.78125 C 4.300781 -4.53125 3.957031 -4.273438 3.75 -4.015625 C 3.550781 -3.765625 3.453125 -3.5 3.453125 -3.21875 Z M 4.828125 -9.609375 C 4.554688 -9.609375 4.328125 -9.53125 4.140625 -9.375 C 3.953125 -9.21875 3.859375 -9.007812 3.859375 -8.75 C 3.859375 -8.289062 4.171875 -7.882812 4.796875 -7.53125 C 5.171875 -7.75 5.425781 -7.945312 5.5625 -8.125 C 5.707031 -8.3125 5.78125 -8.519531 5.78125 -8.75 C 5.78125 -9.007812 5.6875 -9.21875 5.5 -9.375 C 5.3125 -9.53125 5.085938 -9.609375 4.828125 -9.609375 Z M 4.828125 -9.609375 "/></g></g></g><g fill="rgb(100%, 100%, 100%)" fill-opacity="1"><g transform="translate(288.346381, 294.738259)"><g><path d="M 5.328125 -7.6875 C 5.992188 -7.6875 6.597656 -7.53125 7.140625 -7.21875 C 7.691406 -6.90625 8.117188 -6.460938 8.421875 -5.890625 C 8.722656 -5.316406 8.875 -4.65625 8.875 -3.90625 C 8.875 -2.59375 8.476562 -1.585938 7.6875 -0.890625 C 6.894531 -0.191406 5.703125 0.15625 4.109375 0.15625 C 2.734375 0.15625 1.613281 -0.0507812 0.75 -0.46875 L 0.75 -3.078125 C 1.21875 -2.859375 1.742188 -2.675781 2.328125 -2.53125 C 2.910156 -2.394531 3.414062 -2.328125 3.84375 -2.328125 C 4.425781 -2.328125 4.875 -2.453125 5.1875 -2.703125 C 5.507812 -2.953125 5.671875 -3.320312 5.671875 -3.8125 C 5.671875 -4.257812 5.507812 -4.609375 5.1875 -4.859375 C 4.863281 -5.109375 4.378906 -5.234375 3.734375 -5.234375 C 3.234375 -5.234375 2.691406 -5.140625 2.109375 -4.953125 L 0.953125 -5.53125 L 1.390625 -11.71875 L 8.078125 -11.71875 L 8.078125 -9.078125 L 4.09375 -9.078125 L 3.9375 -7.53125 C 4.363281 -7.613281 4.660156 -7.660156 4.828125 -7.671875 C 5.003906 -7.679688 5.171875 -7.6875 5.328125 -7.6875 Z M 5.328125 -7.6875 "/></g></g></g><g fill="rgb(100%, 100%, 100%)" fill-opacity="1"><g transform="translate(245.398597, 240.010378)"><g><path d="M 1.671875 0 L 5.703125 -9.078125 L 0.625 -9.078125 L 0.625 -11.703125 L 9.078125 -11.703125 L 9.078125 -9.84375 L 4.953125 0 Z M 1.671875 0 "/></g></g></g><path fill="rgb(0%, 29.019165%, 67.83905%)" d="M 240.152344 56.164062 L 268.089844 56.164062 L 268.089844 84.097656 L 240.152344 84.097656 L 240.152344 56.164062 " fill-opacity="1" fill-rule="nonzero"/><path fill="rgb(0%, 29.019165%, 67.83905%)" d="M 240.152344 84.191406 L 240.058594 84.191406 L 240.058594 56.070312 L 268.183594 56.070312 L 268.183594 84.191406 L 240.152344 84.191406 M 240.246094 56.257812 L 240.246094 84.003906 L 267.996094 84.003906 L 267.996094 56.257812 L 240.246094 56.257812 " fill-opacity="1" fill-rule="nonzero"/><path fill="rgb(21.958923%, 71.369934%, 100%)" d="M 242.128906 58.15625 L 266.097656 58.15625 L 266.097656 82.125 L 242.128906 82.125 L 242.128906 58.15625 " fill-opacity="1" fill-rule="nonzero"/><path fill="rgb(0%, 29.019165%, 67.83905%)" d="M 292.21875 56.164062 L 320.15625 56.164062 L 320.15625 84.097656 L 292.21875 84.097656 L 292.21875 56.164062 " fill-opacity="1" fill-rule="nonzero"/><path fill="rgb(0%, 29.019165%, 67.83905%)" d="M 292.21875 84.191406 L 292.125 84.191406 L 292.125 56.070312 L 320.25 56.070312 L 320.25 84.191406 L 292.21875 84.191406 M 292.3125 56.257812 L 292.3125 84.003906 L 320.0625 84.003906 L 320.0625 56.257812 L 292.3125 56.257812 " fill-opacity="1" fill-rule="nonzero"/><path fill="rgb(21.958923%, 71.369934%, 100%)" d="M 294.191406 58.15625 L 318.160156 58.15625 L 318.160156 82.125 L 294.191406 82.125 L 294.191406 58.15625 " fill-opacity="1" fill-rule="nonzero"/><path fill="rgb(0%, 29.019165%, 67.83905%)" d="M 342.761719 56.164062 L 370.699219 56.164062 L 370.699219 84.097656 L 342.761719 84.097656 L 342.761719 56.164062 " fill-opacity="1" fill-rule="nonzero"/><path fill="rgb(0%, 29.019165%, 67.83905%)" d="M 342.761719 84.191406 L 342.667969 84.191406 L 342.667969 56.070312 L 370.792969 56.070312 L 370.792969 84.191406 L 342.761719 84.191406 M 342.855469 56.257812 L 342.855469 84.003906 L 370.601562 84.003906 L 370.601562 56.257812 L 342.855469 56.257812 " fill-opacity="1" fill-rule="nonzero"/><path fill="rgb(21.958923%, 71.369934%, 100%)" d="M 344.734375 58.15625 L 368.703125 58.15625 L 368.703125 82.125 L 344.734375 82.125 L 344.734375 58.15625 " fill-opacity="1" fill-rule="nonzero"/><path fill="rgb(0%, 29.019165%, 67.83905%)" d="M 266.039062 56.164062 L 293.972656 56.164062 L 293.972656 84.097656 L 266.039062 84.097656 L 266.039062 56.164062 " fill-opacity="1" fill-rule="nonzero"/><path fill="rgb(0%, 29.019165%, 67.83905%)" d="M 266.039062 84.191406 L 265.945312 84.191406 L 265.945312 56.070312 L 294.066406 56.070312 L 294.066406 84.191406 L 266.039062 84.191406 M 266.132812 56.257812 L 266.132812 84.003906 L 293.878906 84.003906 L 293.878906 56.257812 L 266.132812 56.257812 " fill-opacity="1" fill-rule="nonzero"/><path fill="rgb(21.958923%, 71.369934%, 100%)" d="M 268.011719 58.15625 L 291.980469 58.15625 L 291.980469 82.125 L 268.011719 82.125 L 268.011719 58.15625 " fill-opacity="1" fill-rule="nonzero"/><path fill="rgb(0%, 29.019165%, 67.83905%)" d="M 318.105469 56.164062 L 346.039062 56.164062 L 346.039062 84.097656 L 318.105469 84.097656 L 318.105469 56.164062 " fill-opacity="1" fill-rule="nonzero"/><path fill="rgb(0%, 29.019165%, 67.83905%)" d="M 318.105469 84.191406 L 318.011719 84.191406 L 318.011719 56.070312 L 346.132812 56.070312 L 346.132812 84.191406 L 318.105469 84.191406 M 318.199219 56.257812 L 318.199219 84.003906 L 345.945312 84.003906 L 345.945312 56.257812 L 318.199219 56.257812 " fill-opacity="1" fill-rule="nonzero"/><path fill="rgb(21.958923%, 71.369934%, 100%)" d="M 320.078125 58.15625 L 344.046875 58.15625 L 344.046875 82.125 L 320.078125 82.125 L 320.078125 58.15625 " fill-opacity="1" fill-rule="nonzero"/><path fill="rgb(0%, 29.019165%, 67.83905%)" d="M 368.648438 56.164062 L 396.582031 56.164062 L 396.582031 84.097656 L 368.648438 84.097656 L 368.648438 56.164062 " fill-opacity="1" fill-rule="nonzero"/><path fill="rgb(0%, 29.019165%, 67.83905%)" d="M 368.648438 84.191406 L 368.554688 84.191406 L 368.554688 56.070312 L 396.675781 56.070312 L 396.675781 84.191406 L 368.648438 84.191406 M 368.742188 56.257812 L 368.742188 84.003906 L 396.488281 84.003906 L 396.488281 56.257812 L 368.742188 56.257812 " fill-opacity="1" fill-rule="nonzero"/><path fill="rgb(21.958923%, 71.369934%, 100%)" d="M 370.621094 58.15625 L 394.589844 58.15625 L 394.589844 82.125 L 370.621094 82.125 L 370.621094 58.15625 " fill-opacity="1" fill-rule="nonzero"/><g fill="rgb(100%, 100%, 100%)" fill-opacity="1"><g transform="translate(249.45492, 74.526632)"><g><path d="M 9.046875 -2.1875 L 7.8125 -2.1875 L 7.8125 0 L 4.78125 0 L 4.78125 -2.1875 L 0.265625 -2.1875 L 0.265625 -4.4375 L 4.984375 -11.328125 L 7.8125 -11.328125 L 7.8125 -4.46875 L 9.046875 -4.46875 Z M 4.78125 -4.46875 L 4.78125 -5.796875 C 4.78125 -6.046875 4.789062 -6.378906 4.8125 -6.796875 C 4.832031 -7.210938 4.847656 -7.429688 4.859375 -7.453125 L 4.765625 -7.453125 C 4.585938 -7.054688 4.390625 -6.6875 4.171875 -6.34375 L 2.921875 -4.46875 Z M 4.78125 -4.46875 "/></g></g></g><g fill="rgb(100%, 100%, 100%)" fill-opacity="1"><g transform="translate(275.340355, 74.526632)"><g><path d="M 8.3125 -8.859375 C 8.3125 -8.160156 8.097656 -7.554688 7.671875 -7.046875 C 7.242188 -6.546875 6.625 -6.1875 5.8125 -5.96875 L 5.8125 -5.921875 C 7.695312 -5.679688 8.640625 -4.785156 8.640625 -3.234375 C 8.640625 -2.179688 8.222656 -1.351562 7.390625 -0.75 C 6.554688 -0.144531 5.398438 0.15625 3.921875 0.15625 C 3.304688 0.15625 2.738281 0.109375 2.21875 0.015625 C 1.707031 -0.0664062 1.148438 -0.222656 0.546875 -0.453125 L 0.546875 -3 C 1.035156 -2.75 1.535156 -2.5625 2.046875 -2.4375 C 2.566406 -2.3125 3.046875 -2.25 3.484375 -2.25 C 4.148438 -2.25 4.632812 -2.34375 4.9375 -2.53125 C 5.25 -2.71875 5.40625 -3.015625 5.40625 -3.421875 C 5.40625 -3.734375 5.320312 -3.972656 5.15625 -4.140625 C 5 -4.304688 4.742188 -4.429688 4.390625 -4.515625 C 4.035156 -4.597656 3.570312 -4.640625 3 -4.640625 L 2.296875 -4.640625 L 2.296875 -6.953125 L 3.015625 -6.953125 C 4.566406 -6.953125 5.34375 -7.347656 5.34375 -8.140625 C 5.34375 -8.441406 5.226562 -8.660156 5 -8.796875 C 4.769531 -8.941406 4.460938 -9.015625 4.078125 -9.015625 C 3.347656 -9.015625 2.597656 -8.773438 1.828125 -8.296875 L 0.5625 -10.34375 C 1.15625 -10.75 1.765625 -11.039062 2.390625 -11.21875 C 3.023438 -11.394531 3.742188 -11.484375 4.546875 -11.484375 C 5.722656 -11.484375 6.644531 -11.25 7.3125 -10.78125 C 7.976562 -10.320312 8.3125 -9.679688 8.3125 -8.859375 Z M 8.3125 -8.859375 "/></g></g></g><g fill="rgb(100%, 100%, 100%)" fill-opacity="1"><g transform="translate(327.406566, 74.526632)"><g><path d="M 7.296875 0 L 4.1875 0 L 4.1875 -6 C 4.1875 -6.71875 4.203125 -7.378906 4.234375 -7.984375 C 4.046875 -7.753906 3.8125 -7.515625 3.53125 -7.265625 L 2.234375 -6.203125 L 0.65625 -8.15625 L 4.53125 -11.328125 L 7.296875 -11.328125 Z M 7.296875 0 "/></g></g></g><g fill="rgb(100%, 100%, 100%)" fill-opacity="1"><g transform="translate(301.02627, 74.526632)"><g><path d="M 1.625 0 L 5.5 -8.78125 L 0.609375 -8.78125 L 0.609375 -11.3125 L 8.78125 -11.3125 L 8.78125 -9.5 L 4.78125 0 Z M 1.625 0 "/></g></g></g><g fill="rgb(100%, 100%, 100%)" fill-opacity="1"><g transform="translate(377.949233, 74.526632)"><g><path d="M 5.140625 -7.421875 C 5.796875 -7.421875 6.382812 -7.269531 6.90625 -6.96875 C 7.425781 -6.664062 7.832031 -6.238281 8.125 -5.6875 C 8.414062 -5.132812 8.5625 -4.492188 8.5625 -3.765625 C 8.5625 -2.503906 8.179688 -1.535156 7.421875 -0.859375 C 6.660156 -0.179688 5.507812 0.15625 3.96875 0.15625 C 2.644531 0.15625 1.566406 -0.046875 0.734375 -0.453125 L 0.734375 -2.96875 C 1.179688 -2.757812 1.6875 -2.585938 2.25 -2.453125 C 2.8125 -2.316406 3.296875 -2.25 3.703125 -2.25 C 4.273438 -2.25 4.710938 -2.367188 5.015625 -2.609375 C 5.316406 -2.847656 5.46875 -3.203125 5.46875 -3.671875 C 5.46875 -4.109375 5.3125 -4.445312 5 -4.6875 C 4.695312 -4.9375 4.226562 -5.0625 3.59375 -5.0625 C 3.113281 -5.0625 2.597656 -4.96875 2.046875 -4.78125 L 0.921875 -5.34375 L 1.34375 -11.328125 L 7.8125 -11.328125 L 7.8125 -8.78125 L 3.953125 -8.78125 L 3.8125 -7.28125 C 4.207031 -7.351562 4.488281 -7.394531 4.65625 -7.40625 C 4.832031 -7.414062 4.992188 -7.421875 5.140625 -7.421875 Z M 5.140625 -7.421875 "/></g></g></g><g fill="rgb(100%, 100%, 100%)" fill-opacity="1"><g transform="translate(352.063798, 74.526632)"><g><path d="M 4.671875 -11.484375 C 5.867188 -11.484375 6.796875 -11.242188 7.453125 -10.765625 C 8.117188 -10.285156 8.453125 -9.601562 8.453125 -8.71875 C 8.453125 -8.125 8.296875 -7.597656 7.984375 -7.140625 C 7.671875 -6.691406 7.175781 -6.300781 6.5 -5.96875 C 7.34375 -5.488281 7.9375 -5.007812 8.28125 -4.53125 C 8.625 -4.0625 8.796875 -3.554688 8.796875 -3.015625 C 8.796875 -2.003906 8.429688 -1.222656 7.703125 -0.671875 C 6.972656 -0.117188 5.953125 0.15625 4.640625 0.15625 C 3.304688 0.15625 2.285156 -0.113281 1.578125 -0.65625 C 0.878906 -1.195312 0.53125 -1.972656 0.53125 -2.984375 C 0.53125 -3.640625 0.6875 -4.195312 1 -4.65625 C 1.3125 -5.113281 1.84375 -5.535156 2.59375 -5.921875 C 1.988281 -6.316406 1.546875 -6.742188 1.265625 -7.203125 C 0.992188 -7.671875 0.859375 -8.179688 0.859375 -8.734375 C 0.859375 -9.597656 1.195312 -10.269531 1.875 -10.75 C 2.550781 -11.238281 3.484375 -11.484375 4.671875 -11.484375 Z M 3.328125 -3.109375 C 3.328125 -2.785156 3.441406 -2.523438 3.671875 -2.328125 C 3.898438 -2.140625 4.210938 -2.046875 4.609375 -2.046875 C 5.523438 -2.046875 5.984375 -2.378906 5.984375 -3.046875 C 5.984375 -3.296875 5.878906 -3.539062 5.671875 -3.78125 C 5.472656 -4.03125 5.117188 -4.304688 4.609375 -4.609375 C 4.148438 -4.367188 3.820312 -4.125 3.625 -3.875 C 3.425781 -3.632812 3.328125 -3.378906 3.328125 -3.109375 Z M 4.65625 -9.28125 C 4.394531 -9.28125 4.171875 -9.203125 3.984375 -9.046875 C 3.804688 -8.890625 3.71875 -8.691406 3.71875 -8.453125 C 3.71875 -8.015625 4.019531 -7.625 4.625 -7.28125 C 5 -7.488281 5.25 -7.679688 5.375 -7.859375 C 5.507812 -8.035156 5.578125 -8.234375 5.578125 -8.453125 C 5.578125 -8.703125 5.488281 -8.898438 5.3125 -9.046875 C 5.132812 -9.203125 4.914062 -9.28125 4.65625 -9.28125 Z M 4.65625 -9.28125 "/></g></g></g><g fill="rgb(100%, 100%, 100%)" fill-opacity="1"><g transform="translate(208.148375, 77.235135)"><g><path d="M 8.265625 -4.875 L 6.6875 -9.171875 C 6.613281 -9.367188 6.535156 -9.597656 6.453125 -9.859375 C 6.367188 -10.117188 6.285156 -10.398438 6.203125 -10.703125 C 6.128906 -10.398438 6.050781 -10.113281 5.96875 -9.84375 C 5.882812 -9.582031 5.800781 -9.351562 5.71875 -9.15625 L 4.15625 -4.875 Z M 12.515625 0 L 10.65625 0 C 10.445312 0 10.273438 -0.0507812 10.140625 -0.15625 C 10.015625 -0.257812 9.914062 -0.390625 9.84375 -0.546875 L 8.890625 -3.1875 L 3.53125 -3.1875 L 2.5625 -0.546875 C 2.519531 -0.410156 2.425781 -0.285156 2.28125 -0.171875 C 2.144531 -0.0546875 1.976562 0 1.78125 0 L -0.09375 0 L 4.984375 -12.921875 L 7.4375 -12.921875 Z M 12.515625 0 "/></g></g></g><g fill="rgb(100%, 100%, 100%)" fill-opacity="1"><g transform="translate(220.55917, 77.235135)"><g><path d="M 3.171875 -7.578125 C 3.460938 -8.128906 3.800781 -8.5625 4.1875 -8.875 C 4.582031 -9.1875 5.050781 -9.34375 5.59375 -9.34375 C 6.007812 -9.34375 6.347656 -9.25 6.609375 -9.0625 L 6.46875 -7.40625 C 6.4375 -7.300781 6.390625 -7.222656 6.328125 -7.171875 C 6.273438 -7.128906 6.203125 -7.109375 6.109375 -7.109375 C 6.015625 -7.109375 5.878906 -7.125 5.703125 -7.15625 C 5.523438 -7.1875 5.351562 -7.203125 5.1875 -7.203125 C 4.945312 -7.203125 4.726562 -7.164062 4.53125 -7.09375 C 4.34375 -7.019531 4.171875 -6.914062 4.015625 -6.78125 C 3.867188 -6.65625 3.738281 -6.492188 3.625 -6.296875 C 3.507812 -6.109375 3.398438 -5.894531 3.296875 -5.65625 L 3.296875 0 L 1.09375 0 L 1.09375 -9.171875 L 2.390625 -9.171875 C 2.609375 -9.171875 2.765625 -9.128906 2.859375 -9.046875 C 2.953125 -8.960938 3.007812 -8.816406 3.03125 -8.609375 Z M 3.171875 -7.578125 "/></g></g></g><g fill="rgb(100%, 100%, 100%)" fill-opacity="1"><g transform="translate(227.224717, 77.235135)"><g><path d="M 3.171875 -7.578125 C 3.460938 -8.128906 3.800781 -8.5625 4.1875 -8.875 C 4.582031 -9.1875 5.050781 -9.34375 5.59375 -9.34375 C 6.007812 -9.34375 6.347656 -9.25 6.609375 -9.0625 L 6.46875 -7.40625 C 6.4375 -7.300781 6.390625 -7.222656 6.328125 -7.171875 C 6.273438 -7.128906 6.203125 -7.109375 6.109375 -7.109375 C 6.015625 -7.109375 5.878906 -7.125 5.703125 -7.15625 C 5.523438 -7.1875 5.351562 -7.203125 5.1875 -7.203125 C 4.945312 -7.203125 4.726562 -7.164062 4.53125 -7.09375 C 4.34375 -7.019531 4.171875 -6.914062 4.015625 -6.78125 C 3.867188 -6.65625 3.738281 -6.492188 3.625 -6.296875 C 3.507812 -6.109375 3.398438 -5.894531 3.296875 -5.65625 L 3.296875 0 L 1.09375 0 L 1.09375 -9.171875 L 2.390625 -9.171875 C 2.609375 -9.171875 2.765625 -9.128906 2.859375 -9.046875 C 2.953125 -8.960938 3.007812 -8.816406 3.03125 -8.609375 Z M 3.171875 -7.578125 "/></g></g></g><g fill="rgb(100%, 100%, 100%)" fill-opacity="1"><g transform="translate(141.990484, 149.781414)"><g><path d="M 3.859375 0 L 1.4375 0 L 1.4375 -12.921875 L 3.859375 -12.921875 Z M 3.859375 0 "/></g></g></g><g fill="rgb(100%, 100%, 100%)" fill-opacity="1"><g transform="translate(147.288978, 149.781414)"><g><path d="M 3.15625 -8.046875 C 3.34375 -8.234375 3.535156 -8.40625 3.734375 -8.5625 C 3.941406 -8.71875 4.160156 -8.847656 4.390625 -8.953125 C 4.617188 -9.066406 4.863281 -9.15625 5.125 -9.21875 C 5.382812 -9.28125 5.671875 -9.3125 5.984375 -9.3125 C 6.484375 -9.3125 6.925781 -9.222656 7.3125 -9.046875 C 7.707031 -8.878906 8.03125 -8.644531 8.28125 -8.34375 C 8.539062 -8.039062 8.738281 -7.675781 8.875 -7.25 C 9.007812 -6.820312 9.078125 -6.351562 9.078125 -5.84375 L 9.078125 0 L 6.875 0 L 6.875 -5.84375 C 6.875 -6.394531 6.742188 -6.820312 6.484375 -7.125 C 6.234375 -7.4375 5.84375 -7.59375 5.3125 -7.59375 C 4.9375 -7.59375 4.582031 -7.503906 4.25 -7.328125 C 3.914062 -7.160156 3.597656 -6.925781 3.296875 -6.625 L 3.296875 0 L 1.09375 0 L 1.09375 -9.171875 L 2.4375 -9.171875 C 2.726562 -9.171875 2.914062 -9.035156 3 -8.765625 Z M 3.15625 -8.046875 "/></g></g></g><g fill="rgb(100%, 100%, 100%)" fill-opacity="1"><g transform="translate(157.367723, 149.781414)"><g><path d="M 3.375 -9.171875 L 3.375 0 L 1.15625 0 L 1.15625 -9.171875 Z M 3.6875 -11.84375 C 3.6875 -11.65625 3.644531 -11.476562 3.5625 -11.3125 C 3.488281 -11.144531 3.382812 -11 3.25 -10.875 C 3.125 -10.75 2.972656 -10.644531 2.796875 -10.5625 C 2.628906 -10.488281 2.445312 -10.453125 2.25 -10.453125 C 2.0625 -10.453125 1.878906 -10.488281 1.703125 -10.5625 C 1.535156 -10.644531 1.390625 -10.75 1.265625 -10.875 C 1.140625 -11 1.039062 -11.144531 0.96875 -11.3125 C 0.894531 -11.476562 0.859375 -11.65625 0.859375 -11.84375 C 0.859375 -12.039062 0.894531 -12.222656 0.96875 -12.390625 C 1.039062 -12.566406 1.140625 -12.71875 1.265625 -12.84375 C 1.390625 -12.96875 1.535156 -13.066406 1.703125 -13.140625 C 1.878906 -13.210938 2.0625 -13.25 2.25 -13.25 C 2.445312 -13.25 2.628906 -13.210938 2.796875 -13.140625 C 2.972656 -13.066406 3.125 -12.96875 3.25 -12.84375 C 3.382812 -12.71875 3.488281 -12.566406 3.5625 -12.390625 C 3.644531 -12.222656 3.6875 -12.039062 3.6875 -11.84375 Z M 3.6875 -11.84375 "/></g></g></g><g fill="rgb(100%, 100%, 100%)" fill-opacity="1"><g transform="translate(161.906734, 149.781414)"><g><path d="M 4.140625 0.140625 C 3.347656 0.140625 2.738281 -0.0820312 2.3125 -0.53125 C 1.882812 -0.976562 1.671875 -1.597656 1.671875 -2.390625 L 1.671875 -7.515625 L 0.734375 -7.515625 C 0.609375 -7.515625 0.503906 -7.550781 0.421875 -7.625 C 0.335938 -7.707031 0.296875 -7.828125 0.296875 -7.984375 L 0.296875 -8.859375 L 1.78125 -9.09375 L 2.25 -11.59375 C 2.269531 -11.71875 2.320312 -11.8125 2.40625 -11.875 C 2.488281 -11.9375 2.597656 -11.96875 2.734375 -11.96875 L 3.875 -11.96875 L 3.875 -9.09375 L 6.328125 -9.09375 L 6.328125 -7.515625 L 3.875 -7.515625 L 3.875 -2.546875 C 3.875 -2.265625 3.941406 -2.039062 4.078125 -1.875 C 4.222656 -1.71875 4.421875 -1.640625 4.671875 -1.640625 C 4.804688 -1.640625 4.914062 -1.65625 5 -1.6875 C 5.09375 -1.71875 5.175781 -1.75 5.25 -1.78125 C 5.320312 -1.820312 5.382812 -1.859375 5.4375 -1.890625 C 5.488281 -1.921875 5.539062 -1.9375 5.59375 -1.9375 C 5.65625 -1.9375 5.707031 -1.921875 5.75 -1.890625 C 5.789062 -1.859375 5.835938 -1.8125 5.890625 -1.75 L 6.546875 -0.671875 C 6.222656 -0.398438 5.851562 -0.195312 5.4375 -0.0625 C 5.019531 0.0703125 4.585938 0.140625 4.140625 0.140625 Z M 4.140625 0.140625 "/></g></g></g><g fill="rgb(100%, 100%, 100%)" fill-opacity="1"><g transform="translate(168.554417, 149.781414)"><g><path d="M 3.375 -9.171875 L 3.375 0 L 1.15625 0 L 1.15625 -9.171875 Z M 3.6875 -11.84375 C 3.6875 -11.65625 3.644531 -11.476562 3.5625 -11.3125 C 3.488281 -11.144531 3.382812 -11 3.25 -10.875 C 3.125 -10.75 2.972656 -10.644531 2.796875 -10.5625 C 2.628906 -10.488281 2.445312 -10.453125 2.25 -10.453125 C 2.0625 -10.453125 1.878906 -10.488281 1.703125 -10.5625 C 1.535156 -10.644531 1.390625 -10.75 1.265625 -10.875 C 1.140625 -11 1.039062 -11.144531 0.96875 -11.3125 C 0.894531 -11.476562 0.859375 -11.65625 0.859375 -11.84375 C 0.859375 -12.039062 0.894531 -12.222656 0.96875 -12.390625 C 1.039062 -12.566406 1.140625 -12.71875 1.265625 -12.84375 C 1.390625 -12.96875 1.535156 -13.066406 1.703125 -13.140625 C 1.878906 -13.210938 2.0625 -13.25 2.25 -13.25 C 2.445312 -13.25 2.628906 -13.210938 2.796875 -13.140625 C 2.972656 -13.066406 3.125 -12.96875 3.25 -12.84375 C 3.382812 -12.71875 3.488281 -12.566406 3.5625 -12.390625 C 3.644531 -12.222656 3.6875 -12.039062 3.6875 -11.84375 Z M 3.6875 -11.84375 "/></g></g></g><g fill="rgb(100%, 100%, 100%)" fill-opacity="1"><g transform="translate(173.093428, 149.781414)"><g><path d="M 5.9375 -3.921875 C 5.300781 -3.890625 4.765625 -3.832031 4.328125 -3.75 C 3.890625 -3.664062 3.539062 -3.5625 3.28125 -3.4375 C 3.019531 -3.3125 2.832031 -3.164062 2.71875 -3 C 2.601562 -2.832031 2.546875 -2.648438 2.546875 -2.453125 C 2.546875 -2.066406 2.660156 -1.789062 2.890625 -1.625 C 3.117188 -1.457031 3.421875 -1.375 3.796875 -1.375 C 4.242188 -1.375 4.628906 -1.457031 4.953125 -1.625 C 5.285156 -1.789062 5.613281 -2.039062 5.9375 -2.375 Z M 0.875 -7.890625 C 1.925781 -8.859375 3.195312 -9.34375 4.6875 -9.34375 C 5.21875 -9.34375 5.691406 -9.253906 6.109375 -9.078125 C 6.535156 -8.898438 6.894531 -8.65625 7.1875 -8.34375 C 7.476562 -8.03125 7.703125 -7.65625 7.859375 -7.21875 C 8.015625 -6.78125 8.09375 -6.304688 8.09375 -5.796875 L 8.09375 0 L 7.09375 0 C 6.882812 0 6.722656 -0.03125 6.609375 -0.09375 C 6.492188 -0.15625 6.40625 -0.28125 6.34375 -0.46875 L 6.140625 -1.140625 C 5.910156 -0.929688 5.679688 -0.742188 5.453125 -0.578125 C 5.234375 -0.421875 5.003906 -0.289062 4.765625 -0.1875 C 4.535156 -0.0820312 4.285156 -0.00390625 4.015625 0.046875 C 3.742188 0.109375 3.441406 0.140625 3.109375 0.140625 C 2.722656 0.140625 2.363281 0.0859375 2.03125 -0.015625 C 1.707031 -0.117188 1.425781 -0.273438 1.1875 -0.484375 C 0.945312 -0.691406 0.757812 -0.945312 0.625 -1.25 C 0.5 -1.5625 0.4375 -1.925781 0.4375 -2.34375 C 0.4375 -2.570312 0.472656 -2.800781 0.546875 -3.03125 C 0.628906 -3.257812 0.757812 -3.476562 0.9375 -3.6875 C 1.113281 -3.894531 1.335938 -4.09375 1.609375 -4.28125 C 1.890625 -4.46875 2.234375 -4.628906 2.640625 -4.765625 C 3.054688 -4.898438 3.535156 -5.007812 4.078125 -5.09375 C 4.617188 -5.1875 5.238281 -5.238281 5.9375 -5.25 L 5.9375 -5.796875 C 5.9375 -6.410156 5.800781 -6.863281 5.53125 -7.15625 C 5.269531 -7.445312 4.894531 -7.59375 4.40625 -7.59375 C 4.050781 -7.59375 3.753906 -7.550781 3.515625 -7.46875 C 3.273438 -7.382812 3.066406 -7.289062 2.890625 -7.1875 C 2.710938 -7.082031 2.550781 -6.988281 2.40625 -6.90625 C 2.257812 -6.820312 2.097656 -6.78125 1.921875 -6.78125 C 1.765625 -6.78125 1.632812 -6.820312 1.53125 -6.90625 C 1.425781 -6.988281 1.335938 -7.082031 1.265625 -7.1875 Z M 0.875 -7.890625 "/></g></g></g><g fill="rgb(100%, 100%, 100%)" fill-opacity="1"><g transform="translate(182.162513, 149.781414)"><g><path d="M 3.328125 -13.28125 L 3.328125 0 L 1.125 0 L 1.125 -13.28125 Z M 3.328125 -13.28125 "/></g></g></g><g fill="rgb(100%, 100%, 100%)" fill-opacity="1"><g transform="translate(186.603235, 149.781414)"><g/></g></g><g fill="rgb(100%, 100%, 100%)" fill-opacity="1"><g transform="translate(190.945669, 149.781414)"><g><path d="M 3.859375 -11.015625 L 3.859375 -7.421875 L 8.375 -7.421875 L 8.375 -5.578125 L 3.859375 -5.578125 L 3.859375 -1.921875 L 9.59375 -1.921875 L 9.59375 0 L 1.4375 0 L 1.4375 -12.921875 L 9.59375 -12.921875 L 9.59375 -11.015625 Z M 3.859375 -11.015625 "/></g></g></g><g fill="rgb(100%, 100%, 100%)" fill-opacity="1"><g transform="translate(201.22098, 149.781414)"><g><path d="M 3.328125 -13.28125 L 3.328125 0 L 1.125 0 L 1.125 -13.28125 Z M 3.328125 -13.28125 "/></g></g></g><g fill="rgb(100%, 100%, 100%)" fill-opacity="1"><g transform="translate(205.661702, 149.781414)"><g><path d="M 7 -5.640625 C 7 -5.921875 6.957031 -6.1875 6.875 -6.4375 C 6.789062 -6.695312 6.671875 -6.921875 6.515625 -7.109375 C 6.359375 -7.304688 6.15625 -7.457031 5.90625 -7.5625 C 5.65625 -7.675781 5.367188 -7.734375 5.046875 -7.734375 C 4.398438 -7.734375 3.894531 -7.550781 3.53125 -7.1875 C 3.164062 -6.820312 2.929688 -6.304688 2.828125 -5.640625 Z M 2.78125 -4.3125 C 2.820312 -3.84375 2.90625 -3.4375 3.03125 -3.09375 C 3.164062 -2.75 3.335938 -2.460938 3.546875 -2.234375 C 3.765625 -2.015625 4.019531 -1.847656 4.3125 -1.734375 C 4.613281 -1.628906 4.941406 -1.578125 5.296875 -1.578125 C 5.660156 -1.578125 5.96875 -1.617188 6.21875 -1.703125 C 6.476562 -1.785156 6.703125 -1.875 6.890625 -1.96875 C 7.085938 -2.070312 7.257812 -2.164062 7.40625 -2.25 C 7.550781 -2.332031 7.695312 -2.375 7.84375 -2.375 C 8.019531 -2.375 8.15625 -2.304688 8.25 -2.171875 L 8.890625 -1.375 C 8.640625 -1.082031 8.363281 -0.835938 8.0625 -0.640625 C 7.757812 -0.453125 7.441406 -0.300781 7.109375 -0.1875 C 6.773438 -0.0703125 6.4375 0.0078125 6.09375 0.0625 C 5.757812 0.113281 5.429688 0.140625 5.109375 0.140625 C 4.460938 0.140625 3.863281 0.0351562 3.3125 -0.171875 C 2.769531 -0.390625 2.296875 -0.707031 1.890625 -1.125 C 1.484375 -1.539062 1.164062 -2.050781 0.9375 -2.65625 C 0.707031 -3.269531 0.59375 -3.976562 0.59375 -4.78125 C 0.59375 -5.40625 0.691406 -5.992188 0.890625 -6.546875 C 1.097656 -7.097656 1.390625 -7.578125 1.765625 -7.984375 C 2.140625 -8.390625 2.597656 -8.710938 3.140625 -8.953125 C 3.691406 -9.191406 4.3125 -9.3125 5 -9.3125 C 5.570312 -9.3125 6.101562 -9.21875 6.59375 -9.03125 C 7.082031 -8.851562 7.503906 -8.582031 7.859375 -8.21875 C 8.210938 -7.863281 8.488281 -7.429688 8.6875 -6.921875 C 8.882812 -6.410156 8.984375 -5.820312 8.984375 -5.15625 C 8.984375 -4.820312 8.945312 -4.597656 8.875 -4.484375 C 8.800781 -4.367188 8.664062 -4.3125 8.46875 -4.3125 Z M 2.78125 -4.3125 "/></g></g></g><g fill="rgb(100%, 100%, 100%)" fill-opacity="1"><g transform="translate(215.204342, 149.781414)"><g><path d="M 1.09375 0 L 1.09375 -9.171875 L 2.4375 -9.171875 C 2.726562 -9.171875 2.914062 -9.035156 3 -8.765625 L 3.140625 -8.09375 C 3.304688 -8.269531 3.476562 -8.429688 3.65625 -8.578125 C 3.832031 -8.722656 4.019531 -8.847656 4.21875 -8.953125 C 4.414062 -9.066406 4.628906 -9.15625 4.859375 -9.21875 C 5.085938 -9.28125 5.335938 -9.3125 5.609375 -9.3125 C 6.191406 -9.3125 6.664062 -9.15625 7.03125 -8.84375 C 7.40625 -8.53125 7.6875 -8.113281 7.875 -7.59375 C 8.019531 -7.894531 8.195312 -8.15625 8.40625 -8.375 C 8.625 -8.59375 8.859375 -8.769531 9.109375 -8.90625 C 9.367188 -9.039062 9.644531 -9.140625 9.9375 -9.203125 C 10.226562 -9.273438 10.519531 -9.3125 10.8125 -9.3125 C 11.3125 -9.3125 11.757812 -9.234375 12.15625 -9.078125 C 12.550781 -8.921875 12.878906 -8.691406 13.140625 -8.390625 C 13.410156 -8.097656 13.613281 -7.738281 13.75 -7.3125 C 13.894531 -6.882812 13.96875 -6.394531 13.96875 -5.84375 L 13.96875 0 L 11.765625 0 L 11.765625 -5.84375 C 11.765625 -6.425781 11.632812 -6.863281 11.375 -7.15625 C 11.125 -7.445312 10.75 -7.59375 10.25 -7.59375 C 10.019531 -7.59375 9.804688 -7.550781 9.609375 -7.46875 C 9.421875 -7.394531 9.253906 -7.285156 9.109375 -7.140625 C 8.960938 -6.992188 8.847656 -6.8125 8.765625 -6.59375 C 8.679688 -6.375 8.640625 -6.125 8.640625 -5.84375 L 8.640625 0 L 6.421875 0 L 6.421875 -5.84375 C 6.421875 -6.445312 6.296875 -6.890625 6.046875 -7.171875 C 5.804688 -7.453125 5.445312 -7.59375 4.96875 -7.59375 C 4.644531 -7.59375 4.34375 -7.515625 4.0625 -7.359375 C 3.789062 -7.203125 3.535156 -6.988281 3.296875 -6.71875 L 3.296875 0 Z M 1.09375 0 "/></g></g></g><g fill="rgb(100%, 100%, 100%)" fill-opacity="1"><g transform="translate(230.170564, 149.781414)"><g><path d="M 7 -5.640625 C 7 -5.921875 6.957031 -6.1875 6.875 -6.4375 C 6.789062 -6.695312 6.671875 -6.921875 6.515625 -7.109375 C 6.359375 -7.304688 6.15625 -7.457031 5.90625 -7.5625 C 5.65625 -7.675781 5.367188 -7.734375 5.046875 -7.734375 C 4.398438 -7.734375 3.894531 -7.550781 3.53125 -7.1875 C 3.164062 -6.820312 2.929688 -6.304688 2.828125 -5.640625 Z M 2.78125 -4.3125 C 2.820312 -3.84375 2.90625 -3.4375 3.03125 -3.09375 C 3.164062 -2.75 3.335938 -2.460938 3.546875 -2.234375 C 3.765625 -2.015625 4.019531 -1.847656 4.3125 -1.734375 C 4.613281 -1.628906 4.941406 -1.578125 5.296875 -1.578125 C 5.660156 -1.578125 5.96875 -1.617188 6.21875 -1.703125 C 6.476562 -1.785156 6.703125 -1.875 6.890625 -1.96875 C 7.085938 -2.070312 7.257812 -2.164062 7.40625 -2.25 C 7.550781 -2.332031 7.695312 -2.375 7.84375 -2.375 C 8.019531 -2.375 8.15625 -2.304688 8.25 -2.171875 L 8.890625 -1.375 C 8.640625 -1.082031 8.363281 -0.835938 8.0625 -0.640625 C 7.757812 -0.453125 7.441406 -0.300781 7.109375 -0.1875 C 6.773438 -0.0703125 6.4375 0.0078125 6.09375 0.0625 C 5.757812 0.113281 5.429688 0.140625 5.109375 0.140625 C 4.460938 0.140625 3.863281 0.0351562 3.3125 -0.171875 C 2.769531 -0.390625 2.296875 -0.707031 1.890625 -1.125 C 1.484375 -1.539062 1.164062 -2.050781 0.9375 -2.65625 C 0.707031 -3.269531 0.59375 -3.976562 0.59375 -4.78125 C 0.59375 -5.40625 0.691406 -5.992188 0.890625 -6.546875 C 1.097656 -7.097656 1.390625 -7.578125 1.765625 -7.984375 C 2.140625 -8.390625 2.597656 -8.710938 3.140625 -8.953125 C 3.691406 -9.191406 4.3125 -9.3125 5 -9.3125 C 5.570312 -9.3125 6.101562 -9.21875 6.59375 -9.03125 C 7.082031 -8.851562 7.503906 -8.582031 7.859375 -8.21875 C 8.210938 -7.863281 8.488281 -7.429688 8.6875 -6.921875 C 8.882812 -6.410156 8.984375 -5.820312 8.984375 -5.15625 C 8.984375 -4.820312 8.945312 -4.597656 8.875 -4.484375 C 8.800781 -4.367188 8.664062 -4.3125 8.46875 -4.3125 Z M 2.78125 -4.3125 "/></g></g></g><g fill="rgb(100%, 100%, 100%)" fill-opacity="1"><g transform="translate(239.713203, 149.781414)"><g><path d="M 3.15625 -8.046875 C 3.34375 -8.234375 3.535156 -8.40625 3.734375 -8.5625 C 3.941406 -8.71875 4.160156 -8.847656 4.390625 -8.953125 C 4.617188 -9.066406 4.863281 -9.15625 5.125 -9.21875 C 5.382812 -9.28125 5.671875 -9.3125 5.984375 -9.3125 C 6.484375 -9.3125 6.925781 -9.222656 7.3125 -9.046875 C 7.707031 -8.878906 8.03125 -8.644531 8.28125 -8.34375 C 8.539062 -8.039062 8.738281 -7.675781 8.875 -7.25 C 9.007812 -6.820312 9.078125 -6.351562 9.078125 -5.84375 L 9.078125 0 L 6.875 0 L 6.875 -5.84375 C 6.875 -6.394531 6.742188 -6.820312 6.484375 -7.125 C 6.234375 -7.4375 5.84375 -7.59375 5.3125 -7.59375 C 4.9375 -7.59375 4.582031 -7.503906 4.25 -7.328125 C 3.914062 -7.160156 3.597656 -6.925781 3.296875 -6.625 L 3.296875 0 L 1.09375 0 L 1.09375 -9.171875 L 2.4375 -9.171875 C 2.726562 -9.171875 2.914062 -9.035156 3 -8.765625 Z M 3.15625 -8.046875 "/></g></g></g><g fill="rgb(100%, 100%, 100%)" fill-opacity="1"><g transform="translate(249.791949, 149.781414)"><g><path d="M 4.140625 0.140625 C 3.347656 0.140625 2.738281 -0.0820312 2.3125 -0.53125 C 1.882812 -0.976562 1.671875 -1.597656 1.671875 -2.390625 L 1.671875 -7.515625 L 0.734375 -7.515625 C 0.609375 -7.515625 0.503906 -7.550781 0.421875 -7.625 C 0.335938 -7.707031 0.296875 -7.828125 0.296875 -7.984375 L 0.296875 -8.859375 L 1.78125 -9.09375 L 2.25 -11.59375 C 2.269531 -11.71875 2.320312 -11.8125 2.40625 -11.875 C 2.488281 -11.9375 2.597656 -11.96875 2.734375 -11.96875 L 3.875 -11.96875 L 3.875 -9.09375 L 6.328125 -9.09375 L 6.328125 -7.515625 L 3.875 -7.515625 L 3.875 -2.546875 C 3.875 -2.265625 3.941406 -2.039062 4.078125 -1.875 C 4.222656 -1.71875 4.421875 -1.640625 4.671875 -1.640625 C 4.804688 -1.640625 4.914062 -1.65625 5 -1.6875 C 5.09375 -1.71875 5.175781 -1.75 5.25 -1.78125 C 5.320312 -1.820312 5.382812 -1.859375 5.4375 -1.890625 C 5.488281 -1.921875 5.539062 -1.9375 5.59375 -1.9375 C 5.65625 -1.9375 5.707031 -1.921875 5.75 -1.890625 C 5.789062 -1.859375 5.835938 -1.8125 5.890625 -1.75 L 6.546875 -0.671875 C 6.222656 -0.398438 5.851562 -0.195312 5.4375 -0.0625 C 5.019531 0.0703125 4.585938 0.140625 4.140625 0.140625 Z M 4.140625 0.140625 "/></g></g></g><g fill="rgb(100%, 100%, 100%)" fill-opacity="1"><g transform="translate(256.439632, 149.781414)"><g><path d="M 6.6875 -7.375 C 6.625 -7.28125 6.5625 -7.210938 6.5 -7.171875 C 6.4375 -7.140625 6.351562 -7.125 6.25 -7.125 C 6.144531 -7.125 6.03125 -7.148438 5.90625 -7.203125 C 5.78125 -7.265625 5.632812 -7.332031 5.46875 -7.40625 C 5.3125 -7.488281 5.128906 -7.554688 4.921875 -7.609375 C 4.722656 -7.671875 4.484375 -7.703125 4.203125 -7.703125 C 3.765625 -7.703125 3.421875 -7.609375 3.171875 -7.421875 C 2.929688 -7.242188 2.8125 -7.003906 2.8125 -6.703125 C 2.8125 -6.503906 2.875 -6.335938 3 -6.203125 C 3.125 -6.066406 3.289062 -5.945312 3.5 -5.84375 C 3.71875 -5.75 3.957031 -5.660156 4.21875 -5.578125 C 4.488281 -5.492188 4.757812 -5.40625 5.03125 -5.3125 C 5.3125 -5.21875 5.585938 -5.109375 5.859375 -4.984375 C 6.128906 -4.867188 6.367188 -4.71875 6.578125 -4.53125 C 6.796875 -4.34375 6.96875 -4.113281 7.09375 -3.84375 C 7.21875 -3.582031 7.28125 -3.269531 7.28125 -2.90625 C 7.28125 -2.46875 7.203125 -2.0625 7.046875 -1.6875 C 6.890625 -1.3125 6.65625 -0.988281 6.34375 -0.71875 C 6.03125 -0.445312 5.644531 -0.234375 5.1875 -0.078125 C 4.738281 0.0664062 4.21875 0.140625 3.625 0.140625 C 3.300781 0.140625 2.988281 0.109375 2.6875 0.046875 C 2.394531 -0.00390625 2.109375 -0.078125 1.828125 -0.171875 C 1.546875 -0.273438 1.285156 -0.394531 1.046875 -0.53125 C 0.816406 -0.664062 0.613281 -0.816406 0.4375 -0.984375 L 0.953125 -1.828125 C 1.015625 -1.921875 1.085938 -1.992188 1.171875 -2.046875 C 1.265625 -2.109375 1.378906 -2.140625 1.515625 -2.140625 C 1.648438 -2.140625 1.78125 -2.097656 1.90625 -2.015625 C 2.03125 -1.941406 2.171875 -1.859375 2.328125 -1.765625 C 2.492188 -1.679688 2.679688 -1.597656 2.890625 -1.515625 C 3.109375 -1.441406 3.390625 -1.40625 3.734375 -1.40625 C 3.992188 -1.40625 4.21875 -1.4375 4.40625 -1.5 C 4.59375 -1.5625 4.742188 -1.640625 4.859375 -1.734375 C 4.984375 -1.835938 5.070312 -1.957031 5.125 -2.09375 C 5.1875 -2.226562 5.21875 -2.367188 5.21875 -2.515625 C 5.21875 -2.722656 5.148438 -2.894531 5.015625 -3.03125 C 4.890625 -3.175781 4.722656 -3.296875 4.515625 -3.390625 C 4.304688 -3.492188 4.066406 -3.585938 3.796875 -3.671875 C 3.523438 -3.753906 3.242188 -3.84375 2.953125 -3.9375 C 2.671875 -4.03125 2.394531 -4.140625 2.125 -4.265625 C 1.851562 -4.390625 1.613281 -4.550781 1.40625 -4.75 C 1.195312 -4.945312 1.023438 -5.1875 0.890625 -5.46875 C 0.765625 -5.757812 0.703125 -6.109375 0.703125 -6.515625 C 0.703125 -6.890625 0.773438 -7.242188 0.921875 -7.578125 C 1.078125 -7.921875 1.296875 -8.21875 1.578125 -8.46875 C 1.867188 -8.726562 2.226562 -8.929688 2.65625 -9.078125 C 3.09375 -9.234375 3.597656 -9.3125 4.171875 -9.3125 C 4.796875 -9.3125 5.367188 -9.207031 5.890625 -9 C 6.410156 -8.789062 6.84375 -8.515625 7.1875 -8.171875 Z M 6.6875 -7.375 "/></g></g></g><g fill="rgb(100%, 100%, 100%)" fill-opacity="1"><g transform="translate(385.400896, 149.781414)"><g><path d="M 15.453125 -12.921875 L 15.453125 0 L 13.328125 0 L 13.328125 -8.34375 C 13.328125 -8.675781 13.347656 -9.035156 13.390625 -9.421875 L 9.484375 -2.09375 C 9.296875 -1.738281 9.015625 -1.5625 8.640625 -1.5625 L 8.296875 -1.5625 C 7.910156 -1.5625 7.625 -1.738281 7.4375 -2.09375 L 3.5 -9.453125 C 3.507812 -9.253906 3.519531 -9.0625 3.53125 -8.875 C 3.550781 -8.6875 3.5625 -8.507812 3.5625 -8.34375 L 3.5625 0 L 1.4375 0 L 1.4375 -12.921875 L 3.25 -12.921875 C 3.363281 -12.921875 3.457031 -12.914062 3.53125 -12.90625 C 3.601562 -12.90625 3.671875 -12.890625 3.734375 -12.859375 C 3.796875 -12.835938 3.851562 -12.800781 3.90625 -12.75 C 3.957031 -12.695312 4.007812 -12.628906 4.0625 -12.546875 L 7.921875 -5.359375 C 8.023438 -5.171875 8.117188 -4.972656 8.203125 -4.765625 C 8.296875 -4.566406 8.382812 -4.359375 8.46875 -4.140625 C 8.550781 -4.367188 8.632812 -4.582031 8.71875 -4.78125 C 8.8125 -4.988281 8.910156 -5.1875 9.015625 -5.375 L 12.828125 -12.546875 C 12.867188 -12.628906 12.914062 -12.695312 12.96875 -12.75 C 13.03125 -12.800781 13.09375 -12.835938 13.15625 -12.859375 C 13.21875 -12.890625 13.285156 -12.90625 13.359375 -12.90625 C 13.441406 -12.914062 13.535156 -12.921875 13.640625 -12.921875 Z M 15.453125 -12.921875 "/></g></g></g><g fill="rgb(100%, 100%, 100%)" fill-opacity="1"><g transform="translate(402.288152, 149.781414)"><g><path d="M 5.9375 -3.921875 C 5.300781 -3.890625 4.765625 -3.832031 4.328125 -3.75 C 3.890625 -3.664062 3.539062 -3.5625 3.28125 -3.4375 C 3.019531 -3.3125 2.832031 -3.164062 2.71875 -3 C 2.601562 -2.832031 2.546875 -2.648438 2.546875 -2.453125 C 2.546875 -2.066406 2.660156 -1.789062 2.890625 -1.625 C 3.117188 -1.457031 3.421875 -1.375 3.796875 -1.375 C 4.242188 -1.375 4.628906 -1.457031 4.953125 -1.625 C 5.285156 -1.789062 5.613281 -2.039062 5.9375 -2.375 Z M 0.875 -7.890625 C 1.925781 -8.859375 3.195312 -9.34375 4.6875 -9.34375 C 5.21875 -9.34375 5.691406 -9.253906 6.109375 -9.078125 C 6.535156 -8.898438 6.894531 -8.65625 7.1875 -8.34375 C 7.476562 -8.03125 7.703125 -7.65625 7.859375 -7.21875 C 8.015625 -6.78125 8.09375 -6.304688 8.09375 -5.796875 L 8.09375 0 L 7.09375 0 C 6.882812 0 6.722656 -0.03125 6.609375 -0.09375 C 6.492188 -0.15625 6.40625 -0.28125 6.34375 -0.46875 L 6.140625 -1.140625 C 5.910156 -0.929688 5.679688 -0.742188 5.453125 -0.578125 C 5.234375 -0.421875 5.003906 -0.289062 4.765625 -0.1875 C 4.535156 -0.0820312 4.285156 -0.00390625 4.015625 0.046875 C 3.742188 0.109375 3.441406 0.140625 3.109375 0.140625 C 2.722656 0.140625 2.363281 0.0859375 2.03125 -0.015625 C 1.707031 -0.117188 1.425781 -0.273438 1.1875 -0.484375 C 0.945312 -0.691406 0.757812 -0.945312 0.625 -1.25 C 0.5 -1.5625 0.4375 -1.925781 0.4375 -2.34375 C 0.4375 -2.570312 0.472656 -2.800781 0.546875 -3.03125 C 0.628906 -3.257812 0.757812 -3.476562 0.9375 -3.6875 C 1.113281 -3.894531 1.335938 -4.09375 1.609375 -4.28125 C 1.890625 -4.46875 2.234375 -4.628906 2.640625 -4.765625 C 3.054688 -4.898438 3.535156 -5.007812 4.078125 -5.09375 C 4.617188 -5.1875 5.238281 -5.238281 5.9375 -5.25 L 5.9375 -5.796875 C 5.9375 -6.410156 5.800781 -6.863281 5.53125 -7.15625 C 5.269531 -7.445312 4.894531 -7.59375 4.40625 -7.59375 C 4.050781 -7.59375 3.753906 -7.550781 3.515625 -7.46875 C 3.273438 -7.382812 3.066406 -7.289062 2.890625 -7.1875 C 2.710938 -7.082031 2.550781 -6.988281 2.40625 -6.90625 C 2.257812 -6.820312 2.097656 -6.78125 1.921875 -6.78125 C 1.765625 -6.78125 1.632812 -6.820312 1.53125 -6.90625 C 1.425781 -6.988281 1.335938 -7.082031 1.265625 -7.1875 Z M 0.875 -7.890625 "/></g></g></g><g fill="rgb(100%, 100%, 100%)" fill-opacity="1"><g transform="translate(411.357236, 149.781414)"><g><path d="M 9.28125 0 L 7.15625 0 C 6.988281 0 6.851562 -0.0390625 6.75 -0.125 C 6.65625 -0.207031 6.578125 -0.300781 6.515625 -0.40625 L 4.578125 -3.609375 C 4.546875 -3.503906 4.507812 -3.40625 4.46875 -3.3125 C 4.4375 -3.226562 4.394531 -3.144531 4.34375 -3.0625 L 2.625 -0.40625 C 2.5625 -0.3125 2.484375 -0.21875 2.390625 -0.125 C 2.296875 -0.0390625 2.175781 0 2.03125 0 L 0.046875 0 L 3.203125 -4.734375 L 0.171875 -9.171875 L 2.3125 -9.171875 C 2.46875 -9.171875 2.582031 -9.144531 2.65625 -9.09375 C 2.738281 -9.050781 2.8125 -8.984375 2.875 -8.890625 L 4.796875 -5.828125 C 4.859375 -6.023438 4.945312 -6.222656 5.0625 -6.421875 L 6.609375 -8.84375 C 6.742188 -9.0625 6.914062 -9.171875 7.125 -9.171875 L 9.15625 -9.171875 L 6.140625 -4.828125 Z M 9.28125 0 "/></g></g></g><g fill="rgb(100%, 100%, 100%)" fill-opacity="1"><g transform="translate(420.685436, 149.781414)"><g/></g></g><g fill="rgb(100%, 100%, 100%)" fill-opacity="1"><g transform="translate(425.02787, 149.781414)"><g><path d="M 12.328125 -12.921875 L 12.328125 0 L 9.921875 0 L 9.921875 -5.65625 L 3.859375 -5.65625 L 3.859375 0 L 1.4375 0 L 1.4375 -12.921875 L 3.859375 -12.921875 L 3.859375 -7.359375 L 9.921875 -7.359375 L 9.921875 -12.921875 Z M 12.328125 -12.921875 "/></g></g></g><g fill="rgb(100%, 100%, 100%)" fill-opacity="1"><g transform="translate(438.796792, 149.781414)"><g><path d="M 7 -5.640625 C 7 -5.921875 6.957031 -6.1875 6.875 -6.4375 C 6.789062 -6.695312 6.671875 -6.921875 6.515625 -7.109375 C 6.359375 -7.304688 6.15625 -7.457031 5.90625 -7.5625 C 5.65625 -7.675781 5.367188 -7.734375 5.046875 -7.734375 C 4.398438 -7.734375 3.894531 -7.550781 3.53125 -7.1875 C 3.164062 -6.820312 2.929688 -6.304688 2.828125 -5.640625 Z M 2.78125 -4.3125 C 2.820312 -3.84375 2.90625 -3.4375 3.03125 -3.09375 C 3.164062 -2.75 3.335938 -2.460938 3.546875 -2.234375 C 3.765625 -2.015625 4.019531 -1.847656 4.3125 -1.734375 C 4.613281 -1.628906 4.941406 -1.578125 5.296875 -1.578125 C 5.660156 -1.578125 5.96875 -1.617188 6.21875 -1.703125 C 6.476562 -1.785156 6.703125 -1.875 6.890625 -1.96875 C 7.085938 -2.070312 7.257812 -2.164062 7.40625 -2.25 C 7.550781 -2.332031 7.695312 -2.375 7.84375 -2.375 C 8.019531 -2.375 8.15625 -2.304688 8.25 -2.171875 L 8.890625 -1.375 C 8.640625 -1.082031 8.363281 -0.835938 8.0625 -0.640625 C 7.757812 -0.453125 7.441406 -0.300781 7.109375 -0.1875 C 6.773438 -0.0703125 6.4375 0.0078125 6.09375 0.0625 C 5.757812 0.113281 5.429688 0.140625 5.109375 0.140625 C 4.460938 0.140625 3.863281 0.0351562 3.3125 -0.171875 C 2.769531 -0.390625 2.296875 -0.707031 1.890625 -1.125 C 1.484375 -1.539062 1.164062 -2.050781 0.9375 -2.65625 C 0.707031 -3.269531 0.59375 -3.976562 0.59375 -4.78125 C 0.59375 -5.40625 0.691406 -5.992188 0.890625 -6.546875 C 1.097656 -7.097656 1.390625 -7.578125 1.765625 -7.984375 C 2.140625 -8.390625 2.597656 -8.710938 3.140625 -8.953125 C 3.691406 -9.191406 4.3125 -9.3125 5 -9.3125 C 5.570312 -9.3125 6.101562 -9.21875 6.59375 -9.03125 C 7.082031 -8.851562 7.503906 -8.582031 7.859375 -8.21875 C 8.210938 -7.863281 8.488281 -7.429688 8.6875 -6.921875 C 8.882812 -6.410156 8.984375 -5.820312 8.984375 -5.15625 C 8.984375 -4.820312 8.945312 -4.597656 8.875 -4.484375 C 8.800781 -4.367188 8.664062 -4.3125 8.46875 -4.3125 Z M 2.78125 -4.3125 "/></g></g></g><g fill="rgb(100%, 100%, 100%)" fill-opacity="1"><g transform="translate(448.339432, 149.781414)"><g><path d="M 5.9375 -3.921875 C 5.300781 -3.890625 4.765625 -3.832031 4.328125 -3.75 C 3.890625 -3.664062 3.539062 -3.5625 3.28125 -3.4375 C 3.019531 -3.3125 2.832031 -3.164062 2.71875 -3 C 2.601562 -2.832031 2.546875 -2.648438 2.546875 -2.453125 C 2.546875 -2.066406 2.660156 -1.789062 2.890625 -1.625 C 3.117188 -1.457031 3.421875 -1.375 3.796875 -1.375 C 4.242188 -1.375 4.628906 -1.457031 4.953125 -1.625 C 5.285156 -1.789062 5.613281 -2.039062 5.9375 -2.375 Z M 0.875 -7.890625 C 1.925781 -8.859375 3.195312 -9.34375 4.6875 -9.34375 C 5.21875 -9.34375 5.691406 -9.253906 6.109375 -9.078125 C 6.535156 -8.898438 6.894531 -8.65625 7.1875 -8.34375 C 7.476562 -8.03125 7.703125 -7.65625 7.859375 -7.21875 C 8.015625 -6.78125 8.09375 -6.304688 8.09375 -5.796875 L 8.09375 0 L 7.09375 0 C 6.882812 0 6.722656 -0.03125 6.609375 -0.09375 C 6.492188 -0.15625 6.40625 -0.28125 6.34375 -0.46875 L 6.140625 -1.140625 C 5.910156 -0.929688 5.679688 -0.742188 5.453125 -0.578125 C 5.234375 -0.421875 5.003906 -0.289062 4.765625 -0.1875 C 4.535156 -0.0820312 4.285156 -0.00390625 4.015625 0.046875 C 3.742188 0.109375 3.441406 0.140625 3.109375 0.140625 C 2.722656 0.140625 2.363281 0.0859375 2.03125 -0.015625 C 1.707031 -0.117188 1.425781 -0.273438 1.1875 -0.484375 C 0.945312 -0.691406 0.757812 -0.945312 0.625 -1.25 C 0.5 -1.5625 0.4375 -1.925781 0.4375 -2.34375 C 0.4375 -2.570312 0.472656 -2.800781 0.546875 -3.03125 C 0.628906 -3.257812 0.757812 -3.476562 0.9375 -3.6875 C 1.113281 -3.894531 1.335938 -4.09375 1.609375 -4.28125 C 1.890625 -4.46875 2.234375 -4.628906 2.640625 -4.765625 C 3.054688 -4.898438 3.535156 -5.007812 4.078125 -5.09375 C 4.617188 -5.1875 5.238281 -5.238281 5.9375 -5.25 L 5.9375 -5.796875 C 5.9375 -6.410156 5.800781 -6.863281 5.53125 -7.15625 C 5.269531 -7.445312 4.894531 -7.59375 4.40625 -7.59375 C 4.050781 -7.59375 3.753906 -7.550781 3.515625 -7.46875 C 3.273438 -7.382812 3.066406 -7.289062 2.890625 -7.1875 C 2.710938 -7.082031 2.550781 -6.988281 2.40625 -6.90625 C 2.257812 -6.820312 2.097656 -6.78125 1.921875 -6.78125 C 1.765625 -6.78125 1.632812 -6.820312 1.53125 -6.90625 C 1.425781 -6.988281 1.335938 -7.082031 1.265625 -7.1875 Z M 0.875 -7.890625 "/></g></g></g><g fill="rgb(100%, 100%, 100%)" fill-opacity="1"><g transform="translate(457.408516, 149.781414)"><g><path d="M 3.296875 -2.375 C 3.546875 -2.070312 3.816406 -1.859375 4.109375 -1.734375 C 4.410156 -1.609375 4.734375 -1.546875 5.078125 -1.546875 C 5.410156 -1.546875 5.707031 -1.609375 5.96875 -1.734375 C 6.238281 -1.859375 6.46875 -2.046875 6.65625 -2.296875 C 6.84375 -2.554688 6.988281 -2.878906 7.09375 -3.265625 C 7.195312 -3.660156 7.25 -4.125 7.25 -4.65625 C 7.25 -5.1875 7.203125 -5.640625 7.109375 -6.015625 C 7.023438 -6.390625 6.898438 -6.691406 6.734375 -6.921875 C 6.578125 -7.160156 6.382812 -7.332031 6.15625 -7.4375 C 5.925781 -7.539062 5.664062 -7.59375 5.375 -7.59375 C 4.914062 -7.59375 4.523438 -7.492188 4.203125 -7.296875 C 3.890625 -7.109375 3.585938 -6.835938 3.296875 -6.484375 Z M 3.1875 -7.921875 C 3.5625 -8.335938 3.984375 -8.675781 4.453125 -8.9375 C 4.929688 -9.207031 5.492188 -9.34375 6.140625 -9.34375 C 6.640625 -9.34375 7.097656 -9.238281 7.515625 -9.03125 C 7.929688 -8.820312 8.285156 -8.519531 8.578125 -8.125 C 8.878906 -7.726562 9.113281 -7.238281 9.28125 -6.65625 C 9.445312 -6.070312 9.53125 -5.40625 9.53125 -4.65625 C 9.53125 -3.96875 9.4375 -3.332031 9.25 -2.75 C 9.0625 -2.164062 8.796875 -1.660156 8.453125 -1.234375 C 8.117188 -0.804688 7.707031 -0.46875 7.21875 -0.21875 C 6.726562 0.0195312 6.1875 0.140625 5.59375 0.140625 C 5.070312 0.140625 4.628906 0.0625 4.265625 -0.09375 C 3.910156 -0.257812 3.585938 -0.484375 3.296875 -0.765625 L 3.296875 3 L 1.09375 3 L 1.09375 -9.171875 L 2.4375 -9.171875 C 2.726562 -9.171875 2.914062 -9.035156 3 -8.765625 Z M 3.1875 -7.921875 "/></g></g></g></svg>