<?xml version="1.0" encoding="utf-8"?>
<!-- Generator: Adobe Illustrator 25.2.3, SVG Export Plug-In . SVG Version: 6.00 Build 0)  -->
<svg version="1.1" id="Layer_1" xmlns="http://www.w3.org/2000/svg" xmlns:xlink="http://www.w3.org/1999/xlink" x="0px" y="0px"
	 viewBox="0 0 251.5 37.5" style="enable-background:new 0 0 251.5 37.5;" xml:space="preserve">
<style type="text/css">
	.st0{fill:#004AAD;}
	.st1{fill:#38B6FF;}
	.st2{fill:#FFFFFF;}
</style>
<path class="st0" d="M42.8,0.1H80v37.2H42.8V0.1"/>
<path class="st0" d="M42.8,37.5h-0.1V0h37.5v37.5H42.8 M42.9,0.2v37h37v-37H42.9"/>
<path class="st1" d="M45.4,2.8h32v32h-32V2.8"/>
<path class="st0" d="M112.2,0.1h37.3v37.2h-37.3V0.1"/>
<path class="st0" d="M112.2,37.5h-0.1V0h37.5v37.5H112.2 M112.3,0.2v37h37v-37H112.3"/>
<path class="st1" d="M114.8,2.8h32v32h-32V2.8"/>
<path class="st0" d="M179.6,0.1h37.2v37.2h-37.2V0.1"/>
<path class="st0" d="M179.6,37.5h-0.1V0H217v37.5H179.6 M179.7,0.2v37h37v-37H179.7"/>
<path class="st1" d="M182.2,2.8h32v32h-32V2.8"/>
<path class="st0" d="M77.3,0.1h37.2v37.2H77.3V0.1"/>
<path class="st0" d="M77.3,37.5h-0.1V0h37.5v37.5H77.3 M77.4,0.2v37h37v-37H77.4"/>
<path class="st1" d="M79.9,2.8h32v32h-32V2.8"/>
<path class="st0" d="M146.7,0.1H184v37.2h-37.2V0.1"/>
<path class="st0" d="M146.7,37.5h-0.1V0h37.5v37.5H146.7 M146.9,0.2v37h37v-37H146.9"/>
<path class="st1" d="M149.4,2.8h32v32h-32V2.8"/>
<path class="st0" d="M214.1,0.1h37.2v37.2h-37.2V0.1"/>
<path class="st0" d="M214.1,37.5H214V0h37.5v37.5H214.1 M214.3,0.2v37h37v-37H214.3"/>
<path class="st1" d="M216.8,2.8h32v32h-32V2.8"/>
<g>
	<g transform="translate(249.45492, 74.526632)">
		<g>
			<path class="st2" d="M-188-65.2c1.6,0,2.8,0.3,3.7,1c0.9,0.6,1.3,1.6,1.3,2.7c0,0.8-0.2,1.5-0.6,2.1c-0.4,0.6-1.1,1.1-2,1.6
				c1.1,0.6,1.9,1.3,2.4,1.9c0.5,0.6,0.7,1.3,0.7,2c0,1.3-0.5,2.4-1.5,3.1c-1,0.7-2.3,1.1-4.1,1.1c-1.8,0-3.1-0.4-4.1-1.1
				c-0.9-0.7-1.4-1.8-1.4-3.1c0-0.9,0.2-1.6,0.6-2.2c0.4-0.6,1.1-1.2,2.1-1.7c-0.8-0.5-1.4-1.1-1.8-1.7c-0.4-0.6-0.5-1.3-0.5-2
				c0-1.2,0.4-2,1.4-2.7C-190.9-64.9-189.6-65.2-188-65.2z M-189.8-54.1c0,0.4,0.2,0.8,0.5,1c0.3,0.2,0.7,0.4,1.2,0.4
				c1.2,0,1.8-0.4,1.8-1.3c0-0.3-0.1-0.7-0.4-1c-0.3-0.3-0.7-0.7-1.4-1.1c-0.6,0.3-1.1,0.6-1.3,1C-189.7-54.8-189.8-54.4-189.8-54.1
				z M-188-62.3c-0.3,0-0.6,0.1-0.9,0.3c-0.2,0.2-0.4,0.5-0.4,0.8c0,0.6,0.4,1.1,1.2,1.6c0.5-0.3,0.8-0.5,1-0.8
				c0.2-0.2,0.3-0.5,0.3-0.8c0-0.3-0.1-0.6-0.4-0.8C-187.4-62.2-187.7-62.3-188-62.3z"/>
		</g>
	</g>
</g>
<g>
	<g transform="translate(275.340355, 74.526632)">
		<g>
			<path class="st2" d="M-173.6-52.8h-1.6v2.9h-4v-2.9h-6v-3l6.3-9.2h3.8v9.1h1.6V-52.8z M-179.3-55.9v-1.8c0-0.3,0-0.8,0-1.3
				c0-0.6,0-0.8,0.1-0.9h-0.1c-0.2,0.5-0.5,1-0.8,1.5l-1.7,2.5H-179.3z"/>
		</g>
	</g>
</g>
<g>
	<g transform="translate(327.406566, 74.526632)">
		<g>
			<path class="st2" d="M-158.5-49.9h-4.1v-8c0-1,0-1.8,0.1-2.6c-0.2,0.3-0.6,0.6-0.9,1l-1.7,1.4l-2.1-2.6l5.2-4.2h3.7V-49.9z"/>
		</g>
	</g>
</g>
<g>
	<g transform="translate(301.02627, 74.526632)">
		<g>
			<path class="st2" d="M-174.9-49.9l5.2-11.7h-6.5V-65h10.9v2.4l-5.3,12.7H-174.9z"/>
		</g>
	</g>
</g>
<g>
	<g transform="translate(377.949233, 74.526632)">
		<g>
			<path class="st2" d="M-144.6-59.8c0.9,0,1.7,0.2,2.4,0.6c0.7,0.4,1.2,1,1.6,1.7c0.4,0.7,0.6,1.6,0.6,2.6c0,1.7-0.5,3-1.5,3.9
				c-1,0.9-2.6,1.4-4.6,1.4c-1.8,0-3.2-0.3-4.3-0.8v-3.4c0.6,0.3,1.3,0.5,2,0.7c0.8,0.2,1.4,0.3,1.9,0.3c0.8,0,1.3-0.2,1.8-0.5
				c0.4-0.3,0.6-0.8,0.6-1.4c0-0.6-0.2-1-0.6-1.4c-0.4-0.3-1-0.5-1.9-0.5c-0.6,0-1.3,0.1-2.1,0.4l-1.5-0.8l0.6-8h8.6v3.4h-5.1
				l-0.2,2c0.5-0.1,0.9-0.2,1.1-0.2C-145-59.8-144.8-59.8-144.6-59.8z"/>
		</g>
	</g>
</g>
<g>
	<g transform="translate(352.063798, 74.526632)">
		<g>
			<path class="st2" d="M-149-61.7c0,0.9-0.3,1.7-0.9,2.4c-0.6,0.7-1.4,1.1-2.5,1.4v0.1c2.5,0.3,3.8,1.5,3.8,3.6
				c0,1.4-0.6,2.5-1.7,3.3c-1.1,0.8-2.7,1.2-4.6,1.2c-0.8,0-1.6-0.1-2.3-0.2c-0.7-0.1-1.4-0.3-2.2-0.6v-3.4c0.7,0.3,1.3,0.6,2,0.8
				c0.7,0.2,1.3,0.2,1.9,0.2c0.9,0,1.5-0.1,1.9-0.4c0.4-0.2,0.6-0.6,0.6-1.2c0-0.4-0.1-0.7-0.3-1c-0.2-0.2-0.6-0.4-1-0.5
				c-0.5-0.1-1.1-0.2-1.9-0.2h-0.9v-3.1h1c2.1,0,3.1-0.5,3.1-1.6c0-0.4-0.2-0.7-0.5-0.9c-0.3-0.2-0.7-0.3-1.2-0.3c-1,0-2,0.3-3,1
				l-1.7-2.7c0.8-0.5,1.6-0.9,2.4-1.2c0.8-0.2,1.8-0.4,2.9-0.4c1.6,0,2.8,0.3,3.7,0.9C-149.4-63.7-149-62.8-149-61.7z"/>
		</g>
	</g>
</g>
<g>
	<g transform="translate(208.148375, 77.235135)">
		<g>
			<path class="st2" d="M-197-55.5l-2.1-5.7c-0.1-0.3-0.2-0.6-0.3-0.9c-0.1-0.3-0.2-0.7-0.3-1.1c-0.1,0.4-0.2,0.8-0.3,1.1
				c-0.1,0.3-0.2,0.7-0.3,0.9l-2.1,5.7H-197z M-191.3-49h-2.5c-0.3,0-0.5-0.1-0.7-0.2c-0.2-0.1-0.3-0.3-0.4-0.5l-1.3-3.5h-7.1
				l-1.3,3.5c-0.1,0.2-0.2,0.3-0.4,0.5c-0.2,0.2-0.4,0.2-0.7,0.2h-2.5l6.8-17.2h3.3L-191.3-49z"/>
		</g>
	</g>
</g>
<g>
	<g transform="translate(220.55917, 77.235135)">
		<g>
			<path class="st2" d="M-199.7-59.1c0.4-0.7,0.8-1.3,1.4-1.7c0.5-0.4,1.2-0.6,1.9-0.6c0.6,0,1,0.1,1.4,0.4l-0.2,2.2
				c0,0.1-0.1,0.2-0.2,0.3c-0.1,0.1-0.2,0.1-0.3,0.1s-0.3,0-0.5-0.1c-0.2,0-0.5-0.1-0.7-0.1c-0.3,0-0.6,0.1-0.9,0.1
				c-0.2,0.1-0.5,0.2-0.7,0.4c-0.2,0.2-0.4,0.4-0.5,0.6c-0.2,0.2-0.3,0.5-0.4,0.9v7.5h-2.9v-12.2h1.7c0.3,0,0.5,0.1,0.6,0.2
				c0.1,0.1,0.2,0.3,0.2,0.6L-199.7-59.1z"/>
		</g>
	</g>
</g>
<g>
	<g transform="translate(227.224717, 77.235135)">
		<g>
			<path class="st2" d="M-197.4-59.1c0.4-0.7,0.8-1.3,1.4-1.7c0.5-0.4,1.2-0.6,1.9-0.6c0.6,0,1,0.1,1.4,0.4l-0.2,2.2
				c0,0.1-0.1,0.2-0.2,0.3c-0.1,0.1-0.2,0.1-0.3,0.1s-0.3,0-0.5-0.1c-0.2,0-0.5-0.1-0.7-0.1c-0.3,0-0.6,0.1-0.9,0.1
				c-0.2,0.1-0.5,0.2-0.7,0.4c-0.2,0.2-0.4,0.4-0.5,0.6c-0.2,0.2-0.3,0.5-0.4,0.9v7.5h-2.9v-12.2h1.7c0.3,0,0.5,0.1,0.6,0.2
				c0.1,0.1,0.2,0.3,0.2,0.6L-197.4-59.1z"/>
		</g>
	</g>
</g>
</svg>
