<svg xmlns="http://www.w3.org/2000/svg" viewBox="0 0 426.96098 262"><path d="M403.99894,214.3331c12.47589-16.06574,23.30109-43.11,5.86856-81.8331" fill="none" stroke="#92c5f7" stroke-miterlimit="10" stroke-width="3"/><polygon points="413.977 216.22 384.368 232.25 401.993 203.562 413.977 216.22" fill="#92c5f7"/><rect x="28.96098" y="81" width="164" height="75" fill="#b0d171"/><polygon points="28.961 80.72 28.961 155.72 27.741 157.13 6.201 182 5.961 182 5.961 107.28 28.961 80.72" fill="#dcf4a6"/><polygon points="6.201 182 5.961 182.28 5.961 182 6.201 182" fill="#dcf4a6"/><polygon points="192.461 156 157.671 182 6.201 182 27.741 157.13 29.251 156 192.461 156" fill="#b3ba9d"/><rect x="262.96098" y="81" width="164" height="75" fill="#babfc5"/><polygon points="262.961 80.72 262.961 155.72 261.741 157.13 240.201 182 239.961 182 239.961 107.28 262.961 80.72" fill="#d3dbe2"/><polygon points="426.461 156 391.671 182 240.201 182 261.741 157.13 263.251 156 426.461 156" fill="#747f8b"/><line x1="140.67526" y1="83" x2="140.67526" y2="84.93665" fill="none" stroke="#000" stroke-linecap="round" stroke-miterlimit="10" stroke-width="1.93664"/><line x1="140.67526" y1="88.98952" x2="140.67526" y2="151.8092" fill="none" stroke="#000" stroke-linecap="round" stroke-miterlimit="10" stroke-width="1.93664" stroke-dasharray="4.05288 4.05288"/><polyline points="140.675 153.836 140.675 155.772 139.22 157.051" fill="none" stroke="#000" stroke-linecap="round" stroke-miterlimit="10" stroke-width="1.93664"/><line x1="136.35321" y1="159.56953" x2="114.84945" y2="178.46225" fill="none" stroke="#000" stroke-linecap="round" stroke-miterlimit="10" stroke-width="1.93664" stroke-dasharray="3.81656 3.81656"/><line x1="113.41586" y1="179.72177" x2="111.96098" y2="181" fill="none" stroke="#000" stroke-linecap="round" stroke-miterlimit="10" stroke-width="1.93664"/><line x1="377.96097" y1="82" x2="377.96097" y2="83.93665" fill="none" stroke="#000" stroke-linecap="round" stroke-miterlimit="10" stroke-width="1.93664"/><line x1="377.96097" y1="87.98952" x2="377.96097" y2="150.8092" fill="none" stroke="#000" stroke-linecap="round" stroke-miterlimit="10" stroke-width="1.93664" stroke-dasharray="4.05288 4.05288"/><polyline points="377.961 152.836 377.961 154.772 376.506 156.051" fill="none" stroke="#000" stroke-linecap="round" stroke-miterlimit="10" stroke-width="1.93664"/><line x1="373.63892" y1="158.56953" x2="352.13517" y2="177.46225" fill="none" stroke="#000" stroke-linecap="round" stroke-miterlimit="10" stroke-width="1.93664" stroke-dasharray="3.81656 3.81656"/><line x1="350.70157" y1="178.72177" x2="349.24669" y2="180" fill="none" stroke="#000" stroke-linecap="round" stroke-miterlimit="10" stroke-width="1.93664"/><text transform="translate(66.48539 142.09626)" font-size="60" font-family="ArialRoundedMTBold, Arial Rounded MT Bold">7</text><text transform="translate(287.48539 142.09626)" font-size="60" font-family="ArialRoundedMTBold, Arial Rounded MT Bold">16</text><line x1="244.70762" y1="131.03099" x2="242.20774" y2="131.05479" fill="none" stroke="#333" stroke-linecap="round" stroke-miterlimit="10" stroke-width="3"/><line x1="237.29142" y1="131.10161" x2="200.41903" y2="131.45277" fill="none" stroke="#333" stroke-linecap="round" stroke-miterlimit="10" stroke-width="3" stroke-dasharray="4.91654 4.91654"/><line x1="197.96087" y1="131.4762" x2="195.46098" y2="131.5" fill="none" stroke="#333" stroke-linecap="round" stroke-miterlimit="10" stroke-width="3"/><polygon points="234.651 118.857 232.625 121.073 243.556 131.039 232.817 141.214 234.884 143.392 247.961 130.997 234.651 118.857" fill="#333"/><ellipse cx="95.46098" cy="31.5" rx="56.5" ry="31.5" fill="#92c5f7"/><text transform="translate(56.60405 40.21436)" font-size="30" font-family="ArialRoundedMTBold, Arial Rounded MT Bold">Head</text><ellipse cx="333.46098" cy="230.5" rx="56.5" ry="31.5" fill="#92c5f7"/><text transform="translate(303.60405 239.21436)" font-size="30" font-family="ArialRoundedMTBold, Arial Rounded MT Bold">Null</text><path d="M42.961,31.5S-8.7101,61.02634,14.248,123.40268" fill="none" stroke="#92c5f7" stroke-miterlimit="10" stroke-width="3"/><polygon points="0 109.498 2.342 107.62 14.642 122.945 15.07 103.299 18.068 103.364 17.461 131.25 0 109.498" fill="#92c5f7"/></svg>