<svg xmlns="http://www.w3.org/2000/svg" xmlns:xlink="http://www.w3.org/1999/xlink" width="500" zoomAndPan="magnify" viewBox="0 0 375 374.999991" height="500" preserveAspectRatio="xMidYMid meet" version="1.0"><defs><clipPath id="id1"><path d="M 40.78125 0 L 334 0 L 334 375 L 40.78125 375 Z M 40.78125 0 " clip-rule="nonzero"/></clipPath></defs><g clip-path="url(#id1)"><path fill="rgb(99.21875%, 43.919373%, 7.839966%)" d="M 265.765625 136.363281 C 265.765625 155.160156 281.046875 170.453125 299.835938 170.453125 C 318.621094 170.453125 333.902344 155.160156 333.902344 136.363281 C 333.902344 117.566406 318.621094 102.273438 299.835938 102.273438 C 296.613281 102.273438 293.550781 102.867188 290.59375 103.710938 L 251.175781 55.5 C 255.960938 49.621094 258.953125 42.238281 258.953125 34.089844 C 258.953125 15.292969 243.667969 0 224.882812 0 C 206.097656 0 190.8125 15.292969 190.8125 34.089844 C 190.8125 42.238281 193.804688 49.621094 198.585938 55.492188 L 159.167969 103.703125 C 156.210938 102.867188 153.152344 102.273438 149.929688 102.273438 C 131.144531 102.273438 115.859375 117.566406 115.859375 136.363281 C 115.859375 144.511719 118.851562 151.894531 123.636719 157.765625 L 84.21875 205.976562 C 81.261719 205.136719 78.199219 204.546875 74.976562 204.546875 C 56.191406 204.546875 40.910156 219.839844 40.910156 238.636719 C 40.910156 257.433594 56.191406 272.726562 74.976562 272.726562 C 93.765625 272.726562 109.046875 257.433594 109.046875 238.636719 C 109.046875 228.0625 104.105469 218.714844 96.53125 212.453125 L 134.175781 166.40625 C 138.90625 168.90625 144.214844 170.453125 149.929688 170.453125 C 155.648438 170.453125 160.953125 168.90625 165.691406 166.40625 L 203.335938 212.453125 C 195.753906 218.714844 190.8125 228.0625 190.8125 238.636719 C 190.8125 246.785156 193.804688 254.167969 198.585938 260.039062 L 159.167969 308.25 C 156.210938 307.410156 153.152344 306.816406 149.929688 306.816406 C 131.144531 306.816406 115.859375 322.113281 115.859375 340.910156 C 115.859375 359.707031 131.144531 375 149.929688 375 C 168.714844 375 184 359.707031 184 340.910156 C 184 330.335938 179.058594 320.984375 171.480469 314.726562 L 209.128906 268.675781 C 213.859375 271.179688 219.164062 272.726562 224.882812 272.726562 C 230.597656 272.726562 235.90625 271.179688 240.644531 268.675781 L 278.289062 314.726562 C 270.707031 320.984375 265.765625 330.335938 265.765625 340.910156 C 265.765625 359.707031 281.046875 375 299.835938 375 C 318.621094 375 333.902344 359.707031 333.902344 340.910156 C 333.902344 322.113281 318.621094 306.816406 299.835938 306.816406 C 296.613281 306.816406 293.550781 307.410156 290.59375 308.257812 L 251.175781 260.046875 C 255.960938 254.167969 258.953125 246.785156 258.953125 238.636719 C 258.953125 219.839844 243.667969 204.546875 224.882812 204.546875 C 221.660156 204.546875 218.601562 205.136719 215.644531 205.984375 L 176.226562 157.773438 C 181.007812 151.894531 184 144.511719 184 136.363281 C 184 125.789062 179.058594 116.441406 171.480469 110.183594 L 209.128906 64.132812 C 213.859375 66.632812 219.164062 68.183594 224.882812 68.183594 C 230.597656 68.183594 235.90625 66.632812 240.644531 64.132812 L 278.289062 110.183594 C 270.707031 116.441406 265.765625 125.789062 265.765625 136.363281 Z M 74.976562 259.089844 C 63.707031 259.089844 54.535156 249.914062 54.535156 238.636719 C 54.535156 227.359375 63.707031 218.183594 74.976562 218.183594 C 86.25 218.183594 95.417969 227.359375 95.417969 238.636719 C 95.417969 249.914062 86.25 259.089844 74.976562 259.089844 Z M 149.929688 361.363281 C 138.660156 361.363281 129.488281 352.1875 129.488281 340.910156 C 129.488281 329.632812 138.660156 320.453125 149.929688 320.453125 C 161.199219 320.453125 170.371094 329.632812 170.371094 340.910156 C 170.371094 352.1875 161.199219 361.363281 149.929688 361.363281 Z M 320.277344 340.910156 C 320.277344 352.1875 311.105469 361.363281 299.835938 361.363281 C 288.5625 361.363281 279.394531 352.1875 279.394531 340.910156 C 279.394531 329.632812 288.5625 320.453125 299.835938 320.453125 C 311.105469 320.453125 320.277344 329.632812 320.277344 340.910156 Z M 245.324219 238.636719 C 245.324219 249.914062 236.152344 259.089844 224.882812 259.089844 C 213.613281 259.089844 204.441406 249.914062 204.441406 238.636719 C 204.441406 227.359375 213.613281 218.183594 224.882812 218.183594 C 236.152344 218.183594 245.324219 227.359375 245.324219 238.636719 Z M 129.488281 136.363281 C 129.488281 125.085938 138.660156 115.910156 149.929688 115.910156 C 161.199219 115.910156 170.371094 125.085938 170.371094 136.363281 C 170.371094 147.640625 161.199219 156.816406 149.929688 156.816406 C 138.660156 156.816406 129.488281 147.640625 129.488281 136.363281 Z M 204.441406 34.089844 C 204.441406 22.8125 213.613281 13.636719 224.882812 13.636719 C 236.152344 13.636719 245.324219 22.8125 245.324219 34.089844 C 245.324219 45.367188 236.152344 54.546875 224.882812 54.546875 C 213.613281 54.546875 204.441406 45.367188 204.441406 34.089844 Z M 320.277344 136.363281 C 320.277344 147.640625 311.105469 156.816406 299.835938 156.816406 C 288.5625 156.816406 279.394531 147.640625 279.394531 136.363281 C 279.394531 125.085938 288.5625 115.910156 299.835938 115.910156 C 311.105469 115.910156 320.277344 125.085938 320.277344 136.363281 Z M 320.277344 136.363281 " fill-opacity="1" fill-rule="nonzero"/></g></svg>