<svg xmlns="http://www.w3.org/2000/svg" xmlns:xlink="http://www.w3.org/1999/xlink" width="500" zoomAndPan="magnify" viewBox="0 0 375 374.999991" height="500" preserveAspectRatio="xMidYMid meet" version="1.0"><defs><clipPath id="id1"><path d="M 56.335938 62.441406 L 322.585938 62.441406 L 322.585938 328.691406 L 56.335938 328.691406 Z M 56.335938 62.441406 " clip-rule="nonzero"/></clipPath></defs><g clip-path="url(#id1)"><path fill="rgb(100%, 56.858826%, 30.198669%)" d="M 189.460938 328.691406 C 262.980469 328.691406 322.585938 269.085938 322.585938 195.566406 C 322.585938 122.046875 262.980469 62.441406 189.460938 62.441406 C 115.929688 62.441406 56.335938 122.046875 56.335938 195.566406 C 56.335938 269.085938 115.929688 328.691406 189.460938 328.691406 " fill-opacity="1" fill-rule="nonzero"/></g><path fill="rgb(100%, 100%, 100%)" d="M 189.429688 135.058594 L 127.816406 196.667969 C 133.796875 202.660156 143.511719 202.660156 149.492188 196.667969 L 189.460938 156.699219 L 229.429688 196.667969 C 235.417969 202.660156 245.125 202.660156 251.105469 196.667969 L 189.480469 135.058594 L 189.460938 135.078125 L 189.429688 135.058594 " fill-opacity="1" fill-rule="nonzero"/><path fill="rgb(100%, 100%, 100%)" d="M 189.429688 171.820312 L 127.816406 233.433594 C 133.796875 239.425781 143.511719 239.425781 149.492188 233.433594 L 189.460938 193.476562 L 229.429688 233.433594 C 235.417969 239.425781 245.125 239.425781 251.105469 233.433594 L 189.480469 171.820312 L 189.460938 171.84375 L 189.429688 171.820312 " fill-opacity="1" fill-rule="nonzero"/></svg>