<svg xmlns="http://www.w3.org/2000/svg" xmlns:xlink="http://www.w3.org/1999/xlink" width="500" zoomAndPan="magnify" viewBox="0 0 375 374.999991" height="500" preserveAspectRatio="xMidYMid meet" version="1.0"><defs><clipPath id="id1"><path d="M 37.5 30.667969 L 337.5 30.667969 L 337.5 330.667969 L 37.5 330.667969 Z M 37.5 30.667969 " clip-rule="nonzero"/></clipPath><clipPath id="id2"><path d="M 37.5 180.667969 C 37.5 178.210938 37.558594 175.757812 37.679688 173.304688 C 37.800781 170.855469 37.980469 168.40625 38.222656 165.964844 C 38.464844 163.519531 38.761719 161.085938 39.125 158.65625 C 39.484375 156.226562 39.902344 153.808594 40.382812 151.402344 C 40.859375 148.996094 41.398438 146.601562 41.996094 144.21875 C 42.59375 141.839844 43.246094 139.472656 43.957031 137.125 C 44.671875 134.773438 45.441406 132.445312 46.269531 130.132812 C 47.09375 127.820312 47.980469 125.53125 48.917969 123.265625 C 49.859375 120.996094 50.851562 118.753906 51.902344 116.53125 C 52.953125 114.3125 54.054688 112.121094 55.210938 109.957031 C 56.367188 107.792969 57.578125 105.65625 58.839844 103.550781 C 60.101562 101.445312 61.414062 99.371094 62.78125 97.332031 C 64.144531 95.289062 65.554688 93.28125 67.019531 91.3125 C 68.480469 89.339844 69.992188 87.40625 71.546875 85.507812 C 73.105469 83.609375 74.707031 81.75 76.355469 79.933594 C 78.007812 78.113281 79.699219 76.335938 81.433594 74.601562 C 83.167969 72.863281 84.945312 71.171875 86.765625 69.523438 C 88.585938 67.875 90.445312 66.273438 92.339844 64.714844 C 94.238281 63.15625 96.171875 61.648438 98.144531 60.183594 C 100.117188 58.722656 102.125 57.308594 104.164062 55.945312 C 106.207031 54.582031 108.277344 53.269531 110.382812 52.007812 C 112.488281 50.746094 114.625 49.535156 116.789062 48.378906 C 118.957031 47.222656 121.148438 46.117188 123.367188 45.066406 C 125.585938 44.019531 127.828125 43.023438 130.097656 42.085938 C 132.367188 41.144531 134.65625 40.261719 136.964844 39.433594 C 139.277344 38.609375 141.609375 37.835938 143.957031 37.125 C 146.304688 36.414062 148.671875 35.757812 151.054688 35.160156 C 153.433594 34.566406 155.828125 34.027344 158.238281 33.546875 C 160.644531 33.070312 163.0625 32.648438 165.492188 32.289062 C 167.917969 31.929688 170.355469 31.628906 172.796875 31.386719 C 175.242188 31.148438 177.6875 30.96875 180.140625 30.847656 C 182.589844 30.726562 185.046875 30.667969 187.5 30.667969 C 189.953125 30.667969 192.410156 30.726562 194.859375 30.847656 C 197.3125 30.96875 199.757812 31.148438 202.203125 31.386719 C 204.644531 31.628906 207.082031 31.929688 209.507812 32.289062 C 211.9375 32.648438 214.355469 33.070312 216.761719 33.546875 C 219.171875 34.027344 221.566406 34.566406 223.945312 35.160156 C 226.328125 35.757812 228.695312 36.414062 231.042969 37.125 C 233.390625 37.835938 235.722656 38.609375 238.035156 39.433594 C 240.34375 40.261719 242.632812 41.144531 244.902344 42.085938 C 247.171875 43.023438 249.414062 44.019531 251.632812 45.066406 C 253.851562 46.117188 256.042969 47.222656 258.210938 48.378906 C 260.375 49.535156 262.511719 50.746094 264.617188 52.007812 C 266.722656 53.269531 268.792969 54.582031 270.835938 55.945312 C 272.875 57.308594 274.882812 58.722656 276.855469 60.183594 C 278.828125 61.648438 280.761719 63.15625 282.660156 64.714844 C 284.554688 66.273438 286.414062 67.875 288.234375 69.523438 C 290.054688 71.171875 291.832031 72.863281 293.566406 74.601562 C 295.300781 76.335938 296.992188 78.113281 298.644531 79.933594 C 300.292969 81.75 301.894531 83.609375 303.453125 85.507812 C 305.007812 87.40625 306.519531 89.339844 307.980469 91.3125 C 309.445312 93.28125 310.855469 95.289062 312.21875 97.332031 C 313.585938 99.371094 314.898438 101.445312 316.160156 103.550781 C 317.421875 105.65625 318.632812 107.792969 319.789062 109.957031 C 320.945312 112.121094 322.046875 114.3125 323.097656 116.53125 C 324.148438 118.753906 325.140625 120.996094 326.082031 123.265625 C 327.019531 125.53125 327.90625 127.820312 328.730469 130.132812 C 329.558594 132.445312 330.328125 134.773438 331.042969 137.125 C 331.753906 139.472656 332.40625 141.839844 333.003906 144.21875 C 333.601562 146.601562 334.140625 148.996094 334.617188 151.402344 C 335.097656 153.808594 335.515625 156.226562 335.875 158.65625 C 336.238281 161.085938 336.535156 163.519531 336.777344 165.964844 C 337.019531 168.40625 337.199219 170.855469 337.320312 173.304688 C 337.441406 175.757812 337.5 178.210938 337.5 180.667969 C 337.5 183.121094 337.441406 185.574219 337.320312 188.027344 C 337.199219 190.476562 337.019531 192.925781 336.777344 195.367188 C 336.535156 197.8125 336.238281 200.246094 335.875 202.675781 C 335.515625 205.105469 335.097656 207.523438 334.617188 209.929688 C 334.140625 212.335938 333.601562 214.730469 333.003906 217.113281 C 332.40625 219.496094 331.753906 221.859375 331.042969 224.207031 C 330.328125 226.558594 329.558594 228.886719 328.730469 231.199219 C 327.90625 233.511719 327.019531 235.800781 326.082031 238.070312 C 325.140625 240.335938 324.148438 242.582031 323.097656 244.800781 C 322.046875 247.019531 320.945312 249.210938 319.789062 251.375 C 318.632812 253.539062 317.421875 255.675781 316.160156 257.78125 C 314.898438 259.886719 313.585938 261.960938 312.21875 264 C 310.855469 266.042969 309.445312 268.050781 307.980469 270.019531 C 306.519531 271.992188 305.007812 273.925781 303.453125 275.824219 C 301.894531 277.722656 300.292969 279.582031 298.644531 281.398438 C 296.992188 283.21875 295.300781 284.996094 293.566406 286.730469 C 291.832031 288.46875 290.054688 290.160156 288.234375 291.808594 C 286.414062 293.457031 284.554688 295.058594 282.660156 296.617188 C 280.761719 298.175781 278.828125 299.683594 276.855469 301.148438 C 274.882812 302.609375 272.875 304.023438 270.835938 305.386719 C 268.792969 306.75 266.722656 308.0625 264.617188 309.324219 C 262.511719 310.585938 260.375 311.796875 258.210938 312.953125 C 256.042969 314.113281 253.851562 315.214844 251.632812 316.265625 C 249.414062 317.3125 247.171875 318.308594 244.902344 319.25 C 242.632812 320.1875 240.34375 321.070312 238.035156 321.898438 C 235.722656 322.726562 233.390625 323.496094 231.042969 324.207031 C 228.695312 324.917969 226.328125 325.574219 223.945312 326.171875 C 221.566406 326.765625 219.171875 327.304688 216.761719 327.785156 C 214.355469 328.261719 211.9375 328.683594 209.507812 329.042969 C 207.082031 329.402344 204.644531 329.703125 202.203125 329.945312 C 199.757812 330.183594 197.3125 330.363281 194.859375 330.484375 C 192.410156 330.605469 189.953125 330.667969 187.5 330.667969 C 185.046875 330.667969 182.589844 330.605469 180.140625 330.484375 C 177.6875 330.363281 175.242188 330.183594 172.796875 329.945312 C 170.355469 329.703125 167.917969 329.402344 165.492188 329.042969 C 163.0625 328.683594 160.644531 328.261719 158.238281 327.785156 C 155.828125 327.304688 153.433594 326.765625 151.054688 326.171875 C 148.671875 325.574219 146.304688 324.917969 143.957031 324.207031 C 141.609375 323.496094 139.277344 322.726562 136.964844 321.898438 C 134.65625 321.070312 132.367188 320.1875 130.097656 319.25 C 127.828125 318.308594 125.585938 317.3125 123.367188 316.265625 C 121.148438 315.214844 118.957031 314.113281 116.789062 312.953125 C 114.625 311.796875 112.488281 310.585938 110.382812 309.324219 C 108.277344 308.0625 106.207031 306.75 104.164062 305.386719 C 102.125 304.023438 100.117188 302.609375 98.144531 301.148438 C 96.171875 299.683594 94.238281 298.175781 92.339844 296.617188 C 90.445312 295.058594 88.585938 293.457031 86.765625 291.808594 C 84.945312 290.160156 83.167969 288.46875 81.433594 286.730469 C 79.699219 284.996094 78.007812 283.21875 76.355469 281.398438 C 74.707031 279.582031 73.105469 277.722656 71.546875 275.824219 C 69.992188 273.925781 68.480469 271.992188 67.019531 270.019531 C 65.554688 268.050781 64.144531 266.042969 62.78125 264 C 61.414062 261.960938 60.101562 259.886719 58.839844 257.78125 C 57.578125 255.675781 56.367188 253.539062 55.210938 251.375 C 54.054688 249.210938 52.953125 247.019531 51.902344 244.800781 C 50.851562 242.582031 49.859375 240.335938 48.917969 238.070312 C 47.980469 235.800781 47.09375 233.511719 46.269531 231.199219 C 45.441406 228.886719 44.671875 226.558594 43.957031 224.207031 C 43.246094 221.859375 42.59375 219.496094 41.996094 217.113281 C 41.398438 214.730469 40.859375 212.335938 40.382812 209.929688 C 39.902344 207.523438 39.484375 205.105469 39.125 202.675781 C 38.761719 200.246094 38.464844 197.8125 38.222656 195.367188 C 37.980469 192.925781 37.800781 190.476562 37.679688 188.027344 C 37.558594 185.574219 37.5 183.121094 37.5 180.667969 Z M 37.5 180.667969 " clip-rule="nonzero"/></clipPath><linearGradient x1="1770.926093" gradientTransform="matrix(0.000000000000000143, -2.33827, 2.33827, 0.000000000000000143, -384.987776, 4471.568973)" y1="244.834" x2="1899.226087" gradientUnits="userSpaceOnUse" y2="244.834" xlink:type="simple" xlink:actuate="onLoad" id="id3" xlink:show="other"><stop stop-opacity="1" stop-color="rgb(32.899475%, 32.899475%, 32.899475%)" offset="0"/><stop stop-opacity="1" stop-color="rgb(33.049011%, 33.049011%, 33.049011%)" offset="0.015625"/><stop stop-opacity="1" stop-color="rgb(33.349609%, 33.349609%, 33.349609%)" offset="0.03125"/><stop stop-opacity="1" stop-color="rgb(33.648682%, 33.648682%, 33.648682%)" offset="0.046875"/><stop stop-opacity="1" stop-color="rgb(33.94928%, 33.94928%, 33.94928%)" offset="0.0625"/><stop stop-opacity="1" stop-color="rgb(34.249878%, 34.249878%, 34.249878%)" offset="0.078125"/><stop stop-opacity="1" stop-color="rgb(34.550476%, 34.550476%, 34.550476%)" offset="0.09375"/><stop stop-opacity="1" stop-color="rgb(34.849548%, 34.849548%, 34.849548%)" offset="0.109375"/><stop stop-opacity="1" stop-color="rgb(35.150146%, 35.150146%, 35.150146%)" offset="0.125"/><stop stop-opacity="1" stop-color="rgb(35.450745%, 35.450745%, 35.450745%)" offset="0.140625"/><stop stop-opacity="1" stop-color="rgb(35.749817%, 35.749817%, 35.749817%)" offset="0.15625"/><stop stop-opacity="1" stop-color="rgb(36.050415%, 36.050415%, 36.050415%)" offset="0.171875"/><stop stop-opacity="1" stop-color="rgb(36.351013%, 36.351013%, 36.351013%)" offset="0.1875"/><stop stop-opacity="1" stop-color="rgb(36.651611%, 36.651611%, 36.651611%)" offset="0.203125"/><stop stop-opacity="1" stop-color="rgb(36.950684%, 36.950684%, 36.950684%)" offset="0.21875"/><stop stop-opacity="1" stop-color="rgb(37.251282%, 37.251282%, 37.251282%)" offset="0.234375"/><stop stop-opacity="1" stop-color="rgb(37.55188%, 37.55188%, 37.55188%)" offset="0.25"/><stop stop-opacity="1" stop-color="rgb(37.852478%, 37.852478%, 37.852478%)" offset="0.265625"/><stop stop-opacity="1" stop-color="rgb(38.15155%, 38.15155%, 38.15155%)" offset="0.28125"/><stop stop-opacity="1" stop-color="rgb(38.452148%, 38.452148%, 38.452148%)" offset="0.296875"/><stop stop-opacity="1" stop-color="rgb(38.752747%, 38.752747%, 38.752747%)" offset="0.3125"/><stop stop-opacity="1" stop-color="rgb(39.053345%, 39.053345%, 39.053345%)" offset="0.328125"/><stop stop-opacity="1" stop-color="rgb(39.352417%, 39.352417%, 39.352417%)" offset="0.34375"/><stop stop-opacity="1" stop-color="rgb(39.653015%, 39.653015%, 39.653015%)" offset="0.359375"/><stop stop-opacity="1" stop-color="rgb(39.953613%, 39.953613%, 39.953613%)" offset="0.375"/><stop stop-opacity="1" stop-color="rgb(40.254211%, 40.254211%, 40.254211%)" offset="0.390625"/><stop stop-opacity="1" stop-color="rgb(40.553284%, 40.553284%, 40.553284%)" offset="0.40625"/><stop stop-opacity="1" stop-color="rgb(40.853882%, 40.853882%, 40.853882%)" offset="0.421875"/><stop stop-opacity="1" stop-color="rgb(41.15448%, 41.15448%, 41.15448%)" offset="0.4375"/><stop stop-opacity="1" stop-color="rgb(41.453552%, 41.453552%, 41.453552%)" offset="0.453125"/><stop stop-opacity="1" stop-color="rgb(41.75415%, 41.75415%, 41.75415%)" offset="0.46875"/><stop stop-opacity="1" stop-color="rgb(42.054749%, 42.054749%, 42.054749%)" offset="0.484375"/><stop stop-opacity="1" stop-color="rgb(42.355347%, 42.355347%, 42.355347%)" offset="0.5"/><stop stop-opacity="1" stop-color="rgb(42.654419%, 42.654419%, 42.654419%)" offset="0.515625"/><stop stop-opacity="1" stop-color="rgb(42.955017%, 42.955017%, 42.955017%)" offset="0.53125"/><stop stop-opacity="1" stop-color="rgb(43.255615%, 43.255615%, 43.255615%)" offset="0.546875"/><stop stop-opacity="1" stop-color="rgb(43.556213%, 43.556213%, 43.556213%)" offset="0.5625"/><stop stop-opacity="1" stop-color="rgb(43.855286%, 43.855286%, 43.855286%)" offset="0.578125"/><stop stop-opacity="1" stop-color="rgb(44.155884%, 44.155884%, 44.155884%)" offset="0.59375"/><stop stop-opacity="1" stop-color="rgb(44.456482%, 44.456482%, 44.456482%)" offset="0.609375"/><stop stop-opacity="1" stop-color="rgb(44.75708%, 44.75708%, 44.75708%)" offset="0.625"/><stop stop-opacity="1" stop-color="rgb(44.981384%, 44.981384%, 44.981384%)" offset="0.632812"/><stop stop-opacity="1" stop-color="rgb(45.393372%, 45.393372%, 45.393372%)" offset="0.636719"/><stop stop-opacity="1" stop-color="rgb(45.729065%, 45.729065%, 45.729065%)" offset="0.640625"/><stop stop-opacity="1" stop-color="rgb(46.166992%, 46.166992%, 46.166992%)" offset="0.644531"/><stop stop-opacity="1" stop-color="rgb(46.604919%, 46.604919%, 46.604919%)" offset="0.648437"/><stop stop-opacity="1" stop-color="rgb(47.042847%, 47.042847%, 47.042847%)" offset="0.652344"/><stop stop-opacity="1" stop-color="rgb(47.480774%, 47.480774%, 47.480774%)" offset="0.65625"/><stop stop-opacity="1" stop-color="rgb(47.917175%, 47.917175%, 47.917175%)" offset="0.660156"/><stop stop-opacity="1" stop-color="rgb(48.355103%, 48.355103%, 48.355103%)" offset="0.664062"/><stop stop-opacity="1" stop-color="rgb(48.79303%, 48.79303%, 48.79303%)" offset="0.667969"/><stop stop-opacity="1" stop-color="rgb(49.230957%, 49.230957%, 49.230957%)" offset="0.671875"/><stop stop-opacity="1" stop-color="rgb(49.668884%, 49.668884%, 49.668884%)" offset="0.675781"/><stop stop-opacity="1" stop-color="rgb(50.106812%, 50.106812%, 50.106812%)" offset="0.679688"/><stop stop-opacity="1" stop-color="rgb(50.543213%, 50.543213%, 50.543213%)" offset="0.683594"/><stop stop-opacity="1" stop-color="rgb(50.98114%, 50.98114%, 50.98114%)" offset="0.6875"/><stop stop-opacity="1" stop-color="rgb(51.419067%, 51.419067%, 51.419067%)" offset="0.691406"/><stop stop-opacity="1" stop-color="rgb(51.856995%, 51.856995%, 51.856995%)" offset="0.695312"/><stop stop-opacity="1" stop-color="rgb(52.294922%, 52.294922%, 52.294922%)" offset="0.699219"/><stop stop-opacity="1" stop-color="rgb(52.732849%, 52.732849%, 52.732849%)" offset="0.703125"/><stop stop-opacity="1" stop-color="rgb(53.16925%, 53.16925%, 53.16925%)" offset="0.707031"/><stop stop-opacity="1" stop-color="rgb(53.607178%, 53.607178%, 53.607178%)" offset="0.710938"/><stop stop-opacity="1" stop-color="rgb(54.045105%, 54.045105%, 54.045105%)" offset="0.714844"/><stop stop-opacity="1" stop-color="rgb(54.483032%, 54.483032%, 54.483032%)" offset="0.71875"/><stop stop-opacity="1" stop-color="rgb(54.920959%, 54.920959%, 54.920959%)" offset="0.722656"/><stop stop-opacity="1" stop-color="rgb(55.358887%, 55.358887%, 55.358887%)" offset="0.726562"/><stop stop-opacity="1" stop-color="rgb(55.795288%, 55.795288%, 55.795288%)" offset="0.730469"/><stop stop-opacity="1" stop-color="rgb(56.233215%, 56.233215%, 56.233215%)" offset="0.734375"/><stop stop-opacity="1" stop-color="rgb(56.671143%, 56.671143%, 56.671143%)" offset="0.738281"/><stop stop-opacity="1" stop-color="rgb(57.10907%, 57.10907%, 57.10907%)" offset="0.742187"/><stop stop-opacity="1" stop-color="rgb(57.546997%, 57.546997%, 57.546997%)" offset="0.746094"/><stop stop-opacity="1" stop-color="rgb(57.984924%, 57.984924%, 57.984924%)" offset="0.75"/><stop stop-opacity="1" stop-color="rgb(58.421326%, 58.421326%, 58.421326%)" offset="0.753906"/><stop stop-opacity="1" stop-color="rgb(58.859253%, 58.859253%, 58.859253%)" offset="0.757813"/><stop stop-opacity="1" stop-color="rgb(59.29718%, 59.29718%, 59.29718%)" offset="0.761719"/><stop stop-opacity="1" stop-color="rgb(59.735107%, 59.735107%, 59.735107%)" offset="0.765625"/><stop stop-opacity="1" stop-color="rgb(60.173035%, 60.173035%, 60.173035%)" offset="0.769531"/><stop stop-opacity="1" stop-color="rgb(60.610962%, 60.610962%, 60.610962%)" offset="0.773438"/><stop stop-opacity="1" stop-color="rgb(61.047363%, 61.047363%, 61.047363%)" offset="0.777344"/><stop stop-opacity="1" stop-color="rgb(61.485291%, 61.485291%, 61.485291%)" offset="0.78125"/><stop stop-opacity="1" stop-color="rgb(61.923218%, 61.923218%, 61.923218%)" offset="0.785156"/><stop stop-opacity="1" stop-color="rgb(62.361145%, 62.361145%, 62.361145%)" offset="0.789062"/><stop stop-opacity="1" stop-color="rgb(62.799072%, 62.799072%, 62.799072%)" offset="0.792969"/><stop stop-opacity="1" stop-color="rgb(63.237%, 63.237%, 63.237%)" offset="0.796875"/><stop stop-opacity="1" stop-color="rgb(63.673401%, 63.673401%, 63.673401%)" offset="0.800781"/><stop stop-opacity="1" stop-color="rgb(64.111328%, 64.111328%, 64.111328%)" offset="0.804688"/><stop stop-opacity="1" stop-color="rgb(64.549255%, 64.549255%, 64.549255%)" offset="0.808594"/><stop stop-opacity="1" stop-color="rgb(64.987183%, 64.987183%, 64.987183%)" offset="0.8125"/><stop stop-opacity="1" stop-color="rgb(65.42511%, 65.42511%, 65.42511%)" offset="0.816406"/><stop stop-opacity="1" stop-color="rgb(65.863037%, 65.863037%, 65.863037%)" offset="0.820312"/><stop stop-opacity="1" stop-color="rgb(66.299438%, 66.299438%, 66.299438%)" offset="0.824219"/><stop stop-opacity="1" stop-color="rgb(66.737366%, 66.737366%, 66.737366%)" offset="0.828125"/><stop stop-opacity="1" stop-color="rgb(67.175293%, 67.175293%, 67.175293%)" offset="0.832031"/><stop stop-opacity="1" stop-color="rgb(67.61322%, 67.61322%, 67.61322%)" offset="0.835938"/><stop stop-opacity="1" stop-color="rgb(68.051147%, 68.051147%, 68.051147%)" offset="0.839844"/><stop stop-opacity="1" stop-color="rgb(68.489075%, 68.489075%, 68.489075%)" offset="0.84375"/><stop stop-opacity="1" stop-color="rgb(68.925476%, 68.925476%, 68.925476%)" offset="0.847656"/><stop stop-opacity="1" stop-color="rgb(69.363403%, 69.363403%, 69.363403%)" offset="0.851563"/><stop stop-opacity="1" stop-color="rgb(69.801331%, 69.801331%, 69.801331%)" offset="0.855469"/><stop stop-opacity="1" stop-color="rgb(70.239258%, 70.239258%, 70.239258%)" offset="0.859375"/><stop stop-opacity="1" stop-color="rgb(70.677185%, 70.677185%, 70.677185%)" offset="0.863281"/><stop stop-opacity="1" stop-color="rgb(71.115112%, 71.115112%, 71.115112%)" offset="0.867188"/><stop stop-opacity="1" stop-color="rgb(71.551514%, 71.551514%, 71.551514%)" offset="0.871094"/><stop stop-opacity="1" stop-color="rgb(71.989441%, 71.989441%, 71.989441%)" offset="0.875"/><stop stop-opacity="1" stop-color="rgb(72.427368%, 72.427368%, 72.427368%)" offset="0.878906"/><stop stop-opacity="1" stop-color="rgb(72.865295%, 72.865295%, 72.865295%)" offset="0.882812"/><stop stop-opacity="1" stop-color="rgb(73.303223%, 73.303223%, 73.303223%)" offset="0.886719"/><stop stop-opacity="1" stop-color="rgb(73.74115%, 73.74115%, 73.74115%)" offset="0.890625"/><stop stop-opacity="1" stop-color="rgb(74.177551%, 74.177551%, 74.177551%)" offset="0.894531"/><stop stop-opacity="1" stop-color="rgb(74.615479%, 74.615479%, 74.615479%)" offset="0.898438"/><stop stop-opacity="1" stop-color="rgb(75.053406%, 75.053406%, 75.053406%)" offset="0.902344"/><stop stop-opacity="1" stop-color="rgb(75.491333%, 75.491333%, 75.491333%)" offset="0.90625"/><stop stop-opacity="1" stop-color="rgb(75.92926%, 75.92926%, 75.92926%)" offset="0.910156"/><stop stop-opacity="1" stop-color="rgb(76.367188%, 76.367188%, 76.367188%)" offset="0.914063"/><stop stop-opacity="1" stop-color="rgb(76.803589%, 76.803589%, 76.803589%)" offset="0.917969"/><stop stop-opacity="1" stop-color="rgb(77.241516%, 77.241516%, 77.241516%)" offset="0.921875"/><stop stop-opacity="1" stop-color="rgb(77.679443%, 77.679443%, 77.679443%)" offset="0.925781"/><stop stop-opacity="1" stop-color="rgb(78.117371%, 78.117371%, 78.117371%)" offset="0.929688"/><stop stop-opacity="1" stop-color="rgb(78.555298%, 78.555298%, 78.555298%)" offset="0.933594"/><stop stop-opacity="1" stop-color="rgb(78.993225%, 78.993225%, 78.993225%)" offset="0.9375"/><stop stop-opacity="1" stop-color="rgb(79.429626%, 79.429626%, 79.429626%)" offset="0.941406"/><stop stop-opacity="1" stop-color="rgb(79.867554%, 79.867554%, 79.867554%)" offset="0.945312"/><stop stop-opacity="1" stop-color="rgb(80.305481%, 80.305481%, 80.305481%)" offset="0.949219"/><stop stop-opacity="1" stop-color="rgb(80.743408%, 80.743408%, 80.743408%)" offset="0.953125"/><stop stop-opacity="1" stop-color="rgb(81.181335%, 81.181335%, 81.181335%)" offset="0.957031"/><stop stop-opacity="1" stop-color="rgb(81.619263%, 81.619263%, 81.619263%)" offset="0.960937"/><stop stop-opacity="1" stop-color="rgb(82.055664%, 82.055664%, 82.055664%)" offset="0.964844"/><stop stop-opacity="1" stop-color="rgb(82.493591%, 82.493591%, 82.493591%)" offset="0.96875"/><stop stop-opacity="1" stop-color="rgb(82.931519%, 82.931519%, 82.931519%)" offset="0.972656"/><stop stop-opacity="1" stop-color="rgb(83.369446%, 83.369446%, 83.369446%)" offset="0.976563"/><stop stop-opacity="1" stop-color="rgb(83.807373%, 83.807373%, 83.807373%)" offset="0.980469"/><stop stop-opacity="1" stop-color="rgb(84.2453%, 84.2453%, 84.2453%)" offset="0.984375"/><stop stop-opacity="1" stop-color="rgb(84.672546%, 84.672546%, 84.672546%)" offset="0.988281"/><stop stop-opacity="1" stop-color="rgb(85.099792%, 85.099792%, 85.099792%)" offset="0.992188"/><stop stop-opacity="1" stop-color="rgb(85.099792%, 85.099792%, 85.099792%)" offset="1"/></linearGradient><clipPath id="id4"><path d="M 89 37.316406 L 286.667969 37.316406 L 286.667969 171 L 89 171 Z M 89 37.316406 " clip-rule="nonzero"/></clipPath><clipPath id="id5"><path d="M 151 122 L 224 122 L 224 323.816406 L 151 323.816406 Z M 151 122 " clip-rule="nonzero"/></clipPath></defs><g clip-path="url(#id1)"><g clip-path="url(#id2)"><path fill="url(#id3)" d="M 37.5 330.667969 L 337.5 330.667969 L 337.5 30.667969 L 37.5 30.667969 Z M 37.5 330.667969 " fill-rule="nonzero"/></g></g><g clip-path="url(#id4)"><path fill="rgb(90.19928%, 59.21936%, 12.939453%)" d="M 89.019531 170.949219 L 187.65625 37.394531 L 286.285156 170.949219 L 187.65625 128.046875 L 89.019531 170.949219 " fill-opacity="1" fill-rule="nonzero"/></g><g clip-path="url(#id5)"><path fill="rgb(90.19928%, 59.21936%, 12.939453%)" d="M 151.347656 122.785156 L 223.957031 122.785156 L 198.585938 323.851562 L 176.722656 323.847656 L 151.347656 122.78125 " fill-opacity="1" fill-rule="nonzero"/></g></svg>