<svg xmlns="http://www.w3.org/2000/svg" xmlns:xlink="http://www.w3.org/1999/xlink" width="500" zoomAndPan="magnify" viewBox="0 0 375 374.999991" height="500" preserveAspectRatio="xMidYMid meet" version="1.0"><defs><clipPath id="id1"><path d="M 37.5 46.53125 L 337.5 46.53125 L 337.5 346.53125 L 37.5 346.53125 Z M 37.5 46.53125 " clip-rule="nonzero"/></clipPath><clipPath id="id2"><path d="M 37.5 196.53125 C 37.5 194.078125 37.558594 191.625 37.679688 189.171875 C 37.800781 186.71875 37.980469 184.273438 38.222656 181.828125 C 38.464844 179.386719 38.761719 176.949219 39.125 174.523438 C 39.484375 172.09375 39.902344 169.675781 40.382812 167.269531 C 40.859375 164.859375 41.398438 162.464844 41.996094 160.085938 C 42.59375 157.703125 43.246094 155.335938 43.957031 152.988281 C 44.671875 150.640625 45.441406 148.308594 46.269531 145.996094 C 47.09375 143.6875 47.980469 141.398438 48.917969 139.128906 C 49.859375 136.859375 50.851562 134.617188 51.902344 132.398438 C 52.953125 130.179688 54.054688 127.988281 55.210938 125.820312 C 56.367188 123.65625 57.578125 121.523438 58.839844 119.414062 C 60.101562 117.308594 61.414062 115.238281 62.78125 113.195312 C 64.144531 111.15625 65.554688 109.148438 67.019531 107.175781 C 68.480469 105.203125 69.992188 103.269531 71.546875 101.371094 C 73.105469 99.476562 74.707031 97.617188 76.355469 95.796875 C 78.007812 93.980469 79.699219 92.203125 81.433594 90.464844 C 83.167969 88.730469 84.945312 87.039062 86.765625 85.390625 C 88.585938 83.738281 90.445312 82.136719 92.339844 80.578125 C 94.238281 79.023438 96.171875 77.511719 98.144531 76.050781 C 100.117188 74.589844 102.125 73.175781 104.164062 71.8125 C 106.207031 70.445312 108.277344 69.132812 110.382812 67.871094 C 112.488281 66.609375 114.625 65.402344 116.789062 64.242188 C 118.957031 63.085938 121.148438 61.984375 123.367188 60.933594 C 125.585938 59.882812 127.828125 58.890625 130.097656 57.949219 C 132.367188 57.011719 134.65625 56.125 136.964844 55.300781 C 139.277344 54.472656 141.609375 53.703125 143.957031 52.992188 C 146.304688 52.277344 148.671875 51.625 151.054688 51.027344 C 153.433594 50.429688 155.828125 49.890625 158.238281 49.414062 C 160.644531 48.933594 163.0625 48.515625 165.492188 48.15625 C 167.917969 47.792969 170.355469 47.496094 172.796875 47.253906 C 175.242188 47.011719 177.6875 46.832031 180.140625 46.710938 C 182.589844 46.589844 185.046875 46.53125 187.5 46.53125 C 189.953125 46.53125 192.410156 46.589844 194.859375 46.710938 C 197.3125 46.832031 199.757812 47.011719 202.203125 47.253906 C 204.644531 47.496094 207.082031 47.792969 209.507812 48.15625 C 211.9375 48.515625 214.355469 48.933594 216.761719 49.414062 C 219.171875 49.890625 221.566406 50.429688 223.945312 51.027344 C 226.328125 51.625 228.695312 52.277344 231.042969 52.992188 C 233.390625 53.703125 235.722656 54.472656 238.035156 55.300781 C 240.34375 56.125 242.632812 57.011719 244.902344 57.949219 C 247.171875 58.890625 249.414062 59.882812 251.632812 60.933594 C 253.851562 61.984375 256.042969 63.085938 258.210938 64.242188 C 260.375 65.402344 262.511719 66.609375 264.617188 67.871094 C 266.722656 69.132812 268.792969 70.445312 270.835938 71.8125 C 272.875 73.175781 274.882812 74.589844 276.855469 76.050781 C 278.828125 77.511719 280.761719 79.023438 282.660156 80.578125 C 284.554688 82.136719 286.414062 83.738281 288.234375 85.390625 C 290.054688 87.039062 291.832031 88.730469 293.566406 90.464844 C 295.300781 92.203125 296.992188 93.980469 298.644531 95.796875 C 300.292969 97.617188 301.894531 99.476562 303.453125 101.371094 C 305.007812 103.269531 306.519531 105.203125 307.980469 107.175781 C 309.445312 109.148438 310.855469 111.15625 312.21875 113.195312 C 313.585938 115.238281 314.898438 117.308594 316.160156 119.417969 C 317.421875 121.523438 318.632812 123.65625 319.789062 125.820312 C 320.945312 127.988281 322.046875 130.179688 323.097656 132.398438 C 324.148438 134.617188 325.140625 136.859375 326.082031 139.128906 C 327.019531 141.398438 327.90625 143.6875 328.730469 145.996094 C 329.558594 148.308594 330.328125 150.640625 331.042969 152.988281 C 331.753906 155.335938 332.40625 157.703125 333.003906 160.085938 C 333.601562 162.464844 334.140625 164.859375 334.617188 167.269531 C 335.097656 169.675781 335.515625 172.09375 335.875 174.523438 C 336.238281 176.949219 336.535156 179.386719 336.777344 181.828125 C 337.019531 184.273438 337.199219 186.71875 337.320312 189.171875 C 337.441406 191.625 337.5 194.078125 337.5 196.53125 C 337.5 198.984375 337.441406 201.441406 337.320312 203.890625 C 337.199219 206.34375 337.019531 208.789062 336.777344 211.234375 C 336.535156 213.675781 336.238281 216.113281 335.875 218.539062 C 335.515625 220.96875 335.097656 223.386719 334.617188 225.796875 C 334.140625 228.203125 333.601562 230.597656 333.003906 232.976562 C 332.40625 235.359375 331.753906 237.726562 331.042969 240.074219 C 330.328125 242.421875 329.558594 244.753906 328.730469 247.066406 C 327.90625 249.375 327.019531 251.664062 326.082031 253.933594 C 325.140625 256.203125 324.148438 258.445312 323.097656 260.664062 C 322.046875 262.882812 320.945312 265.074219 319.789062 267.242188 C 318.632812 269.40625 317.421875 271.542969 316.160156 273.648438 C 314.898438 275.753906 313.585938 277.824219 312.21875 279.867188 C 310.855469 281.90625 309.445312 283.914062 307.980469 285.886719 C 306.519531 287.859375 305.007812 289.792969 303.453125 291.691406 C 301.894531 293.589844 300.292969 295.445312 298.644531 297.265625 C 296.992188 299.085938 295.300781 300.863281 293.566406 302.597656 C 291.832031 304.332031 290.054688 306.027344 288.234375 307.675781 C 286.414062 309.324219 284.554688 310.925781 282.660156 312.484375 C 280.761719 314.039062 278.828125 315.550781 276.855469 317.011719 C 274.882812 318.476562 272.875 319.886719 270.835938 321.25 C 268.792969 322.617188 266.722656 323.929688 264.617188 325.191406 C 262.511719 326.453125 260.375 327.664062 258.210938 328.820312 C 256.042969 329.976562 253.851562 331.082031 251.632812 332.128906 C 249.414062 333.179688 247.171875 334.175781 244.902344 335.113281 C 242.632812 336.054688 240.34375 336.9375 238.035156 337.761719 C 235.722656 338.589844 233.390625 339.359375 231.042969 340.074219 C 228.695312 340.785156 226.328125 341.441406 223.945312 342.035156 C 221.566406 342.632812 219.171875 343.171875 216.761719 343.648438 C 214.355469 344.128906 211.9375 344.546875 209.507812 344.90625 C 207.082031 345.269531 204.644531 345.570312 202.203125 345.808594 C 199.757812 346.050781 197.3125 346.230469 194.859375 346.351562 C 192.410156 346.472656 189.953125 346.53125 187.5 346.53125 C 185.046875 346.53125 182.589844 346.472656 180.140625 346.351562 C 177.6875 346.230469 175.242188 346.050781 172.796875 345.808594 C 170.355469 345.570312 167.917969 345.269531 165.492188 344.90625 C 163.0625 344.546875 160.644531 344.128906 158.238281 343.648438 C 155.828125 343.171875 153.433594 342.632812 151.054688 342.035156 C 148.671875 341.441406 146.304688 340.785156 143.957031 340.074219 C 141.609375 339.359375 139.277344 338.589844 136.964844 337.761719 C 134.65625 336.9375 132.367188 336.054688 130.097656 335.113281 C 127.828125 334.175781 125.585938 333.179688 123.367188 332.128906 C 121.148438 331.082031 118.957031 329.976562 116.789062 328.820312 C 114.625 327.664062 112.488281 326.453125 110.382812 325.191406 C 108.277344 323.929688 106.207031 322.617188 104.164062 321.25 C 102.125 319.886719 100.117188 318.476562 98.144531 317.011719 C 96.171875 315.550781 94.238281 314.039062 92.339844 312.484375 C 90.445312 310.925781 88.585938 309.324219 86.765625 307.675781 C 84.945312 306.027344 83.167969 304.332031 81.433594 302.597656 C 79.699219 300.863281 78.007812 299.085938 76.355469 297.265625 C 74.707031 295.445312 73.105469 293.589844 71.546875 291.691406 C 69.992188 289.792969 68.480469 287.859375 67.019531 285.886719 C 65.554688 283.914062 64.144531 281.90625 62.78125 279.867188 C 61.414062 277.824219 60.101562 275.753906 58.839844 273.648438 C 57.578125 271.542969 56.367188 269.40625 55.210938 267.242188 C 54.054688 265.074219 52.953125 262.882812 51.902344 260.664062 C 50.851562 258.445312 49.859375 256.203125 48.917969 253.933594 C 47.980469 251.664062 47.09375 249.375 46.269531 247.066406 C 45.441406 244.753906 44.671875 242.421875 43.957031 240.074219 C 43.246094 237.726562 42.59375 235.359375 41.996094 232.976562 C 41.398438 230.597656 40.859375 228.203125 40.382812 225.796875 C 39.902344 223.386719 39.484375 220.96875 39.125 218.539062 C 38.761719 216.113281 38.464844 213.675781 38.222656 211.234375 C 37.980469 208.789062 37.800781 206.34375 37.679688 203.890625 C 37.558594 201.441406 37.5 198.984375 37.5 196.53125 Z M 37.5 196.53125 " clip-rule="nonzero"/></clipPath><linearGradient x1="1770.925992" gradientTransform="matrix(0.000000000000000143, -2.33827, 2.33827, 0.000000000000000143, -384.987776, 4487.433872)" y1="244.834" x2="1899.225986" gradientUnits="userSpaceOnUse" y2="244.834" xlink:type="simple" xlink:actuate="onLoad" id="id3" xlink:show="other"><stop stop-opacity="1" stop-color="rgb(45.098877%, 45.098877%, 45.098877%)" offset="0"/><stop stop-opacity="1" stop-color="rgb(45.344543%, 45.344543%, 45.344543%)" offset="0.00390625"/><stop stop-opacity="1" stop-color="rgb(45.591736%, 45.591736%, 45.591736%)" offset="0.0078125"/><stop stop-opacity="1" stop-color="rgb(45.837402%, 45.837402%, 45.837402%)" offset="0.0117188"/><stop stop-opacity="1" stop-color="rgb(46.083069%, 46.083069%, 46.083069%)" offset="0.015625"/><stop stop-opacity="1" stop-color="rgb(46.328735%, 46.328735%, 46.328735%)" offset="0.0195312"/><stop stop-opacity="1" stop-color="rgb(46.575928%, 46.575928%, 46.575928%)" offset="0.0234375"/><stop stop-opacity="1" stop-color="rgb(46.821594%, 46.821594%, 46.821594%)" offset="0.0273437"/><stop stop-opacity="1" stop-color="rgb(47.067261%, 47.067261%, 47.067261%)" offset="0.03125"/><stop stop-opacity="1" stop-color="rgb(47.312927%, 47.312927%, 47.312927%)" offset="0.0351562"/><stop stop-opacity="1" stop-color="rgb(47.56012%, 47.56012%, 47.56012%)" offset="0.0390625"/><stop stop-opacity="1" stop-color="rgb(47.805786%, 47.805786%, 47.805786%)" offset="0.0429687"/><stop stop-opacity="1" stop-color="rgb(48.051453%, 48.051453%, 48.051453%)" offset="0.046875"/><stop stop-opacity="1" stop-color="rgb(48.297119%, 48.297119%, 48.297119%)" offset="0.0507812"/><stop stop-opacity="1" stop-color="rgb(48.544312%, 48.544312%, 48.544312%)" offset="0.0546875"/><stop stop-opacity="1" stop-color="rgb(48.789978%, 48.789978%, 48.789978%)" offset="0.0585938"/><stop stop-opacity="1" stop-color="rgb(49.035645%, 49.035645%, 49.035645%)" offset="0.0625"/><stop stop-opacity="1" stop-color="rgb(49.281311%, 49.281311%, 49.281311%)" offset="0.0664062"/><stop stop-opacity="1" stop-color="rgb(49.528503%, 49.528503%, 49.528503%)" offset="0.0703125"/><stop stop-opacity="1" stop-color="rgb(49.77417%, 49.77417%, 49.77417%)" offset="0.0742188"/><stop stop-opacity="1" stop-color="rgb(50.019836%, 50.019836%, 50.019836%)" offset="0.078125"/><stop stop-opacity="1" stop-color="rgb(50.265503%, 50.265503%, 50.265503%)" offset="0.0820312"/><stop stop-opacity="1" stop-color="rgb(50.512695%, 50.512695%, 50.512695%)" offset="0.0859375"/><stop stop-opacity="1" stop-color="rgb(50.758362%, 50.758362%, 50.758362%)" offset="0.0898438"/><stop stop-opacity="1" stop-color="rgb(51.004028%, 51.004028%, 51.004028%)" offset="0.09375"/><stop stop-opacity="1" stop-color="rgb(51.249695%, 51.249695%, 51.249695%)" offset="0.0976562"/><stop stop-opacity="1" stop-color="rgb(51.496887%, 51.496887%, 51.496887%)" offset="0.101562"/><stop stop-opacity="1" stop-color="rgb(51.742554%, 51.742554%, 51.742554%)" offset="0.105469"/><stop stop-opacity="1" stop-color="rgb(51.989746%, 51.989746%, 51.989746%)" offset="0.109375"/><stop stop-opacity="1" stop-color="rgb(52.235413%, 52.235413%, 52.235413%)" offset="0.113281"/><stop stop-opacity="1" stop-color="rgb(52.481079%, 52.481079%, 52.481079%)" offset="0.117188"/><stop stop-opacity="1" stop-color="rgb(52.726746%, 52.726746%, 52.726746%)" offset="0.121094"/><stop stop-opacity="1" stop-color="rgb(52.973938%, 52.973938%, 52.973938%)" offset="0.125"/><stop stop-opacity="1" stop-color="rgb(53.219604%, 53.219604%, 53.219604%)" offset="0.128906"/><stop stop-opacity="1" stop-color="rgb(53.465271%, 53.465271%, 53.465271%)" offset="0.132812"/><stop stop-opacity="1" stop-color="rgb(53.710938%, 53.710938%, 53.710938%)" offset="0.136719"/><stop stop-opacity="1" stop-color="rgb(53.95813%, 53.95813%, 53.95813%)" offset="0.140625"/><stop stop-opacity="1" stop-color="rgb(54.203796%, 54.203796%, 54.203796%)" offset="0.144531"/><stop stop-opacity="1" stop-color="rgb(54.449463%, 54.449463%, 54.449463%)" offset="0.148437"/><stop stop-opacity="1" stop-color="rgb(54.695129%, 54.695129%, 54.695129%)" offset="0.152344"/><stop stop-opacity="1" stop-color="rgb(54.942322%, 54.942322%, 54.942322%)" offset="0.15625"/><stop stop-opacity="1" stop-color="rgb(55.187988%, 55.187988%, 55.187988%)" offset="0.160156"/><stop stop-opacity="1" stop-color="rgb(55.433655%, 55.433655%, 55.433655%)" offset="0.164062"/><stop stop-opacity="1" stop-color="rgb(55.679321%, 55.679321%, 55.679321%)" offset="0.167969"/><stop stop-opacity="1" stop-color="rgb(55.926514%, 55.926514%, 55.926514%)" offset="0.171875"/><stop stop-opacity="1" stop-color="rgb(56.17218%, 56.17218%, 56.17218%)" offset="0.175781"/><stop stop-opacity="1" stop-color="rgb(56.417847%, 56.417847%, 56.417847%)" offset="0.179687"/><stop stop-opacity="1" stop-color="rgb(56.663513%, 56.663513%, 56.663513%)" offset="0.183594"/><stop stop-opacity="1" stop-color="rgb(56.910706%, 56.910706%, 56.910706%)" offset="0.1875"/><stop stop-opacity="1" stop-color="rgb(57.156372%, 57.156372%, 57.156372%)" offset="0.191406"/><stop stop-opacity="1" stop-color="rgb(57.402039%, 57.402039%, 57.402039%)" offset="0.195312"/><stop stop-opacity="1" stop-color="rgb(57.647705%, 57.647705%, 57.647705%)" offset="0.199219"/><stop stop-opacity="1" stop-color="rgb(57.894897%, 57.894897%, 57.894897%)" offset="0.203125"/><stop stop-opacity="1" stop-color="rgb(58.140564%, 58.140564%, 58.140564%)" offset="0.207031"/><stop stop-opacity="1" stop-color="rgb(58.38623%, 58.38623%, 58.38623%)" offset="0.210937"/><stop stop-opacity="1" stop-color="rgb(58.631897%, 58.631897%, 58.631897%)" offset="0.214844"/><stop stop-opacity="1" stop-color="rgb(58.879089%, 58.879089%, 58.879089%)" offset="0.21875"/><stop stop-opacity="1" stop-color="rgb(59.124756%, 59.124756%, 59.124756%)" offset="0.222656"/><stop stop-opacity="1" stop-color="rgb(59.370422%, 59.370422%, 59.370422%)" offset="0.226562"/><stop stop-opacity="1" stop-color="rgb(59.616089%, 59.616089%, 59.616089%)" offset="0.230469"/><stop stop-opacity="1" stop-color="rgb(59.863281%, 59.863281%, 59.863281%)" offset="0.234375"/><stop stop-opacity="1" stop-color="rgb(60.108948%, 60.108948%, 60.108948%)" offset="0.238281"/><stop stop-opacity="1" stop-color="rgb(60.354614%, 60.354614%, 60.354614%)" offset="0.242187"/><stop stop-opacity="1" stop-color="rgb(60.600281%, 60.600281%, 60.600281%)" offset="0.246094"/><stop stop-opacity="1" stop-color="rgb(60.847473%, 60.847473%, 60.847473%)" offset="0.25"/><stop stop-opacity="1" stop-color="rgb(61.09314%, 61.09314%, 61.09314%)" offset="0.253906"/><stop stop-opacity="1" stop-color="rgb(61.338806%, 61.338806%, 61.338806%)" offset="0.257812"/><stop stop-opacity="1" stop-color="rgb(61.584473%, 61.584473%, 61.584473%)" offset="0.261719"/><stop stop-opacity="1" stop-color="rgb(61.831665%, 61.831665%, 61.831665%)" offset="0.265625"/><stop stop-opacity="1" stop-color="rgb(62.077332%, 62.077332%, 62.077332%)" offset="0.269531"/><stop stop-opacity="1" stop-color="rgb(62.322998%, 62.322998%, 62.322998%)" offset="0.273437"/><stop stop-opacity="1" stop-color="rgb(62.568665%, 62.568665%, 62.568665%)" offset="0.277344"/><stop stop-opacity="1" stop-color="rgb(62.815857%, 62.815857%, 62.815857%)" offset="0.28125"/><stop stop-opacity="1" stop-color="rgb(63.061523%, 63.061523%, 63.061523%)" offset="0.285156"/><stop stop-opacity="1" stop-color="rgb(63.30719%, 63.30719%, 63.30719%)" offset="0.289062"/><stop stop-opacity="1" stop-color="rgb(63.552856%, 63.552856%, 63.552856%)" offset="0.292969"/><stop stop-opacity="1" stop-color="rgb(63.800049%, 63.800049%, 63.800049%)" offset="0.296875"/><stop stop-opacity="1" stop-color="rgb(64.045715%, 64.045715%, 64.045715%)" offset="0.300781"/><stop stop-opacity="1" stop-color="rgb(64.292908%, 64.292908%, 64.292908%)" offset="0.304688"/><stop stop-opacity="1" stop-color="rgb(64.538574%, 64.538574%, 64.538574%)" offset="0.308594"/><stop stop-opacity="1" stop-color="rgb(64.784241%, 64.784241%, 64.784241%)" offset="0.3125"/><stop stop-opacity="1" stop-color="rgb(65.029907%, 65.029907%, 65.029907%)" offset="0.316406"/><stop stop-opacity="1" stop-color="rgb(65.2771%, 65.2771%, 65.2771%)" offset="0.320313"/><stop stop-opacity="1" stop-color="rgb(65.522766%, 65.522766%, 65.522766%)" offset="0.324219"/><stop stop-opacity="1" stop-color="rgb(65.768433%, 65.768433%, 65.768433%)" offset="0.328125"/><stop stop-opacity="1" stop-color="rgb(66.014099%, 66.014099%, 66.014099%)" offset="0.332031"/><stop stop-opacity="1" stop-color="rgb(66.261292%, 66.261292%, 66.261292%)" offset="0.335938"/><stop stop-opacity="1" stop-color="rgb(66.506958%, 66.506958%, 66.506958%)" offset="0.339844"/><stop stop-opacity="1" stop-color="rgb(66.752625%, 66.752625%, 66.752625%)" offset="0.34375"/><stop stop-opacity="1" stop-color="rgb(66.998291%, 66.998291%, 66.998291%)" offset="0.347656"/><stop stop-opacity="1" stop-color="rgb(67.245483%, 67.245483%, 67.245483%)" offset="0.351562"/><stop stop-opacity="1" stop-color="rgb(67.49115%, 67.49115%, 67.49115%)" offset="0.355469"/><stop stop-opacity="1" stop-color="rgb(67.736816%, 67.736816%, 67.736816%)" offset="0.359375"/><stop stop-opacity="1" stop-color="rgb(67.982483%, 67.982483%, 67.982483%)" offset="0.363281"/><stop stop-opacity="1" stop-color="rgb(68.229675%, 68.229675%, 68.229675%)" offset="0.367188"/><stop stop-opacity="1" stop-color="rgb(68.475342%, 68.475342%, 68.475342%)" offset="0.371094"/><stop stop-opacity="1" stop-color="rgb(68.721008%, 68.721008%, 68.721008%)" offset="0.375"/><stop stop-opacity="1" stop-color="rgb(68.966675%, 68.966675%, 68.966675%)" offset="0.378906"/><stop stop-opacity="1" stop-color="rgb(69.213867%, 69.213867%, 69.213867%)" offset="0.382812"/><stop stop-opacity="1" stop-color="rgb(69.459534%, 69.459534%, 69.459534%)" offset="0.386719"/><stop stop-opacity="1" stop-color="rgb(69.7052%, 69.7052%, 69.7052%)" offset="0.390625"/><stop stop-opacity="1" stop-color="rgb(69.950867%, 69.950867%, 69.950867%)" offset="0.394531"/><stop stop-opacity="1" stop-color="rgb(70.198059%, 70.198059%, 70.198059%)" offset="0.398438"/><stop stop-opacity="1" stop-color="rgb(70.443726%, 70.443726%, 70.443726%)" offset="0.402344"/><stop stop-opacity="1" stop-color="rgb(70.689392%, 70.689392%, 70.689392%)" offset="0.40625"/><stop stop-opacity="1" stop-color="rgb(70.935059%, 70.935059%, 70.935059%)" offset="0.410156"/><stop stop-opacity="1" stop-color="rgb(71.182251%, 71.182251%, 71.182251%)" offset="0.414062"/><stop stop-opacity="1" stop-color="rgb(71.427917%, 71.427917%, 71.427917%)" offset="0.417969"/><stop stop-opacity="1" stop-color="rgb(71.673584%, 71.673584%, 71.673584%)" offset="0.421875"/><stop stop-opacity="1" stop-color="rgb(71.91925%, 71.91925%, 71.91925%)" offset="0.425781"/><stop stop-opacity="1" stop-color="rgb(72.166443%, 72.166443%, 72.166443%)" offset="0.429688"/><stop stop-opacity="1" stop-color="rgb(72.412109%, 72.412109%, 72.412109%)" offset="0.433594"/><stop stop-opacity="1" stop-color="rgb(72.657776%, 72.657776%, 72.657776%)" offset="0.4375"/><stop stop-opacity="1" stop-color="rgb(72.903442%, 72.903442%, 72.903442%)" offset="0.441406"/><stop stop-opacity="1" stop-color="rgb(73.150635%, 73.150635%, 73.150635%)" offset="0.445312"/><stop stop-opacity="1" stop-color="rgb(73.396301%, 73.396301%, 73.396301%)" offset="0.449219"/><stop stop-opacity="1" stop-color="rgb(73.641968%, 73.641968%, 73.641968%)" offset="0.453125"/><stop stop-opacity="1" stop-color="rgb(73.887634%, 73.887634%, 73.887634%)" offset="0.457031"/><stop stop-opacity="1" stop-color="rgb(74.134827%, 74.134827%, 74.134827%)" offset="0.460938"/><stop stop-opacity="1" stop-color="rgb(74.380493%, 74.380493%, 74.380493%)" offset="0.464844"/><stop stop-opacity="1" stop-color="rgb(74.62616%, 74.62616%, 74.62616%)" offset="0.46875"/><stop stop-opacity="1" stop-color="rgb(74.871826%, 74.871826%, 74.871826%)" offset="0.472656"/><stop stop-opacity="1" stop-color="rgb(75.119019%, 75.119019%, 75.119019%)" offset="0.476562"/><stop stop-opacity="1" stop-color="rgb(75.364685%, 75.364685%, 75.364685%)" offset="0.480469"/><stop stop-opacity="1" stop-color="rgb(75.610352%, 75.610352%, 75.610352%)" offset="0.484375"/><stop stop-opacity="1" stop-color="rgb(75.856018%, 75.856018%, 75.856018%)" offset="0.488281"/><stop stop-opacity="1" stop-color="rgb(76.10321%, 76.10321%, 76.10321%)" offset="0.492187"/><stop stop-opacity="1" stop-color="rgb(76.348877%, 76.348877%, 76.348877%)" offset="0.496094"/><stop stop-opacity="1" stop-color="rgb(76.594543%, 76.594543%, 76.594543%)" offset="0.5"/><stop stop-opacity="1" stop-color="rgb(76.84021%, 76.84021%, 76.84021%)" offset="0.503906"/><stop stop-opacity="1" stop-color="rgb(77.087402%, 77.087402%, 77.087402%)" offset="0.507812"/><stop stop-opacity="1" stop-color="rgb(77.333069%, 77.333069%, 77.333069%)" offset="0.511719"/><stop stop-opacity="1" stop-color="rgb(77.580261%, 77.580261%, 77.580261%)" offset="0.515625"/><stop stop-opacity="1" stop-color="rgb(77.825928%, 77.825928%, 77.825928%)" offset="0.519531"/><stop stop-opacity="1" stop-color="rgb(78.071594%, 78.071594%, 78.071594%)" offset="0.523438"/><stop stop-opacity="1" stop-color="rgb(78.317261%, 78.317261%, 78.317261%)" offset="0.527344"/><stop stop-opacity="1" stop-color="rgb(78.564453%, 78.564453%, 78.564453%)" offset="0.53125"/><stop stop-opacity="1" stop-color="rgb(78.81012%, 78.81012%, 78.81012%)" offset="0.535156"/><stop stop-opacity="1" stop-color="rgb(79.055786%, 79.055786%, 79.055786%)" offset="0.539062"/><stop stop-opacity="1" stop-color="rgb(79.301453%, 79.301453%, 79.301453%)" offset="0.542969"/><stop stop-opacity="1" stop-color="rgb(79.548645%, 79.548645%, 79.548645%)" offset="0.546875"/><stop stop-opacity="1" stop-color="rgb(79.794312%, 79.794312%, 79.794312%)" offset="0.550781"/><stop stop-opacity="1" stop-color="rgb(80.039978%, 80.039978%, 80.039978%)" offset="0.554688"/><stop stop-opacity="1" stop-color="rgb(80.285645%, 80.285645%, 80.285645%)" offset="0.558594"/><stop stop-opacity="1" stop-color="rgb(80.532837%, 80.532837%, 80.532837%)" offset="0.5625"/><stop stop-opacity="1" stop-color="rgb(80.778503%, 80.778503%, 80.778503%)" offset="0.566406"/><stop stop-opacity="1" stop-color="rgb(81.02417%, 81.02417%, 81.02417%)" offset="0.570312"/><stop stop-opacity="1" stop-color="rgb(81.269836%, 81.269836%, 81.269836%)" offset="0.574219"/><stop stop-opacity="1" stop-color="rgb(81.517029%, 81.517029%, 81.517029%)" offset="0.578125"/><stop stop-opacity="1" stop-color="rgb(81.762695%, 81.762695%, 81.762695%)" offset="0.582031"/><stop stop-opacity="1" stop-color="rgb(82.008362%, 82.008362%, 82.008362%)" offset="0.585938"/><stop stop-opacity="1" stop-color="rgb(82.254028%, 82.254028%, 82.254028%)" offset="0.589844"/><stop stop-opacity="1" stop-color="rgb(82.501221%, 82.501221%, 82.501221%)" offset="0.59375"/><stop stop-opacity="1" stop-color="rgb(82.746887%, 82.746887%, 82.746887%)" offset="0.597656"/><stop stop-opacity="1" stop-color="rgb(82.992554%, 82.992554%, 82.992554%)" offset="0.601562"/><stop stop-opacity="1" stop-color="rgb(83.23822%, 83.23822%, 83.23822%)" offset="0.605469"/><stop stop-opacity="1" stop-color="rgb(83.485413%, 83.485413%, 83.485413%)" offset="0.609375"/><stop stop-opacity="1" stop-color="rgb(83.731079%, 83.731079%, 83.731079%)" offset="0.613281"/><stop stop-opacity="1" stop-color="rgb(83.976746%, 83.976746%, 83.976746%)" offset="0.617188"/><stop stop-opacity="1" stop-color="rgb(84.222412%, 84.222412%, 84.222412%)" offset="0.621094"/><stop stop-opacity="1" stop-color="rgb(84.469604%, 84.469604%, 84.469604%)" offset="0.625"/><stop stop-opacity="1" stop-color="rgb(84.715271%, 84.715271%, 84.715271%)" offset="0.628906"/><stop stop-opacity="1" stop-color="rgb(84.960938%, 84.960938%, 84.960938%)" offset="0.632812"/><stop stop-opacity="1" stop-color="rgb(85.147095%, 85.147095%, 85.147095%)" offset="0.640625"/><stop stop-opacity="1" stop-color="rgb(85.496521%, 85.496521%, 85.496521%)" offset="0.648438"/><stop stop-opacity="1" stop-color="rgb(85.823059%, 85.823059%, 85.823059%)" offset="0.65625"/><stop stop-opacity="1" stop-color="rgb(86.149597%, 86.149597%, 86.149597%)" offset="0.664062"/><stop stop-opacity="1" stop-color="rgb(86.474609%, 86.474609%, 86.474609%)" offset="0.671875"/><stop stop-opacity="1" stop-color="rgb(86.801147%, 86.801147%, 86.801147%)" offset="0.679688"/><stop stop-opacity="1" stop-color="rgb(87.127686%, 87.127686%, 87.127686%)" offset="0.6875"/><stop stop-opacity="1" stop-color="rgb(87.452698%, 87.452698%, 87.452698%)" offset="0.695312"/><stop stop-opacity="1" stop-color="rgb(87.779236%, 87.779236%, 87.779236%)" offset="0.703125"/><stop stop-opacity="1" stop-color="rgb(88.105774%, 88.105774%, 88.105774%)" offset="0.710938"/><stop stop-opacity="1" stop-color="rgb(88.430786%, 88.430786%, 88.430786%)" offset="0.71875"/><stop stop-opacity="1" stop-color="rgb(88.757324%, 88.757324%, 88.757324%)" offset="0.726562"/><stop stop-opacity="1" stop-color="rgb(89.083862%, 89.083862%, 89.083862%)" offset="0.734375"/><stop stop-opacity="1" stop-color="rgb(89.408875%, 89.408875%, 89.408875%)" offset="0.742188"/><stop stop-opacity="1" stop-color="rgb(89.735413%, 89.735413%, 89.735413%)" offset="0.75"/><stop stop-opacity="1" stop-color="rgb(90.061951%, 90.061951%, 90.061951%)" offset="0.757812"/><stop stop-opacity="1" stop-color="rgb(90.388489%, 90.388489%, 90.388489%)" offset="0.765625"/><stop stop-opacity="1" stop-color="rgb(90.713501%, 90.713501%, 90.713501%)" offset="0.773438"/><stop stop-opacity="1" stop-color="rgb(91.040039%, 91.040039%, 91.040039%)" offset="0.78125"/><stop stop-opacity="1" stop-color="rgb(91.366577%, 91.366577%, 91.366577%)" offset="0.789062"/><stop stop-opacity="1" stop-color="rgb(91.691589%, 91.691589%, 91.691589%)" offset="0.796875"/><stop stop-opacity="1" stop-color="rgb(92.018127%, 92.018127%, 92.018127%)" offset="0.804688"/><stop stop-opacity="1" stop-color="rgb(92.344666%, 92.344666%, 92.344666%)" offset="0.8125"/><stop stop-opacity="1" stop-color="rgb(92.669678%, 92.669678%, 92.669678%)" offset="0.820312"/><stop stop-opacity="1" stop-color="rgb(92.996216%, 92.996216%, 92.996216%)" offset="0.828125"/><stop stop-opacity="1" stop-color="rgb(93.322754%, 93.322754%, 93.322754%)" offset="0.835938"/><stop stop-opacity="1" stop-color="rgb(93.647766%, 93.647766%, 93.647766%)" offset="0.84375"/><stop stop-opacity="1" stop-color="rgb(93.974304%, 93.974304%, 93.974304%)" offset="0.851562"/><stop stop-opacity="1" stop-color="rgb(94.300842%, 94.300842%, 94.300842%)" offset="0.859375"/><stop stop-opacity="1" stop-color="rgb(94.62738%, 94.62738%, 94.62738%)" offset="0.867188"/><stop stop-opacity="1" stop-color="rgb(94.952393%, 94.952393%, 94.952393%)" offset="0.875"/><stop stop-opacity="1" stop-color="rgb(95.278931%, 95.278931%, 95.278931%)" offset="0.882812"/><stop stop-opacity="1" stop-color="rgb(95.605469%, 95.605469%, 95.605469%)" offset="0.890625"/><stop stop-opacity="1" stop-color="rgb(95.930481%, 95.930481%, 95.930481%)" offset="0.898438"/><stop stop-opacity="1" stop-color="rgb(96.257019%, 96.257019%, 96.257019%)" offset="0.90625"/><stop stop-opacity="1" stop-color="rgb(96.583557%, 96.583557%, 96.583557%)" offset="0.914062"/><stop stop-opacity="1" stop-color="rgb(96.908569%, 96.908569%, 96.908569%)" offset="0.921875"/><stop stop-opacity="1" stop-color="rgb(97.235107%, 97.235107%, 97.235107%)" offset="0.929688"/><stop stop-opacity="1" stop-color="rgb(97.561646%, 97.561646%, 97.561646%)" offset="0.9375"/><stop stop-opacity="1" stop-color="rgb(97.886658%, 97.886658%, 97.886658%)" offset="0.945312"/><stop stop-opacity="1" stop-color="rgb(98.213196%, 98.213196%, 98.213196%)" offset="0.953125"/><stop stop-opacity="1" stop-color="rgb(98.539734%, 98.539734%, 98.539734%)" offset="0.960938"/><stop stop-opacity="1" stop-color="rgb(98.866272%, 98.866272%, 98.866272%)" offset="0.96875"/><stop stop-opacity="1" stop-color="rgb(99.191284%, 99.191284%, 99.191284%)" offset="0.976562"/><stop stop-opacity="1" stop-color="rgb(99.517822%, 99.517822%, 99.517822%)" offset="0.984375"/><stop stop-opacity="1" stop-color="rgb(99.839783%, 99.839783%, 99.839783%)" offset="1"/></linearGradient><clipPath id="id4"><path d="M 119.433594 154 L 243.933594 154 L 243.933594 264 L 119.433594 264 Z M 119.433594 154 " clip-rule="nonzero"/></clipPath><clipPath id="id5"><path d="M 119.433594 66.257812 L 243.933594 66.257812 L 243.933594 193 L 119.433594 193 Z M 119.433594 66.257812 " clip-rule="nonzero"/></clipPath><clipPath id="id6"><path d="M 119.433594 281 L 133 281 L 133 295 L 119.433594 295 Z M 119.433594 281 " clip-rule="nonzero"/></clipPath><clipPath id="id7"><path d="M 119.433594 302 L 133 302 L 133 315 L 119.433594 315 Z M 119.433594 302 " clip-rule="nonzero"/></clipPath><clipPath id="id8"><path d="M 119.433594 301 L 133 301 L 133 315.257812 L 119.433594 315.257812 Z M 119.433594 301 " clip-rule="nonzero"/></clipPath><clipPath id="id9"><path d="M 231 281 L 243.933594 281 L 243.933594 295 L 231 295 Z M 231 281 " clip-rule="nonzero"/></clipPath><clipPath id="id10"><path d="M 230 281 L 243.933594 281 L 243.933594 295 L 230 295 Z M 230 281 " clip-rule="nonzero"/></clipPath><clipPath id="id11"><path d="M 231 302 L 243.933594 302 L 243.933594 315 L 231 315 Z M 231 302 " clip-rule="nonzero"/></clipPath><clipPath id="id12"><path d="M 230 301 L 243.933594 301 L 243.933594 315.257812 L 230 315.257812 Z M 230 301 " clip-rule="nonzero"/></clipPath></defs><g clip-path="url(#id1)"><g clip-path="url(#id2)"><path fill="url(#id3)" d="M 37.5 346.53125 L 337.5 346.53125 L 337.5 46.53125 L 37.5 46.53125 Z M 37.5 346.53125 " fill-rule="nonzero"/></g></g><g clip-path="url(#id4)"><path fill="rgb(73.329163%, 53.729248%, 42.749023%)" d="M 168.125 167.734375 L 119.613281 216.363281 L 119.613281 263.128906 L 181.714844 200.078125 L 243.820312 263.128906 L 243.820312 216.363281 L 181.714844 154.109375 L 168.125 167.734375 " fill-opacity="1" fill-rule="nonzero"/></g><g clip-path="url(#id5)"><path fill="rgb(73.329163%, 53.729248%, 42.749023%)" d="M 168.125 80.011719 L 119.613281 128.644531 L 119.613281 192.570312 L 181.714844 129.519531 L 243.820312 192.570312 L 243.820312 128.644531 L 181.714844 66.386719 L 168.125 80.011719 " fill-opacity="1" fill-rule="nonzero"/></g><path fill="rgb(73.329163%, 53.729248%, 42.749023%)" d="M 168.246094 269.632812 C 168.226562 266.109375 165.34375 263.246094 161.828125 263.261719 C 158.308594 263.277344 155.453125 266.167969 155.46875 269.695312 C 155.484375 273.222656 158.367188 276.085938 161.886719 276.066406 C 165.40625 276.050781 168.261719 273.160156 168.246094 269.632812 " fill-opacity="1" fill-rule="evenodd"/><path fill="rgb(73.329163%, 53.729248%, 42.749023%)" d="M 155.601562 269.664062 C 155.617188 273.152344 158.4375 275.949219 161.886719 275.933594 C 165.316406 275.917969 168.109375 273.105469 168.109375 269.664062 L 168.246094 269.664062 L 168.109375 269.632812 C 168.101562 267.964844 167.441406 266.394531 166.253906 265.214844 C 165.066406 264.035156 163.492188 263.386719 161.828125 263.394531 C 158.394531 263.414062 155.601562 266.226562 155.601562 269.664062 Z M 168.378906 269.664062 C 168.378906 273.253906 165.464844 276.1875 161.886719 276.203125 C 158.289062 276.21875 155.351562 273.300781 155.332031 269.695312 C 155.332031 266.074219 158.246094 263.140625 161.824219 263.125 C 163.5625 263.117188 165.203125 263.789062 166.445312 265.023438 C 167.683594 266.253906 168.371094 267.890625 168.378906 269.632812 L 168.378906 269.664062 " fill-opacity="1" fill-rule="nonzero"/><path fill="rgb(73.329163%, 53.729248%, 42.749023%)" d="M 205.398438 269.457031 C 205.382812 265.929688 202.5 263.066406 198.980469 263.082031 C 195.460938 263.101562 192.605469 265.992188 192.621094 269.519531 C 192.636719 273.046875 195.523438 275.90625 199.039062 275.890625 C 202.558594 275.875 205.414062 272.984375 205.398438 269.457031 " fill-opacity="1" fill-rule="evenodd"/><path fill="rgb(73.329163%, 53.729248%, 42.749023%)" d="M 192.757812 269.488281 C 192.773438 272.972656 195.589844 275.773438 199.039062 275.757812 C 202.46875 275.742188 205.261719 272.929688 205.261719 269.488281 L 205.398438 269.488281 L 205.261719 269.457031 C 205.246094 266 202.429688 263.203125 198.980469 263.21875 C 195.550781 263.234375 192.757812 266.046875 192.757812 269.488281 Z M 205.53125 269.488281 C 205.53125 273.078125 202.621094 276.011719 199.039062 276.027344 C 195.445312 276.042969 192.503906 273.125 192.488281 269.519531 C 192.488281 265.898438 195.398438 262.964844 198.980469 262.949219 C 202.578125 262.933594 205.515625 265.851562 205.53125 269.457031 L 205.53125 269.488281 " fill-opacity="1" fill-rule="nonzero"/><path fill="rgb(73.329163%, 53.729248%, 42.749023%)" d="M 186.726562 249.316406 C 186.710938 245.789062 183.824219 242.925781 180.308594 242.945312 C 176.789062 242.960938 173.929688 245.851562 173.949219 249.378906 C 173.964844 252.90625 176.851562 255.769531 180.367188 255.753906 C 183.886719 255.734375 186.742188 252.84375 186.726562 249.316406 " fill-opacity="1" fill-rule="evenodd"/><path fill="rgb(73.329163%, 53.729248%, 42.749023%)" d="M 174.082031 249.347656 C 174.097656 252.835938 176.917969 255.632812 180.367188 255.617188 C 183.800781 255.601562 186.589844 252.789062 186.589844 249.347656 L 186.726562 249.347656 L 186.589844 249.316406 C 186.574219 245.859375 183.753906 243.0625 180.308594 243.078125 C 176.875 243.09375 174.082031 245.90625 174.082031 249.347656 Z M 186.859375 249.347656 C 186.859375 252.9375 183.949219 255.871094 180.367188 255.886719 C 176.773438 255.902344 173.832031 252.984375 173.816406 249.378906 C 173.816406 245.757812 176.726562 242.828125 180.304688 242.808594 C 183.902344 242.792969 186.84375 245.710938 186.859375 249.316406 L 186.859375 249.347656 " fill-opacity="1" fill-rule="nonzero"/><path fill="rgb(73.329163%, 53.729248%, 42.749023%)" d="M 150.933594 269.546875 C 150.917969 266.019531 148.035156 263.15625 144.515625 263.171875 C 141 263.191406 138.140625 266.078125 138.15625 269.605469 C 138.175781 273.132812 141.058594 275.996094 144.578125 275.980469 C 148.09375 275.964844 150.949219 273.074219 150.933594 269.546875 " fill-opacity="1" fill-rule="evenodd"/><path fill="rgb(73.329163%, 53.729248%, 42.749023%)" d="M 138.292969 269.578125 C 138.308594 273.0625 141.128906 275.863281 144.578125 275.847656 C 148.007812 275.828125 150.800781 273.015625 150.800781 269.578125 L 150.933594 269.578125 L 150.800781 269.546875 C 150.792969 267.875 150.132812 266.304688 148.945312 265.125 C 147.753906 263.945312 146.183594 263.300781 144.515625 263.304688 C 141.085938 263.324219 138.292969 266.136719 138.292969 269.578125 Z M 151.070312 269.578125 C 151.070312 273.164062 148.15625 276.097656 144.578125 276.117188 C 140.980469 276.132812 138.039062 273.214844 138.023438 269.605469 C 138.023438 265.988281 140.9375 263.054688 144.515625 263.035156 C 146.253906 263.027344 147.894531 263.703125 149.132812 264.933594 C 150.375 266.167969 151.0625 267.804688 151.070312 269.546875 L 151.070312 269.578125 " fill-opacity="1" fill-rule="nonzero"/><path fill="rgb(73.329163%, 53.729248%, 42.749023%)" d="M 150.933594 288.269531 C 150.917969 284.742188 148.035156 281.878906 144.515625 281.894531 C 141 281.914062 138.140625 284.804688 138.15625 288.328125 C 138.175781 291.855469 141.058594 294.71875 144.578125 294.703125 C 148.09375 294.6875 150.949219 291.796875 150.933594 288.269531 " fill-opacity="1" fill-rule="evenodd"/><path fill="rgb(73.329163%, 53.729248%, 42.749023%)" d="M 138.292969 288.300781 C 138.300781 290 138.960938 291.570312 140.148438 292.75 C 141.335938 293.929688 142.910156 294.578125 144.578125 294.570312 C 148.007812 294.550781 150.800781 291.738281 150.800781 288.300781 L 150.933594 288.300781 L 150.800781 288.269531 C 150.78125 284.8125 147.964844 282.015625 144.515625 282.03125 C 141.085938 282.046875 138.292969 284.859375 138.292969 288.300781 Z M 151.070312 288.300781 C 151.070312 291.890625 148.15625 294.820312 144.578125 294.839844 C 142.839844 294.847656 141.199219 294.175781 139.960938 292.941406 C 138.71875 291.710938 138.03125 290.070312 138.023438 288.328125 C 138.023438 284.710938 140.9375 281.777344 144.515625 281.761719 C 148.113281 281.746094 151.050781 284.664062 151.070312 288.269531 L 151.070312 288.300781 " fill-opacity="1" fill-rule="nonzero"/><g clip-path="url(#id6)"><path fill="rgb(73.329163%, 53.729248%, 42.749023%)" d="M 132.355469 288.269531 C 132.339844 284.742188 129.457031 281.878906 125.9375 281.894531 C 122.421875 281.914062 119.566406 284.804688 119.582031 288.328125 C 119.597656 291.855469 122.480469 294.71875 126 294.703125 C 129.519531 294.6875 132.375 291.796875 132.355469 288.269531 " fill-opacity="1" fill-rule="evenodd"/><path fill="rgb(73.329163%, 53.729248%, 42.749023%)" d="M 119.714844 288.300781 C 119.722656 290 120.382812 291.570312 121.570312 292.75 C 122.761719 293.929688 124.332031 294.578125 125.996094 294.570312 C 129.429688 294.550781 132.222656 291.738281 132.222656 288.300781 L 132.355469 288.300781 L 132.222656 288.269531 C 132.207031 284.8125 129.386719 282.015625 125.9375 282.03125 C 122.507812 282.046875 119.714844 284.859375 119.714844 288.300781 Z M 132.492188 288.300781 C 132.492188 291.890625 129.578125 294.820312 126 294.839844 C 124.261719 294.847656 122.621094 294.175781 121.382812 292.941406 C 120.140625 291.710938 119.453125 290.070312 119.445312 288.328125 C 119.445312 284.710938 122.355469 281.777344 125.9375 281.761719 C 129.535156 281.746094 132.476562 284.664062 132.492188 288.269531 L 132.492188 288.300781 " fill-opacity="1" fill-rule="nonzero"/></g><g clip-path="url(#id7)"><path fill="rgb(73.329163%, 53.729248%, 42.749023%)" d="M 132.355469 308.476562 C 132.339844 304.949219 129.457031 302.085938 125.9375 302.101562 C 122.421875 302.121094 119.566406 305.011719 119.582031 308.535156 C 119.597656 312.0625 122.480469 314.925781 126 314.910156 C 129.519531 314.894531 132.375 312.003906 132.355469 308.476562 " fill-opacity="1" fill-rule="evenodd"/></g><g clip-path="url(#id8)"><path fill="rgb(73.329163%, 53.729248%, 42.749023%)" d="M 119.714844 308.507812 C 119.730469 311.992188 122.550781 314.792969 125.996094 314.777344 C 129.429688 314.757812 132.222656 311.945312 132.222656 308.507812 L 132.355469 308.507812 L 132.222656 308.476562 C 132.207031 305.019531 129.386719 302.222656 125.9375 302.238281 C 122.507812 302.253906 119.714844 305.066406 119.714844 308.507812 Z M 132.492188 308.507812 C 132.492188 312.097656 129.578125 315.03125 126 315.046875 C 122.402344 315.0625 119.464844 312.144531 119.445312 308.535156 C 119.445312 304.917969 122.355469 301.984375 125.9375 301.96875 C 129.535156 301.953125 132.476562 304.871094 132.492188 308.476562 L 132.492188 308.507812 " fill-opacity="1" fill-rule="nonzero"/></g><path fill="rgb(73.329163%, 53.729248%, 42.749023%)" d="M 212.464844 288.269531 C 212.484375 284.742188 215.367188 281.878906 218.886719 281.894531 C 222.402344 281.914062 225.257812 284.804688 225.242188 288.328125 C 225.226562 291.855469 222.34375 294.71875 218.824219 294.703125 C 215.304688 294.6875 212.449219 291.796875 212.464844 288.269531 " fill-opacity="1" fill-rule="evenodd"/><path fill="rgb(73.329163%, 53.729248%, 42.749023%)" d="M 212.601562 288.269531 C 212.601562 291.738281 215.394531 294.550781 218.824219 294.570312 C 220.492188 294.578125 222.0625 293.929688 223.253906 292.75 C 224.441406 291.570312 225.101562 290 225.105469 288.328125 L 225.242188 288.300781 L 225.105469 288.300781 C 225.105469 284.859375 222.316406 282.046875 218.886719 282.03125 C 215.4375 282.015625 212.617188 284.8125 212.601562 288.269531 Z M 225.378906 288.300781 L 225.378906 288.328125 C 225.359375 291.9375 222.421875 294.855469 218.824219 294.839844 C 215.246094 294.820312 212.332031 291.890625 212.332031 288.300781 C 212.347656 284.664062 215.289062 281.746094 218.886719 281.761719 C 222.464844 281.777344 225.378906 284.710938 225.378906 288.300781 " fill-opacity="1" fill-rule="nonzero"/><g clip-path="url(#id9)"><path fill="rgb(73.329163%, 53.729248%, 42.749023%)" d="M 231.042969 288.269531 C 231.0625 284.742188 233.945312 281.878906 237.460938 281.894531 C 240.980469 281.914062 243.835938 284.804688 243.820312 288.328125 C 243.804688 291.855469 240.921875 294.71875 237.402344 294.703125 C 233.882812 294.6875 231.027344 291.796875 231.042969 288.269531 " fill-opacity="1" fill-rule="evenodd"/></g><g clip-path="url(#id10)"><path fill="rgb(73.329163%, 53.729248%, 42.749023%)" d="M 231.179688 288.269531 C 231.179688 291.738281 233.96875 294.550781 237.402344 294.570312 C 239.070312 294.578125 240.640625 293.929688 241.828125 292.75 C 243.019531 291.570312 243.675781 290 243.6875 288.328125 L 243.820312 288.300781 L 243.6875 288.300781 C 243.6875 284.859375 240.894531 282.046875 237.460938 282.03125 C 234.015625 282.015625 231.195312 284.8125 231.179688 288.269531 Z M 243.957031 288.300781 L 243.957031 288.328125 C 243.945312 290.070312 243.257812 291.710938 242.019531 292.941406 C 240.777344 294.175781 239.140625 294.847656 237.402344 294.839844 C 233.820312 294.820312 230.910156 291.890625 230.910156 288.300781 C 230.925781 284.664062 233.867188 281.746094 237.464844 281.761719 C 241.042969 281.777344 243.957031 284.710938 243.957031 288.300781 " fill-opacity="1" fill-rule="nonzero"/></g><g clip-path="url(#id11)"><path fill="rgb(73.329163%, 53.729248%, 42.749023%)" d="M 231.042969 308.476562 C 231.0625 304.949219 233.945312 302.085938 237.460938 302.101562 C 240.980469 302.121094 243.835938 305.011719 243.820312 308.535156 C 243.804688 312.0625 240.921875 314.925781 237.402344 314.910156 C 233.882812 314.894531 231.027344 312.003906 231.042969 308.476562 " fill-opacity="1" fill-rule="evenodd"/></g><g clip-path="url(#id12)"><path fill="rgb(73.329163%, 53.729248%, 42.749023%)" d="M 231.179688 308.476562 C 231.179688 311.945312 233.96875 314.757812 237.402344 314.777344 C 239.070312 314.785156 240.640625 314.136719 241.828125 312.957031 C 243.019531 311.777344 243.675781 310.207031 243.6875 308.535156 L 243.820312 308.507812 L 243.6875 308.507812 C 243.6875 305.066406 240.894531 302.253906 237.460938 302.238281 C 234.015625 302.222656 231.195312 305.019531 231.179688 308.476562 Z M 243.957031 308.507812 L 243.957031 308.535156 C 243.945312 310.277344 243.257812 311.917969 242.019531 313.148438 C 240.777344 314.378906 239.140625 315.054688 237.402344 315.046875 C 233.820312 315.03125 230.910156 312.097656 230.910156 308.507812 C 230.925781 304.871094 233.867188 301.953125 237.464844 301.96875 C 241.042969 301.984375 243.957031 304.917969 243.957031 308.507812 " fill-opacity="1" fill-rule="nonzero"/></g><path fill="rgb(73.329163%, 53.729248%, 42.749023%)" d="M 225.242188 269.191406 C 225.226562 265.667969 222.34375 262.800781 218.824219 262.820312 C 215.304688 262.835938 212.449219 265.726562 212.464844 269.253906 C 212.484375 272.78125 215.367188 275.644531 218.886719 275.625 C 222.402344 275.609375 225.257812 272.71875 225.242188 269.191406 " fill-opacity="1" fill-rule="evenodd"/><path fill="rgb(73.329163%, 53.729248%, 42.749023%)" d="M 212.601562 269.222656 C 212.617188 272.710938 215.4375 275.507812 218.886719 275.492188 C 222.316406 275.476562 225.105469 272.664062 225.105469 269.222656 L 225.242188 269.222656 L 225.105469 269.191406 C 225.089844 265.734375 222.273438 262.9375 218.824219 262.953125 C 215.394531 262.96875 212.601562 265.78125 212.601562 269.222656 Z M 225.378906 269.222656 C 225.378906 272.808594 222.464844 275.746094 218.886719 275.761719 C 215.289062 275.777344 212.347656 272.859375 212.332031 269.253906 C 212.332031 265.632812 215.246094 262.699219 218.824219 262.683594 C 222.421875 262.667969 225.359375 265.585938 225.378906 269.191406 L 225.378906 269.222656 " fill-opacity="1" fill-rule="nonzero"/><path fill="rgb(73.329163%, 53.729248%, 42.749023%)" d="M 169.414062 248.789062 C 169.398438 245.261719 166.515625 242.398438 162.996094 242.414062 C 159.476562 242.433594 156.621094 245.324219 156.636719 248.847656 C 156.652344 252.375 159.539062 255.238281 163.054688 255.222656 C 166.574219 255.207031 169.429688 252.316406 169.414062 248.789062 " fill-opacity="1" fill-rule="evenodd"/><path fill="rgb(73.329163%, 53.729248%, 42.749023%)" d="M 156.773438 248.820312 C 156.789062 252.304688 159.605469 255.105469 163.054688 255.085938 C 166.488281 255.070312 169.277344 252.257812 169.277344 248.820312 L 169.414062 248.820312 L 169.277344 248.789062 C 169.273438 247.121094 168.613281 245.550781 167.421875 244.367188 C 166.234375 243.1875 164.660156 242.542969 162.996094 242.550781 C 159.566406 242.566406 156.773438 245.378906 156.773438 248.820312 Z M 169.546875 248.820312 C 169.546875 252.410156 166.636719 255.339844 163.054688 255.359375 C 159.460938 255.375 156.519531 252.457031 156.503906 248.847656 C 156.503906 245.230469 159.414062 242.296875 162.996094 242.28125 C 164.730469 242.273438 166.371094 242.945312 167.613281 244.175781 C 168.851562 245.40625 169.539062 247.046875 169.546875 248.789062 L 169.546875 248.820312 " fill-opacity="1" fill-rule="nonzero"/><path fill="rgb(73.329163%, 53.729248%, 42.749023%)" d="M 206.566406 248.613281 C 206.550781 245.085938 203.667969 242.222656 200.148438 242.238281 C 196.628906 242.253906 193.773438 245.144531 193.789062 248.671875 C 193.808594 252.199219 196.691406 255.0625 200.210938 255.046875 C 203.730469 255.03125 206.585938 252.140625 206.566406 248.613281 " fill-opacity="1" fill-rule="evenodd"/><path fill="rgb(73.329163%, 53.729248%, 42.749023%)" d="M 193.925781 248.640625 C 193.941406 252.128906 196.761719 254.925781 200.207031 254.910156 C 203.640625 254.894531 206.433594 252.082031 206.433594 248.640625 L 206.566406 248.640625 L 206.433594 248.613281 C 206.417969 245.15625 203.597656 242.355469 200.148438 242.375 C 196.71875 242.390625 193.925781 245.203125 193.925781 248.640625 Z M 206.703125 248.640625 C 206.703125 252.230469 203.789062 255.164062 200.210938 255.179688 C 196.613281 255.199219 193.671875 252.277344 193.65625 248.675781 C 193.65625 245.054688 196.566406 242.121094 200.148438 242.105469 C 203.746094 242.085938 206.683594 245.003906 206.703125 248.613281 L 206.703125 248.640625 " fill-opacity="1" fill-rule="nonzero"/><path fill="rgb(73.329163%, 53.729248%, 42.749023%)" d="M 187.90625 230.578125 C 187.886719 227.054688 185.003906 224.191406 181.488281 224.207031 C 177.96875 224.222656 175.113281 227.113281 175.128906 230.640625 C 175.144531 234.167969 178.027344 237.03125 181.546875 237.015625 C 185.066406 236.996094 187.921875 234.105469 187.90625 230.578125 " fill-opacity="1" fill-rule="evenodd"/><path fill="rgb(73.329163%, 53.729248%, 42.749023%)" d="M 175.261719 230.609375 C 175.28125 234.097656 178.097656 236.894531 181.546875 236.878906 C 184.976562 236.863281 187.769531 234.050781 187.769531 230.609375 L 187.90625 230.609375 L 187.769531 230.578125 C 187.753906 227.125 184.9375 224.324219 181.488281 224.339844 C 178.054688 224.359375 175.261719 227.171875 175.261719 230.609375 Z M 188.039062 230.609375 C 188.039062 234.199219 185.125 237.132812 181.546875 237.148438 C 177.949219 237.164062 175.011719 234.246094 174.992188 230.640625 C 174.992188 227.019531 177.90625 224.089844 181.488281 224.070312 C 185.082031 224.054688 188.023438 226.972656 188.039062 230.578125 L 188.039062 230.609375 " fill-opacity="1" fill-rule="nonzero"/></svg>