<svg xmlns="http://www.w3.org/2000/svg" xmlns:xlink="http://www.w3.org/1999/xlink" width="500" zoomAndPan="magnify" viewBox="0 0 375 374.999991" height="500" preserveAspectRatio="xMidYMid meet" version="1.0"><defs><clipPath id="id1"><path d="M 20.886719 24 L 353.136719 24 L 353.136719 352 L 20.886719 352 Z M 20.886719 24 " clip-rule="nonzero"/></clipPath></defs><g clip-path="url(#id1)"><path fill="rgb(100%, 100%, 100%)" d="M 187.011719 24.507812 C 95.269531 24.507812 20.886719 98.890625 20.886719 190.632812 C 20.886719 268.476562 74.488281 333.613281 146.753906 351.636719 C 145.976562 349.394531 145.480469 346.789062 145.480469 343.566406 L 145.480469 315.171875 C 138.738281 315.171875 127.441406 315.171875 124.601562 315.171875 C 113.238281 315.171875 103.132812 310.285156 98.230469 301.203125 C 92.789062 291.113281 91.847656 275.675781 78.363281 266.234375 C 74.363281 263.089844 77.410156 259.507812 82.019531 259.992188 C 90.535156 262.398438 97.59375 268.242188 104.238281 276.90625 C 110.855469 285.585938 113.972656 287.554688 126.332031 287.554688 C 132.328125 287.554688 141.296875 287.207031 149.742188 285.878906 C 154.285156 274.347656 162.132812 263.726562 171.726562 258.71875 C 116.40625 253.027344 90.007812 225.503906 90.007812 188.140625 C 90.007812 172.054688 96.859375 156.496094 108.503906 143.382812 C 104.683594 130.371094 99.878906 103.832031 109.96875 93.726562 C 134.859375 93.726562 149.910156 109.867188 153.523438 114.230469 C 165.925781 109.980469 179.546875 107.570312 193.863281 107.570312 C 208.207031 107.570312 221.882812 109.980469 234.316406 114.257812 C 237.886719 109.925781 252.949219 93.726562 277.894531 93.726562 C 288.027344 103.847656 283.167969 130.496094 279.308594 143.480469 C 290.878906 156.5625 297.691406 172.082031 297.691406 188.140625 C 297.691406 225.476562 271.332031 252.984375 216.097656 258.703125 C 231.296875 266.636719 242.386719 288.925781 242.386719 305.714844 L 242.386719 343.566406 C 242.386719 345.003906 242.066406 346.042969 241.902344 347.277344 C 306.632812 324.585938 353.136719 263.121094 353.136719 190.632812 C 353.136719 98.890625 278.753906 24.507812 187.011719 24.507812 Z M 187.011719 24.507812 " fill-opacity="1" fill-rule="nonzero"/></g></svg>