<svg xmlns="http://www.w3.org/2000/svg" xmlns:xlink="http://www.w3.org/1999/xlink" width="794" zoomAndPan="magnify" viewBox="0 0 595.5 842.249979" height="1123" preserveAspectRatio="xMidYMid meet" version="1.0"><defs><g><g id="id1"/><g id="id2"/></g></defs><path fill="rgb(21.958923%, 71.369934%, 100%)" d="M 139.476562 143.601562 L 65.097656 143.601562 C 62.832031 143.601562 60.957031 141.730469 60.957031 139.460938 L 60.957031 65.085938 C 60.957031 62.816406 62.832031 60.941406 65.097656 60.941406 L 139.417969 60.941406 C 141.6875 60.941406 143.558594 62.816406 143.558594 65.085938 L 143.558594 139.402344 C 143.617188 141.730469 141.746094 143.601562 139.476562 143.601562 " fill-opacity="1" fill-rule="nonzero"/><path fill="rgb(0%, 29.019165%, 67.83905%)" d="M 139.476562 62.191406 C 141.0625 62.191406 142.367188 63.496094 142.367188 65.085938 L 142.367188 139.460938 C 142.367188 141.050781 141.0625 142.355469 139.476562 142.355469 L 65.097656 142.355469 C 63.511719 142.355469 62.207031 141.050781 62.207031 139.460938 L 62.207031 65.085938 C 62.207031 63.496094 63.511719 62.191406 65.097656 62.191406 L 139.476562 62.191406 M 139.476562 59.523438 L 65.097656 59.523438 C 62.035156 59.523438 59.539062 62.019531 59.539062 65.085938 L 59.539062 139.460938 C 59.539062 142.523438 62.035156 145.019531 65.097656 145.019531 L 139.476562 145.019531 C 142.539062 145.019531 145.035156 142.523438 145.035156 139.460938 L 145.035156 65.085938 C 145.035156 62.019531 142.539062 59.523438 139.476562 59.523438 " fill-opacity="1" fill-rule="nonzero"/><path fill="rgb(21.958923%, 71.369934%, 100%)" d="M 238.929688 143.601562 L 164.554688 143.601562 C 162.285156 143.601562 160.414062 141.730469 160.414062 139.460938 L 160.414062 65.085938 C 160.414062 62.816406 162.285156 60.941406 164.554688 60.941406 L 238.875 60.941406 C 241.144531 60.941406 243.015625 62.816406 243.015625 65.085938 L 243.015625 139.402344 C 243.070312 141.730469 241.199219 143.601562 238.929688 143.601562 " fill-opacity="1" fill-rule="nonzero"/><path fill="rgb(0%, 29.019165%, 67.83905%)" d="M 238.929688 62.191406 C 240.519531 62.191406 241.824219 63.496094 241.824219 65.085938 L 241.824219 139.460938 C 241.824219 141.050781 240.519531 142.355469 238.929688 142.355469 L 164.554688 142.355469 C 162.964844 142.355469 161.660156 141.050781 161.660156 139.460938 L 161.660156 65.085938 C 161.660156 63.496094 162.964844 62.191406 164.554688 62.191406 L 238.929688 62.191406 M 238.929688 59.523438 L 164.554688 59.523438 C 161.492188 59.523438 158.996094 62.019531 158.996094 65.085938 L 158.996094 139.460938 C 158.996094 142.523438 161.492188 145.019531 164.554688 145.019531 L 238.929688 145.019531 C 241.996094 145.019531 244.492188 142.523438 244.492188 139.460938 L 244.492188 65.085938 C 244.492188 62.019531 241.996094 59.523438 238.929688 59.523438 " fill-opacity="1" fill-rule="nonzero"/><path fill="rgb(49.409485%, 85.099792%, 34.118652%)" d="M 439.851562 143.601562 L 365.472656 143.601562 C 363.203125 143.601562 361.332031 141.730469 361.332031 139.460938 L 361.332031 65.085938 C 361.332031 62.816406 363.203125 60.941406 365.472656 60.941406 L 439.792969 60.941406 C 442.0625 60.941406 443.933594 62.816406 443.933594 65.085938 L 443.933594 139.402344 C 443.992188 141.730469 442.121094 143.601562 439.851562 143.601562 " fill-opacity="1" fill-rule="nonzero"/><path fill="rgb(0%, 29.019165%, 67.83905%)" d="M 439.851562 62.191406 C 441.4375 62.191406 442.742188 63.496094 442.742188 65.085938 L 442.742188 139.460938 C 442.742188 141.050781 441.4375 142.355469 439.851562 142.355469 L 365.472656 142.355469 C 363.886719 142.355469 362.582031 141.050781 362.582031 139.460938 L 362.582031 65.085938 C 362.582031 63.496094 363.886719 62.191406 365.472656 62.191406 L 439.851562 62.191406 M 439.851562 59.523438 L 365.472656 59.523438 C 362.410156 59.523438 359.914062 62.019531 359.914062 65.085938 L 359.914062 139.460938 C 359.914062 142.523438 362.410156 145.019531 365.472656 145.019531 L 439.851562 145.019531 C 442.914062 145.019531 445.410156 142.523438 445.410156 139.460938 L 445.410156 65.085938 C 445.410156 62.019531 442.914062 59.523438 439.851562 59.523438 " fill-opacity="1" fill-rule="nonzero"/><path fill="rgb(49.409485%, 85.099792%, 34.118652%)" d="M 339.390625 143.601562 L 265.015625 143.601562 C 262.746094 143.601562 260.871094 141.730469 260.871094 139.460938 L 260.871094 65.085938 C 260.871094 62.816406 262.746094 60.941406 265.015625 60.941406 L 339.332031 60.941406 C 341.601562 60.941406 343.476562 62.816406 343.476562 65.085938 L 343.476562 139.402344 C 343.53125 141.730469 341.660156 143.601562 339.390625 143.601562 " fill-opacity="1" fill-rule="nonzero"/><path fill="rgb(0%, 29.019165%, 67.83905%)" d="M 339.390625 62.191406 C 340.980469 62.191406 342.285156 63.496094 342.285156 65.085938 L 342.285156 139.460938 C 342.285156 141.050781 340.980469 142.355469 339.390625 142.355469 L 265.015625 142.355469 C 263.425781 142.355469 262.121094 141.050781 262.121094 139.460938 L 262.121094 65.085938 C 262.121094 63.496094 263.425781 62.191406 265.015625 62.191406 L 339.390625 62.191406 M 339.390625 59.523438 L 265.015625 59.523438 C 261.949219 59.523438 259.453125 62.019531 259.453125 65.085938 L 259.453125 139.460938 C 259.453125 142.523438 261.949219 145.019531 265.015625 145.019531 L 339.390625 145.019531 C 342.453125 145.019531 344.949219 142.523438 344.949219 139.460938 L 344.949219 65.085938 C 344.949219 62.019531 342.453125 59.523438 339.390625 59.523438 " fill-opacity="1" fill-rule="nonzero"/><path fill="rgb(49.409485%, 85.099792%, 34.118652%)" d="M 540.308594 143.601562 L 465.933594 143.601562 C 463.664062 143.601562 461.792969 141.730469 461.792969 139.460938 L 461.792969 65.085938 C 461.792969 62.816406 463.664062 60.941406 465.933594 60.941406 L 540.253906 60.941406 C 542.523438 60.941406 544.394531 62.816406 544.394531 65.085938 L 544.394531 139.402344 C 544.453125 141.730469 542.578125 143.601562 540.308594 143.601562 " fill-opacity="1" fill-rule="nonzero"/><path fill="rgb(0%, 29.019165%, 67.83905%)" d="M 540.308594 62.191406 C 541.898438 62.191406 543.203125 63.496094 543.203125 65.085938 L 543.203125 139.460938 C 543.203125 141.050781 541.898438 142.355469 540.308594 142.355469 L 465.933594 142.355469 C 464.34375 142.355469 463.039062 141.050781 463.039062 139.460938 L 463.039062 65.085938 C 463.039062 63.496094 464.34375 62.191406 465.933594 62.191406 L 540.308594 62.191406 M 540.308594 59.523438 L 465.933594 59.523438 C 462.871094 59.523438 460.375 62.019531 460.375 65.085938 L 460.375 139.460938 C 460.375 142.523438 462.871094 145.019531 465.933594 145.019531 L 540.308594 145.019531 C 543.375 145.019531 545.871094 142.523438 545.871094 139.460938 L 545.871094 65.085938 C 545.871094 62.019531 543.375 59.523438 540.308594 59.523438 " fill-opacity="1" fill-rule="nonzero"/><g fill="rgb(100%, 100%, 100%)" fill-opacity="1"><g transform="translate(69.51366, 124.058256)"><g><path d="M 25.75 0 L 14.78125 0 L 14.78125 -21.15625 C 14.78125 -23.726562 14.835938 -26.078125 14.953125 -28.203125 C 14.273438 -27.390625 13.4375 -26.535156 12.4375 -25.640625 L 7.90625 -21.890625 L 2.296875 -28.78125 L 16.015625 -39.96875 L 25.75 -39.96875 Z M 25.75 0 "/></g></g></g><g fill="rgb(100%, 100%, 100%)" fill-opacity="1"><g transform="translate(102.319913, 124.058256)"><g><path d="M 31.953125 -7.734375 L 27.5625 -7.734375 L 27.5625 0 L 16.890625 0 L 16.890625 -7.734375 L 0.953125 -7.734375 L 0.953125 -15.65625 L 17.578125 -39.96875 L 27.5625 -39.96875 L 27.5625 -15.796875 L 31.953125 -15.796875 Z M 16.890625 -15.796875 L 16.890625 -20.453125 C 16.890625 -21.328125 16.921875 -22.503906 16.984375 -23.984375 C 17.046875 -25.472656 17.097656 -26.253906 17.140625 -26.328125 L 16.84375 -26.328125 C 16.21875 -24.921875 15.515625 -23.609375 14.734375 -22.390625 L 10.3125 -15.796875 Z M 16.890625 -15.796875 "/></g></g></g><g fill="rgb(100%, 100%, 100%)" fill-opacity="1"><g transform="translate(168.968857, 124.058256)"><g><path d="M 25.75 0 L 14.78125 0 L 14.78125 -21.15625 C 14.78125 -23.726562 14.835938 -26.078125 14.953125 -28.203125 C 14.273438 -27.390625 13.4375 -26.535156 12.4375 -25.640625 L 7.90625 -21.890625 L 2.296875 -28.78125 L 16.015625 -39.96875 L 25.75 -39.96875 Z M 25.75 0 "/></g></g></g><g fill="rgb(100%, 100%, 100%)" fill-opacity="1"><g transform="translate(201.77511, 124.058256)"><g><path d="M 30.828125 -19.921875 C 30.828125 -12.859375 29.644531 -7.679688 27.28125 -4.390625 C 24.914062 -1.097656 21.289062 0.546875 16.40625 0.546875 C 11.625 0.546875 8.019531 -1.171875 5.59375 -4.609375 C 3.175781 -8.046875 1.96875 -13.148438 1.96875 -19.921875 C 1.96875 -27.035156 3.148438 -32.25 5.515625 -35.5625 C 7.890625 -38.882812 11.519531 -40.546875 16.40625 -40.546875 C 21.15625 -40.546875 24.742188 -38.816406 27.171875 -35.359375 C 29.609375 -31.898438 30.828125 -26.753906 30.828125 -19.921875 Z M 12.71875 -19.921875 C 12.71875 -15.410156 13 -12.304688 13.5625 -10.609375 C 14.125 -8.910156 15.070312 -8.0625 16.40625 -8.0625 C 17.75 -8.0625 18.695312 -8.9375 19.25 -10.6875 C 19.8125 -12.4375 20.09375 -15.515625 20.09375 -19.921875 C 20.09375 -24.359375 19.804688 -27.460938 19.234375 -29.234375 C 18.671875 -31.015625 17.726562 -31.90625 16.40625 -31.90625 C 15.070312 -31.90625 14.125 -31.046875 13.5625 -29.328125 C 13 -27.617188 12.71875 -24.484375 12.71875 -19.921875 Z M 12.71875 -19.921875 "/></g></g></g><g fill="rgb(100%, 100%, 100%)" fill-opacity="1"><g transform="translate(369.888469, 124.058256)"><g><path d="M 29.328125 -31.296875 C 29.328125 -28.816406 28.570312 -26.6875 27.0625 -24.90625 C 25.550781 -23.132812 23.363281 -21.847656 20.5 -21.046875 L 20.5 -20.890625 C 27.164062 -20.046875 30.5 -16.890625 30.5 -11.421875 C 30.5 -7.703125 29.023438 -4.773438 26.078125 -2.640625 C 23.140625 -0.515625 19.054688 0.546875 13.828125 0.546875 C 11.679688 0.546875 9.691406 0.390625 7.859375 0.078125 C 6.023438 -0.222656 4.039062 -0.785156 1.90625 -1.609375 L 1.90625 -10.578125 C 3.65625 -9.679688 5.4375 -9.019531 7.25 -8.59375 C 9.070312 -8.164062 10.75 -7.953125 12.28125 -7.953125 C 14.644531 -7.953125 16.367188 -8.285156 17.453125 -8.953125 C 18.535156 -9.617188 19.078125 -10.660156 19.078125 -12.078125 C 19.078125 -13.171875 18.796875 -14.015625 18.234375 -14.609375 C 17.671875 -15.203125 16.757812 -15.648438 15.5 -15.953125 C 14.238281 -16.253906 12.597656 -16.40625 10.578125 -16.40625 L 8.125 -16.40625 L 8.125 -24.515625 L 10.640625 -24.515625 C 16.117188 -24.515625 18.859375 -25.921875 18.859375 -28.734375 C 18.859375 -29.785156 18.453125 -30.566406 17.640625 -31.078125 C 16.828125 -31.585938 15.738281 -31.84375 14.375 -31.84375 C 11.820312 -31.84375 9.179688 -30.988281 6.453125 -29.28125 L 1.96875 -36.5 C 4.082031 -37.957031 6.242188 -38.992188 8.453125 -39.609375 C 10.671875 -40.234375 13.210938 -40.546875 16.078125 -40.546875 C 20.210938 -40.546875 23.453125 -39.722656 25.796875 -38.078125 C 28.148438 -36.441406 29.328125 -34.179688 29.328125 -31.296875 Z M 29.328125 -31.296875 "/></g></g></g><g fill="rgb(100%, 100%, 100%)" fill-opacity="1"><g transform="translate(402.694722, 124.058256)"><g><path d="M 29.328125 -31.296875 C 29.328125 -28.816406 28.570312 -26.6875 27.0625 -24.90625 C 25.550781 -23.132812 23.363281 -21.847656 20.5 -21.046875 L 20.5 -20.890625 C 27.164062 -20.046875 30.5 -16.890625 30.5 -11.421875 C 30.5 -7.703125 29.023438 -4.773438 26.078125 -2.640625 C 23.140625 -0.515625 19.054688 0.546875 13.828125 0.546875 C 11.679688 0.546875 9.691406 0.390625 7.859375 0.078125 C 6.023438 -0.222656 4.039062 -0.785156 1.90625 -1.609375 L 1.90625 -10.578125 C 3.65625 -9.679688 5.4375 -9.019531 7.25 -8.59375 C 9.070312 -8.164062 10.75 -7.953125 12.28125 -7.953125 C 14.644531 -7.953125 16.367188 -8.285156 17.453125 -8.953125 C 18.535156 -9.617188 19.078125 -10.660156 19.078125 -12.078125 C 19.078125 -13.171875 18.796875 -14.015625 18.234375 -14.609375 C 17.671875 -15.203125 16.757812 -15.648438 15.5 -15.953125 C 14.238281 -16.253906 12.597656 -16.40625 10.578125 -16.40625 L 8.125 -16.40625 L 8.125 -24.515625 L 10.640625 -24.515625 C 16.117188 -24.515625 18.859375 -25.921875 18.859375 -28.734375 C 18.859375 -29.785156 18.453125 -30.566406 17.640625 -31.078125 C 16.828125 -31.585938 15.738281 -31.84375 14.375 -31.84375 C 11.820312 -31.84375 9.179688 -30.988281 6.453125 -29.28125 L 1.96875 -36.5 C 4.082031 -37.957031 6.242188 -38.992188 8.453125 -39.609375 C 10.671875 -40.234375 13.210938 -40.546875 16.078125 -40.546875 C 20.210938 -40.546875 23.453125 -39.722656 25.796875 -38.078125 C 28.148438 -36.441406 29.328125 -34.179688 29.328125 -31.296875 Z M 29.328125 -31.296875 "/></g></g></g><g fill="rgb(100%, 100%, 100%)" fill-opacity="1"><g transform="translate(269.428656, 124.058256)"><g><path d="M 30.671875 0 L 1.671875 0 L 1.671875 -7.109375 L 11.421875 -16.96875 C 14.210938 -19.882812 16.035156 -21.875 16.890625 -22.9375 C 17.742188 -24.007812 18.335938 -24.925781 18.671875 -25.6875 C 19.015625 -26.457031 19.1875 -27.257812 19.1875 -28.09375 C 19.1875 -29.132812 18.847656 -29.957031 18.171875 -30.5625 C 17.503906 -31.164062 16.554688 -31.46875 15.328125 -31.46875 C 14.078125 -31.46875 12.804688 -31.101562 11.515625 -30.375 C 10.234375 -29.65625 8.78125 -28.597656 7.15625 -27.203125 L 1.234375 -34.140625 C 3.285156 -35.984375 5.015625 -37.300781 6.421875 -38.09375 C 7.828125 -38.882812 9.351562 -39.488281 11 -39.90625 C 12.65625 -40.332031 14.507812 -40.546875 16.5625 -40.546875 C 19.15625 -40.546875 21.46875 -40.085938 23.5 -39.171875 C 25.53125 -38.265625 27.101562 -36.96875 28.21875 -35.28125 C 29.34375 -33.59375 29.90625 -31.703125 29.90625 -29.609375 C 29.90625 -28.035156 29.707031 -26.582031 29.3125 -25.25 C 28.925781 -23.925781 28.320312 -22.617188 27.5 -21.328125 C 26.675781 -20.046875 25.585938 -18.691406 24.234375 -17.265625 C 22.878906 -15.847656 19.984375 -13.15625 15.546875 -9.1875 L 15.546875 -8.90625 L 30.671875 -8.90625 Z M 30.671875 0 "/></g></g></g><g fill="rgb(100%, 100%, 100%)" fill-opacity="1"><g transform="translate(302.234909, 124.058256)"><g><path d="M 5.71875 0 L 19.4375 -30.96875 L 2.125 -30.96875 L 2.125 -39.90625 L 30.96875 -39.90625 L 30.96875 -33.546875 L 16.890625 0 Z M 5.71875 0 "/></g></g></g><g fill="rgb(100%, 100%, 100%)" fill-opacity="1"><g transform="translate(470.34829, 124.058256)"><g><path d="M 29.328125 -31.296875 C 29.328125 -28.816406 28.570312 -26.6875 27.0625 -24.90625 C 25.550781 -23.132812 23.363281 -21.847656 20.5 -21.046875 L 20.5 -20.890625 C 27.164062 -20.046875 30.5 -16.890625 30.5 -11.421875 C 30.5 -7.703125 29.023438 -4.773438 26.078125 -2.640625 C 23.140625 -0.515625 19.054688 0.546875 13.828125 0.546875 C 11.679688 0.546875 9.691406 0.390625 7.859375 0.078125 C 6.023438 -0.222656 4.039062 -0.785156 1.90625 -1.609375 L 1.90625 -10.578125 C 3.65625 -9.679688 5.4375 -9.019531 7.25 -8.59375 C 9.070312 -8.164062 10.75 -7.953125 12.28125 -7.953125 C 14.644531 -7.953125 16.367188 -8.285156 17.453125 -8.953125 C 18.535156 -9.617188 19.078125 -10.660156 19.078125 -12.078125 C 19.078125 -13.171875 18.796875 -14.015625 18.234375 -14.609375 C 17.671875 -15.203125 16.757812 -15.648438 15.5 -15.953125 C 14.238281 -16.253906 12.597656 -16.40625 10.578125 -16.40625 L 8.125 -16.40625 L 8.125 -24.515625 L 10.640625 -24.515625 C 16.117188 -24.515625 18.859375 -25.921875 18.859375 -28.734375 C 18.859375 -29.785156 18.453125 -30.566406 17.640625 -31.078125 C 16.828125 -31.585938 15.738281 -31.84375 14.375 -31.84375 C 11.820312 -31.84375 9.179688 -30.988281 6.453125 -29.28125 L 1.96875 -36.5 C 4.082031 -37.957031 6.242188 -38.992188 8.453125 -39.609375 C 10.671875 -40.234375 13.210938 -40.546875 16.078125 -40.546875 C 20.210938 -40.546875 23.453125 -39.722656 25.796875 -38.078125 C 28.148438 -36.441406 29.328125 -34.179688 29.328125 -31.296875 Z M 29.328125 -31.296875 "/></g></g></g><g fill="rgb(100%, 100%, 100%)" fill-opacity="1"><g transform="translate(503.154543, 124.058256)"><g><path d="M 18.15625 -26.1875 C 20.445312 -26.1875 22.515625 -25.648438 24.359375 -24.578125 C 26.210938 -23.515625 27.65625 -22.007812 28.6875 -20.0625 C 29.71875 -18.113281 30.234375 -15.863281 30.234375 -13.3125 C 30.234375 -8.84375 28.890625 -5.414062 26.203125 -3.03125 C 23.515625 -0.644531 19.445312 0.546875 14 0.546875 C 9.332031 0.546875 5.519531 -0.171875 2.5625 -1.609375 L 2.5625 -10.46875 C 4.15625 -9.738281 5.945312 -9.132812 7.9375 -8.65625 C 9.9375 -8.1875 11.65625 -7.953125 13.09375 -7.953125 C 15.09375 -7.953125 16.628906 -8.375 17.703125 -9.21875 C 18.785156 -10.070312 19.328125 -11.328125 19.328125 -12.984375 C 19.328125 -14.515625 18.78125 -15.707031 17.6875 -16.5625 C 16.59375 -17.414062 14.9375 -17.84375 12.71875 -17.84375 C 11.019531 -17.84375 9.1875 -17.523438 7.21875 -16.890625 L 3.25 -18.859375 L 4.75 -39.96875 L 27.5625 -39.96875 L 27.5625 -30.96875 L 13.9375 -30.96875 L 13.453125 -25.703125 C 14.867188 -25.972656 15.878906 -26.117188 16.484375 -26.140625 C 17.085938 -26.171875 17.644531 -26.1875 18.15625 -26.1875 Z M 18.15625 -26.1875 "/></g></g></g><g fill="rgb(54.899597%, 32.159424%, 100%)" fill-opacity="1"><g transform="translate(93.176512, 181.900284)"><g><path d="M 16.703125 -11.453125 C 16.703125 -7.503906 16.078125 -4.554688 14.828125 -2.609375 C 13.585938 -0.660156 11.6875 0.3125 9.125 0.3125 C 6.664062 0.3125 4.796875 -0.679688 3.515625 -2.671875 C 2.234375 -4.671875 1.59375 -7.597656 1.59375 -11.453125 C 1.59375 -15.429688 2.210938 -18.382812 3.453125 -20.3125 C 4.691406 -22.238281 6.582031 -23.203125 9.125 -23.203125 C 11.601562 -23.203125 13.484375 -22.195312 14.765625 -20.1875 C 16.054688 -18.175781 16.703125 -15.265625 16.703125 -11.453125 Z M 4.21875 -11.453125 C 4.21875 -8.128906 4.609375 -5.707031 5.390625 -4.1875 C 6.171875 -2.675781 7.414062 -1.921875 9.125 -1.921875 C 10.851562 -1.921875 12.101562 -2.6875 12.875 -4.21875 C 13.65625 -5.757812 14.046875 -8.171875 14.046875 -11.453125 C 14.046875 -14.734375 13.65625 -17.132812 12.875 -18.65625 C 12.101562 -20.1875 10.851562 -20.953125 9.125 -20.953125 C 7.414062 -20.953125 6.171875 -20.195312 5.390625 -18.6875 C 4.609375 -17.1875 4.21875 -14.773438 4.21875 -11.453125 Z M 4.21875 -11.453125 "/></g></g></g><g fill="rgb(54.899597%, 32.159424%, 100%)" fill-opacity="1"><g transform="translate(297.637783, 181.900284)"><g><path d="M 16.578125 0 L 1.5625 0 L 1.5625 -2.234375 L 7.578125 -8.28125 C 9.410156 -10.132812 10.617188 -11.457031 11.203125 -12.25 C 11.785156 -13.039062 12.222656 -13.8125 12.515625 -14.5625 C 12.804688 -15.3125 12.953125 -16.117188 12.953125 -16.984375 C 12.953125 -18.203125 12.582031 -19.164062 11.84375 -19.875 C 11.101562 -20.59375 10.078125 -20.953125 8.765625 -20.953125 C 7.816406 -20.953125 6.914062 -20.796875 6.0625 -20.484375 C 5.21875 -20.171875 4.273438 -19.601562 3.234375 -18.78125 L 1.859375 -20.546875 C 3.960938 -22.296875 6.253906 -23.171875 8.734375 -23.171875 C 10.878906 -23.171875 12.5625 -22.617188 13.78125 -21.515625 C 15 -20.421875 15.609375 -18.945312 15.609375 -17.09375 C 15.609375 -15.644531 15.203125 -14.210938 14.390625 -12.796875 C 13.578125 -11.378906 12.054688 -9.585938 9.828125 -7.421875 L 4.828125 -2.53125 L 4.828125 -2.40625 L 16.578125 -2.40625 Z M 16.578125 0 "/></g></g></g><g fill="rgb(54.899597%, 32.159424%, 100%)" fill-opacity="1"><g transform="translate(192.631714, 181.900284)"><g><path d="M 11.171875 0 L 8.640625 0 L 8.640625 -16.28125 C 8.640625 -17.632812 8.679688 -18.914062 8.765625 -20.125 C 8.546875 -19.90625 8.300781 -19.675781 8.03125 -19.4375 C 7.757812 -19.195312 6.519531 -18.179688 4.3125 -16.390625 L 2.9375 -18.171875 L 8.984375 -22.84375 L 11.171875 -22.84375 Z M 11.171875 0 "/></g></g></g><g fill="rgb(54.899597%, 32.159424%, 100%)" fill-opacity="1"><g transform="translate(397.093023, 181.900284)"><g><path d="M 15.71875 -17.46875 C 15.71875 -16.007812 15.304688 -14.816406 14.484375 -13.890625 C 13.671875 -12.960938 12.515625 -12.34375 11.015625 -12.03125 L 11.015625 -11.90625 C 12.847656 -11.675781 14.207031 -11.09375 15.09375 -10.15625 C 15.976562 -9.21875 16.421875 -7.988281 16.421875 -6.46875 C 16.421875 -4.289062 15.664062 -2.613281 14.15625 -1.4375 C 12.644531 -0.269531 10.5 0.3125 7.71875 0.3125 C 6.507812 0.3125 5.398438 0.21875 4.390625 0.03125 C 3.390625 -0.144531 2.414062 -0.460938 1.46875 -0.921875 L 1.46875 -3.390625 C 2.457031 -2.898438 3.507812 -2.523438 4.625 -2.265625 C 5.75 -2.015625 6.8125 -1.890625 7.8125 -1.890625 C 11.757812 -1.890625 13.734375 -3.4375 13.734375 -6.53125 C 13.734375 -9.300781 11.554688 -10.6875 7.203125 -10.6875 L 4.953125 -10.6875 L 4.953125 -12.921875 L 7.234375 -12.921875 C 9.015625 -12.921875 10.425781 -13.3125 11.46875 -14.09375 C 12.507812 -14.882812 13.03125 -15.976562 13.03125 -17.375 C 13.03125 -18.488281 12.644531 -19.363281 11.875 -20 C 11.113281 -20.632812 10.078125 -20.953125 8.765625 -20.953125 C 7.765625 -20.953125 6.820312 -20.816406 5.9375 -20.546875 C 5.050781 -20.273438 4.039062 -19.773438 2.90625 -19.046875 L 1.59375 -20.796875 C 2.53125 -21.535156 3.609375 -22.113281 4.828125 -22.53125 C 6.054688 -22.957031 7.347656 -23.171875 8.703125 -23.171875 C 10.921875 -23.171875 12.644531 -22.660156 13.875 -21.640625 C 15.101562 -20.628906 15.71875 -19.238281 15.71875 -17.46875 Z M 15.71875 -17.46875 "/></g></g></g><g fill="rgb(54.899597%, 32.159424%, 100%)" fill-opacity="1"><g transform="translate(494.011137, 181.900284)"><g><path d="M 17.65625 -5.25 L 14.265625 -5.25 L 14.265625 0 L 11.78125 0 L 11.78125 -5.25 L 0.671875 -5.25 L 0.671875 -7.515625 L 11.515625 -22.96875 L 14.265625 -22.96875 L 14.265625 -7.609375 L 17.65625 -7.609375 Z M 11.78125 -7.609375 L 11.78125 -15.203125 C 11.78125 -16.691406 11.832031 -18.375 11.9375 -20.25 L 11.8125 -20.25 C 11.3125 -19.25 10.84375 -18.421875 10.40625 -17.765625 L 3.265625 -7.609375 Z M 11.78125 -7.609375 "/></g></g></g></svg>