<?xml version="1.0" encoding="utf-8"?>
<!-- Generator: Adobe Illustrator 25.2.3, SVG Export Plug-In . SVG Version: 6.00 Build 0)  -->
<svg version="1.1" id="Layer_1" xmlns="http://www.w3.org/2000/svg" xmlns:xlink="http://www.w3.org/1999/xlink" x="0px" y="0px"
	 viewBox="0 0 648.4 220.4" style="enable-background:new 0 0 648.4 220.4;" xml:space="preserve">
<style type="text/css">
	.st0{fill:#38B6FF;}
	.st1{fill:#004AAD;}
	.st2{clip-path:url(#SVGID_2_);}
	.st3{fill:#FFFFFF;}
	.st4{fill:#8C52FF;}
</style>
<path class="st0" d="M106.6,168.9H7.4c-3,0-5.5-2.5-5.5-5.5V64.2c0-3,2.5-5.5,5.5-5.5h99.1c3,0,5.5,2.5,5.5,5.5v99.1
	C112.1,166.4,109.6,168.9,106.6,168.9"/>
<path class="st1" d="M106.6,60.4c2.1,0,3.9,1.7,3.9,3.9v99.2c0,2.1-1.7,3.9-3.9,3.9H7.4c-2.1,0-3.9-1.7-3.9-3.9V64.2
	c0-2.1,1.7-3.9,3.9-3.9H106.6 M106.6,56.8H7.4c-4.1,0-7.4,3.3-7.4,7.4v99.2c0,4.1,3.3,7.4,7.4,7.4h99.2c4.1,0,7.4-3.3,7.4-7.4V64.2
	C114,60.1,110.7,56.8,106.6,56.8"/>
<path class="st0" d="M239.2,168.9H140c-3,0-5.5-2.5-5.5-5.5V64.2c0-3,2.5-5.5,5.5-5.5h99.1c3,0,5.5,2.5,5.5,5.5v99.1
	C244.7,166.4,242.2,168.9,239.2,168.9"/>
<path class="st1" d="M239.2,60.4c2.1,0,3.9,1.7,3.9,3.9v99.2c0,2.1-1.7,3.9-3.9,3.9H140c-2.1,0-3.9-1.7-3.9-3.9V64.2
	c0-2.1,1.7-3.9,3.9-3.9H239.2 M239.2,56.8H140c-4.1,0-7.4,3.3-7.4,7.4v99.2c0,4.1,3.3,7.4,7.4,7.4h99.2c4.1,0,7.4-3.3,7.4-7.4V64.2
	C246.6,60.1,243.3,56.8,239.2,56.8"/>
<path class="st0" d="M507.1,168.9h-99.2c-3,0-5.5-2.5-5.5-5.5V64.2c0-3,2.5-5.5,5.5-5.5H507c3,0,5.5,2.5,5.5,5.5v99.1
	C512.6,166.4,510.1,168.9,507.1,168.9"/>
<path class="st1" d="M507.1,60.4c2.1,0,3.9,1.7,3.9,3.9v99.2c0,2.1-1.7,3.9-3.9,3.9h-99.2c-2.1,0-3.9-1.7-3.9-3.9V64.2
	c0-2.1,1.7-3.9,3.9-3.9H507.1 M507.1,56.8h-99.2c-4.1,0-7.4,3.3-7.4,7.4v99.2c0,4.1,3.3,7.4,7.4,7.4h99.2c4.1,0,7.4-3.3,7.4-7.4
	V64.2C514.5,60.1,511.2,56.8,507.1,56.8"/>
<path class="st0" d="M373.1,168.9H274c-3,0-5.5-2.5-5.5-5.5V64.2c0-3,2.5-5.5,5.5-5.5h99.1c3,0,5.5,2.5,5.5,5.5v99.1
	C378.7,166.4,376.2,168.9,373.1,168.9"/>
<path class="st1" d="M373.1,60.4c2.1,0,3.9,1.7,3.9,3.9v99.2c0,2.1-1.7,3.9-3.9,3.9H274c-2.1,0-3.9-1.7-3.9-3.9V64.2
	c0-2.1,1.7-3.9,3.9-3.9H373.1 M373.1,56.8H274c-4.1,0-7.4,3.3-7.4,7.4v99.2c0,4.1,3.3,7.4,7.4,7.4h99.2c4.1,0,7.4-3.3,7.4-7.4V64.2
	C380.5,60.1,377.2,56.8,373.1,56.8"/>
<path class="st0" d="M641,168.9h-99.2c-3,0-5.5-2.5-5.5-5.5V64.2c0-3,2.5-5.5,5.5-5.5H641c3,0,5.5,2.5,5.5,5.5v99.1
	C646.6,166.4,644.1,168.9,641,168.9"/>
<path class="st1" d="M641,60.4c2.1,0,3.9,1.7,3.9,3.9v99.2c0,2.1-1.7,3.9-3.9,3.9h-99.2c-2.1,0-3.9-1.7-3.9-3.9V64.2
	c0-2.1,1.7-3.9,3.9-3.9H641 M641,56.8h-99.2c-4.1,0-7.4,3.3-7.4,7.4v99.2c0,4.1,3.3,7.4,7.4,7.4H641c4.1,0,7.4-3.3,7.4-7.4V64.2
	C648.4,60.1,645.1,56.8,641,56.8"/>
<g>
	<defs>
		<rect id="SVGID_1_" x="450.1" width="135.9" height="49"/>
	</defs>
	<clipPath id="SVGID_2_">
		<use xlink:href="#SVGID_1_"  style="overflow:visible;"/>
	</clipPath>
	<g class="st2">
		<path class="st0" d="M452.3,43c-2.1-1.4-1.6-3.1-1.1-4.7c1.5-4.4,3.8-8.4,7.2-11.7c10.9-10.4,23.9-17.1,38.4-20.9
			c14.8-3.8,29.5-3,43.6,3.1c6.7,2.9,13.2,6.1,20,9.3c-0.2-0.7-0.5-1.7-0.9-2.6c-2.6-6.1-2.4-7.6,2.3-12.4c1-1.1,2.3-2,3.7-3.2
			c0.8,1.3,1.4,2.1,1.9,3.1c5.7,9.9,11.2,19.9,17.1,29.6c1.4,2.4,1.3,4.2,0.4,6.2c-1.9,4-5.3,6.9-8.8,9.4c-1.2,0.9-3.5,0.6-5.2,0.3
			c-12.7-1.9-25.4-2.6-38.1-1.5c-4,0.3-7.9,1.3-12.2,2c-0.5-1.3,0.3-2.7,1.1-3.9c3.5-5.6,7.8-10.3,14.9-11.3c3.3-0.5,6.6-1,10-1.4
			c1.5-0.2,3-0.2,4.8-0.4c-6.8-7.4-36.7-14.6-51.8-12.6C481.1,21.8,465.4,30,452.3,43z"/>
	</g>
</g>
<g>
	<g transform="translate(69.51366, 124.058256)">
		<g>
			<path class="st3" d="M-21.9,18.8h-14.6V-9.4c0-3.4,0.1-6.6,0.2-9.4c-0.9,1.1-2,2.2-3.4,3.4l-6,5l-7.5-9.2l18.3-14.9h13V18.8z"/>
		</g>
	</g>
</g>
<g>
	<g transform="translate(102.319913, 124.058256)">
		<g>
			<path class="st3" d="M-2.7,8.5h-5.9v10.3h-14.2V8.5H-44V-2.1l22.2-32.4h13.3v32.2h5.9V8.5z M-22.8-2.3v-6.2c0-1.2,0-2.7,0.1-4.7
				c0.1-2,0.2-3,0.2-3.1h-0.4c-0.8,1.9-1.8,3.6-2.8,5.3l-5.9,8.8H-22.8z"/>
		</g>
	</g>
</g>
<g>
	<g transform="translate(168.968857, 124.058256)">
		<g>
			<path class="st3" d="M17.8,18.8h-38.7V9.3l13-13.1c3.7-3.9,6.2-6.5,7.3-8c1.1-1.4,1.9-2.7,2.4-3.7c0.5-1,0.7-2.1,0.7-3.2
				c0-1.4-0.5-2.5-1.4-3.3c-0.9-0.8-2.2-1.2-3.8-1.2c-1.7,0-3.4,0.5-5.1,1.5c-1.7,1-3.6,2.4-5.8,4.2l-7.9-9.2c2.7-2.5,5-4.2,6.9-5.3
				c1.9-1.1,3.9-1.9,6.1-2.4c2.2-0.6,4.7-0.9,7.4-0.9c3.5,0,6.5,0.6,9.2,1.8c2.7,1.2,4.8,2.9,6.3,5.2c1.5,2.2,2.2,4.8,2.2,7.6
				c0,2.1-0.3,4-0.8,5.8c-0.5,1.8-1.3,3.5-2.4,5.2c-1.1,1.7-2.6,3.5-4.4,5.4C7.4-2.3,3.6,1.3-2.3,6.6v0.4h20.2V18.8z"/>
		</g>
	</g>
</g>
<g>
	<g transform="translate(201.77511, 124.058256)">
		<g>
			<path class="st3" d="M-4.5,18.8l18.3-41.3H-9.3v-11.9h38.5v8.5L10.4,18.8H-4.5z"/>
		</g>
	</g>
</g>
<g>
	<g transform="translate(369.888469, 124.058256)">
		<g>
			<path class="st3" d="M83-22.9c0,3.3-1,6.1-3,8.5c-2,2.4-4.9,4.1-8.8,5.1V-9c8.9,1.1,13.3,5.3,13.3,12.6c0,5-2,8.9-5.9,11.7
				c-3.9,2.8-9.4,4.3-16.3,4.3c-2.9,0-5.5-0.2-8-0.6c-2.4-0.4-5.1-1.2-7.9-2.2v-12c2.3,1.2,4.7,2.1,7.1,2.6c2.4,0.6,4.7,0.9,6.7,0.9
				c3.2,0,5.4-0.4,6.9-1.3c1.4-0.9,2.2-2.3,2.2-4.2c0-1.5-0.4-2.6-1.1-3.4s-2-1.4-3.6-1.8c-1.7-0.4-3.9-0.6-6.6-0.6h-3.3v-10.8h3.4
				c7.3,0,11-1.9,11-5.6c0-1.4-0.5-2.4-1.6-3.1c-1.1-0.7-2.5-1-4.4-1c-3.4,0-6.9,1.1-10.6,3.4l-6-9.6c2.8-1.9,5.7-3.3,8.6-4.1
				c3-0.8,6.3-1.2,10.2-1.2c5.5,0,9.8,1.1,13,3.3C81.4-29.8,83-26.8,83-22.9z"/>
		</g>
	</g>
</g>
<g>
	<g transform="translate(402.694722, 124.058256)">
		<g>
			<path class="st3" d="M79.1-16.1c3.1,0,5.8,0.7,8.3,2.1c2.5,1.4,4.4,3.4,5.8,6c1.4,2.6,2.1,5.6,2.1,9c0,6-1.8,10.5-5.4,13.7
				c-3.6,3.2-9,4.8-16.3,4.8c-6.2,0-11.3-1-15.2-2.9V4.8c2.1,1,4.5,1.8,7.2,2.4c2.7,0.6,5,0.9,6.9,0.9c2.7,0,4.7-0.6,6.1-1.7
				c1.4-1.1,2.2-2.8,2.2-5c0-2-0.7-3.6-2.2-4.8C77-4.4,74.8-5,71.8-5c-2.3,0-4.7,0.4-7.3,1.3l-5.3-2.6l2-28.1h30.4v12H73.4l-0.6,7
				c1.9-0.4,3.2-0.6,4-0.6C77.6-16.1,78.4-16.1,79.1-16.1z"/>
		</g>
	</g>
</g>
<g>
	<g transform="translate(269.428656, 124.058256)">
		<g>
			<path class="st3" d="M49.5-22.9c0,3.3-1,6.1-3,8.5c-2,2.4-4.9,4.1-8.8,5.1V-9c8.9,1.1,13.3,5.3,13.3,12.6c0,5-2,8.9-5.9,11.7
				c-3.9,2.8-9.4,4.3-16.3,4.3c-2.9,0-5.5-0.2-8-0.6c-2.4-0.4-5.1-1.2-7.9-2.2v-12c2.3,1.2,4.7,2.1,7.1,2.6c2.4,0.6,4.7,0.9,6.7,0.9
				c3.2,0,5.4-0.4,6.9-1.3c1.4-0.9,2.2-2.3,2.2-4.2c0-1.5-0.4-2.6-1.1-3.4s-2-1.4-3.6-1.8c-1.7-0.4-3.9-0.6-6.6-0.6h-3.3v-10.8h3.4
				c7.3,0,11-1.9,11-5.6c0-1.4-0.5-2.4-1.6-3.1c-1.1-0.7-2.5-1-4.4-1c-3.4,0-6.9,1.1-10.6,3.4l-6-9.6c2.8-1.9,5.7-3.3,8.6-4.1
				c3-0.8,6.3-1.2,10.2-1.2c5.5,0,9.8,1.1,13,3.3C48-29.8,49.5-26.8,49.5-22.9z"/>
		</g>
	</g>
</g>
<g>
	<g transform="translate(302.234909, 124.058256)">
		<g>
			<path class="st3" d="M60.5-22.9c0,3.3-1,6.1-3,8.5c-2,2.4-4.9,4.1-8.8,5.1V-9C57.6-7.9,62-3.7,62,3.6c0,5-2,8.9-5.9,11.7
				c-3.9,2.8-9.4,4.3-16.3,4.3c-2.9,0-5.5-0.2-8-0.6c-2.4-0.4-5.1-1.2-7.9-2.2v-12c2.3,1.2,4.7,2.1,7.1,2.6c2.4,0.6,4.7,0.9,6.7,0.9
				c3.2,0,5.4-0.4,6.9-1.3c1.4-0.9,2.2-2.3,2.2-4.2c0-1.5-0.4-2.6-1.1-3.4s-2-1.4-3.6-1.8c-1.7-0.4-3.9-0.6-6.6-0.6h-3.3v-10.8h3.4
				c7.3,0,11-1.9,11-5.6c0-1.4-0.5-2.4-1.6-3.1c-1.1-0.7-2.5-1-4.4-1c-3.4,0-6.9,1.1-10.6,3.4l-6-9.6c2.8-1.9,5.7-3.3,8.6-4.1
				c3-0.8,6.3-1.2,10.2-1.2c5.5,0,9.8,1.1,13,3.3C58.9-29.8,60.5-26.8,60.5-22.9z"/>
		</g>
	</g>
</g>
<g>
	<g transform="translate(470.34829, 124.058256)">
		<g>
			<path class="st3" d="M111.7,18.8H97.1V-9.4c0-3.4,0.1-6.6,0.2-9.4c-0.9,1.1-2,2.2-3.4,3.4l-6,5l-7.5-9.2l18.3-14.9h13V18.8z"/>
		</g>
	</g>
</g>
<g>
	<g transform="translate(503.154543, 124.058256)">
		<g>
			<path class="st3" d="M129.4-7.8c0,9.4-1.6,16.3-4.7,20.7c-3.2,4.4-8,6.6-14.5,6.6c-6.4,0-11.2-2.3-14.4-6.9
				C92.6,8.1,91,1.3,91-7.8c0-9.5,1.6-16.4,4.7-20.9c3.2-4.4,8-6.6,14.5-6.6c6.3,0,11.1,2.3,14.4,6.9
				C127.8-23.7,129.4-16.9,129.4-7.8z M105.3-7.8c0,6,0.4,10.2,1.1,12.4c0.8,2.3,2,3.4,3.8,3.4c1.8,0,3.1-1.2,3.8-3.5
				c0.8-2.3,1.1-6.4,1.1-12.3c0-5.9-0.4-10.1-1.1-12.4c-0.8-2.4-2-3.6-3.8-3.6c-1.8,0-3,1.1-3.8,3.4C105.7-18,105.3-13.8,105.3-7.8z
				"/>
		</g>
	</g>
</g>
<g>
	<g transform="translate(93.176512, 181.900284)">
		<g>
			<path class="st4" d="M-26.1,22.8c0,5.3-0.8,9.2-2.5,11.8c-1.7,2.6-4.2,3.9-7.6,3.9c-3.3,0-5.8-1.3-7.5-4
				c-1.7-2.7-2.6-6.6-2.6-11.7c0-5.3,0.8-9.2,2.5-11.8c1.7-2.6,4.2-3.9,7.6-3.9c3.3,0,5.8,1.3,7.5,4C-26.9,13.9-26.1,17.7-26.1,22.8
				z M-42.7,22.8c0,4.4,0.5,7.7,1.6,9.7c1,2,2.7,3,5,3c2.3,0,4-1,5-3.1c1-2.1,1.6-5.3,1.6-9.6s-0.5-7.6-1.6-9.6c-1-2-2.7-3.1-5-3.1
				c-2.3,0-3.9,1-5,3C-42.2,15.2-42.7,18.4-42.7,22.8z"/>
		</g>
	</g>
</g>
<g>
	<g transform="translate(297.637783, 181.900284)">
		<g>
			<path class="st4" d="M41.9,38.1h-20v-3l8-8.1c2.4-2.5,4.1-4.2,4.8-5.3c0.8-1.1,1.4-2.1,1.8-3.1c0.4-1,0.6-2.1,0.6-3.2
				c0-1.6-0.5-2.9-1.5-3.9c-1-1-2.4-1.4-4.1-1.4c-1.3,0-2.5,0.2-3.6,0.6c-1.1,0.4-2.4,1.2-3.8,2.3l-1.8-2.4c2.8-2.3,5.9-3.5,9.2-3.5
				c2.9,0,5.1,0.7,6.7,2.2c1.6,1.5,2.4,3.4,2.4,5.9c0,1.9-0.5,3.8-1.6,5.7c-1.1,1.9-3.1,4.3-6.1,7.2l-6.7,6.5v0.2h15.7V38.1z"/>
		</g>
	</g>
</g>
<g>
	<g transform="translate(192.631714, 181.900284)">
		<g>
			<path class="st4" d="M-0.3,38.1h-3.4V16.4c0-1.8,0.1-3.5,0.2-5.1c-0.3,0.3-0.6,0.6-1,0.9c-0.4,0.3-2,1.7-5,4.1l-1.8-2.4l8.1-6.2
				h2.9V38.1z"/>
		</g>
	</g>
</g>
<g>
	<g transform="translate(397.093023, 181.900284)">
		<g>
			<path class="st4" d="M73.9,14.8c0,1.9-0.6,3.5-1.6,4.8c-1.1,1.2-2.6,2.1-4.6,2.5v0.2c2.4,0.3,4.3,1.1,5.4,2.3
				c1.2,1.2,1.8,2.9,1.8,4.9c0,2.9-1,5.1-3,6.7c-2,1.6-4.9,2.3-8.6,2.3c-1.6,0-3.1-0.1-4.4-0.4c-1.3-0.2-2.6-0.7-3.9-1.3v-3.3
				c1.3,0.7,2.7,1.2,4.2,1.5c1.5,0.3,2.9,0.5,4.2,0.5c5.3,0,7.9-2.1,7.9-6.2c0-3.7-2.9-5.5-8.7-5.5h-3v-3h3c2.4,0,4.3-0.5,5.6-1.6
				c1.4-1.1,2.1-2.5,2.1-4.4c0-1.5-0.5-2.7-1.5-3.5c-1-0.8-2.4-1.3-4.1-1.3c-1.3,0-2.6,0.2-3.8,0.5c-1.2,0.4-2.5,1-4,2l-1.8-2.3
				c1.2-1,2.7-1.8,4.3-2.3c1.6-0.6,3.4-0.9,5.2-0.9c3,0,5.3,0.7,6.9,2C73.1,10.6,73.9,12.4,73.9,14.8z"/>
		</g>
	</g>
</g>
<g>
	<g transform="translate(494.011137, 181.900284)">
		<g>
			<path class="st4" d="M108.8,31.1h-4.5v7H101v-7H86.2v-3l14.5-20.6h3.7v20.5h4.5V31.1z M101,27.9V17.8c0-2,0.1-4.2,0.2-6.7H101
				c-0.7,1.3-1.3,2.4-1.9,3.3l-9.5,13.5H101z"/>
		</g>
	</g>
</g>
</svg>
