<?xml version="1.0" encoding="utf-8"?>
<!-- Generator: Adobe Illustrator 25.2.3, SVG Export Plug-In . SVG Version: 6.00 Build 0)  -->
<svg version="1.1" id="Layer_1" xmlns="http://www.w3.org/2000/svg" xmlns:xlink="http://www.w3.org/1999/xlink" x="0px" y="0px"
	 viewBox="0 0 648.4 219.7" style="enable-background:new 0 0 648.4 219.7;" xml:space="preserve">
<style type="text/css">
	.st0{fill:#38B6FF;}
	.st1{fill:#004AAD;}
	.st2{fill:#7ED957;}
	.st3{clip-path:url(#SVGID_2_);}
	.st4{fill:#FFFFFF;}
	.st5{fill:#8C52FF;}
</style>
<path class="st0" d="M106.6,168.2H7.4c-3,0-5.5-2.5-5.5-5.5V63.5c0-3,2.5-5.5,5.5-5.5h99.1c3,0,5.5,2.5,5.5,5.5v99.1
	C112.1,165.7,109.6,168.2,106.6,168.2"/>
<path class="st1" d="M106.6,59.6c2.1,0,3.9,1.7,3.9,3.9v99.2c0,2.1-1.7,3.9-3.9,3.9H7.4c-2.1,0-3.9-1.7-3.9-3.9V63.5
	c0-2.1,1.7-3.9,3.9-3.9H106.6 M106.6,56.1H7.4c-4.1,0-7.4,3.3-7.4,7.4v99.2c0,4.1,3.3,7.4,7.4,7.4h99.2c4.1,0,7.4-3.3,7.4-7.4V63.5
	C114,59.4,110.7,56.1,106.6,56.1"/>
<path class="st0" d="M239.2,168.2H140c-3,0-5.5-2.5-5.5-5.5V63.5c0-3,2.5-5.5,5.5-5.5h99.1c3,0,5.5,2.5,5.5,5.5v99.1
	C244.7,165.7,242.2,168.2,239.2,168.2"/>
<path class="st1" d="M239.2,59.6c2.1,0,3.9,1.7,3.9,3.9v99.2c0,2.1-1.7,3.9-3.9,3.9H140c-2.1,0-3.9-1.7-3.9-3.9V63.5
	c0-2.1,1.7-3.9,3.9-3.9H239.2 M239.2,56.1H140c-4.1,0-7.4,3.3-7.4,7.4v99.2c0,4.1,3.3,7.4,7.4,7.4h99.2c4.1,0,7.4-3.3,7.4-7.4V63.5
	C246.6,59.4,243.3,56.1,239.2,56.1"/>
<path class="st0" d="M507.1,168.2h-99.2c-3,0-5.5-2.5-5.5-5.5V63.5c0-3,2.5-5.5,5.5-5.5H507c3,0,5.5,2.5,5.5,5.5v99.1
	C512.6,165.7,510.1,168.2,507.1,168.2"/>
<path class="st1" d="M507.1,59.6c2.1,0,3.9,1.7,3.9,3.9v99.2c0,2.1-1.7,3.9-3.9,3.9h-99.2c-2.1,0-3.9-1.7-3.9-3.9V63.5
	c0-2.1,1.7-3.9,3.9-3.9H507.1 M507.1,56.1h-99.2c-4.1,0-7.4,3.3-7.4,7.4v99.2c0,4.1,3.3,7.4,7.4,7.4h99.2c4.1,0,7.4-3.3,7.4-7.4
	V63.5C514.5,59.4,511.2,56.1,507.1,56.1"/>
<path class="st0" d="M373.1,168.2H274c-3,0-5.5-2.5-5.5-5.5V63.5c0-3,2.5-5.5,5.5-5.5h99.1c3,0,5.5,2.5,5.5,5.5v99.1
	C378.7,165.7,376.2,168.2,373.1,168.2"/>
<path class="st1" d="M373.1,59.6c2.1,0,3.9,1.7,3.9,3.9v99.2c0,2.1-1.7,3.9-3.9,3.9H274c-2.1,0-3.9-1.7-3.9-3.9V63.5
	c0-2.1,1.7-3.9,3.9-3.9H373.1 M373.1,56.1H274c-4.1,0-7.4,3.3-7.4,7.4v99.2c0,4.1,3.3,7.4,7.4,7.4h99.2c4.1,0,7.4-3.3,7.4-7.4V63.5
	C380.5,59.4,377.2,56.1,373.1,56.1"/>
<path class="st2" d="M641,168.2h-99.2c-3,0-5.5-2.5-5.5-5.5V63.5c0-3,2.5-5.5,5.5-5.5H641c3,0,5.5,2.5,5.5,5.5v99.1
	C646.6,165.7,644.1,168.2,641,168.2"/>
<path class="st1" d="M641,59.6c2.1,0,3.9,1.7,3.9,3.9v99.2c0,2.1-1.7,3.9-3.9,3.9h-99.2c-2.1,0-3.9-1.7-3.9-3.9V63.5
	c0-2.1,1.7-3.9,3.9-3.9H641 M641,56.1h-99.2c-4.1,0-7.4,3.3-7.4,7.4v99.2c0,4.1,3.3,7.4,7.4,7.4H641c4.1,0,7.4-3.3,7.4-7.4V63.5
	C648.4,59.4,645.1,56.1,641,56.1"/>
<g>
	<defs>
		<rect id="SVGID_1_" x="317.9" width="138.5" height="50"/>
	</defs>
	<clipPath id="SVGID_2_">
		<use xlink:href="#SVGID_1_"  style="overflow:visible;"/>
	</clipPath>
	<g class="st3">
		<path class="st0" d="M319.8,43.8c-2.1-1.4-1.7-3.2-1.1-4.8c1.6-4.5,3.9-8.6,7.4-11.9c11.2-10.6,24.4-17.5,39.2-21.3
			c15.1-3.9,30.1-3.1,44.5,3.2c6.8,2.9,13.4,6.3,20.4,9.5c-0.3-0.8-0.5-1.7-0.9-2.6c-2.6-6.2-2.4-7.7,2.3-12.6
			c1.1-1.1,2.3-2,3.8-3.3c0.8,1.3,1.4,2.2,1.9,3.1c5.8,10.1,11.4,20.3,17.5,30.2c1.5,2.4,1.3,4.3,0.4,6.3c-2,4.1-5.4,7-9,9.6
			c-1.2,0.9-3.6,0.6-5.3,0.3C428,47.6,415,46.9,402,48c-4.1,0.3-8.1,1.3-12.4,2c-0.5-1.3,0.3-2.8,1.1-4c3.6-5.8,8-10.5,15.2-11.6
			c3.4-0.5,6.8-1,10.2-1.4c1.5-0.2,3-0.2,4.9-0.4C414,25,383.5,17.7,368,19.8C349.2,22.2,333.2,30.6,319.8,43.8z"/>
	</g>
</g>
<g>
	<g transform="translate(69.51366, 124.058256)">
		<g>
			<path class="st4" d="M-21.9,18.1h-14.6v-28.2c0-3.4,0.1-6.6,0.2-9.4c-0.9,1.1-2,2.2-3.4,3.4l-6,5l-7.5-9.2l18.3-14.9h13V18.1z"/>
		</g>
	</g>
</g>
<g>
	<g transform="translate(102.319913, 124.058256)">
		<g>
			<path class="st4" d="M-2.7,7.8h-5.9v10.3h-14.2V7.8H-44V-2.8l22.2-32.4h13.3V-3h5.9V7.8z M-22.8-3v-6.2c0-1.2,0-2.7,0.1-4.7
				c0.1-2,0.2-3,0.2-3.1h-0.4c-0.8,1.9-1.8,3.6-2.8,5.2L-31.5-3H-22.8z"/>
		</g>
	</g>
</g>
<g>
	<g transform="translate(168.968857, 124.058256)">
		<g>
			<path class="st4" d="M17.8,18.1h-38.7V8.6l13-13.1c3.7-3.9,6.2-6.5,7.3-8c1.1-1.4,1.9-2.7,2.4-3.7c0.5-1,0.7-2.1,0.7-3.2
				c0-1.4-0.5-2.5-1.4-3.3c-0.9-0.8-2.2-1.2-3.8-1.2c-1.7,0-3.4,0.5-5.1,1.5c-1.7,1-3.6,2.4-5.8,4.2l-7.9-9.2c2.7-2.5,5-4.2,6.9-5.3
				c1.9-1.1,3.9-1.9,6.1-2.4C-6.2-35.7-3.7-36-1-36c3.5,0,6.5,0.6,9.2,1.8c2.7,1.2,4.8,2.9,6.3,5.2c1.5,2.2,2.2,4.8,2.2,7.6
				c0,2.1-0.3,4-0.8,5.8c-0.5,1.8-1.3,3.5-2.4,5.2C12.5-8.7,11.1-6.9,9.3-5C7.4-3.1,3.6,0.5-2.3,5.8v0.4h20.2V18.1z"/>
		</g>
	</g>
</g>
<g>
	<g transform="translate(201.77511, 124.058256)">
		<g>
			<path class="st4" d="M-4.5,18.1l18.3-41.3H-9.3v-11.9h38.5v8.5L10.4,18.1H-4.5z"/>
		</g>
	</g>
</g>
<g>
	<g transform="translate(369.888469, 124.058256)">
		<g>
			<path class="st4" d="M78.2,18.1H63.6v-28.2c0-3.4,0.1-6.6,0.2-9.4c-0.9,1.1-2,2.2-3.4,3.4l-6,5L47-20.3l18.3-14.9h13V18.1z"/>
		</g>
	</g>
</g>
<g>
	<g transform="translate(402.694722, 124.058256)">
		<g>
			<path class="st4" d="M96-8.5c0,9.4-1.6,16.3-4.7,20.7c-3.2,4.4-8,6.6-14.5,6.6c-6.4,0-11.2-2.3-14.4-6.9
				c-3.2-4.6-4.8-11.4-4.8-20.4c0-9.5,1.6-16.4,4.7-20.9c3.2-4.4,8-6.6,14.5-6.6c6.3,0,11.1,2.3,14.4,6.9C94.3-24.5,96-17.6,96-8.5z
				 M71.8-8.5c0,6,0.4,10.2,1.1,12.4c0.8,2.3,2,3.4,3.8,3.4c1.8,0,3.1-1.2,3.8-3.5c0.8-2.3,1.1-6.4,1.1-12.3
				c0-5.9-0.4-10.1-1.1-12.4c-0.8-2.4-2-3.6-3.8-3.6c-1.8,0-3,1.1-3.8,3.4C72.2-18.8,71.8-14.6,71.8-8.5z"/>
		</g>
	</g>
</g>
<g>
	<g transform="translate(269.428656, 124.058256)">
		<g>
			<path class="st4" d="M49.5-23.7c0,3.3-1,6.1-3,8.5c-2,2.4-4.9,4.1-8.8,5.1v0.2c8.9,1.1,13.3,5.3,13.3,12.6c0,5-2,8.9-5.9,11.7
				c-3.9,2.8-9.4,4.2-16.3,4.2c-2.9,0-5.5-0.2-8-0.6c-2.4-0.4-5.1-1.2-7.9-2.2V4c2.3,1.2,4.7,2.1,7.1,2.6c2.4,0.6,4.7,0.9,6.7,0.9
				c3.2,0,5.4-0.4,6.9-1.3c1.4-0.9,2.2-2.3,2.2-4.2c0-1.5-0.4-2.6-1.1-3.4s-2-1.4-3.6-1.8c-1.7-0.4-3.9-0.6-6.6-0.6h-3.3v-10.8h3.4
				c7.3,0,11-1.9,11-5.6c0-1.4-0.5-2.4-1.6-3.1c-1.1-0.7-2.5-1-4.4-1c-3.4,0-6.9,1.1-10.6,3.4l-6-9.6c2.8-1.9,5.7-3.3,8.6-4.1
				c3-0.8,6.3-1.2,10.2-1.2c5.5,0,9.8,1.1,13,3.3C48-30.5,49.5-27.5,49.5-23.7z"/>
		</g>
	</g>
</g>
<g>
	<g transform="translate(302.234909, 124.058256)">
		<g>
			<path class="st4" d="M60.5-23.7c0,3.3-1,6.1-3,8.5c-2,2.4-4.9,4.1-8.8,5.1v0.2C57.6-8.7,62-4.5,62,2.8c0,5-2,8.9-5.9,11.7
				c-3.9,2.8-9.4,4.2-16.3,4.2c-2.9,0-5.5-0.2-8-0.6c-2.4-0.4-5.1-1.2-7.9-2.2V4C26.2,5.2,28.6,6,31,6.6c2.4,0.6,4.7,0.9,6.7,0.9
				c3.2,0,5.4-0.4,6.9-1.3c1.4-0.9,2.2-2.3,2.2-4.2c0-1.5-0.4-2.6-1.1-3.4s-2-1.4-3.6-1.8c-1.7-0.4-3.9-0.6-6.6-0.6h-3.3v-10.8h3.4
				c7.3,0,11-1.9,11-5.6c0-1.4-0.5-2.4-1.6-3.1c-1.1-0.7-2.5-1-4.4-1c-3.4,0-6.9,1.1-10.6,3.4l-6-9.6c2.8-1.9,5.7-3.3,8.6-4.1
				c3-0.8,6.3-1.2,10.2-1.2c5.5,0,9.8,1.1,13,3.3C58.9-30.5,60.5-27.5,60.5-23.7z"/>
		</g>
	</g>
</g>
<g>
	<g transform="translate(470.34829, 124.058256)">
		<g>
			<path class="st4" d="M116.5-23.7c0,3.3-1,6.1-3,8.5c-2,2.4-4.9,4.1-8.8,5.1v0.2c8.9,1.1,13.3,5.3,13.3,12.6c0,5-2,8.9-5.9,11.7
				c-3.9,2.8-9.4,4.2-16.3,4.2c-2.9,0-5.5-0.2-8-0.6c-2.4-0.4-5.1-1.2-7.9-2.2V4c2.3,1.2,4.7,2.1,7.1,2.6c2.4,0.6,4.7,0.9,6.7,0.9
				c3.2,0,5.4-0.4,6.9-1.3c1.4-0.9,2.2-2.3,2.2-4.2c0-1.5-0.4-2.6-1.1-3.4s-2-1.4-3.6-1.8c-1.7-0.4-3.9-0.6-6.6-0.6h-3.3v-10.8h3.4
				c7.3,0,11-1.9,11-5.6c0-1.4-0.5-2.4-1.6-3.1c-1.1-0.7-2.5-1-4.4-1c-3.4,0-6.9,1.1-10.6,3.4l-6-9.6c2.8-1.9,5.7-3.3,8.6-4.1
				c3-0.8,6.3-1.2,10.2-1.2c5.5,0,9.8,1.1,13,3.3C114.9-30.5,116.5-27.5,116.5-23.7z"/>
		</g>
	</g>
</g>
<g>
	<g transform="translate(503.154543, 124.058256)">
		<g>
			<path class="st4" d="M112.5-16.9c3.1,0,5.8,0.7,8.3,2.1c2.5,1.4,4.4,3.4,5.8,6c1.4,2.6,2.1,5.6,2.1,9c0,6-1.8,10.5-5.4,13.7
				c-3.6,3.2-9,4.8-16.3,4.8c-6.2,0-11.3-1-15.2-2.9V4.1c2.1,1,4.5,1.8,7.2,2.4c2.7,0.6,5,0.9,6.9,0.9c2.7,0,4.7-0.6,6.1-1.7
				c1.4-1.1,2.2-2.8,2.2-5c0-2-0.7-3.6-2.2-4.8c-1.5-1.1-3.7-1.7-6.6-1.7c-2.3,0-4.7,0.4-7.3,1.3l-5.3-2.6l2-28.1h30.4v12h-18.2
				l-0.6,7c1.9-0.4,3.2-0.6,4-0.6C111.1-16.8,111.9-16.9,112.5-16.9z"/>
		</g>
	</g>
</g>
<g>
	<g transform="translate(93.176512, 181.900284)">
		<g>
			<path class="st5" d="M-26.1,22.1c0,5.3-0.8,9.2-2.5,11.8c-1.7,2.6-4.2,3.9-7.6,3.9c-3.3,0-5.8-1.3-7.5-4
				c-1.7-2.7-2.6-6.6-2.6-11.7c0-5.3,0.8-9.2,2.5-11.8c1.7-2.6,4.2-3.9,7.6-3.9c3.3,0,5.8,1.3,7.5,4C-26.9,13.1-26.1,17-26.1,22.1z
				 M-42.7,22.1c0,4.4,0.5,7.7,1.6,9.7c1,2,2.7,3,5,3c2.3,0,4-1,5-3.1c1-2.1,1.6-5.3,1.6-9.6s-0.5-7.6-1.6-9.6c-1-2-2.7-3.1-5-3.1
				c-2.3,0-3.9,1-5,3C-42.2,14.4-42.7,17.6-42.7,22.1z"/>
		</g>
	</g>
</g>
<g>
	<g transform="translate(297.637783, 181.900284)">
		<g>
			<path class="st5" d="M41.9,37.3h-20v-3l8-8.1c2.4-2.5,4.1-4.2,4.8-5.3c0.8-1.1,1.4-2.1,1.8-3.1c0.4-1,0.6-2.1,0.6-3.2
				c0-1.6-0.5-2.9-1.5-3.9c-1-1-2.4-1.4-4.1-1.4c-1.3,0-2.5,0.2-3.6,0.6c-1.1,0.4-2.4,1.2-3.8,2.3L22.3,10c2.8-2.3,5.9-3.5,9.2-3.5
				c2.9,0,5.1,0.7,6.7,2.2c1.6,1.5,2.4,3.4,2.4,5.9c0,1.9-0.5,3.8-1.6,5.7c-1.1,1.9-3.1,4.3-6.1,7.2L26.3,34v0.2h15.7V37.3z"/>
		</g>
	</g>
</g>
<g>
	<g transform="translate(192.631714, 181.900284)">
		<g>
			<path class="st5" d="M-0.3,37.3h-3.4V15.6c0-1.8,0.1-3.5,0.2-5.1c-0.3,0.3-0.6,0.6-1,0.9c-0.4,0.3-2,1.7-5,4.1l-1.8-2.4l8.1-6.2
				h2.9V37.3z"/>
		</g>
	</g>
</g>
<g>
	<g transform="translate(397.093023, 181.900284)">
		<g>
			<path class="st5" d="M73.9,14.1c0,1.9-0.6,3.5-1.6,4.8c-1.1,1.2-2.6,2.1-4.6,2.5v0.2c2.4,0.3,4.3,1.1,5.4,2.3
				c1.2,1.2,1.8,2.9,1.8,4.9c0,2.9-1,5.1-3,6.7c-2,1.6-4.9,2.3-8.6,2.3c-1.6,0-3.1-0.1-4.4-0.4c-1.3-0.2-2.6-0.7-3.9-1.3v-3.3
				c1.3,0.7,2.7,1.2,4.2,1.5c1.5,0.3,2.9,0.5,4.2,0.5c5.3,0,7.9-2.1,7.9-6.2c0-3.7-2.9-5.5-8.7-5.5h-3v-3h3c2.4,0,4.3-0.5,5.6-1.6
				c1.4-1.1,2.1-2.5,2.1-4.4c0-1.5-0.5-2.7-1.5-3.5c-1-0.8-2.4-1.3-4.1-1.3c-1.3,0-2.6,0.2-3.8,0.5c-1.2,0.4-2.5,1-4,2l-1.8-2.3
				c1.2-1,2.7-1.8,4.3-2.3c1.6-0.6,3.4-0.9,5.2-0.9c3,0,5.3,0.7,6.9,2C73.1,9.8,73.9,11.7,73.9,14.1z"/>
		</g>
	</g>
</g>
<g>
	<g transform="translate(494.011137, 181.900284)">
		<g>
			<path class="st5" d="M108.8,30.3h-4.5v7H101v-7H86.2v-3l14.5-20.6h3.7v20.5h4.5V30.3z M101,27.2V17.1c0-2,0.1-4.2,0.2-6.7H101
				c-0.7,1.3-1.3,2.4-1.9,3.3l-9.5,13.5H101z"/>
		</g>
	</g>
</g>
</svg>
