<?xml version="1.0" encoding="utf-8"?>
<!-- Generator: Adobe Illustrator 25.2.3, SVG Export Plug-In . SVG Version: 6.00 Build 0)  -->
<svg version="1.1" id="Layer_1" xmlns="http://www.w3.org/2000/svg" xmlns:xlink="http://www.w3.org/1999/xlink" x="0px" y="0px"
	 viewBox="0 0 648.4 234.8" style="enable-background:new 0 0 648.4 234.8;" xml:space="preserve">
<style type="text/css">
	.st0{fill:#38B6FF;}
	.st1{fill:#004AAD;}
	.st2{clip-path:url(#SVGID_2_);}
	.st3{fill:#FFFFFF;}
	.st4{fill:#8C52FF;}
</style>
<path class="st0" d="M106.6,183.3H7.4c-3,0-5.5-2.5-5.5-5.5V78.6c0-3,2.5-5.5,5.5-5.5h99.1c3,0,5.5,2.5,5.5,5.5v99.1
	C112.1,180.8,109.6,183.3,106.6,183.3"/>
<path class="st1" d="M106.6,74.8c2.1,0,3.9,1.7,3.9,3.9v99.2c0,2.1-1.7,3.9-3.9,3.9H7.4c-2.1,0-3.9-1.7-3.9-3.9V78.6
	c0-2.1,1.7-3.9,3.9-3.9H106.6 M106.6,71.2H7.4c-4.1,0-7.4,3.3-7.4,7.4v99.2c0,4.1,3.3,7.4,7.4,7.4h99.2c4.1,0,7.4-3.3,7.4-7.4V78.6
	C114,74.5,110.7,71.2,106.6,71.2"/>
<path class="st0" d="M239.2,183.3H140c-3,0-5.5-2.5-5.5-5.5V78.6c0-3,2.5-5.5,5.5-5.5h99.1c3,0,5.5,2.5,5.5,5.5v99.1
	C244.7,180.8,242.2,183.3,239.2,183.3"/>
<path class="st1" d="M239.2,74.8c2.1,0,3.9,1.7,3.9,3.9v99.2c0,2.1-1.7,3.9-3.9,3.9H140c-2.1,0-3.9-1.7-3.9-3.9V78.6
	c0-2.1,1.7-3.9,3.9-3.9H239.2 M239.2,71.2H140c-4.1,0-7.4,3.3-7.4,7.4v99.2c0,4.1,3.3,7.4,7.4,7.4h99.2c4.1,0,7.4-3.3,7.4-7.4V78.6
	C246.6,74.5,243.3,71.2,239.2,71.2"/>
<path class="st0" d="M507.1,183.3h-99.2c-3,0-5.5-2.5-5.5-5.5V78.6c0-3,2.5-5.5,5.5-5.5H507c3,0,5.5,2.5,5.5,5.5v99.1
	C512.6,180.8,510.1,183.3,507.1,183.3"/>
<path class="st1" d="M507.1,74.8c2.1,0,3.9,1.7,3.9,3.9v99.2c0,2.1-1.7,3.9-3.9,3.9h-99.2c-2.1,0-3.9-1.7-3.9-3.9V78.6
	c0-2.1,1.7-3.9,3.9-3.9H507.1 M507.1,71.2h-99.2c-4.1,0-7.4,3.3-7.4,7.4v99.2c0,4.1,3.3,7.4,7.4,7.4h99.2c4.1,0,7.4-3.3,7.4-7.4
	V78.6C514.5,74.5,511.2,71.2,507.1,71.2"/>
<path class="st0" d="M373.1,183.3H274c-3,0-5.5-2.5-5.5-5.5V78.6c0-3,2.5-5.5,5.5-5.5h99.1c3,0,5.5,2.5,5.5,5.5v99.1
	C378.7,180.8,376.2,183.3,373.1,183.3"/>
<path class="st1" d="M373.1,74.8c2.1,0,3.9,1.7,3.9,3.9v99.2c0,2.1-1.7,3.9-3.9,3.9H274c-2.1,0-3.9-1.7-3.9-3.9V78.6
	c0-2.1,1.7-3.9,3.9-3.9H373.1 M373.1,71.2H274c-4.1,0-7.4,3.3-7.4,7.4v99.2c0,4.1,3.3,7.4,7.4,7.4h99.2c4.1,0,7.4-3.3,7.4-7.4V78.6
	C380.5,74.5,377.2,71.2,373.1,71.2"/>
<path class="st0" d="M641,183.3h-99.2c-3,0-5.5-2.5-5.5-5.5V78.6c0-3,2.5-5.5,5.5-5.5H641c3,0,5.5,2.5,5.5,5.5v99.1
	C646.6,180.8,644.1,183.3,641,183.3"/>
<path class="st1" d="M641,74.8c2.1,0,3.9,1.7,3.9,3.9v99.2c0,2.1-1.7,3.9-3.9,3.9h-99.2c-2.1,0-3.9-1.7-3.9-3.9V78.6
	c0-2.1,1.7-3.9,3.9-3.9H641 M641,71.2h-99.2c-4.1,0-7.4,3.3-7.4,7.4v99.2c0,4.1,3.3,7.4,7.4,7.4H641c4.1,0,7.4-3.3,7.4-7.4V78.6
	C648.4,74.5,645.1,71.2,641,71.2"/>
<g>
	<defs>
		<rect id="SVGID_1_" x="165.9" width="171.9" height="61"/>
	</defs>
	<clipPath id="SVGID_2_">
		<use xlink:href="#SVGID_1_"  style="overflow:visible;"/>
	</clipPath>
	<g class="st2">
		<path class="st0" d="M168.7,53.5c-2.6-1.8-2.1-3.8-1.4-5.8c1.9-5.5,4.8-10.5,9.1-14.6c13.8-12.9,30.2-21.3,48.5-26
			c18.7-4.8,37.2-3.7,55.1,3.9c8.4,3.6,16.6,7.6,25.2,11.6c-0.3-0.9-0.6-2.1-1.1-3.2c-3.3-7.6-3-9.4,2.9-15.4c1.3-1.3,2.8-2.4,4.7-4
			c1,1.6,1.7,2.7,2.4,3.8c7.2,12.3,14.1,24.7,21.7,36.8c1.8,2.9,1.7,5.2,0.5,7.7c-2.4,5-6.7,8.6-11.1,11.7c-1.6,1.1-4.4,0.7-6.6,0.4
			c-16-2.3-32.1-3.2-48.2-1.9c-5,0.4-10,1.6-15.4,2.4c-0.6-1.6,0.4-3.4,1.3-4.8c4.5-7,9.9-12.9,18.8-14.1c4.2-0.6,8.4-1.2,12.6-1.7
			c1.9-0.2,3.8-0.3,6.1-0.5c-8.6-9.3-46.3-18.1-65.5-15.7C205.1,27.1,185.3,37.3,168.7,53.5z"/>
	</g>
</g>
<g>
	<g transform="translate(69.51366, 124.058256)">
		<g>
			<path class="st3" d="M-21.9,33.2h-14.6V5c0-3.4,0.1-6.6,0.2-9.4c-0.9,1.1-2,2.2-3.4,3.4l-6,5l-7.5-9.2l18.3-14.9h13V33.2z"/>
		</g>
	</g>
</g>
<g>
	<g transform="translate(102.319913, 124.058256)">
		<g>
			<path class="st3" d="M-2.7,22.9h-5.9v10.3h-14.2V22.9H-44V12.3l22.2-32.4h13.3v32.2h5.9V22.9z M-22.8,12.1V5.9
				c0-1.2,0-2.7,0.1-4.7c0.1-2,0.2-3,0.2-3.1h-0.4c-0.8,1.9-1.8,3.6-2.8,5.2l-5.9,8.8H-22.8z"/>
		</g>
	</g>
</g>
<g>
	<g transform="translate(168.968857, 124.058256)">
		<g>
			<path class="st3" d="M16-8.5c0,3.3-1,6.1-3,8.5c-2,2.4-4.9,4.1-8.8,5.1v0.2c8.9,1.1,13.3,5.3,13.3,12.6c0,5-2,8.9-5.9,11.7
				c-3.9,2.8-9.4,4.3-16.3,4.3c-2.9,0-5.5-0.2-8-0.6c-2.4-0.4-5.1-1.2-7.9-2.3v-12c2.3,1.2,4.7,2.1,7.1,2.6c2.4,0.6,4.7,0.9,6.7,0.9
				c3.2,0,5.4-0.4,6.9-1.3c1.4-0.9,2.2-2.3,2.2-4.2c0-1.5-0.4-2.6-1.1-3.4s-2-1.4-3.6-1.8c-1.7-0.4-3.9-0.6-6.6-0.6h-3.3V0.5h3.4
				c7.3,0,11-1.9,11-5.6c0-1.4-0.5-2.4-1.6-3.1c-1.1-0.7-2.5-1-4.4-1c-3.4,0-6.9,1.1-10.6,3.4l-6-9.6c2.8-1.9,5.7-3.3,8.6-4.1
				c3-0.8,6.3-1.2,10.2-1.2c5.5,0,9.8,1.1,13,3.3C14.5-15.4,16-12.4,16-8.5z"/>
		</g>
	</g>
</g>
<g>
	<g transform="translate(201.77511, 124.058256)">
		<g>
			<path class="st3" d="M27-8.5c0,3.3-1,6.1-3,8.5c-2,2.4-4.9,4.1-8.8,5.1v0.2c8.9,1.1,13.3,5.3,13.3,12.6c0,5-2,8.9-5.9,11.7
				c-3.9,2.8-9.4,4.3-16.3,4.3c-2.9,0-5.5-0.2-8-0.6c-2.4-0.4-5.1-1.2-7.9-2.3v-12c2.3,1.2,4.7,2.1,7.1,2.6c2.4,0.6,4.7,0.9,6.7,0.9
				c3.2,0,5.4-0.4,6.9-1.3c1.4-0.9,2.2-2.3,2.2-4.2c0-1.5-0.4-2.6-1.1-3.4s-2-1.4-3.6-1.8c-1.7-0.4-3.9-0.6-6.6-0.6h-3.3V0.5h3.4
				c7.3,0,11-1.9,11-5.6c0-1.4-0.5-2.4-1.6-3.1c-1.1-0.7-2.5-1-4.4-1c-3.4,0-6.9,1.1-10.6,3.4l-6-9.6c2.8-1.9,5.7-3.3,8.6-4.1
				c3-0.8,6.3-1.2,10.2-1.2c5.5,0,9.8,1.1,13,3.3C25.4-15.4,27-12.4,27-8.5z"/>
		</g>
	</g>
</g>
<g>
	<g transform="translate(369.888469, 124.058256)">
		<g>
			<path class="st3" d="M83-8.5c0,3.3-1,6.1-3,8.5c-2,2.4-4.9,4.1-8.8,5.1v0.2c8.9,1.1,13.3,5.3,13.3,12.6c0,5-2,8.9-5.9,11.7
				c-3.9,2.8-9.4,4.3-16.3,4.3c-2.9,0-5.5-0.2-8-0.6c-2.4-0.4-5.1-1.2-7.9-2.3v-12c2.3,1.2,4.7,2.1,7.1,2.6c2.4,0.6,4.7,0.9,6.7,0.9
				c3.2,0,5.4-0.4,6.9-1.3c1.4-0.9,2.2-2.3,2.2-4.2c0-1.5-0.4-2.6-1.1-3.4s-2-1.4-3.6-1.8c-1.7-0.4-3.9-0.6-6.6-0.6h-3.3V0.5h3.4
				c7.3,0,11-1.9,11-5.6c0-1.4-0.5-2.4-1.6-3.1c-1.1-0.7-2.5-1-4.4-1c-3.4,0-6.9,1.1-10.6,3.4l-6-9.6c2.8-1.9,5.7-3.3,8.6-4.1
				c3-0.8,6.3-1.2,10.2-1.2c5.5,0,9.8,1.1,13,3.3C81.4-15.4,83-12.4,83-8.5z"/>
		</g>
	</g>
</g>
<g>
	<g transform="translate(402.694722, 124.058256)">
		<g>
			<path class="st3" d="M79.1-1.7c3.1,0,5.8,0.7,8.3,2.1c2.5,1.4,4.4,3.4,5.8,6c1.4,2.6,2.1,5.6,2.1,9c0,6-1.8,10.5-5.4,13.7
				c-3.6,3.2-9,4.8-16.3,4.8c-6.2,0-11.3-1-15.2-2.9V19.2c2.1,1,4.5,1.8,7.2,2.4c2.7,0.6,5,0.9,6.9,0.9c2.7,0,4.7-0.6,6.1-1.7
				c1.4-1.1,2.2-2.8,2.2-5c0-2-0.7-3.6-2.2-4.8C77,10,74.8,9.4,71.8,9.4c-2.3,0-4.7,0.4-7.3,1.3l-5.3-2.6l2-28.1h30.4v12H73.4
				l-0.6,7c1.9-0.4,3.2-0.6,4-0.6C77.6-1.7,78.4-1.7,79.1-1.7z"/>
		</g>
	</g>
</g>
<g>
	<g transform="translate(269.428656, 124.058256)">
		<g>
			<path class="st3" d="M51.3,33.2H12.7v-9.5l13-13.1c3.7-3.9,6.2-6.5,7.3-8c1.1-1.4,1.9-2.7,2.4-3.7c0.5-1,0.7-2.1,0.7-3.2
				c0-1.4-0.5-2.5-1.4-3.3c-0.9-0.8-2.2-1.2-3.8-1.2c-1.7,0-3.4,0.5-5.1,1.5c-1.7,1-3.6,2.4-5.8,4.2l-7.9-9.2c2.7-2.5,5-4.2,6.9-5.3
				c1.9-1.1,3.9-1.9,6.1-2.4c2.2-0.6,4.7-0.9,7.4-0.9c3.5,0,6.5,0.6,9.2,1.8c2.7,1.2,4.8,2.9,6.3,5.2c1.5,2.2,2.2,4.8,2.2,7.6
				c0,2.1-0.3,4-0.8,5.8C49,1.3,48.2,3,47.1,4.8c-1.1,1.7-2.6,3.5-4.4,5.4c-1.8,1.9-5.7,5.5-11.6,10.8v0.4h20.2V33.2z"/>
		</g>
	</g>
</g>
<g>
	<g transform="translate(302.234909, 124.058256)">
		<g>
			<path class="st3" d="M29,33.2L47.3-8.1H24.2V-20h38.5v8.5L43.9,33.2H29z"/>
		</g>
	</g>
</g>
<g>
	<g transform="translate(470.34829, 124.058256)">
		<g>
			<path class="st3" d="M111.7,33.2H97.1V5c0-3.4,0.1-6.6,0.2-9.4c-0.9,1.1-2,2.2-3.4,3.4l-6,5l-7.5-9.2l18.3-14.9h13V33.2z"/>
		</g>
	</g>
</g>
<g>
	<g transform="translate(503.154543, 124.058256)">
		<g>
			<path class="st3" d="M129.4,6.6c0,9.4-1.6,16.3-4.7,20.7c-3.2,4.4-8,6.6-14.5,6.6c-6.4,0-11.2-2.3-14.4-6.9
				C92.6,22.5,91,15.7,91,6.6c0-9.5,1.6-16.4,4.7-20.9c3.2-4.4,8-6.6,14.5-6.6c6.3,0,11.1,2.3,14.4,6.9
				C127.8-9.3,129.4-2.5,129.4,6.6z M105.3,6.6c0,6,0.4,10.2,1.1,12.4c0.8,2.3,2,3.4,3.8,3.4c1.8,0,3.1-1.2,3.8-3.5
				c0.8-2.3,1.1-6.4,1.1-12.3c0-5.9-0.4-10.1-1.1-12.4c-0.8-2.4-2-3.6-3.8-3.6c-1.8,0-3,1.1-3.8,3.4C105.7-3.6,105.3,0.6,105.3,6.6z
				"/>
		</g>
	</g>
</g>
<g>
	<g transform="translate(93.176512, 181.900284)">
		<g>
			<path class="st4" d="M-26.1,37.2c0,5.3-0.8,9.2-2.5,11.8c-1.7,2.6-4.2,3.9-7.6,3.9c-3.3,0-5.8-1.3-7.5-4
				c-1.7-2.7-2.6-6.6-2.6-11.7c0-5.3,0.8-9.2,2.5-11.8c1.7-2.6,4.2-3.9,7.6-3.9c3.3,0,5.8,1.3,7.5,4C-26.9,28.2-26.1,32.1-26.1,37.2
				z M-42.7,37.2c0,4.4,0.5,7.7,1.6,9.7c1,2,2.7,3,5,3c2.3,0,4-1,5-3.1c1-2.1,1.6-5.3,1.6-9.6s-0.5-7.6-1.6-9.6c-1-2-2.7-3.1-5-3.1
				c-2.3,0-3.9,1-5,3C-42.2,29.6-42.7,32.8-42.7,37.2z"/>
		</g>
	</g>
</g>
<g>
	<g transform="translate(297.637783, 181.900284)">
		<g>
			<path class="st4" d="M41.9,52.5h-20v-3l8-8.1c2.4-2.5,4.1-4.2,4.8-5.3c0.8-1.1,1.4-2.1,1.8-3.1c0.4-1,0.6-2.1,0.6-3.2
				c0-1.6-0.5-2.9-1.5-3.9c-1-1-2.4-1.4-4.1-1.4c-1.3,0-2.5,0.2-3.6,0.6c-1.1,0.4-2.4,1.2-3.8,2.3l-1.8-2.4c2.8-2.3,5.9-3.5,9.2-3.5
				c2.9,0,5.1,0.7,6.7,2.2c1.6,1.5,2.4,3.4,2.4,5.9c0,1.9-0.5,3.8-1.6,5.7c-1.1,1.9-3.1,4.3-6.1,7.2l-6.7,6.5v0.2h15.7V52.5z"/>
		</g>
	</g>
</g>
<g>
	<g transform="translate(192.631714, 181.900284)">
		<g>
			<path class="st4" d="M-0.3,52.5h-3.4V30.8c0-1.8,0.1-3.5,0.2-5.1c-0.3,0.3-0.6,0.6-1,0.9c-0.4,0.3-2,1.7-5,4.1l-1.8-2.4l8.1-6.2
				h2.9V52.5z"/>
		</g>
	</g>
</g>
<g>
	<g transform="translate(397.093023, 181.900284)">
		<g>
			<path class="st4" d="M73.9,29.2c0,1.9-0.6,3.5-1.6,4.8c-1.1,1.2-2.6,2.1-4.6,2.5v0.2c2.4,0.3,4.3,1.1,5.4,2.3
				c1.2,1.2,1.8,2.9,1.8,4.9c0,2.9-1,5.1-3,6.7c-2,1.6-4.9,2.3-8.6,2.3c-1.6,0-3.1-0.1-4.4-0.4c-1.3-0.2-2.6-0.7-3.9-1.3V48
				c1.3,0.7,2.7,1.2,4.2,1.5c1.5,0.3,2.9,0.5,4.2,0.5c5.3,0,7.9-2.1,7.9-6.2c0-3.7-2.9-5.5-8.7-5.5h-3v-3h3c2.4,0,4.3-0.5,5.6-1.6
				c1.4-1.1,2.1-2.5,2.1-4.4c0-1.5-0.5-2.7-1.5-3.5c-1-0.8-2.4-1.3-4.1-1.3c-1.3,0-2.6,0.2-3.8,0.5c-1.2,0.4-2.5,1-4,2l-1.8-2.3
				c1.2-1,2.7-1.8,4.3-2.3c1.6-0.6,3.4-0.9,5.2-0.9c3,0,5.3,0.7,6.9,2C73.1,25,73.9,26.8,73.9,29.2z"/>
		</g>
	</g>
</g>
<g>
	<g transform="translate(494.011137, 181.900284)">
		<g>
			<path class="st4" d="M108.8,45.5h-4.5v7H101v-7H86.2v-3l14.5-20.6h3.7v20.5h4.5V45.5z M101,42.3V32.2c0-2,0.1-4.2,0.2-6.7H101
				c-0.7,1.3-1.3,2.4-1.9,3.3l-9.5,13.5H101z"/>
		</g>
	</g>
</g>
</svg>
