<svg xmlns="http://www.w3.org/2000/svg" xmlns:xlink="http://www.w3.org/1999/xlink" width="794" zoomAndPan="magnify" viewBox="0 0 595.5 842.249979" height="1123" preserveAspectRatio="xMidYMid meet" version="1.0"><defs><g><g id="id1"/><g id="id2"/><g id="id3"/></g></defs><path stroke-linecap="round" transform="matrix(2.649876, 2.649876, -2.651516, 2.651516, 201.661875, 88.052461)" fill="none" stroke-linejoin="miter" d="M 0.500561 0.00000742029 L 19.712842 0.00000742029 " stroke="rgb(100%, 100%, 100%)" stroke-width="1" stroke-opacity="1" stroke-miterlimit="4"/><path stroke-linecap="round" transform="matrix(-0.0215782, 3.771956, -3.749748, -0.0214511, 203.427754, 91.515877)" fill="none" stroke-linejoin="miter" d="M 0.500128 -0.000268438 L 13.220448 0.000494996 " stroke="rgb(100%, 100%, 100%)" stroke-width="1" stroke-opacity="1" stroke-miterlimit="4"/><path stroke-linecap="round" transform="matrix(3.772017, 0, 0, 3.749809, 203.284139, 91.501614)" fill="none" stroke-linejoin="miter" d="M 0.500458 -0.000430488 L 13.220566 -0.000430488 " stroke="rgb(100%, 100%, 100%)" stroke-width="1" stroke-opacity="1" stroke-miterlimit="4"/><path stroke-linecap="round" transform="matrix(2.639457, -2.612868, 2.638059, 2.664904, 203.283626, 140.698746)" fill="none" stroke-linejoin="miter" d="M 0.499977 -0.000655914 L 8.991011 0.000230332 " stroke="rgb(100%, 100%, 100%)" stroke-width="1" stroke-opacity="1" stroke-miterlimit="4"/><path fill="rgb(49.409485%, 85.099792%, 34.118652%)" d="M 203.410156 81.132812 C 198.4375 81.132812 194.410156 85.160156 194.410156 90.132812 C 194.410156 95.101562 198.4375 99.132812 203.410156 99.132812 C 208.378906 99.132812 212.410156 95.101562 212.410156 90.132812 C 212.410156 85.160156 208.378906 81.132812 203.410156 81.132812 " fill-opacity="1" fill-rule="nonzero"/><path fill="rgb(21.958923%, 71.369934%, 100%)" d="M 228.703125 106.425781 C 223.734375 106.425781 219.703125 110.457031 219.703125 115.425781 C 219.703125 120.394531 223.734375 124.425781 228.703125 124.425781 C 233.671875 124.425781 237.703125 120.394531 237.703125 115.425781 C 237.703125 110.457031 233.671875 106.425781 228.703125 106.425781 " fill-opacity="1" fill-rule="nonzero"/><path fill="rgb(21.958923%, 71.369934%, 100%)" d="M 252.945312 81.132812 C 247.976562 81.132812 243.949219 85.160156 243.949219 90.132812 C 243.949219 95.101562 247.976562 99.132812 252.945312 99.132812 C 257.917969 99.132812 261.945312 95.101562 261.945312 90.132812 C 261.945312 85.160156 257.917969 81.132812 252.945312 81.132812 " fill-opacity="1" fill-rule="nonzero"/><path fill="rgb(21.958923%, 71.369934%, 100%)" d="M 252.945312 131.71875 C 247.976562 131.71875 243.949219 135.75 243.949219 140.71875 C 243.949219 145.691406 247.976562 149.71875 252.945312 149.71875 C 257.917969 149.71875 261.945312 145.691406 261.945312 140.71875 C 261.945312 135.75 257.917969 131.71875 252.945312 131.71875 " fill-opacity="1" fill-rule="nonzero"/><path fill="rgb(21.958923%, 71.369934%, 100%)" d="M 203.410156 131.71875 C 198.4375 131.71875 194.410156 135.75 194.410156 140.71875 C 194.410156 145.691406 198.4375 149.71875 203.410156 149.71875 C 208.378906 149.71875 212.410156 145.691406 212.410156 140.71875 C 212.410156 135.75 208.378906 131.71875 203.410156 131.71875 " fill-opacity="1" fill-rule="nonzero"/><path fill="rgb(0%, 29.019165%, 67.83905%)" d="M 275.621094 86.746094 L 294.988281 86.746094 L 294.988281 106.117188 L 275.621094 106.117188 L 275.621094 86.746094 " fill-opacity="1" fill-rule="nonzero"/><path fill="rgb(0%, 29.019165%, 67.83905%)" d="M 275.621094 106.179688 L 275.554688 106.179688 L 275.554688 86.683594 L 295.054688 86.683594 L 295.054688 106.179688 L 275.621094 106.179688 M 275.683594 86.8125 L 275.683594 106.050781 L 294.921875 106.050781 L 294.921875 86.8125 L 275.683594 86.8125 " fill-opacity="1" fill-rule="nonzero"/><path fill="rgb(21.958923%, 71.369934%, 100%)" d="M 276.988281 88.128906 L 293.605469 88.128906 L 293.605469 104.746094 L 276.988281 104.746094 L 276.988281 88.128906 " fill-opacity="1" fill-rule="nonzero"/><path fill="rgb(0%, 29.019165%, 67.83905%)" d="M 312.382812 86.746094 L 331.75 86.746094 L 331.75 106.117188 L 312.382812 106.117188 L 312.382812 86.746094 " fill-opacity="1" fill-rule="nonzero"/><path fill="rgb(0%, 29.019165%, 67.83905%)" d="M 312.382812 106.179688 L 312.316406 106.179688 L 312.316406 86.683594 L 331.816406 86.683594 L 331.816406 106.179688 L 312.382812 106.179688 M 312.445312 86.8125 L 312.445312 106.050781 L 331.683594 106.050781 L 331.683594 86.8125 L 312.445312 86.8125 " fill-opacity="1" fill-rule="nonzero"/><path fill="rgb(21.958923%, 71.369934%, 100%)" d="M 313.75 88.128906 L 330.367188 88.128906 L 330.367188 104.746094 L 313.75 104.746094 L 313.75 88.128906 " fill-opacity="1" fill-rule="nonzero"/><path fill="rgb(0%, 29.019165%, 67.83905%)" d="M 348.066406 86.746094 L 367.4375 86.746094 L 367.4375 106.117188 L 348.066406 106.117188 L 348.066406 86.746094 " fill-opacity="1" fill-rule="nonzero"/><path fill="rgb(0%, 29.019165%, 67.83905%)" d="M 348.066406 106.179688 L 348.003906 106.179688 L 348.003906 86.683594 L 367.5 86.683594 L 367.5 106.179688 L 348.066406 106.179688 M 348.132812 86.8125 L 348.132812 106.050781 L 367.371094 106.050781 L 367.371094 86.8125 L 348.132812 86.8125 " fill-opacity="1" fill-rule="nonzero"/><path fill="rgb(21.958923%, 71.369934%, 100%)" d="M 349.4375 88.128906 L 366.054688 88.128906 L 366.054688 104.746094 L 349.4375 104.746094 L 349.4375 88.128906 " fill-opacity="1" fill-rule="nonzero"/><path fill="rgb(0%, 29.019165%, 67.83905%)" d="M 293.894531 86.746094 L 313.265625 86.746094 L 313.265625 106.117188 L 293.894531 106.117188 L 293.894531 86.746094 " fill-opacity="1" fill-rule="nonzero"/><path fill="rgb(0%, 29.019165%, 67.83905%)" d="M 293.894531 106.179688 L 293.832031 106.179688 L 293.832031 86.683594 L 313.332031 86.683594 L 313.332031 106.179688 L 293.894531 106.179688 M 293.960938 86.8125 L 293.960938 106.050781 L 313.199219 106.050781 L 313.199219 86.8125 L 293.960938 86.8125 " fill-opacity="1" fill-rule="nonzero"/><path fill="rgb(21.958923%, 71.369934%, 100%)" d="M 295.265625 88.128906 L 311.882812 88.128906 L 311.882812 104.746094 L 295.265625 104.746094 L 295.265625 88.128906 " fill-opacity="1" fill-rule="nonzero"/><path fill="rgb(0%, 29.019165%, 67.83905%)" d="M 330.65625 86.746094 L 350.027344 86.746094 L 350.027344 106.117188 L 330.65625 106.117188 L 330.65625 86.746094 " fill-opacity="1" fill-rule="nonzero"/><path fill="rgb(0%, 29.019165%, 67.83905%)" d="M 330.65625 106.179688 L 330.59375 106.179688 L 330.59375 86.683594 L 350.089844 86.683594 L 350.089844 106.179688 L 330.65625 106.179688 M 330.722656 86.8125 L 330.722656 106.050781 L 349.960938 106.050781 L 349.960938 86.8125 L 330.722656 86.8125 " fill-opacity="1" fill-rule="nonzero"/><path fill="rgb(21.958923%, 71.369934%, 100%)" d="M 332.027344 88.128906 L 348.644531 88.128906 L 348.644531 104.746094 L 332.027344 104.746094 L 332.027344 88.128906 " fill-opacity="1" fill-rule="nonzero"/><g fill="rgb(100%, 100%, 100%)" fill-opacity="1"><g transform="translate(282.18855, 99.714477)"><g><path d="M 6.171875 -3.984375 C 6.171875 -2.566406 5.929688 -1.53125 5.453125 -0.875 C 4.984375 -0.21875 4.257812 0.109375 3.28125 0.109375 C 2.320312 0.109375 1.597656 -0.234375 1.109375 -0.921875 C 0.628906 -1.609375 0.390625 -2.628906 0.390625 -3.984375 C 0.390625 -5.410156 0.625 -6.453125 1.09375 -7.109375 C 1.570312 -7.773438 2.300781 -8.109375 3.28125 -8.109375 C 4.226562 -8.109375 4.945312 -7.765625 5.4375 -7.078125 C 5.925781 -6.390625 6.171875 -5.359375 6.171875 -3.984375 Z M 2.546875 -3.984375 C 2.546875 -3.078125 2.601562 -2.453125 2.71875 -2.109375 C 2.832031 -1.773438 3.019531 -1.609375 3.28125 -1.609375 C 3.550781 -1.609375 3.738281 -1.78125 3.84375 -2.125 C 3.957031 -2.476562 4.015625 -3.097656 4.015625 -3.984375 C 4.015625 -4.867188 3.957031 -5.488281 3.84375 -5.84375 C 3.738281 -6.207031 3.550781 -6.390625 3.28125 -6.390625 C 3.019531 -6.390625 2.832031 -6.21875 2.71875 -5.875 C 2.601562 -5.53125 2.546875 -4.898438 2.546875 -3.984375 Z M 2.546875 -3.984375 "/></g></g></g><g fill="rgb(100%, 100%, 100%)" fill-opacity="1"><g transform="translate(303.743565, 99.714477)"><g/></g></g><g fill="rgb(100%, 100%, 100%)" fill-opacity="1"><g transform="translate(340.505093, 99.714477)"><g/></g></g><g fill="rgb(100%, 100%, 100%)" fill-opacity="1"><g transform="translate(321.879209, 99.714477)"><g/></g></g><g fill="rgb(100%, 100%, 100%)" fill-opacity="1"><g transform="translate(357.914406, 99.714477)"><g/></g></g><path fill="rgb(0%, 29.019165%, 67.83905%)" d="M 275.621094 122.566406 L 294.988281 122.566406 L 294.988281 141.9375 L 275.621094 141.9375 L 275.621094 122.566406 " fill-opacity="1" fill-rule="nonzero"/><path fill="rgb(0%, 29.019165%, 67.83905%)" d="M 275.621094 142.003906 L 275.554688 142.003906 L 275.554688 122.503906 L 295.054688 122.503906 L 295.054688 142.003906 L 275.621094 142.003906 M 275.683594 122.632812 L 275.683594 141.871094 L 294.921875 141.871094 L 294.921875 122.632812 L 275.683594 122.632812 " fill-opacity="1" fill-rule="nonzero"/><path fill="rgb(21.958923%, 71.369934%, 100%)" d="M 276.988281 123.949219 L 293.605469 123.949219 L 293.605469 140.566406 L 276.988281 140.566406 L 276.988281 123.949219 " fill-opacity="1" fill-rule="nonzero"/><path fill="rgb(0%, 29.019165%, 67.83905%)" d="M 312.382812 122.566406 L 331.75 122.566406 L 331.75 141.9375 L 312.382812 141.9375 L 312.382812 122.566406 " fill-opacity="1" fill-rule="nonzero"/><path fill="rgb(0%, 29.019165%, 67.83905%)" d="M 312.382812 142.003906 L 312.316406 142.003906 L 312.316406 122.503906 L 331.816406 122.503906 L 331.816406 142.003906 L 312.382812 142.003906 M 312.445312 122.632812 L 312.445312 141.871094 L 331.683594 141.871094 L 331.683594 122.632812 L 312.445312 122.632812 " fill-opacity="1" fill-rule="nonzero"/><path fill="rgb(21.958923%, 71.369934%, 100%)" d="M 313.75 123.949219 L 330.367188 123.949219 L 330.367188 140.566406 L 313.75 140.566406 L 313.75 123.949219 " fill-opacity="1" fill-rule="nonzero"/><path fill="rgb(0%, 29.019165%, 67.83905%)" d="M 348.066406 122.566406 L 367.4375 122.566406 L 367.4375 141.9375 L 348.066406 141.9375 L 348.066406 122.566406 " fill-opacity="1" fill-rule="nonzero"/><path fill="rgb(0%, 29.019165%, 67.83905%)" d="M 348.066406 142.003906 L 348.003906 142.003906 L 348.003906 122.503906 L 367.5 122.503906 L 367.5 142.003906 L 348.066406 142.003906 M 348.132812 122.632812 L 348.132812 141.871094 L 367.371094 141.871094 L 367.371094 122.632812 L 348.132812 122.632812 " fill-opacity="1" fill-rule="nonzero"/><path fill="rgb(21.958923%, 71.369934%, 100%)" d="M 349.4375 123.949219 L 366.054688 123.949219 L 366.054688 140.566406 L 349.4375 140.566406 L 349.4375 123.949219 " fill-opacity="1" fill-rule="nonzero"/><path fill="rgb(0%, 29.019165%, 67.83905%)" d="M 293.894531 122.566406 L 313.265625 122.566406 L 313.265625 141.9375 L 293.894531 141.9375 L 293.894531 122.566406 " fill-opacity="1" fill-rule="nonzero"/><path fill="rgb(0%, 29.019165%, 67.83905%)" d="M 293.894531 142.003906 L 293.832031 142.003906 L 293.832031 122.503906 L 313.332031 122.503906 L 313.332031 142.003906 L 293.894531 142.003906 M 293.960938 122.632812 L 293.960938 141.871094 L 313.199219 141.871094 L 313.199219 122.632812 L 293.960938 122.632812 " fill-opacity="1" fill-rule="nonzero"/><path fill="rgb(21.958923%, 71.369934%, 100%)" d="M 295.265625 123.949219 L 311.882812 123.949219 L 311.882812 140.566406 L 295.265625 140.566406 L 295.265625 123.949219 " fill-opacity="1" fill-rule="nonzero"/><path fill="rgb(0%, 29.019165%, 67.83905%)" d="M 330.65625 122.566406 L 350.027344 122.566406 L 350.027344 141.9375 L 330.65625 141.9375 L 330.65625 122.566406 " fill-opacity="1" fill-rule="nonzero"/><path fill="rgb(0%, 29.019165%, 67.83905%)" d="M 330.65625 142.003906 L 330.59375 142.003906 L 330.59375 122.503906 L 350.089844 122.503906 L 350.089844 142.003906 L 330.65625 142.003906 M 330.722656 122.632812 L 330.722656 141.871094 L 349.960938 141.871094 L 349.960938 122.632812 L 330.722656 122.632812 " fill-opacity="1" fill-rule="nonzero"/><path fill="rgb(21.958923%, 71.369934%, 100%)" d="M 332.027344 123.949219 L 348.644531 123.949219 L 348.644531 140.566406 L 332.027344 140.566406 L 332.027344 123.949219 " fill-opacity="1" fill-rule="nonzero"/><g fill="rgb(100%, 100%, 100%)" fill-opacity="1"><g transform="translate(282.18855, 135.53514)"><g><path d="M 5.15625 0 L 2.953125 0 L 2.953125 -4.234375 C 2.953125 -4.742188 2.96875 -5.210938 3 -5.640625 C 2.863281 -5.484375 2.691406 -5.3125 2.484375 -5.125 L 1.578125 -4.375 L 0.453125 -5.765625 L 3.203125 -8 L 5.15625 -8 Z M 5.15625 0 "/></g></g></g><g fill="rgb(100%, 100%, 100%)" fill-opacity="1"><g transform="translate(300.465067, 135.53514)"><g><path d="M 6.140625 0 L 0.328125 0 L 0.328125 -1.421875 L 2.28125 -3.390625 C 2.84375 -3.972656 3.207031 -4.367188 3.375 -4.578125 C 3.550781 -4.796875 3.671875 -4.984375 3.734375 -5.140625 C 3.804688 -5.296875 3.84375 -5.457031 3.84375 -5.625 C 3.84375 -5.832031 3.773438 -5.992188 3.640625 -6.109375 C 3.503906 -6.234375 3.3125 -6.296875 3.0625 -6.296875 C 2.8125 -6.296875 2.554688 -6.222656 2.296875 -6.078125 C 2.046875 -5.929688 1.757812 -5.71875 1.4375 -5.4375 L 0.25 -6.828125 C 0.65625 -7.203125 1 -7.46875 1.28125 -7.625 C 1.5625 -7.78125 1.867188 -7.898438 2.203125 -7.984375 C 2.535156 -8.066406 2.90625 -8.109375 3.3125 -8.109375 C 3.832031 -8.109375 4.296875 -8.015625 4.703125 -7.828125 C 5.109375 -7.648438 5.421875 -7.390625 5.640625 -7.046875 C 5.867188 -6.710938 5.984375 -6.335938 5.984375 -5.921875 C 5.984375 -5.609375 5.941406 -5.316406 5.859375 -5.046875 C 5.785156 -4.785156 5.664062 -4.523438 5.5 -4.265625 C 5.332031 -4.015625 5.113281 -3.742188 4.84375 -3.453125 C 4.570312 -3.171875 3.992188 -2.632812 3.109375 -1.84375 L 3.109375 -1.78125 L 6.140625 -1.78125 Z M 6.140625 0 "/></g></g></g><g fill="rgb(100%, 100%, 100%)" fill-opacity="1"><g transform="translate(340.505093, 135.53514)"><g/></g></g><g fill="rgb(100%, 100%, 100%)" fill-opacity="1"><g transform="translate(318.60071, 135.53514)"><g><path d="M 5.875 -6.265625 C 5.875 -5.765625 5.722656 -5.335938 5.421875 -4.984375 C 5.117188 -4.628906 4.679688 -4.375 4.109375 -4.21875 L 4.109375 -4.171875 C 5.441406 -4.003906 6.109375 -3.375 6.109375 -2.28125 C 6.109375 -1.539062 5.8125 -0.957031 5.21875 -0.53125 C 4.632812 -0.101562 3.816406 0.109375 2.765625 0.109375 C 2.335938 0.109375 1.9375 0.078125 1.5625 0.015625 C 1.195312 -0.046875 0.804688 -0.160156 0.390625 -0.328125 L 0.390625 -2.109375 C 0.734375 -1.929688 1.085938 -1.800781 1.453125 -1.71875 C 1.816406 -1.632812 2.148438 -1.59375 2.453125 -1.59375 C 2.929688 -1.59375 3.273438 -1.65625 3.484375 -1.78125 C 3.703125 -1.914062 3.8125 -2.128906 3.8125 -2.421875 C 3.8125 -2.640625 3.753906 -2.804688 3.640625 -2.921875 C 3.535156 -3.046875 3.351562 -3.132812 3.09375 -3.1875 C 2.84375 -3.25 2.515625 -3.28125 2.109375 -3.28125 L 1.625 -3.28125 L 1.625 -4.90625 L 2.125 -4.90625 C 3.226562 -4.90625 3.78125 -5.1875 3.78125 -5.75 C 3.78125 -5.957031 3.695312 -6.113281 3.53125 -6.21875 C 3.363281 -6.320312 3.144531 -6.375 2.875 -6.375 C 2.363281 -6.375 1.835938 -6.203125 1.296875 -5.859375 L 0.390625 -7.296875 C 0.816406 -7.585938 1.25 -7.796875 1.6875 -7.921875 C 2.132812 -8.046875 2.644531 -8.109375 3.21875 -8.109375 C 4.039062 -8.109375 4.6875 -7.941406 5.15625 -7.609375 C 5.632812 -7.285156 5.875 -6.835938 5.875 -6.265625 Z M 5.875 -6.265625 "/></g></g></g><g fill="rgb(100%, 100%, 100%)" fill-opacity="1"><g transform="translate(357.914406, 135.53514)"><g/></g></g><g fill="rgb(100%, 100%, 100%)" fill-opacity="1"><g transform="translate(200.383178, 93.626714)"><g><path d="M 5.453125 -3.53125 C 5.453125 -2.28125 5.242188 -1.363281 4.828125 -0.78125 C 4.410156 -0.195312 3.769531 0.09375 2.90625 0.09375 C 2.0625 0.09375 1.421875 -0.207031 0.984375 -0.8125 C 0.554688 -1.425781 0.34375 -2.332031 0.34375 -3.53125 C 0.34375 -4.78125 0.550781 -5.695312 0.96875 -6.28125 C 1.394531 -6.875 2.039062 -7.171875 2.90625 -7.171875 C 3.75 -7.171875 4.382812 -6.863281 4.8125 -6.25 C 5.238281 -5.644531 5.453125 -4.738281 5.453125 -3.53125 Z M 2.25 -3.53125 C 2.25 -2.726562 2.296875 -2.175781 2.390625 -1.875 C 2.492188 -1.570312 2.664062 -1.421875 2.90625 -1.421875 C 3.144531 -1.421875 3.3125 -1.578125 3.40625 -1.890625 C 3.507812 -2.203125 3.5625 -2.75 3.5625 -3.53125 C 3.5625 -4.3125 3.507812 -4.859375 3.40625 -5.171875 C 3.300781 -5.484375 3.132812 -5.640625 2.90625 -5.640625 C 2.664062 -5.640625 2.492188 -5.488281 2.390625 -5.1875 C 2.296875 -4.882812 2.25 -4.332031 2.25 -3.53125 Z M 2.25 -3.53125 "/></g></g></g><g fill="rgb(100%, 100%, 100%)" fill-opacity="1"><g transform="translate(225.677154, 118.920694)"><g><path d="M 5.421875 0 L 0.296875 0 L 0.296875 -1.25 L 2.015625 -3 C 2.515625 -3.519531 2.835938 -3.875 2.984375 -4.0625 C 3.140625 -4.25 3.242188 -4.410156 3.296875 -4.546875 C 3.359375 -4.679688 3.390625 -4.820312 3.390625 -4.96875 C 3.390625 -5.15625 3.328125 -5.300781 3.203125 -5.40625 C 3.085938 -5.507812 2.925781 -5.5625 2.71875 -5.5625 C 2.488281 -5.5625 2.257812 -5.5 2.03125 -5.375 C 1.8125 -5.25 1.554688 -5.0625 1.265625 -4.8125 L 0.21875 -6.046875 C 0.582031 -6.367188 0.890625 -6.597656 1.140625 -6.734375 C 1.390625 -6.878906 1.660156 -6.988281 1.953125 -7.0625 C 2.242188 -7.132812 2.570312 -7.171875 2.9375 -7.171875 C 3.394531 -7.171875 3.800781 -7.085938 4.15625 -6.921875 C 4.519531 -6.765625 4.800781 -6.535156 5 -6.234375 C 5.195312 -5.941406 5.296875 -5.609375 5.296875 -5.234375 C 5.296875 -4.960938 5.257812 -4.707031 5.1875 -4.46875 C 5.113281 -4.226562 5.003906 -3.992188 4.859375 -3.765625 C 4.710938 -3.546875 4.519531 -3.3125 4.28125 -3.0625 C 4.039062 -2.8125 3.53125 -2.332031 2.75 -1.625 L 2.75 -1.578125 L 5.421875 -1.578125 Z M 5.421875 0 "/></g></g></g><g fill="rgb(100%, 100%, 100%)" fill-opacity="1"><g transform="translate(249.167942, 93.626714)"><g><path d="M 5.1875 -5.53125 C 5.1875 -5.09375 5.050781 -4.71875 4.78125 -4.40625 C 4.519531 -4.09375 4.132812 -3.863281 3.625 -3.71875 L 3.625 -3.703125 C 4.800781 -3.546875 5.390625 -2.984375 5.390625 -2.015625 C 5.390625 -1.359375 5.128906 -0.84375 4.609375 -0.46875 C 4.085938 -0.09375 3.367188 0.09375 2.453125 0.09375 C 2.066406 0.09375 1.710938 0.0664062 1.390625 0.015625 C 1.066406 -0.0351562 0.71875 -0.132812 0.34375 -0.28125 L 0.34375 -1.875 C 0.644531 -1.71875 0.957031 -1.597656 1.28125 -1.515625 C 1.601562 -1.441406 1.898438 -1.40625 2.171875 -1.40625 C 2.585938 -1.40625 2.890625 -1.460938 3.078125 -1.578125 C 3.273438 -1.703125 3.375 -1.890625 3.375 -2.140625 C 3.375 -2.328125 3.320312 -2.472656 3.21875 -2.578125 C 3.125 -2.691406 2.960938 -2.773438 2.734375 -2.828125 C 2.515625 -2.878906 2.226562 -2.90625 1.875 -2.90625 L 1.4375 -2.90625 L 1.4375 -4.34375 L 1.875 -4.34375 C 2.851562 -4.34375 3.34375 -4.585938 3.34375 -5.078125 C 3.34375 -5.265625 3.269531 -5.40625 3.125 -5.5 C 2.976562 -5.59375 2.785156 -5.640625 2.546875 -5.640625 C 2.085938 -5.640625 1.617188 -5.488281 1.140625 -5.1875 L 0.34375 -6.453125 C 0.71875 -6.710938 1.097656 -6.894531 1.484375 -7 C 1.878906 -7.113281 2.332031 -7.171875 2.84375 -7.171875 C 3.570312 -7.171875 4.144531 -7.023438 4.5625 -6.734375 C 4.976562 -6.441406 5.1875 -6.039062 5.1875 -5.53125 Z M 5.1875 -5.53125 "/></g></g></g><g fill="rgb(100%, 100%, 100%)" fill-opacity="1"><g transform="translate(249.921198, 144.21467)"><g><path d="M 5.65625 -1.375 L 4.875 -1.375 L 4.875 0 L 2.984375 0 L 2.984375 -1.375 L 0.171875 -1.375 L 0.171875 -2.765625 L 3.109375 -7.078125 L 4.875 -7.078125 L 4.875 -2.796875 L 5.65625 -2.796875 Z M 2.984375 -2.796875 L 2.984375 -3.625 C 2.984375 -3.769531 2.988281 -3.972656 3 -4.234375 C 3.007812 -4.503906 3.019531 -4.644531 3.03125 -4.65625 L 2.984375 -4.65625 C 2.867188 -4.40625 2.742188 -4.175781 2.609375 -3.96875 L 1.828125 -2.796875 Z M 2.984375 -2.796875 "/></g></g></g><g fill="rgb(100%, 100%, 100%)" fill-opacity="1"><g transform="translate(200.383178, 144.21467)"><g><path d="M 4.5625 0 L 2.609375 0 L 2.609375 -3.75 C 2.609375 -4.195312 2.617188 -4.609375 2.640625 -4.984375 C 2.523438 -4.847656 2.378906 -4.695312 2.203125 -4.53125 L 1.390625 -3.875 L 0.40625 -5.09375 L 2.828125 -7.078125 L 4.5625 -7.078125 Z M 4.5625 0 "/></g></g></g><g fill="rgb(100%, 100%, 100%)" fill-opacity="1"><g transform="translate(374.084664, 101.448327)"><g><path d="M 8.84375 -9.125 L 5.15625 0 L 3.609375 0 L -0.0625 -9.125 L 1.296875 -9.125 C 1.441406 -9.125 1.5625 -9.085938 1.65625 -9.015625 C 1.75 -8.941406 1.816406 -8.851562 1.859375 -8.75 L 4.015625 -3.171875 C 4.085938 -2.992188 4.15625 -2.796875 4.21875 -2.578125 C 4.28125 -2.359375 4.34375 -2.132812 4.40625 -1.90625 C 4.457031 -2.132812 4.507812 -2.359375 4.5625 -2.578125 C 4.625 -2.796875 4.691406 -2.992188 4.765625 -3.171875 L 6.90625 -8.75 C 6.9375 -8.84375 7 -8.925781 7.09375 -9 C 7.195312 -9.082031 7.320312 -9.125 7.46875 -9.125 Z M 8.84375 -9.125 "/></g></g></g><g fill="rgb(100%, 100%, 100%)" fill-opacity="1"><g transform="translate(382.84735, 101.448327)"><g><path d="M 2.390625 -6.484375 L 2.390625 0 L 0.828125 0 L 0.828125 -6.484375 Z M 2.59375 -8.359375 C 2.59375 -8.222656 2.566406 -8.097656 2.515625 -7.984375 C 2.460938 -7.867188 2.390625 -7.765625 2.296875 -7.671875 C 2.210938 -7.585938 2.109375 -7.519531 1.984375 -7.46875 C 1.859375 -7.414062 1.726562 -7.390625 1.59375 -7.390625 C 1.457031 -7.390625 1.328125 -7.414062 1.203125 -7.46875 C 1.085938 -7.519531 0.984375 -7.585938 0.890625 -7.671875 C 0.804688 -7.765625 0.738281 -7.867188 0.6875 -7.984375 C 0.632812 -8.097656 0.609375 -8.222656 0.609375 -8.359375 C 0.609375 -8.503906 0.632812 -8.632812 0.6875 -8.75 C 0.738281 -8.875 0.804688 -8.976562 0.890625 -9.0625 C 0.984375 -9.15625 1.085938 -9.226562 1.203125 -9.28125 C 1.328125 -9.332031 1.457031 -9.359375 1.59375 -9.359375 C 1.726562 -9.359375 1.859375 -9.332031 1.984375 -9.28125 C 2.109375 -9.226562 2.210938 -9.15625 2.296875 -9.0625 C 2.390625 -8.976562 2.460938 -8.875 2.515625 -8.75 C 2.566406 -8.632812 2.59375 -8.503906 2.59375 -8.359375 Z M 2.59375 -8.359375 "/></g></g></g><g fill="rgb(100%, 100%, 100%)" fill-opacity="1"><g transform="translate(386.052134, 101.448327)"><g><path d="M 4.71875 -5.21875 C 4.675781 -5.144531 4.628906 -5.09375 4.578125 -5.0625 C 4.535156 -5.039062 4.476562 -5.03125 4.40625 -5.03125 C 4.332031 -5.03125 4.253906 -5.050781 4.171875 -5.09375 C 4.085938 -5.132812 3.988281 -5.179688 3.875 -5.234375 C 3.757812 -5.285156 3.628906 -5.332031 3.484375 -5.375 C 3.335938 -5.414062 3.164062 -5.4375 2.96875 -5.4375 C 2.65625 -5.4375 2.410156 -5.367188 2.234375 -5.234375 C 2.066406 -5.109375 1.984375 -4.941406 1.984375 -4.734375 C 1.984375 -4.597656 2.023438 -4.476562 2.109375 -4.375 C 2.203125 -4.28125 2.320312 -4.195312 2.46875 -4.125 C 2.625 -4.0625 2.796875 -4 2.984375 -3.9375 C 3.171875 -3.882812 3.363281 -3.820312 3.5625 -3.75 C 3.757812 -3.6875 3.953125 -3.609375 4.140625 -3.515625 C 4.328125 -3.429688 4.492188 -3.320312 4.640625 -3.1875 C 4.796875 -3.0625 4.914062 -2.90625 5 -2.71875 C 5.09375 -2.53125 5.140625 -2.304688 5.140625 -2.046875 C 5.140625 -1.734375 5.082031 -1.445312 4.96875 -1.1875 C 4.863281 -0.925781 4.703125 -0.695312 4.484375 -0.5 C 4.265625 -0.3125 3.992188 -0.164062 3.671875 -0.0625 C 3.347656 0.0390625 2.976562 0.09375 2.5625 0.09375 C 2.332031 0.09375 2.109375 0.0703125 1.890625 0.03125 C 1.679688 0 1.476562 -0.0507812 1.28125 -0.125 C 1.09375 -0.195312 0.914062 -0.28125 0.75 -0.375 C 0.582031 -0.476562 0.4375 -0.582031 0.3125 -0.6875 L 0.671875 -1.28125 C 0.710938 -1.351562 0.765625 -1.410156 0.828125 -1.453125 C 0.890625 -1.492188 0.972656 -1.515625 1.078125 -1.515625 C 1.171875 -1.515625 1.257812 -1.484375 1.34375 -1.421875 C 1.4375 -1.367188 1.535156 -1.3125 1.640625 -1.25 C 1.753906 -1.1875 1.890625 -1.125 2.046875 -1.0625 C 2.203125 -1.007812 2.394531 -0.984375 2.625 -0.984375 C 2.8125 -0.984375 2.972656 -1.003906 3.109375 -1.046875 C 3.242188 -1.097656 3.351562 -1.160156 3.4375 -1.234375 C 3.519531 -1.304688 3.582031 -1.390625 3.625 -1.484375 C 3.664062 -1.578125 3.6875 -1.675781 3.6875 -1.78125 C 3.6875 -1.925781 3.640625 -2.046875 3.546875 -2.140625 C 3.460938 -2.242188 3.34375 -2.328125 3.1875 -2.390625 C 3.039062 -2.460938 2.867188 -2.523438 2.671875 -2.578125 C 2.484375 -2.640625 2.289062 -2.703125 2.09375 -2.765625 C 1.894531 -2.835938 1.695312 -2.921875 1.5 -3.015625 C 1.3125 -3.109375 1.140625 -3.222656 0.984375 -3.359375 C 0.835938 -3.492188 0.71875 -3.660156 0.625 -3.859375 C 0.539062 -4.066406 0.5 -4.316406 0.5 -4.609375 C 0.5 -4.867188 0.550781 -5.117188 0.65625 -5.359375 C 0.757812 -5.597656 0.910156 -5.804688 1.109375 -5.984375 C 1.316406 -6.160156 1.570312 -6.300781 1.875 -6.40625 C 2.1875 -6.519531 2.539062 -6.578125 2.9375 -6.578125 C 3.382812 -6.578125 3.789062 -6.503906 4.15625 -6.359375 C 4.519531 -6.210938 4.828125 -6.019531 5.078125 -5.78125 Z M 4.71875 -5.21875 "/></g></g></g><g fill="rgb(100%, 100%, 100%)" fill-opacity="1"><g transform="translate(391.597415, 101.448327)"><g><path d="M 2.390625 -6.484375 L 2.390625 0 L 0.828125 0 L 0.828125 -6.484375 Z M 2.59375 -8.359375 C 2.59375 -8.222656 2.566406 -8.097656 2.515625 -7.984375 C 2.460938 -7.867188 2.390625 -7.765625 2.296875 -7.671875 C 2.210938 -7.585938 2.109375 -7.519531 1.984375 -7.46875 C 1.859375 -7.414062 1.726562 -7.390625 1.59375 -7.390625 C 1.457031 -7.390625 1.328125 -7.414062 1.203125 -7.46875 C 1.085938 -7.519531 0.984375 -7.585938 0.890625 -7.671875 C 0.804688 -7.765625 0.738281 -7.867188 0.6875 -7.984375 C 0.632812 -8.097656 0.609375 -8.222656 0.609375 -8.359375 C 0.609375 -8.503906 0.632812 -8.632812 0.6875 -8.75 C 0.738281 -8.875 0.804688 -8.976562 0.890625 -9.0625 C 0.984375 -9.15625 1.085938 -9.226562 1.203125 -9.28125 C 1.328125 -9.332031 1.457031 -9.359375 1.59375 -9.359375 C 1.726562 -9.359375 1.859375 -9.332031 1.984375 -9.28125 C 2.109375 -9.226562 2.210938 -9.15625 2.296875 -9.0625 C 2.390625 -8.976562 2.460938 -8.875 2.515625 -8.75 C 2.566406 -8.632812 2.59375 -8.503906 2.59375 -8.359375 Z M 2.59375 -8.359375 "/></g></g></g><g fill="rgb(100%, 100%, 100%)" fill-opacity="1"><g transform="translate(394.802199, 101.448327)"><g><path d="M 2.921875 0.09375 C 2.359375 0.09375 1.925781 -0.0625 1.625 -0.375 C 1.332031 -0.695312 1.1875 -1.132812 1.1875 -1.6875 L 1.1875 -5.3125 L 0.515625 -5.3125 C 0.429688 -5.3125 0.359375 -5.335938 0.296875 -5.390625 C 0.242188 -5.441406 0.21875 -5.523438 0.21875 -5.640625 L 0.21875 -6.25 L 1.25 -6.421875 L 1.578125 -8.1875 C 1.597656 -8.269531 1.640625 -8.332031 1.703125 -8.375 C 1.765625 -8.425781 1.84375 -8.453125 1.9375 -8.453125 L 2.734375 -8.453125 L 2.734375 -6.421875 L 4.46875 -6.421875 L 4.46875 -5.3125 L 2.734375 -5.3125 L 2.734375 -1.796875 C 2.734375 -1.597656 2.78125 -1.441406 2.875 -1.328125 C 2.976562 -1.210938 3.117188 -1.15625 3.296875 -1.15625 C 3.390625 -1.15625 3.46875 -1.164062 3.53125 -1.1875 C 3.601562 -1.207031 3.660156 -1.226562 3.703125 -1.25 C 3.753906 -1.28125 3.796875 -1.304688 3.828125 -1.328125 C 3.867188 -1.359375 3.910156 -1.375 3.953125 -1.375 C 3.992188 -1.375 4.03125 -1.359375 4.0625 -1.328125 C 4.09375 -1.304688 4.125 -1.273438 4.15625 -1.234375 L 4.625 -0.46875 C 4.394531 -0.28125 4.132812 -0.140625 3.84375 -0.046875 C 3.550781 0.046875 3.242188 0.09375 2.921875 0.09375 Z M 2.921875 0.09375 "/></g></g></g><g fill="rgb(100%, 100%, 100%)" fill-opacity="1"><g transform="translate(399.49582, 101.448327)"><g><path d="M 4.9375 -3.984375 C 4.9375 -4.179688 4.90625 -4.367188 4.84375 -4.546875 C 4.789062 -4.734375 4.707031 -4.894531 4.59375 -5.03125 C 4.488281 -5.164062 4.347656 -5.269531 4.171875 -5.34375 C 3.992188 -5.414062 3.789062 -5.453125 3.5625 -5.453125 C 3.113281 -5.453125 2.757812 -5.320312 2.5 -5.0625 C 2.238281 -4.8125 2.070312 -4.453125 2 -3.984375 Z M 1.96875 -3.046875 C 1.988281 -2.710938 2.046875 -2.421875 2.140625 -2.171875 C 2.234375 -1.929688 2.351562 -1.734375 2.5 -1.578125 C 2.65625 -1.421875 2.835938 -1.300781 3.046875 -1.21875 C 3.253906 -1.144531 3.488281 -1.109375 3.75 -1.109375 C 4 -1.109375 4.210938 -1.132812 4.390625 -1.1875 C 4.578125 -1.25 4.738281 -1.316406 4.875 -1.390625 C 5.007812 -1.460938 5.128906 -1.523438 5.234375 -1.578125 C 5.335938 -1.640625 5.4375 -1.671875 5.53125 -1.671875 C 5.664062 -1.671875 5.765625 -1.625 5.828125 -1.53125 L 6.28125 -0.96875 C 6.101562 -0.757812 5.90625 -0.585938 5.6875 -0.453125 C 5.476562 -0.316406 5.253906 -0.207031 5.015625 -0.125 C 4.785156 -0.0390625 4.550781 0.015625 4.3125 0.046875 C 4.070312 0.078125 3.835938 0.09375 3.609375 0.09375 C 3.148438 0.09375 2.726562 0.0195312 2.34375 -0.125 C 1.957031 -0.28125 1.617188 -0.503906 1.328125 -0.796875 C 1.046875 -1.085938 0.820312 -1.445312 0.65625 -1.875 C 0.5 -2.3125 0.421875 -2.8125 0.421875 -3.375 C 0.421875 -3.820312 0.488281 -4.238281 0.625 -4.625 C 0.769531 -5.007812 0.972656 -5.347656 1.234375 -5.640625 C 1.503906 -5.929688 1.832031 -6.160156 2.21875 -6.328125 C 2.601562 -6.492188 3.039062 -6.578125 3.53125 -6.578125 C 3.9375 -6.578125 4.3125 -6.507812 4.65625 -6.375 C 5 -6.25 5.296875 -6.0625 5.546875 -5.8125 C 5.796875 -5.5625 5.988281 -5.253906 6.125 -4.890625 C 6.269531 -4.523438 6.34375 -4.109375 6.34375 -3.640625 C 6.34375 -3.398438 6.316406 -3.238281 6.265625 -3.15625 C 6.210938 -3.082031 6.117188 -3.046875 5.984375 -3.046875 Z M 1.96875 -3.046875 "/></g></g></g><g fill="rgb(100%, 100%, 100%)" fill-opacity="1"><g transform="translate(406.233434, 101.448327)"><g><path d="M 4.828125 -4.828125 C 4.660156 -5.035156 4.472656 -5.179688 4.265625 -5.265625 C 4.054688 -5.359375 3.828125 -5.40625 3.578125 -5.40625 C 3.347656 -5.40625 3.132812 -5.359375 2.9375 -5.265625 C 2.75 -5.179688 2.585938 -5.050781 2.453125 -4.875 C 2.328125 -4.695312 2.226562 -4.46875 2.15625 -4.1875 C 2.082031 -3.914062 2.046875 -3.59375 2.046875 -3.21875 C 2.046875 -2.84375 2.078125 -2.519531 2.140625 -2.25 C 2.203125 -1.988281 2.285156 -1.773438 2.390625 -1.609375 C 2.503906 -1.441406 2.644531 -1.320312 2.8125 -1.25 C 2.976562 -1.175781 3.160156 -1.140625 3.359375 -1.140625 C 3.679688 -1.140625 3.957031 -1.207031 4.1875 -1.34375 C 4.414062 -1.476562 4.628906 -1.671875 4.828125 -1.921875 Z M 6.390625 -9.375 L 6.390625 0 L 5.4375 0 C 5.226562 0 5.097656 -0.09375 5.046875 -0.28125 L 4.921875 -0.90625 C 4.660156 -0.601562 4.359375 -0.359375 4.015625 -0.171875 C 3.679688 0.00390625 3.285156 0.09375 2.828125 0.09375 C 2.472656 0.09375 2.148438 0.0195312 1.859375 -0.125 C 1.566406 -0.269531 1.3125 -0.484375 1.09375 -0.765625 C 0.882812 -1.046875 0.722656 -1.390625 0.609375 -1.796875 C 0.492188 -2.210938 0.4375 -2.6875 0.4375 -3.21875 C 0.4375 -3.695312 0.5 -4.140625 0.625 -4.546875 C 0.757812 -4.960938 0.945312 -5.320312 1.1875 -5.625 C 1.4375 -5.925781 1.726562 -6.160156 2.0625 -6.328125 C 2.40625 -6.503906 2.789062 -6.59375 3.21875 -6.59375 C 3.582031 -6.59375 3.890625 -6.535156 4.140625 -6.421875 C 4.398438 -6.304688 4.628906 -6.15625 4.828125 -5.96875 L 4.828125 -9.375 Z M 6.390625 -9.375 "/></g></g></g><g fill="rgb(100%, 100%, 100%)" fill-opacity="1"><g transform="translate(374.084664, 137.447485)"><g><path d="M 5.875 -7.46875 C 5.820312 -7.375 5.765625 -7.304688 5.703125 -7.265625 C 5.648438 -7.234375 5.582031 -7.21875 5.5 -7.21875 C 5.414062 -7.21875 5.320312 -7.25 5.21875 -7.3125 C 5.113281 -7.375 4.988281 -7.445312 4.84375 -7.53125 C 4.707031 -7.613281 4.539062 -7.6875 4.34375 -7.75 C 4.15625 -7.8125 3.929688 -7.84375 3.671875 -7.84375 C 3.429688 -7.84375 3.222656 -7.8125 3.046875 -7.75 C 2.867188 -7.695312 2.71875 -7.617188 2.59375 -7.515625 C 2.476562 -7.421875 2.390625 -7.300781 2.328125 -7.15625 C 2.273438 -7.019531 2.25 -6.867188 2.25 -6.703125 C 2.25 -6.484375 2.304688 -6.300781 2.421875 -6.15625 C 2.546875 -6.019531 2.707031 -5.898438 2.90625 -5.796875 C 3.101562 -5.691406 3.328125 -5.597656 3.578125 -5.515625 C 3.828125 -5.441406 4.082031 -5.359375 4.34375 -5.265625 C 4.613281 -5.171875 4.875 -5.0625 5.125 -4.9375 C 5.382812 -4.820312 5.613281 -4.671875 5.8125 -4.484375 C 6.007812 -4.304688 6.164062 -4.082031 6.28125 -3.8125 C 6.40625 -3.550781 6.46875 -3.234375 6.46875 -2.859375 C 6.46875 -2.441406 6.394531 -2.050781 6.25 -1.6875 C 6.113281 -1.332031 5.910156 -1.019531 5.640625 -0.75 C 5.367188 -0.488281 5.035156 -0.28125 4.640625 -0.125 C 4.242188 0.0195312 3.796875 0.09375 3.296875 0.09375 C 3.003906 0.09375 2.71875 0.0664062 2.4375 0.015625 C 2.15625 -0.0351562 1.882812 -0.113281 1.625 -0.21875 C 1.363281 -0.332031 1.117188 -0.460938 0.890625 -0.609375 C 0.671875 -0.753906 0.472656 -0.914062 0.296875 -1.09375 L 0.796875 -1.90625 C 0.835938 -1.96875 0.890625 -2.019531 0.953125 -2.0625 C 1.015625 -2.101562 1.085938 -2.125 1.171875 -2.125 C 1.273438 -2.125 1.382812 -2.078125 1.5 -1.984375 C 1.625 -1.898438 1.769531 -1.804688 1.9375 -1.703125 C 2.113281 -1.597656 2.3125 -1.5 2.53125 -1.40625 C 2.757812 -1.320312 3.03125 -1.28125 3.34375 -1.28125 C 3.832031 -1.28125 4.207031 -1.394531 4.46875 -1.625 C 4.726562 -1.851562 4.859375 -2.1875 4.859375 -2.625 C 4.859375 -2.863281 4.796875 -3.054688 4.671875 -3.203125 C 4.554688 -3.359375 4.398438 -3.488281 4.203125 -3.59375 C 4.003906 -3.695312 3.78125 -3.78125 3.53125 -3.84375 C 3.28125 -3.914062 3.023438 -3.992188 2.765625 -4.078125 C 2.503906 -4.160156 2.242188 -4.257812 1.984375 -4.375 C 1.734375 -4.5 1.507812 -4.65625 1.3125 -4.84375 C 1.113281 -5.03125 0.953125 -5.265625 0.828125 -5.546875 C 0.710938 -5.835938 0.65625 -6.191406 0.65625 -6.609375 C 0.65625 -6.941406 0.722656 -7.265625 0.859375 -7.578125 C 0.992188 -7.898438 1.1875 -8.179688 1.4375 -8.421875 C 1.6875 -8.660156 1.992188 -8.851562 2.359375 -9 C 2.734375 -9.15625 3.164062 -9.234375 3.65625 -9.234375 C 4.1875 -9.234375 4.675781 -9.144531 5.125 -8.96875 C 5.582031 -8.800781 5.972656 -8.566406 6.296875 -8.265625 Z M 5.875 -7.46875 "/></g></g></g><g fill="rgb(100%, 100%, 100%)" fill-opacity="1"><g transform="translate(381.005228, 137.447485)"><g><path d="M 2.921875 0.09375 C 2.359375 0.09375 1.925781 -0.0625 1.625 -0.375 C 1.332031 -0.695312 1.1875 -1.132812 1.1875 -1.6875 L 1.1875 -5.3125 L 0.515625 -5.3125 C 0.429688 -5.3125 0.359375 -5.335938 0.296875 -5.390625 C 0.242188 -5.441406 0.21875 -5.523438 0.21875 -5.640625 L 0.21875 -6.25 L 1.25 -6.421875 L 1.578125 -8.1875 C 1.597656 -8.269531 1.640625 -8.332031 1.703125 -8.375 C 1.765625 -8.425781 1.84375 -8.453125 1.9375 -8.453125 L 2.734375 -8.453125 L 2.734375 -6.421875 L 4.46875 -6.421875 L 4.46875 -5.3125 L 2.734375 -5.3125 L 2.734375 -1.796875 C 2.734375 -1.597656 2.78125 -1.441406 2.875 -1.328125 C 2.976562 -1.210938 3.117188 -1.15625 3.296875 -1.15625 C 3.390625 -1.15625 3.46875 -1.164062 3.53125 -1.1875 C 3.601562 -1.207031 3.660156 -1.226562 3.703125 -1.25 C 3.753906 -1.28125 3.796875 -1.304688 3.828125 -1.328125 C 3.867188 -1.359375 3.910156 -1.375 3.953125 -1.375 C 3.992188 -1.375 4.03125 -1.359375 4.0625 -1.328125 C 4.09375 -1.304688 4.125 -1.273438 4.15625 -1.234375 L 4.625 -0.46875 C 4.394531 -0.28125 4.132812 -0.140625 3.84375 -0.046875 C 3.550781 0.046875 3.242188 0.09375 2.921875 0.09375 Z M 2.921875 0.09375 "/></g></g></g><g fill="rgb(100%, 100%, 100%)" fill-opacity="1"><g transform="translate(385.698848, 137.447485)"><g><path d="M 4.1875 -2.765625 C 3.738281 -2.742188 3.359375 -2.703125 3.046875 -2.640625 C 2.742188 -2.585938 2.5 -2.515625 2.3125 -2.421875 C 2.125 -2.335938 1.988281 -2.234375 1.90625 -2.109375 C 1.832031 -1.992188 1.796875 -1.867188 1.796875 -1.734375 C 1.796875 -1.460938 1.875 -1.265625 2.03125 -1.140625 C 2.195312 -1.023438 2.410156 -0.96875 2.671875 -0.96875 C 2.992188 -0.96875 3.269531 -1.023438 3.5 -1.140625 C 3.738281 -1.253906 3.96875 -1.429688 4.1875 -1.671875 Z M 0.625 -5.578125 C 1.363281 -6.253906 2.257812 -6.59375 3.3125 -6.59375 C 3.6875 -6.59375 4.019531 -6.53125 4.3125 -6.40625 C 4.613281 -6.28125 4.867188 -6.109375 5.078125 -5.890625 C 5.285156 -5.671875 5.441406 -5.40625 5.546875 -5.09375 C 5.660156 -4.789062 5.71875 -4.457031 5.71875 -4.09375 L 5.71875 0 L 5 0 C 4.851562 0 4.738281 -0.0195312 4.65625 -0.0625 C 4.582031 -0.101562 4.519531 -0.191406 4.46875 -0.328125 L 4.34375 -0.796875 C 4.175781 -0.648438 4.015625 -0.519531 3.859375 -0.40625 C 3.703125 -0.300781 3.539062 -0.207031 3.375 -0.125 C 3.207031 -0.0507812 3.023438 0 2.828125 0.03125 C 2.640625 0.0703125 2.429688 0.09375 2.203125 0.09375 C 1.921875 0.09375 1.664062 0.0546875 1.4375 -0.015625 C 1.207031 -0.0859375 1.007812 -0.195312 0.84375 -0.34375 C 0.675781 -0.488281 0.546875 -0.671875 0.453125 -0.890625 C 0.359375 -1.109375 0.3125 -1.363281 0.3125 -1.65625 C 0.3125 -1.820312 0.335938 -1.984375 0.390625 -2.140625 C 0.441406 -2.304688 0.53125 -2.460938 0.65625 -2.609375 C 0.78125 -2.753906 0.941406 -2.890625 1.140625 -3.015625 C 1.335938 -3.148438 1.578125 -3.265625 1.859375 -3.359375 C 2.148438 -3.460938 2.488281 -3.539062 2.875 -3.59375 C 3.257812 -3.65625 3.695312 -3.695312 4.1875 -3.71875 L 4.1875 -4.09375 C 4.1875 -4.519531 4.09375 -4.835938 3.90625 -5.046875 C 3.726562 -5.253906 3.460938 -5.359375 3.109375 -5.359375 C 2.859375 -5.359375 2.648438 -5.328125 2.484375 -5.265625 C 2.316406 -5.210938 2.171875 -5.148438 2.046875 -5.078125 C 1.921875 -5.003906 1.804688 -4.9375 1.703125 -4.875 C 1.597656 -4.820312 1.484375 -4.796875 1.359375 -4.796875 C 1.242188 -4.796875 1.148438 -4.820312 1.078125 -4.875 C 1.003906 -4.9375 0.941406 -5.003906 0.890625 -5.078125 Z M 0.625 -5.578125 "/></g></g></g><g fill="rgb(100%, 100%, 100%)" fill-opacity="1"><g transform="translate(392.102107, 137.447485)"><g><path d="M 5.40625 -5.109375 C 5.363281 -5.046875 5.316406 -5 5.265625 -4.96875 C 5.222656 -4.9375 5.160156 -4.921875 5.078125 -4.921875 C 5.003906 -4.921875 4.925781 -4.941406 4.84375 -4.984375 C 4.769531 -5.035156 4.679688 -5.09375 4.578125 -5.15625 C 4.472656 -5.21875 4.347656 -5.269531 4.203125 -5.3125 C 4.054688 -5.363281 3.875 -5.390625 3.65625 -5.390625 C 3.382812 -5.390625 3.144531 -5.335938 2.9375 -5.234375 C 2.726562 -5.140625 2.554688 -5 2.421875 -4.8125 C 2.285156 -4.625 2.179688 -4.398438 2.109375 -4.140625 C 2.046875 -3.878906 2.015625 -3.582031 2.015625 -3.25 C 2.015625 -2.90625 2.050781 -2.597656 2.125 -2.328125 C 2.195312 -2.054688 2.300781 -1.828125 2.4375 -1.640625 C 2.582031 -1.460938 2.753906 -1.328125 2.953125 -1.234375 C 3.148438 -1.140625 3.375 -1.09375 3.625 -1.09375 C 3.875 -1.09375 4.070312 -1.125 4.21875 -1.1875 C 4.375 -1.25 4.503906 -1.316406 4.609375 -1.390625 C 4.710938 -1.460938 4.800781 -1.523438 4.875 -1.578125 C 4.957031 -1.640625 5.050781 -1.671875 5.15625 -1.671875 C 5.28125 -1.671875 5.375 -1.625 5.4375 -1.53125 L 5.890625 -0.96875 C 5.710938 -0.757812 5.519531 -0.585938 5.3125 -0.453125 C 5.113281 -0.316406 4.90625 -0.207031 4.6875 -0.125 C 4.476562 -0.0390625 4.257812 0.015625 4.03125 0.046875 C 3.800781 0.078125 3.570312 0.09375 3.34375 0.09375 C 2.9375 0.09375 2.554688 0.0195312 2.203125 -0.125 C 1.847656 -0.28125 1.539062 -0.5 1.28125 -0.78125 C 1.019531 -1.070312 0.8125 -1.421875 0.65625 -1.828125 C 0.5 -2.242188 0.421875 -2.71875 0.421875 -3.25 C 0.421875 -3.726562 0.488281 -4.171875 0.625 -4.578125 C 0.757812 -4.984375 0.957031 -5.332031 1.21875 -5.625 C 1.488281 -5.925781 1.816406 -6.160156 2.203125 -6.328125 C 2.597656 -6.492188 3.050781 -6.578125 3.5625 -6.578125 C 4.050781 -6.578125 4.476562 -6.5 4.84375 -6.34375 C 5.207031 -6.1875 5.53125 -5.960938 5.8125 -5.671875 Z M 5.40625 -5.109375 "/></g></g></g><g fill="rgb(100%, 100%, 100%)" fill-opacity="1"><g transform="translate(398.183623, 137.447485)"><g><path d="M 2.328125 -9.375 L 2.328125 -4.015625 L 2.625 -4.015625 C 2.726562 -4.015625 2.804688 -4.023438 2.859375 -4.046875 C 2.921875 -4.078125 2.988281 -4.132812 3.0625 -4.21875 L 4.671875 -6.203125 C 4.734375 -6.296875 4.804688 -6.363281 4.890625 -6.40625 C 4.972656 -6.457031 5.078125 -6.484375 5.203125 -6.484375 L 6.640625 -6.484375 L 4.625 -4.078125 C 4.476562 -3.878906 4.320312 -3.734375 4.15625 -3.640625 C 4.238281 -3.578125 4.316406 -3.5 4.390625 -3.40625 C 4.460938 -3.320312 4.53125 -3.234375 4.59375 -3.140625 L 6.75 0 L 5.34375 0 C 5.21875 0 5.109375 -0.0195312 5.015625 -0.0625 C 4.929688 -0.101562 4.859375 -0.175781 4.796875 -0.28125 L 3.15625 -2.734375 C 3.09375 -2.828125 3.03125 -2.890625 2.96875 -2.921875 C 2.90625 -2.953125 2.8125 -2.96875 2.6875 -2.96875 L 2.328125 -2.96875 L 2.328125 0 L 0.765625 0 L 0.765625 -9.375 Z M 2.328125 -9.375 "/></g></g></g></svg>