<svg xmlns="http://www.w3.org/2000/svg" xmlns:xlink="http://www.w3.org/1999/xlink" width="500" zoomAndPan="magnify" viewBox="0 0 375 374.999991" height="500" preserveAspectRatio="xMidYMid meet" version="1.0"><defs><clipPath id="id1"><path d="M 161.265625 20.25 L 369.195312 20.25 L 369.195312 356.25 L 161.265625 356.25 Z M 161.265625 20.25 " clip-rule="nonzero"/></clipPath><clipPath id="id2"><path d="M 125.589844 246.546875 L 369.195312 246.546875 L 369.195312 356.25 L 125.589844 356.25 Z M 125.589844 246.546875 " clip-rule="nonzero"/></clipPath><clipPath id="id3"><path d="M 5.558594 191 L 7 191 L 7 192 L 5.558594 192 Z M 5.558594 191 " clip-rule="nonzero"/></clipPath><clipPath id="id4"><path d="M 5.558594 191 L 7 191 L 7 192 L 5.558594 192 Z M 5.558594 191 " clip-rule="nonzero"/></clipPath></defs><path fill="rgb(79.60968%, 41.569519%, 11.759949%)" d="M 247.261719 254.066406 C 247.261719 254.066406 187.171875 296.589844 125.828125 274.121094 C 116.636719 255.738281 232.523438 231.097656 232.523438 231.097656 L 247.261719 254.066406 " fill-opacity="1" fill-rule="evenodd"/><path fill="rgb(79.60968%, 41.569519%, 11.759949%)" d="M 272.25 150.847656 C 236.59375 176.511719 223.976562 144.585938 195.054688 175.921875 C 197.007812 177.21875 197.613281 179.832031 196.394531 181.863281 C 194.21875 184.390625 191.832031 186.464844 196.660156 188.234375 C 197.371094 192.242188 188.535156 192.253906 187.476562 185.128906 L 187.375 185.257812 L 187.457031 184.988281 C 187.195312 183 187.53125 180.46875 188.824219 177.328125 C 189.300781 176.535156 189.988281 175.941406 190.769531 175.582031 C 205.628906 141.003906 232.859375 162.429688 253.46875 135.332031 C 257.75 130.144531 265.425781 129.410156 270.613281 133.695312 C 275.800781 137.980469 276.53125 145.660156 272.25 150.847656 " fill-opacity="1" fill-rule="evenodd"/><path fill="rgb(79.60968%, 41.569519%, 11.759949%)" d="M 241.601562 70.507812 C 237.453125 72.695312 228.242188 63.375 221.023438 49.6875 C 213.808594 36 211.320312 23.132812 215.46875 20.941406 C 219.617188 18.753906 228.828125 28.078125 236.046875 41.765625 C 243.261719 55.449219 245.75 68.320312 241.601562 70.507812 " fill-opacity="1" fill-rule="evenodd"/><g clip-path="url(#id1)"><path fill="rgb(93.728638%, 49.798584%, 10.198975%)" d="M 227.921875 120.988281 C 205.054688 122.941406 173.925781 130.046875 169.621094 123.492188 C 167.40625 120.113281 157.9375 111.480469 162.703125 109.058594 C 170.617188 105.042969 180.066406 94.558594 190.351562 87.808594 C 196.695312 83.644531 203.234375 80.730469 209.214844 79.15625 C 213.625 67.851562 224.613281 59.84375 237.472656 59.84375 L 238.300781 59.855469 C 239.367188 54.746094 241.746094 48.347656 245.21875 41.765625 C 252.433594 28.078125 261.644531 18.757812 265.789062 20.945312 C 269.941406 23.132812 267.453125 36.003906 260.234375 49.6875 C 257.441406 54.988281 254.351562 59.632812 251.367188 63.207031 C 261.125 68.25 267.796875 78.433594 267.796875 90.179688 C 267.796875 96.089844 266.109375 101.597656 263.191406 106.261719 C 285.308594 165.683594 325.371094 171.445312 369.195312 186.722656 L 369.195312 356.273438 L 316.097656 356.273438 C 310.070312 341.53125 304.671875 328.644531 300.96875 319.902344 C 297.179688 314.453125 288.332031 308.664062 296.78125 297.316406 C 309.125 280.898438 192.769531 275.84375 227.921875 120.988281 " fill-opacity="1" fill-rule="evenodd"/></g><path fill="rgb(93.728638%, 49.798584%, 10.198975%)" d="M 267.335938 147.945312 C 231.679688 173.609375 219.0625 141.683594 190.144531 173.015625 C 192.09375 174.316406 192.699219 176.925781 191.484375 178.960938 C 189.304688 181.484375 186.917969 183.5625 191.746094 185.332031 C 192.457031 189.339844 183.621094 189.351562 182.5625 182.222656 L 182.464844 182.355469 L 182.542969 182.085938 C 182.28125 180.097656 182.617188 177.566406 183.910156 174.421875 C 184.386719 173.628906 185.074219 173.039062 185.855469 172.679688 C 200.714844 138.101562 227.945312 159.527344 248.554688 132.429688 C 252.835938 127.238281 260.515625 126.507812 265.699219 130.792969 C 270.886719 135.078125 271.617188 142.757812 267.335938 147.945312 " fill-opacity="1" fill-rule="evenodd"/><g clip-path="url(#id2)"><path fill="rgb(93.728638%, 49.798584%, 10.198975%)" d="M 245.273438 246.550781 C 221.464844 269.179688 162.578125 283.3125 125.828125 274.121094 C 125.828125 274.121094 195.988281 332.609375 299 356.273438 L 369.195312 356.273438 L 369.195312 306.226562 C 316.375 276.375 245.273438 246.550781 245.273438 246.550781 " fill-opacity="1" fill-rule="evenodd"/></g><path fill="rgb(79.60968%, 41.569519%, 11.759949%)" d="M 145.84375 225.382812 C 145.84375 225.382812 109.917969 250.804688 73.238281 237.371094 C 67.746094 226.382812 137.03125 211.648438 137.03125 211.648438 L 145.84375 225.382812 " fill-opacity="1" fill-rule="evenodd"/><path fill="rgb(79.60968%, 41.569519%, 11.759949%)" d="M 140.644531 180 C 124.515625 191.609375 118.8125 177.167969 105.730469 191.339844 C 106.609375 191.929688 106.886719 193.109375 106.335938 194.027344 C 105.351562 195.171875 104.269531 196.109375 106.453125 196.910156 C 106.777344 198.722656 102.777344 198.730469 102.300781 195.503906 L 102.257812 195.5625 L 102.292969 195.441406 C 102.175781 194.542969 102.324219 193.398438 102.910156 191.976562 C 103.125 191.617188 103.4375 191.351562 103.789062 191.1875 C 110.511719 175.546875 122.828125 185.238281 132.148438 172.980469 C 134.085938 170.636719 137.558594 170.304688 139.902344 172.242188 C 142.25 174.179688 142.578125 177.652344 140.644531 180 " fill-opacity="1" fill-rule="evenodd"/><path fill="rgb(79.60968%, 41.569519%, 11.759949%)" d="M 125.605469 145.277344 C 123.730469 146.269531 119.5625 142.050781 116.296875 135.859375 C 113.035156 129.671875 111.910156 123.847656 113.785156 122.859375 C 115.660156 121.871094 119.828125 126.085938 123.09375 132.277344 C 126.355469 138.464844 127.480469 144.289062 125.605469 145.277344 " fill-opacity="1" fill-rule="evenodd"/><path fill="rgb(93.728638%, 49.798584%, 10.198975%)" d="M 119.417969 168.109375 C 109.074219 168.992188 94.996094 172.207031 93.050781 169.242188 C 92.046875 167.710938 87.761719 163.808594 89.917969 162.714844 C 93.5 160.898438 97.773438 156.15625 102.425781 153.101562 C 105.296875 151.21875 108.25 149.898438 110.957031 149.1875 C 112.953125 144.074219 117.921875 140.453125 123.738281 140.453125 L 124.113281 140.460938 C 124.59375 138.148438 125.671875 135.253906 127.242188 132.277344 C 130.503906 126.085938 134.671875 121.871094 136.546875 122.859375 C 138.421875 123.847656 137.296875 129.671875 134.035156 135.859375 C 132.769531 138.257812 131.371094 140.359375 130.023438 141.976562 C 134.433594 144.253906 137.453125 148.863281 137.453125 154.175781 C 137.453125 156.847656 136.691406 159.339844 135.371094 161.449219 C 152.652344 207.875 194.152344 181.878906 226.808594 230.757812 C 230.148438 234.445312 234.160156 240.878906 238.757812 248.550781 C 222.441406 261.316406 195.023438 270.824219 168.296875 274.015625 L 152.457031 258.078125 C 150.742188 255.613281 146.742188 252.996094 150.5625 247.863281 C 156.148438 240.4375 103.515625 238.152344 119.417969 168.109375 " fill-opacity="1" fill-rule="evenodd"/><path fill="rgb(93.728638%, 49.798584%, 10.198975%)" d="M 138.417969 178.6875 C 122.292969 190.292969 116.589844 175.855469 103.507812 190.027344 C 104.390625 190.613281 104.664062 191.796875 104.113281 192.714844 C 103.128906 193.859375 102.046875 194.796875 104.234375 195.597656 C 104.550781 197.410156 100.558594 197.414062 100.078125 194.191406 L 100.03125 194.25 L 100.070312 194.128906 C 99.949219 193.230469 100.101562 192.082031 100.6875 190.664062 C 100.902344 190.304688 101.214844 190.039062 101.566406 189.875 C 108.289062 174.234375 120.605469 183.925781 129.925781 171.667969 C 131.863281 169.324219 135.335938 168.992188 137.683594 170.929688 C 140.027344 172.867188 140.359375 176.339844 138.417969 178.6875 " fill-opacity="1" fill-rule="evenodd"/><path fill="rgb(93.728638%, 49.798584%, 10.198975%)" d="M 127.265625 224.898438 C 116.496094 235.136719 89.863281 241.53125 73.238281 237.371094 C 73.238281 237.371094 106.148438 264.804688 154.144531 275.101562 C 170.699219 274.566406 188.375 271.273438 204.167969 266 C 187.121094 250.011719 127.265625 224.898438 127.265625 224.898438 " fill-opacity="1" fill-rule="evenodd"/><path fill="rgb(79.60968%, 41.569519%, 11.759949%)" d="M 77.246094 211.871094 C 77.246094 211.871094 58.4375 224.289062 39.886719 216.808594 C 37.253906 211.089844 72.960938 204.695312 72.960938 204.695312 L 77.246094 211.871094 " fill-opacity="1" fill-rule="evenodd"/><path fill="rgb(79.60968%, 41.569519%, 11.759949%)" d="M 75.335938 188.558594 C 66.886719 194.230469 64.207031 186.746094 57.277344 193.785156 C 57.71875 194.097656 57.839844 194.707031 57.539062 195.167969 C 57.019531 195.738281 56.449219 196.199219 57.554688 196.644531 C 57.691406 197.578125 55.644531 197.515625 55.453125 195.859375 L 55.429688 195.886719 L 55.449219 195.824219 C 55.402344 195.363281 55.5 194.78125 55.824219 194.0625 C 55.9375 193.882812 56.101562 193.75 56.285156 193.671875 C 59.984375 185.777344 66.128906 190.945312 71.101562 184.824219 C 72.132812 183.65625 73.914062 183.542969 75.085938 184.574219 C 76.253906 185.605469 76.363281 187.386719 75.335938 188.558594 " fill-opacity="1" fill-rule="evenodd"/><path fill="rgb(79.60968%, 41.569519%, 11.759949%)" d="M 68.210938 170.535156 C 67.234375 171.011719 65.171875 168.785156 63.601562 165.5625 C 62.035156 162.339844 61.558594 159.339844 62.53125 158.863281 C 63.507812 158.386719 65.574219 160.617188 67.140625 163.839844 C 68.707031 167.0625 69.1875 170.058594 68.210938 170.535156 " fill-opacity="1" fill-rule="evenodd"/><path fill="rgb(93.728638%, 49.798584%, 10.198975%)" d="M 64.664062 182.121094 C 59.359375 182.398438 52.101562 183.8125 51.152344 182.261719 C 50.664062 181.464844 48.535156 179.394531 49.65625 178.867188 C 51.519531 178 53.785156 175.640625 56.21875 174.15625 C 57.71875 173.238281 59.253906 172.613281 60.648438 172.292969 C 61.753906 169.710938 64.359375 167.9375 67.335938 168.035156 L 67.527344 168.046875 C 67.8125 166.871094 68.410156 165.40625 69.265625 163.90625 C 71.035156 160.792969 73.238281 158.707031 74.183594 159.242188 C 75.128906 159.777344 74.457031 162.738281 72.683594 165.855469 C 71.996094 167.058594 71.246094 168.113281 70.527344 168.917969 C 72.75 170.160156 74.214844 172.566406 74.132812 175.285156 C 74.085938 176.652344 73.652344 177.917969 72.941406 178.976562 C 81.019531 203.023438 102.691406 190.40625 118.597656 215.964844 C 120.246094 217.90625 122.191406 221.265625 124.421875 225.269531 C 115.855469 231.535156 101.667969 235.945312 87.933594 237.136719 L 80.089844 228.714844 C 79.253906 227.425781 77.246094 226.019531 79.289062 223.457031 C 82.269531 219.746094 55.371094 217.707031 64.664062 182.121094 " fill-opacity="1" fill-rule="evenodd"/><path fill="rgb(93.728638%, 49.798584%, 10.198975%)" d="M 74.21875 187.847656 C 65.769531 193.523438 63.089844 186.039062 56.160156 193.074219 C 56.601562 193.390625 56.722656 194 56.425781 194.460938 C 55.902344 195.027344 55.335938 195.492188 56.4375 195.9375 C 56.574219 196.871094 54.527344 196.804688 54.335938 195.148438 L 54.3125 195.179688 L 54.332031 195.117188 C 54.285156 194.652344 54.382812 194.070312 54.707031 193.355469 C 54.824219 193.171875 54.988281 193.039062 55.171875 192.964844 C 58.871094 185.070312 65.011719 190.234375 69.988281 184.117188 C 71.019531 182.945312 72.800781 182.835938 73.96875 183.863281 C 75.136719 184.894531 75.25 186.679688 74.21875 187.847656 " fill-opacity="1" fill-rule="evenodd"/><path fill="rgb(93.728638%, 49.798584%, 10.198975%)" d="M 67.746094 211.316406 C 62.0625 216.378906 48.324219 219.210938 39.886719 216.808594 C 39.886719 216.808594 56.277344 231.394531 80.671875 237.457031 C 89.152344 237.457031 98.253906 236.066406 106.425781 233.628906 C 97.964844 225.160156 67.746094 211.316406 67.746094 211.316406 " fill-opacity="1" fill-rule="evenodd"/><path fill="rgb(79.60968%, 41.569519%, 11.759949%)" d="M 41.714844 203.234375 C 41.714844 203.234375 31.433594 209.050781 22 204.472656 C 20.828125 201.386719 39.734375 199.328125 39.734375 199.328125 L 41.714844 203.234375 " fill-opacity="1" fill-rule="evenodd"/><path fill="rgb(79.60968%, 41.569519%, 11.759949%)" d="M 41.554688 190.972656 C 36.933594 193.636719 35.796875 189.625 31.921875 193.054688 C 32.140625 193.234375 32.179688 193.558594 32.011719 193.789062 C 31.714844 194.066406 31.402344 194.289062 31.964844 194.5625 C 32 195.054688 30.933594 194.949219 30.890625 194.074219 L 30.878906 194.089844 L 30.890625 194.058594 C 30.882812 193.8125 30.957031 193.511719 31.148438 193.148438 C 31.21875 193.058594 31.308594 192.996094 31.40625 192.960938 C 33.625 188.964844 36.652344 191.890625 39.476562 188.867188 C 40.054688 188.292969 40.992188 188.296875 41.566406 188.878906 C 42.136719 189.460938 42.132812 190.398438 41.554688 190.972656 " fill-opacity="1" fill-rule="evenodd"/><path fill="rgb(79.60968%, 41.569519%, 11.759949%)" d="M 38.476562 181.289062 C 37.949219 181.503906 36.949219 180.265625 36.246094 178.523438 C 35.542969 176.78125 35.398438 175.195312 35.925781 174.980469 C 36.453125 174.769531 37.449219 176.007812 38.15625 177.75 C 38.859375 179.492188 39.003906 181.074219 38.476562 181.289062 " fill-opacity="1" fill-rule="evenodd"/><path fill="rgb(93.728638%, 49.798584%, 10.198975%)" d="M 36.203125 187.21875 C 33.417969 187.179688 29.570312 187.65625 29.128906 186.808594 C 28.90625 186.371094 27.867188 185.214844 28.472656 184.980469 C 29.476562 184.59375 30.746094 183.441406 32.070312 182.75 C 32.890625 182.328125 33.714844 182.054688 34.457031 181.9375 C 35.128906 180.625 36.554688 179.792969 38.109375 179.949219 L 38.207031 179.964844 C 38.398438 179.359375 38.765625 178.613281 39.265625 177.859375 C 40.304688 176.296875 41.53125 175.285156 42.003906 175.597656 C 42.476562 175.914062 42.019531 177.4375 40.984375 179 C 40.582031 179.609375 40.148438 180.132812 39.746094 180.527344 C 40.863281 181.257812 41.542969 182.566406 41.402344 183.988281 C 41.328125 184.699219 41.054688 185.347656 40.648438 185.875 C 44.007812 198.742188 55.792969 192.921875 63.195312 206.859375 C 63.988281 207.933594 64.886719 209.761719 65.90625 211.933594 C 61.203125 214.902344 53.625 216.703125 46.394531 216.832031 L 42.597656 212.144531 C 42.207031 211.441406 41.207031 210.632812 42.367188 209.367188 C 44.058594 207.53125 30.0625 205.5 36.203125 187.21875 " fill-opacity="1" fill-rule="evenodd"/><path fill="rgb(93.728638%, 49.798584%, 10.198975%)" d="M 40.996094 190.558594 C 36.371094 193.222656 35.242188 189.210938 31.363281 192.644531 C 31.582031 192.824219 31.625 193.148438 31.453125 193.378906 C 31.15625 193.65625 30.84375 193.878906 31.40625 194.152344 C 31.441406 194.644531 30.375 194.539062 30.335938 193.664062 L 30.320312 193.675781 L 30.335938 193.648438 C 30.328125 193.402344 30.398438 193.101562 30.59375 192.738281 C 30.660156 192.648438 30.75 192.585938 30.847656 192.550781 C 33.066406 188.554688 36.09375 191.476562 38.914062 188.457031 C 39.496094 187.882812 40.433594 187.886719 41.007812 188.46875 C 41.582031 189.046875 41.578125 189.984375 40.996094 190.558594 " fill-opacity="1" fill-rule="evenodd"/><path fill="rgb(93.728638%, 49.798584%, 10.198975%)" d="M 36.765625 202.601562 C 33.613281 205.042969 26.324219 206.03125 22 204.472656 C 22 204.472656 30.046875 212.691406 42.585938 216.738281 C 47.023438 217.042969 51.832031 216.644531 56.195312 215.660156 C 52.074219 210.929688 36.765625 202.601562 36.765625 202.601562 " fill-opacity="1" fill-rule="evenodd"/><path fill="rgb(79.60968%, 41.569519%, 11.759949%)" d="M 23.804688 197.890625 C 23.804688 197.890625 18.5 200.6875 13.785156 198.222656 C 13.238281 196.640625 22.855469 195.878906 22.855469 195.878906 L 23.804688 197.890625 " fill-opacity="1" fill-rule="evenodd"/><path fill="rgb(79.60968%, 41.569519%, 11.759949%)" d="M 23.90625 191.667969 C 21.519531 192.949219 21.007812 190.898438 18.988281 192.582031 C 19.097656 192.675781 19.113281 192.839844 19.023438 192.957031 C 18.867188 193.089844 18.707031 193.199219 18.988281 193.347656 C 19 193.597656 18.457031 193.527344 18.449219 193.082031 L 18.445312 193.089844 L 18.449219 193.074219 C 18.449219 192.949219 18.492188 192.796875 18.597656 192.617188 C 18.632812 192.570312 18.679688 192.539062 18.730469 192.527344 C 19.914062 190.53125 21.40625 192.058594 22.882812 190.570312 C 23.1875 190.285156 23.660156 190.304688 23.941406 190.605469 C 24.226562 190.910156 24.207031 191.386719 23.90625 191.667969 " fill-opacity="1" fill-rule="evenodd"/><path fill="rgb(79.60968%, 41.569519%, 11.759949%)" d="M 22.488281 186.710938 C 22.21875 186.808594 21.730469 186.167969 21.398438 185.273438 C 21.066406 184.378906 21.019531 183.574219 21.289062 183.472656 C 21.5625 183.371094 22.046875 184.015625 22.378906 184.910156 C 22.710938 185.804688 22.761719 186.609375 22.488281 186.710938 " fill-opacity="1" fill-rule="evenodd"/><path fill="rgb(93.728638%, 49.798584%, 10.198975%)" d="M 21.25 189.683594 C 19.835938 189.621094 17.878906 189.804688 17.667969 189.371094 C 17.558594 189.148438 17.050781 188.542969 17.359375 188.433594 C 17.875 188.25 18.535156 187.6875 19.21875 187.355469 C 19.640625 187.152344 20.0625 187.027344 20.441406 186.976562 C 20.800781 186.324219 21.539062 185.921875 22.324219 186.027344 L 22.375 186.03125 C 22.480469 185.730469 22.675781 185.359375 22.941406 184.984375 C 23.492188 184.207031 24.128906 183.710938 24.363281 183.875 C 24.601562 184.042969 24.34375 184.8125 23.792969 185.589844 C 23.582031 185.890625 23.355469 186.148438 23.144531 186.34375 C 23.699219 186.730469 24.023438 187.402344 23.933594 188.125 C 23.882812 188.484375 23.738281 188.804688 23.523438 189.066406 C 25.035156 195.644531 31.101562 192.871094 34.644531 200.050781 C 35.03125 200.609375 35.457031 201.546875 35.945312 202.667969 C 33.515625 204.101562 29.640625 204.898438 25.976562 204.855469 L 24.117188 202.425781 C 23.929688 202.0625 23.4375 201.636719 24.042969 201.007812 C 24.929688 200.105469 17.863281 198.863281 21.25 189.683594 " fill-opacity="1" fill-rule="evenodd"/><path fill="rgb(93.728638%, 49.798584%, 10.198975%)" d="M 23.628906 191.449219 C 21.246094 192.734375 20.730469 190.679688 18.710938 192.363281 C 18.820312 192.460938 18.835938 192.621094 18.746094 192.738281 C 18.589844 192.875 18.429688 192.980469 18.710938 193.128906 C 18.722656 193.378906 18.179688 193.308594 18.175781 192.863281 L 18.167969 192.871094 L 18.175781 192.855469 C 18.171875 192.734375 18.214844 192.582031 18.320312 192.398438 C 18.355469 192.355469 18.402344 192.324219 18.453125 192.308594 C 19.636719 190.316406 21.128906 191.839844 22.605469 190.351562 C 22.910156 190.070312 23.382812 190.085938 23.664062 190.390625 C 23.949219 190.691406 23.933594 191.167969 23.628906 191.449219 " fill-opacity="1" fill-rule="evenodd"/><path fill="rgb(93.728638%, 49.798584%, 10.198975%)" d="M 21.304688 197.496094 C 19.667969 198.6875 15.953125 199.078125 13.785156 198.222656 C 13.785156 198.222656 17.746094 202.511719 24.042969 204.753906 C 26.289062 204.972656 28.734375 204.84375 30.964844 204.410156 C 28.945312 201.949219 21.304688 197.496094 21.304688 197.496094 " fill-opacity="1" fill-rule="evenodd"/><path fill="rgb(79.60968%, 41.569519%, 11.759949%)" d="M 14.632812 194.824219 C 14.632812 194.824219 11.785156 196.164062 9.375 194.757812 C 9.125 193.914062 14.183594 193.746094 14.183594 193.746094 L 14.632812 194.824219 " fill-opacity="1" fill-rule="evenodd"/><path fill="rgb(79.60968%, 41.569519%, 11.759949%)" d="M 14.835938 191.5625 C 13.554688 192.179688 13.335938 191.089844 12.234375 191.925781 C 12.289062 191.976562 12.296875 192.0625 12.246094 192.121094 C 12.164062 192.191406 12.074219 192.242188 12.21875 192.328125 C 12.21875 192.457031 11.9375 192.40625 11.941406 192.175781 L 11.9375 192.179688 L 11.941406 192.167969 C 11.945312 192.105469 11.96875 192.027344 12.027344 191.933594 C 12.050781 191.914062 12.074219 191.898438 12.101562 191.890625 C 12.769531 190.875 13.515625 191.707031 14.324219 190.964844 C 14.492188 190.824219 14.738281 190.84375 14.878906 191.007812 C 15.019531 191.175781 15 191.421875 14.835938 191.5625 " fill-opacity="1" fill-rule="evenodd"/><path fill="rgb(79.60968%, 41.569519%, 11.759949%)" d="M 14.210938 188.929688 C 14.066406 188.976562 13.828125 188.628906 13.675781 188.152344 C 13.523438 187.675781 13.515625 187.253906 13.660156 187.207031 C 13.804688 187.160156 14.046875 187.507812 14.195312 187.984375 C 14.347656 188.460938 14.355469 188.886719 14.210938 188.929688 " fill-opacity="1" fill-rule="evenodd"/><path fill="rgb(93.728638%, 49.798584%, 10.198975%)" d="M 13.488281 190.460938 C 12.75 190.394531 11.71875 190.441406 11.621094 190.210938 C 11.570312 190.089844 11.316406 189.761719 11.480469 189.710938 C 11.757812 189.628906 12.117188 189.347656 12.480469 189.191406 C 12.707031 189.09375 12.933594 189.039062 13.132812 189.023438 C 13.335938 188.6875 13.730469 188.496094 14.140625 188.570312 L 14.167969 188.574219 C 14.230469 188.417969 14.339844 188.226562 14.488281 188.039062 C 14.796875 187.640625 15.144531 187.398438 15.261719 187.492188 C 15.382812 187.582031 15.230469 187.980469 14.921875 188.375 C 14.804688 188.527344 14.679688 188.65625 14.566406 188.753906 C 14.847656 188.96875 15 189.332031 14.933594 189.707031 C 14.898438 189.894531 14.816406 190.0625 14.695312 190.191406 C 15.332031 193.675781 18.578125 192.367188 20.265625 196.214844 C 20.453125 196.515625 20.65625 197.019531 20.882812 197.617188 C 19.574219 198.3125 17.527344 198.636719 15.605469 198.527344 L 14.691406 197.207031 C 14.601562 197.011719 14.351562 196.777344 14.683594 196.464844 C 15.167969 196.011719 11.496094 195.191406 13.488281 190.460938 " fill-opacity="1" fill-rule="evenodd"/><path fill="rgb(93.728638%, 49.798584%, 10.198975%)" d="M 14.695312 191.441406 C 13.414062 192.058594 13.191406 190.972656 12.097656 191.804688 C 12.152344 191.859375 12.15625 191.941406 12.105469 192 C 12.019531 192.070312 11.933594 192.121094 12.078125 192.207031 C 12.078125 192.335938 11.792969 192.285156 11.804688 192.054688 L 11.796875 192.058594 L 11.804688 192.050781 C 11.804688 191.984375 11.832031 191.90625 11.886719 191.8125 C 11.910156 191.792969 11.933594 191.777344 11.960938 191.769531 C 12.632812 190.753906 13.375 191.589844 14.183594 190.84375 C 14.351562 190.703125 14.597656 190.722656 14.742188 190.886719 C 14.882812 191.050781 14.859375 191.304688 14.695312 191.441406 " fill-opacity="1" fill-rule="evenodd"/><path fill="rgb(93.728638%, 49.798584%, 10.198975%)" d="M 13.332031 194.558594 C 12.445312 195.140625 10.492188 195.257812 9.375 194.757812 C 9.375 194.757812 11.347656 197.101562 14.597656 198.425781 C 15.769531 198.597656 17.050781 198.585938 18.230469 198.414062 C 17.230469 197.074219 13.332031 194.558594 13.332031 194.558594 " fill-opacity="1" fill-rule="evenodd"/><path fill="rgb(79.60968%, 41.569519%, 11.759949%)" d="M 9.976562 193.015625 C 9.976562 193.015625 8.496094 193.652344 7.28125 192.890625 C 7.167969 192.457031 9.761719 192.453125 9.761719 192.453125 L 9.976562 193.015625 " fill-opacity="1" fill-rule="evenodd"/><path fill="rgb(79.60968%, 41.569519%, 11.759949%)" d="M 10.132812 191.347656 C 9.464844 191.640625 9.371094 191.082031 8.792969 191.488281 C 8.824219 191.519531 8.824219 191.5625 8.796875 191.589844 C 8.753906 191.625 8.707031 191.648438 8.777344 191.695312 C 8.777344 191.761719 8.632812 191.730469 8.640625 191.613281 L 8.636719 191.613281 L 8.640625 191.609375 C 8.644531 191.578125 8.65625 191.539062 8.6875 191.492188 C 8.699219 191.480469 8.714844 191.472656 8.726562 191.46875 C 9.085938 190.960938 9.453125 191.402344 9.882812 191.03125 C 9.96875 190.964844 10.09375 190.976562 10.164062 191.066406 C 10.234375 191.152344 10.21875 191.277344 10.132812 191.347656 " fill-opacity="1" fill-rule="evenodd"/><path fill="rgb(79.60968%, 41.569519%, 11.759949%)" d="M 9.855469 189.988281 C 9.78125 190.011719 9.664062 189.828125 9.59375 189.582031 C 9.523438 189.335938 9.527344 189.121094 9.601562 189.097656 C 9.675781 189.074219 9.792969 189.257812 9.863281 189.507812 C 9.933594 189.753906 9.929688 189.96875 9.855469 189.988281 " fill-opacity="1" fill-rule="evenodd"/><path fill="rgb(93.728638%, 49.798584%, 10.198975%)" d="M 9.460938 190.761719 C 9.082031 190.714844 8.554688 190.726562 8.507812 190.601562 C 8.484375 190.539062 8.359375 190.367188 8.445312 190.34375 C 8.589844 190.304688 8.777344 190.171875 8.964844 190.097656 C 9.082031 190.050781 9.199219 190.023438 9.300781 190.019531 C 9.410156 189.851562 9.617188 189.761719 9.828125 189.804688 L 9.839844 189.804688 C 9.875 189.726562 9.933594 189.632812 10.011719 189.535156 C 10.175781 189.339844 10.359375 189.222656 10.417969 189.269531 C 10.476562 189.320312 10.394531 189.519531 10.230469 189.71875 C 10.164062 189.792969 10.101562 189.859375 10.039062 189.90625 C 10.179688 190.019531 10.253906 190.207031 10.210938 190.398438 C 10.191406 190.496094 10.144531 190.578125 10.082031 190.644531 C 10.351562 192.4375 12.035156 191.820312 12.832031 193.820312 C 12.925781 193.976562 13.019531 194.238281 13.125 194.546875 C 12.445312 194.882812 11.394531 195.011719 10.410156 194.925781 L 9.960938 194.234375 C 9.921875 194.132812 9.796875 194.007812 9.972656 193.855469 C 10.230469 193.632812 8.363281 193.148438 9.460938 190.761719 " fill-opacity="1" fill-rule="evenodd"/><path fill="rgb(93.728638%, 49.798584%, 10.198975%)" d="M 10.0625 191.285156 C 9.394531 191.578125 9.300781 191.019531 8.726562 191.425781 C 8.753906 191.453125 8.753906 191.5 8.726562 191.527344 C 8.683594 191.558594 8.636719 191.585938 8.707031 191.632812 C 8.707031 191.699219 8.5625 191.667969 8.570312 191.546875 L 8.570312 191.550781 L 8.570312 191.546875 C 8.574219 191.511719 8.589844 191.472656 8.621094 191.429688 C 8.628906 191.417969 8.644531 191.410156 8.65625 191.40625 C 9.015625 190.898438 9.382812 191.335938 9.808594 190.96875 C 9.898438 190.898438 10.027344 190.914062 10.09375 191 C 10.164062 191.089844 10.148438 191.214844 10.0625 191.285156 " fill-opacity="1" fill-rule="evenodd"/><path fill="rgb(93.728638%, 49.798584%, 10.198975%)" d="M 9.3125 192.855469 C 8.847656 193.140625 7.847656 193.167969 7.28125 192.890625 C 7.28125 192.890625 8.253906 194.125 9.894531 194.855469 C 10.492188 194.964844 11.148438 194.980469 11.757812 194.910156 C 11.265625 194.207031 9.3125 192.855469 9.3125 192.855469 " fill-opacity="1" fill-rule="evenodd"/><path fill="rgb(79.60968%, 41.569519%, 11.759949%)" d="M 7.582031 191.960938 C 7.582031 191.960938 6.785156 192.242188 6.175781 191.800781 C 6.136719 191.570312 7.492188 191.660156 7.492188 191.660156 L 7.582031 191.960938 " fill-opacity="1" fill-rule="evenodd"/><path fill="rgb(79.60968%, 41.569519%, 11.759949%)" d="M 7.722656 191.09375 C 7.367188 191.226562 7.335938 190.929688 7.019531 191.121094 C 7.03125 191.136719 7.03125 191.160156 7.015625 191.175781 C 6.992188 191.1875 6.96875 191.203125 7.003906 191.226562 C 7 191.261719 6.925781 191.242188 6.933594 191.179688 C 6.9375 191.160156 6.945312 191.140625 6.964844 191.117188 C 6.96875 191.113281 6.976562 191.109375 6.984375 191.109375 C 7.191406 190.855469 7.367188 191.097656 7.601562 190.921875 C 7.652344 190.886719 7.71875 190.902344 7.75 190.949219 C 7.785156 190.996094 7.773438 191.0625 7.722656 191.09375 " fill-opacity="1" fill-rule="evenodd"/><path fill="rgb(79.60968%, 41.569519%, 11.759949%)" d="M 7.628906 190.375 C 7.585938 190.382812 7.535156 190.285156 7.503906 190.152344 C 7.476562 190.019531 7.488281 189.90625 7.527344 189.898438 C 7.566406 189.890625 7.621094 189.988281 7.652344 190.121094 C 7.675781 190.253906 7.667969 190.367188 7.628906 190.375 " fill-opacity="1" fill-rule="evenodd"/><path fill="rgb(93.728638%, 49.798584%, 10.198975%)" d="M 7.394531 190.765625 C 7.199219 190.726562 6.921875 190.710938 6.902344 190.648438 C 6.890625 190.613281 6.832031 190.519531 6.878906 190.507812 C 6.953125 190.496094 7.054688 190.429688 7.15625 190.398438 C 7.222656 190.378906 7.28125 190.371094 7.335938 190.371094 C 7.398438 190.289062 7.511719 190.246094 7.617188 190.277344 L 7.625 190.28125 C 7.648438 190.238281 7.683594 190.191406 7.726562 190.144531 C 7.820312 190.046875 7.917969 189.992188 7.949219 190.019531 C 7.976562 190.046875 7.925781 190.148438 7.835938 190.246094 C 7.796875 190.285156 7.757812 190.3125 7.726562 190.339844 C 7.796875 190.402344 7.828125 190.503906 7.800781 190.601562 C 7.785156 190.652344 7.757812 190.691406 7.722656 190.726562 C 7.800781 191.671875 8.703125 191.410156 9.046875 192.484375 C 9.089844 192.570312 9.132812 192.710938 9.175781 192.875 C 8.804688 193.027344 8.25 193.058594 7.742188 192.976562 L 7.53125 192.597656 C 7.511719 192.546875 7.453125 192.476562 7.550781 192.402344 C 7.691406 192.292969 6.730469 191.976562 7.394531 190.765625 " fill-opacity="1" fill-rule="evenodd"/><path fill="rgb(93.728638%, 49.798584%, 10.198975%)" d="M 7.6875 191.058594 C 7.332031 191.1875 7.300781 190.894531 6.984375 191.085938 C 6.996094 191.101562 6.996094 191.125 6.980469 191.136719 C 6.957031 191.152344 6.933594 191.167969 6.96875 191.191406 C 6.964844 191.226562 6.890625 191.207031 6.898438 191.144531 C 6.902344 191.128906 6.914062 191.105469 6.929688 191.082031 C 6.9375 191.078125 6.941406 191.074219 6.949219 191.070312 C 7.15625 190.820312 7.332031 191.0625 7.570312 190.882812 C 7.617188 190.851562 7.683594 190.863281 7.714844 190.910156 C 7.75 190.960938 7.734375 191.027344 7.6875 191.058594 " fill-opacity="1" fill-rule="evenodd"/><path fill="rgb(93.728638%, 49.798584%, 10.198975%)" d="M 7.242188 191.855469 C 6.988281 191.988281 6.460938 191.964844 6.175781 191.800781 C 6.175781 191.800781 6.640625 192.480469 7.476562 192.921875 C 7.78125 192.996094 8.125 193.03125 8.445312 193.015625 C 8.214844 192.632812 7.242188 191.855469 7.242188 191.855469 " fill-opacity="1" fill-rule="evenodd"/><g clip-path="url(#id3)"><path fill="rgb(79.60968%, 41.569519%, 11.759949%)" d="M 6.386719 191.359375 C 6.386719 191.359375 5.980469 191.488281 5.675781 191.257812 C 5.660156 191.140625 6.34375 191.207031 6.34375 191.207031 L 6.386719 191.359375 " fill-opacity="1" fill-rule="evenodd"/></g><path fill="rgb(79.60968%, 41.569519%, 11.759949%)" d="M 6.472656 190.921875 C 6.289062 190.984375 6.277344 190.832031 6.113281 190.925781 C 6.121094 190.933594 6.121094 190.945312 6.113281 190.953125 C 6.101562 190.960938 6.085938 190.964844 6.105469 190.980469 C 6.101562 190.996094 6.066406 190.984375 6.070312 190.953125 L 6.070312 190.957031 L 6.070312 190.953125 C 6.074219 190.945312 6.078125 190.933594 6.085938 190.925781 C 6.089844 190.921875 6.09375 190.917969 6.097656 190.917969 C 6.207031 190.792969 6.292969 190.917969 6.414062 190.832031 C 6.441406 190.816406 6.472656 190.824219 6.488281 190.847656 C 6.503906 190.875 6.496094 190.910156 6.472656 190.921875 " fill-opacity="1" fill-rule="evenodd"/><path fill="rgb(79.60968%, 41.569519%, 11.759949%)" d="M 6.4375 190.558594 C 6.414062 190.558594 6.386719 190.507812 6.375 190.441406 C 6.363281 190.375 6.371094 190.316406 6.390625 190.3125 C 6.410156 190.308594 6.4375 190.363281 6.449219 190.429688 C 6.460938 190.496094 6.453125 190.550781 6.4375 190.558594 " fill-opacity="1" fill-rule="evenodd"/><path fill="rgb(93.728638%, 49.798584%, 10.198975%)" d="M 6.3125 190.75 C 6.210938 190.726562 6.070312 190.71875 6.0625 190.683594 C 6.058594 190.667969 6.027344 190.617188 6.050781 190.613281 C 6.09375 190.609375 6.144531 190.574219 6.199219 190.5625 C 6.226562 190.550781 6.261719 190.550781 6.285156 190.550781 C 6.320312 190.507812 6.378906 190.492188 6.429688 190.507812 L 6.4375 190.507812 C 6.445312 190.488281 6.464844 190.464844 6.488281 190.441406 C 6.539062 190.390625 6.585938 190.367188 6.605469 190.382812 C 6.617188 190.394531 6.589844 190.445312 6.539062 190.492188 C 6.523438 190.511719 6.503906 190.527344 6.488281 190.539062 C 6.519531 190.574219 6.535156 190.625 6.519531 190.675781 C 6.511719 190.699219 6.496094 190.71875 6.480469 190.734375 C 6.503906 191.21875 6.964844 191.097656 7.125 191.648438 C 7.144531 191.691406 7.164062 191.761719 7.183594 191.847656 C 6.992188 191.917969 6.710938 191.925781 6.453125 191.878906 L 6.351562 191.683594 C 6.34375 191.65625 6.3125 191.621094 6.363281 191.582031 C 6.4375 191.53125 5.957031 191.355469 6.3125 190.75 " fill-opacity="1" fill-rule="evenodd"/><path fill="rgb(93.728638%, 49.798584%, 10.198975%)" d="M 6.457031 190.90625 C 6.273438 190.964844 6.261719 190.8125 6.097656 190.910156 C 6.105469 190.914062 6.105469 190.925781 6.097656 190.933594 C 6.082031 190.941406 6.070312 190.945312 6.089844 190.960938 C 6.085938 190.980469 6.050781 190.96875 6.054688 190.933594 C 6.054688 190.925781 6.058594 190.917969 6.070312 190.90625 C 6.074219 190.902344 6.078125 190.902344 6.082031 190.902344 C 6.1875 190.773438 6.277344 190.902344 6.398438 190.816406 C 6.421875 190.796875 6.453125 190.804688 6.472656 190.832031 C 6.488281 190.855469 6.480469 190.886719 6.457031 190.90625 " fill-opacity="1" fill-rule="evenodd"/><g clip-path="url(#id4)"><path fill="rgb(93.728638%, 49.798584%, 10.198975%)" d="M 6.214844 191.300781 C 6.085938 191.363281 5.820312 191.347656 5.675781 191.257812 C 5.675781 191.257812 5.902344 191.609375 6.320312 191.847656 C 6.472656 191.890625 6.648438 191.910156 6.808594 191.90625 C 6.699219 191.710938 6.214844 191.300781 6.214844 191.300781 " fill-opacity="1" fill-rule="evenodd"/></g></svg>