<svg xmlns="http://www.w3.org/2000/svg" xmlns:xlink="http://www.w3.org/1999/xlink" width="500" zoomAndPan="magnify" viewBox="0 0 375 374.999991" height="500" preserveAspectRatio="xMidYMid meet" version="1.0"><defs><clipPath id="id1"><path d="M 236 210 L 348.835938 210 L 348.835938 317.25 L 236 317.25 Z M 236 210 " clip-rule="nonzero"/></clipPath><clipPath id="id2"><path d="M 236 123 L 348.835938 123 L 348.835938 231 L 236 231 Z M 236 123 " clip-rule="nonzero"/></clipPath><clipPath id="id3"><path d="M 236 37.5 L 348.835938 37.5 L 348.835938 145 L 236 145 Z M 236 37.5 " clip-rule="nonzero"/></clipPath><clipPath id="id4"><path d="M 121 210 L 234 210 L 234 317.25 L 121 317.25 Z M 121 210 " clip-rule="nonzero"/></clipPath><clipPath id="id5"><path d="M 6.085938 210 L 119 210 L 119 317.25 L 6.085938 317.25 Z M 6.085938 210 " clip-rule="nonzero"/></clipPath></defs><g clip-path="url(#id1)"><path fill="rgb(96.859741%, 78.819275%, 21.179199%)" d="M 348.828125 291.914062 C 348.828125 291.132812 348.5 290.371094 347.894531 289.628906 C 348.496094 288.894531 348.820312 288.140625 348.828125 287.371094 L 348.828125 274.550781 C 348.828125 273.851562 348.5625 273.160156 348.070312 272.492188 C 348.558594 271.824219 348.828125 271.136719 348.828125 270.4375 C 348.828125 270.4375 348.828125 257.640625 348.828125 257.636719 C 348.828125 256.855469 348.5 256.097656 347.894531 255.359375 C 348.449219 254.683594 348.777344 253.988281 348.828125 253.277344 L 348.828125 240.273438 C 348.828125 239.492188 348.5 238.734375 347.894531 237.992188 C 348.5 237.253906 348.828125 236.488281 348.828125 235.707031 L 348.828125 222.914062 C 348.828125 215.972656 323.761719 210.347656 292.84375 210.347656 C 261.925781 210.347656 236.847656 215.972656 236.847656 222.914062 L 236.847656 235.792969 C 236.867188 236.542969 237.203125 237.28125 237.789062 237.992188 C 237.183594 238.734375 236.847656 239.496094 236.847656 240.277344 L 236.847656 253.257812 C 236.890625 253.972656 237.230469 254.675781 237.789062 255.359375 C 237.183594 256.097656 236.847656 256.863281 236.847656 257.644531 C 236.847656 257.644531 236.847656 270.472656 236.847656 270.472656 C 236.851562 271.160156 237.128906 271.835938 237.609375 272.496094 C 237.132812 273.144531 236.867188 273.796875 236.851562 274.472656 L 236.851562 287.335938 C 236.851562 288.117188 237.183594 288.890625 237.789062 289.632812 C 237.183594 290.371094 236.847656 291.136719 236.847656 291.917969 L 236.847656 304.710938 C 236.847656 311.648438 261.925781 317.277344 292.84375 317.277344 C 323.761719 317.277344 348.828125 311.648438 348.828125 304.710938 C 348.828125 304.511719 348.828125 291.914062 348.828125 291.914062 Z M 348.828125 291.914062 " fill-opacity="1" fill-rule="nonzero"/></g><path fill="rgb(99.21875%, 92.939758%, 64.309692%)" d="M 292.542969 248.410156 C 267.546875 248.410156 246.382812 244.734375 239.191406 239.65625 C 238.949219 239.976562 238.847656 240.234375 238.847656 240.414062 C 238.847656 241.355469 241.472656 244.378906 253.457031 247.070312 C 263.871094 249.40625 277.75 250.695312 292.539062 250.695312 C 307.328125 250.695312 321.210938 249.40625 331.621094 247.070312 C 343.605469 244.378906 346.234375 241.355469 346.234375 240.414062 C 346.234375 240.234375 346.132812 239.976562 345.890625 239.65625 C 338.707031 244.734375 317.539062 248.410156 292.542969 248.410156 Z M 292.542969 248.410156 " fill-opacity="1" fill-rule="nonzero"/><path fill="rgb(99.21875%, 92.939758%, 64.309692%)" d="M 292.542969 266.066406 C 267.546875 266.066406 246.382812 262.390625 239.191406 257.3125 C 238.949219 257.632812 238.847656 257.890625 238.847656 258.070312 C 238.847656 259.011719 241.472656 262.035156 253.457031 264.726562 C 263.871094 267.0625 277.75 268.351562 292.539062 268.351562 C 307.328125 268.351562 321.210938 267.0625 331.621094 264.726562 C 343.605469 262.035156 346.234375 259.011719 346.234375 258.070312 C 346.234375 257.890625 346.132812 257.632812 345.890625 257.3125 C 338.707031 262.390625 317.539062 266.066406 292.542969 266.066406 Z M 292.542969 266.066406 " fill-opacity="1" fill-rule="nonzero"/><path fill="rgb(99.21875%, 92.939758%, 64.309692%)" d="M 292.789062 282.484375 C 267.792969 282.484375 246.625 278.804688 239.433594 273.730469 C 239.191406 274.046875 239.089844 274.304688 239.089844 274.488281 C 239.089844 275.425781 241.714844 278.453125 253.703125 281.144531 C 264.113281 283.480469 277.996094 284.769531 292.785156 284.769531 C 307.574219 284.769531 321.453125 283.480469 331.867188 281.144531 C 343.851562 278.453125 346.476562 275.425781 346.476562 274.488281 C 346.476562 274.304688 346.375 274.046875 346.132812 273.730469 C 338.949219 278.804688 317.78125 282.484375 292.789062 282.484375 Z M 292.789062 282.484375 " fill-opacity="1" fill-rule="nonzero"/><path fill="rgb(99.21875%, 92.939758%, 64.309692%)" d="M 293.078125 300.125 C 268.082031 300.125 246.914062 296.449219 239.726562 291.371094 C 239.480469 291.691406 239.382812 291.949219 239.382812 292.128906 C 239.382812 293.070312 242.007812 296.09375 253.992188 298.785156 C 264.40625 301.121094 278.285156 302.410156 293.074219 302.410156 C 307.863281 302.410156 321.746094 301.121094 332.15625 298.785156 C 344.140625 296.09375 346.765625 293.070312 346.765625 292.128906 C 346.765625 291.949219 346.667969 291.691406 346.425781 291.371094 C 339.242188 296.449219 318.074219 300.125 293.078125 300.125 Z M 293.078125 300.125 " fill-opacity="1" fill-rule="nonzero"/><path fill="rgb(99.609375%, 93.328857%, 62.748718%)" d="M 292.84375 233.195312 C 278.054688 233.195312 264.171875 231.90625 253.761719 229.570312 C 241.773438 226.878906 239.148438 223.851562 239.148438 222.914062 C 239.148438 221.972656 241.773438 218.949219 253.761719 216.257812 C 264.175781 213.921875 278.054688 212.632812 292.84375 212.632812 C 307.628906 212.632812 321.511719 213.921875 331.921875 216.257812 C 343.910156 218.949219 346.535156 221.972656 346.535156 222.914062 C 346.535156 223.851562 343.910156 226.878906 331.921875 229.570312 C 321.511719 231.910156 307.628906 233.195312 292.84375 233.195312 Z M 292.84375 233.195312 " fill-opacity="1" fill-rule="nonzero"/><path fill="rgb(99.609375%, 94.898987%, 72.549438%)" d="M 265.292969 262.753906 C 258.464844 261.953125 252.398438 260.5 252.398438 260.5 L 252.398438 248.21875 C 252.398438 248.21875 258.847656 249.875 265.292969 250.585938 C 265.292969 252.503906 265.292969 263.867188 265.292969 262.753906 Z M 265.292969 262.753906 " fill-opacity="1" fill-rule="nonzero"/><path fill="rgb(99.609375%, 94.898987%, 72.549438%)" d="M 272.878906 263.726562 C 272.878906 263.726562 269.464844 263.425781 267.570312 263.089844 C 267.570312 262.6875 267.570312 250.820312 267.570312 250.820312 L 272.878906 251.289062 Z M 272.878906 263.726562 " fill-opacity="1" fill-rule="nonzero"/><path fill="rgb(99.609375%, 94.898987%, 72.549438%)" d="M 265.292969 314.625 C 258.464844 313.828125 252.398438 312.371094 252.398438 312.371094 L 252.398438 300.089844 C 252.398438 300.089844 258.847656 301.746094 265.292969 302.457031 C 265.292969 304.371094 265.292969 315.738281 265.292969 314.625 Z M 265.292969 314.625 " fill-opacity="1" fill-rule="nonzero"/><path fill="rgb(99.609375%, 94.898987%, 72.549438%)" d="M 272.878906 315.59375 C 272.878906 315.59375 269.464844 315.292969 267.570312 314.957031 C 267.570312 314.554688 267.570312 302.6875 267.570312 302.6875 L 272.878906 303.15625 Z M 272.878906 315.59375 " fill-opacity="1" fill-rule="nonzero"/><path fill="rgb(99.609375%, 94.898987%, 72.549438%)" d="M 265.292969 245.390625 C 258.464844 244.59375 252.398438 243.136719 252.398438 243.136719 L 252.398438 230.855469 C 252.398438 230.855469 258.847656 232.507812 265.292969 233.222656 C 265.292969 235.136719 265.292969 246.503906 265.292969 245.390625 Z M 265.292969 245.390625 " fill-opacity="1" fill-rule="nonzero"/><path fill="rgb(99.609375%, 94.898987%, 72.549438%)" d="M 272.878906 246.363281 C 272.878906 246.363281 269.464844 246.058594 267.570312 245.722656 C 267.570312 245.324219 267.570312 233.457031 267.570312 233.457031 L 272.878906 233.925781 Z M 272.878906 246.363281 " fill-opacity="1" fill-rule="nonzero"/><path fill="rgb(99.609375%, 94.898987%, 72.549438%)" d="M 265.292969 297.140625 C 258.464844 296.339844 252.398438 294.886719 252.398438 294.886719 L 252.398438 282.601562 C 252.398438 282.601562 258.847656 284.257812 265.292969 284.96875 C 265.292969 286.886719 265.292969 298.253906 265.292969 297.140625 Z M 265.292969 297.140625 " fill-opacity="1" fill-rule="nonzero"/><path fill="rgb(99.609375%, 94.898987%, 72.549438%)" d="M 272.878906 298.109375 C 272.878906 298.109375 269.464844 297.808594 267.570312 297.472656 C 267.570312 297.070312 267.570312 285.203125 267.570312 285.203125 L 272.878906 285.671875 Z M 272.878906 298.109375 " fill-opacity="1" fill-rule="nonzero"/><path fill="rgb(99.609375%, 94.898987%, 72.549438%)" d="M 265.292969 280.359375 C 258.464844 279.558594 252.398438 278.101562 252.398438 278.101562 L 252.398438 265.824219 C 252.398438 265.824219 258.847656 267.480469 265.292969 268.191406 C 265.292969 270.109375 265.292969 281.472656 265.292969 280.359375 Z M 265.292969 280.359375 " fill-opacity="1" fill-rule="nonzero"/><path fill="rgb(99.609375%, 94.898987%, 72.549438%)" d="M 272.878906 281.332031 C 272.878906 281.332031 269.464844 281.03125 267.570312 280.695312 C 267.570312 280.292969 267.570312 268.425781 267.570312 268.425781 L 272.878906 268.894531 Z M 272.878906 281.332031 " fill-opacity="1" fill-rule="nonzero"/><path fill="rgb(87.838745%, 73.329163%, 25.489807%)" d="M 287.953125 230.929688 L 287.953125 228.949219 C 278.355469 228.929688 268.585938 228.570312 262.796875 228.074219 L 266.765625 226.75 C 272.558594 227.203125 281.164062 227.601562 290.433594 227.601562 C 302.179688 227.601562 310.125 226.789062 310.125 225.660156 C 310.125 224.570312 303.671875 223.894531 291.425781 223.300781 C 274.546875 222.507812 264.117188 221.578125 264.117188 219.851562 C 264.117188 218.207031 273.882812 216.957031 288.941406 216.660156 L 288.941406 214.679688 L 299.363281 214.679688 L 299.363281 216.601562 C 309.128906 216.640625 315.914062 216.957031 320.878906 217.292969 L 316.742188 218.601562 C 313.265625 218.367188 306.484375 217.910156 295.890625 217.910156 C 283.148438 217.910156 278.351562 218.820312 278.351562 219.632812 C 278.351562 220.644531 284.472656 221.164062 298.871094 221.890625 C 315.917969 222.726562 324.523438 223.734375 324.523438 225.496094 C 324.523438 227.085938 315.425781 228.550781 298.378906 228.867188 L 298.378906 230.925781 L 287.953125 230.925781 Z M 287.953125 230.929688 " fill-opacity="1" fill-rule="nonzero"/><g clip-path="url(#id2)"><path fill="rgb(96.859741%, 78.819275%, 21.179199%)" d="M 348.828125 205.492188 C 348.828125 204.710938 348.5 203.953125 347.894531 203.207031 C 348.496094 202.476562 348.820312 201.722656 348.828125 200.949219 L 348.828125 188.128906 C 348.828125 187.429688 348.5625 186.742188 348.070312 186.074219 C 348.558594 185.40625 348.828125 184.714844 348.828125 184.015625 C 348.828125 184.015625 348.828125 171.21875 348.828125 171.214844 C 348.828125 170.433594 348.5 169.679688 347.894531 168.9375 C 348.449219 168.261719 348.777344 167.566406 348.828125 166.855469 L 348.828125 153.855469 C 348.828125 153.074219 348.5 152.316406 347.894531 151.574219 C 348.5 150.835938 348.828125 150.070312 348.828125 149.289062 L 348.828125 136.496094 C 348.828125 129.558594 323.761719 123.929688 292.84375 123.929688 C 261.925781 123.929688 236.847656 129.558594 236.847656 136.496094 L 236.847656 149.375 C 236.867188 150.125 237.203125 150.863281 237.789062 151.574219 C 237.183594 152.316406 236.847656 153.082031 236.847656 153.863281 L 236.847656 166.839844 C 236.890625 167.554688 237.230469 168.257812 237.789062 168.941406 C 237.183594 169.679688 236.847656 170.445312 236.847656 171.226562 C 236.847656 171.226562 236.847656 184.054688 236.847656 184.054688 C 236.851562 184.742188 237.128906 185.417969 237.609375 186.078125 C 237.132812 186.726562 236.867188 187.378906 236.851562 188.058594 L 236.851562 200.917969 C 236.851562 201.699219 237.183594 202.476562 237.789062 203.214844 C 237.183594 203.957031 236.847656 204.71875 236.847656 205.5 L 236.847656 218.292969 C 236.847656 225.234375 261.925781 230.859375 292.84375 230.859375 C 323.761719 230.859375 348.828125 225.234375 348.828125 218.292969 C 348.828125 218.089844 348.828125 205.492188 348.828125 205.492188 Z M 348.828125 205.492188 " fill-opacity="1" fill-rule="nonzero"/></g><path fill="rgb(99.21875%, 92.939758%, 64.309692%)" d="M 292.542969 161.992188 C 267.546875 161.992188 246.382812 158.3125 239.191406 153.238281 C 238.949219 153.558594 238.847656 153.8125 238.847656 153.996094 C 238.847656 154.933594 241.472656 157.960938 253.457031 160.652344 C 263.871094 162.988281 277.75 164.277344 292.539062 164.277344 C 307.328125 164.277344 321.210938 162.988281 331.621094 160.652344 C 343.605469 157.960938 346.234375 154.933594 346.234375 153.996094 C 346.234375 153.8125 346.132812 153.558594 345.890625 153.238281 C 338.707031 158.3125 317.539062 161.992188 292.542969 161.992188 Z M 292.542969 161.992188 " fill-opacity="1" fill-rule="nonzero"/><path fill="rgb(99.21875%, 92.939758%, 64.309692%)" d="M 292.542969 179.648438 C 267.546875 179.648438 246.382812 175.96875 239.191406 170.894531 C 238.949219 171.214844 238.847656 171.46875 238.847656 171.652344 C 238.847656 172.589844 241.472656 175.617188 253.457031 178.308594 C 263.871094 180.644531 277.75 181.933594 292.539062 181.933594 C 307.328125 181.933594 321.210938 180.644531 331.621094 178.308594 C 343.605469 175.617188 346.234375 172.589844 346.234375 171.652344 C 346.234375 171.46875 346.132812 171.214844 345.890625 170.894531 C 338.707031 175.96875 317.539062 179.648438 292.542969 179.648438 Z M 292.542969 179.648438 " fill-opacity="1" fill-rule="nonzero"/><path fill="rgb(99.21875%, 92.939758%, 64.309692%)" d="M 292.789062 196.0625 C 267.792969 196.0625 246.625 192.386719 239.433594 187.308594 C 239.191406 187.628906 239.089844 187.886719 239.089844 188.066406 C 239.089844 189.007812 241.714844 192.03125 253.703125 194.722656 C 264.113281 197.058594 277.996094 198.347656 292.785156 198.347656 C 307.574219 198.347656 321.453125 197.058594 331.867188 194.722656 C 343.851562 192.03125 346.476562 189.007812 346.476562 188.066406 C 346.476562 187.886719 346.375 187.628906 346.132812 187.308594 C 338.949219 192.386719 317.78125 196.0625 292.789062 196.0625 Z M 292.789062 196.0625 " fill-opacity="1" fill-rule="nonzero"/><path fill="rgb(99.21875%, 92.939758%, 64.309692%)" d="M 293.078125 213.707031 C 268.082031 213.707031 246.914062 210.03125 239.726562 204.957031 C 239.480469 205.273438 239.382812 205.53125 239.382812 205.714844 C 239.382812 206.652344 242.007812 209.679688 253.992188 212.367188 C 264.40625 214.707031 278.285156 215.996094 293.074219 215.996094 C 307.863281 215.996094 321.746094 214.707031 332.15625 212.367188 C 344.140625 209.679688 346.765625 206.652344 346.765625 205.714844 C 346.765625 205.53125 346.667969 205.273438 346.425781 204.957031 C 339.242188 210.027344 318.074219 213.707031 293.078125 213.707031 Z M 293.078125 213.707031 " fill-opacity="1" fill-rule="nonzero"/><path fill="rgb(99.609375%, 93.328857%, 62.748718%)" d="M 292.84375 146.777344 C 278.054688 146.777344 264.171875 145.488281 253.761719 143.152344 C 241.773438 140.460938 239.148438 137.4375 239.148438 136.496094 C 239.148438 135.558594 241.773438 132.53125 253.761719 129.84375 C 264.175781 127.503906 278.054688 126.214844 292.84375 126.214844 C 307.628906 126.214844 321.511719 127.503906 331.921875 129.84375 C 343.910156 132.53125 346.535156 135.558594 346.535156 136.496094 C 346.535156 137.4375 343.910156 140.460938 331.921875 143.152344 C 321.511719 145.488281 307.628906 146.777344 292.84375 146.777344 Z M 292.84375 146.777344 " fill-opacity="1" fill-rule="nonzero"/><path fill="rgb(99.609375%, 94.898987%, 72.549438%)" d="M 265.292969 176.335938 C 258.464844 175.539062 252.398438 174.082031 252.398438 174.082031 L 252.398438 161.800781 C 252.398438 161.800781 258.847656 163.453125 265.292969 164.167969 C 265.292969 166.082031 265.292969 177.449219 265.292969 176.335938 Z M 265.292969 176.335938 " fill-opacity="1" fill-rule="nonzero"/><path fill="rgb(99.609375%, 94.898987%, 72.549438%)" d="M 272.878906 177.304688 C 272.878906 177.304688 269.464844 177.003906 267.570312 176.667969 C 267.570312 176.269531 267.570312 164.398438 267.570312 164.398438 L 272.878906 164.871094 Z M 272.878906 177.304688 " fill-opacity="1" fill-rule="nonzero"/><path fill="rgb(99.609375%, 94.898987%, 72.549438%)" d="M 265.292969 228.203125 C 258.464844 227.40625 252.398438 225.949219 252.398438 225.949219 L 252.398438 213.671875 C 252.398438 213.671875 258.847656 215.324219 265.292969 216.039062 C 265.292969 217.953125 265.292969 229.320312 265.292969 228.203125 Z M 265.292969 228.203125 " fill-opacity="1" fill-rule="nonzero"/><path fill="rgb(99.609375%, 94.898987%, 72.549438%)" d="M 272.878906 229.175781 C 272.878906 229.175781 269.464844 228.875 267.570312 228.539062 C 267.570312 228.136719 267.570312 216.269531 267.570312 216.269531 L 272.878906 216.738281 Z M 272.878906 229.175781 " fill-opacity="1" fill-rule="nonzero"/><path fill="rgb(99.609375%, 94.898987%, 72.549438%)" d="M 265.292969 158.972656 C 258.464844 158.171875 252.398438 156.714844 252.398438 156.714844 L 252.398438 144.4375 C 252.398438 144.4375 258.847656 146.09375 265.292969 146.804688 C 265.292969 148.71875 265.292969 160.085938 265.292969 158.972656 Z M 265.292969 158.972656 " fill-opacity="1" fill-rule="nonzero"/><path fill="rgb(99.609375%, 94.898987%, 72.549438%)" d="M 272.878906 159.941406 C 272.878906 159.941406 269.464844 159.640625 267.570312 159.304688 C 267.570312 158.902344 267.570312 147.035156 267.570312 147.035156 L 272.878906 147.503906 Z M 272.878906 159.941406 " fill-opacity="1" fill-rule="nonzero"/><path fill="rgb(99.609375%, 94.898987%, 72.549438%)" d="M 265.292969 210.71875 C 258.464844 209.921875 252.398438 208.464844 252.398438 208.464844 L 252.398438 196.1875 C 252.398438 196.1875 258.847656 197.839844 265.292969 198.554688 C 265.292969 200.46875 265.292969 211.832031 265.292969 210.71875 Z M 265.292969 210.71875 " fill-opacity="1" fill-rule="nonzero"/><path fill="rgb(99.609375%, 94.898987%, 72.549438%)" d="M 272.878906 211.695312 C 272.878906 211.695312 269.464844 211.390625 267.570312 211.054688 C 267.570312 210.65625 267.570312 198.789062 267.570312 198.789062 L 272.878906 199.257812 Z M 272.878906 211.695312 " fill-opacity="1" fill-rule="nonzero"/><path fill="rgb(99.609375%, 94.898987%, 72.549438%)" d="M 265.292969 193.941406 C 258.464844 193.144531 252.398438 191.6875 252.398438 191.6875 L 252.398438 179.40625 C 252.398438 179.40625 258.847656 181.0625 265.292969 181.773438 C 265.292969 183.6875 265.292969 195.054688 265.292969 193.941406 Z M 265.292969 193.941406 " fill-opacity="1" fill-rule="nonzero"/><path fill="rgb(99.609375%, 94.898987%, 72.549438%)" d="M 272.878906 194.910156 C 272.878906 194.910156 269.464844 194.609375 267.570312 194.273438 C 267.570312 193.871094 267.570312 182.003906 267.570312 182.003906 L 272.878906 182.472656 Z M 272.878906 194.910156 " fill-opacity="1" fill-rule="nonzero"/><path fill="rgb(87.838745%, 73.329163%, 25.489807%)" d="M 287.953125 144.507812 L 287.953125 142.527344 C 278.355469 142.507812 268.585938 142.152344 262.796875 141.65625 L 266.765625 140.328125 C 272.558594 140.785156 281.164062 141.183594 290.433594 141.183594 C 302.179688 141.183594 310.125 140.371094 310.125 139.238281 C 310.125 138.148438 303.671875 137.472656 291.425781 136.882812 C 274.546875 136.089844 264.117188 135.15625 264.117188 133.433594 C 264.117188 131.789062 273.882812 130.539062 288.941406 130.238281 L 288.941406 128.257812 L 299.363281 128.257812 L 299.363281 130.179688 C 309.128906 130.222656 315.914062 130.539062 320.878906 130.875 L 316.742188 132.183594 C 313.265625 131.945312 306.484375 131.488281 295.890625 131.488281 C 283.148438 131.488281 278.351562 132.402344 278.351562 133.214844 C 278.351562 134.226562 284.472656 134.742188 298.871094 135.472656 C 315.917969 136.304688 324.523438 137.316406 324.523438 139.078125 C 324.523438 140.664062 315.425781 142.132812 298.378906 142.445312 L 298.378906 144.507812 Z M 287.953125 144.507812 " fill-opacity="1" fill-rule="nonzero"/><g clip-path="url(#id3)"><path fill="rgb(96.859741%, 78.819275%, 21.179199%)" d="M 348.828125 119.074219 C 348.828125 118.292969 348.5 117.53125 347.894531 116.789062 C 348.496094 116.054688 348.820312 115.300781 348.828125 114.53125 L 348.828125 101.710938 C 348.828125 101.011719 348.5625 100.320312 348.070312 99.652344 C 348.558594 98.984375 348.828125 98.296875 348.828125 97.597656 C 348.828125 97.597656 348.828125 84.800781 348.828125 84.796875 C 348.828125 84.015625 348.5 83.257812 347.894531 82.519531 C 348.449219 81.84375 348.777344 81.148438 348.828125 80.4375 L 348.828125 67.433594 C 348.828125 66.652344 348.5 65.898438 347.894531 65.152344 C 348.5 64.414062 348.828125 63.648438 348.828125 62.867188 L 348.828125 50.078125 C 348.828125 43.136719 323.761719 37.511719 292.84375 37.511719 C 261.925781 37.511719 236.847656 43.136719 236.847656 50.078125 L 236.847656 62.957031 C 236.867188 63.707031 237.203125 64.445312 237.789062 65.15625 C 237.183594 65.898438 236.847656 66.660156 236.847656 67.441406 L 236.847656 80.421875 C 236.890625 81.136719 237.230469 81.839844 237.789062 82.519531 C 237.183594 83.261719 236.847656 84.027344 236.847656 84.808594 C 236.847656 84.808594 236.847656 97.632812 236.847656 97.632812 C 236.851562 98.324219 237.128906 99 237.609375 99.660156 C 237.132812 100.308594 236.867188 100.957031 236.851562 101.636719 L 236.851562 114.5 C 236.851562 115.28125 237.183594 116.054688 237.789062 116.796875 C 237.183594 117.535156 236.847656 118.300781 236.847656 119.082031 L 236.847656 131.875 C 236.847656 138.8125 261.925781 144.441406 292.84375 144.441406 C 323.761719 144.441406 348.828125 138.8125 348.828125 131.875 C 348.828125 131.671875 348.828125 119.074219 348.828125 119.074219 Z M 348.828125 119.074219 " fill-opacity="1" fill-rule="nonzero"/></g><path fill="rgb(99.21875%, 92.939758%, 64.309692%)" d="M 292.542969 75.570312 C 267.546875 75.570312 246.382812 71.894531 239.191406 66.820312 C 238.949219 67.136719 238.847656 67.394531 238.847656 67.574219 C 238.847656 68.515625 241.472656 71.539062 253.457031 74.230469 C 263.871094 76.566406 277.75 77.855469 292.539062 77.855469 C 307.328125 77.855469 321.210938 76.566406 331.621094 74.230469 C 343.605469 71.539062 346.234375 68.515625 346.234375 67.574219 C 346.234375 67.394531 346.132812 67.136719 345.890625 66.820312 C 338.707031 71.894531 317.539062 75.570312 292.542969 75.570312 Z M 292.542969 75.570312 " fill-opacity="1" fill-rule="nonzero"/><path fill="rgb(99.21875%, 92.939758%, 64.309692%)" d="M 292.542969 93.226562 C 267.546875 93.226562 246.382812 89.550781 239.191406 84.472656 C 238.949219 84.792969 238.847656 85.050781 238.847656 85.230469 C 238.847656 86.171875 241.472656 89.195312 253.457031 91.886719 C 263.871094 94.222656 277.75 95.511719 292.539062 95.511719 C 307.328125 95.511719 321.210938 94.222656 331.621094 91.886719 C 343.605469 89.195312 346.234375 86.171875 346.234375 85.230469 C 346.234375 85.050781 346.132812 84.792969 345.890625 84.472656 C 338.707031 89.550781 317.539062 93.226562 292.542969 93.226562 Z M 292.542969 93.226562 " fill-opacity="1" fill-rule="nonzero"/><path fill="rgb(99.21875%, 92.939758%, 64.309692%)" d="M 292.789062 109.644531 C 267.792969 109.644531 246.625 105.964844 239.433594 100.890625 C 239.191406 101.207031 239.089844 101.464844 239.089844 101.648438 C 239.089844 102.585938 241.714844 105.613281 253.703125 108.304688 C 264.113281 110.640625 277.996094 111.929688 292.785156 111.929688 C 307.574219 111.929688 321.453125 110.640625 331.867188 108.304688 C 343.851562 105.613281 346.476562 102.585938 346.476562 101.648438 C 346.476562 101.464844 346.375 101.207031 346.132812 100.890625 C 338.949219 105.964844 317.78125 109.644531 292.789062 109.644531 Z M 292.789062 109.644531 " fill-opacity="1" fill-rule="nonzero"/><path fill="rgb(99.21875%, 92.939758%, 64.309692%)" d="M 293.078125 127.289062 C 268.082031 127.289062 246.914062 123.613281 239.726562 118.535156 C 239.480469 118.855469 239.382812 119.113281 239.382812 119.292969 C 239.382812 120.230469 242.007812 123.257812 253.992188 125.949219 C 264.40625 128.285156 278.285156 129.574219 293.074219 129.574219 C 307.863281 129.574219 321.746094 128.285156 332.15625 125.949219 C 344.140625 123.257812 346.765625 120.230469 346.765625 119.292969 C 346.765625 119.113281 346.667969 118.855469 346.425781 118.535156 C 339.242188 123.613281 318.074219 127.289062 293.078125 127.289062 Z M 293.078125 127.289062 " fill-opacity="1" fill-rule="nonzero"/><path fill="rgb(99.609375%, 93.328857%, 62.748718%)" d="M 292.84375 60.359375 C 278.054688 60.359375 264.171875 59.070312 253.761719 56.734375 C 241.773438 54.042969 239.148438 51.015625 239.148438 50.078125 C 239.148438 49.136719 241.773438 46.113281 253.761719 43.421875 C 264.171875 41.082031 278.054688 39.796875 292.84375 39.796875 C 307.628906 39.796875 321.511719 41.085938 331.921875 43.421875 C 343.910156 46.113281 346.535156 49.136719 346.535156 50.078125 C 346.535156 51.015625 343.910156 54.042969 331.921875 56.734375 C 321.511719 59.070312 307.628906 60.359375 292.84375 60.359375 Z M 292.84375 60.359375 " fill-opacity="1" fill-rule="nonzero"/><path fill="rgb(99.609375%, 94.898987%, 72.549438%)" d="M 265.292969 89.917969 C 258.464844 89.117188 252.398438 87.660156 252.398438 87.660156 L 252.398438 75.382812 C 252.398438 75.382812 258.847656 77.039062 265.292969 77.75 C 265.292969 79.664062 265.292969 91.03125 265.292969 89.917969 Z M 265.292969 89.917969 " fill-opacity="1" fill-rule="nonzero"/><path fill="rgb(99.609375%, 94.898987%, 72.549438%)" d="M 272.878906 90.886719 C 272.878906 90.886719 269.464844 90.585938 267.570312 90.25 C 267.570312 89.847656 267.570312 77.980469 267.570312 77.980469 L 272.878906 78.449219 Z M 272.878906 90.886719 " fill-opacity="1" fill-rule="nonzero"/><path fill="rgb(99.609375%, 94.898987%, 72.549438%)" d="M 265.292969 141.785156 C 258.464844 140.988281 252.398438 139.53125 252.398438 139.53125 L 252.398438 127.25 C 252.398438 127.25 258.847656 128.90625 265.292969 129.617188 C 265.292969 131.535156 265.292969 142.898438 265.292969 141.785156 Z M 265.292969 141.785156 " fill-opacity="1" fill-rule="nonzero"/><path fill="rgb(99.609375%, 94.898987%, 72.549438%)" d="M 272.878906 142.757812 C 272.878906 142.757812 269.464844 142.457031 267.570312 142.121094 C 267.570312 141.71875 267.570312 129.851562 267.570312 129.851562 L 272.878906 130.320312 Z M 272.878906 142.757812 " fill-opacity="1" fill-rule="nonzero"/><path fill="rgb(99.609375%, 94.898987%, 72.549438%)" d="M 265.292969 72.550781 C 258.464844 71.753906 252.398438 70.296875 252.398438 70.296875 L 252.398438 58.019531 C 252.398438 58.019531 258.847656 59.671875 265.292969 60.386719 C 265.292969 62.296875 265.292969 73.664062 265.292969 72.550781 Z M 265.292969 72.550781 " fill-opacity="1" fill-rule="nonzero"/><path fill="rgb(99.609375%, 94.898987%, 72.549438%)" d="M 272.878906 73.523438 C 272.878906 73.523438 269.464844 73.21875 267.570312 72.882812 C 267.570312 72.484375 267.570312 60.617188 267.570312 60.617188 L 272.878906 61.085938 Z M 272.878906 73.523438 " fill-opacity="1" fill-rule="nonzero"/><path fill="rgb(99.609375%, 94.898987%, 72.549438%)" d="M 265.292969 124.300781 C 258.464844 123.5 252.398438 122.046875 252.398438 122.046875 L 252.398438 109.765625 C 252.398438 109.765625 258.847656 111.421875 265.292969 112.132812 C 265.292969 114.050781 265.292969 125.414062 265.292969 124.300781 Z M 265.292969 124.300781 " fill-opacity="1" fill-rule="nonzero"/><path fill="rgb(99.609375%, 94.898987%, 72.549438%)" d="M 272.878906 125.273438 C 272.878906 125.273438 269.464844 124.972656 267.570312 124.636719 C 267.570312 124.234375 267.570312 112.367188 267.570312 112.367188 L 272.878906 112.835938 Z M 272.878906 125.273438 " fill-opacity="1" fill-rule="nonzero"/><path fill="rgb(99.609375%, 94.898987%, 72.549438%)" d="M 265.292969 107.519531 C 258.464844 106.722656 252.398438 105.265625 252.398438 105.265625 L 252.398438 92.984375 C 252.398438 92.984375 258.847656 94.640625 265.292969 95.351562 C 265.292969 97.269531 265.292969 108.636719 265.292969 107.519531 Z M 265.292969 107.519531 " fill-opacity="1" fill-rule="nonzero"/><path fill="rgb(99.609375%, 94.898987%, 72.549438%)" d="M 272.878906 108.492188 C 272.878906 108.492188 269.464844 108.191406 267.570312 107.855469 C 267.570312 107.453125 267.570312 95.585938 267.570312 95.585938 L 272.878906 96.054688 Z M 272.878906 108.492188 " fill-opacity="1" fill-rule="nonzero"/><path fill="rgb(87.838745%, 73.329163%, 25.489807%)" d="M 287.953125 58.089844 L 287.953125 56.109375 C 278.355469 56.089844 268.585938 55.730469 262.796875 55.234375 L 266.765625 53.910156 C 272.558594 54.363281 281.164062 54.761719 290.433594 54.761719 C 302.179688 54.761719 310.125 53.949219 310.125 52.820312 C 310.125 51.730469 303.671875 51.054688 291.425781 50.460938 C 274.546875 49.667969 264.117188 48.738281 264.117188 47.011719 C 264.117188 45.367188 273.882812 44.117188 288.941406 43.820312 L 288.941406 41.839844 L 299.363281 41.839844 L 299.363281 43.761719 C 309.128906 43.800781 315.914062 44.117188 320.878906 44.453125 L 316.742188 45.761719 C 313.265625 45.527344 306.484375 45.070312 295.890625 45.070312 C 283.148438 45.070312 278.351562 45.980469 278.351562 46.792969 C 278.351562 47.804688 284.472656 48.324219 298.871094 49.050781 C 315.917969 49.886719 324.523438 50.894531 324.523438 52.65625 C 324.523438 54.246094 315.425781 55.710938 298.378906 56.027344 L 298.378906 58.085938 L 287.953125 58.085938 Z M 287.953125 58.089844 " fill-opacity="1" fill-rule="nonzero"/><g clip-path="url(#id4)"><path fill="rgb(96.859741%, 78.819275%, 21.179199%)" d="M 233.449219 291.914062 C 233.449219 291.132812 233.125 290.371094 232.519531 289.628906 C 233.117188 288.894531 233.441406 288.140625 233.449219 287.371094 L 233.449219 274.550781 C 233.449219 273.851562 233.1875 273.160156 232.691406 272.492188 C 233.183594 271.824219 233.449219 271.136719 233.449219 270.4375 C 233.449219 270.4375 233.449219 257.640625 233.449219 257.636719 C 233.449219 256.855469 233.125 256.097656 232.519531 255.359375 C 233.074219 254.683594 233.398438 253.988281 233.449219 253.277344 L 233.449219 240.273438 C 233.449219 239.492188 233.125 238.734375 232.519531 237.992188 C 233.125 237.253906 233.449219 236.488281 233.449219 235.707031 L 233.449219 222.914062 C 233.449219 215.972656 208.382812 210.347656 177.464844 210.347656 C 146.546875 210.347656 121.46875 215.972656 121.46875 222.914062 L 121.46875 235.792969 C 121.488281 236.542969 121.824219 237.28125 122.410156 237.992188 C 121.804688 238.734375 121.46875 239.496094 121.46875 240.277344 L 121.46875 253.257812 C 121.515625 253.972656 121.851562 254.675781 122.410156 255.359375 C 121.804688 256.097656 121.46875 256.863281 121.46875 257.644531 C 121.46875 257.644531 121.46875 270.472656 121.46875 270.472656 C 121.476562 271.160156 121.75 271.835938 122.234375 272.496094 C 121.757812 273.144531 121.488281 273.796875 121.472656 274.472656 L 121.472656 287.335938 C 121.472656 288.117188 121.804688 288.890625 122.410156 289.632812 C 121.804688 290.371094 121.46875 291.136719 121.46875 291.917969 L 121.46875 304.710938 C 121.46875 311.648438 146.546875 317.277344 177.464844 317.277344 C 208.382812 317.277344 233.449219 311.648438 233.449219 304.710938 C 233.449219 304.511719 233.449219 291.914062 233.449219 291.914062 Z M 233.449219 291.914062 " fill-opacity="1" fill-rule="nonzero"/></g><path fill="rgb(99.21875%, 92.939758%, 64.309692%)" d="M 177.171875 248.410156 C 152.175781 248.410156 131.007812 244.734375 123.816406 239.65625 C 123.574219 239.976562 123.472656 240.234375 123.472656 240.414062 C 123.472656 241.355469 126.101562 244.378906 138.085938 247.070312 C 148.496094 249.40625 162.378906 250.695312 177.167969 250.695312 C 191.957031 250.695312 205.835938 249.40625 216.25 247.070312 C 228.234375 244.378906 230.859375 241.355469 230.859375 240.414062 C 230.859375 240.234375 230.757812 239.976562 230.515625 239.65625 C 223.332031 244.734375 202.164062 248.410156 177.171875 248.410156 Z M 177.171875 248.410156 " fill-opacity="1" fill-rule="nonzero"/><path fill="rgb(99.21875%, 92.939758%, 64.309692%)" d="M 177.171875 266.066406 C 152.175781 266.066406 131.007812 262.390625 123.816406 257.3125 C 123.574219 257.632812 123.472656 257.890625 123.472656 258.070312 C 123.472656 259.011719 126.101562 262.035156 138.085938 264.726562 C 148.496094 267.0625 162.378906 268.351562 177.167969 268.351562 C 191.957031 268.351562 205.835938 267.0625 216.25 264.726562 C 228.234375 262.035156 230.859375 259.011719 230.859375 258.070312 C 230.859375 257.890625 230.757812 257.632812 230.515625 257.3125 C 223.332031 262.390625 202.164062 266.066406 177.171875 266.066406 Z M 177.171875 266.066406 " fill-opacity="1" fill-rule="nonzero"/><path fill="rgb(99.21875%, 92.939758%, 64.309692%)" d="M 177.410156 282.484375 C 152.414062 282.484375 131.246094 278.804688 124.058594 273.730469 C 123.8125 274.046875 123.714844 274.304688 123.714844 274.488281 C 123.714844 275.425781 126.339844 278.453125 138.324219 281.144531 C 148.738281 283.480469 162.617188 284.769531 177.40625 284.769531 C 192.195312 284.769531 206.074219 283.480469 216.488281 281.144531 C 228.472656 278.453125 231.097656 275.425781 231.097656 274.488281 C 231.097656 274.304688 231 274.046875 230.757812 273.730469 C 223.574219 278.804688 202.40625 282.484375 177.410156 282.484375 Z M 177.410156 282.484375 " fill-opacity="1" fill-rule="nonzero"/><path fill="rgb(99.21875%, 92.939758%, 64.309692%)" d="M 177.703125 300.125 C 152.707031 300.125 131.539062 296.449219 124.347656 291.371094 C 124.105469 291.691406 124.003906 291.949219 124.003906 292.128906 C 124.003906 293.070312 126.632812 296.09375 138.617188 298.785156 C 149.03125 301.121094 162.910156 302.410156 177.699219 302.410156 C 192.488281 302.410156 206.367188 301.121094 216.78125 298.785156 C 228.765625 296.09375 231.390625 293.070312 231.390625 292.128906 C 231.390625 291.949219 231.289062 291.691406 231.046875 291.371094 C 223.863281 296.449219 202.695312 300.125 177.703125 300.125 Z M 177.703125 300.125 " fill-opacity="1" fill-rule="nonzero"/><path fill="rgb(99.609375%, 93.328857%, 62.748718%)" d="M 177.464844 233.195312 C 162.675781 233.195312 148.796875 231.90625 138.382812 229.570312 C 126.398438 226.878906 123.773438 223.851562 123.773438 222.914062 C 123.773438 221.972656 126.398438 218.949219 138.382812 216.257812 C 148.796875 213.921875 162.675781 212.632812 177.464844 212.632812 C 192.253906 212.632812 206.132812 213.921875 216.546875 216.257812 C 228.53125 218.949219 231.15625 221.972656 231.15625 222.914062 C 231.15625 223.851562 228.53125 226.878906 216.546875 229.570312 C 206.132812 231.910156 192.257812 233.195312 177.464844 233.195312 Z M 177.464844 233.195312 " fill-opacity="1" fill-rule="nonzero"/><path fill="rgb(99.609375%, 94.898987%, 72.549438%)" d="M 149.917969 262.753906 C 143.09375 261.953125 137.027344 260.5 137.027344 260.5 L 137.027344 248.21875 C 137.027344 248.21875 143.472656 249.875 149.917969 250.585938 C 149.917969 252.503906 149.917969 263.867188 149.917969 262.753906 Z M 149.917969 262.753906 " fill-opacity="1" fill-rule="nonzero"/><path fill="rgb(99.609375%, 94.898987%, 72.549438%)" d="M 157.503906 263.726562 C 157.503906 263.726562 154.089844 263.425781 152.195312 263.089844 C 152.195312 262.6875 152.195312 250.820312 152.195312 250.820312 L 157.503906 251.289062 Z M 157.503906 263.726562 " fill-opacity="1" fill-rule="nonzero"/><path fill="rgb(99.609375%, 94.898987%, 72.549438%)" d="M 149.917969 314.625 C 143.09375 313.828125 137.027344 312.371094 137.027344 312.371094 L 137.027344 300.089844 C 137.027344 300.089844 143.472656 301.746094 149.917969 302.457031 C 149.917969 304.371094 149.917969 315.738281 149.917969 314.625 Z M 149.917969 314.625 " fill-opacity="1" fill-rule="nonzero"/><path fill="rgb(99.609375%, 94.898987%, 72.549438%)" d="M 157.503906 315.59375 C 157.503906 315.59375 154.089844 315.292969 152.195312 314.957031 C 152.195312 314.554688 152.195312 302.6875 152.195312 302.6875 L 157.503906 303.15625 Z M 157.503906 315.59375 " fill-opacity="1" fill-rule="nonzero"/><path fill="rgb(99.609375%, 94.898987%, 72.549438%)" d="M 149.917969 245.390625 C 143.09375 244.59375 137.027344 243.136719 137.027344 243.136719 L 137.027344 230.855469 C 137.027344 230.855469 143.472656 232.507812 149.917969 233.222656 C 149.917969 235.136719 149.917969 246.503906 149.917969 245.390625 Z M 149.917969 245.390625 " fill-opacity="1" fill-rule="nonzero"/><path fill="rgb(99.609375%, 94.898987%, 72.549438%)" d="M 157.503906 246.363281 C 157.503906 246.363281 154.089844 246.058594 152.195312 245.722656 C 152.195312 245.324219 152.195312 233.457031 152.195312 233.457031 L 157.503906 233.925781 Z M 157.503906 246.363281 " fill-opacity="1" fill-rule="nonzero"/><path fill="rgb(99.609375%, 94.898987%, 72.549438%)" d="M 149.917969 297.140625 C 143.09375 296.339844 137.027344 294.886719 137.027344 294.886719 L 137.027344 282.601562 C 137.027344 282.601562 143.472656 284.257812 149.917969 284.96875 C 149.917969 286.886719 149.917969 298.253906 149.917969 297.140625 Z M 149.917969 297.140625 " fill-opacity="1" fill-rule="nonzero"/><path fill="rgb(99.609375%, 94.898987%, 72.549438%)" d="M 157.503906 298.109375 C 157.503906 298.109375 154.089844 297.808594 152.195312 297.472656 C 152.195312 297.070312 152.195312 285.203125 152.195312 285.203125 L 157.503906 285.671875 Z M 157.503906 298.109375 " fill-opacity="1" fill-rule="nonzero"/><path fill="rgb(99.609375%, 94.898987%, 72.549438%)" d="M 149.917969 280.359375 C 143.09375 279.558594 137.027344 278.101562 137.027344 278.101562 L 137.027344 265.824219 C 137.027344 265.824219 143.472656 267.480469 149.917969 268.191406 C 149.917969 270.109375 149.917969 281.472656 149.917969 280.359375 Z M 149.917969 280.359375 " fill-opacity="1" fill-rule="nonzero"/><path fill="rgb(99.609375%, 94.898987%, 72.549438%)" d="M 157.503906 281.332031 C 157.503906 281.332031 154.089844 281.03125 152.195312 280.695312 C 152.195312 280.292969 152.195312 268.425781 152.195312 268.425781 L 157.503906 268.894531 Z M 157.503906 281.332031 " fill-opacity="1" fill-rule="nonzero"/><path fill="rgb(87.838745%, 73.329163%, 25.489807%)" d="M 172.574219 230.929688 L 172.574219 228.949219 C 162.976562 228.929688 153.210938 228.570312 147.421875 228.074219 L 151.390625 226.75 C 157.183594 227.203125 165.789062 227.601562 175.054688 227.601562 C 186.804688 227.601562 194.75 226.789062 194.75 225.660156 C 194.75 224.570312 188.296875 223.894531 176.050781 223.300781 C 159.167969 222.507812 148.742188 221.578125 148.742188 219.851562 C 148.742188 218.207031 158.503906 216.957031 173.566406 216.660156 L 173.566406 214.679688 L 183.988281 214.679688 L 183.988281 216.601562 C 193.75 216.640625 200.539062 216.957031 205.503906 217.292969 L 201.367188 218.601562 C 197.886719 218.367188 191.105469 217.910156 180.515625 217.910156 C 167.773438 217.910156 162.972656 218.820312 162.972656 219.632812 C 162.972656 220.644531 169.09375 221.164062 183.492188 221.890625 C 200.539062 222.726562 209.148438 223.734375 209.148438 225.496094 C 209.148438 227.085938 200.046875 228.550781 183 228.867188 L 183 230.925781 L 172.574219 230.925781 Z M 172.574219 230.929688 " fill-opacity="1" fill-rule="nonzero"/><path fill="rgb(96.859741%, 78.819275%, 21.179199%)" d="M 233.449219 205.492188 C 233.449219 204.710938 233.125 203.953125 232.519531 203.207031 C 233.117188 202.476562 233.441406 201.722656 233.449219 200.949219 L 233.449219 188.128906 C 233.449219 187.429688 233.1875 186.742188 232.691406 186.074219 C 233.183594 185.40625 233.449219 184.714844 233.449219 184.015625 C 233.449219 184.015625 233.449219 171.21875 233.449219 171.214844 C 233.449219 170.433594 233.125 169.679688 232.519531 168.9375 C 233.074219 168.261719 233.398438 167.566406 233.449219 166.855469 L 233.449219 153.855469 C 233.449219 153.074219 233.125 152.316406 232.519531 151.574219 C 233.125 150.835938 233.449219 150.070312 233.449219 149.289062 L 233.449219 136.496094 C 233.449219 129.558594 208.382812 123.929688 177.464844 123.929688 C 146.546875 123.929688 121.46875 129.558594 121.46875 136.496094 L 121.46875 149.375 C 121.488281 150.125 121.824219 150.863281 122.410156 151.574219 C 121.804688 152.316406 121.46875 153.082031 121.46875 153.863281 L 121.46875 166.839844 C 121.515625 167.554688 121.851562 168.257812 122.410156 168.941406 C 121.804688 169.679688 121.46875 170.445312 121.46875 171.226562 C 121.46875 171.226562 121.46875 184.054688 121.46875 184.054688 C 121.476562 184.742188 121.75 185.417969 122.234375 186.078125 C 121.757812 186.726562 121.488281 187.378906 121.472656 188.058594 L 121.472656 200.917969 C 121.472656 201.699219 121.804688 202.476562 122.410156 203.214844 C 121.804688 203.957031 121.46875 204.71875 121.46875 205.5 L 121.46875 218.292969 C 121.46875 225.234375 146.546875 230.859375 177.464844 230.859375 C 208.382812 230.859375 233.449219 225.234375 233.449219 218.292969 C 233.449219 218.089844 233.449219 205.492188 233.449219 205.492188 Z M 233.449219 205.492188 " fill-opacity="1" fill-rule="nonzero"/><path fill="rgb(99.21875%, 92.939758%, 64.309692%)" d="M 177.171875 161.992188 C 152.175781 161.992188 131.007812 158.3125 123.816406 153.238281 C 123.574219 153.558594 123.472656 153.8125 123.472656 153.996094 C 123.472656 154.933594 126.101562 157.960938 138.085938 160.652344 C 148.496094 162.988281 162.378906 164.277344 177.167969 164.277344 C 191.957031 164.277344 205.835938 162.988281 216.25 160.652344 C 228.234375 157.960938 230.859375 154.933594 230.859375 153.996094 C 230.859375 153.8125 230.757812 153.558594 230.515625 153.238281 C 223.332031 158.3125 202.164062 161.992188 177.171875 161.992188 Z M 177.171875 161.992188 " fill-opacity="1" fill-rule="nonzero"/><path fill="rgb(99.21875%, 92.939758%, 64.309692%)" d="M 177.171875 179.648438 C 152.175781 179.648438 131.007812 175.96875 123.816406 170.894531 C 123.574219 171.214844 123.472656 171.46875 123.472656 171.652344 C 123.472656 172.589844 126.101562 175.617188 138.085938 178.308594 C 148.496094 180.644531 162.378906 181.933594 177.167969 181.933594 C 191.957031 181.933594 205.835938 180.644531 216.25 178.308594 C 228.234375 175.617188 230.859375 172.589844 230.859375 171.652344 C 230.859375 171.46875 230.757812 171.214844 230.515625 170.894531 C 223.332031 175.96875 202.164062 179.648438 177.171875 179.648438 Z M 177.171875 179.648438 " fill-opacity="1" fill-rule="nonzero"/><path fill="rgb(99.21875%, 92.939758%, 64.309692%)" d="M 177.410156 196.0625 C 152.414062 196.0625 131.246094 192.386719 124.058594 187.308594 C 123.8125 187.628906 123.714844 187.886719 123.714844 188.066406 C 123.714844 189.007812 126.339844 192.03125 138.324219 194.722656 C 148.738281 197.058594 162.617188 198.347656 177.40625 198.347656 C 192.195312 198.347656 206.074219 197.058594 216.488281 194.722656 C 228.472656 192.03125 231.097656 189.007812 231.097656 188.066406 C 231.097656 187.886719 231 187.628906 230.757812 187.308594 C 223.574219 192.386719 202.40625 196.0625 177.410156 196.0625 Z M 177.410156 196.0625 " fill-opacity="1" fill-rule="nonzero"/><path fill="rgb(99.21875%, 92.939758%, 64.309692%)" d="M 177.703125 213.707031 C 152.707031 213.707031 131.539062 210.03125 124.347656 204.957031 C 124.105469 205.273438 124.003906 205.53125 124.003906 205.714844 C 124.003906 206.652344 126.632812 209.679688 138.617188 212.367188 C 149.03125 214.707031 162.910156 215.996094 177.699219 215.996094 C 192.488281 215.996094 206.367188 214.707031 216.78125 212.367188 C 228.765625 209.679688 231.390625 206.652344 231.390625 205.714844 C 231.390625 205.53125 231.289062 205.273438 231.046875 204.957031 C 223.863281 210.027344 202.695312 213.707031 177.703125 213.707031 Z M 177.703125 213.707031 " fill-opacity="1" fill-rule="nonzero"/><path fill="rgb(99.609375%, 93.328857%, 62.748718%)" d="M 177.464844 146.777344 C 162.675781 146.777344 148.796875 145.488281 138.382812 143.152344 C 126.398438 140.460938 123.773438 137.4375 123.773438 136.496094 C 123.773438 135.558594 126.398438 132.53125 138.382812 129.84375 C 148.796875 127.503906 162.675781 126.214844 177.464844 126.214844 C 192.253906 126.214844 206.132812 127.503906 216.546875 129.84375 C 228.53125 132.53125 231.15625 135.558594 231.15625 136.496094 C 231.15625 137.4375 228.53125 140.460938 216.546875 143.152344 C 206.132812 145.488281 192.257812 146.777344 177.464844 146.777344 Z M 177.464844 146.777344 " fill-opacity="1" fill-rule="nonzero"/><path fill="rgb(99.609375%, 94.898987%, 72.549438%)" d="M 149.917969 176.335938 C 143.09375 175.539062 137.027344 174.082031 137.027344 174.082031 L 137.027344 161.800781 C 137.027344 161.800781 143.472656 163.453125 149.917969 164.167969 C 149.917969 166.082031 149.917969 177.449219 149.917969 176.335938 Z M 149.917969 176.335938 " fill-opacity="1" fill-rule="nonzero"/><path fill="rgb(99.609375%, 94.898987%, 72.549438%)" d="M 157.503906 177.304688 C 157.503906 177.304688 154.089844 177.003906 152.195312 176.667969 C 152.195312 176.269531 152.195312 164.398438 152.195312 164.398438 L 157.503906 164.871094 Z M 157.503906 177.304688 " fill-opacity="1" fill-rule="nonzero"/><path fill="rgb(99.609375%, 94.898987%, 72.549438%)" d="M 149.917969 228.203125 C 143.09375 227.40625 137.027344 225.949219 137.027344 225.949219 L 137.027344 213.671875 C 137.027344 213.671875 143.472656 215.324219 149.917969 216.039062 C 149.917969 217.953125 149.917969 229.320312 149.917969 228.203125 Z M 149.917969 228.203125 " fill-opacity="1" fill-rule="nonzero"/><path fill="rgb(99.609375%, 94.898987%, 72.549438%)" d="M 157.503906 229.175781 C 157.503906 229.175781 154.089844 228.875 152.195312 228.539062 C 152.195312 228.136719 152.195312 216.269531 152.195312 216.269531 L 157.503906 216.738281 Z M 157.503906 229.175781 " fill-opacity="1" fill-rule="nonzero"/><path fill="rgb(99.609375%, 94.898987%, 72.549438%)" d="M 149.917969 158.972656 C 143.09375 158.171875 137.027344 156.714844 137.027344 156.714844 L 137.027344 144.4375 C 137.027344 144.4375 143.472656 146.09375 149.917969 146.804688 C 149.917969 148.71875 149.917969 160.085938 149.917969 158.972656 Z M 149.917969 158.972656 " fill-opacity="1" fill-rule="nonzero"/><path fill="rgb(99.609375%, 94.898987%, 72.549438%)" d="M 157.503906 159.941406 C 157.503906 159.941406 154.089844 159.640625 152.195312 159.304688 C 152.195312 158.902344 152.195312 147.035156 152.195312 147.035156 L 157.503906 147.503906 Z M 157.503906 159.941406 " fill-opacity="1" fill-rule="nonzero"/><path fill="rgb(99.609375%, 94.898987%, 72.549438%)" d="M 149.917969 210.71875 C 143.09375 209.921875 137.027344 208.464844 137.027344 208.464844 L 137.027344 196.1875 C 137.027344 196.1875 143.472656 197.839844 149.917969 198.554688 C 149.917969 200.46875 149.917969 211.832031 149.917969 210.71875 Z M 149.917969 210.71875 " fill-opacity="1" fill-rule="nonzero"/><path fill="rgb(99.609375%, 94.898987%, 72.549438%)" d="M 157.503906 211.695312 C 157.503906 211.695312 154.089844 211.390625 152.195312 211.054688 C 152.195312 210.65625 152.195312 198.789062 152.195312 198.789062 L 157.503906 199.257812 Z M 157.503906 211.695312 " fill-opacity="1" fill-rule="nonzero"/><path fill="rgb(99.609375%, 94.898987%, 72.549438%)" d="M 149.917969 193.941406 C 143.09375 193.144531 137.027344 191.6875 137.027344 191.6875 L 137.027344 179.40625 C 137.027344 179.40625 143.472656 181.0625 149.917969 181.773438 C 149.917969 183.6875 149.917969 195.054688 149.917969 193.941406 Z M 149.917969 193.941406 " fill-opacity="1" fill-rule="nonzero"/><path fill="rgb(99.609375%, 94.898987%, 72.549438%)" d="M 157.503906 194.910156 C 157.503906 194.910156 154.089844 194.609375 152.195312 194.273438 C 152.195312 193.871094 152.195312 182.003906 152.195312 182.003906 L 157.503906 182.472656 Z M 157.503906 194.910156 " fill-opacity="1" fill-rule="nonzero"/><path fill="rgb(87.838745%, 73.329163%, 25.489807%)" d="M 172.574219 144.507812 L 172.574219 142.527344 C 162.976562 142.507812 153.210938 142.152344 147.421875 141.65625 L 151.390625 140.328125 C 157.183594 140.785156 165.789062 141.183594 175.054688 141.183594 C 186.804688 141.183594 194.75 140.371094 194.75 139.238281 C 194.75 138.148438 188.296875 137.472656 176.050781 136.882812 C 159.167969 136.089844 148.742188 135.15625 148.742188 133.433594 C 148.742188 131.789062 158.503906 130.539062 173.566406 130.238281 L 173.566406 128.257812 L 183.988281 128.257812 L 183.988281 130.179688 C 193.75 130.222656 200.539062 130.539062 205.503906 130.875 L 201.367188 132.183594 C 197.886719 131.945312 191.105469 131.488281 180.515625 131.488281 C 167.773438 131.488281 162.972656 132.402344 162.972656 133.214844 C 162.972656 134.226562 169.09375 134.742188 183.492188 135.472656 C 200.539062 136.304688 209.148438 137.316406 209.148438 139.078125 C 209.148438 140.664062 200.046875 142.132812 183 142.445312 L 183 144.507812 Z M 172.574219 144.507812 " fill-opacity="1" fill-rule="nonzero"/><g clip-path="url(#id5)"><path fill="rgb(96.859741%, 78.819275%, 21.179199%)" d="M 118.078125 291.914062 C 118.078125 291.132812 117.75 290.371094 117.144531 289.628906 C 117.742188 288.894531 118.070312 288.140625 118.078125 287.371094 L 118.078125 274.550781 C 118.078125 273.851562 117.8125 273.160156 117.320312 272.492188 C 117.808594 271.824219 118.078125 271.136719 118.078125 270.4375 C 118.078125 270.4375 118.078125 257.640625 118.078125 257.636719 C 118.078125 256.855469 117.75 256.097656 117.144531 255.359375 C 117.699219 254.683594 118.023438 253.988281 118.078125 253.277344 L 118.078125 240.273438 C 118.078125 239.492188 117.75 238.734375 117.144531 237.992188 C 117.75 237.253906 118.078125 236.488281 118.078125 235.707031 L 118.078125 222.914062 C 118.078125 215.972656 93.007812 210.347656 62.089844 210.347656 C 31.171875 210.351562 6.09375 215.972656 6.09375 222.914062 L 6.09375 235.792969 C 6.117188 236.542969 6.453125 237.28125 7.039062 237.992188 C 6.429688 238.734375 6.09375 239.496094 6.09375 240.277344 L 6.09375 253.257812 C 6.140625 253.972656 6.480469 254.675781 7.039062 255.359375 C 6.429688 256.097656 6.09375 256.863281 6.09375 257.644531 C 6.09375 257.644531 6.09375 270.472656 6.09375 270.472656 C 6.101562 271.160156 6.375 271.835938 6.859375 272.496094 C 6.382812 273.144531 6.117188 273.796875 6.097656 274.472656 L 6.097656 287.335938 C 6.097656 288.117188 6.429688 288.890625 7.039062 289.632812 C 6.429688 290.367188 6.09375 291.132812 6.09375 291.914062 L 6.09375 304.707031 C 6.09375 311.648438 31.171875 317.273438 62.089844 317.273438 C 93.007812 317.273438 118.078125 311.648438 118.078125 304.707031 C 118.078125 304.511719 118.078125 291.914062 118.078125 291.914062 Z M 118.078125 291.914062 " fill-opacity="1" fill-rule="nonzero"/></g><path fill="rgb(99.21875%, 92.939758%, 64.309692%)" d="M 61.792969 248.410156 C 36.796875 248.410156 15.628906 244.734375 8.441406 239.65625 C 8.195312 239.976562 8.097656 240.234375 8.097656 240.414062 C 8.097656 241.355469 10.722656 244.378906 22.707031 247.070312 C 33.121094 249.40625 47 250.695312 61.789062 250.695312 C 76.578125 250.695312 90.457031 249.40625 100.871094 247.070312 C 112.855469 244.378906 115.480469 241.355469 115.480469 240.414062 C 115.480469 240.234375 115.382812 239.976562 115.140625 239.65625 C 107.957031 244.734375 86.789062 248.410156 61.792969 248.410156 Z M 61.792969 248.410156 " fill-opacity="1" fill-rule="nonzero"/><path fill="rgb(99.21875%, 92.939758%, 64.309692%)" d="M 61.792969 266.066406 C 36.796875 266.066406 15.628906 262.390625 8.441406 257.3125 C 8.195312 257.632812 8.097656 257.890625 8.097656 258.070312 C 8.097656 259.011719 10.722656 262.035156 22.707031 264.726562 C 33.121094 267.0625 47 268.351562 61.789062 268.351562 C 76.578125 268.351562 90.457031 267.0625 100.871094 264.726562 C 112.855469 262.035156 115.480469 259.011719 115.480469 258.070312 C 115.480469 257.890625 115.382812 257.632812 115.140625 257.3125 C 107.957031 262.390625 86.789062 266.066406 61.792969 266.066406 Z M 61.792969 266.066406 " fill-opacity="1" fill-rule="nonzero"/><path fill="rgb(99.21875%, 92.939758%, 64.309692%)" d="M 62.035156 282.484375 C 37.039062 282.484375 15.875 278.804688 8.683594 273.730469 C 8.441406 274.046875 8.339844 274.304688 8.339844 274.488281 C 8.339844 275.425781 10.964844 278.453125 22.949219 281.144531 C 33.363281 283.480469 47.242188 284.769531 62.03125 284.769531 C 76.820312 284.769531 90.703125 283.480469 101.113281 281.144531 C 113.101562 278.453125 115.726562 275.425781 115.726562 274.488281 C 115.726562 274.304688 115.625 274.046875 115.382812 273.730469 C 108.199219 278.804688 87.03125 282.484375 62.035156 282.484375 Z M 62.035156 282.484375 " fill-opacity="1" fill-rule="nonzero"/><path fill="rgb(99.21875%, 92.939758%, 64.309692%)" d="M 62.328125 300.125 C 37.332031 300.125 16.164062 296.449219 8.972656 291.371094 C 8.730469 291.691406 8.632812 291.949219 8.632812 292.128906 C 8.632812 293.070312 11.257812 296.09375 23.242188 298.785156 C 33.65625 301.121094 47.535156 302.410156 62.324219 302.410156 C 77.113281 302.410156 90.992188 301.121094 101.40625 298.785156 C 113.390625 296.09375 116.015625 293.070312 116.015625 292.128906 C 116.015625 291.949219 115.917969 291.691406 115.671875 291.371094 C 108.488281 296.449219 87.324219 300.125 62.328125 300.125 Z M 62.328125 300.125 " fill-opacity="1" fill-rule="nonzero"/><path fill="rgb(99.609375%, 93.328857%, 62.748718%)" d="M 62.089844 233.195312 C 47.300781 233.195312 33.421875 231.90625 23.007812 229.570312 C 11.023438 226.878906 8.398438 223.851562 8.398438 222.914062 C 8.398438 221.972656 11.023438 218.949219 23.007812 216.257812 C 33.421875 213.921875 47.300781 212.632812 62.089844 212.632812 C 76.878906 212.632812 90.761719 213.921875 101.171875 216.257812 C 113.15625 218.949219 115.785156 221.972656 115.785156 222.914062 C 115.785156 223.851562 113.15625 226.878906 101.171875 229.570312 C 90.761719 231.910156 76.878906 233.195312 62.089844 233.195312 Z M 62.089844 233.195312 " fill-opacity="1" fill-rule="nonzero"/><path fill="rgb(99.609375%, 94.898987%, 72.549438%)" d="M 34.542969 262.753906 C 27.714844 261.953125 21.648438 260.5 21.648438 260.5 L 21.648438 248.21875 C 21.648438 248.21875 28.09375 249.875 34.542969 250.585938 C 34.542969 252.503906 34.542969 263.867188 34.542969 262.753906 Z M 34.542969 262.753906 " fill-opacity="1" fill-rule="nonzero"/><path fill="rgb(99.609375%, 94.898987%, 72.549438%)" d="M 42.128906 263.726562 C 42.128906 263.726562 38.714844 263.425781 36.816406 263.089844 C 36.816406 262.6875 36.816406 250.820312 36.816406 250.820312 L 42.128906 251.289062 Z M 42.128906 263.726562 " fill-opacity="1" fill-rule="nonzero"/><path fill="rgb(99.609375%, 94.898987%, 72.549438%)" d="M 34.542969 314.625 C 27.714844 313.828125 21.648438 312.371094 21.648438 312.371094 L 21.648438 300.089844 C 21.648438 300.089844 28.09375 301.746094 34.542969 302.457031 C 34.542969 304.371094 34.542969 315.738281 34.542969 314.625 Z M 34.542969 314.625 " fill-opacity="1" fill-rule="nonzero"/><path fill="rgb(99.609375%, 94.898987%, 72.549438%)" d="M 42.128906 315.59375 C 42.128906 315.59375 38.714844 315.292969 36.816406 314.957031 C 36.816406 314.554688 36.816406 302.6875 36.816406 302.6875 L 42.128906 303.15625 Z M 42.128906 315.59375 " fill-opacity="1" fill-rule="nonzero"/><path fill="rgb(99.609375%, 94.898987%, 72.549438%)" d="M 34.542969 245.390625 C 27.714844 244.59375 21.648438 243.136719 21.648438 243.136719 L 21.648438 230.855469 C 21.648438 230.855469 28.09375 232.507812 34.542969 233.222656 C 34.542969 235.136719 34.542969 246.503906 34.542969 245.390625 Z M 34.542969 245.390625 " fill-opacity="1" fill-rule="nonzero"/><path fill="rgb(99.609375%, 94.898987%, 72.549438%)" d="M 42.128906 246.363281 C 42.128906 246.363281 38.714844 246.058594 36.816406 245.722656 C 36.816406 245.324219 36.816406 233.457031 36.816406 233.457031 L 42.128906 233.925781 Z M 42.128906 246.363281 " fill-opacity="1" fill-rule="nonzero"/><path fill="rgb(99.609375%, 94.898987%, 72.549438%)" d="M 34.542969 297.140625 C 27.714844 296.339844 21.648438 294.886719 21.648438 294.886719 L 21.648438 282.601562 C 21.648438 282.601562 28.09375 284.257812 34.542969 284.96875 C 34.542969 286.886719 34.542969 298.253906 34.542969 297.140625 Z M 34.542969 297.140625 " fill-opacity="1" fill-rule="nonzero"/><path fill="rgb(99.609375%, 94.898987%, 72.549438%)" d="M 42.128906 298.109375 C 42.128906 298.109375 38.714844 297.808594 36.816406 297.472656 C 36.816406 297.070312 36.816406 285.203125 36.816406 285.203125 L 42.128906 285.671875 Z M 42.128906 298.109375 " fill-opacity="1" fill-rule="nonzero"/><path fill="rgb(99.609375%, 94.898987%, 72.549438%)" d="M 34.542969 280.359375 C 27.714844 279.558594 21.648438 278.101562 21.648438 278.101562 L 21.648438 265.824219 C 21.648438 265.824219 28.09375 267.480469 34.542969 268.191406 C 34.542969 270.109375 34.542969 281.472656 34.542969 280.359375 Z M 34.542969 280.359375 " fill-opacity="1" fill-rule="nonzero"/><path fill="rgb(99.609375%, 94.898987%, 72.549438%)" d="M 42.128906 281.332031 C 42.128906 281.332031 38.714844 281.03125 36.816406 280.695312 C 36.816406 280.292969 36.816406 268.425781 36.816406 268.425781 L 42.128906 268.894531 Z M 42.128906 281.332031 " fill-opacity="1" fill-rule="nonzero"/><path fill="rgb(87.838745%, 73.329163%, 25.489807%)" d="M 57.199219 230.929688 L 57.199219 228.949219 C 47.605469 228.929688 37.835938 228.570312 32.046875 228.074219 L 36.015625 226.75 C 41.808594 227.203125 50.414062 227.601562 59.683594 227.601562 C 71.429688 227.601562 79.375 226.789062 79.375 225.660156 C 79.375 224.570312 72.921875 223.894531 60.675781 223.300781 C 43.796875 222.507812 33.367188 221.578125 33.367188 219.851562 C 33.367188 218.207031 43.132812 216.957031 58.191406 216.660156 L 58.191406 214.679688 L 68.613281 214.679688 L 68.613281 216.601562 C 78.378906 216.640625 85.164062 216.957031 90.128906 217.292969 L 85.992188 218.601562 C 82.515625 218.367188 75.730469 217.910156 65.140625 217.910156 C 52.398438 217.910156 47.601562 218.820312 47.601562 219.632812 C 47.601562 220.644531 53.722656 221.164062 68.121094 221.890625 C 85.167969 222.726562 93.773438 223.734375 93.773438 225.496094 C 93.773438 227.085938 84.671875 228.550781 67.625 228.867188 L 67.625 230.925781 L 57.199219 230.925781 Z M 57.199219 230.929688 " fill-opacity="1" fill-rule="nonzero"/></svg>