<svg xmlns="http://www.w3.org/2000/svg" xmlns:xlink="http://www.w3.org/1999/xlink" width="500" zoomAndPan="magnify" viewBox="0 0 375 374.999991" height="500" preserveAspectRatio="xMidYMid meet" version="1.0"><defs><clipPath id="id1"><path d="M 41 38.707031 L 298.804688 38.707031 L 298.804688 337.257812 L 41 337.257812 Z M 41 38.707031 " clip-rule="nonzero"/></clipPath><clipPath id="id2"><path d="M 79 26.011719 L 280 26.011719 L 280 257 L 79 257 Z M 79 26.011719 " clip-rule="nonzero"/></clipPath><clipPath id="id3"><path d="M 11.183594 220.046875 L 92 220.046875 L 92 337.257812 L 11.183594 337.257812 Z M 11.183594 220.046875 " clip-rule="nonzero"/></clipPath><clipPath id="id4"><path d="M 268.214844 220.046875 L 349.015625 220.046875 L 349.015625 337.257812 L 268.214844 337.257812 Z M 268.214844 220.046875 " clip-rule="nonzero"/></clipPath></defs><g clip-path="url(#id1)"><path fill="rgb(79.998779%, 79.998779%, 79.998779%)" d="M 96.207031 38.996094 L 296.777344 38.996094 L 277.15625 257.53125 L 277.269531 258.027344 C 279.636719 257.363281 281.640625 257.039062 277.566406 259.308594 C 279.378906 258.308594 279.984375 257.8125 279.90625 257.621094 C 279.90625 257.621094 289.625 280.769531 298.789062 302.378906 L 298.789062 337.257812 L 257.40625 337.257812 L 244.265625 269.183594 L 123.59375 269.183594 L 99.175781 337.257812 L 41.070312 337.257812 C 51.105469 319.6875 88.164062 257.621094 88.164062 257.621094 C 88.085938 257.8125 88.691406 258.308594 90.507812 259.308594 C 90.527344 259.195312 90.550781 259.085938 90.574219 258.960938 C 90.550781 259.085938 90.527344 259.195312 90.507812 259.308594 C 86.429688 257.039062 88.433594 257.363281 90.800781 258.027344 C 91.191406 256.351562 91.699219 254.339844 92.242188 251.910156 C 94.585938 241.46875 89.570312 227.480469 89.132812 225.589844 C 88.683594 223.699219 87.90625 215.925781 90.359375 214.441406 C 92.804688 212.957031 105.371094 203.035156 105.371094 203.035156 L 109.324219 201.820312 C 109.324219 201.820312 110.414062 201.675781 112.183594 201.453125 L 96.207031 38.996094 " fill-opacity="1" fill-rule="evenodd"/></g><g clip-path="url(#id2)"><path fill="rgb(100%, 100%, 100%)" d="M 79.359375 26.007812 L 279.917969 26.007812 L 259.265625 256.203125 L 102.003906 256.203125 L 79.359375 26.007812 " fill-opacity="1" fill-rule="evenodd"/></g><path fill="rgb(79.998779%, 79.998779%, 79.998779%)" d="M 82.027344 29.078125 C 114.550781 29.121094 147.09375 29.132812 179.617188 29.121094 C 212.136719 29.109375 244.703125 29.097656 277.238281 29.078125 C 273.902344 66.429688 270.59375 103.796875 267.28125 141.128906 C 263.984375 178.449219 260.648438 215.800781 257.351562 253.125 C 231.820312 253.125 206.257812 253.125 180.753906 253.125 C 155.234375 253.125 129.707031 253.125 104.210938 253.125 C 100.496094 215.800781 96.8125 178.449219 93.117188 141.128906 C 89.425781 103.796875 85.699219 66.429688 82.027344 29.078125 " fill-opacity="1" fill-rule="evenodd"/><path fill="rgb(70.199585%, 70.199585%, 70.199585%)" d="M 133.941406 83.425781 C 152.230469 83.425781 170.539062 83.414062 188.847656 83.40625 C 207.136719 83.390625 225.449219 83.40625 243.757812 83.40625 C 240.761719 104.15625 237.8125 124.875 235.019531 145.605469 C 232.226562 166.324219 229.570312 187.054688 226.976562 207.78125 C 226.976562 207.894531 226.992188 207.984375 227.011719 208.074219 C 228.148438 207.691406 229.117188 207.511719 227.113281 208.785156 C 227.113281 208.808594 227.113281 208.808594 227.113281 208.808594 C 228.015625 208.234375 228.308594 207.941406 228.285156 207.851562 C 228.285156 207.851562 232.203125 221 235.761719 233.316406 C 235.367188 239.929688 234.964844 246.542969 234.570312 253.125 C 228.308594 253.125 222.058594 253.125 215.808594 253.125 C 214.265625 240.246094 212.667969 227.34375 211.023438 214.40625 C 201.460938 214.40625 191.914062 214.40625 182.375 214.40625 C 172.824219 214.40625 163.273438 214.40625 153.738281 214.40625 C 150.394531 227.34375 147.171875 240.246094 144.074219 253.125 C 139.535156 253.125 135.011719 253.125 130.484375 253.125 C 126.226562 253.125 121.96875 253.125 117.734375 253.125 C 121.507812 243.15625 136.519531 207.851562 136.519531 207.851562 C 136.496094 207.941406 136.789062 208.234375 137.691406 208.808594 C 137.699219 208.738281 137.722656 208.671875 137.722656 208.605469 C 137.722656 208.671875 137.699219 208.738281 137.691406 208.785156 C 135.675781 207.511719 136.65625 207.691406 137.804688 208.074219 C 137.9375 207.109375 137.8125 208.246094 138.308594 204.578125 C 138.804688 200.910156 136.238281 190.6875 135.96875 189.605469 C 135.699219 188.539062 135.066406 184.105469 136.226562 183.261719 C 137.375 182.429688 142.984375 176.886719 143.308594 176.773438 C 143.636719 176.660156 144.582031 176.324219 145.222656 176.074219 C 145.222656 176.074219 145.789062 175.984375 146.644531 175.875 C 144.640625 160.484375 142.589844 145.042969 140.484375 129.679688 C 138.367188 114.277344 136.148438 98.847656 133.941406 83.425781 " fill-opacity="1" fill-rule="evenodd"/><path fill="rgb(100%, 100%, 100%)" d="M 124.257812 76.035156 C 142.679688 76.035156 161.136719 76.046875 179.582031 76.035156 C 198.003906 76.023438 216.449219 76.015625 234.917969 76.015625 C 231.957031 97.855469 229.027344 119.699219 226.292969 141.53125 C 223.558594 163.34375 220.945312 185.199219 218.421875 207.019531 C 205.875 207.019531 193.296875 207.019531 180.753906 207.019531 C 168.21875 207.019531 155.640625 207.019531 143.117188 207.019531 C 140.199219 185.199219 137.21875 163.34375 134.074219 141.53125 C 130.933594 119.722656 127.609375 97.878906 124.257812 76.035156 " fill-opacity="1" fill-rule="evenodd"/><g clip-path="url(#id3)"><path fill="rgb(100%, 79.998779%, 0%)" d="M 91.890625 235.226562 L 55.292969 337.257812 L 11.183594 337.257812 L 11.183594 269.074219 C 25.949219 243.214844 39.089844 220.078125 39.089844 220.078125 C 38.921875 220.457031 40.800781 221.773438 46.824219 224.835938 C 64.988281 234.070312 89.605469 239.210938 91.734375 235.53125 C 91.800781 235.429688 91.847656 235.328125 91.890625 235.226562 " fill-opacity="1" fill-rule="evenodd"/></g><g clip-path="url(#id4)"><path fill="rgb(100%, 79.998779%, 0%)" d="M 268.433594 235.226562 L 288.113281 337.257812 L 349.015625 337.257812 L 349.015625 285.945312 C 335.535156 254.136719 321.234375 220.078125 321.234375 220.078125 C 321.402344 220.457031 319.523438 221.773438 313.5 224.835938 C 295.335938 234.070312 270.71875 239.210938 268.589844 235.53125 C 268.519531 235.429688 268.476562 235.328125 268.433594 235.226562 " fill-opacity="1" fill-rule="evenodd"/></g><path fill="rgb(100%, 79.998779%, 59.999084%)" d="M 70.226562 137.957031 L 64.40625 139.753906 C 64.40625 139.753906 45.914062 154.34375 42.308594 156.527344 C 38.71875 158.71875 39.855469 170.160156 40.519531 172.9375 C 41.171875 175.714844 48.535156 196.300781 45.089844 211.664062 C 44.066406 216.265625 43.121094 219.828125 42.5 222.675781 C 43.605469 223.292969 40.8125 221.898438 46.769531 224.933594 C 52.726562 227.960938 67.308594 233.609375 76.441406 235.386719 C 76.65625 226.273438 77.5 213.484375 84.933594 208.738281 C 87.0625 207.378906 91.859375 202.597656 96.207031 197.3125 L 90.125 135.527344 C 79.988281 136.695312 70.226562 137.957031 70.226562 137.957031 " fill-opacity="1" fill-rule="evenodd"/><path fill="rgb(90.979004%, 70.979309%, 50.979614%)" d="M 69.371094 233.621094 C 69.695312 227.464844 71.609375 219.4375 77.984375 212.160156 C 85.179688 203.9375 87.296875 195.355469 87.375 187.976562 C 89.796875 185.207031 92.265625 183.128906 94.660156 181.574219 L 96.542969 200.785156 C 93.863281 203.96875 90.597656 206.929688 86.722656 209.097656 C 79.011719 213.429688 78.300781 226.488281 78.175781 235.746094 C 75.460938 235.214844 72.476562 234.496094 69.371094 233.621094 " fill-opacity="1" fill-rule="evenodd"/><path fill="rgb(100%, 79.998779%, 59.999084%)" d="M 69.414062 233.519531 C 69.753906 227.367188 71.65625 219.335938 78.03125 212.058594 C 90.628906 197.671875 87.691406 182.148438 85.394531 173.972656 C 117.140625 163.195312 105.6875 136.394531 98.816406 146.1875 C 91.9375 155.996094 74.921875 156.167969 74.921875 156.167969 C 64.652344 164.300781 62.644531 167.59375 59.101562 185.207031 L 56.160156 229.019531 C 60.597656 230.796875 65.136719 232.316406 69.414062 233.519531 " fill-opacity="1" fill-rule="evenodd"/><path stroke-linecap="butt" transform="matrix(0.0397264, 0, 0, -0.03968, 11.184978, 337.25734)" fill="none" stroke-linejoin="miter" d="M 1682.66612 3155.209757 C 1999.776542 3517.778207 1925.833275 3908.993797 1868.015933 4115.036632 C 2667.134195 4386.643027 2378.834116 5062.065816 2205.873734 4815.267254 C 2032.716694 4568.074917 1604.396385 4563.743391 1604.396385 4563.743391 C 1345.889936 4358.783437 1295.348926 4275.795329 1206.164693 3831.912315 " stroke="rgb(7.839966%, 8.239746%, 8.239746%)" stroke-width="5.669" stroke-opacity="1" stroke-miterlimit="10"/><path stroke-linecap="butt" transform="matrix(0.0397264, 0, 0, -0.03968, 11.184978, 337.25734)" fill="none" stroke-linejoin="miter" d="M 2023.670444 4713.181052 C 1888.468326 4662.384061 1687.975876 4610.011969 1513.638891 4654.508558 M 1444.218749 4729.916495 C 1444.218749 4729.916495 1510.885684 4696.150278 1527.01161 4613.359057 C 1530.158132 4598.100271 1531.239749 4581.069497 1530.158132 4562.069847 C 1522.193498 4441.574658 1530.158132 4540.510659 1530.158132 4540.510659 " stroke="rgb(7.839966%, 8.239746%, 8.239746%)" stroke-width="5.669" stroke-opacity="1" stroke-miterlimit="10"/><path fill="rgb(100%, 100%, 79.998779%)" d="M 99.796875 145.066406 C 99.460938 145.367188 99.132812 145.738281 98.816406 146.1875 C 96.800781 149.058594 93.929688 151.09375 90.878906 152.554688 C 91.453125 153.421875 92.21875 154.714844 92.554688 155.75 C 93.109375 157.515625 99.796875 151.296875 100.078125 148.28125 C 100.203125 146.976562 100.035156 145.886719 99.796875 145.066406 " fill-opacity="1" fill-rule="evenodd"/><path fill="rgb(0%, 0%, 0%)" d="M 42.964844 220.671875 C 39.484375 219.695312 36.53125 219.210938 42.535156 222.5625 C 42.660156 221.96875 42.804688 221.335938 42.964844 220.671875 Z M 78.175781 235.632812 C 85.4375 237.0625 90.789062 237.164062 91.734375 235.53125 C 93.863281 231.851562 84.289062 230.289062 84.289062 230.289062 L 78.433594 228.996094 C 78.265625 231.300781 78.210938 233.5625 78.175781 235.632812 " fill-opacity="1" fill-rule="evenodd"/><path fill="rgb(70.199585%, 70.199585%, 70.199585%)" d="M 127.644531 79.433594 C 145.125 79.421875 162.621094 79.398438 180.109375 79.367188 C 197.589844 79.34375 215.097656 79.308594 232.585938 79.289062 C 229.964844 100.332031 227.351562 121.386719 224.738281 142.433594 C 222.125 163.46875 219.511719 184.511719 216.910156 205.542969 C 204.816406 205.542969 192.746094 205.542969 180.664062 205.542969 C 168.589844 205.542969 156.519531 205.542969 144.445312 205.542969 C 141.644531 184.535156 138.839844 163.511719 136.035156 142.5 C 133.242188 121.488281 130.4375 100.457031 127.644531 79.433594 " fill-opacity="1" fill-rule="evenodd"/><path fill="rgb(59.999084%, 59.999084%, 59.999084%)" d="M 156.136719 109.992188 C 165.730469 109.972656 175.335938 109.960938 184.941406 109.949219 C 194.535156 109.9375 204.152344 109.925781 213.757812 109.914062 C 211.867188 121.601562 209.976562 133.277344 208.230469 144.964844 C 206.484375 156.640625 204.863281 168.3125 203.253906 179.988281 C 203.265625 180.054688 203.253906 180.113281 203.273438 180.160156 C 203.835938 179.957031 204.300781 179.855469 203.320312 180.5625 C 203.320312 180.574219 203.320312 180.574219 203.320312 180.574219 C 203.757812 180.25 203.90625 180.078125 203.882812 180.046875 C 203.882812 180.046875 205.574219 187.457031 207.09375 194.386719 C 206.753906 198.109375 206.429688 201.832031 206.132812 205.542969 C 203.160156 205.542969 200.210938 205.542969 197.25 205.542969 C 196.664062 198.289062 196.046875 191.023438 195.390625 183.722656 C 190.753906 183.722656 186.101562 183.734375 181.453125 183.746094 C 176.800781 183.746094 172.148438 183.746094 167.511719 183.757812 C 166.011719 191.023438 164.605469 198.289062 163.308594 205.542969 C 161.160156 205.542969 159.019531 205.542969 156.878906 205.542969 C 154.863281 205.542969 152.847656 205.542969 150.84375 205.542969 C 152.410156 199.933594 159.042969 180.054688 159.042969 180.054688 C 159.019531 180.101562 159.175781 180.269531 159.625 180.597656 C 159.617188 180.5625 159.636719 180.507812 159.625 180.484375 C 159.636719 180.507812 159.617188 180.5625 159.625 180.574219 C 158.613281 179.867188 159.097656 179.964844 159.660156 180.179688 C 159.714844 179.640625 159.671875 180.269531 159.863281 178.210938 C 160.054688 176.144531 158.660156 170.394531 158.511719 169.789062 C 158.355469 169.179688 157.984375 166.695312 158.535156 166.210938 C 159.097656 165.738281 161.824219 162.621094 161.980469 162.554688 C 162.148438 162.488281 162.621094 162.296875 162.949219 162.160156 C 162.949219 162.160156 163.21875 162.117188 163.636719 162.046875 C 162.476562 153.375 161.28125 144.683594 160.042969 136.019531 C 158.792969 127.359375 157.464844 118.664062 156.136719 109.992188 " fill-opacity="1" fill-rule="evenodd"/><path fill="rgb(100%, 79.998779%, 0%)" d="M 159.390625 172.882812 C 158.34375 178.324219 157.320312 183.792969 156.40625 189.222656 C 155.496094 194.65625 154.671875 200.121094 153.90625 205.542969 C 150.742188 205.542969 147.589844 205.542969 144.445312 205.542969 C 143.46875 198.277344 142.5 191 141.53125 183.714844 C 143.917969 175.433594 146.214844 168.023438 146.214844 168.023438 C 146.203125 168.144531 145.125 167.582031 148.242188 169.550781 C 151.363281 171.519531 159.152344 173.578125 159.367188 172.980469 C 159.582031 172.386719 159.390625 172.902344 159.390625 172.882812 " fill-opacity="1" fill-rule="evenodd"/><path fill="rgb(100%, 79.998779%, 0%)" d="M 201.652344 172.859375 C 202.070312 178.3125 202.484375 183.769531 202.847656 189.222656 C 203.207031 194.65625 203.523438 200.121094 203.847656 205.542969 C 208.195312 205.542969 212.554688 205.542969 216.910156 205.542969 C 217.574219 200.066406 218.261719 194.589844 218.949219 189.101562 C 217.023438 178.921875 214.796875 167.988281 214.796875 167.988281 C 214.816406 168.125 215.863281 167.550781 212.78125 169.507812 C 209.683594 171.476562 201.910156 173.554688 201.699219 172.949219 C 201.472656 172.328125 201.675781 172.871094 201.652344 172.859375 " fill-opacity="1" fill-rule="evenodd"/><path fill="rgb(90.19928%, 90.19928%, 90.19928%)" d="M 150.945312 105.832031 C 160.652344 105.820312 170.371094 105.808594 180.066406 105.800781 C 189.773438 105.785156 199.492188 105.777344 209.199219 105.765625 C 207.375 118.070312 205.539062 130.363281 203.859375 142.667969 C 202.195312 154.964844 200.605469 167.28125 199.097656 179.5625 C 192.949219 179.5625 186.800781 179.574219 180.675781 179.574219 C 174.535156 179.574219 168.386719 179.574219 162.25 179.582031 C 160.539062 167.300781 158.792969 154.984375 156.914062 142.703125 C 155.035156 130.433594 152.996094 118.136719 150.945312 105.832031 " fill-opacity="1" fill-rule="evenodd"/><path fill="rgb(100%, 79.998779%, 59.999084%)" d="M 209.332031 141.65625 C 209.816406 141.859375 210.558594 142.140625 210.808594 142.242188 C 211.066406 142.332031 215.199219 146.910156 216.066406 147.605469 C 216.933594 148.304688 216.238281 151.984375 215.988281 152.871094 C 215.742188 153.75 213.355469 162.082031 213.589844 165.289062 C 213.828125 168.507812 213.835938 167.910156 213.882812 168.820312 C 213.601562 169.023438 214.332031 168.5625 212.800781 169.539062 C 211.257812 170.507812 207.574219 172.339844 205.371094 172.890625 C 205.527344 169.96875 205.617188 165.863281 203.90625 164.34375 C 203.421875 163.917969 202.386719 162.476562 201.429688 160.847656 C 202.304688 154.1875 203.207031 147.527344 204.109375 140.871094 C 206.753906 141.261719 209.332031 141.65625 209.332031 141.65625 " fill-opacity="1" fill-rule="evenodd"/><path fill="rgb(90.979004%, 70.979309%, 50.979614%)" d="M 207.09375 172.339844 C 207.171875 170.351562 207.003906 167.941406 205.527344 165.457031 C 204.042969 162.972656 203.613281 160.070312 203.746094 157.695312 C 203.746094 157.695312 204.007812 158.113281 203.746094 157.695312 C 203.488281 157.269531 202.644531 156.191406 202.105469 155.695312 C 201.84375 157.796875 201.5625 159.878906 201.292969 161.972656 C 201.878906 162.914062 202.589844 163.816406 203.445312 164.480469 C 205.257812 165.851562 205.121094 170.046875 204.929688 173.027344 C 205.582031 172.847656 206.328125 172.597656 207.09375 172.339844 " fill-opacity="1" fill-rule="evenodd"/><path fill="rgb(100%, 79.998779%, 59.999084%)" d="M 207.09375 172.285156 C 207.171875 170.316406 207.589844 168.886719 205.515625 165.421875 C 203.433594 161.949219 203.804688 155.828125 204.523438 153.210938 C 196.609375 149.765625 200.03125 141.164062 201.640625 144.3125 C 203.253906 147.449219 207.632812 147.496094 207.632812 147.496094 C 210.066406 150.105469 210.503906 151.152344 210.921875 156.796875 C 210.761719 161.476562 210.570312 166.175781 210.402344 170.84375 C 209.265625 171.417969 208.140625 171.925781 207.09375 172.285156 " fill-opacity="1" fill-rule="evenodd"/><path stroke-linecap="butt" transform="matrix(0.0397264, 0, 0, -0.03968, 11.184978, 337.25734)" fill="none" stroke-linejoin="miter" d="M 4891.725259 4330.530071 C 4821.715144 4446.693734 4848.657238 4572.308 4866.74974 4638.265334 C 4667.535565 4725.09275 4753.671605 4941.865958 4794.183076 4862.52027 C 4834.792876 4783.469913 4945.019475 4782.288587 4945.019475 4782.288587 C 5006.278326 4716.528141 5017.291153 4690.145207 5027.812336 4547.893942 " stroke="rgb(7.839966%, 8.239746%, 8.239746%)" stroke-width="5.669" stroke-opacity="1" stroke-miterlimit="10"/><path stroke-linecap="butt" transform="matrix(0.0397264, 0, 0, -0.03968, 11.184978, 337.25734)" fill="none" stroke-linejoin="miter" d="M 4840.200961 4830.230709 C 4873.829415 4813.495266 4924.370424 4797.055155 4970.781624 4811.231059 M 4991.234017 4835.940448 C 4991.234017 4835.940448 4972.256556 4824.816301 4966.258499 4798.23648 C 4965.471868 4793.708066 4964.586909 4787.702995 4964.586909 4782.0917 C 4963.70195 4742.911074 4963.996936 4775.200635 4963.996936 4775.200635 " stroke="rgb(7.839966%, 8.239746%, 8.239746%)" stroke-width="5.669" stroke-opacity="1" stroke-miterlimit="10"/><path fill="rgb(100%, 100%, 79.998779%)" d="M 201.417969 143.929688 C 201.496094 144.03125 201.371094 143.769531 201.640625 144.3125 C 201.910156 144.839844 202.835938 145.875 203.589844 146.347656 C 203.421875 146.617188 203.242188 146.898438 203.09375 147.359375 C 202.949219 147.820312 201.292969 145.660156 201.269531 144.976562 C 201.257812 144.289062 201.335938 144.199219 201.417969 143.929688 " fill-opacity="1" fill-rule="evenodd"/><path fill="rgb(0%, 0%, 0%)" d="M 213.835938 168.191406 C 214.714844 167.863281 215.449219 167.707031 213.871094 168.785156 C 213.871094 168.582031 213.859375 168.394531 213.835938 168.191406 Z M 204.929688 172.972656 C 203.148438 173.441406 202.003906 173.804688 201.699219 172.949219 C 201.382812 172.09375 203.589844 171.25 203.589844 171.25 C 204.074219 171.113281 204.558594 170.980469 205.03125 170.835938 C 204.996094 171.597656 204.976562 172.304688 204.929688 172.972656 " fill-opacity="1" fill-rule="evenodd"/><path fill="rgb(100%, 79.998779%, 59.999084%)" d="M 151.460938 141.710938 C 150.96875 141.90625 150.222656 142.195312 149.988281 142.285156 C 149.738281 142.386719 145.628906 146.964844 144.773438 147.664062 C 143.90625 148.371094 144.617188 152.039062 144.886719 152.917969 C 145.15625 153.804688 147.589844 162.128906 147.386719 165.324219 C 147.183594 168.515625 147.183594 167.941406 147.140625 168.855469 C 147.429688 169.054688 146.710938 168.605469 148.253906 169.574219 C 149.796875 170.542969 153.457031 172.363281 155.707031 172.9375 C 155.503906 170 155.382812 165.90625 157.082031 164.390625 C 157.566406 163.949219 158.648438 162.421875 159.59375 160.710938 C 158.636719 154.117188 157.644531 147.515625 156.640625 140.925781 C 153.996094 141.308594 151.460938 141.710938 151.460938 141.710938 " fill-opacity="1" fill-rule="evenodd"/><path fill="rgb(90.979004%, 70.979309%, 50.979614%)" d="M 153.960938 172.363281 C 153.871094 170.382812 154.007812 167.964844 155.460938 165.480469 C 156.925781 163.003906 157.339844 160.09375 157.171875 157.71875 C 157.171875 157.71875 156.902344 158.15625 157.171875 157.71875 C 157.453125 157.28125 158.296875 156.167969 158.847656 155.671875 C 159.152344 157.730469 159.457031 159.789062 159.761719 161.835938 C 159.164062 162.859375 158.421875 163.804688 157.519531 164.5 C 155.742188 165.886719 155.910156 170.082031 156.136719 173.050781 C 155.460938 172.871094 154.726562 172.644531 153.960938 172.363281 " fill-opacity="1" fill-rule="evenodd"/><path fill="rgb(100%, 79.998779%, 59.999084%)" d="M 153.972656 172.320312 C 153.882812 170.363281 153.410156 168.921875 155.460938 165.445312 C 157.519531 161.972656 157.125 155.851562 156.339844 153.253906 C 164.234375 149.789062 160.753906 141.195312 159.152344 144.332031 C 157.566406 147.472656 153.183594 147.539062 153.183594 147.539062 C 150.777344 150.160156 150.359375 151.21875 150 156.84375 C 150.214844 161.53125 150.425781 166.199219 150.652344 170.890625 C 151.765625 171.453125 152.914062 171.945312 153.972656 172.320312 " fill-opacity="1" fill-rule="evenodd"/><path stroke-linecap="butt" transform="matrix(0.0397264, 0, 0, -0.03968, 11.184978, 337.25734)" fill="none" stroke-linejoin="miter" d="M 3631.73985 4329.939409 C 3701.159992 4446.103072 3673.627924 4571.717337 3653.863833 4637.182452 C 3852.586364 4724.502087 3764.975391 4941.078408 3724.660578 4862.028051 C 3684.73908 4782.87925 3574.414152 4781.205706 3574.414152 4781.205706 C 3513.843603 4715.149928 3503.32242 4688.471663 3494.276169 4546.712617 " stroke="rgb(7.839966%, 8.239746%, 8.239746%)" stroke-width="5.669" stroke-opacity="1" stroke-miterlimit="10"/><path stroke-linecap="butt" transform="matrix(0.0397264, 0, 0, -0.03968, 11.184978, 337.25734)" fill="none" stroke-linejoin="miter" d="M 3679.625982 4829.049384 C 3645.604213 4813.003047 3595.161532 4795.676942 3548.652003 4810.345065 M 3528.592925 4834.463792 C 3528.592925 4834.463792 3546.39044 4823.438088 3553.175128 4797.350486 C 3554.355074 4792.231409 3555.240033 4786.915445 3555.436691 4780.910374 C 3556.911623 4742.02508 3556.026664 4773.822422 3556.026664 4773.822422 " stroke="rgb(7.839966%, 8.239746%, 8.239746%)" stroke-width="5.669" stroke-opacity="1" stroke-miterlimit="10"/><path fill="rgb(100%, 100%, 79.998779%)" d="M 159.390625 143.964844 C 159.3125 144.0625 159.4375 143.804688 159.152344 144.332031 C 158.882812 144.863281 158.003906 145.910156 157.226562 146.382812 C 157.410156 146.660156 157.589844 146.945312 157.746094 147.402344 C 157.894531 147.855469 159.527344 145.695312 159.535156 145.007812 C 159.550781 144.3125 159.457031 144.234375 159.390625 143.964844 " fill-opacity="1" fill-rule="evenodd"/><path fill="rgb(0%, 0%, 0%)" d="M 147.171875 168.214844 C 146.292969 167.898438 145.574219 167.742188 147.125 168.820312 C 147.148438 168.628906 147.148438 168.425781 147.171875 168.214844 Z M 156.125 173.003906 C 157.894531 173.464844 159.0625 173.835938 159.367188 172.980469 C 159.683594 172.125 157.464844 171.292969 157.464844 171.292969 C 156.980469 171.148438 156.496094 171.015625 156.011719 170.878906 C 156.035156 171.621094 156.070312 172.339844 156.125 173.003906 " fill-opacity="1" fill-rule="evenodd"/><path fill="rgb(100%, 79.998779%, 0%)" d="M 137.609375 195.09375 C 135.214844 204.777344 132.816406 214.476562 130.585938 224.136719 C 128.34375 233.789062 126.226562 243.496094 124.175781 253.125 C 117.519531 253.125 110.867188 253.125 104.210938 253.125 C 102.914062 240.199219 101.632812 227.277344 100.339844 214.316406 C 106.003906 199.628906 111.261719 186.445312 111.261719 186.445312 C 111.191406 186.671875 109.085938 185.679688 115.257812 189.179688 C 121.429688 192.6875 137.105469 196.355469 137.566406 195.277344 C 138.027344 194.195312 137.589844 195.140625 137.609375 195.09375 " fill-opacity="1" fill-rule="evenodd"/><path fill="rgb(100%, 79.998779%, 59.999084%)" d="M 123.433594 139.753906 C 122.445312 140.117188 121.003906 140.621094 120.507812 140.789062 C 120.019531 140.960938 111.621094 149.058594 109.886719 150.285156 C 108.152344 151.519531 109.28125 158.035156 109.75 159.609375 C 110.226562 161.183594 114.480469 175.996094 113.816406 181.675781 C 113.152344 187.355469 113.230469 186.332031 113.074219 187.929688 C 113.617188 188.3125 112.195312 187.492188 115.238281 189.222656 C 118.289062 190.96875 125.617188 194.183594 130.109375 195.1875 C 129.898438 189.988281 129.886719 182.710938 133.355469 180.023438 C 134.355469 179.246094 136.597656 176.527344 138.582031 173.5 C 136.96875 161.777344 135.304688 150.058594 133.625 138.371094 C 128.433594 139.035156 123.433594 139.753906 123.433594 139.753906 " fill-opacity="1" fill-rule="evenodd"/><path fill="rgb(90.979004%, 70.979309%, 50.979614%)" d="M 126.621094 194.183594 C 126.542969 190.664062 126.992188 186.367188 130.054688 181.96875 C 133.117188 177.570312 134.109375 172.394531 133.917969 168.191406 C 133.917969 168.191406 133.355469 168.980469 133.917969 168.191406 C 134.480469 167.402344 136.203125 165.433594 137.355469 164.554688 C 137.859375 168.214844 138.355469 171.871094 138.863281 175.492188 C 137.625 177.3125 136.101562 178.976562 134.257812 180.226562 C 130.597656 182.675781 130.699219 190.125 130.96875 195.386719 C 129.640625 195.074219 128.175781 194.667969 126.621094 194.183594 " fill-opacity="1" fill-rule="evenodd"/><path fill="rgb(100%, 79.998779%, 59.999084%)" d="M 126.644531 194.117188 C 126.566406 190.617188 125.753906 188.066406 130.078125 181.902344 C 134.390625 175.738281 133.882812 164.871094 132.453125 160.238281 C 148.242188 154.097656 141.675781 138.84375 138.433594 144.414062 C 135.179688 149.980469 126.519531 150.082031 126.519531 150.082031 C 121.585938 154.726562 120.71875 156.605469 119.652344 166.617188 C 119.75 174.9375 119.886719 183.25 120 191.5625 C 122.242188 192.566406 124.515625 193.441406 126.644531 194.117188 " fill-opacity="1" fill-rule="evenodd"/><path stroke-linecap="butt" transform="matrix(0.0397264, 0, 0, -0.03968, 11.184978, 337.25734)" fill="none" stroke-linejoin="miter" d="M 2992.799224 3915.195755 C 3137.637565 4121.238591 3088.571487 4344.410645 3052.583142 4461.16497 C 3450.028204 4615.918596 3284.737469 5000.341564 3203.124554 4859.960731 C 3121.216653 4719.678342 2903.221675 4717.118804 2903.221675 4717.118804 C 2779.032384 4600.069147 2757.203388 4552.717687 2730.359622 4300.406274 " stroke="rgb(7.839966%, 8.239746%, 8.239746%)" stroke-width="5.669" stroke-opacity="1" stroke-miterlimit="10"/><path stroke-linecap="butt" transform="matrix(0.0397264, 0, 0, -0.03968, 11.184978, 337.25734)" fill="none" stroke-linejoin="miter" d="M 3112.170403 4801.583569 C 3044.716837 4772.936428 2944.028132 4742.911074 2853.663953 4768.408014 M 2815.315716 4811.231059 C 2815.315716 4811.231059 2850.517431 4792.231409 2861.825245 4745.175281 C 2864.086808 4736.118453 2865.266753 4726.470963 2865.463411 4716.035922 C 2865.856726 4647.125274 2865.856726 4703.533562 2865.856726 4703.533562 " stroke="rgb(7.839966%, 8.239746%, 8.239746%)" stroke-width="5.669" stroke-opacity="1" stroke-miterlimit="10"/><path fill="rgb(100%, 100%, 79.998779%)" d="M 138.894531 143.769531 C 138.761719 143.949219 138.984375 143.476562 138.433594 144.414062 C 137.871094 145.355469 136.070312 147.214844 134.550781 148.046875 C 134.875 148.539062 135.222656 149.058594 135.503906 149.867188 C 135.773438 150.667969 139.085938 146.839844 139.15625 145.605469 C 139.210938 144.367188 139.03125 144.242188 138.894531 143.769531 " fill-opacity="1" fill-rule="evenodd"/><path fill="rgb(0%, 0%, 0%)" d="M 113.1875 186.804688 C 111.429688 186.222656 109.964844 185.960938 113.050781 187.863281 C 113.085938 187.527344 113.128906 187.167969 113.1875 186.804688 Z M 130.988281 195.320312 C 134.550781 196.128906 136.914062 196.792969 137.566406 195.277344 C 138.21875 193.769531 133.761719 192.273438 133.761719 192.273438 C 132.792969 192.027344 131.835938 191.777344 130.855469 191.539062 C 130.855469 192.855469 130.910156 194.140625 130.988281 195.320312 " fill-opacity="1" fill-rule="evenodd"/><path fill="rgb(100%, 79.998779%, 0%)" d="M 223.34375 195.09375 C 224.5 204.777344 225.617188 214.476562 226.6875 224.136719 C 227.746094 233.789062 228.734375 243.496094 229.726562 253.125 C 238.9375 253.125 248.140625 253.125 257.351562 253.125 C 258.207031 243.40625 259.074219 233.675781 259.929688 223.933594 C 255.066406 205.824219 249.601562 186.445312 249.601562 186.445312 C 249.679688 186.671875 251.753906 185.660156 245.640625 189.15625 C 239.511719 192.664062 223.917969 196.355469 223.421875 195.277344 C 222.925781 194.207031 223.34375 195.140625 223.34375 195.09375 " fill-opacity="1" fill-rule="evenodd"/><path fill="rgb(100%, 79.998779%, 59.999084%)" d="M 236.96875 139.734375 C 237.949219 140.09375 239.410156 140.601562 239.894531 140.769531 C 240.390625 140.9375 248.894531 149.046875 250.640625 150.285156 C 252.382812 151.53125 251.304688 158.035156 250.863281 159.609375 C 250.4375 161.183594 246.28125 175.972656 246.992188 181.65625 C 247.6875 187.332031 247.644531 186.3125 247.84375 187.929688 C 247.261719 188.289062 248.691406 187.480469 245.660156 189.203125 C 242.621094 190.933594 235.347656 194.183594 230.84375 195.1875 C 231 189.988281 230.976562 182.710938 227.441406 180.023438 C 226.449219 179.257812 224.296875 176.683594 222.328125 173.769531 C 223.757812 161.957031 225.222656 150.148438 226.6875 138.347656 C 231.910156 139.015625 236.96875 139.734375 236.96875 139.734375 " fill-opacity="1" fill-rule="evenodd"/><path fill="rgb(90.979004%, 70.979309%, 50.979614%)" d="M 234.332031 194.183594 C 234.355469 190.664062 233.902344 186.367188 230.785156 181.96875 C 227.65625 177.570312 226.640625 172.394531 226.796875 168.191406 C 226.796875 168.191406 227.351562 168.945312 226.796875 168.191406 C 226.257812 167.4375 224.558594 165.523438 223.421875 164.648438 C 222.96875 168.371094 222.519531 172.070312 222.09375 175.761719 C 223.308594 177.46875 224.773438 179.042969 226.550781 180.226562 C 230.246094 182.675781 230.199219 190.125 229.984375 195.386719 C 231.328125 195.074219 232.789062 194.667969 234.332031 194.183594 " fill-opacity="1" fill-rule="evenodd"/><path fill="rgb(100%, 79.998779%, 59.999084%)" d="M 234.3125 194.117188 C 234.332031 190.617188 235.121094 188.066406 230.738281 181.902344 C 226.371094 175.738281 226.796875 164.871094 228.148438 160.238281 C 212.316406 154.097656 218.714844 138.832031 222.011719 144.414062 C 225.3125 149.992188 233.984375 150.082031 233.984375 150.082031 C 238.9375 154.726562 239.886719 156.605469 241.054688 166.617188 C 241.011719 174.9375 240.976562 183.25 240.910156 191.5625 C 238.691406 192.566406 236.425781 193.441406 234.3125 194.117188 " fill-opacity="1" fill-rule="evenodd"/><path stroke-linecap="butt" transform="matrix(0.0397264, 0, 0, -0.03968, 11.184978, 337.25734)" fill="none" stroke-linejoin="miter" d="M 5526.634403 3915.195755 C 5379.829486 4121.238591 5427.420631 4344.410645 5461.4424 4461.16497 C 5062.915722 4615.918596 5223.978317 5000.636896 5306.967835 4859.960731 C 5390.055682 4719.383011 5608.345647 4717.118804 5608.345647 4717.118804 C 5733.026582 4600.069147 5756.920483 4552.717687 5786.320798 4300.406274 " stroke="rgb(7.839966%, 8.239746%, 8.239746%)" stroke-width="5.669" stroke-opacity="1" stroke-miterlimit="10"/><path stroke-linecap="butt" transform="matrix(0.0397264, 0, 0, -0.03968, 11.184978, 337.25734)" fill="none" stroke-linejoin="miter" d="M 5398.020316 4801.583569 C 5466.358841 4772.936428 5566.65423 4742.911074 5657.411725 4768.408014 M 5695.956619 4811.231059 C 5695.956619 4811.231059 5659.968274 4792.231409 5649.152104 4745.175281 C 5647.185528 4736.118453 5646.595555 4726.470963 5646.595555 4716.035922 C 5647.185528 4647.125274 5645.710596 4703.533562 5645.710596 4703.533562 " stroke="rgb(7.839966%, 8.239746%, 8.239746%)" stroke-width="5.669" stroke-opacity="1" stroke-miterlimit="10"/><path fill="rgb(100%, 100%, 79.998779%)" d="M 221.527344 143.769531 C 221.707031 143.949219 221.460938 143.476562 222.011719 144.414062 C 222.574219 145.355469 224.402344 147.214844 225.921875 148.046875 C 225.605469 148.539062 225.269531 149.058594 225.007812 149.867188 C 224.738281 150.667969 221.359375 146.839844 221.3125 145.605469 C 221.269531 144.367188 221.394531 144.242188 221.527344 143.769531 " fill-opacity="1" fill-rule="evenodd"/><path fill="rgb(0%, 0%, 0%)" d="M 247.710938 186.785156 C 249.445312 186.222656 250.910156 185.960938 247.824219 187.863281 C 247.765625 187.527344 247.722656 187.167969 247.710938 186.785156 Z M 229.996094 195.320312 C 226.425781 196.128906 224.117188 196.792969 223.421875 195.277344 C 222.734375 193.769531 227.171875 192.273438 227.171875 192.273438 C 228.128906 192.027344 229.109375 191.777344 230.066406 191.539062 C 230.074219 192.855469 230.042969 194.140625 229.996094 195.320312 " fill-opacity="1" fill-rule="evenodd"/><path fill="rgb(100%, 79.998779%, 59.999084%)" d="M 290.097656 137.957031 L 295.917969 139.753906 C 295.917969 139.753906 314.410156 154.34375 318 156.527344 C 321.605469 158.71875 320.457031 170.160156 319.804688 172.9375 C 319.152344 175.714844 311.785156 196.300781 315.222656 211.664062 C 316.257812 216.265625 317.203125 219.828125 317.8125 222.675781 C 316.707031 223.292969 319.511719 221.898438 313.554688 224.933594 C 307.597656 227.960938 293.015625 233.609375 283.882812 235.386719 C 283.667969 226.273438 282.820312 213.484375 275.390625 208.738281 C 273.328125 207.410156 268.746094 202.878906 264.5 197.785156 L 270.085938 135.515625 C 280.265625 136.683594 290.097656 137.957031 290.097656 137.957031 " fill-opacity="1" fill-rule="evenodd"/><path fill="rgb(90.979004%, 70.979309%, 50.979614%)" d="M 290.953125 233.621094 C 290.625 227.464844 288.710938 219.4375 282.335938 212.160156 C 275.140625 203.9375 273.015625 195.355469 272.945312 187.976562 C 270.617188 185.308594 268.25 183.285156 265.941406 181.753906 L 264.1875 201.269531 C 266.796875 204.273438 269.917969 207.039062 273.597656 209.097656 C 281.3125 213.429688 282.011719 226.488281 282.148438 235.746094 C 284.859375 235.214844 287.835938 234.496094 290.953125 233.621094 " fill-opacity="1" fill-rule="evenodd"/><path fill="rgb(100%, 79.998779%, 59.999084%)" d="M 290.910156 233.519531 C 290.570312 227.367188 288.667969 219.335938 282.292969 212.058594 C 269.691406 197.671875 272.632812 182.148438 274.929688 173.972656 C 243.183594 163.195312 254.636719 136.394531 261.503906 146.1875 C 268.386719 155.996094 285.402344 156.167969 285.402344 156.167969 C 295.671875 164.300781 297.675781 167.59375 301.222656 185.207031 L 304.164062 229.019531 C 299.726562 230.796875 295.1875 232.316406 290.910156 233.519531 " fill-opacity="1" fill-rule="evenodd"/><path stroke-linecap="butt" transform="matrix(0.0397264, 0, 0, -0.03968, 11.184978, 337.25734)" fill="none" stroke-linejoin="miter" d="M 6824.378076 3155.209757 C 6507.169326 3517.778207 6581.210922 3908.993797 6639.028264 4115.036632 C 5839.910001 4386.643027 6128.210081 5062.065816 6301.072134 4815.267254 C 6474.327502 4568.074917 6902.647811 4563.743391 6902.647811 4563.743391 C 7161.15426 4358.783437 7211.596941 4275.795329 7300.879504 3831.912315 " stroke="rgb(7.839966%, 8.239746%, 8.239746%)" stroke-width="5.669" stroke-opacity="1" stroke-miterlimit="10"/><path stroke-linecap="butt" transform="matrix(0.0397264, 0, 0, -0.03968, 11.184978, 337.25734)" fill="none" stroke-linejoin="miter" d="M 6483.963726 4712.885721 C 6619.165844 4662.384061 6818.969991 4610.011969 6993.405306 4654.508558 M 7062.727119 4729.916495 C 7062.727119 4729.916495 6996.158512 4696.150278 6980.032587 4613.359057 C 6976.886065 4598.100271 6975.706119 4581.069497 6976.886065 4562.069847 C 6984.850699 4441.574658 6976.886065 4540.510659 6976.886065 4540.510659 " stroke="rgb(7.839966%, 8.239746%, 8.239746%)" stroke-width="5.669" stroke-opacity="1" stroke-miterlimit="10"/><path fill="rgb(100%, 100%, 79.998779%)" d="M 260.527344 145.066406 C 260.863281 145.367188 261.191406 145.738281 261.503906 146.1875 C 263.507812 149.058594 266.382812 151.09375 269.445312 152.554688 C 268.871094 153.421875 268.105469 154.714844 267.765625 155.75 C 267.214844 157.515625 260.527344 151.296875 260.246094 148.28125 C 260.121094 146.976562 260.289062 145.886719 260.527344 145.066406 " fill-opacity="1" fill-rule="evenodd"/><path fill="rgb(0%, 0%, 0%)" d="M 317.359375 220.671875 C 320.839844 219.695312 323.789062 219.210938 317.789062 222.5625 C 317.664062 221.96875 317.515625 221.335938 317.359375 220.671875 Z M 282.148438 235.632812 C 274.882812 237.0625 269.523438 237.164062 268.589844 235.53125 C 266.460938 231.851562 276.03125 230.289062 276.03125 230.289062 L 281.886719 228.996094 C 282.058594 231.300781 282.113281 233.5625 282.148438 235.632812 " fill-opacity="1" fill-rule="evenodd"/></svg>