<svg xmlns="http://www.w3.org/2000/svg" xmlns:xlink="http://www.w3.org/1999/xlink" width="500" zoomAndPan="magnify" viewBox="0 0 375 374.999991" height="500" preserveAspectRatio="xMidYMid meet" version="1.0"><path fill="rgb(0%, 0%, 0%)" d="M 202.4375 191.160156 C 197.375 187.023438 189.617188 183.199219 182.894531 179.066406 C 177.625 159.371094 183.3125 142.832031 201.195312 134.71875 C 200.574219 136.984375 200.261719 139.773438 202.128906 146.191406 C 204.839844 101.792969 230.566406 89.5 265.402344 97.8125 C 260.929688 96.148438 256.101562 93.136719 247.414062 93.160156 C 264.15625 77.363281 297.15625 84.34375 309.445312 102.777344 C 304.066406 102 299.3125 102.410156 293.9375 102.460938 C 331.34375 102.902344 352.234375 128.609375 343.566406 166.042969 C 345.839844 161.335938 347.597656 156.378906 348.214844 150.84375 C 368.394531 185.609375 354.035156 225.390625 317.507812 238.609375 C 307.789062 216.132812 263.1875 158.691406 223.839844 176.894531 C 218.851562 171.226562 202.085938 178.1875 202.4375 191.160156 Z M 202.4375 191.160156 " fill-opacity="1" fill-rule="evenodd"/><path fill="rgb(64.309692%, 64.309692%, 64.309692%)" d="M 207.003906 192.496094 C 175.644531 170.757812 185.882812 152.921875 199.648438 135.414062 C 202.101562 132.785156 204.554688 130.152344 207.003906 127.523438 C 211.734375 109.722656 224.871094 99.289062 246.417969 96.222656 C 255.898438 87.738281 266.625 85.503906 278.210938 87.542969 C 289.59375 89.121094 294.324219 94.554688 292.398438 103.847656 C 320.023438 109.652344 330.660156 122.585938 336.539062 137.519531 C 339.605469 149.707031 333.910156 159.441406 319.460938 166.71875 C 331.589844 173.019531 338.683594 180.582031 336.800781 190.394531 C 330.195312 209.453125 303.78125 207.027344 279.785156 207.226562 C 255.527344 202.316406 231.265625 197.40625 207.003906 192.496094 Z M 207.003906 192.496094 " fill-opacity="1" fill-rule="evenodd"/><path fill="rgb(64.309692%, 64.309692%, 64.309692%)" d="M 65.847656 192.546875 C 49.957031 240.75 45.269531 300.9375 105.683594 304.742188 C 170.824219 350.429688 273.574219 356.261719 327.863281 274.445312 C 314.925781 222.542969 273.277344 164.835938 221.261719 176.277344 C 208.621094 176.433594 203.007812 182.789062 204.429688 195.351562 C 198.683594 189.058594 190.453125 184.011719 179.742188 180.203125 C 151.882812 202.628906 117.660156 213.527344 65.847656 192.546875 Z M 65.847656 192.546875 " fill-opacity="1" fill-rule="evenodd"/><path fill="rgb(39.99939%, 39.99939%, 39.99939%)" d="M 78.753906 223.960938 C 90.625 246.179688 106.804688 262.484375 130.929688 266.59375 C 121.773438 270.894531 112.234375 275.195312 100.074219 279.496094 C 81.929688 263.230469 78.136719 247.074219 75.949219 230.691406 C 74.65625 221.039062 76.03125 218.871094 78.753906 223.960938 Z M 78.753906 223.960938 " fill-opacity="1" fill-rule="evenodd"/><path fill="rgb(39.99939%, 39.99939%, 39.99939%)" d="M 70.898438 195.914062 C 82.273438 224.429688 107.84375 246.925781 158.421875 259.863281 C 190.109375 267.964844 222.035156 275.316406 253.242188 285.109375 C 290.75 296.875 282.976562 312 255.484375 326.058594 C 285.128906 317.027344 311.703125 303.699219 327.300781 275.007812 C 306.082031 247.621094 284.390625 221.753906 259.414062 206.570312 C 275.039062 222.835938 287.121094 239.117188 289.710938 255.375 C 290.769531 262.023438 287.230469 266.367188 279.050781 265.472656 C 252.269531 262.546875 226.207031 255.789062 203.308594 236.863281 C 180.691406 231.757812 169.574219 222.542969 160.105469 212.738281 C 130.371094 207.128906 100.632812 201.523438 70.898438 195.914062 Z M 70.898438 195.914062 " fill-opacity="1" fill-rule="evenodd"/><path fill="rgb(0%, 0%, 0%)" d="M 71.855469 196.65625 C 69.167969 194.550781 67.53125 194.203125 64.84375 192.097656 C 53.242188 215.953125 47.019531 242.308594 55.023438 268.539062 C 64.90625 300.9375 85.058594 304.667969 104.121094 306.761719 C 113.472656 321.550781 126.679688 330.550781 141.648438 336.921875 C 127.441406 327.511719 117.039062 317.339844 112.1875 306.0625 C 116.511719 305.011719 120.839844 303.957031 125.164062 302.90625 C 124.578125 301.734375 123.996094 300.566406 123.410156 299.398438 C 95.476562 307.707031 66.992188 301.484375 59.230469 267.136719 C 52.105469 235.601562 60.039062 211.03125 71.855469 196.65625 Z M 71.855469 196.65625 " fill-opacity="1" fill-rule="evenodd"/><path fill="rgb(0%, 0%, 0%)" d="M 74.664062 215.59375 C 78.476562 234.136719 79.785156 253.082031 99.210938 269.59375 C 101.9375 271.910156 106.238281 272.203125 111.835938 270.648438 C 127.832031 266.195312 135.566406 259.839844 143.050781 253.464844 C 142.300781 260.199219 141.074219 267.117188 147.960938 270.992188 C 146.089844 271.933594 144.21875 272.867188 142.351562 273.800781 C 139.535156 270.648438 139.1875 266.671875 139.195312 262.578125 C 121.25 276.136719 101.84375 284.4375 79.222656 281.167969 C 86.429688 280.003906 93.816406 278.96875 98.160156 275.902344 C 88.914062 275.917969 82.957031 271.003906 77.46875 265.386719 C 80.960938 267.183594 84.203125 269.734375 88.691406 268.542969 C 77.222656 258.113281 71.996094 244.066406 68.347656 231.722656 C 71.390625 236.046875 74.429688 240.371094 77.46875 244.699219 C 74.597656 233.027344 74.675781 224.398438 74.664062 215.59375 Z M 74.664062 215.59375 " fill-opacity="1" fill-rule="evenodd"/><path fill="rgb(0%, 0%, 0%)" d="M 220.558594 203.667969 C 219.769531 218.308594 210.09375 228.574219 195.277344 236.671875 C 221.023438 252.234375 251.589844 267.484375 282.984375 267.488281 C 290.734375 267.492188 295.117188 261.417969 293.152344 254.515625 C 285.589844 227.894531 270.316406 214.765625 255.980469 202.617188 C 270.730469 220.035156 283.636719 237.402344 287.894531 254.867188 C 289.136719 259.96875 286.738281 263.542969 281.230469 263.28125 C 253.117188 261.933594 229.203125 249.273438 205.828125 235.929688 C 219.800781 231.019531 224.125 220.96875 224.066406 208.578125 C 239.613281 220.265625 252.9375 231.957031 264.746094 243.644531 C 255.160156 229.621094 245.105469 212.320312 234.585938 191.746094 C 237.742188 199.8125 240.898438 207.875 244.054688 215.941406 C 239.847656 209.273438 235.636719 202.960938 231.429688 199.109375 C 233.769531 203.554688 236.105469 207.992188 238.445312 212.4375 C 232.878906 204.902344 228.324219 201.425781 223.714844 197.707031 C 227.101562 202.734375 230.496094 207.761719 233.882812 212.789062 C 229.441406 208.8125 225 205.769531 220.558594 203.667969 Z M 220.558594 203.667969 " fill-opacity="1" fill-rule="evenodd"/><path fill="rgb(0%, 0%, 0%)" d="M 182.585938 183.097656 C 173.480469 162.648438 181.972656 136.5625 201.507812 132.546875 C 201.195312 112.90625 224.148438 91.402344 243.6875 93.78125 C 260.183594 75.121094 303.710938 80.496094 311.925781 102.464844 C 331.84375 105.503906 349.183594 128.273438 348.527344 145.882812 C 367.605469 172.636719 365.828125 220.886719 318.132812 240.46875 C 324.933594 252.976562 327.101562 266.726562 330.226562 279.238281 C 325.117188 258.78125 308.15625 221.28125 283.519531 197.609375 C 265.546875 180.339844 242.03125 170.285156 223.21875 180.304688 C 217.738281 172.832031 212.257812 176.976562 206.78125 182.789062 C 204.109375 186.921875 204.128906 191.054688 203.988281 195.191406 C 197.578125 189.402344 191.476562 185.578125 182.585938 183.097656 Z M 182.585938 183.097656 " fill-opacity="1" fill-rule="evenodd"/><path fill="rgb(0%, 0%, 0%)" d="M 50.289062 165.335938 C 53.59375 181.414062 63.238281 200.796875 87.066406 213.050781 C 107.535156 234.933594 132.546875 235.027344 158.203125 232.019531 C 161.144531 227.703125 164.601562 224.9375 168.578125 223.722656 C 168.875 219.867188 169.167969 216.015625 169.46875 212.164062 C 171.34375 207.71875 173.21875 203.273438 175.097656 198.824219 C 177.566406 195.464844 180.039062 192.109375 182.507812 188.75 C 185.175781 187.664062 187.84375 186.578125 190.511719 185.488281 C 187.941406 184.007812 185.371094 182.527344 182.804688 181.046875 C 176.9375 167.242188 180.167969 157.484375 183.695312 147.855469 C 189.308594 140.988281 195.273438 135.019531 202.957031 133.332031 C 202.582031 129.382812 202.597656 125.429688 205.332031 121.476562 C 205.078125 116.757812 203.796875 111.523438 201.476562 105.773438 C 210.007812 86.292969 204.957031 75.992188 186.953125 78.210938 C 185.894531 75.875 184.019531 74.027344 182.210938 71.984375 C 181.347656 71.011719 182.292969 70.414062 183.695312 69.320312 C 187.523438 66.316406 190.015625 63.253906 191.101562 60.722656 C 199.214844 41.855469 176.355469 30.347656 162.984375 25.203125 C 146.988281 19.050781 128.503906 22.128906 109.890625 29.015625 C 91.707031 35.738281 70.683594 33.257812 47.808594 39.429688 C 33.121094 43.390625 32.9375 55.589844 40.53125 64.871094 C 35.320312 66.46875 27.285156 65.425781 19.035156 65.195312 C 12.558594 65.011719 6.875 67.828125 15.042969 74.652344 C 22.207031 80.640625 33.15625 83.300781 47.351562 85.914062 C 42.257812 98.011719 42.851562 109.074219 49.128906 119.105469 C 31.375 128.285156 24.34375 158.472656 50.289062 165.335938 Z M 50.289062 165.335938 " fill-opacity="1" fill-rule="evenodd"/><path fill="rgb(64.309692%, 64.309692%, 64.309692%)" d="M 19.027344 72.898438 C 11.394531 69.441406 17.121094 68.117188 20.042969 68.332031 C 61.414062 71.421875 89.820312 70.507812 110.058594 64.785156 C 91.039062 66.710938 55.09375 73.007812 42.609375 60.476562 C 36.355469 54.195312 38.367188 47.078125 43.625 44.753906 C 64.554688 35.503906 94.699219 38.527344 115.382812 30.050781 C 140.652344 19.695312 170.273438 23.679688 187.398438 45.011719 C 190.578125 48.972656 190.0625 56.121094 186.128906 62.753906 C 167.617188 59.703125 149.695312 61.398438 131.863281 63.769531 C 149.671875 63.058594 167.347656 62.496094 181.058594 66.558594 C 164.40625 68.757812 147.753906 70.957031 131.105469 73.152344 C 95.300781 80.125 52.972656 88.273438 19.027344 72.898438 Z M 19.027344 72.898438 " fill-opacity="1" fill-rule="evenodd"/><path fill="rgb(39.99939%, 39.99939%, 39.99939%)" d="M 115.382812 30.050781 C 140.652344 19.695312 170.273438 23.679688 187.398438 45.011719 C 190.578125 48.972656 190.0625 56.121094 186.128906 62.753906 C 167.617188 59.703125 149.695312 61.398438 131.863281 63.769531 C 182.664062 51 179.136719 28.953125 115.382812 30.050781 Z M 115.382812 30.050781 " fill-opacity="1" fill-rule="evenodd"/><path fill="rgb(64.309692%, 64.309692%, 64.309692%)" d="M 150.003906 267.613281 C 143.523438 273.316406 133.34375 277.902344 120.332031 280.179688 C 116.46875 280.851562 114.332031 283.367188 116.054688 289 C 118.875 298.238281 124.675781 305.480469 132.09375 310.382812 C 133.609375 311.382812 135.644531 311.171875 137.441406 311.449219 C 141.671875 312.113281 142.289062 313.445312 143.320312 314.925781 C 147.726562 321.25 155.085938 321.414062 163.640625 320.273438 C 169.242188 319.523438 168.203125 315.265625 166.847656 311.984375 C 161.945312 300.144531 163.882812 286.640625 167.382812 272.691406 C 161.589844 271 155.796875 269.308594 150.003906 267.613281 Z M 150.003906 267.613281 " fill-opacity="1" fill-rule="evenodd"/><path fill="rgb(0%, 0%, 0%)" d="M 149.109375 266.613281 L 149.113281 266.609375 L 150.003906 267.613281 L 150.378906 266.324219 L 167.757812 271.402344 L 169.003906 271.769531 L 168.6875 273.019531 C 166.957031 279.925781 165.609375 286.707031 165.308594 293.1875 C 165.003906 299.605469 165.722656 305.753906 168.09375 311.472656 C 168.84375 313.300781 169.507812 315.421875 169.179688 317.304688 C 168.8125 319.441406 167.351562 321.132812 163.8125 321.605469 C 159.40625 322.195312 155.292969 322.441406 151.667969 321.722656 L 151.660156 321.722656 C 147.871094 320.96875 144.644531 319.183594 142.214844 315.695312 L 142.214844 315.6875 L 142 315.375 L 141.996094 315.375 C 141.246094 314.273438 140.582031 313.304688 137.234375 312.78125 C 136.804688 312.710938 136.273438 312.671875 135.742188 312.632812 C 134.234375 312.523438 132.722656 312.410156 131.351562 311.507812 C 125.832031 307.859375 121.175781 302.953125 117.910156 296.925781 C 117.277344 295.753906 116.695312 294.539062 116.167969 293.285156 C 115.648438 292.046875 115.183594 290.75 114.769531 289.398438 L 114.761719 289.382812 L 114.765625 289.382812 C 114.546875 288.664062 114.386719 288.003906 114.28125 287.410156 C 113.882812 285.140625 114.164062 283.363281 114.964844 281.996094 C 115.785156 280.585938 117.125 279.675781 118.8125 279.15625 C 119.242188 279.027344 119.671875 278.925781 120.097656 278.851562 C 129.308594 277.242188 137.054688 274.464844 143.019531 270.960938 C 144.164062 270.289062 145.253906 269.585938 146.28125 268.851562 C 147.277344 268.136719 148.222656 267.386719 149.105469 266.609375 Z M 150.335938 269.113281 C 149.558594 269.765625 148.726562 270.40625 147.839844 271.042969 C 146.769531 271.808594 145.613281 272.554688 144.382812 273.277344 C 138.132812 276.949219 130.085938 279.839844 120.5625 281.507812 C 120.199219 281.570312 119.875 281.640625 119.59375 281.730469 C 118.550781 282.050781 117.75 282.570312 117.292969 283.355469 C 116.8125 284.183594 116.660156 285.355469 116.9375 286.945312 C 117.03125 287.480469 117.164062 288.035156 117.339844 288.609375 L 117.34375 288.613281 L 117.347656 288.621094 L 117.34375 288.621094 C 117.71875 289.847656 118.160156 291.0625 118.65625 292.25 C 119.144531 293.421875 119.691406 294.554688 120.28125 295.652344 C 123.328125 301.273438 127.679688 305.851562 132.835938 309.257812 C 133.617188 309.773438 134.78125 309.863281 135.929688 309.945312 C 136.480469 309.984375 137.035156 310.027344 137.644531 310.121094 C 142.15625 310.832031 143.125 312.25 144.21875 313.851562 L 144.214844 313.855469 L 144.425781 314.160156 L 144.429688 314.15625 C 146.40625 316.992188 149.058594 318.457031 152.1875 319.074219 L 152.1875 319.078125 C 155.480469 319.730469 159.324219 319.492188 163.464844 318.9375 C 165.527344 318.664062 166.351562 317.851562 166.527344 316.851562 C 166.742188 315.597656 166.203125 313.953125 165.601562 312.496094 C 163.066406 306.378906 162.300781 299.851562 162.621094 293.074219 C 162.914062 286.753906 164.148438 280.230469 165.765625 273.621094 Z M 150.335938 269.113281 " fill-opacity="1" fill-rule="nonzero"/><path fill="rgb(39.99939%, 39.99939%, 39.99939%)" d="M 164.183594 317.378906 C 166.9375 316.605469 165.878906 315.132812 161.726562 314.394531 C 157.667969 313.675781 153.40625 313.117188 152.597656 308.78125 C 151.503906 302.910156 149.148438 301.855469 145.226562 302.8125 C 136.710938 304.886719 134.492188 300.109375 136.273438 291.050781 C 136.984375 287.429688 132.488281 287.671875 129.777344 287.714844 C 124.914062 287.796875 122.769531 285.445312 120.472656 283.679688 C 118.6875 282.308594 117.113281 283.378906 117.664062 285.613281 C 119.539062 293.203125 122.507812 299.59375 130.832031 306.671875 C 132.972656 308.492188 135.386719 308.867188 137.679688 308.957031 C 141.535156 309.101562 142.976562 311.019531 145.402344 313.691406 C 150.679688 319.515625 157.847656 319.164062 164.183594 317.378906 Z M 164.183594 317.378906 " fill-opacity="1" fill-rule="evenodd"/><path fill="rgb(39.99939%, 39.99939%, 39.99939%)" d="M 123.984375 281.570312 C 122.917969 281.84375 120.746094 285.769531 126.96875 284.03125 C 140.476562 280.257812 148.742188 274.160156 157.339844 268.230469 C 146.941406 274.238281 136.867188 278.304688 123.984375 281.570312 Z M 123.984375 281.570312 " fill-opacity="1" fill-rule="evenodd"/><path fill="rgb(39.99939%, 39.99939%, 39.99939%)" d="M 135.746094 283.679688 C 134.144531 284.605469 132.46875 289.253906 140.308594 285.785156 C 151.820312 280.695312 156 274.203125 162.253906 267.53125 C 153.421875 273.851562 145.945312 277.78125 135.746094 283.679688 Z M 135.746094 283.679688 " fill-opacity="1" fill-rule="evenodd"/><path fill="rgb(39.99939%, 39.99939%, 39.99939%)" d="M 139.257812 291.753906 C 135.984375 294.851562 138.207031 301.722656 141.363281 298.773438 C 150.628906 290.117188 156.679688 278.671875 163.65625 268.585938 C 156.285156 277.070312 147.351562 284.089844 139.257812 291.753906 Z M 139.257812 291.753906 " fill-opacity="1" fill-rule="evenodd"/><path fill="rgb(39.99939%, 39.99939%, 39.99939%)" d="M 152.773438 301.054688 C 152.550781 307.34375 155.460938 307 155.757812 305.445312 C 158.246094 292.386719 160.597656 280.097656 164.886719 269.285156 C 159.152344 277.328125 153.261719 287.261719 152.773438 301.054688 Z M 152.773438 301.054688 " fill-opacity="1" fill-rule="evenodd"/><path fill="rgb(39.99939%, 39.99939%, 39.99939%)" d="M 159.621094 307.195312 C 160.035156 312.160156 163.445312 312.835938 162.957031 309.128906 C 161.644531 299.101562 161.320312 290.226562 163.65625 280.695312 C 160.023438 288.765625 158.792969 297.28125 159.621094 307.195312 Z M 159.621094 307.195312 " fill-opacity="1" fill-rule="evenodd"/><path fill="rgb(39.99939%, 39.99939%, 39.99939%)" d="M 159.78125 270.917969 C 163.5625 273.628906 165.574219 276.433594 170.019531 276.742188 C 175.058594 277.085938 179.539062 273.472656 177.046875 267.105469 C 182.171875 268.84375 188.003906 263.179688 184.230469 257.957031 C 189.382812 257.625 192.933594 252.78125 190.253906 246.894531 C 197.839844 244.988281 191.902344 236.914062 188.605469 233.550781 C 182.648438 227.488281 175.835938 225.136719 168.210938 223.136719 C 163.675781 221.949219 158.675781 223.476562 158.375 229.359375 C 158.300781 230.800781 158.378906 231.527344 156.765625 231.773438 C 152.554688 232.398438 150.105469 234.871094 150.542969 239.199219 C 150.714844 240.882812 150.726562 242.488281 148.9375 243.214844 C 144.574219 244.980469 143.710938 248.363281 143.515625 252.449219 C 140.90625 256.195312 140.707031 260.210938 142.914062 264.496094 C 145.824219 272.359375 152.050781 273.230469 159.78125 270.917969 Z M 159.78125 270.917969 " fill-opacity="1" fill-rule="evenodd"/><path fill="rgb(0%, 0%, 0%)" d="M 160.5625 269.824219 C 161.519531 270.503906 162.414062 271.242188 163.261719 271.9375 C 165.421875 273.710938 167.230469 275.195312 170.109375 275.398438 C 171.253906 275.476562 172.359375 275.316406 173.316406 274.941406 C 174.1875 274.601562 174.933594 274.085938 175.46875 273.410156 C 175.992188 272.75 176.332031 271.914062 176.398438 270.917969 C 176.914062 263.394531 165.230469 258.097656 160.324219 254.761719 C 158.417969 253.464844 158.871094 251.839844 161.039062 252.976562 C 168.097656 256.683594 173.890625 261.386719 178.25 266.019531 C 179.15625 266.164062 180.074219 266.035156 180.898438 265.707031 C 181.773438 265.355469 182.550781 264.78125 183.121094 264.0625 C 183.671875 263.371094 184.027344 262.550781 184.082031 261.675781 C 184.460938 255.601562 171.152344 248.515625 167.632812 246.371094 C 165.285156 244.941406 166.574219 242.925781 168.882812 244.230469 C 174.5625 247.453125 179.460938 251.988281 184.371094 256.59375 C 185.132812 256.523438 185.851562 256.328125 186.496094 256.039062 C 187.554688 255.554688 188.425781 254.800781 189.007812 253.84375 C 189.59375 252.882812 189.898438 251.710938 189.808594 250.398438 C 189.378906 243.75 178.402344 239.199219 173.871094 235.84375 C 171.921875 234.398438 173.355469 232.867188 176.011719 234.238281 C 182.09375 237.382812 185.886719 241.238281 189.925781 245.585938 L 189.929688 245.585938 C 190.644531 245.410156 191.195312 245.171875 191.605469 244.894531 C 192.324219 244.402344 192.609375 243.722656 192.597656 242.957031 C 192.589844 241.992188 192.175781 240.851562 191.566406 239.703125 C 190.503906 237.703125 188.878906 235.753906 187.644531 234.496094 C 184.789062 231.585938 181.726562 229.566406 178.464844 228.039062 C 175.160156 226.488281 171.621094 225.421875 167.875 224.441406 C 167.207031 224.265625 166.519531 224.15625 165.847656 224.121094 C 164.46875 224.050781 163.144531 224.296875 162.089844 224.925781 C 161.089844 225.519531 160.3125 226.484375 159.949219 227.875 L 159.949219 227.882812 C 159.828125 228.351562 159.746094 228.863281 159.71875 229.429688 L 159.707031 229.695312 C 159.617188 231.683594 159.566406 232.71875 156.964844 233.105469 L 156.960938 233.097656 L 156.945312 233.105469 C 156.417969 233.1875 155.929688 233.296875 155.488281 233.4375 C 155.042969 233.574219 154.640625 233.738281 154.289062 233.929688 C 152.539062 234.855469 151.628906 236.570312 151.882812 239.066406 C 151.980469 240.046875 152.03125 241.015625 151.769531 241.929688 C 151.460938 243.019531 150.789062 243.917969 149.445312 244.460938 C 147.605469 245.207031 146.511719 246.269531 145.871094 247.5625 C 145.183594 248.941406 144.949219 250.640625 144.859375 252.511719 L 144.839844 252.90625 L 144.625 253.21875 C 142.320312 256.523438 142.148438 260.074219 144.109375 263.878906 L 144.152344 263.960938 L 144.179688 264.03125 C 145.46875 267.523438 147.457031 269.449219 149.945312 270.238281 C 152.550781 271.058594 155.777344 270.707031 159.394531 269.628906 L 160.03125 269.4375 Z M 161.554688 274.011719 C 160.929688 273.5 160.273438 272.960938 159.515625 272.398438 C 155.660156 273.472656 152.136719 273.757812 149.132812 272.808594 C 145.867188 271.777344 143.292969 269.355469 141.671875 265.023438 C 139.328125 260.414062 139.5 256.070312 142.195312 252 C 142.316406 249.9375 142.625 248.03125 143.457031 246.359375 C 144.382812 244.5 145.910156 242.988281 148.433594 241.964844 C 148.875 241.785156 149.089844 241.515625 149.175781 241.199219 C 149.316406 240.710938 149.273438 240.035156 149.203125 239.332031 C 148.828125 235.613281 150.273438 233.019531 153.023438 231.554688 C 153.542969 231.277344 154.101562 231.046875 154.6875 230.863281 C 155.273438 230.683594 155.894531 230.539062 156.546875 230.441406 L 156.546875 230.445312 L 156.5625 230.441406 L 156.574219 230.4375 C 156.980469 230.378906 156.992188 230.101562 157.019531 229.574219 L 157.019531 229.566406 L 157.03125 229.296875 L 157.03125 229.289062 C 157.070312 228.535156 157.175781 227.835938 157.34375 227.195312 L 157.347656 227.195312 C 157.910156 225.050781 159.132812 223.546875 160.71875 222.605469 C 162.246094 221.699219 164.097656 221.335938 165.984375 221.433594 C 166.839844 221.476562 167.703125 221.613281 168.550781 221.835938 C 172.425781 222.851562 176.105469 223.964844 179.601562 225.601562 C 183.144531 227.265625 186.464844 229.457031 189.5625 232.609375 C 190.9375 234.007812 192.746094 236.191406 193.945312 238.449219 C 194.734375 239.9375 195.273438 241.484375 195.289062 242.933594 C 195.304688 244.585938 194.691406 246.050781 193.125 247.121094 C 192.792969 247.339844 192.425781 247.542969 192.015625 247.722656 C 192.289062 248.582031 192.445312 249.421875 192.496094 250.230469 C 192.621094 252.113281 192.171875 253.824219 191.308594 255.246094 C 190.4375 256.667969 189.15625 257.789062 187.605469 258.492188 C 187.191406 258.679688 186.757812 258.835938 186.3125 258.964844 C 186.691406 259.9375 186.828125 260.90625 186.769531 261.84375 C 186.679688 263.289062 186.109375 264.628906 185.230469 265.738281 C 184.371094 266.816406 183.207031 267.675781 181.890625 268.203125 C 180.960938 268.574219 179.957031 268.78125 178.933594 268.773438 C 179.089844 269.59375 179.136719 270.371094 179.085938 271.097656 C 178.980469 272.664062 178.429688 273.996094 177.578125 275.078125 C 176.730469 276.144531 175.597656 276.945312 174.296875 277.449219 C 172.972656 277.96875 171.46875 278.191406 169.929688 278.085938 C 166.195312 277.828125 164.082031 276.089844 161.554688 274.011719 Z M 161.554688 274.011719 " fill-opacity="1" fill-rule="nonzero"/><path fill="rgb(64.309692%, 64.309692%, 64.309692%)" d="M 154.789062 258.597656 C 153.492188 256.785156 154.839844 254.890625 158.09375 255.929688 C 165.644531 258.339844 171.460938 261.617188 173.996094 266.597656 C 176.253906 271.039062 173.875 275.179688 168.339844 271.722656 C 163.089844 268.433594 158.386719 263.636719 154.789062 258.597656 Z M 154.789062 258.597656 " fill-opacity="1" fill-rule="evenodd"/><path fill="rgb(64.309692%, 64.309692%, 64.309692%)" d="M 163.003906 251.558594 C 160.890625 249.128906 163.195312 246.898438 166.527344 248.035156 C 173.171875 250.300781 178.855469 253.808594 181.996094 258.808594 C 184.21875 262.347656 181.863281 265.4375 177.621094 263.078125 C 172.203125 260.0625 167.078125 256.234375 163.003906 251.558594 Z M 163.003906 251.558594 " fill-opacity="1" fill-rule="evenodd"/><path fill="rgb(64.309692%, 64.309692%, 64.309692%)" d="M 170.257812 242.914062 C 168.195312 240.824219 167.953125 237.898438 173.140625 238.753906 C 179.949219 239.867188 184.871094 243.429688 187.546875 248.246094 C 189.519531 251.804688 187.738281 255.6875 183.171875 253.472656 C 178.167969 251.050781 174.171875 246.867188 170.257812 242.914062 Z M 170.257812 242.914062 " fill-opacity="1" fill-rule="evenodd"/><path fill="rgb(64.309692%, 64.309692%, 64.309692%)" d="M 175.382812 232.457031 C 171.316406 229.882812 172.355469 228.445312 177.300781 229.363281 C 182.765625 230.375 186.53125 232.765625 189.789062 238.21875 C 191.996094 241.914062 190.519531 243.214844 187.4375 240.777344 C 183.664062 237.792969 180.429688 235.65625 175.382812 232.457031 Z M 175.382812 232.457031 " fill-opacity="1" fill-rule="evenodd"/><path fill="rgb(64.309692%, 64.309692%, 64.309692%)" d="M 148.953125 256.167969 C 150.371094 255.164062 152.074219 253.558594 155.535156 252.300781 C 157.101562 251.730469 158.46875 251.664062 158.628906 249.207031 C 158.792969 246.738281 160.121094 244.9375 162.152344 244.300781 C 165.925781 243.113281 166.292969 239.625 165.777344 236.722656 C 165.335938 234.226562 167.347656 233.484375 169.191406 232.5625 C 171.894531 231.214844 172.621094 229.296875 170.6875 227.441406 C 169.085938 225.910156 166.996094 225.699219 164.390625 226.269531 C 162.621094 226.65625 162.203125 227.792969 162.472656 229.894531 C 162.707031 231.757812 161.261719 233.550781 158.84375 234.164062 C 155.703125 234.960938 154.085938 236.039062 154.042969 240.140625 C 154.015625 242.308594 152.53125 244.589844 149.773438 245.6875 C 146.167969 247.121094 145.972656 250.941406 145.871094 253.640625 C 145.683594 258.621094 146.496094 257.917969 148.953125 256.167969 Z M 148.953125 256.167969 " fill-opacity="1" fill-rule="evenodd"/><path fill="rgb(39.99939%, 39.99939%, 39.99939%)" d="M 168.628906 225.492188 C 162.765625 220.433594 163 216.691406 164.238281 214.109375 C 165.382812 211.722656 166.632812 210.652344 169.027344 211.320312 C 162.109375 206.710938 163.296875 194.523438 172.820312 197.945312 C 167.75 191.570312 176.140625 184.390625 181.40625 190.359375 C 177.199219 180.085938 193.527344 181.066406 204.367188 195.148438 C 204.417969 184.953125 206.367188 177.351562 212.75 174.789062 C 221.011719 171.476562 230.003906 175.191406 224.128906 182.773438 C 220.679688 187.222656 217.570312 190.660156 220.335938 200.738281 C 228.535156 236.984375 191.449219 245.175781 168.628906 225.492188 Z M 168.628906 225.492188 " fill-opacity="1" fill-rule="evenodd"/><path fill="rgb(0%, 0%, 0%)" d="M 167.75 226.511719 C 164.59375 223.785156 163.058594 221.355469 162.472656 219.226562 C 161.652344 216.234375 162.863281 211.703125 165.839844 210.210938 C 164.277344 208.289062 163.421875 205.945312 163.289062 203.75 C 163.207031 202.398438 163.394531 201.082031 163.855469 199.933594 C 164.339844 198.726562 165.125 197.699219 166.210938 196.992188 C 167.289062 196.289062 168.636719 195.917969 170.25 196.019531 C 169.65625 194.171875 169.851562 192.371094 170.574219 190.855469 C 171.015625 189.917969 171.65625 189.097656 172.425781 188.441406 C 173.199219 187.789062 174.113281 187.296875 175.097656 187.023438 C 176.457031 186.648438 177.941406 186.679688 179.386719 187.261719 C 179.398438 186.40625 179.585938 185.648438 179.917969 184.988281 C 180.5625 183.710938 181.710938 182.863281 183.222656 182.441406 C 184.558594 182.074219 186.191406 182.050781 187.996094 182.382812 C 192.433594 183.199219 198.140625 186.230469 203.125 191.601562 C 203.335938 187.8125 203.886719 184.445312 204.917969 181.644531 C 206.339844 177.789062 208.664062 174.976562 212.25 173.542969 C 215.773438 172.128906 219.449219 171.902344 222.230469 172.644531 C 223.679688 173.035156 224.917969 173.6875 225.808594 174.582031 C 225.835938 174.613281 225.863281 174.640625 225.886719 174.667969 C 226.804688 175.625 227.34375 176.820312 227.359375 178.242188 C 227.375 179.816406 226.722656 181.621094 225.195312 183.597656 L 225.191406 183.597656 L 225.195312 183.601562 L 224.792969 184.117188 C 224.769531 184.152344 224.742188 184.179688 224.714844 184.210938 C 221.691406 188.09375 219.171875 191.417969 221.632812 200.386719 L 221.648438 200.445312 C 223.671875 209.386719 223.011719 216.714844 220.519531 222.417969 C 218.1875 227.746094 214.277344 231.636719 209.449219 234.097656 C 204.675781 236.53125 199.003906 237.558594 193.101562 237.179688 C 184.488281 236.621094 175.34375 233.0625 167.75 226.511719 Z M 165.066406 218.519531 C 165.523438 220.171875 166.804688 222.140625 169.507812 224.476562 C 176.640625 230.628906 185.210938 233.96875 193.269531 234.488281 C 198.691406 234.84375 203.882812 233.910156 208.226562 231.695312 C 212.519531 229.507812 215.988281 226.054688 218.050781 221.34375 C 220.328125 216.140625 220.910156 209.375 219.023438 201.035156 C 216.234375 190.800781 219.136719 186.996094 222.609375 182.539062 C 222.625 182.511719 222.644531 182.488281 222.664062 182.464844 L 223.0625 181.945312 L 223.066406 181.949219 C 224.199219 180.488281 224.679688 179.253906 224.667969 178.261719 C 224.664062 177.59375 224.40625 177.019531 223.964844 176.546875 L 223.902344 176.488281 C 223.347656 175.9375 222.53125 175.515625 221.535156 175.25 C 219.265625 174.644531 216.222656 174.847656 213.25 176.039062 C 210.453125 177.164062 208.609375 179.429688 207.449219 182.570312 C 206.222656 185.898438 205.738281 190.175781 205.707031 195.089844 C 205.730469 195.511719 205.546875 195.9375 205.1875 196.214844 C 204.597656 196.671875 203.753906 196.558594 203.300781 195.972656 C 198.285156 189.457031 192.105469 185.875 187.511719 185.027344 C 186.105469 184.769531 184.882812 184.773438 183.9375 185.035156 C 183.171875 185.25 182.605469 185.636719 182.324219 186.199219 C 181.917969 186.996094 181.980469 188.207031 182.652344 189.847656 C 182.863281 190.363281 182.738281 190.976562 182.296875 191.367188 C 181.742188 191.859375 180.890625 191.804688 180.398438 191.25 C 178.953125 189.613281 177.246094 189.21875 175.816406 189.617188 C 175.214844 189.785156 174.648438 190.089844 174.164062 190.5 C 173.683594 190.910156 173.285156 191.421875 173.007812 192 C 172.335938 193.421875 172.425781 195.285156 173.875 197.109375 L 173.871094 197.109375 C 174.152344 197.460938 174.25 197.945312 174.085938 198.398438 C 173.835938 199.097656 173.066406 199.460938 172.367188 199.210938 C 170.253906 198.453125 168.703125 198.582031 167.675781 199.246094 C 167.078125 199.632812 166.636719 200.226562 166.355469 200.9375 C 166.042969 201.710938 165.917969 202.625 165.976562 203.59375 C 166.125 205.988281 167.394531 208.613281 169.773438 210.199219 L 169.769531 210.199219 C 170.242188 210.511719 170.484375 211.101562 170.324219 211.679688 C 170.128906 212.390625 169.386719 212.8125 168.671875 212.617188 C 167.871094 212.394531 167.308594 212.4375 166.886719 212.703125 C 165.214844 213.769531 164.582031 216.753906 165.066406 218.519531 Z M 165.066406 218.519531 " fill-opacity="1" fill-rule="nonzero"/><path fill="rgb(64.309692%, 64.309692%, 64.309692%)" d="M 170.582031 220.523438 C 168.226562 217.921875 166.902344 215.09375 171.8125 215.355469 C 174.800781 215.511719 175.136719 214.21875 174.152344 212.890625 C 165.136719 200.742188 171.316406 201.3125 177.847656 202.792969 C 179.429688 203.152344 180.335938 201.339844 179.199219 200.210938 C 172.503906 193.515625 179.222656 191.289062 184.25 194.789062 C 185.425781 195.609375 187.0625 194.351562 186.464844 192.820312 C 182.710938 183.207031 190.761719 187.34375 195.085938 191.09375 C 200.710938 195.96875 207.070312 199.90625 210.359375 208.578125 C 221.101562 236.914062 183.523438 234.847656 170.582031 220.523438 Z M 170.582031 220.523438 " fill-opacity="1" fill-rule="evenodd"/><path fill="rgb(64.309692%, 64.309692%, 64.309692%)" d="M 216.023438 177.921875 C 219.875 176.589844 223.433594 177.109375 220.578125 181.738281 C 218.03125 185.878906 215.898438 190.867188 216.886719 199.101562 C 217.457031 203.882812 218.839844 208.257812 217.992188 212.277344 C 216.425781 219.695312 214.460938 214.929688 212.453125 209.074219 C 205.425781 188.628906 208.269531 180.609375 216.023438 177.921875 Z M 216.023438 177.921875 " fill-opacity="1" fill-rule="evenodd"/><path fill="rgb(64.309692%, 64.309692%, 64.309692%)" d="M 93.335938 214.875 C 114.882812 220.886719 141.417969 224.785156 163.574219 205.550781 C 163.773438 207.582031 164.449219 209.136719 165.195312 210.621094 C 163.230469 213.183594 161.675781 216.148438 162.96875 221.96875 C 159.730469 222.035156 157.636719 225.140625 157.097656 228.449219 C 123.453125 233.59375 104.835938 227.011719 93.335938 214.875 Z M 93.335938 214.875 " fill-opacity="1" fill-rule="evenodd"/><path fill="rgb(0%, 0%, 0%)" d="M 112.363281 217.710938 C 114.21875 220.753906 116.777344 223.789062 121.878906 226.832031 C 119.445312 224.132812 117.828125 221.15625 117.019531 217.914062 C 115.46875 217.84375 113.914062 217.78125 112.363281 217.710938 Z M 112.363281 217.710938 " fill-opacity="1" fill-rule="evenodd"/><path fill="rgb(0%, 0%, 0%)" d="M 124.710938 217.710938 C 126.972656 222.171875 129.738281 225.953125 133.617188 228.25 C 130.4375 224.601562 129.632812 220.953125 129.164062 217.304688 C 127.679688 217.441406 126.195312 217.578125 124.710938 217.710938 Z M 124.710938 217.710938 " fill-opacity="1" fill-rule="evenodd"/><path fill="rgb(0%, 0%, 0%)" d="M 139.488281 216.089844 C 141.171875 221.089844 143.671875 225.007812 146.976562 227.84375 C 145.085938 223.523438 144.007812 219.199219 143.738281 214.875 C 142.320312 215.28125 140.90625 215.683594 139.488281 216.089844 Z M 139.488281 216.089844 " fill-opacity="1" fill-rule="evenodd"/><path fill="rgb(0%, 0%, 0%)" d="M 154.464844 210.417969 C 155.546875 209.742188 156.625 209.0625 157.703125 208.390625 C 159.53125 212.980469 159.460938 217.578125 159.121094 222.171875 C 158.226562 218.25 156.980469 214.332031 154.464844 210.417969 Z M 154.464844 210.417969 " fill-opacity="1" fill-rule="evenodd"/><path fill="rgb(64.309692%, 64.309692%, 64.309692%)" d="M 198.980469 107.933594 C 201.601562 112.300781 202.824219 116.664062 202.648438 121.03125 C 201.863281 124.695312 201.078125 128.367188 200.292969 132.035156 C 180.074219 141.210938 175.96875 159.785156 180.90625 183.632812 C 179.683594 184.507812 179.15625 185.730469 179.332031 187.304688 C 173.042969 185.902344 169.902344 188.699219 169.902344 195.683594 C 165.710938 196.558594 163.265625 198.476562 162.566406 201.449219 C 144.886719 220.441406 119.277344 221.066406 87.117188 208.519531 C 62.746094 199.011719 56.761719 176.988281 53.582031 165.824219 C 64.234375 165.734375 72.445312 162.945312 78.207031 155.871094 C 90.695312 156.546875 101.117188 153.21875 111.21875 150.105469 C 131.613281 143.820312 146.015625 147.917969 157.589844 154.035156 C 159.105469 154.835938 158.660156 157.679688 158.632812 160.058594 C 164.121094 150.140625 159.601562 142.199219 153.136719 134.390625 C 155.320312 138.757812 157.363281 143.117188 158.113281 147.488281 C 158.320312 148.703125 157.355469 149.566406 155.492188 149.058594 C 140.207031 144.882812 125.207031 142.5 109.910156 147.488281 C 101.09375 150.363281 92.09375 152.472656 83.1875 150.105469 C 89.714844 144.085938 94.332031 140.984375 103.359375 139.628906 C 90.382812 137.441406 82.984375 147.695312 74.277344 155.347656 C 69.476562 159.566406 63.40625 162.722656 55.679688 161.894531 C 36.996094 159.886719 32.742188 149 37.601562 136.222656 C 41.667969 125.539062 54.554688 116.558594 71.921875 110.03125 C 81.730469 106.34375 92.0625 107.515625 98.902344 113.960938 C 111.179688 125.519531 121.636719 133.65625 134.210938 132.28125 C 155.910156 129.914062 161.90625 112.011719 170.949219 95.359375 C 175.175781 87.582031 179.945312 84.789062 184.050781 82.261719 C 181.847656 85.316406 179.46875 88.375 180.117188 91.429688 C 187.144531 79.386719 194.878906 77.8125 200.03125 84.359375 C 205.199219 90.925781 203.023438 99.238281 194.527344 107.671875 C 190.132812 112.035156 185.535156 111.4375 181.429688 109.769531 C 185.964844 114.152344 190.941406 116.871094 198.980469 107.933594 Z M 198.980469 107.933594 " fill-opacity="1" fill-rule="evenodd"/><path fill="rgb(39.99939%, 39.99939%, 39.99939%)" d="M 127.730469 144.6875 C 121.816406 144.714844 115.882812 145.539062 109.910156 147.488281 C 101.09375 150.363281 92.09375 152.472656 83.1875 150.105469 C 89.714844 144.085938 94.332031 140.984375 103.359375 139.628906 C 95.421875 148.554688 120.726562 139.746094 127.730469 144.6875 Z M 127.730469 144.6875 " fill-opacity="1" fill-rule="evenodd"/><path fill="rgb(39.99939%, 39.99939%, 39.99939%)" d="M 103.359375 139.628906 C 90.382812 137.441406 82.984375 147.695312 74.277344 155.347656 C 69.476562 159.566406 63.40625 162.722656 55.679688 161.894531 C 36.996094 159.886719 32.742188 149 37.601562 136.222656 C 34.324219 150.371094 46.605469 166.167969 73.683594 143.96875 C 84.441406 135.148438 94.578125 134.566406 102.144531 136.292969 C 118.796875 140.085938 93.140625 141.164062 103.359375 139.628906 Z M 103.359375 139.628906 " fill-opacity="1" fill-rule="evenodd"/><path fill="rgb(39.99939%, 39.99939%, 39.99939%)" d="M 198.980469 107.933594 C 201.601562 112.300781 202.824219 116.664062 202.648438 121.03125 C 201.863281 124.695312 201.078125 128.367188 200.292969 132.035156 C 180.074219 141.210938 175.96875 159.785156 180.90625 183.632812 C 179.683594 184.507812 179.15625 185.730469 179.332031 187.304688 C 173.042969 185.902344 169.902344 188.699219 169.902344 195.683594 C 165.710938 196.558594 163.265625 198.476562 162.566406 201.449219 C 144.886719 220.441406 119.277344 221.066406 87.117188 208.519531 C 62.746094 199.011719 56.761719 176.988281 53.582031 165.824219 C 60.90625 165.765625 66.140625 165.144531 72.089844 161.292969 C 65.417969 205.5625 192.332031 242.875 181.429688 109.769531 C 185.964844 114.152344 190.941406 116.871094 198.980469 107.933594 Z M 198.980469 107.933594 " fill-opacity="1" fill-rule="evenodd"/><path fill="rgb(39.99939%, 39.99939%, 39.99939%)" d="M 74.019531 161.367188 C 94.019531 168.414062 107.546875 163.226562 121.175781 158.226562 C 109.710938 166.433594 95.347656 169.664062 78.996094 169.488281 C 81.527344 168.617188 84.058594 167.742188 86.59375 166.871094 C 81.703125 166.085938 77.507812 164.25 74.019531 161.367188 Z M 74.019531 161.367188 " fill-opacity="1" fill-rule="evenodd"/><path fill="rgb(39.99939%, 39.99939%, 39.99939%)" d="M 125.714844 200.5 C 126.539062 200.5 127.207031 200.804688 127.207031 201.179688 C 127.207031 201.550781 126.539062 201.855469 125.714844 201.855469 C 124.886719 201.855469 124.21875 201.550781 124.21875 201.179688 C 124.21875 200.804688 124.886719 200.5 125.714844 200.5 Z M 125.714844 200.5 " fill-opacity="1" fill-rule="evenodd"/><path fill="rgb(39.99939%, 39.99939%, 39.99939%)" d="M 77.929688 179.09375 C 78.675781 179.09375 79.285156 179.457031 79.285156 179.910156 C 79.285156 180.359375 78.675781 180.722656 77.929688 180.722656 C 77.175781 180.722656 76.570312 180.359375 76.570312 179.910156 C 76.570312 179.457031 77.175781 179.09375 77.929688 179.09375 Z M 77.929688 179.09375 " fill-opacity="1" fill-rule="evenodd"/><path fill="rgb(39.99939%, 39.99939%, 39.99939%)" d="M 89.242188 184.773438 C 90.21875 184.773438 91.007812 185.195312 91.007812 185.71875 C 91.007812 186.246094 90.21875 186.671875 89.242188 186.671875 C 88.269531 186.671875 87.480469 186.246094 87.480469 185.71875 C 87.480469 185.195312 88.269531 184.773438 89.242188 184.773438 Z M 89.242188 184.773438 " fill-opacity="1" fill-rule="evenodd"/><path fill="rgb(39.99939%, 39.99939%, 39.99939%)" d="M 94.671875 176.628906 C 95.5 176.628906 96.167969 176.992188 96.167969 177.441406 C 96.167969 177.890625 95.5 178.257812 94.671875 178.257812 C 93.847656 178.257812 93.179688 177.890625 93.179688 177.441406 C 93.179688 176.992188 93.847656 176.628906 94.671875 176.628906 Z M 94.671875 176.628906 " fill-opacity="1" fill-rule="evenodd"/><path fill="rgb(39.99939%, 39.99939%, 39.99939%)" d="M 102.683594 180.425781 C 103.433594 180.425781 104.039062 180.851562 104.039062 181.378906 C 104.039062 181.902344 103.433594 182.328125 102.683594 182.328125 C 101.933594 182.328125 101.328125 181.902344 101.328125 181.378906 C 101.328125 180.851562 101.933594 180.425781 102.683594 180.425781 Z M 102.683594 180.425781 " fill-opacity="1" fill-rule="evenodd"/><path fill="rgb(39.99939%, 39.99939%, 39.99939%)" d="M 101.328125 187.757812 C 101.925781 187.757812 102.414062 188.0625 102.414062 188.4375 C 102.414062 188.808594 101.925781 189.113281 101.328125 189.113281 C 100.726562 189.113281 100.238281 188.808594 100.238281 188.4375 C 100.238281 188.0625 100.726562 187.757812 101.328125 187.757812 Z M 101.328125 187.757812 " fill-opacity="1" fill-rule="evenodd"/><path fill="rgb(39.99939%, 39.99939%, 39.99939%)" d="M 118.296875 185.3125 C 119.273438 185.3125 120.0625 185.800781 120.0625 186.402344 C 120.0625 187 119.273438 187.488281 118.296875 187.488281 C 117.324219 187.488281 116.53125 187 116.53125 186.402344 C 116.53125 185.800781 117.324219 185.3125 118.296875 185.3125 Z M 118.296875 185.3125 " fill-opacity="1" fill-rule="evenodd"/><path fill="rgb(39.99939%, 39.99939%, 39.99939%)" d="M 133.367188 189.660156 C 134.269531 189.660156 134.996094 190.082031 134.996094 190.605469 C 134.996094 191.136719 134.269531 191.558594 133.367188 191.558594 C 132.46875 191.558594 131.738281 191.136719 131.738281 190.605469 C 131.738281 190.082031 132.46875 189.660156 133.367188 189.660156 Z M 133.367188 189.660156 " fill-opacity="1" fill-rule="evenodd"/><path fill="rgb(39.99939%, 39.99939%, 39.99939%)" d="M 139.886719 178.527344 C 141.234375 178.527344 142.328125 179.070312 142.328125 179.746094 C 142.328125 180.425781 141.234375 180.96875 139.886719 180.96875 C 138.535156 180.96875 137.441406 180.425781 137.441406 179.746094 C 137.441406 179.070312 138.535156 178.527344 139.886719 178.527344 Z M 139.886719 178.527344 " fill-opacity="1" fill-rule="evenodd"/><path fill="rgb(39.99939%, 39.99939%, 39.99939%)" d="M 144.910156 169.835938 C 145.734375 169.835938 146.402344 170.203125 146.402344 170.652344 C 146.402344 171.101562 145.734375 171.46875 144.910156 171.46875 C 144.085938 171.46875 143.414062 171.101562 143.414062 170.652344 C 143.414062 170.203125 144.085938 169.835938 144.910156 169.835938 Z M 144.910156 169.835938 " fill-opacity="1" fill-rule="evenodd"/><path fill="rgb(39.99939%, 39.99939%, 39.99939%)" d="M 134.453125 161.964844 C 135.503906 161.964844 136.355469 162.453125 136.355469 163.050781 C 136.355469 163.652344 135.503906 164.140625 134.453125 164.140625 C 133.402344 164.140625 132.550781 163.652344 132.550781 163.050781 C 132.550781 162.453125 133.402344 161.964844 134.453125 161.964844 Z M 134.453125 161.964844 " fill-opacity="1" fill-rule="evenodd"/><path fill="rgb(39.99939%, 39.99939%, 39.99939%)" d="M 128.75 160.066406 C 129.652344 160.066406 130.378906 160.488281 130.378906 161.015625 C 130.378906 161.542969 129.652344 161.964844 128.75 161.964844 C 127.851562 161.964844 127.121094 161.542969 127.121094 161.015625 C 127.121094 160.488281 127.851562 160.066406 128.75 160.066406 Z M 128.75 160.066406 " fill-opacity="1" fill-rule="evenodd"/><path fill="rgb(39.99939%, 39.99939%, 39.99939%)" d="M 113.089844 196.792969 C 113.839844 196.792969 114.449219 197.035156 114.449219 197.335938 C 114.449219 197.636719 113.839844 197.878906 113.089844 197.878906 C 112.339844 197.878906 111.734375 197.636719 111.734375 197.335938 C 111.734375 197.035156 112.339844 196.792969 113.089844 196.792969 Z M 113.089844 196.792969 " fill-opacity="1" fill-rule="evenodd"/><path fill="rgb(0%, 0%, 0%)" d="M 185.355469 94.578125 C 184.753906 95.777344 185.226562 95.984375 187.007812 95.167969 C 194.710938 91.628906 192.179688 96.578125 188.074219 102.730469 C 187.039062 104.277344 187.402344 105.125 189.019531 104.382812 C 205.222656 96.976562 194.226562 76.84375 185.355469 94.578125 Z M 185.355469 94.578125 " fill-opacity="1" fill-rule="evenodd"/><path fill="rgb(64.309692%, 64.309692%, 64.309692%)" d="M 206.398438 179.585938 C 190.828125 162.207031 188.035156 138.789062 204.171875 133.519531 C 212.105469 112.503906 220.070312 93.777344 257.371094 96.128906 C 260.542969 90.007812 268.292969 87.261719 282.746094 89.453125 C 291.613281 94.3125 293.542969 99.578125 292.316406 105.03125 C 307.28125 108.144531 320.921875 113.609375 328.152344 130.402344 C 329.230469 144.480469 326.039062 157.277344 315.242188 167.792969 C 330.355469 169.65625 334.929688 176.238281 332.828125 185.816406 C 331.082031 202.417969 315.652344 206.089844 292.539062 202.511719 C 274.027344 184.851562 255.195312 168.152344 227.101562 176.246094 C 220.902344 169.871094 213.78125 171.722656 206.398438 179.585938 Z M 206.398438 179.585938 " fill-opacity="1" fill-rule="evenodd"/><path fill="rgb(39.99939%, 39.99939%, 39.99939%)" d="M 257.988281 94.855469 C 254.308594 93.765625 249.132812 93.75 246.152344 93.644531 C 262.894531 77.851562 304.132812 85.3125 309.445312 102.777344 C 304.066406 102 299.3125 102.410156 293.9375 102.460938 C 331.34375 102.902344 352.234375 128.609375 343.566406 166.042969 C 345.839844 161.335938 347.597656 156.378906 348.214844 150.84375 C 368.394531 185.609375 354.035156 225.390625 317.507812 238.609375 C 313.257812 228.773438 302.328125 212.25 288.082031 198.292969 C 319.019531 204.902344 338.578125 177.628906 311.855469 168.539062 C 342.078125 133.464844 300.75 103.96875 289.886719 107.570312 C 290.265625 96.179688 275.703125 87.765625 257.988281 94.855469 Z M 257.988281 94.855469 " fill-opacity="1" fill-rule="evenodd"/><path fill="rgb(39.99939%, 39.99939%, 39.99939%)" d="M 202.128906 146.191406 C 204.839844 101.792969 230.566406 89.5 265.402344 97.8125 C 230.660156 95.675781 205.367188 124.144531 202.128906 146.191406 Z M 202.128906 146.191406 " fill-opacity="1" fill-rule="evenodd"/><path fill="rgb(39.99939%, 39.99939%, 39.99939%)" d="M 202.4375 191.160156 C 197.445312 187.804688 182.027344 188.292969 182.894531 179.066406 C 178.804688 158.191406 183.929688 142.214844 201.195312 134.71875 C 193.003906 157.578125 198.355469 171.300781 207.351562 179.808594 C 204.394531 182.613281 202.3125 186.5 202.4375 191.160156 Z M 202.4375 191.160156 " fill-opacity="1" fill-rule="evenodd"/><path fill="rgb(74.899292%, 74.899292%, 74.899292%)" d="M 246.171875 153.324219 C 171.699219 162.636719 229.085938 100.570312 278.429688 111.457031 C 286.019531 113.132812 289.332031 119.523438 276.878906 123.554688 C 300.199219 125.402344 318.359375 140.234375 298.28125 151.464844 C 276.460938 163.671875 246.039062 165.808594 246.171875 153.324219 Z M 246.171875 153.324219 " fill-opacity="1" fill-rule="evenodd"/><path fill="rgb(23.919678%, 23.919678%, 23.919678%)" d="M 50.527344 117.09375 C 71.933594 105.800781 90.628906 100.609375 102.039062 112.054688 C 129.492188 139.601562 146.121094 131.964844 156.070312 116.816406 C 171.113281 93.910156 176.929688 83.261719 184.910156 78.746094 C 183.273438 75.292969 181.054688 73.015625 178.75 70.90625 C 159.601562 71.730469 136.992188 74.71875 110.4375 79.304688 C 92.996094 82.316406 75.597656 84.863281 49.96875 84.902344 C 45.257812 96.179688 43.183594 107.160156 50.527344 117.09375 Z M 50.527344 117.09375 " fill-opacity="1" fill-rule="evenodd"/><path fill="rgb(39.99939%, 39.99939%, 39.99939%)" d="M 110.058594 64.785156 C 91.039062 66.710938 55.09375 73.007812 42.609375 60.476562 C 36.355469 54.195312 38.367188 47.078125 43.625 44.753906 C 47.875 42.878906 61.667969 37.953125 57.363281 40.4375 C 39.730469 50.613281 55.1875 65.464844 110.058594 64.785156 Z M 110.058594 64.785156 " fill-opacity="1" fill-rule="evenodd"/><path fill="rgb(39.99939%, 39.99939%, 39.99939%)" d="M 36.015625 75.9375 C 17.039062 72.695312 16.339844 69.242188 35.507812 71.882812 C 54.429688 74.488281 75.921875 73.683594 96.871094 71.882812 C 102.46875 71.402344 114.464844 72.746094 95.859375 76.191406 C 76.460938 79.789062 56.132812 79.378906 36.015625 75.9375 Z M 36.015625 75.9375 " fill-opacity="1" fill-rule="evenodd"/><path fill="rgb(74.899292%, 74.899292%, 74.899292%)" d="M 144.359375 34.570312 C 159.363281 37.8125 166.265625 41.582031 147.65625 43.207031 C 137.867188 44.066406 126 42.398438 114.097656 39.472656 C 103.707031 36.917969 107.402344 35.148438 113.070312 34.199219 C 123.480469 32.457031 133.96875 32.320312 144.359375 34.570312 Z M 144.359375 34.570312 " fill-opacity="1" fill-rule="evenodd"/><path fill="rgb(39.99939%, 39.99939%, 39.99939%)" d="M 59.34375 84.140625 C 45.039062 83.25 43.875 108.082031 51.402344 116.421875 C 60.152344 109.644531 81.453125 98.785156 98.511719 103.722656 C 128.03125 112.265625 147.070312 121.574219 163.617188 92.082031 C 166.0625 87.722656 166.839844 84.332031 162.03125 83.082031 C 145.042969 78.683594 127.019531 78.179688 106.1875 83.082031 C 89.625 86.984375 75.515625 85.148438 59.34375 84.140625 Z M 59.34375 84.140625 " fill-opacity="1" fill-rule="evenodd"/><path fill="rgb(0%, 0%, 0%)" d="M 62.519531 88.375 C 77.75 94.824219 86.988281 92.941406 101.421875 85.730469 C 88.160156 90.1875 75.078125 92.394531 62.519531 88.375 Z M 62.519531 88.375 " fill-opacity="1" fill-rule="evenodd"/><path fill="rgb(0%, 0%, 0%)" d="M 66.753906 85.554688 C 77.945312 90.296875 84.730469 88.910156 95.335938 83.613281 C 85.589844 86.886719 75.980469 88.507812 66.753906 85.554688 Z M 66.753906 85.554688 " fill-opacity="1" fill-rule="evenodd"/><path fill="rgb(0%, 0%, 0%)" d="M 52.070312 86.160156 C 57.550781 89.664062 62.132812 91.777344 71.367188 93.496094 C 74.660156 94.109375 76.265625 98.59375 73.761719 101.789062 C 68.828125 108.082031 60.949219 109.761719 51.433594 108.964844 C 52.972656 108.21875 54.304688 107.476562 55.417969 106.730469 C 50.554688 103.117188 50.289062 94.027344 53.667969 89.828125 C 52.492188 88.816406 52.386719 87.167969 52.070312 86.160156 Z M 52.070312 86.160156 " fill-opacity="1" fill-rule="evenodd"/><path fill="rgb(100%, 100%, 100%)" d="M 70.890625 95.730469 C 72.964844 96.03125 73.402344 98.546875 71.6875 100.351562 C 61.976562 110.597656 48.539062 103.523438 55.261719 90.945312 C 60.074219 93.203125 64.835938 94.855469 70.890625 95.730469 Z M 70.890625 95.730469 " fill-opacity="1" fill-rule="evenodd"/><path fill="rgb(0%, 0%, 0%)" d="M 62.996094 93.8125 C 65.242188 93.8125 67.0625 95.636719 67.0625 97.882812 C 67.0625 100.128906 65.242188 101.945312 62.996094 101.945312 C 60.75 101.945312 58.929688 100.128906 58.929688 97.882812 C 58.929688 95.636719 60.75 93.8125 62.996094 93.8125 Z M 62.996094 93.8125 " fill-opacity="1" fill-rule="evenodd"/><path fill="rgb(100%, 100%, 100%)" d="M 65.167969 95.089844 C 66.210938 95.089844 67.054688 95.933594 67.054688 96.976562 C 67.054688 98.019531 66.210938 98.863281 65.167969 98.863281 C 64.125 98.863281 63.28125 98.019531 63.28125 96.976562 C 63.28125 95.933594 64.125 95.089844 65.167969 95.089844 Z M 65.167969 95.089844 " fill-opacity="1" fill-rule="evenodd"/><path fill="rgb(0%, 0%, 0%)" d="M 95.292969 91.902344 C 99.097656 117.5625 129.730469 110.863281 137.871094 97.164062 C 134.421875 99.503906 130.753906 102.589844 125.59375 103.226562 C 128.886719 97.910156 129.207031 92.488281 126.550781 88.871094 C 128.195312 87.332031 129.417969 86.003906 130.21875 84.886719 C 121.054688 88.542969 108.03125 91.695312 90.667969 89.03125 C 91.460938 90.308594 92.789062 90.628906 95.292969 91.902344 Z M 95.292969 91.902344 " fill-opacity="1" fill-rule="evenodd"/><path fill="rgb(100%, 100%, 100%)" d="M 100.871094 92.859375 C 99.957031 110.195312 128.515625 111.246094 124.316406 89.988281 C 117.261719 91.957031 109.203125 92.59375 100.871094 92.859375 Z M 100.871094 92.859375 " fill-opacity="1" fill-rule="evenodd"/><path fill="rgb(0%, 0%, 0%)" d="M 116.148438 91.539062 C 118.394531 91.539062 120.214844 93.355469 120.214844 95.605469 C 120.214844 97.851562 118.394531 99.671875 116.148438 99.671875 C 113.898438 99.671875 112.082031 97.851562 112.082031 95.605469 C 112.082031 93.355469 113.898438 91.539062 116.148438 91.539062 Z M 116.148438 91.539062 " fill-opacity="1" fill-rule="evenodd"/><path fill="rgb(100%, 100%, 100%)" d="M 117.820312 92.03125 C 118.863281 92.03125 119.707031 92.878906 119.707031 93.917969 C 119.707031 94.960938 118.863281 95.808594 117.820312 95.808594 C 116.777344 95.808594 115.933594 94.960938 115.933594 93.917969 C 115.933594 92.878906 116.777344 92.03125 117.820312 92.03125 Z M 117.820312 92.03125 " fill-opacity="1" fill-rule="evenodd"/></svg>