<svg xmlns="http://www.w3.org/2000/svg" xmlns:xlink="http://www.w3.org/1999/xlink" width="500" zoomAndPan="magnify" viewBox="0 0 375 374.999991" height="500" preserveAspectRatio="xMidYMid meet" version="1.0"><defs><clipPath id="id1"><path d="M 24.117188 107.199219 L 239 107.199219 L 239 321 L 24.117188 321 Z M 24.117188 107.199219 " clip-rule="nonzero"/></clipPath></defs><path fill="rgb(67.059326%, 78.42865%, 79.60968%)" d="M 38.125 113.542969 L 224.589844 113.542969 C 225.113281 113.542969 225.632812 113.59375 226.144531 113.695312 C 226.660156 113.796875 227.160156 113.949219 227.644531 114.148438 C 228.125 114.347656 228.585938 114.59375 229.023438 114.886719 C 229.457031 115.175781 229.859375 115.507812 230.230469 115.878906 C 230.601562 116.246094 230.933594 116.648438 231.222656 117.085938 C 231.515625 117.519531 231.761719 117.980469 231.960938 118.464844 C 232.160156 118.949219 232.3125 119.445312 232.414062 119.960938 C 232.515625 120.472656 232.566406 120.992188 232.566406 121.515625 L 232.566406 306.496094 C 232.566406 307.019531 232.515625 307.535156 232.414062 308.050781 C 232.3125 308.5625 232.160156 309.0625 231.960938 309.546875 C 231.761719 310.03125 231.515625 310.492188 231.222656 310.925781 C 230.933594 311.359375 230.601562 311.765625 230.230469 312.132812 C 229.859375 312.503906 229.457031 312.835938 229.023438 313.125 C 228.585938 313.417969 228.125 313.664062 227.644531 313.863281 C 227.160156 314.0625 226.660156 314.214844 226.144531 314.316406 C 225.632812 314.417969 225.113281 314.46875 224.589844 314.46875 L 38.125 314.46875 C 37.601562 314.46875 37.082031 314.417969 36.570312 314.316406 C 36.054688 314.214844 35.558594 314.0625 35.074219 313.863281 C 34.589844 313.664062 34.128906 313.417969 33.695312 313.125 C 33.257812 312.835938 32.855469 312.503906 32.484375 312.132812 C 32.113281 311.765625 31.785156 311.359375 31.492188 310.925781 C 31.203125 310.492188 30.957031 310.03125 30.757812 309.546875 C 30.554688 309.0625 30.402344 308.5625 30.300781 308.050781 C 30.199219 307.539062 30.148438 307.019531 30.148438 306.496094 L 30.148438 121.515625 C 30.148438 120.992188 30.199219 120.472656 30.300781 119.960938 C 30.402344 119.445312 30.554688 118.949219 30.757812 118.464844 C 30.957031 117.980469 31.203125 117.519531 31.492188 117.085938 C 31.785156 116.648438 32.113281 116.246094 32.484375 115.878906 C 32.855469 115.507812 33.257812 115.175781 33.695312 114.886719 C 34.128906 114.59375 34.589844 114.347656 35.074219 114.148438 C 35.558594 113.949219 36.054688 113.796875 36.570312 113.695312 C 37.082031 113.59375 37.601562 113.542969 38.125 113.542969 " fill-opacity="1" fill-rule="evenodd"/><g clip-path="url(#id1)"><path stroke-linecap="butt" transform="matrix(4.67632, 0, 0, 4.675057, 15.233943, 98.265886)" fill="none" stroke-linejoin="round" d="M 4.895101 3.267786 L 44.769372 3.267786 C 44.881306 3.267786 44.992404 3.278648 45.101832 3.300372 C 45.212095 3.322096 45.319017 3.354683 45.422597 3.397296 C 45.525342 3.439909 45.62391 3.492549 45.717467 3.555215 C 45.810188 3.617046 45.896227 3.688068 45.975583 3.767445 C 46.054939 3.845987 46.125941 3.932049 46.187755 4.025631 C 46.250405 4.118377 46.30303 4.216972 46.345632 4.32058 C 46.388233 4.424189 46.420811 4.530304 46.44253 4.640596 C 46.464248 4.750054 46.475107 4.861182 46.475107 4.973146 L 46.475107 44.540681 C 46.475107 44.652645 46.464248 44.762938 46.44253 44.873231 C 46.420811 44.982688 46.388233 45.089638 46.345632 45.193247 C 46.30303 45.296855 46.250405 45.39545 46.187755 45.488196 C 46.125941 45.580943 46.054939 45.66784 45.975583 45.746382 C 45.896227 45.825759 45.810188 45.896781 45.717467 45.958612 C 45.62391 46.021278 45.525342 46.073918 45.422597 46.116531 C 45.319017 46.159144 45.212095 46.191731 45.101832 46.213455 C 44.992404 46.235179 44.881306 46.246041 44.769372 46.246041 L 4.895101 46.246041 C 4.783167 46.246041 4.672069 46.235179 4.562641 46.213455 C 4.452378 46.191731 4.346292 46.159144 4.242712 46.116531 C 4.139131 46.073918 4.040563 46.021278 3.947842 45.958612 C 3.854285 45.896781 3.768247 45.825759 3.688891 45.746382 C 3.609535 45.66784 3.539367 45.580943 3.476718 45.488196 C 3.414904 45.39545 3.362278 45.296855 3.319677 45.193247 C 3.27624 45.089638 3.243662 44.982688 3.221944 44.873231 C 3.200225 44.763773 3.189366 44.652645 3.189366 44.540681 L 3.189366 4.973146 C 3.189366 4.861182 3.200225 4.750054 3.221944 4.640596 C 3.243662 4.530304 3.27624 4.424189 3.319677 4.32058 C 3.362278 4.216972 3.414904 4.118377 3.476718 4.025631 C 3.539367 3.932049 3.609535 3.845987 3.688891 3.767445 C 3.768247 3.688068 3.854285 3.617046 3.947842 3.555215 C 4.040563 3.492549 4.139131 3.439909 4.242712 3.397296 C 4.346292 3.354683 4.452378 3.322096 4.562641 3.300372 C 4.672069 3.278648 4.783167 3.267786 4.895101 3.267786 " stroke="rgb(29.798889%, 29.798889%, 29.798889%)" stroke-width="2.5" stroke-opacity="1" stroke-miterlimit="4"/></g><path fill="rgb(29.798889%, 29.798889%, 29.798889%)" d="M 199.890625 167.445312 C 201.769531 167.445312 203.210938 166.636719 204.210938 165.015625 C 205.210938 163.394531 205.851562 161.476562 206.128906 159.316406 C 206.410156 157.160156 206.582031 155.058594 206.582031 153.019531 C 206.582031 150.902344 206.429688 148.773438 206.128906 146.632812 C 205.832031 144.492188 205.210938 142.625 204.210938 141.023438 C 203.210938 139.425781 201.789062 138.625 199.890625 138.625 C 197.992188 138.625 196.542969 139.425781 195.542969 141.023438 C 194.542969 142.625 193.921875 144.492188 193.621094 146.632812 C 193.320312 148.773438 193.203125 150.902344 193.203125 153.019531 C 193.203125 156.617188 193.640625 159.925781 194.523438 162.945312 C 195.402344 165.945312 197.191406 167.445312 199.890625 167.445312 Z M 199.890625 175.871094 C 196.011719 175.871094 192.851562 174.730469 190.414062 172.453125 C 187.972656 170.171875 186.222656 167.304688 185.164062 163.847656 C 184.121094 160.386719 183.601562 156.777344 183.601562 153.019531 C 183.601562 150.28125 183.882812 147.601562 184.441406 144.984375 C 185.003906 142.363281 185.921875 139.90625 187.203125 137.667969 C 188.480469 135.425781 190.171875 133.609375 192.273438 132.269531 C 194.371094 130.929688 196.929688 130.230469 199.890625 130.230469 C 202.871094 130.230469 205.402344 130.910156 207.480469 132.269531 C 209.578125 133.609375 211.261719 135.398438 212.519531 137.636719 C 213.78125 139.875 214.71875 142.324219 215.28125 144.984375 C 215.839844 147.640625 216.148438 150.320312 216.148438 153.019531 C 216.148438 155.71875 215.859375 158.40625 215.28125 161.085938 C 214.699219 163.765625 213.808594 166.195312 212.550781 168.433594 C 211.289062 170.671875 209.601562 172.472656 207.480469 173.832031 C 205.359375 175.191406 202.832031 175.871094 199.890625 175.871094 Z M 164.613281 167.445312 C 166.496094 167.445312 167.933594 166.636719 168.933594 165.015625 C 169.933594 163.394531 170.574219 161.476562 170.855469 159.316406 C 171.132812 157.160156 171.304688 155.058594 171.304688 153.019531 C 171.304688 150.902344 171.152344 148.773438 170.855469 146.632812 C 170.554688 144.492188 169.933594 142.625 168.933594 141.023438 C 167.933594 139.425781 166.515625 138.625 164.613281 138.625 C 162.714844 138.625 161.265625 139.425781 160.265625 141.023438 C 159.265625 142.625 158.644531 144.492188 158.34375 146.632812 C 158.046875 148.773438 157.925781 150.902344 157.925781 153.019531 C 157.925781 156.617188 158.367188 159.925781 159.246094 162.945312 C 160.125 165.945312 161.914062 167.445312 164.613281 167.445312 Z M 164.613281 175.871094 C 160.734375 175.871094 157.574219 174.730469 155.136719 172.453125 C 152.695312 170.171875 150.945312 167.304688 149.886719 163.847656 C 148.847656 160.386719 148.328125 156.777344 148.328125 153.019531 C 148.328125 150.28125 148.605469 147.601562 149.167969 144.984375 C 149.726562 142.363281 150.648438 139.90625 151.925781 137.667969 C 153.207031 135.425781 154.894531 133.609375 156.996094 132.269531 C 159.09375 130.929688 161.65625 130.230469 164.613281 130.230469 C 167.59375 130.230469 170.125 130.910156 172.203125 132.269531 C 174.304688 133.609375 175.984375 135.398438 177.242188 137.636719 C 178.503906 139.875 179.445312 142.324219 180.003906 144.984375 C 180.5625 147.640625 180.875 150.320312 180.875 153.019531 C 180.875 155.71875 180.582031 158.40625 180.003906 161.085938 C 179.421875 163.765625 178.535156 166.195312 177.273438 168.433594 C 176.015625 170.671875 174.324219 172.472656 172.203125 173.832031 C 170.085938 175.191406 167.554688 175.871094 164.613281 175.871094 Z M 133.570312 170.625 L 133.570312 139.496094 L 129.9375 139.496094 C 128.558594 139.496094 127.519531 139.085938 126.820312 138.265625 C 126.121094 137.445312 125.769531 136.445312 125.769531 135.265625 C 125.769531 134.085938 126.140625 133.097656 126.878906 132.238281 C 127.617188 131.378906 128.660156 130.949219 129.9375 130.949219 L 138.667969 130.949219 C 139.527344 130.949219 140.269531 131.148438 140.886719 131.546875 C 141.507812 131.929688 141.976562 132.449219 142.296875 133.109375 C 142.617188 133.765625 142.777344 134.507812 142.777344 135.386719 L 142.777344 170.625 C 142.777344 172.183594 142.359375 173.382812 141.519531 174.222656 C 140.675781 175.0625 139.566406 175.480469 138.1875 175.480469 C 136.828125 175.480469 135.71875 175.050781 134.859375 174.191406 C 134 173.332031 133.570312 172.144531 133.570312 170.625 Z M 110.832031 170.625 L 110.832031 139.496094 L 107.203125 139.496094 C 105.820312 139.496094 104.78125 139.085938 104.082031 138.265625 C 103.382812 137.445312 103.03125 136.445312 103.03125 135.265625 C 103.03125 134.085938 103.402344 133.097656 104.140625 132.238281 C 104.882812 131.378906 105.921875 130.949219 107.203125 130.949219 L 115.929688 130.949219 C 116.789062 130.949219 117.53125 131.148438 118.148438 131.546875 C 118.769531 131.929688 119.238281 132.449219 119.558594 133.109375 C 119.878906 133.765625 120.039062 134.507812 120.039062 135.386719 L 120.039062 170.625 C 120.039062 172.183594 119.621094 173.382812 118.78125 174.222656 C 117.941406 175.0625 116.832031 175.480469 115.449219 175.480469 C 114.089844 175.480469 112.980469 175.050781 112.121094 174.191406 C 111.261719 173.332031 110.832031 172.144531 110.832031 170.625 Z M 83.863281 167.445312 C 85.742188 167.445312 87.183594 166.636719 88.183594 165.015625 C 89.183594 163.394531 89.824219 161.476562 90.101562 159.316406 C 90.382812 157.160156 90.554688 155.058594 90.554688 153.019531 C 90.554688 150.902344 90.402344 148.773438 90.101562 146.632812 C 89.804688 144.492188 89.183594 142.625 88.183594 141.023438 C 87.183594 139.425781 85.765625 138.625 83.863281 138.625 C 81.964844 138.625 80.515625 139.425781 79.515625 141.023438 C 78.515625 142.625 77.894531 144.492188 77.59375 146.632812 C 77.292969 148.773438 77.175781 150.902344 77.175781 153.019531 C 77.175781 156.617188 77.613281 159.925781 78.496094 162.945312 C 79.375 165.945312 81.164062 167.445312 83.863281 167.445312 Z M 83.863281 175.871094 C 79.984375 175.871094 76.824219 174.730469 74.386719 172.453125 C 71.945312 170.171875 70.195312 167.304688 69.136719 163.847656 C 68.09375 160.386719 67.574219 156.777344 67.574219 153.019531 C 67.574219 150.28125 67.855469 147.601562 68.414062 144.984375 C 68.976562 142.363281 69.894531 139.90625 71.175781 137.667969 C 72.457031 135.425781 74.144531 133.609375 76.246094 132.269531 C 78.34375 130.929688 80.902344 130.230469 83.863281 130.230469 C 86.84375 130.230469 89.375 130.910156 91.453125 132.269531 C 93.554688 133.609375 95.234375 135.398438 96.492188 137.636719 C 97.753906 139.875 98.691406 142.324219 99.253906 144.984375 C 99.8125 147.640625 100.121094 150.320312 100.121094 153.019531 C 100.121094 155.71875 99.832031 158.40625 99.253906 161.085938 C 98.671875 163.765625 97.78125 166.195312 96.523438 168.433594 C 95.261719 170.671875 93.574219 172.472656 91.453125 173.832031 C 89.332031 175.191406 86.804688 175.871094 83.863281 175.871094 Z M 52.816406 170.625 L 52.816406 139.496094 L 49.1875 139.496094 C 47.808594 139.496094 46.769531 139.085938 46.066406 138.265625 C 45.367188 137.445312 45.019531 136.445312 45.019531 135.265625 C 45.019531 134.085938 45.386719 133.097656 46.128906 132.238281 C 46.867188 131.378906 47.90625 130.949219 49.1875 130.949219 L 57.917969 130.949219 C 58.777344 130.949219 59.515625 131.148438 60.136719 131.546875 C 60.757812 131.929688 61.226562 132.449219 61.546875 133.109375 C 61.867188 133.765625 62.027344 134.507812 62.027344 135.386719 L 62.027344 170.625 C 62.027344 172.183594 61.605469 173.382812 60.765625 174.222656 C 59.925781 175.0625 58.816406 175.480469 57.4375 175.480469 C 56.078125 175.480469 54.96875 175.050781 54.105469 174.191406 C 53.246094 173.332031 52.816406 172.144531 52.816406 170.625 Z M 168.84375 232.039062 L 168.84375 200.910156 L 165.214844 200.910156 C 163.835938 200.910156 162.796875 200.503906 162.09375 199.683594 C 161.394531 198.863281 161.046875 197.863281 161.046875 196.683594 C 161.046875 195.503906 161.414062 194.515625 162.15625 193.65625 C 162.894531 192.796875 163.933594 192.363281 165.214844 192.363281 L 173.945312 192.363281 C 174.804688 192.363281 175.542969 192.566406 176.164062 192.964844 C 176.785156 193.34375 177.253906 193.863281 177.574219 194.523438 C 177.894531 195.183594 178.054688 195.925781 178.054688 196.804688 L 178.054688 232.039062 C 178.054688 233.597656 177.632812 234.800781 176.792969 235.640625 C 175.953125 236.476562 174.84375 236.898438 173.464844 236.898438 C 172.105469 236.898438 170.996094 236.46875 170.132812 235.609375 C 169.273438 234.75 168.84375 233.558594 168.84375 232.039062 Z M 146.105469 232.039062 L 146.105469 200.910156 L 142.476562 200.910156 C 141.097656 200.910156 140.058594 200.503906 139.359375 199.683594 C 138.65625 198.863281 138.308594 197.863281 138.308594 196.683594 C 138.308594 195.503906 138.679688 194.515625 139.417969 193.65625 C 140.15625 192.796875 141.199219 192.363281 142.476562 192.363281 L 151.207031 192.363281 C 152.066406 192.363281 152.804688 192.566406 153.425781 192.964844 C 154.046875 193.34375 154.515625 193.863281 154.835938 194.523438 C 155.15625 195.183594 155.316406 195.925781 155.316406 196.804688 L 155.316406 232.039062 C 155.316406 233.597656 154.894531 234.800781 154.054688 235.640625 C 153.214844 236.476562 152.105469 236.898438 150.726562 236.898438 C 149.367188 236.898438 148.257812 236.46875 147.398438 235.609375 C 146.535156 234.75 146.105469 233.558594 146.105469 232.039062 Z M 119.140625 228.859375 C 121.019531 228.859375 122.460938 228.050781 123.460938 226.433594 C 124.460938 224.8125 125.097656 222.894531 125.378906 220.734375 C 125.660156 218.574219 125.828125 216.476562 125.828125 214.4375 C 125.828125 212.316406 125.679688 210.1875 125.378906 208.050781 C 125.078125 205.910156 124.460938 204.039062 123.460938 202.441406 C 122.460938 200.84375 121.039062 200.042969 119.140625 200.042969 C 117.242188 200.042969 115.789062 200.84375 114.789062 202.441406 C 113.789062 204.039062 113.171875 205.910156 112.871094 208.050781 C 112.570312 210.1875 112.449219 212.316406 112.449219 214.4375 C 112.449219 218.035156 112.890625 221.34375 113.769531 224.363281 C 114.652344 227.363281 116.441406 228.863281 119.140625 228.863281 Z M 119.140625 237.289062 C 115.261719 237.289062 112.101562 236.148438 109.660156 233.871094 C 107.222656 231.589844 105.472656 228.722656 104.410156 225.261719 C 103.371094 221.804688 102.851562 218.195312 102.851562 214.4375 C 102.851562 211.699219 103.132812 209.019531 103.691406 206.398438 C 104.25 203.78125 105.171875 201.320312 106.453125 199.082031 C 107.730469 196.84375 109.421875 195.023438 111.519531 193.683594 C 113.621094 192.34375 116.179688 191.644531 119.140625 191.644531 C 122.121094 191.644531 124.648438 192.324219 126.730469 193.683594 C 128.828125 195.023438 130.507812 196.8125 131.769531 199.050781 C 133.027344 201.292969 133.96875 203.742188 134.527344 206.398438 C 135.089844 209.058594 135.398438 211.738281 135.398438 214.4375 C 135.398438 217.136719 135.109375 219.824219 134.527344 222.503906 C 133.949219 225.183594 133.058594 227.613281 131.796875 229.851562 C 130.539062 232.089844 128.847656 233.890625 126.730469 235.25 C 124.609375 236.609375 122.078125 237.289062 119.140625 237.289062 Z M 88.09375 232.039062 L 88.09375 200.910156 L 84.464844 200.910156 C 83.085938 200.910156 82.042969 200.503906 81.34375 199.683594 C 80.644531 198.863281 80.292969 197.863281 80.292969 196.683594 C 80.292969 195.503906 80.664062 194.515625 81.402344 193.65625 C 82.144531 192.796875 83.183594 192.363281 84.464844 192.363281 L 93.191406 192.363281 C 94.054688 192.363281 94.792969 192.566406 95.414062 192.964844 C 96.03125 193.34375 96.503906 193.863281 96.824219 194.523438 C 97.140625 195.183594 97.300781 195.925781 97.300781 196.804688 L 97.300781 232.039062 C 97.300781 233.597656 96.882812 234.800781 96.042969 235.640625 C 95.203125 236.476562 94.09375 236.898438 92.714844 236.898438 C 91.351562 236.898438 90.242188 236.46875 89.382812 235.609375 C 88.523438 234.75 88.09375 233.558594 88.09375 232.039062 Z M 61.125 228.859375 C 63.007812 228.859375 64.445312 228.050781 65.445312 226.433594 C 66.445312 224.8125 67.085938 222.894531 67.367188 220.734375 C 67.644531 218.574219 67.816406 216.476562 67.816406 214.4375 C 67.816406 212.316406 67.664062 210.1875 67.367188 208.050781 C 67.066406 205.910156 66.445312 204.039062 65.445312 202.441406 C 64.445312 200.84375 63.027344 200.042969 61.125 200.042969 C 59.226562 200.042969 57.777344 200.84375 56.777344 202.441406 C 55.777344 204.039062 55.15625 205.910156 54.855469 208.050781 C 54.558594 210.1875 54.4375 212.316406 54.4375 214.4375 C 54.4375 218.035156 54.878906 221.34375 55.757812 224.363281 C 56.636719 227.363281 58.425781 228.863281 61.125 228.863281 Z M 61.125 237.289062 C 57.246094 237.289062 54.085938 236.148438 51.648438 233.871094 C 49.207031 231.589844 47.457031 228.722656 46.398438 225.261719 C 45.359375 221.804688 44.839844 218.195312 44.839844 214.4375 C 44.839844 211.699219 45.117188 209.019531 45.679688 206.398438 C 46.238281 203.78125 47.15625 201.320312 48.4375 199.082031 C 49.71875 196.84375 51.40625 195.023438 53.507812 193.683594 C 55.605469 192.34375 58.167969 191.644531 61.125 191.644531 C 64.105469 191.644531 66.636719 192.324219 68.714844 193.683594 C 70.816406 195.023438 72.496094 196.8125 73.753906 199.050781 C 75.015625 201.292969 75.953125 203.742188 76.515625 206.398438 C 77.074219 209.058594 77.382812 211.738281 77.382812 214.4375 C 77.382812 217.136719 77.09375 219.824219 76.515625 222.503906 C 75.933594 225.183594 75.042969 227.613281 73.785156 229.851562 C 72.523438 232.089844 70.835938 233.890625 68.714844 235.25 C 66.597656 236.609375 64.066406 237.289062 61.125 237.289062 Z M 83.863281 290.277344 C 85.742188 290.277344 87.183594 289.46875 88.183594 287.847656 C 89.183594 286.230469 89.824219 284.308594 90.101562 282.152344 C 90.382812 279.992188 90.554688 277.894531 90.554688 275.851562 C 90.554688 273.734375 90.402344 271.605469 90.101562 269.464844 C 89.804688 267.328125 89.183594 265.457031 88.183594 263.859375 C 87.183594 262.257812 85.765625 261.457031 83.863281 261.457031 C 81.964844 261.457031 80.515625 262.257812 79.515625 263.859375 C 78.515625 265.457031 77.894531 267.328125 77.59375 269.464844 C 77.292969 271.605469 77.175781 273.734375 77.175781 275.851562 C 77.175781 279.453125 77.613281 282.761719 78.496094 285.78125 C 79.375 288.777344 81.164062 290.277344 83.863281 290.277344 Z M 83.863281 298.703125 C 79.984375 298.703125 76.824219 297.566406 74.386719 295.285156 C 71.945312 293.007812 70.195312 290.136719 69.136719 286.679688 C 68.09375 283.21875 67.574219 279.613281 67.574219 275.851562 C 67.574219 273.113281 67.855469 270.433594 68.414062 267.816406 C 68.976562 265.199219 69.894531 262.738281 71.175781 260.5 C 72.457031 258.261719 74.144531 256.441406 76.246094 255.101562 C 78.34375 253.761719 80.902344 253.0625 83.863281 253.0625 C 86.84375 253.0625 89.375 253.742188 91.453125 255.101562 C 93.554688 256.441406 95.234375 258.230469 96.492188 260.46875 C 97.753906 262.707031 98.691406 265.15625 99.253906 267.816406 C 99.8125 270.476562 100.121094 273.15625 100.121094 275.851562 C 100.121094 278.550781 99.832031 281.242188 99.253906 283.921875 C 98.671875 286.597656 97.78125 289.027344 96.523438 291.265625 C 95.261719 293.507812 93.574219 295.304688 91.453125 296.664062 C 89.332031 298.023438 86.804688 298.703125 83.863281 298.703125 Z M 52.816406 293.457031 L 52.816406 262.328125 L 49.1875 262.328125 C 47.808594 262.328125 46.769531 261.917969 46.066406 261.097656 C 45.367188 260.28125 45.019531 259.28125 45.019531 258.101562 C 45.019531 256.921875 45.386719 255.929688 46.128906 255.070312 C 46.867188 254.210938 47.90625 253.78125 49.1875 253.78125 L 57.917969 253.78125 C 58.777344 253.78125 59.515625 253.980469 60.136719 254.382812 C 60.757812 254.761719 61.226562 255.28125 61.546875 255.941406 C 61.867188 256.601562 62.027344 257.339844 62.027344 258.21875 L 62.027344 293.457031 C 62.027344 295.015625 61.605469 296.214844 60.765625 297.054688 C 59.925781 297.894531 58.816406 298.316406 57.4375 298.316406 C 56.078125 298.316406 54.96875 297.886719 54.105469 297.023438 C 53.246094 296.164062 52.816406 294.976562 52.816406 293.457031 Z M 52.816406 293.457031 " fill-opacity="1" fill-rule="nonzero"/><path stroke-linecap="butt" transform="matrix(3.022398, 2.78521, -2.785962, 3.021582, 315.957992, 306.090448)" fill-opacity="1" fill="rgb(70.199585%, 70.199585%, 70.199585%)" fill-rule="evenodd" stroke-linejoin="miter" d="M -30.665382 1.596176 L -25.447948 1.596043 L -25.448465 27.935687 L -30.665201 27.935175 Z M -30.665382 1.596176 " stroke="rgb(19.999695%, 19.999695%, 19.999695%)" stroke-width="2.133" stroke-opacity="1" stroke-miterlimit="4"/><path stroke-linecap="round" transform="matrix(-1.224506, -3.922898, 3.923957, -1.224175, 160.784598, 187.184681)" fill-opacity="1" fill="rgb(36.079407%, 88.238525%, 90.19928%)" fill-rule="evenodd" stroke-linejoin="round" d="M -11.655816 8.343531 C -17.029108 8.344143 -21.374324 12.689336 -21.375267 18.062683 C -21.374672 22.148349 -18.851287 25.619628 -15.28065 27.062388 L -15.281441 17.00075 L -7.749555 17.000797 L -7.749659 26.969575 C -4.313289 25.466599 -1.9057 22.05279 -1.906249 18.062705 C -1.905589 12.690265 -6.283091 8.344733 -11.656099 8.344438 Z M -11.655816 8.343531 " stroke="rgb(19.999695%, 19.999695%, 19.999695%)" stroke-width="2.133" stroke-opacity="1" stroke-miterlimit="4"/><path stroke-linecap="round" transform="matrix(1.224506, 3.922898, -3.923957, 1.224175, 220.935064, 354.623238)" fill-opacity="1" fill="rgb(36.079407%, 88.238525%, 90.19928%)" fill-rule="evenodd" stroke-linejoin="round" d="M -11.655725 8.343792 C -17.028734 8.343497 -21.375141 12.689314 -21.375176 18.062943 C -21.374298 22.147702 -18.851196 25.619888 -15.280559 27.062649 L -15.281067 17.000104 L -7.749464 17.001058 L -7.749569 26.969836 C -4.313198 25.46686 -1.906233 22.05186 -1.906158 18.062966 C -1.906405 12.690243 -6.282717 8.344087 -11.656008 8.344699 Z M -11.655725 8.343792 " stroke="rgb(19.999695%, 19.999695%, 19.999695%)" stroke-width="2.133" stroke-opacity="1" stroke-miterlimit="4"/></svg>