<svg xmlns="http://www.w3.org/2000/svg" xmlns:xlink="http://www.w3.org/1999/xlink" width="500" zoomAndPan="magnify" viewBox="0 0 375 374.999991" height="500" preserveAspectRatio="xMidYMid meet" version="1.0"><defs><clipPath id="id1"><path d="M 205.671875 6.527344 L 264.171875 6.527344 L 264.171875 23.472656 L 205.671875 23.472656 Z M 205.671875 6.527344 " clip-rule="nonzero"/></clipPath><clipPath id="id2"><path d="M 205.671875 11.726562 L 226.808594 11.726562 L 226.808594 64.207031 L 205.671875 64.207031 Z M 205.671875 11.726562 " clip-rule="nonzero"/></clipPath><clipPath id="id3"><path d="M 226.617188 18.078125 L 264.171875 18.078125 L 264.171875 64.207031 L 226.617188 64.207031 Z M 226.617188 18.078125 " clip-rule="nonzero"/></clipPath><clipPath id="id4"><path d="M 166.410156 12.398438 L 224.910156 12.398438 L 224.910156 29.34375 L 166.410156 29.34375 Z M 166.410156 12.398438 " clip-rule="nonzero"/></clipPath><clipPath id="id5"><path d="M 166.410156 17.597656 L 187.546875 17.597656 L 187.546875 70.078125 L 166.410156 70.078125 Z M 166.410156 17.597656 " clip-rule="nonzero"/></clipPath><clipPath id="id6"><path d="M 187.359375 23.949219 L 224.910156 23.949219 L 224.910156 70.078125 L 187.359375 70.078125 Z M 187.359375 23.949219 " clip-rule="nonzero"/></clipPath><clipPath id="id7"><path d="M 126.882812 18.371094 L 185.382812 18.371094 L 185.382812 35.316406 L 126.882812 35.316406 Z M 126.882812 18.371094 " clip-rule="nonzero"/></clipPath><clipPath id="id8"><path d="M 126.882812 23.570312 L 148.019531 23.570312 L 148.019531 76.050781 L 126.882812 76.050781 Z M 126.882812 23.570312 " clip-rule="nonzero"/></clipPath><clipPath id="id9"><path d="M 147.828125 29.925781 L 185.382812 29.925781 L 185.382812 76.050781 L 147.828125 76.050781 Z M 147.828125 29.925781 " clip-rule="nonzero"/></clipPath><clipPath id="id10"><path d="M 87.242188 25.210938 L 145.742188 25.210938 L 145.742188 42.15625 L 87.242188 42.15625 Z M 87.242188 25.210938 " clip-rule="nonzero"/></clipPath><clipPath id="id11"><path d="M 87.242188 30.410156 L 108.378906 30.410156 L 108.378906 82.890625 L 87.242188 82.890625 Z M 87.242188 30.410156 " clip-rule="nonzero"/></clipPath><clipPath id="id12"><path d="M 108.1875 36.761719 L 145.742188 36.761719 L 145.742188 82.890625 L 108.1875 82.890625 Z M 108.1875 36.761719 " clip-rule="nonzero"/></clipPath><clipPath id="id13"><path d="M 47.835938 31.804688 L 106.335938 31.804688 L 106.335938 48.75 L 47.835938 48.75 Z M 47.835938 31.804688 " clip-rule="nonzero"/></clipPath><clipPath id="id14"><path d="M 47.835938 37.003906 L 68.976562 37.003906 L 68.976562 89.488281 L 47.835938 89.488281 Z M 47.835938 37.003906 " clip-rule="nonzero"/></clipPath><clipPath id="id15"><path d="M 68.785156 43.359375 L 106.335938 43.359375 L 106.335938 89.488281 L 68.785156 89.488281 Z M 68.785156 43.359375 " clip-rule="nonzero"/></clipPath><clipPath id="id16"><path d="M 215.566406 128.042969 L 274.066406 128.042969 L 274.066406 144.988281 L 215.566406 144.988281 Z M 215.566406 128.042969 " clip-rule="nonzero"/></clipPath><clipPath id="id17"><path d="M 215.566406 133.242188 L 236.703125 133.242188 L 236.703125 185.722656 L 215.566406 185.722656 Z M 215.566406 133.242188 " clip-rule="nonzero"/></clipPath><clipPath id="id18"><path d="M 236.511719 139.59375 L 274.066406 139.59375 L 274.066406 185.722656 L 236.511719 185.722656 Z M 236.511719 139.59375 " clip-rule="nonzero"/></clipPath><clipPath id="id19"><path d="M 176.039062 134.015625 L 234.539062 134.015625 L 234.539062 150.960938 L 176.039062 150.960938 Z M 176.039062 134.015625 " clip-rule="nonzero"/></clipPath><clipPath id="id20"><path d="M 176.039062 139.214844 L 197.175781 139.214844 L 197.175781 191.695312 L 176.039062 191.695312 Z M 176.039062 139.214844 " clip-rule="nonzero"/></clipPath><clipPath id="id21"><path d="M 197 145.570312 L 234.539062 145.570312 L 234.539062 191.695312 L 197 191.695312 Z M 197 145.570312 " clip-rule="nonzero"/></clipPath><clipPath id="id22"><path d="M 136.398438 140.855469 L 194.898438 140.855469 L 194.898438 157.800781 L 136.398438 157.800781 Z M 136.398438 140.855469 " clip-rule="nonzero"/></clipPath><clipPath id="id23"><path d="M 136.398438 146.054688 L 157.535156 146.054688 L 157.535156 198.535156 L 136.398438 198.535156 Z M 136.398438 146.054688 " clip-rule="nonzero"/></clipPath><clipPath id="id24"><path d="M 157.34375 152.40625 L 194.898438 152.40625 L 194.898438 198.535156 L 157.34375 198.535156 Z M 157.34375 152.40625 " clip-rule="nonzero"/></clipPath><clipPath id="id25"><path d="M 97 147.453125 L 155.492188 147.453125 L 155.492188 164.394531 L 97 164.394531 Z M 97 147.453125 " clip-rule="nonzero"/></clipPath><clipPath id="id26"><path d="M 96.992188 152.648438 L 118.128906 152.648438 L 118.128906 205.132812 L 96.992188 205.132812 Z M 96.992188 152.648438 " clip-rule="nonzero"/></clipPath><clipPath id="id27"><path d="M 118 159.003906 L 155.492188 159.003906 L 155.492188 205.132812 L 118 205.132812 Z M 118 159.003906 " clip-rule="nonzero"/></clipPath><clipPath id="id28"><path d="M 129 79 L 161 79 L 161 143 L 129 143 Z M 129 79 " clip-rule="nonzero"/></clipPath><clipPath id="id29"><path d="M 137.910156 74.871094 L 165.933594 140.378906 L 148.003906 148.046875 L 119.984375 82.539062 Z M 137.910156 74.871094 " clip-rule="nonzero"/></clipPath><clipPath id="id30"><path d="M 137.910156 74.871094 L 165.933594 140.378906 L 148.003906 148.046875 L 119.984375 82.539062 Z M 137.910156 74.871094 " clip-rule="nonzero"/></clipPath><clipPath id="id31"><path d="M 137.910156 74.871094 L 165.933594 140.378906 L 148.003906 148.046875 L 119.984375 82.539062 Z M 137.910156 74.871094 " clip-rule="nonzero"/></clipPath><clipPath id="id32"><path d="M 125 78 L 163 78 L 163 144 L 125 144 Z M 125 78 " clip-rule="nonzero"/></clipPath><clipPath id="id33"><path d="M 137.910156 74.871094 L 165.933594 140.378906 L 148.003906 148.046875 L 119.984375 82.539062 Z M 137.910156 74.871094 " clip-rule="nonzero"/></clipPath><clipPath id="id34"><path d="M 137.910156 74.871094 L 165.933594 140.378906 L 148.003906 148.046875 L 119.984375 82.539062 Z M 137.910156 74.871094 " clip-rule="nonzero"/></clipPath><clipPath id="id35"><path d="M 137.910156 74.871094 L 165.933594 140.378906 L 148.003906 148.046875 L 119.984375 82.539062 Z M 137.910156 74.871094 " clip-rule="nonzero"/></clipPath><clipPath id="id36"><path d="M 172 72 L 204 72 L 204 136 L 172 136 Z M 172 72 " clip-rule="nonzero"/></clipPath><clipPath id="id37"><path d="M 180.617188 67.503906 L 208.640625 133.015625 L 190.710938 140.683594 L 162.6875 75.175781 Z M 180.617188 67.503906 " clip-rule="nonzero"/></clipPath><clipPath id="id38"><path d="M 180.617188 67.503906 L 208.640625 133.015625 L 190.710938 140.683594 L 162.6875 75.175781 Z M 180.617188 67.503906 " clip-rule="nonzero"/></clipPath><clipPath id="id39"><path d="M 180.617188 67.503906 L 208.640625 133.015625 L 190.710938 140.683594 L 162.6875 75.175781 Z M 180.617188 67.503906 " clip-rule="nonzero"/></clipPath><clipPath id="id40"><path d="M 168 70 L 205 70 L 205 137 L 168 137 Z M 168 70 " clip-rule="nonzero"/></clipPath><clipPath id="id41"><path d="M 180.617188 67.503906 L 208.640625 133.015625 L 190.710938 140.683594 L 162.6875 75.175781 Z M 180.617188 67.503906 " clip-rule="nonzero"/></clipPath><clipPath id="id42"><path d="M 180.617188 67.503906 L 208.640625 133.015625 L 190.710938 140.683594 L 162.6875 75.175781 Z M 180.617188 67.503906 " clip-rule="nonzero"/></clipPath><clipPath id="id43"><path d="M 180.617188 67.503906 L 208.640625 133.015625 L 190.710938 140.683594 L 162.6875 75.175781 Z M 180.617188 67.503906 " clip-rule="nonzero"/></clipPath><clipPath id="id44"><path d="M 235 60 L 261 60 L 261 132 L 235 132 Z M 235 60 " clip-rule="nonzero"/></clipPath><clipPath id="id45"><path d="M 266.996094 60.476562 L 247.773438 134.523438 L 227.445312 129.246094 L 246.667969 55.199219 Z M 266.996094 60.476562 " clip-rule="nonzero"/></clipPath><clipPath id="id46"><path d="M 266.996094 60.476562 L 247.773438 134.523438 L 227.445312 129.246094 L 246.667969 55.199219 Z M 266.996094 60.476562 " clip-rule="nonzero"/></clipPath><clipPath id="id47"><path d="M 266.996094 60.476562 L 247.773438 134.523438 L 227.445312 129.246094 L 246.667969 55.199219 Z M 266.996094 60.476562 " clip-rule="nonzero"/></clipPath><clipPath id="id48"><path d="M 231 56 L 262 56 L 262 133 L 231 133 Z M 231 56 " clip-rule="nonzero"/></clipPath><clipPath id="id49"><path d="M 266.996094 60.476562 L 247.773438 134.523438 L 227.445312 129.246094 L 246.667969 55.199219 Z M 266.996094 60.476562 " clip-rule="nonzero"/></clipPath><clipPath id="id50"><path d="M 266.996094 60.476562 L 247.773438 134.523438 L 227.445312 129.246094 L 246.667969 55.199219 Z M 266.996094 60.476562 " clip-rule="nonzero"/></clipPath><clipPath id="id51"><path d="M 266.996094 60.476562 L 247.773438 134.523438 L 227.445312 129.246094 L 246.667969 55.199219 Z M 266.996094 60.476562 " clip-rule="nonzero"/></clipPath></defs><g clip-path="url(#id1)"><path fill="rgb(84.709167%, 84.709167%, 84.709167%)" d="M 226.800781 23.417969 L 205.746094 11.835938 L 243.117188 6.527344 L 264.175781 18.109375 L 226.800781 23.417969 " fill-opacity="1" fill-rule="nonzero"/></g><g clip-path="url(#id2)"><path fill="rgb(55.688477%, 55.688477%, 55.688477%)" d="M 226.726562 64.207031 L 205.671875 52.625 L 205.746094 11.835938 L 226.800781 23.417969 L 226.726562 64.207031 " fill-opacity="1" fill-rule="nonzero"/></g><g clip-path="url(#id3)"><path fill="rgb(71.369934%, 71.369934%, 71.369934%)" d="M 264.175781 18.109375 L 264.097656 58.894531 L 226.726562 64.207031 L 226.800781 23.417969 L 264.175781 18.109375 " fill-opacity="1" fill-rule="nonzero"/></g><g clip-path="url(#id4)"><path fill="rgb(1.179504%, 59.609985%, 61.959839%)" d="M 187.539062 29.289062 L 166.484375 17.707031 L 203.859375 12.398438 L 224.914062 23.976562 L 187.539062 29.289062 " fill-opacity="1" fill-rule="nonzero"/></g><g clip-path="url(#id5)"><path fill="rgb(32.159424%, 44.309998%, 100%)" d="M 187.464844 70.078125 L 166.410156 58.496094 L 166.484375 17.707031 L 187.539062 29.289062 L 187.464844 70.078125 " fill-opacity="1" fill-rule="nonzero"/></g><g clip-path="url(#id6)"><path fill="rgb(0%, 29.019165%, 67.83905%)" d="M 224.914062 23.976562 L 224.835938 64.765625 L 187.464844 70.078125 L 187.539062 29.289062 L 224.914062 23.976562 " fill-opacity="1" fill-rule="nonzero"/></g><g clip-path="url(#id7)"><path fill="rgb(49.409485%, 85.099792%, 34.118652%)" d="M 148.011719 35.261719 L 126.957031 23.679688 L 164.328125 18.371094 L 185.382812 29.953125 L 148.011719 35.261719 " fill-opacity="1" fill-rule="nonzero"/></g><g clip-path="url(#id8)"><path fill="rgb(18.429565%, 61.569214%, 36.859131%)" d="M 147.9375 76.050781 L 126.882812 64.46875 L 126.957031 23.679688 L 148.011719 35.261719 L 147.9375 76.050781 " fill-opacity="1" fill-rule="nonzero"/></g><g clip-path="url(#id9)"><path fill="rgb(0%, 50.19989%, 21.569824%)" d="M 185.382812 29.953125 L 185.308594 70.738281 L 147.9375 76.050781 L 148.011719 35.261719 L 185.382812 29.953125 " fill-opacity="1" fill-rule="nonzero"/></g><g clip-path="url(#id10)"><path fill="rgb(100%, 74.119568%, 34.899902%)" d="M 108.371094 42.101562 L 87.316406 30.519531 L 124.6875 25.207031 L 145.742188 36.789062 L 108.371094 42.101562 " fill-opacity="1" fill-rule="nonzero"/></g><g clip-path="url(#id11)"><path fill="rgb(100%, 74.119568%, 34.899902%)" d="M 108.296875 82.890625 L 87.242188 71.308594 L 87.316406 30.519531 L 108.371094 42.101562 L 108.296875 82.890625 " fill-opacity="1" fill-rule="nonzero"/></g><g clip-path="url(#id12)"><path fill="rgb(100%, 56.858826%, 30.198669%)" d="M 145.742188 36.789062 L 145.667969 77.578125 L 108.296875 82.890625 L 108.371094 42.101562 L 145.742188 36.789062 " fill-opacity="1" fill-rule="nonzero"/></g><g clip-path="url(#id13)"><path fill="rgb(84.709167%, 84.709167%, 84.709167%)" d="M 68.96875 48.699219 L 47.914062 37.117188 L 85.285156 31.804688 L 106.339844 43.386719 L 68.96875 48.699219 " fill-opacity="1" fill-rule="nonzero"/></g><g clip-path="url(#id14)"><path fill="rgb(55.688477%, 55.688477%, 55.688477%)" d="M 68.890625 89.488281 L 47.835938 77.90625 L 47.914062 37.117188 L 68.96875 48.699219 L 68.890625 89.488281 " fill-opacity="1" fill-rule="nonzero"/></g><g clip-path="url(#id15)"><path fill="rgb(71.369934%, 71.369934%, 71.369934%)" d="M 106.339844 43.386719 L 106.265625 84.175781 L 68.890625 89.488281 L 68.96875 48.699219 L 106.339844 43.386719 " fill-opacity="1" fill-rule="nonzero"/></g><g clip-path="url(#id16)"><path fill="rgb(84.709167%, 84.709167%, 84.709167%)" d="M 236.695312 144.933594 L 215.640625 133.351562 L 253.011719 128.042969 L 274.070312 139.625 L 236.695312 144.933594 " fill-opacity="1" fill-rule="nonzero"/></g><g clip-path="url(#id17)"><path fill="rgb(55.688477%, 55.688477%, 55.688477%)" d="M 236.621094 185.722656 L 215.566406 174.140625 L 215.640625 133.351562 L 236.695312 144.933594 L 236.621094 185.722656 " fill-opacity="1" fill-rule="nonzero"/></g><g clip-path="url(#id18)"><path fill="rgb(71.369934%, 71.369934%, 71.369934%)" d="M 274.070312 139.625 L 273.992188 180.410156 L 236.621094 185.722656 L 236.695312 144.933594 L 274.070312 139.625 " fill-opacity="1" fill-rule="nonzero"/></g><g clip-path="url(#id19)"><path fill="rgb(49.409485%, 85.099792%, 34.118652%)" d="M 197.167969 150.90625 L 176.113281 139.324219 L 213.484375 134.015625 L 234.539062 145.597656 L 197.167969 150.90625 " fill-opacity="1" fill-rule="nonzero"/></g><g clip-path="url(#id20)"><path fill="rgb(17.248535%, 67.83905%, 38.819885%)" d="M 197.09375 191.695312 L 176.039062 180.113281 L 176.113281 139.324219 L 197.167969 150.90625 L 197.09375 191.695312 " fill-opacity="1" fill-rule="nonzero"/></g><g clip-path="url(#id21)"><path fill="rgb(0%, 50.19989%, 21.569824%)" d="M 234.539062 145.597656 L 234.464844 186.382812 L 197.09375 191.695312 L 197.167969 150.90625 L 234.539062 145.597656 " fill-opacity="1" fill-rule="nonzero"/></g><g clip-path="url(#id22)"><path fill="rgb(100%, 74.119568%, 34.899902%)" d="M 157.527344 157.746094 L 136.472656 146.164062 L 173.84375 140.855469 L 194.898438 152.4375 L 157.527344 157.746094 " fill-opacity="1" fill-rule="nonzero"/></g><g clip-path="url(#id23)"><path fill="rgb(100%, 74.119568%, 34.899902%)" d="M 157.453125 198.535156 L 136.398438 186.953125 L 136.472656 146.164062 L 157.527344 157.746094 L 157.453125 198.535156 " fill-opacity="1" fill-rule="nonzero"/></g><g clip-path="url(#id24)"><path fill="rgb(100%, 56.858826%, 30.198669%)" d="M 194.898438 152.4375 L 194.824219 193.222656 L 157.453125 198.535156 L 157.527344 157.746094 L 194.898438 152.4375 " fill-opacity="1" fill-rule="nonzero"/></g><g clip-path="url(#id25)"><path fill="rgb(1.179504%, 59.609985%, 61.959839%)" d="M 118.125 164.34375 L 97.066406 152.761719 L 134.441406 147.449219 L 155.496094 159.03125 L 118.125 164.34375 " fill-opacity="1" fill-rule="nonzero"/></g><g clip-path="url(#id26)"><path fill="rgb(32.159424%, 44.309998%, 100%)" d="M 118.046875 205.132812 L 96.992188 193.550781 L 97.066406 152.761719 L 118.125 164.34375 L 118.046875 205.132812 " fill-opacity="1" fill-rule="nonzero"/></g><g clip-path="url(#id27)"><path fill="rgb(0%, 29.019165%, 67.83905%)" d="M 155.496094 159.03125 L 155.421875 199.820312 L 118.046875 205.132812 L 118.125 164.34375 L 155.496094 159.03125 " fill-opacity="1" fill-rule="nonzero"/></g><g clip-path="url(#id28)"><g clip-path="url(#id29)"><g clip-path="url(#id30)"><g clip-path="url(#id31)"><path fill="rgb(100%, 81.17981%, 90.589905%)" d="M 156.371094 133.773438 C 156.371094 133.773438 156.367188 133.773438 156.367188 133.773438 C 156.3125 133.792969 156.257812 133.796875 156.203125 133.792969 C 156.183594 133.792969 156.167969 133.785156 156.152344 133.777344 C 156.113281 133.769531 156.078125 133.761719 156.050781 133.746094 C 156.042969 133.746094 156.039062 133.742188 156.03125 133.742188 C 156.007812 133.726562 155.992188 133.707031 155.96875 133.6875 C 155.957031 133.679688 155.945312 133.671875 155.933594 133.660156 C 155.898438 133.621094 155.871094 133.578125 155.851562 133.53125 L 154.617188 130.523438 L 133.703125 79.566406 L 129.648438 81.175781 L 152.878906 134.730469 C 152.964844 134.9375 152.878906 135.171875 152.679688 135.273438 L 148.886719 137.125 L 157.75 142.683594 L 160.972656 132.242188 Z M 156.371094 133.773438 " fill-opacity="1" fill-rule="nonzero"/></g></g></g></g><g clip-path="url(#id32)"><g clip-path="url(#id33)"><g clip-path="url(#id34)"><g clip-path="url(#id35)"><path fill="rgb(13.729858%, 12.159729%, 12.548828%)" d="M 158.273438 143.621094 C 158.277344 143.617188 158.285156 143.613281 158.292969 143.605469 C 158.328125 143.566406 158.355469 143.527344 158.375 143.476562 C 158.378906 143.472656 158.375 143.464844 158.382812 143.457031 C 158.382812 143.449219 158.386719 143.449219 158.390625 143.445312 L 162.011719 131.714844 C 162.015625 131.703125 162.015625 131.6875 162.019531 131.675781 C 162.023438 131.664062 162.027344 131.652344 162.027344 131.640625 C 162.03125 131.636719 162.027344 131.628906 162.027344 131.625 C 162.027344 131.601562 162.027344 131.582031 162.027344 131.558594 C 162.027344 131.542969 162.027344 131.523438 162.023438 131.503906 C 162.019531 131.484375 162.011719 131.46875 162.003906 131.449219 C 161.996094 131.433594 161.996094 131.417969 161.984375 131.398438 C 161.972656 131.378906 161.964844 131.363281 161.953125 131.347656 C 161.941406 131.332031 161.929688 131.316406 161.917969 131.300781 C 161.917969 131.296875 161.914062 131.289062 161.90625 131.289062 C 161.898438 131.277344 161.882812 131.269531 161.875 131.261719 C 161.859375 131.253906 161.855469 131.242188 161.84375 131.234375 L 158.621094 129.183594 C 158.527344 129.121094 158.410156 129.101562 158.300781 129.128906 L 155.257812 129.871094 L 134.320312 78.871094 C 134.316406 78.867188 134.3125 78.863281 134.308594 78.859375 C 134.292969 78.816406 134.265625 78.777344 134.234375 78.746094 C 134.230469 78.742188 134.230469 78.738281 134.222656 78.734375 C 134.191406 78.699219 134.144531 78.671875 134.101562 78.652344 C 134.085938 78.648438 134.070312 78.644531 134.054688 78.640625 C 134.027344 78.632812 134.003906 78.621094 133.976562 78.621094 L 130.4375 78.222656 C 130.371094 78.214844 130.300781 78.222656 130.234375 78.25 L 125.574219 80.148438 C 125.472656 80.191406 125.386719 80.273438 125.34375 80.375 C 125.300781 80.476562 125.304688 80.59375 125.347656 80.695312 L 147.914062 133.769531 L 143.324219 135.683594 C 143.1875 135.746094 143.085938 135.875 143.070312 136.027344 C 143.054688 136.183594 143.125 136.328125 143.25 136.417969 L 152.371094 142.609375 C 152.382812 142.613281 152.390625 142.625 152.402344 142.628906 C 152.441406 142.648438 152.484375 142.664062 152.527344 142.671875 L 157.910156 143.730469 C 157.917969 143.734375 157.925781 143.734375 157.9375 143.734375 C 157.957031 143.734375 157.976562 143.734375 157.992188 143.734375 C 158.03125 143.734375 158.070312 143.726562 158.105469 143.71875 C 158.113281 143.714844 158.128906 143.71875 158.136719 143.714844 C 158.144531 143.710938 158.148438 143.703125 158.152344 143.703125 C 158.195312 143.683594 158.234375 143.65625 158.273438 143.621094 Z M 148.886719 137.121094 L 152.679688 135.269531 C 152.878906 135.167969 152.96875 134.933594 152.875 134.726562 L 129.648438 81.175781 L 133.703125 79.566406 L 154.617188 130.527344 L 155.851562 133.535156 C 155.875 133.582031 155.902344 133.625 155.933594 133.664062 C 155.945312 133.675781 155.960938 133.679688 155.972656 133.691406 C 155.992188 133.710938 156.011719 133.730469 156.035156 133.746094 C 156.039062 133.746094 156.046875 133.75 156.050781 133.75 C 156.082031 133.769531 156.117188 133.773438 156.152344 133.78125 C 156.171875 133.785156 156.1875 133.796875 156.203125 133.796875 C 156.257812 133.800781 156.3125 133.796875 156.367188 133.777344 C 156.367188 133.777344 156.371094 133.777344 156.371094 133.777344 L 160.976562 132.246094 L 157.75 142.683594 Z M 148.886719 137.121094 " fill-opacity="1" fill-rule="nonzero"/></g></g></g></g><g clip-path="url(#id36)"><g clip-path="url(#id37)"><g clip-path="url(#id38)"><g clip-path="url(#id39)"><path fill="rgb(100%, 81.17981%, 90.589905%)" d="M 199.074219 126.40625 C 199.074219 126.40625 199.070312 126.410156 199.070312 126.410156 C 199.019531 126.425781 198.964844 126.433594 198.90625 126.429688 C 198.890625 126.425781 198.871094 126.421875 198.855469 126.414062 C 198.820312 126.40625 198.785156 126.398438 198.753906 126.382812 C 198.75 126.382812 198.742188 126.378906 198.738281 126.375 C 198.714844 126.363281 198.695312 126.34375 198.675781 126.324219 C 198.660156 126.316406 198.648438 126.308594 198.636719 126.292969 C 198.605469 126.257812 198.578125 126.214844 198.554688 126.167969 L 197.320312 123.160156 L 176.40625 72.203125 L 172.355469 73.8125 L 195.582031 127.367188 C 195.671875 127.574219 195.582031 127.808594 195.382812 127.90625 L 191.59375 129.761719 L 200.457031 135.320312 L 203.679688 124.878906 Z M 199.074219 126.40625 " fill-opacity="1" fill-rule="nonzero"/></g></g></g></g><g clip-path="url(#id40)"><g clip-path="url(#id41)"><g clip-path="url(#id42)"><g clip-path="url(#id43)"><path fill="rgb(13.729858%, 12.159729%, 12.548828%)" d="M 200.976562 136.257812 C 200.984375 136.25 200.992188 136.25 200.996094 136.242188 C 201.03125 136.203125 201.0625 136.164062 201.082031 136.113281 C 201.082031 136.109375 201.078125 136.101562 201.085938 136.09375 C 201.089844 136.085938 201.09375 136.085938 201.09375 136.078125 L 204.714844 124.351562 C 204.722656 124.339844 204.71875 124.324219 204.722656 124.308594 C 204.726562 124.300781 204.730469 124.289062 204.730469 124.277344 C 204.734375 124.273438 204.730469 124.265625 204.734375 124.257812 C 204.734375 124.238281 204.734375 124.21875 204.734375 124.195312 C 204.730469 124.175781 204.730469 124.160156 204.730469 124.140625 C 204.722656 124.121094 204.71875 124.105469 204.710938 124.085938 C 204.703125 124.070312 204.699219 124.050781 204.6875 124.035156 C 204.679688 124.015625 204.667969 124 204.65625 123.984375 C 204.644531 123.96875 204.632812 123.953125 204.625 123.9375 C 204.621094 123.933594 204.617188 123.925781 204.613281 123.921875 C 204.605469 123.914062 204.585938 123.90625 204.578125 123.898438 C 204.566406 123.886719 204.558594 123.875 204.546875 123.867188 L 201.328125 121.820312 C 201.230469 121.757812 201.113281 121.738281 201.003906 121.761719 L 197.964844 122.503906 L 177.023438 71.507812 C 177.023438 71.503906 177.015625 71.5 177.015625 71.496094 C 176.996094 71.453125 176.96875 71.414062 176.9375 71.382812 C 176.9375 71.378906 176.933594 71.375 176.929688 71.371094 C 176.894531 71.335938 176.851562 71.308594 176.804688 71.289062 C 176.789062 71.28125 176.773438 71.28125 176.757812 71.277344 C 176.734375 71.269531 176.710938 71.257812 176.679688 71.253906 L 173.144531 70.859375 C 173.074219 70.851562 173.003906 70.859375 172.9375 70.886719 L 168.28125 72.78125 C 168.179688 72.828125 168.09375 72.910156 168.050781 73.011719 C 168.003906 73.113281 168.007812 73.230469 168.054688 73.332031 L 190.617188 126.40625 L 186.03125 128.320312 C 185.890625 128.378906 185.789062 128.511719 185.777344 128.664062 C 185.761719 128.820312 185.832031 128.964844 185.957031 129.054688 L 195.078125 135.246094 C 195.089844 135.25 195.097656 135.257812 195.109375 135.265625 C 195.144531 135.285156 195.1875 135.300781 195.234375 135.308594 L 200.613281 136.367188 C 200.621094 136.367188 200.632812 136.371094 200.640625 136.371094 C 200.660156 136.371094 200.679688 136.371094 200.695312 136.371094 C 200.734375 136.371094 200.773438 136.363281 200.808594 136.351562 C 200.816406 136.351562 200.832031 136.351562 200.839844 136.347656 C 200.847656 136.347656 200.855469 136.339844 200.859375 136.335938 C 200.902344 136.320312 200.941406 136.292969 200.976562 136.257812 Z M 191.589844 129.757812 L 195.382812 127.902344 C 195.585938 127.804688 195.671875 127.566406 195.582031 127.363281 L 172.355469 73.8125 L 176.40625 72.203125 L 197.320312 123.164062 L 198.558594 126.171875 C 198.578125 126.21875 198.605469 126.261719 198.640625 126.296875 C 198.652344 126.3125 198.664062 126.316406 198.675781 126.328125 C 198.699219 126.347656 198.714844 126.367188 198.738281 126.378906 C 198.746094 126.382812 198.75 126.386719 198.757812 126.386719 C 198.789062 126.40625 198.820312 126.410156 198.855469 126.417969 C 198.878906 126.421875 198.890625 126.429688 198.910156 126.433594 C 198.960938 126.4375 199.015625 126.433594 199.070312 126.414062 C 199.070312 126.414062 199.074219 126.410156 199.074219 126.410156 L 203.679688 124.882812 L 200.457031 135.320312 Z M 191.589844 129.757812 " fill-opacity="1" fill-rule="nonzero"/></g></g></g></g><g clip-path="url(#id44)"><g clip-path="url(#id45)"><g clip-path="url(#id46)"><g clip-path="url(#id47)"><path fill="rgb(100%, 81.17981%, 90.589905%)" d="M 243.96875 122.625 C 243.96875 122.625 243.960938 122.625 243.960938 122.625 C 243.90625 122.605469 243.859375 122.574219 243.8125 122.53125 C 243.796875 122.519531 243.785156 122.503906 243.777344 122.484375 C 243.75 122.457031 243.726562 122.425781 243.710938 122.394531 C 243.707031 122.386719 243.703125 122.382812 243.699219 122.375 C 243.6875 122.351562 243.6875 122.320312 243.679688 122.292969 C 243.675781 122.277344 243.667969 122.261719 243.671875 122.242188 C 243.664062 122.1875 243.667969 122.132812 243.683594 122.082031 L 244.609375 118.710938 L 260.316406 61.699219 L 255.804688 60.398438 L 240.359375 121.144531 C 240.300781 121.375 240.070312 121.519531 239.835938 121.472656 L 235.386719 120.550781 L 239.28125 131.097656 L 248.898438 124.351562 Z M 243.96875 122.625 " fill-opacity="1" fill-rule="nonzero"/></g></g></g></g><g clip-path="url(#id48)"><g clip-path="url(#id49)"><g clip-path="url(#id50)"><g clip-path="url(#id51)"><path fill="rgb(13.729858%, 12.159729%, 12.548828%)" d="M 239.105469 132.238281 C 239.117188 132.238281 239.125 132.238281 239.136719 132.238281 C 239.191406 132.230469 239.242188 132.214844 239.292969 132.183594 C 239.296875 132.179688 239.300781 132.171875 239.308594 132.171875 C 239.316406 132.167969 239.320312 132.167969 239.324219 132.164062 L 250.128906 124.585938 C 250.140625 124.578125 250.148438 124.566406 250.160156 124.558594 C 250.171875 124.550781 250.183594 124.542969 250.1875 124.535156 C 250.195312 124.53125 250.195312 124.523438 250.203125 124.519531 C 250.21875 124.5 250.230469 124.484375 250.246094 124.464844 C 250.253906 124.449219 250.265625 124.433594 250.277344 124.417969 C 250.285156 124.398438 250.289062 124.378906 250.296875 124.355469 C 250.300781 124.339844 250.308594 124.324219 250.3125 124.300781 C 250.316406 124.277344 250.316406 124.257812 250.320312 124.234375 C 250.320312 124.21875 250.320312 124.195312 250.320312 124.175781 C 250.320312 124.171875 250.324219 124.160156 250.320312 124.15625 C 250.320312 124.140625 250.308594 124.125 250.308594 124.109375 C 250.304688 124.09375 250.308594 124.082031 250.300781 124.066406 L 248.90625 120.210938 C 248.863281 120.09375 248.777344 120 248.667969 119.949219 L 245.585938 118.582031 L 261.300781 61.511719 C 261.300781 61.507812 261.296875 61.5 261.296875 61.496094 C 261.3125 61.449219 261.316406 61.398438 261.308594 61.347656 C 261.308594 61.34375 261.3125 61.339844 261.308594 61.332031 C 261.300781 61.28125 261.28125 61.230469 261.257812 61.183594 C 261.246094 61.167969 261.234375 61.15625 261.226562 61.144531 C 261.207031 61.121094 261.195312 61.09375 261.171875 61.074219 L 258.417969 58.410156 C 258.367188 58.359375 258.300781 58.320312 258.226562 58.300781 L 253.007812 56.847656 C 252.894531 56.816406 252.765625 56.832031 252.664062 56.886719 C 252.558594 56.945312 252.484375 57.046875 252.453125 57.164062 L 236.761719 117.0625 L 231.59375 115.671875 C 231.433594 115.632812 231.261719 115.675781 231.152344 115.796875 C 231.035156 115.917969 231 116.085938 231.050781 116.246094 L 234.746094 127.5 C 234.753906 127.511719 234.753906 127.523438 234.761719 127.535156 C 234.777344 127.578125 234.804688 127.617188 234.839844 127.65625 L 238.726562 132.09375 C 238.734375 132.101562 238.742188 132.105469 238.75 132.113281 C 238.765625 132.128906 238.777344 132.140625 238.796875 132.148438 C 238.828125 132.175781 238.863281 132.195312 238.902344 132.210938 C 238.910156 132.210938 238.921875 132.226562 238.929688 132.226562 C 238.941406 132.230469 238.949219 132.226562 238.953125 132.226562 C 239.003906 132.242188 239.054688 132.246094 239.105469 132.238281 Z M 235.386719 120.546875 L 239.835938 121.46875 C 240.074219 121.515625 240.304688 121.371094 240.363281 121.136719 L 255.804688 60.398438 L 260.316406 61.699219 L 244.609375 118.71875 L 243.683594 122.085938 C 243.667969 122.136719 243.664062 122.191406 243.667969 122.246094 C 243.667969 122.265625 243.679688 122.277344 243.679688 122.296875 C 243.6875 122.324219 243.6875 122.355469 243.699219 122.382812 C 243.703125 122.386719 243.707031 122.390625 243.710938 122.398438 C 243.722656 122.433594 243.75 122.460938 243.773438 122.492188 C 243.789062 122.507812 243.796875 122.523438 243.808594 122.535156 C 243.851562 122.574219 243.902344 122.609375 243.960938 122.628906 C 243.960938 122.628906 243.964844 122.628906 243.964844 122.628906 L 248.894531 124.355469 L 239.28125 131.097656 Z M 235.386719 120.546875 " fill-opacity="1" fill-rule="nonzero"/></g></g></g></g></svg>