<svg xmlns="http://www.w3.org/2000/svg" xmlns:xlink="http://www.w3.org/1999/xlink" width="500" zoomAndPan="magnify" viewBox="0 0 375 374.999991" height="500" preserveAspectRatio="xMidYMid meet" version="1.0"><defs><clipPath id="id1"><path d="M 16.296875 45.238281 L 375 45.238281 L 375 329 L 16.296875 329 Z M 16.296875 45.238281 " clip-rule="nonzero"/></clipPath></defs><g clip-path="url(#id1)"><path fill="rgb(0%, 0%, 0%)" d="M 346.601562 149.867188 C 353.585938 150.980469 359.824219 143.511719 365.183594 143.058594 C 367.015625 145.011719 364.449219 146 363.945312 148.011719 C 362.351562 154.371094 363.574219 165.027344 363.945312 173.996094 C 364.234375 181.054688 363.675781 184.078125 366.421875 190.703125 C 365.230469 192.246094 367.367188 193.246094 365.800781 194.417969 C 369.03125 201.972656 375.730469 197.121094 381.90625 200.601562 C 384.363281 210.539062 370.414062 228.765625 367.042969 237.109375 C 366.304688 238.929688 366.960938 240.296875 366.421875 241.441406 C 364.957031 244.550781 361.542969 247.28125 360.226562 250.722656 C 358.878906 254.246094 358.308594 257.335938 356.511719 260.621094 C 354.46875 264.355469 351.449219 267.671875 349.699219 271.140625 C 348.667969 273.183594 348.867188 276.042969 347.839844 277.945312 C 347.074219 279.363281 345.3125 280.042969 344.742188 281.039062 C 344.175781 282.035156 344.789062 284.09375 344.125 285.371094 C 341.546875 290.296875 338.78125 295.140625 336.070312 300.839844 C 332.566406 308.203125 326.363281 327.3125 318.109375 328.683594 C 313.140625 329.507812 309.277344 328.148438 303.242188 327.445312 C 280.273438 324.769531 248.84375 320.765625 217.765625 317.546875 C 208.800781 316.617188 195.664062 313.351562 188.03125 315.070312 C 181.335938 316.578125 175.871094 325.53125 168.210938 325.589844 C 159.65625 325.652344 151.460938 321.289062 145.914062 311.976562 C 138.578125 312.40625 132.878906 312.476562 126.09375 313.832031 C 122.777344 314.496094 117.753906 313.441406 116.800781 313.832031 C 116.105469 314.117188 115.328125 316.253906 114.941406 316.308594 C 114.605469 316.355469 109.425781 312.78125 106.269531 316.925781 C 104.273438 316.105469 96.578125 316.070312 95.121094 319.402344 C 90.121094 315.761719 78.859375 317.558594 76.539062 320.019531 C 62.578125 318.921875 53.457031 321.785156 31.941406 322.496094 C 26.523438 322.675781 23.667969 324.496094 17.078125 320.019531 C 17.414062 318.289062 16.800781 317.21875 16.457031 314.453125 C 23.804688 311.175781 24.988281 298.265625 33.800781 297.128906 C 28.523438 304.960938 36.804688 301.679688 43.710938 303.316406 C 39.410156 308.023438 35.363281 304.390625 31.941406 308.882812 C 32.058594 310.625 33.964844 310.578125 34.417969 311.976562 C 52.277344 308.675781 64.222656 310.542969 83.351562 308.265625 C 106.152344 305.550781 124.773438 302.414062 147.152344 303.316406 C 149.855469 306.273438 149.339844 311.140625 152.105469 314.453125 C 154.113281 316.851562 159.695312 320.269531 162.636719 320.640625 C 174.023438 322.070312 179.09375 314.023438 181.839844 305.789062 C 182.558594 305.890625 182.941406 305.652344 183.078125 305.171875 C 189.488281 305.441406 192.929688 306.871094 197.324219 307.027344 C 199.234375 307.09375 201.621094 306.421875 204.757812 307.027344 C 208.453125 307.738281 211.269531 308.035156 215.285156 308.265625 C 226.414062 308.898438 238.035156 311.707031 249.355469 313.214844 C 271.242188 316.125 291.789062 316.953125 308.816406 319.402344 C 307.894531 306.082031 306.515625 295.25 305.101562 284.132812 C 303.957031 275.15625 305.550781 275.347656 297.667969 277.945312 C 291.699219 279.914062 284.90625 280.066406 280.324219 281.660156 C 266.4375 279.828125 251.433594 278.773438 233.867188 274.234375 C 229.246094 273.039062 225.375 270.460938 220.859375 269.902344 C 205.074219 267.953125 186.042969 266.652344 172.546875 277.945312 C 170.125 279.976562 168.308594 282.65625 165.113281 284.132812 C 130.722656 256.875 103.503906 276.230469 53 271.757812 C 49.386719 271.4375 46.949219 271.300781 41.851562 270.519531 C 37.671875 269.882812 35.289062 268.148438 31.941406 272.996094 C 32.738281 274.675781 35.019531 274.871094 37.515625 274.851562 C 37.84375 276.15625 44.550781 277.179688 47.425781 277.328125 C 63.699219 278.15625 74.1875 277.984375 98.21875 276.089844 C 112.863281 274.9375 131.015625 274.035156 143.433594 279.800781 C 145.46875 280.746094 147.085938 281.703125 147.769531 284.132812 C 144.039062 285.382812 140.699219 281.464844 136.003906 280.421875 C 119.332031 276.714844 99.386719 278.976562 82.113281 280.421875 C 71.925781 281.273438 60.832031 280.664062 51.761719 280.421875 C 50.492188 280.386719 47.785156 280.640625 46.1875 280.421875 C 39.109375 279.453125 33.402344 273.207031 31.324219 281.660156 C 38.488281 285.085938 43.625 284.675781 54.242188 285.371094 C 74.671875 286.707031 92.832031 282.535156 111.226562 282.277344 C 119.019531 282.167969 126.328125 283.742188 134.761719 285.988281 C 136.882812 286.554688 140.636719 285.054688 140.957031 289.082031 C 118.535156 282.957031 104.960938 287.828125 74.0625 289.082031 C 67.527344 289.347656 61.570312 289.25 55.480469 289.082031 C 45.253906 288.804688 36.636719 283.648438 32.5625 291.558594 C 37.691406 295.488281 44.386719 293.992188 50.523438 294.035156 C 63.679688 294.125 76.121094 294.855469 89.546875 293.414062 C 103.417969 291.929688 114.171875 289.269531 126.09375 290.941406 C 129.117188 293.925781 131.941406 290.496094 133.523438 294.652344 C 97.976562 292.476562 75.683594 300.945312 46.808594 298.363281 C 37.648438 297.546875 32.855469 294.714844 26.988281 292.796875 C 26.175781 288.257812 31.816406 288.324219 31.324219 285.988281 C 30.082031 283.6875 29.46875 284.578125 26.367188 284.132812 C 24.71875 280.867188 28.003906 278.824219 30.703125 276.707031 C 29.980469 274.542969 27.585938 274.046875 26.367188 272.378906 C 27.480469 270.605469 28.695312 268.925781 30.082031 267.425781 C 27.582031 264.769531 23.839844 263.355469 20.171875 261.859375 C 22.40625 258.425781 26.75 258.011719 30.082031 255.671875 C 35.613281 251.789062 40.488281 244.777344 44.949219 240.203125 C 49.25 235.796875 54.140625 232.542969 52.382812 227.828125 C 47.351562 214.328125 51.664062 189.921875 74.0625 182.660156 C 74.328125 180.328125 72.753906 179.84375 71.585938 178.949219 C 57.476562 183.152344 46.839844 195.691406 45.570312 211.742188 C 43.511719 212.515625 43.628906 210.832031 40.613281 211.121094 C 30.484375 196.511719 19.972656 190.957031 20.792969 167.191406 C 30.851562 144.210938 60.578125 129.992188 79.015625 131.921875 C 79.5 127.269531 76.039062 115.445312 79.015625 110.265625 C 68.714844 99.757812 78.109375 81.769531 87.070312 71.285156 C 87.855469 70.367188 90.253906 69.574219 91.40625 68.191406 C 93.996094 65.074219 102.460938 56.449219 107.507812 54.582031 C 108.769531 54.113281 111.046875 54.371094 111.84375 53.960938 C 125.875 46.804688 145.632812 45.945312 159.539062 48.394531 C 162.613281 48.933594 165.8125 49.289062 166.972656 49.628906 C 170.65625 50.710938 177.078125 54.328125 178.121094 55.199219 C 179.21875 56.113281 178.625 57.269531 179.359375 58.292969 C 183.238281 63.691406 189.371094 69.203125 192.367188 75.617188 C 216.09375 67.015625 233.503906 49.058594 263.601562 47.15625 C 264.152344 46.882812 264.707031 46.613281 264.839844 45.917969 C 275.425781 47.644531 290.554688 45.25 303.242188 53.960938 C 305.292969 55.371094 306.949219 57.15625 309.4375 58.910156 C 317.535156 64.628906 324.664062 75.992188 329.257812 84.898438 C 332.835938 91.839844 336.339844 99.921875 337.929688 107.171875 C 338.828125 111.269531 341.757812 114.898438 342.265625 117.691406 C 342.433594 118.625 341.425781 119.867188 341.644531 120.785156 C 342.140625 122.855469 343.710938 124.570312 344.125 127.59375 C 345.230469 135.691406 344.917969 140.53125 346.601562 149.867188 Z M 176.265625 61.386719 C 170.902344 57.601562 164.734375 54.890625 158.300781 53.960938 C 138.222656 51.058594 120.972656 50.988281 105.652344 62.003906 C 104.933594 63.300781 105.941406 64.332031 103.792969 65.097656 C 102.300781 64.847656 102.445312 66.230469 100.695312 65.71875 C 92.648438 80.160156 79.476562 85.941406 80.875 106.554688 C 87.929688 112.5 94.589844 118.839844 102.554688 123.878906 C 95.933594 128.269531 90.128906 119.433594 84.589844 115.835938 C 80.722656 123.117188 83.460938 131.480469 88.308594 141.203125 C 97.09375 129.894531 115.835938 134.925781 123.613281 144.917969 C 125.171875 143.378906 128.65625 143.765625 129.808594 141.824219 C 126.835938 129.988281 137.003906 119.125 149.011719 121.40625 C 155.753906 122.683594 161.617188 128.867188 165.113281 131.304688 C 172.066406 121.789062 177.160156 113.425781 183.695312 104.078125 C 183.988281 101.933594 180.335938 103.726562 179.980469 102.222656 C 185.324219 97.160156 191.480469 96.164062 192.988281 87.992188 C 186.285156 79.347656 182.527344 70.941406 176.265625 61.386719 Z M 197.941406 127.59375 C 207.722656 124.015625 211.261719 114.945312 214.667969 104.699219 C 216.554688 99.015625 216.695312 86.359375 209.710938 83.660156 C 197.851562 79.078125 189.386719 98.316406 191.128906 107.171875 C 188.894531 109.78125 184.410156 111.34375 181.839844 114.597656 C 179.550781 117.496094 177.652344 122.828125 175.023438 126.972656 C 172.023438 131.707031 167.996094 136.105469 167.59375 139.347656 C 167.15625 142.863281 169.410156 146.328125 168.832031 149.867188 C 168.238281 153.476562 165.695312 154.503906 165.734375 157.910156 C 158.15625 163.128906 152.332031 165.921875 144.675781 162.859375 C 137.996094 160.1875 134.730469 152.128906 127.949219 149.867188 C 125.949219 154.09375 128.492188 157.085938 129.1875 160.386719 C 130.6875 167.5 128.328125 172.871094 132.90625 179.566406 C 139.699219 176.003906 138.367188 167.292969 144.054688 163.480469 C 144.238281 164.742188 145.730469 164.691406 145.914062 165.953125 C 145.066406 173.042969 140.410156 178.660156 136.003906 183.898438 C 148.226562 193.140625 169.277344 195.039062 185.554688 186.371094 C 198.253906 173.828125 201.414062 152.558594 196.703125 131.921875 C 194.851562 131.089844 192.40625 130.855469 192.367188 128.210938 C 193.519531 125.597656 195.546875 127.023438 197.941406 127.59375 Z M 137.859375 130.066406 C 127.304688 142.984375 145.1875 166.179688 160.777344 154.199219 C 168.160156 137.398438 148.117188 121.433594 137.859375 130.066406 Z M 95.742188 142.441406 C 94.964844 145.964844 92.792969 147.199219 92.644531 149.867188 C 92.628906 150.171875 93.863281 156 93.882812 156.054688 C 98.546875 168.265625 121.851562 171.554688 121.136719 156.671875 C 120.871094 151.164062 116.492188 149.140625 114.324219 144.296875 C 107.195312 141.359375 103.328125 140.535156 95.742188 142.441406 Z M 316.871094 159.148438 C 311.25 157.578125 304.203125 154.972656 300.144531 159.148438 C 292.054688 176.210938 280.507812 193.554688 263.601562 203.695312 C 259.527344 200.488281 262.660156 197.976562 261.742188 195.035156 C 258.019531 183.109375 237.640625 172.082031 229.53125 178.949219 C 236.265625 181.164062 244.066406 184.523438 249.355469 191.324219 C 256.527344 200.546875 252.605469 207.554688 242.539062 214.835938 C 240.625 215.394531 239.128906 216.375 237.585938 217.308594 C 238.128906 225.488281 231.433594 231.222656 223.957031 233.398438 C 217.398438 228.082031 212.144531 233.84375 204.757812 228.445312 C 198.894531 230.964844 193.144531 224.96875 192.367188 219.164062 C 183.34375 221.800781 171.6875 243.890625 162.015625 238.347656 C 160.203125 237.308594 160.167969 234.871094 160.777344 232.160156 C 163.332031 220.835938 183.277344 201.089844 193.605469 198.128906 C 195.347656 196.835938 193.507812 195.800781 195.464844 195.035156 C 200.816406 192.132812 206.707031 189.765625 211.570312 186.371094 C 212.207031 179.535156 218.621094 176.621094 219.003906 169.667969 C 213.867188 167.777344 210.050781 165.707031 203.519531 165.953125 C 198.871094 175.863281 192.21875 188.289062 181.839844 193.796875 C 178.507812 195.5625 174.230469 195.613281 170.070312 196.273438 C 149.828125 199.480469 129.003906 189.609375 110.605469 173.996094 C 105.0625 174.503906 102.890625 171.40625 96.980469 170.902344 C 96.03125 178.457031 90.28125 182.988281 90.167969 189.464844 C 97.742188 193.605469 113.660156 189.382812 110.605469 201.222656 C 103.003906 211.46875 90.648438 210.945312 80.875 203.695312 C 72.859375 212.488281 66.992188 226.859375 56.71875 233.398438 C 49.609375 245.0625 37.546875 251.785156 30.082031 263.097656 C 51.617188 271.753906 88.230469 264.679688 110.605469 262.476562 C 128.742188 264.164062 147.21875 264.445312 164.496094 276.707031 C 170.546875 262.1875 180.007812 248.128906 188.652344 230.921875 C 190.679688 230.394531 191.578125 226.40625 193.605469 227.828125 C 187.222656 245.378906 177.046875 257.226562 170.6875 273.613281 C 178.421875 268.90625 184.964844 264.023438 192.367188 262.476562 C 208.59375 259.089844 223.582031 265.054688 242.539062 269.902344 C 262.839844 275.09375 283.992188 279.109375 303.242188 271.140625 C 304.371094 268.527344 304.941406 267.359375 305.101562 264.953125 C 306.320312 265.136719 306.328125 264.117188 306.957031 263.714844 C 307.3125 258.144531 311.054688 254.914062 313.773438 249.484375 C 315.371094 246.285156 315.320312 242.433594 316.871094 238.964844 C 318.550781 235.203125 321.890625 231.882812 323.683594 227.828125 C 329.046875 215.679688 334.921875 203.84375 339.167969 191.941406 C 339.882812 189.933594 342.015625 188.359375 342.882812 186.371094 C 343.25 185.539062 342.570312 184.09375 342.882812 183.277344 C 343.714844 181.121094 346.132812 179.445312 347.21875 177.089844 C 351.113281 168.667969 355.601562 158.28125 358.988281 151.105469 C 359.941406 150.957031 359.078125 150.085938 358.371094 149.867188 C 346.75 156.679688 329.914062 156.816406 316.871094 159.148438 Z M 345.980469 184.515625 C 342.867188 196.1875 338.976562 197.238281 335.453125 209.882812 C 328.917969 223.886719 320.253906 238.050781 314.390625 253.195312 C 313.8125 254.695312 314.371094 256.546875 313.773438 258.144531 C 311.988281 262.917969 307.949219 267.28125 306.957031 271.140625 C 305.792969 275.679688 307.3125 282.0625 309.4375 285.988281 C 312.855469 273.835938 318.527344 268.070312 322.445312 255.671875 C 326.671875 249.320312 329.992188 243.011719 333.59375 235.871094 C 337.355469 228.417969 339.828125 218.925781 345.363281 212.976562 C 343.5625 219.789062 339.976562 227.027344 336.691406 232.777344 C 336.019531 233.953125 336.289062 236.785156 335.453125 238.964844 C 332.300781 247.191406 325.433594 256.664062 321.207031 266.191406 C 316.574219 276.628906 309.027344 286.925781 310.675781 294.652344 C 321.8125 272.378906 333.898438 245.675781 347.839844 222.878906 C 349.753906 226.34375 345.757812 226.21875 345.980469 230.921875 C 343.207031 231.527344 344.289062 234.320312 343.503906 235.871094 C 334.363281 253.90625 325.851562 269.425781 316.25 290.320312 C 312.640625 294.953125 311.976562 297.453125 310.675781 304.550781 C 314.074219 300.558594 316.136719 295.671875 318.726562 290.320312 C 323.34375 280.785156 328.664062 272.710938 333.59375 263.097656 C 337.503906 255.46875 338.042969 244.503906 345.363281 239.585938 C 343.234375 245.808594 339.726562 251.363281 337.308594 256.910156 C 336.492188 258.785156 336.902344 261.167969 336.070312 263.097656 C 330.160156 276.828125 319.859375 288.867188 315.628906 304.550781 C 313.640625 306.683594 311.632812 310.675781 313.152344 312.597656 C 317.460938 308.585938 317.257812 302.96875 319.964844 297.746094 C 321.601562 294.59375 325.15625 292.214844 326.160156 289.703125 C 326.503906 288.84375 325.734375 287.421875 326.160156 286.609375 C 326.761719 285.457031 328.847656 284.871094 329.257812 283.515625 C 330.34375 279.914062 330.53125 278.332031 331.734375 276.089844 C 333.710938 272.414062 334.855469 268.851562 336.691406 264.953125 C 344.0625 249.273438 350.472656 238.476562 359.609375 221.023438 C 362.304688 215.875 366.222656 209.582031 367.042969 204.316406 C 358.125 192.582031 360.34375 168.6875 358.371094 159.765625 C 353.320312 169.800781 352.503906 176.21875 345.980469 184.515625 Z M 116.800781 173.378906 C 120.132812 175.09375 123.921875 179.339844 127.332031 178.949219 C 126 172.476562 127.890625 169.109375 124.851562 164.097656 C 124.171875 169.195312 118.394531 169.191406 116.800781 173.378906 Z M 215.90625 184.515625 C 224.507812 180.175781 233.304688 173.222656 235.726562 164.714844 C 225.222656 164.214844 217.945312 177 215.90625 184.515625 Z M 249.355469 203.078125 C 249.371094 200.386719 250.003906 196.417969 248.734375 195.035156 C 242.746094 188.507812 233.292969 181.664062 225.816406 183.277344 C 221.527344 184.203125 215.128906 189.285156 211.570312 191.324219 C 204.347656 195.457031 197.671875 198.75 191.75 203.078125 C 187.15625 206.433594 182.550781 209.851562 179.980469 211.742188 C 176.386719 214.382812 171.960938 220.808594 170.070312 223.496094 C 171 225.246094 172.800781 226.132812 173.167969 228.445312 C 171.390625 231.003906 167.929688 231.878906 166.351562 234.632812 C 174.042969 231.5625 181.324219 224.207031 188.03125 218.546875 C 190.484375 216.476562 193.78125 213.296875 195.464844 211.121094 C 198.085938 207.738281 199.585938 200.113281 205.375 203.078125 C 198.101562 208.164062 192.578125 224.546875 203.519531 224.734375 C 202.738281 215.085938 206.980469 207.160156 213.429688 206.789062 C 208.007812 214.140625 202.054688 225.167969 214.046875 227.210938 C 214.460938 220.867188 214.738281 211.628906 222.71875 208.027344 C 222.882812 213.960938 215.5 220.90625 217.765625 225.351562 C 221.828125 233.335938 234.453125 226.207031 234.488281 218.546875 C 230.605469 217.019531 229.226562 223.867188 225.195312 221.023438 C 231.042969 213.621094 242.914062 211.371094 249.355469 203.078125 Z M 69.726562 186.992188 C 66.40625 189.027344 66.191406 193.105469 61.054688 194.417969 C 55.355469 203.589844 51.546875 217.527344 57.335938 227.828125 C 66.570312 221.480469 62.339844 207.898438 71.585938 201.222656 C 79.335938 192.132812 96.699219 214.195312 105.652344 198.746094 C 102.058594 197.261719 99.882812 200.757812 97.597656 201.222656 C 97.335938 200.042969 95.828125 200.101562 96.359375 198.128906 C 98.507812 197.855469 102.421875 198.199219 103.792969 194.417969 C 89.335938 200.546875 84.035156 178.203125 69.726562 186.992188 Z M 69.105469 214.214844 C 69.980469 209.75 77.824219 206.265625 75.300781 202.460938 C 71.964844 205.152344 66.039062 210.714844 69.105469 214.214844 Z M 165.734375 230.304688 C 168.359375 230.449219 169.402344 229.019531 170.070312 227.210938 C 168.886719 226.945312 168.949219 225.441406 166.972656 225.972656 C 165.636719 227.765625 166.144531 227.574219 165.734375 230.304688 Z M 165.734375 230.304688 " fill-opacity="1" fill-rule="evenodd"/></g><path fill="rgb(0%, 0%, 0%)" d="M 119.277344 103.460938 C 113.007812 95.550781 116.398438 83.125 121.136719 73.144531 C 124.761719 65.5 130.925781 55.515625 138.480469 55.816406 C 139.199219 58.535156 136.488281 61.683594 133.523438 62.625 C 125.894531 74.429688 118.4375 86.183594 119.277344 103.460938 Z M 119.277344 103.460938 " fill-opacity="1" fill-rule="evenodd"/><path fill="rgb(0%, 0%, 0%)" d="M 144.054688 58.292969 C 143.722656 61.261719 142.695312 63.535156 139.71875 63.863281 C 132.921875 75.957031 124.707031 86.390625 124.851562 99.75 C 124.886719 102.90625 128.753906 108.601562 124.234375 111.503906 C 116.90625 98.839844 122.855469 79.488281 131.046875 68.191406 C 134.515625 63.414062 139.644531 58.789062 144.054688 58.292969 Z M 144.054688 58.292969 " fill-opacity="1" fill-rule="evenodd"/><path fill="rgb(0%, 0%, 0%)" d="M 171.929688 76.238281 C 170.511719 79.886719 166.261719 83.535156 162.636719 86.753906 C 162.003906 87.566406 162.03125 89.035156 161.398438 89.847656 C 155.433594 92.648438 154.042969 102.996094 147.769531 103.460938 C 150.144531 92.175781 161.746094 84.867188 168.210938 75.617188 C 169.734375 75.535156 171.195312 75.523438 171.929688 76.238281 Z M 171.929688 76.238281 " fill-opacity="1" fill-rule="evenodd"/><path fill="rgb(0%, 0%, 0%)" d="M 176.882812 78.09375 C 178.105469 78.519531 178.535156 79.742188 178.742188 81.1875 C 173.421875 84.742188 170.304688 90.496094 165.113281 94.179688 C 164.640625 99.113281 160.898438 104.382812 157.683594 102.84375 C 160.058594 93.03125 168.832031 84.296875 176.882812 78.09375 Z M 176.882812 78.09375 " fill-opacity="1" fill-rule="evenodd"/><path fill="rgb(0%, 0%, 0%)" d="M 183.695312 83.042969 C 181.175781 86.917969 177.757812 89.898438 173.785156 92.324219 C 171.613281 94.898438 170.640625 98.671875 166.972656 99.75 C 167.714844 91.792969 175.9375 86.039062 183.695312 83.042969 Z M 183.695312 83.042969 " fill-opacity="1" fill-rule="evenodd"/><path fill="rgb(100%, 100%, 100%)" d="M 192.367188 128.210938 C 192.40625 130.855469 194.851562 131.089844 196.703125 131.921875 C 201.414062 152.558594 198.253906 173.828125 185.554688 186.371094 C 169.277344 195.039062 148.226562 193.140625 136.003906 183.898438 C 140.410156 178.660156 145.066406 173.042969 145.914062 165.953125 C 145.730469 164.691406 144.238281 164.742188 144.054688 163.480469 C 138.367188 167.292969 139.699219 176.003906 132.90625 179.566406 C 128.328125 172.871094 130.6875 167.5 129.1875 160.386719 C 128.492188 157.085938 125.949219 154.09375 127.949219 149.867188 C 134.730469 152.128906 137.996094 160.1875 144.675781 162.859375 C 152.332031 165.921875 158.15625 163.128906 165.734375 157.910156 C 165.695312 154.503906 168.238281 153.476562 168.832031 149.867188 C 169.410156 146.328125 167.15625 142.863281 167.59375 139.347656 C 167.996094 136.105469 172.023438 131.707031 175.023438 126.972656 C 177.652344 122.828125 179.550781 117.496094 181.839844 114.597656 C 184.410156 111.34375 188.894531 109.78125 191.128906 107.171875 C 189.386719 98.316406 197.851562 79.078125 209.710938 83.660156 C 216.695312 86.359375 216.554688 99.015625 214.667969 104.699219 C 211.261719 114.945312 207.722656 124.015625 197.941406 127.59375 C 195.546875 127.023438 193.519531 125.597656 192.367188 128.210938 Z M 192.988281 108.410156 C 194.546875 109.328125 194.828125 111.523438 197.941406 110.886719 C 200.539062 109.148438 201.535156 105.8125 204.757812 104.699219 C 208.683594 110.019531 200.878906 112.789062 198.5625 115.835938 C 197.742188 115.621094 195.453125 114.835938 193.605469 113.980469 C 191.351562 117.890625 195.78125 119.902344 198.5625 120.785156 C 205.171875 116.527344 211.441406 109.734375 208.472656 101.605469 C 204.058594 99.1875 200.429688 103.472656 197.324219 105.9375 C 196.390625 98.484375 201.558594 92.246094 207.234375 87.992188 C 205.957031 87.824219 207.085938 85.253906 205.375 85.515625 C 197.734375 91.007812 193.421875 96.128906 192.988281 108.410156 Z M 155.824219 182.042969 C 157.578125 185.0625 161.894531 184.234375 162.636719 179.566406 C 160.835938 177.519531 157.023438 178.867188 155.824219 182.042969 Z M 155.824219 182.042969 " fill-opacity="1" fill-rule="evenodd"/><path fill="rgb(0%, 0%, 0%)" d="M 205.375 85.515625 C 207.085938 85.253906 205.957031 87.824219 207.234375 87.992188 C 201.558594 92.246094 196.390625 98.484375 197.324219 105.9375 C 200.429688 103.472656 204.058594 99.1875 208.472656 101.605469 C 211.441406 109.734375 205.171875 116.527344 198.5625 120.785156 C 195.78125 119.902344 191.351562 117.890625 193.605469 113.980469 C 195.453125 114.835938 197.742188 115.621094 198.5625 115.835938 C 200.878906 112.789062 208.683594 110.019531 204.757812 104.699219 C 201.535156 105.8125 200.539062 109.148438 197.941406 110.886719 C 194.828125 111.523438 194.546875 109.328125 192.988281 108.410156 C 193.421875 96.128906 197.734375 91.007812 205.375 85.515625 Z M 205.375 85.515625 " fill-opacity="1" fill-rule="evenodd"/><path fill="rgb(0%, 0%, 0%)" d="M 186.792969 86.753906 C 187.34375 87.027344 187.902344 87.296875 188.03125 87.992188 C 187.226562 90.691406 185.386719 92.363281 182.457031 92.941406 C 179.296875 96.441406 175.3125 102.230469 170.6875 102.222656 C 172.332031 95.785156 180.121094 90.226562 186.792969 86.753906 Z M 186.792969 86.753906 " fill-opacity="1" fill-rule="evenodd"/><path fill="rgb(0%, 0%, 0%)" d="M 100.078125 94.796875 C 109.757812 99.773438 114.492188 109.6875 121.136719 117.691406 C 119.738281 118.039062 121.886719 118.65625 120.515625 119.546875 C 112.546875 114.914062 104.734375 104.800781 100.078125 94.796875 Z M 100.078125 94.796875 " fill-opacity="1" fill-rule="evenodd"/><path fill="rgb(0%, 0%, 0%)" d="M 91.40625 97.890625 C 100.8125 104.835938 110.117188 112.023438 116.179688 120.785156 C 114.003906 123.082031 110.117188 119.472656 108.128906 117.691406 C 102.097656 112.285156 94.203125 103.578125 91.40625 97.890625 Z M 91.40625 97.890625 " fill-opacity="1" fill-rule="evenodd"/><path fill="rgb(0%, 0%, 0%)" d="M 87.6875 102.84375 L 89.546875 102.84375 C 93.707031 110.875 105.417969 114.601562 108.128906 122.023438 C 98.480469 118.460938 91.855469 111.875 87.6875 102.84375 Z M 87.6875 102.84375 " fill-opacity="1" fill-rule="evenodd"/><path fill="rgb(100%, 100%, 100%)" d="M 160.777344 154.199219 C 145.1875 166.179688 127.304688 142.984375 137.859375 130.066406 C 148.117188 121.433594 168.160156 137.398438 160.777344 154.199219 Z M 142.816406 151.105469 C 144.996094 152.296875 146.570312 153.523438 148.390625 153.578125 C 149.597656 151.101562 148.648438 147.625 143.433594 147.390625 C 142.722656 148.121094 142.734375 149.582031 142.816406 151.105469 Z M 142.816406 151.105469 " fill-opacity="1" fill-rule="evenodd"/><path fill="rgb(100%, 100%, 100%)" d="M 114.324219 144.296875 C 116.492188 149.140625 120.871094 151.164062 121.136719 156.671875 C 121.851562 171.554688 98.546875 168.265625 93.882812 156.054688 C 93.863281 156 92.628906 150.171875 92.644531 149.867188 C 92.792969 147.199219 94.964844 145.964844 95.742188 142.441406 C 103.328125 140.535156 107.195312 141.359375 114.324219 144.296875 Z M 116.800781 161.003906 C 117.605469 156.28125 114.28125 155.683594 111.226562 154.816406 C 109.207031 158.378906 113.308594 162.859375 116.800781 161.003906 Z M 116.800781 161.003906 " fill-opacity="1" fill-rule="evenodd"/><path fill="rgb(0%, 0%, 0%)" d="M 143.433594 147.390625 C 148.648438 147.625 149.597656 151.101562 148.390625 153.578125 C 146.570312 153.523438 144.996094 152.296875 142.816406 151.105469 C 142.734375 149.582031 142.722656 148.121094 143.433594 147.390625 Z M 143.433594 147.390625 " fill-opacity="1" fill-rule="evenodd"/><path fill="rgb(100%, 100%, 100%)" d="M 358.371094 149.867188 C 359.078125 150.085938 359.941406 150.957031 358.988281 151.105469 C 355.601562 158.28125 351.113281 168.667969 347.21875 177.089844 C 346.132812 179.445312 343.714844 181.121094 342.882812 183.277344 C 342.570312 184.09375 343.25 185.539062 342.882812 186.371094 C 342.015625 188.359375 339.882812 189.933594 339.167969 191.941406 C 334.921875 203.84375 329.046875 215.679688 323.683594 227.828125 C 321.890625 231.882812 318.550781 235.203125 316.871094 238.964844 C 315.320312 242.433594 315.371094 246.285156 313.773438 249.484375 C 311.054688 254.914062 307.3125 258.144531 306.957031 263.714844 C 306.328125 264.117188 306.320312 265.136719 305.101562 264.953125 C 304.941406 267.359375 304.371094 268.527344 303.242188 271.140625 C 283.992188 279.109375 262.839844 275.09375 242.539062 269.902344 C 223.582031 265.054688 208.59375 259.089844 192.367188 262.476562 C 184.964844 264.023438 178.421875 268.90625 170.6875 273.613281 C 177.046875 257.226562 187.222656 245.378906 193.605469 227.828125 C 191.578125 226.40625 190.679688 230.394531 188.652344 230.921875 C 180.007812 248.128906 170.546875 262.1875 164.496094 276.707031 C 147.21875 264.445312 128.742188 264.164062 110.605469 262.476562 C 88.230469 264.679688 51.617188 271.753906 30.082031 263.097656 C 37.546875 251.785156 49.609375 245.0625 56.71875 233.398438 C 66.992188 226.859375 72.859375 212.488281 80.875 203.695312 C 90.648438 210.945312 103.003906 211.46875 110.605469 201.222656 C 113.660156 189.382812 97.742188 193.605469 90.167969 189.464844 C 90.28125 182.988281 96.03125 178.457031 96.980469 170.902344 C 102.890625 171.40625 105.0625 174.503906 110.605469 173.996094 C 129.003906 189.609375 149.828125 199.480469 170.070312 196.273438 C 174.230469 195.613281 178.507812 195.5625 181.839844 193.796875 C 192.21875 188.289062 198.871094 175.863281 203.519531 165.953125 C 210.050781 165.707031 213.867188 167.777344 219.003906 169.667969 C 218.621094 176.621094 212.207031 179.535156 211.570312 186.371094 C 206.707031 189.765625 200.816406 192.132812 195.464844 195.035156 C 193.507812 195.800781 195.347656 196.835938 193.605469 198.128906 C 183.277344 201.089844 163.332031 220.835938 160.777344 232.160156 C 160.167969 234.871094 160.203125 237.308594 162.015625 238.347656 C 171.6875 243.890625 183.34375 221.800781 192.367188 219.164062 C 193.144531 224.96875 198.894531 230.964844 204.757812 228.445312 C 212.144531 233.84375 217.398438 228.082031 223.957031 233.398438 C 231.433594 231.222656 238.128906 225.488281 237.585938 217.308594 C 239.128906 216.375 240.625 215.394531 242.539062 214.835938 C 252.605469 207.554688 256.527344 200.546875 249.355469 191.324219 C 244.066406 184.523438 236.265625 181.164062 229.53125 178.949219 C 237.640625 172.082031 258.019531 183.109375 261.742188 195.035156 C 262.660156 197.976562 259.527344 200.488281 263.601562 203.695312 C 280.507812 193.554688 292.054688 176.210938 300.144531 159.148438 C 304.203125 154.972656 311.25 157.578125 316.871094 159.148438 C 329.914062 156.816406 346.75 156.679688 358.371094 149.867188 Z M 358.371094 149.867188 " fill-opacity="1" fill-rule="evenodd"/><path fill="rgb(0%, 0%, 0%)" d="M 111.226562 154.816406 C 114.28125 155.683594 117.605469 156.28125 116.800781 161.003906 C 113.308594 162.859375 109.207031 158.378906 111.226562 154.816406 Z M 111.226562 154.816406 " fill-opacity="1" fill-rule="evenodd"/><path fill="rgb(100%, 100%, 100%)" d="M 358.371094 159.765625 C 360.34375 168.6875 358.125 192.582031 367.042969 204.316406 C 366.222656 209.582031 362.304688 215.875 359.609375 221.023438 C 350.472656 238.476562 344.0625 249.273438 336.691406 264.953125 C 334.855469 268.851562 333.710938 272.414062 331.734375 276.089844 C 330.53125 278.332031 330.34375 279.914062 329.257812 283.515625 C 328.847656 284.871094 326.761719 285.457031 326.160156 286.609375 C 325.734375 287.421875 326.503906 288.84375 326.160156 289.703125 C 325.15625 292.214844 321.601562 294.59375 319.964844 297.746094 C 317.257812 302.96875 317.460938 308.585938 313.152344 312.597656 C 311.632812 310.675781 313.640625 306.683594 315.628906 304.550781 C 319.859375 288.867188 330.160156 276.828125 336.070312 263.097656 C 336.902344 261.167969 336.492188 258.785156 337.308594 256.910156 C 339.726562 251.363281 343.234375 245.808594 345.363281 239.585938 C 338.042969 244.503906 337.503906 255.46875 333.59375 263.097656 C 328.664062 272.710938 323.34375 280.785156 318.726562 290.320312 C 316.136719 295.671875 314.074219 300.558594 310.675781 304.550781 C 311.976562 297.453125 312.640625 294.953125 316.25 290.320312 C 325.851562 269.425781 334.363281 253.90625 343.503906 235.871094 C 344.289062 234.320312 343.207031 231.527344 345.980469 230.921875 C 345.757812 226.21875 349.753906 226.34375 347.839844 222.878906 C 333.898438 245.675781 321.8125 272.378906 310.675781 294.652344 C 309.027344 286.925781 316.574219 276.628906 321.207031 266.191406 C 325.433594 256.664062 332.300781 247.191406 335.453125 238.964844 C 336.289062 236.785156 336.019531 233.953125 336.691406 232.777344 C 339.976562 227.027344 343.5625 219.789062 345.363281 212.976562 C 339.828125 218.925781 337.355469 228.417969 333.59375 235.871094 C 329.992188 243.011719 326.671875 249.320312 322.445312 255.671875 C 318.527344 268.070312 312.855469 273.835938 309.4375 285.988281 C 307.3125 282.0625 305.792969 275.679688 306.957031 271.140625 C 307.949219 267.28125 311.988281 262.917969 313.773438 258.144531 C 314.371094 256.546875 313.8125 254.695312 314.390625 253.195312 C 320.253906 238.050781 328.917969 223.886719 335.453125 209.882812 C 338.976562 197.238281 342.867188 196.1875 345.980469 184.515625 C 352.503906 176.21875 353.320312 169.800781 358.371094 159.765625 Z M 344.125 199.984375 C 339.328125 204.523438 338.625 211.167969 336.070312 216.691406 C 331.351562 226.886719 325.085938 238.113281 321.207031 247.628906 C 320.265625 249.933594 317.90625 251.511719 316.871094 253.816406 C 313.714844 260.839844 311.503906 268.308594 310.054688 274.851562 C 325.410156 248.445312 338.363281 214.507812 350.9375 190.085938 C 346.167969 190.890625 345.542969 195.832031 344.125 199.984375 Z M 344.125 199.984375 " fill-opacity="1" fill-rule="evenodd"/><path fill="rgb(100%, 100%, 100%)" d="M 124.851562 164.097656 C 127.890625 169.109375 126 172.476562 127.332031 178.949219 C 123.921875 179.339844 120.132812 175.09375 116.800781 173.378906 C 118.394531 169.191406 124.171875 169.195312 124.851562 164.097656 Z M 124.851562 164.097656 " fill-opacity="1" fill-rule="evenodd"/><path fill="rgb(100%, 100%, 100%)" d="M 235.726562 164.714844 C 233.304688 173.222656 224.507812 180.175781 215.90625 184.515625 C 217.945312 177 225.222656 164.214844 235.726562 164.714844 Z M 235.726562 164.714844 " fill-opacity="1" fill-rule="evenodd"/><path fill="rgb(0%, 0%, 0%)" d="M 162.636719 179.566406 C 161.894531 184.234375 157.578125 185.0625 155.824219 182.042969 C 157.023438 178.867188 160.835938 177.519531 162.636719 179.566406 Z M 162.636719 179.566406 " fill-opacity="1" fill-rule="evenodd"/><path fill="rgb(100%, 100%, 100%)" d="M 225.195312 221.023438 C 229.226562 223.867188 230.605469 217.019531 234.488281 218.546875 C 234.453125 226.207031 221.828125 233.335938 217.765625 225.351562 C 215.5 220.90625 222.882812 213.960938 222.71875 208.027344 C 214.738281 211.628906 214.460938 220.867188 214.046875 227.210938 C 202.054688 225.167969 208.007812 214.140625 213.429688 206.789062 C 206.980469 207.160156 202.738281 215.085938 203.519531 224.734375 C 192.578125 224.546875 198.101562 208.164062 205.375 203.078125 C 199.585938 200.113281 198.085938 207.738281 195.464844 211.121094 C 193.78125 213.296875 190.484375 216.476562 188.03125 218.546875 C 181.324219 224.207031 174.042969 231.5625 166.351562 234.632812 C 167.929688 231.878906 171.390625 231.003906 173.167969 228.445312 C 172.800781 226.132812 171 225.246094 170.070312 223.496094 C 171.960938 220.808594 176.386719 214.382812 179.980469 211.742188 C 182.550781 209.851562 187.15625 206.433594 191.75 203.078125 C 197.671875 198.75 204.347656 195.457031 211.570312 191.324219 C 215.128906 189.285156 221.527344 184.203125 225.816406 183.277344 C 233.292969 181.664062 242.746094 188.507812 248.734375 195.035156 C 250.003906 196.417969 249.371094 200.386719 249.355469 203.078125 C 242.914062 211.371094 231.042969 213.621094 225.195312 221.023438 Z M 225.195312 221.023438 " fill-opacity="1" fill-rule="evenodd"/><path fill="rgb(100%, 100%, 100%)" d="M 103.792969 194.417969 C 102.421875 198.199219 98.507812 197.855469 96.359375 198.128906 C 95.828125 200.101562 97.335938 200.042969 97.597656 201.222656 C 99.882812 200.757812 102.058594 197.261719 105.652344 198.746094 C 96.699219 214.195312 79.335938 192.132812 71.585938 201.222656 C 62.339844 207.898438 66.570312 221.480469 57.335938 227.828125 C 51.546875 217.527344 55.355469 203.589844 61.054688 194.417969 C 66.191406 193.105469 66.40625 189.027344 69.726562 186.992188 C 84.035156 178.203125 89.335938 200.546875 103.792969 194.417969 Z M 103.792969 194.417969 " fill-opacity="1" fill-rule="evenodd"/><path fill="rgb(0%, 0%, 0%)" d="M 350.9375 190.085938 C 338.363281 214.507812 325.410156 248.445312 310.054688 274.851562 C 311.503906 268.308594 313.714844 260.839844 316.871094 253.816406 C 317.90625 251.511719 320.265625 249.933594 321.207031 247.628906 C 325.085938 238.113281 331.351562 226.886719 336.070312 216.691406 C 338.625 211.167969 339.328125 204.523438 344.125 199.984375 C 345.542969 195.832031 346.167969 190.890625 350.9375 190.085938 Z M 350.9375 190.085938 " fill-opacity="1" fill-rule="evenodd"/><path fill="rgb(100%, 100%, 100%)" d="M 75.300781 202.460938 C 77.824219 206.265625 69.980469 209.75 69.105469 214.214844 C 66.039062 210.714844 71.964844 205.152344 75.300781 202.460938 Z M 75.300781 202.460938 " fill-opacity="1" fill-rule="evenodd"/><path fill="rgb(100%, 100%, 100%)" d="M 166.972656 225.972656 C 168.949219 225.441406 168.886719 226.945312 170.070312 227.210938 C 169.402344 229.019531 168.359375 230.449219 165.734375 230.304688 C 166.144531 227.574219 165.636719 227.765625 166.972656 225.972656 Z M 166.972656 225.972656 " fill-opacity="1" fill-rule="evenodd"/><path fill="rgb(0%, 0%, 0%)" d="M 273.511719 286.609375 C 269.304688 289.652344 262.417969 288.542969 257.40625 288.464844 C 229.265625 288.027344 206.535156 272.925781 179.359375 285.371094 C 182.753906 280.019531 190.453125 278.519531 194.847656 277.945312 C 214.855469 275.34375 234.539062 283.191406 253.691406 284.132812 C 257.285156 284.3125 260.214844 285.371094 263.601562 285.988281 C 266.742188 286.566406 270.824219 283.621094 273.511719 286.609375 Z M 273.511719 286.609375 " fill-opacity="1" fill-rule="evenodd"/><path fill="rgb(0%, 0%, 0%)" d="M 245.636719 298.984375 C 223.835938 295.800781 202.089844 290.964844 178.742188 296.507812 C 183.53125 289.734375 191.625 292.089844 196.703125 289.703125 C 211.996094 290.613281 231.539062 290.628906 245.636719 298.984375 Z M 245.636719 298.984375 " fill-opacity="1" fill-rule="evenodd"/><path fill="rgb(100%, 100%, 100%)" d="M 192.988281 87.992188 C 191.480469 96.164062 185.324219 97.160156 179.980469 102.222656 C 180.335938 103.726562 183.988281 101.933594 183.695312 104.078125 C 177.160156 113.425781 172.066406 121.789062 165.113281 131.304688 C 161.617188 128.867188 155.753906 122.683594 149.011719 121.40625 C 137.003906 119.125 126.835938 129.988281 129.808594 141.824219 C 128.65625 143.765625 125.171875 143.378906 123.613281 144.917969 C 115.835938 134.925781 97.09375 129.894531 88.308594 141.203125 C 83.460938 131.480469 80.722656 123.117188 84.589844 115.835938 C 90.128906 119.433594 95.933594 128.269531 102.554688 123.878906 C 94.589844 118.839844 87.929688 112.5 80.875 106.554688 C 79.476562 85.941406 92.648438 80.160156 100.695312 65.71875 C 102.445312 66.230469 102.300781 64.847656 103.792969 65.097656 C 105.941406 64.332031 104.933594 63.300781 105.652344 62.003906 C 120.972656 50.988281 138.222656 51.058594 158.300781 53.960938 C 164.734375 54.890625 170.902344 57.601562 176.265625 61.386719 C 182.527344 70.941406 186.285156 79.347656 192.988281 87.992188 Z M 131.046875 68.191406 C 122.855469 79.488281 116.90625 98.839844 124.234375 111.503906 C 128.753906 108.601562 124.886719 102.90625 124.851562 99.75 C 124.707031 86.390625 132.921875 75.957031 139.71875 63.863281 C 142.695312 63.535156 143.722656 61.261719 144.054688 58.292969 C 139.644531 58.789062 134.515625 63.414062 131.046875 68.191406 Z M 133.523438 62.625 C 136.488281 61.683594 139.199219 58.535156 138.480469 55.816406 C 130.925781 55.515625 124.761719 65.5 121.136719 73.144531 C 116.398438 83.125 113.007812 95.550781 119.277344 103.460938 C 118.4375 86.183594 125.894531 74.429688 133.523438 62.625 Z M 168.210938 75.617188 C 161.746094 84.867188 150.144531 92.175781 147.769531 103.460938 C 154.042969 102.996094 155.433594 92.648438 161.398438 89.847656 C 162.03125 89.035156 162.003906 87.566406 162.636719 86.753906 C 166.261719 83.535156 170.511719 79.886719 171.929688 76.238281 C 171.195312 75.523438 169.734375 75.535156 168.210938 75.617188 Z M 157.683594 102.84375 C 160.898438 104.382812 164.640625 99.113281 165.113281 94.179688 C 170.304688 90.496094 173.421875 84.742188 178.742188 81.1875 C 178.535156 79.742188 178.105469 78.519531 176.882812 78.09375 C 168.832031 84.296875 160.058594 93.03125 157.683594 102.84375 Z M 166.972656 99.75 C 170.640625 98.671875 171.613281 94.898438 173.785156 92.324219 C 177.757812 89.898438 181.175781 86.917969 183.695312 83.042969 C 175.9375 86.039062 167.714844 91.792969 166.972656 99.75 Z M 170.6875 102.222656 C 175.3125 102.230469 179.296875 96.441406 182.457031 92.941406 C 185.386719 92.363281 187.226562 90.691406 188.03125 87.992188 C 187.902344 87.296875 187.34375 87.027344 186.792969 86.753906 C 180.121094 90.226562 172.332031 95.785156 170.6875 102.222656 Z M 120.515625 119.546875 C 121.886719 118.65625 119.738281 118.039062 121.136719 117.691406 C 114.492188 109.6875 109.757812 99.773438 100.078125 94.796875 C 104.734375 104.800781 112.546875 114.914062 120.515625 119.546875 Z M 108.128906 117.691406 C 110.117188 119.472656 114.003906 123.082031 116.179688 120.785156 C 110.117188 112.023438 100.8125 104.835938 91.40625 97.890625 C 94.203125 103.578125 102.097656 112.285156 108.128906 117.691406 Z M 108.128906 122.023438 C 105.417969 114.601562 93.707031 110.875 89.546875 102.84375 L 87.6875 102.84375 C 91.855469 111.875 98.480469 118.460938 108.128906 122.023438 Z M 108.128906 122.023438 " fill-opacity="1" fill-rule="evenodd"/></svg>