<svg xmlns="http://www.w3.org/2000/svg" xmlns:xlink="http://www.w3.org/1999/xlink" width="500" zoomAndPan="magnify" viewBox="0 0 375 374.999991" height="500" preserveAspectRatio="xMidYMid meet" version="1.0"><defs><clipPath id="id1"><path d="M 280 35 L 322.527344 35 L 322.527344 286 L 280 286 Z M 280 35 " clip-rule="nonzero"/></clipPath><clipPath id="id2"><path d="M 238 11.441406 L 322.527344 11.441406 L 322.527344 60 L 238 60 Z M 238 11.441406 " clip-rule="nonzero"/></clipPath><clipPath id="id3"><path d="M 238 35 L 322.527344 35 L 322.527344 60 L 238 60 Z M 238 35 " clip-rule="nonzero"/></clipPath></defs><path fill="rgb(39.608765%, 75.689697%, 57.249451%)" d="M 238.457031 35.636719 L 280.34375 59.828125 L 280.34375 285.558594 L 238.457031 261.367188 Z M 238.457031 35.636719 " fill-opacity="1" fill-rule="nonzero"/><path fill="rgb(33.729553%, 74.508667%, 54.899597%)" d="M 238.457031 35.636719 L 280.34375 59.828125 L 280.34375 285.558594 " fill-opacity="1" fill-rule="nonzero"/><g clip-path="url(#id1)"><path fill="rgb(24.308777%, 72.549438%, 53.329468%)" d="M 322.214844 35.636719 L 280.335938 59.828125 L 280.335938 285.558594 L 322.214844 261.367188 Z M 322.214844 35.636719 " fill-opacity="1" fill-rule="nonzero"/><path fill="rgb(4.309082%, 68.629456%, 48.629761%)" d="M 322.214844 35.636719 L 280.335938 59.828125 L 280.335938 285.558594 " fill-opacity="1" fill-rule="nonzero"/></g><g clip-path="url(#id2)"><path fill="rgb(52.549744%, 79.998779%, 64.709473%)" d="M 280.34375 11.441406 L 322.222656 35.636719 L 280.34375 59.828125 L 238.457031 35.636719 Z M 280.34375 11.441406 " fill-opacity="1" fill-rule="nonzero"/></g><g clip-path="url(#id3)"><path fill="rgb(45.098877%, 77.249146%, 59.21936%)" d="M 322.214844 35.636719 L 280.335938 59.828125 L 238.449219 35.636719 " fill-opacity="1" fill-rule="nonzero"/></g><path fill="rgb(98.039246%, 65.879822%, 12.939453%)" d="M 160.53125 136.398438 L 202.421875 160.59375 L 202.421875 330.371094 L 160.53125 306.1875 Z M 160.53125 136.398438 " fill-opacity="1" fill-rule="nonzero"/><path fill="rgb(91.758728%, 61.569214%, 13.328552%)" d="M 160.53125 136.398438 L 202.421875 160.59375 L 202.421875 330.371094 " fill-opacity="1" fill-rule="nonzero"/><path fill="rgb(92.549133%, 41.178894%, 13.729858%)" d="M 244.296875 136.398438 L 202.421875 160.59375 L 202.421875 330.371094 L 244.296875 306.1875 Z M 244.296875 136.398438 " fill-opacity="1" fill-rule="nonzero"/><path fill="rgb(90.979004%, 27.059937%, 14.118958%)" d="M 244.296875 136.398438 L 202.421875 160.59375 L 202.421875 330.371094 " fill-opacity="1" fill-rule="nonzero"/><path fill="rgb(96.078491%, 79.998779%, 15.289307%)" d="M 202.421875 112.207031 L 244.296875 136.398438 L 202.421875 160.59375 L 160.53125 136.398438 Z M 202.421875 112.207031 " fill-opacity="1" fill-rule="nonzero"/><path fill="rgb(90.589905%, 74.508667%, 12.548828%)" d="M 244.296875 136.398438 L 202.421875 160.59375 L 160.53125 136.398438 " fill-opacity="1" fill-rule="nonzero"/><path fill="rgb(65.489197%, 81.568909%, 82.749939%)" d="M 82.605469 237.164062 L 124.492188 261.355469 L 124.492188 375.191406 L 82.605469 351 Z M 82.605469 237.164062 " fill-opacity="1" fill-rule="nonzero"/><path fill="rgb(56.858826%, 73.329163%, 74.899292%)" d="M 82.605469 237.164062 L 124.492188 261.355469 L 124.492188 375.191406 " fill-opacity="1" fill-rule="nonzero"/><path fill="rgb(41.958618%, 52.938843%, 55.688477%)" d="M 166.371094 237.164062 L 124.492188 261.355469 L 124.492188 375.191406 L 166.371094 351 Z M 166.371094 237.164062 " fill-opacity="1" fill-rule="nonzero"/><path fill="rgb(32.548523%, 44.309998%, 46.269226%)" d="M 166.371094 237.164062 L 124.492188 261.355469 L 124.492188 375.191406 " fill-opacity="1" fill-rule="nonzero"/><path fill="rgb(44.709778%, 58.039856%, 59.999084%)" d="M 124.492188 212.96875 L 166.371094 237.164062 L 124.492188 261.355469 L 82.605469 237.164062 Z M 124.492188 212.96875 " fill-opacity="1" fill-rule="nonzero"/><path fill="rgb(36.468506%, 49.798584%, 50.19989%)" d="M 166.371094 237.164062 L 124.492188 261.355469 L 82.605469 237.164062 " fill-opacity="1" fill-rule="nonzero"/><path fill="rgb(40.388489%, 39.99939%, 38.038635%)" d="M 57.664062 220.3125 C 56.722656 220.3125 55.777344 220.003906 54.988281 219.367188 C 53.15625 217.886719 52.871094 215.199219 54.351562 213.371094 L 192.128906 42.863281 C 193.609375 41.03125 196.289062 40.75 198.121094 42.226562 C 199.953125 43.707031 200.234375 46.390625 198.753906 48.222656 L 60.980469 218.730469 C 60.140625 219.773438 58.90625 220.3125 57.664062 220.3125 Z M 57.664062 220.3125 " fill-opacity="1" fill-rule="nonzero"/><path fill="rgb(40.388489%, 39.99939%, 38.038635%)" d="M 196.789062 71 L 196.699219 71 C 194.347656 70.949219 192.476562 69 192.527344 66.648438 L 192.910156 48.265625 L 177.105469 48.265625 C 174.75 48.265625 172.84375 46.355469 172.84375 44.003906 C 172.84375 41.648438 174.75 39.738281 177.105469 39.738281 L 201.609375 39.738281 L 201.046875 66.824219 C 201 69.148438 199.101562 71 196.789062 71 Z M 196.789062 71 " fill-opacity="1" fill-rule="nonzero"/></svg>