<?xml version="1.0" encoding="utf-8"?>
<!-- Generator: Adobe Illustrator 25.2.3, SVG Export Plug-In . SVG Version: 6.00 Build 0)  -->
<svg version="1.1" id="Layer_1" xmlns="http://www.w3.org/2000/svg" xmlns:xlink="http://www.w3.org/1999/xlink" x="0px" y="0px"
	 viewBox="0 0 721.5 637.3" style="enable-background:new 0 0 721.5 637.3;" xml:space="preserve">
<style type="text/css">
	.st0{fill:#38B6FF;}
	.st1{fill:#004AAD;}
	.st2{fill:#FFFFFF;}
	.st3{fill:#8C52FF;}
	.st4{fill:none;stroke:#FFBD59;}
	.st5{fill:#FFBD59;stroke:#FFBD59;stroke-linecap:round;stroke-linejoin:round;}
</style>
<path class="st0" d="M192.1,68.4h-39.1c-1.2,0-2.2-1-2.2-2.2V27c0-1.2,1-2.2,2.2-2.2h39.1c1.2,0,2.2,1,2.2,2.2v39.1
	C194.3,67.4,193.3,68.4,192.1,68.4"/>
<path class="st1" d="M192.1,25.5c0.8,0,1.5,0.7,1.5,1.5v39.1c0,0.8-0.7,1.5-1.5,1.5h-39.1c-0.8,0-1.5-0.7-1.5-1.5V27
	c0-0.8,0.7-1.5,1.5-1.5H192.1 M192.1,24.1h-39.1c-1.6,0-2.9,1.3-2.9,2.9v39.1c0,1.6,1.3,2.9,2.9,2.9h39.1c1.6,0,2.9-1.3,2.9-2.9V27
	C195,25.4,193.7,24.1,192.1,24.1"/>
<path class="st0" d="M124.4,246.5H85.3c-1.2,0-2.2-1-2.2-2.2v-39.1c0-1.2,1-2.2,2.2-2.2h39.1c1.2,0,2.2,1,2.2,2.2v39.1
	C126.6,245.5,125.6,246.5,124.4,246.5"/>
<path class="st1" d="M124.4,203.7c0.8,0,1.5,0.7,1.5,1.5v39.1c0,0.8-0.7,1.5-1.5,1.5H85.3c-0.8,0-1.5-0.7-1.5-1.5v-39.1
	c0-0.8,0.7-1.5,1.5-1.5H124.4 M124.4,202.3H85.3c-1.6,0-2.9,1.3-2.9,2.9v39.1c0,1.6,1.3,2.9,2.9,2.9h39.1c1.6,0,2.9-1.3,2.9-2.9
	v-39.1C127.4,203.6,126,202.3,124.4,202.3"/>
<path class="st0" d="M81.6,425.9H42.4c-1.2,0-2.2-1-2.2-2.2v-39.1c0-1.2,1-2.2,2.2-2.2h39.1c1.2,0,2.2,1,2.2,2.2v39.1
	C83.7,424.9,82.8,425.9,81.6,425.9"/>
<path class="st1" d="M81.6,383.1c0.8,0,1.5,0.7,1.5,1.5v39.1c0,0.8-0.7,1.5-1.5,1.5H42.4c-0.8,0-1.5-0.7-1.5-1.5v-39.1
	c0-0.8,0.7-1.5,1.5-1.5H81.6 M81.6,381.7H42.4c-1.6,0-2.9,1.3-2.9,2.9v39.1c0,1.6,1.3,2.9,2.9,2.9h39.1c1.6,0,2.9-1.3,2.9-2.9v-39.1
	C84.5,383,83.2,381.7,81.6,381.7"/>
<path class="st0" d="M42.1,617.5H2.9c-1.2,0-2.2-1-2.2-2.2v-39.1c0-1.2,1-2.2,2.2-2.2H42c1.2,0,2.2,1,2.2,2.2v39.1
	C44.2,616.5,43.3,617.5,42.1,617.5"/>
<path class="st1" d="M42.1,574.6c0.8,0,1.5,0.7,1.5,1.5v39.1c0,0.8-0.7,1.5-1.5,1.5H2.9c-0.8,0-1.5-0.7-1.5-1.5v-39.1
	c0-0.8,0.7-1.5,1.5-1.5H42.1 M42.1,573.2H2.9c-1.6,0-2.9,1.3-2.9,2.9v39.1c0,1.6,1.3,2.9,2.9,2.9h39.1c1.6,0,2.9-1.3,2.9-2.9v-39.1
	C45,574.6,43.7,573.2,42.1,573.2"/>
<path class="st0" d="M244,68.4h-39.1c-1.2,0-2.2-1-2.2-2.2V27c0-1.2,1-2.2,2.2-2.2H244c1.2,0,2.2,1,2.2,2.2v39.1
	C246.2,67.4,245.2,68.4,244,68.4"/>
<path class="st1" d="M244,25.5c0.8,0,1.5,0.7,1.5,1.5v39.1c0,0.8-0.7,1.5-1.5,1.5h-39.1c-0.8,0-1.5-0.7-1.5-1.5V27
	c0-0.8,0.7-1.5,1.5-1.5H244 M244,24.1h-39.1c-1.6,0-2.9,1.3-2.9,2.9v39.1c0,1.6,1.3,2.9,2.9,2.9H244c1.6,0,2.9-1.3,2.9-2.9V27
	C247,25.4,245.7,24.1,244,24.1"/>
<path class="st0" d="M176.4,246.5h-39.1c-1.2,0-2.2-1-2.2-2.2v-39.1c0-1.2,1-2.2,2.2-2.2h39.1c1.2,0,2.2,1,2.2,2.2v39.1
	C178.6,245.5,177.6,246.5,176.4,246.5"/>
<path class="st1" d="M176.4,203.7c0.8,0,1.5,0.7,1.5,1.5v39.1c0,0.8-0.7,1.5-1.5,1.5h-39.1c-0.8,0-1.5-0.7-1.5-1.5v-39.1
	c0-0.8,0.7-1.5,1.5-1.5H176.4 M176.4,202.3h-39.1c-1.6,0-2.9,1.3-2.9,2.9v39.1c0,1.6,1.3,2.9,2.9,2.9h39.1c1.6,0,2.9-1.3,2.9-2.9
	v-39.1C179.3,203.6,178,202.3,176.4,202.3"/>
<path class="st0" d="M133.5,425.9H94.4c-1.2,0-2.2-1-2.2-2.2v-39.1c0-1.2,1-2.2,2.2-2.2h39.1c1.2,0,2.2,1,2.2,2.2v39.1
	C135.7,424.9,134.7,425.9,133.5,425.9"/>
<path class="st1" d="M133.5,383.1c0.8,0,1.5,0.7,1.5,1.5v39.1c0,0.8-0.7,1.5-1.5,1.5H94.4c-0.8,0-1.5-0.7-1.5-1.5v-39.1
	c0-0.8,0.7-1.5,1.5-1.5H133.5 M133.5,381.7H94.4c-1.6,0-2.9,1.3-2.9,2.9v39.1c0,1.6,1.3,2.9,2.9,2.9h39.1c1.6,0,2.9-1.3,2.9-2.9
	v-39.1C136.4,383,135.1,381.7,133.5,381.7"/>
<path class="st0" d="M171.6,617.5h-39.1c-1.2,0-2.2-1-2.2-2.2v-39.1c0-1.2,1-2.2,2.2-2.2h39.1c1.2,0,2.2,1,2.2,2.2v39.1
	C173.8,616.5,172.8,617.5,171.6,617.5"/>
<path class="st1" d="M171.6,574.6c0.8,0,1.5,0.7,1.5,1.5v39.1c0,0.8-0.7,1.5-1.5,1.5h-39.1c-0.8,0-1.5-0.7-1.5-1.5v-39.1
	c0-0.8,0.7-1.5,1.5-1.5H171.6 M171.6,573.2h-39.1c-1.6,0-2.9,1.3-2.9,2.9v39.1c0,1.6,1.3,2.9,2.9,2.9h39.1c1.6,0,2.9-1.3,2.9-2.9
	v-39.1C174.5,574.6,173.2,573.2,171.6,573.2"/>
<path class="st0" d="M349,68.4h-39.1c-1.2,0-2.2-1-2.2-2.2V27c0-1.2,1-2.2,2.2-2.2H349c1.2,0,2.2,1,2.2,2.2v39.1
	C351.2,67.4,350.2,68.4,349,68.4"/>
<path class="st1" d="M349,25.5c0.8,0,1.5,0.7,1.5,1.5v39.1c0,0.8-0.7,1.5-1.5,1.5h-39.1c-0.8,0-1.5-0.7-1.5-1.5V27
	c0-0.8,0.7-1.5,1.5-1.5H349 M349,24.1h-39.1c-1.6,0-2.9,1.3-2.9,2.9v39.1c0,1.6,1.3,2.9,2.9,2.9H349c1.6,0,2.9-1.3,2.9-2.9V27
	C351.9,25.4,350.6,24.1,349,24.1"/>
<path class="st0" d="M281.3,246.5h-39.1c-1.2,0-2.2-1-2.2-2.2v-39.1c0-1.2,1-2.2,2.2-2.2h39.1c1.2,0,2.2,1,2.2,2.2v39.1
	C283.5,245.5,282.5,246.5,281.3,246.5"/>
<path class="st1" d="M281.3,203.7c0.8,0,1.5,0.7,1.5,1.5v39.1c0,0.8-0.7,1.5-1.5,1.5h-39.1c-0.8,0-1.5-0.7-1.5-1.5v-39.1
	c0-0.8,0.7-1.5,1.5-1.5H281.3 M281.3,202.3h-39.1c-1.6,0-2.9,1.3-2.9,2.9v39.1c0,1.6,1.3,2.9,2.9,2.9h39.1c1.6,0,2.9-1.3,2.9-2.9
	v-39.1C284.2,203.6,282.9,202.3,281.3,202.3"/>
<path class="st0" d="M313.9,424.3h-39.1c-1.2,0-2.2-1-2.2-2.2V383c0-1.2,1-2.2,2.2-2.2h39.1c1.2,0,2.2,1,2.2,2.2v39.1
	C316.1,423.3,315.1,424.3,313.9,424.3"/>
<path class="st1" d="M313.9,381.4c0.8,0,1.5,0.7,1.5,1.5v39.1c0,0.8-0.7,1.5-1.5,1.5h-39.1c-0.8,0-1.5-0.7-1.5-1.5V383
	c0-0.8,0.7-1.5,1.5-1.5H313.9 M313.9,380h-39.1c-1.6,0-2.9,1.3-2.9,2.9v39.1c0,1.6,1.3,2.9,2.9,2.9h39.1c1.6,0,2.9-1.3,2.9-2.9V383
	C316.8,381.4,315.5,380,313.9,380"/>
<path class="st0" d="M349,617.5h-39.1c-1.2,0-2.2-1-2.2-2.2v-39.1c0-1.2,1-2.2,2.2-2.2H349c1.2,0,2.2,1,2.2,2.2v39.1
	C351.2,616.5,350.2,617.5,349,617.5"/>
<path class="st1" d="M349,574.6c0.8,0,1.5,0.7,1.5,1.5v39.1c0,0.8-0.7,1.5-1.5,1.5h-39.1c-0.8,0-1.5-0.7-1.5-1.5v-39.1
	c0-0.8,0.7-1.5,1.5-1.5H349 M349,573.2h-39.1c-1.6,0-2.9,1.3-2.9,2.9v39.1c0,1.6,1.3,2.9,2.9,2.9H349c1.6,0,2.9-1.3,2.9-2.9v-39.1
	C351.9,574.6,350.6,573.2,349,573.2"/>
<path class="st0" d="M508.8,68.4h-39.1c-1.2,0-2.2-1-2.2-2.2V27c0-1.2,1-2.2,2.2-2.2h39.1c1.2,0,2.2,1,2.2,2.2v39.1
	C511,67.4,510,68.4,508.8,68.4"/>
<path class="st1" d="M508.8,25.5c0.8,0,1.5,0.7,1.5,1.5v39.1c0,0.8-0.7,1.5-1.5,1.5h-39.1c-0.8,0-1.5-0.7-1.5-1.5V27
	c0-0.8,0.7-1.5,1.5-1.5H508.8 M508.8,24.1h-39.1c-1.6,0-2.9,1.3-2.9,2.9v39.1c0,1.6,1.3,2.9,2.9,2.9h39.1c1.6,0,2.9-1.3,2.9-2.9V27
	C511.7,25.4,510.4,24.1,508.8,24.1"/>
<path class="st0" d="M575.7,249.2h-39.1c-1.2,0-2.2-1-2.2-2.2v-39.1c0-1.2,1-2.2,2.2-2.2h39.1c1.2,0,2.2,1,2.2,2.2V247
	C577.9,248.2,576.9,249.2,575.7,249.2"/>
<path class="st1" d="M575.7,206.3c0.8,0,1.5,0.7,1.5,1.5V247c0,0.8-0.7,1.5-1.5,1.5h-39.1c-0.8,0-1.5-0.7-1.5-1.5v-39.1
	c0-0.8,0.7-1.5,1.5-1.5H575.7 M575.7,204.9h-39.1c-1.6,0-2.9,1.3-2.9,2.9V247c0,1.6,1.3,2.9,2.9,2.9h39.1c1.6,0,2.9-1.3,2.9-2.9
	v-39.1C578.6,206.2,577.3,204.9,575.7,204.9"/>
<path class="st0" d="M619.3,423.7h-39.1c-1.2,0-2.2-1-2.2-2.2v-39.1c0-1.2,1-2.2,2.2-2.2h39.1c1.2,0,2.2,1,2.2,2.2v39.1
	C621.5,422.7,620.5,423.7,619.3,423.7"/>
<path class="st1" d="M619.3,380.8c0.8,0,1.5,0.7,1.5,1.5v39.1c0,0.8-0.7,1.5-1.5,1.5h-39.1c-0.8,0-1.5-0.7-1.5-1.5v-39.1
	c0-0.8,0.7-1.5,1.5-1.5H619.3 M619.3,379.4h-39.1c-1.6,0-2.9,1.3-2.9,2.9v39.1c0,1.6,1.3,2.9,2.9,2.9h39.1c1.6,0,2.9-1.3,2.9-2.9
	v-39.1C622.2,380.8,620.9,379.4,619.3,379.4"/>
<path class="st0" d="M588.4,617.5h-39.1c-1.2,0-2.2-1-2.2-2.2v-39.1c0-1.2,1-2.2,2.2-2.2h39.1c1.2,0,2.2,1,2.2,2.2v39.1
	C590.6,616.5,589.6,617.5,588.4,617.5"/>
<path class="st1" d="M588.4,574.6c0.8,0,1.5,0.7,1.5,1.5v39.1c0,0.8-0.7,1.5-1.5,1.5h-39.1c-0.8,0-1.5-0.7-1.5-1.5v-39.1
	c0-0.8,0.7-1.5,1.5-1.5H588.4 M588.4,573.2h-39.1c-1.6,0-2.9,1.3-2.9,2.9v39.1c0,1.6,1.3,2.9,2.9,2.9h39.1c1.6,0,2.9-1.3,2.9-2.9
	v-39.1C591.3,574.6,590,573.2,588.4,573.2"/>
<path class="st0" d="M296.5,68.4h-39.1c-1.2,0-2.2-1-2.2-2.2V27c0-1.2,1-2.2,2.2-2.2h39.1c1.2,0,2.2,1,2.2,2.2v39.1
	C298.7,67.4,297.7,68.4,296.5,68.4"/>
<path class="st1" d="M296.5,25.5c0.8,0,1.5,0.7,1.5,1.5v39.1c0,0.8-0.7,1.5-1.5,1.5h-39.1c-0.8,0-1.5-0.7-1.5-1.5V27
	c0-0.8,0.7-1.5,1.5-1.5H296.5 M296.5,24.1h-39.1c-1.6,0-2.9,1.3-2.9,2.9v39.1c0,1.6,1.3,2.9,2.9,2.9h39.1c1.6,0,2.9-1.3,2.9-2.9V27
	C299.4,25.4,298.1,24.1,296.5,24.1"/>
<path class="st0" d="M228.8,246.5h-39.1c-1.2,0-2.2-1-2.2-2.2v-39.1c0-1.2,1-2.2,2.2-2.2h39.1c1.2,0,2.2,1,2.2,2.2v39.1
	C231,245.5,230,246.5,228.8,246.5"/>
<path class="st1" d="M228.8,203.7c0.8,0,1.5,0.7,1.5,1.5v39.1c0,0.8-0.7,1.5-1.5,1.5h-39.1c-0.8,0-1.5-0.7-1.5-1.5v-39.1
	c0-0.8,0.7-1.5,1.5-1.5H228.8 M228.8,202.3h-39.1c-1.6,0-2.9,1.3-2.9,2.9v39.1c0,1.6,1.3,2.9,2.9,2.9h39.1c1.6,0,2.9-1.3,2.9-2.9
	v-39.1C231.8,203.6,230.5,202.3,228.8,202.3"/>
<path class="st0" d="M261.4,424.3h-39.1c-1.2,0-2.2-1-2.2-2.2V383c0-1.2,1-2.2,2.2-2.2h39.1c1.2,0,2.2,1,2.2,2.2v39.1
	C263.6,423.3,262.6,424.3,261.4,424.3"/>
<path class="st1" d="M261.4,381.4c0.8,0,1.5,0.7,1.5,1.5v39.1c0,0.8-0.7,1.5-1.5,1.5h-39.1c-0.8,0-1.5-0.7-1.5-1.5V383
	c0-0.8,0.7-1.5,1.5-1.5H261.4 M261.4,380h-39.1c-1.6,0-2.9,1.3-2.9,2.9v39.1c0,1.6,1.3,2.9,2.9,2.9h39.1c1.6,0,2.9-1.3,2.9-2.9V383
	C264.3,381.4,263,380,261.4,380"/>
<path class="st0" d="M226.4,617.5h-39.1c-1.2,0-2.2-1-2.2-2.2v-39.1c0-1.2,1-2.2,2.2-2.2h39.1c1.2,0,2.2,1,2.2,2.2v39.1
	C228.6,616.5,227.6,617.5,226.4,617.5"/>
<path class="st1" d="M226.4,574.6c0.8,0,1.5,0.7,1.5,1.5v39.1c0,0.8-0.7,1.5-1.5,1.5h-39.1c-0.8,0-1.5-0.7-1.5-1.5v-39.1
	c0-0.8,0.7-1.5,1.5-1.5H226.4 M226.4,573.2h-39.1c-1.6,0-2.9,1.3-2.9,2.9v39.1c0,1.6,1.3,2.9,2.9,2.9h39.1c1.6,0,2.9-1.3,2.9-2.9
	v-39.1C229.4,574.6,228.1,573.2,226.4,573.2"/>
<path class="st0" d="M456.3,68.4h-39.1c-1.2,0-2.2-1-2.2-2.2V27c0-1.2,1-2.2,2.2-2.2h39.1c1.2,0,2.2,1,2.2,2.2v39.1
	C458.5,67.4,457.5,68.4,456.3,68.4"/>
<path class="st1" d="M456.3,25.5c0.8,0,1.5,0.7,1.5,1.5v39.1c0,0.8-0.7,1.5-1.5,1.5h-39.1c-0.8,0-1.5-0.7-1.5-1.5V27
	c0-0.8,0.7-1.5,1.5-1.5H456.3 M456.3,24.1h-39.1c-1.6,0-2.9,1.3-2.9,2.9v39.1c0,1.6,1.3,2.9,2.9,2.9h39.1c1.6,0,2.9-1.3,2.9-2.9V27
	C459.2,25.4,457.9,24.1,456.3,24.1"/>
<path class="st0" d="M523.2,249.2h-39.1c-1.2,0-2.2-1-2.2-2.2v-39.1c0-1.2,1-2.2,2.2-2.2h39.1c1.2,0,2.2,1,2.2,2.2V247
	C525.4,248.2,524.4,249.2,523.2,249.2"/>
<path class="st1" d="M523.2,206.3c0.8,0,1.5,0.7,1.5,1.5V247c0,0.8-0.7,1.5-1.5,1.5h-39.1c-0.8,0-1.5-0.7-1.5-1.5v-39.1
	c0-0.8,0.7-1.5,1.5-1.5H523.2 M523.2,204.9h-39.1c-1.6,0-2.9,1.3-2.9,2.9V247c0,1.6,1.3,2.9,2.9,2.9h39.1c1.6,0,2.9-1.3,2.9-2.9
	v-39.1C526.1,206.2,524.8,204.9,523.2,204.9"/>
<path class="st0" d="M489.9,427.6h-39.1c-1.2,0-2.2-1-2.2-2.2v-39.1c0-1.2,1-2.2,2.2-2.2h39.1c1.2,0,2.2,1,2.2,2.2v39.1
	C492.1,426.6,491.1,427.6,489.9,427.6"/>
<path class="st1" d="M489.9,384.7c0.8,0,1.5,0.7,1.5,1.5v39.1c0,0.8-0.7,1.5-1.5,1.5h-39.1c-0.8,0-1.5-0.7-1.5-1.5v-39.1
	c0-0.8,0.7-1.5,1.5-1.5H489.9 M489.9,383.3h-39.1c-1.6,0-2.9,1.3-2.9,2.9v39.1c0,1.6,1.3,2.9,2.9,2.9h39.1c1.6,0,2.9-1.3,2.9-2.9
	v-39.1C492.8,384.6,491.5,383.3,489.9,383.3"/>
<path class="st0" d="M535.5,617.5h-39.1c-1.2,0-2.2-1-2.2-2.2v-39.1c0-1.2,1-2.2,2.2-2.2h39.1c1.2,0,2.2,1,2.2,2.2v39.1
	C537.7,616.5,536.7,617.5,535.5,617.5"/>
<path class="st1" d="M535.5,574.6c0.8,0,1.5,0.7,1.5,1.5v39.1c0,0.8-0.7,1.5-1.5,1.5h-39.1c-0.8,0-1.5-0.7-1.5-1.5v-39.1
	c0-0.8,0.7-1.5,1.5-1.5H535.5 M535.5,573.2h-39.1c-1.6,0-2.9,1.3-2.9,2.9v39.1c0,1.6,1.3,2.9,2.9,2.9h39.1c1.6,0,2.9-1.3,2.9-2.9
	v-39.1C538.4,574.6,537.1,573.2,535.5,573.2"/>
<path class="st0" d="M401.5,68.4h-39.1c-1.2,0-2.2-1-2.2-2.2V27c0-1.2,1-2.2,2.2-2.2h39.1c1.2,0,2.2,1,2.2,2.2v39.1
	C403.6,67.4,402.7,68.4,401.5,68.4"/>
<path class="st1" d="M401.5,25.5c0.8,0,1.5,0.7,1.5,1.5v39.1c0,0.8-0.7,1.5-1.5,1.5h-39.1c-0.8,0-1.5-0.7-1.5-1.5V27
	c0-0.8,0.7-1.5,1.5-1.5H401.5 M401.5,24.1h-39.1c-1.6,0-2.9,1.3-2.9,2.9v39.1c0,1.6,1.3,2.9,2.9,2.9h39.1c1.6,0,2.9-1.3,2.9-2.9V27
	C404.4,25.4,403.1,24.1,401.5,24.1"/>
<path class="st0" d="M468.4,249.2h-39.1c-1.2,0-2.2-1-2.2-2.2v-39.1c0-1.2,1-2.2,2.2-2.2h39.1c1.2,0,2.2,1,2.2,2.2V247
	C470.5,248.2,469.6,249.2,468.4,249.2"/>
<path class="st1" d="M468.4,206.3c0.8,0,1.5,0.7,1.5,1.5V247c0,0.8-0.7,1.5-1.5,1.5h-39.1c-0.8,0-1.5-0.7-1.5-1.5v-39.1
	c0-0.8,0.7-1.5,1.5-1.5H468.4 M468.4,204.9h-39.1c-1.6,0-2.9,1.3-2.9,2.9V247c0,1.6,1.3,2.9,2.9,2.9h39.1c1.6,0,2.9-1.3,2.9-2.9
	v-39.1C471.3,206.2,470,204.9,468.4,204.9"/>
<path class="st0" d="M435.1,427.6h-39.1c-1.2,0-2.2-1-2.2-2.2v-39.1c0-1.2,1-2.2,2.2-2.2H435c1.2,0,2.2,1,2.2,2.2v39.1
	C437.2,426.6,436.2,427.6,435.1,427.6"/>
<path class="st1" d="M435.1,384.7c0.8,0,1.5,0.7,1.5,1.5v39.1c0,0.8-0.7,1.5-1.5,1.5h-39.1c-0.8,0-1.5-0.7-1.5-1.5v-39.1
	c0-0.8,0.7-1.5,1.5-1.5H435.1 M435.1,383.3h-39.1c-1.6,0-2.9,1.3-2.9,2.9v39.1c0,1.6,1.3,2.9,2.9,2.9h39.1c1.6,0,2.9-1.3,2.9-2.9
	v-39.1C438,384.6,436.7,383.3,435.1,383.3"/>
<path class="st0" d="M407.9,617.5h-39.1c-1.2,0-2.2-1-2.2-2.2v-39.1c0-1.2,1-2.2,2.2-2.2h39.1c1.2,0,2.2,1,2.2,2.2v39.1
	C410.1,616.5,409.1,617.5,407.9,617.5"/>
<path class="st1" d="M407.9,574.6c0.8,0,1.5,0.7,1.5,1.5v39.1c0,0.8-0.7,1.5-1.5,1.5h-39.1c-0.8,0-1.5-0.7-1.5-1.5v-39.1
	c0-0.8,0.7-1.5,1.5-1.5H407.9 M407.9,573.2h-39.1c-1.6,0-2.9,1.3-2.9,2.9v39.1c0,1.6,1.3,2.9,2.9,2.9h39.1c1.6,0,2.9-1.3,2.9-2.9
	v-39.1C410.8,574.6,409.5,573.2,407.9,573.2"/>
<path class="st0" d="M561.2,68.4h-39.1c-1.2,0-2.2-1-2.2-2.2V27c0-1.2,1-2.2,2.2-2.2h39.1c1.2,0,2.2,1,2.2,2.2v39.1
	C563.4,67.4,562.4,68.4,561.2,68.4"/>
<path class="st1" d="M561.2,25.5c0.8,0,1.5,0.7,1.5,1.5v39.1c0,0.8-0.7,1.5-1.5,1.5h-39.1c-0.8,0-1.5-0.7-1.5-1.5V27
	c0-0.8,0.7-1.5,1.5-1.5H561.2 M561.2,24.1h-39.1c-1.6,0-2.9,1.3-2.9,2.9v39.1c0,1.6,1.3,2.9,2.9,2.9h39.1c1.6,0,2.9-1.3,2.9-2.9V27
	C564.2,25.4,562.9,24.1,561.2,24.1"/>
<path class="st0" d="M628.2,249.2H589c-1.2,0-2.2-1-2.2-2.2v-39.1c0-1.2,1-2.2,2.2-2.2h39.1c1.2,0,2.2,1,2.2,2.2V247
	C630.3,248.2,629.3,249.2,628.2,249.2"/>
<path class="st1" d="M628.2,206.3c0.8,0,1.5,0.7,1.5,1.5V247c0,0.8-0.7,1.5-1.5,1.5H589c-0.8,0-1.5-0.7-1.5-1.5v-39.1
	c0-0.8,0.7-1.5,1.5-1.5H628.2 M628.2,204.9H589c-1.6,0-2.9,1.3-2.9,2.9V247c0,1.6,1.3,2.9,2.9,2.9h39.1c1.6,0,2.9-1.3,2.9-2.9v-39.1
	C631.1,206.2,629.8,204.9,628.2,204.9"/>
<path class="st0" d="M671.8,423.7h-39.1c-1.2,0-2.2-1-2.2-2.2v-39.1c0-1.2,1-2.2,2.2-2.2h39.1c1.2,0,2.2,1,2.2,2.2v39.1
	C674,422.7,673,423.7,671.8,423.7"/>
<path class="st1" d="M671.8,380.8c0.8,0,1.5,0.7,1.5,1.5v39.1c0,0.8-0.7,1.5-1.5,1.5h-39.1c-0.8,0-1.5-0.7-1.5-1.5v-39.1
	c0-0.8,0.7-1.5,1.5-1.5H671.8 M671.8,379.4h-39.1c-1.6,0-2.9,1.3-2.9,2.9v39.1c0,1.6,1.3,2.9,2.9,2.9h39.1c1.6,0,2.9-1.3,2.9-2.9
	v-39.1C674.7,380.8,673.4,379.4,671.8,379.4"/>
<path class="st0" d="M718.5,617.5h-39.1c-1.2,0-2.2-1-2.2-2.2v-39.1c0-1.2,1-2.2,2.2-2.2h39.1c1.2,0,2.2,1,2.2,2.2v39.1
	C720.7,616.5,719.7,617.5,718.5,617.5"/>
<path class="st1" d="M718.5,574.6c0.8,0,1.5,0.7,1.5,1.5v39.1c0,0.8-0.7,1.5-1.5,1.5h-39.1c-0.8,0-1.5-0.7-1.5-1.5v-39.1
	c0-0.8,0.7-1.5,1.5-1.5H718.5 M718.5,573.2h-39.1c-1.6,0-2.9,1.3-2.9,2.9v39.1c0,1.6,1.3,2.9,2.9,2.9h39.1c1.6,0,2.9-1.3,2.9-2.9
	v-39.1C721.5,574.6,720.2,573.2,718.5,573.2"/>
<g>
	<g transform="translate(146.350177, 111.924927)">
		<g>
			<path class="st2" d="M22.3-54.1h-5.7v-11.1c0-1.3,0-2.6,0.1-3.7c-0.3,0.4-0.8,0.9-1.3,1.3l-2.4,2l-2.9-3.6l7.2-5.8h5.1V-54.1z"/>
		</g>
	</g>
</g>
<g>
	<g transform="translate(159.202097, 111.924927)">
		<g>
			<path class="st2" d="M29.9-58.2h-2.3v4H22v-4h-8.3v-4.1L22.4-75h5.2v12.6h2.3V-58.2z M22-62.4v-2.4c0-0.5,0-1.1,0-1.8
				c0-0.8,0.1-1.2,0.1-1.2H22c-0.3,0.7-0.7,1.4-1.1,2.1l-2.3,3.4H22z"/>
		</g>
	</g>
</g>
<g>
	<g transform="translate(95.598523, 245.537658)">
		<g>
			<path class="st2" d="M5.4-9.6h-5.7v-11.1c0-1.3,0-2.6,0.1-3.7C-0.6-23.9-1-23.4-1.5-23l-2.4,2l-2.9-3.6l7.2-5.8h5.1V-9.6z"/>
		</g>
	</g>
</g>
<g>
	<g transform="translate(108.450443, 245.537658)">
		<g>
			<path class="st2" d="M12.9-13.6h-2.3v4H5.1v-4h-8.3v-4.1l8.7-12.7h5.2v12.6h2.3V-13.6z M5.1-17.8v-2.4c0-0.5,0-1.1,0-1.8
				c0-0.8,0.1-1.2,0.1-1.2H5c-0.3,0.7-0.7,1.4-1.1,2.1l-2.3,3.4H5.1z"/>
		</g>
	</g>
</g>
<g>
	<g transform="translate(63.447, 380.102968)">
		<g>
			<path class="st2" d="M-5.3,35.3H-11V24.2c0-1.3,0-2.6,0.1-3.7c-0.3,0.4-0.8,0.9-1.3,1.3l-2.4,2l-2.9-3.6l7.2-5.8h5.1V35.3z"/>
		</g>
	</g>
</g>
<g>
	<g transform="translate(76.29892, 380.102968)">
		<g>
			<path class="st2" d="M2.2,31.2h-2.3v4h-5.6v-4H-14v-4.1l8.7-12.7h5.2V27h2.3V31.2z M-5.6,27v-2.4c0-0.5,0-1.1,0-1.8
				c0-0.8,0.1-1.2,0.1-1.2h-0.2C-6,22.3-6.4,23-6.8,23.6L-9.1,27H-5.6z"/>
		</g>
	</g>
</g>
<g>
	<g transform="translate(33.832235, 523.774635)">
		<g>
			<path class="st2" d="M-15.2,83.2h-5.7V72.1c0-1.3,0-2.6,0.1-3.7c-0.3,0.4-0.8,0.9-1.3,1.3l-2.4,2l-2.9-3.6l7.2-5.8h5.1V83.2z"/>
		</g>
	</g>
</g>
<g>
	<g transform="translate(46.684155, 523.774635)">
		<g>
			<path class="st2" d="M-7.7,79.1h-2.3v4h-5.6v-4h-8.3V75l8.7-12.7h5.2v12.6h2.3V79.1z M-15.5,74.9v-2.4c0-0.5,0-1.1,0-1.8
				c0-0.8,0.1-1.2,0.1-1.2h-0.2c-0.3,0.7-0.7,1.4-1.1,2.1l-2.3,3.4H-15.5z"/>
		</g>
	</g>
</g>
<g>
	<g transform="translate(191.738823, 111.924927)">
		<g>
			<path class="st2" d="M27-54.1l7.2-16.2h-9V-75h15.1v3.3l-7.4,17.5H27z"/>
		</g>
	</g>
</g>
<g>
	<g transform="translate(140.98718, 245.537658)">
		<g>
			<path class="st2" d="M10.1-9.6l7.2-16.2h-9v-4.7h15.1v3.3L15.9-9.6H10.1z"/>
		</g>
	</g>
</g>
<g>
	<g transform="translate(108.83564, 380.102968)">
		<g>
			<path class="st2" d="M-0.6,35.3l7.2-16.2h-9v-4.7h15.1v3.3L5.2,35.3H-0.6z"/>
		</g>
	</g>
</g>
<g>
	<g transform="translate(137.403437, 523.774635)">
		<g>
			<path class="st2" d="M8.9,83.2L16,67H7v-4.7h15.1v3.3l-7.4,17.5H8.9z"/>
		</g>
	</g>
</g>
<g>
	<g transform="translate(264.022661, 111.924927)">
		<g>
			<path class="st2" d="M61.6-54.1h-5.7v-11.1c0-1.3,0-2.6,0.1-3.7c-0.3,0.4-0.8,0.9-1.3,1.3l-2.4,2l-2.9-3.6l7.2-5.8h5.1V-54.1z"/>
		</g>
	</g>
</g>
<g>
	<g transform="translate(276.874581, 111.924927)">
		<g>
			<path class="st2" d="M68.4-54.1H53.3v-3.7l5.1-5.2c1.4-1.5,2.4-2.5,2.8-3.1c0.5-0.6,0.8-1,0.9-1.4c0.2-0.4,0.3-0.8,0.3-1.3
				c0-0.5-0.2-1-0.5-1.3c-0.3-0.3-0.8-0.5-1.5-0.5c-0.7,0-1.3,0.2-2,0.6c-0.7,0.4-1.4,0.9-2.3,1.7L53-71.9c1.1-1,2-1.6,2.7-2.1
				c0.7-0.4,1.5-0.7,2.4-1c0.9-0.2,1.8-0.3,2.9-0.3c1.4,0,2.6,0.2,3.6,0.7c1.1,0.5,1.9,1.2,2.5,2c0.6,0.9,0.9,1.9,0.9,3
				c0,0.8-0.1,1.6-0.3,2.3c-0.2,0.7-0.5,1.4-0.9,2c-0.4,0.7-1,1.4-1.7,2.1c-0.7,0.7-2.2,2.1-4.5,4.2v0.1h7.9V-54.1z"/>
		</g>
	</g>
</g>
<g>
	<g transform="translate(213.271, 245.537658)">
		<g>
			<path class="st2" d="M44.6-9.6h-5.7v-11.1c0-1.3,0-2.6,0.1-3.7c-0.3,0.4-0.8,0.9-1.3,1.3l-2.4,2l-2.9-3.6l7.2-5.8h5.1V-9.6z"/>
		</g>
	</g>
</g>
<g>
	<g transform="translate(226.12292, 245.537658)">
		<g>
			<path class="st2" d="M51.5-9.6H36.3v-3.7l5.1-5.2c1.4-1.5,2.4-2.5,2.8-3.1c0.5-0.6,0.8-1,0.9-1.4c0.2-0.4,0.3-0.8,0.3-1.3
				c0-0.5-0.2-1-0.5-1.3c-0.3-0.3-0.8-0.5-1.5-0.5c-0.7,0-1.3,0.2-2,0.6c-0.7,0.4-1.4,0.9-2.3,1.7l-3.1-3.6c1.1-1,2-1.6,2.7-2.1
				c0.7-0.4,1.5-0.7,2.4-1c0.9-0.2,1.8-0.3,2.9-0.3c1.4,0,2.6,0.2,3.6,0.7c1.1,0.5,1.9,1.2,2.5,2c0.6,0.9,0.9,1.9,0.9,3
				c0,0.8-0.1,1.6-0.3,2.3c-0.2,0.7-0.5,1.4-0.9,2c-0.4,0.7-1,1.4-1.7,2.1c-0.7,0.7-2.2,2.1-4.5,4.2v0.1h7.9V-9.6z"/>
		</g>
	</g>
</g>
<g>
	<g transform="translate(237.68922, 378.878276)">
		<g>
			<path class="st2" d="M52.8,34.9h-5.7V23.8c0-1.3,0-2.6,0.1-3.7c-0.3,0.4-0.8,0.9-1.3,1.3l-2.4,2l-2.9-3.6l7.2-5.8h5.1V34.9z"/>
		</g>
	</g>
</g>
<g>
	<g transform="translate(250.54114, 378.878276)">
		<g>
			<path class="st2" d="M59.6,34.9H44.5v-3.7l5.1-5.2c1.4-1.5,2.4-2.5,2.8-3.1c0.5-0.6,0.8-1,0.9-1.4c0.2-0.4,0.3-0.8,0.3-1.3
				c0-0.5-0.2-1-0.5-1.3c-0.3-0.3-0.8-0.5-1.5-0.5c-0.7,0-1.3,0.2-2,0.6c-0.7,0.4-1.4,0.9-2.3,1.7L44.3,17c1.1-1,2-1.6,2.7-2.1
				c0.7-0.4,1.5-0.7,2.4-1c0.9-0.2,1.8-0.3,2.9-0.3c1.4,0,2.6,0.2,3.6,0.7c1.1,0.5,1.9,1.2,2.5,2c0.6,0.9,0.9,1.9,0.9,3
				c0,0.8-0.1,1.6-0.3,2.3c-0.2,0.7-0.5,1.4-0.9,2c-0.4,0.7-1,1.4-1.7,2.1c-0.7,0.7-2.2,2.1-4.5,4.2v0.1h7.9V34.9z"/>
		</g>
	</g>
</g>
<g>
	<g transform="translate(264.022661, 523.774635)">
		<g>
			<path class="st2" d="M61.6,83.2h-5.7V72.1c0-1.3,0-2.6,0.1-3.7c-0.3,0.4-0.8,0.9-1.3,1.3l-2.4,2l-2.9-3.6l7.2-5.8h5.1V83.2z"/>
		</g>
	</g>
</g>
<g>
	<g transform="translate(276.874581, 523.774635)">
		<g>
			<path class="st2" d="M68.4,83.2H53.3v-3.7l5.1-5.2c1.4-1.5,2.4-2.5,2.8-3.1c0.5-0.6,0.8-1,0.9-1.4c0.2-0.4,0.3-0.8,0.3-1.3
				c0-0.5-0.2-1-0.5-1.3c-0.3-0.3-0.8-0.5-1.5-0.5c-0.7,0-1.3,0.2-2,0.6c-0.7,0.4-1.4,0.9-2.3,1.7L53,65.3c1.1-1,2-1.6,2.7-2.1
				c0.7-0.4,1.5-0.7,2.4-1C59,62.1,60,62,61,62c1.4,0,2.6,0.2,3.6,0.7c1.1,0.5,1.9,1.2,2.5,2c0.6,0.9,0.9,1.9,0.9,3
				c0,0.8-0.1,1.6-0.3,2.3c-0.2,0.7-0.5,1.4-0.9,2c-0.4,0.7-1,1.4-1.7,2.1c-0.7,0.7-2.2,2.1-4.5,4.2v0.1h7.9V83.2z"/>
		</g>
	</g>
</g>
<g>
	<g transform="translate(390.289492, 111.924927)">
		<g>
			<path class="st2" d="M91.2-62.9c0-2.9,0.4-5.3,1.2-7.1c0.8-1.8,2.1-3.1,3.7-4c1.6-0.9,3.6-1.3,6-1.3c0.8,0,1.8,0.1,3,0.2v4.4
				c-1-0.2-2-0.3-3.1-0.3c-1.9,0-3.3,0.4-4.2,1.2c-0.9,0.8-1.4,2.2-1.5,4h0.2c0.9-1.6,2.2-2.4,4.1-2.4c1.9,0,3.3,0.6,4.3,1.8
				c1,1.2,1.5,2.9,1.5,5c0,2.3-0.6,4.1-1.9,5.4c-1.3,1.3-3.1,2-5.4,2c-2.5,0-4.4-0.8-5.8-2.4C91.9-57.8,91.2-60.1,91.2-62.9z
				 M98.9-58.3c0.6,0,1.1-0.2,1.5-0.7c0.4-0.5,0.6-1.2,0.6-2.2c0-1.7-0.7-2.5-2-2.5c-0.6,0-1.2,0.2-1.6,0.7c-0.4,0.4-0.6,1-0.6,1.6
				c0,0.9,0.2,1.7,0.6,2.2C97.8-58.6,98.3-58.3,98.9-58.3z"/>
		</g>
	</g>
</g>
<g>
	<g transform="translate(440.465694, 247.541594)">
		<g>
			<path class="st2" d="M107.9-17.7c0-2.9,0.4-5.3,1.2-7.1c0.8-1.8,2.1-3.1,3.7-4c1.6-0.9,3.6-1.3,6-1.3c0.8,0,1.8,0.1,3,0.2v4.4
				c-1-0.2-2-0.3-3.1-0.3c-1.9,0-3.3,0.4-4.2,1.2c-0.9,0.8-1.4,2.2-1.5,4h0.2c0.9-1.6,2.2-2.4,4.1-2.4c1.9,0,3.3,0.6,4.3,1.8
				c1,1.2,1.5,2.9,1.5,5c0,2.3-0.6,4.1-1.9,5.4c-1.3,1.3-3.1,2-5.4,2c-2.5,0-4.4-0.8-5.8-2.4C108.6-12.6,107.9-14.9,107.9-17.7z
				 M115.7-13.1c0.6,0,1.1-0.2,1.5-0.7c0.4-0.5,0.6-1.2,0.6-2.2c0-1.7-0.7-2.5-2-2.5c-0.6,0-1.2,0.2-1.6,0.7c-0.4,0.4-0.6,1-0.6,1.6
				c0,0.9,0.2,1.7,0.6,2.2C114.5-13.4,115-13.1,115.7-13.1z"/>
		</g>
	</g>
</g>
<g>
	<g transform="translate(473.192685, 378.429703)">
		<g>
			<path class="st2" d="M118.8,25.9c0-2.9,0.4-5.3,1.2-7.1c0.8-1.8,2.1-3.1,3.7-4c1.6-0.9,3.6-1.3,6-1.3c0.8,0,1.8,0.1,3,0.2v4.4
				c-1-0.2-2-0.3-3.1-0.3c-1.9,0-3.3,0.4-4.2,1.2c-0.9,0.8-1.4,2.2-1.5,4h0.2c0.9-1.6,2.2-2.4,4.1-2.4c1.9,0,3.3,0.6,4.3,1.8
				c1,1.2,1.5,2.9,1.5,5c0,2.3-0.6,4.1-1.9,5.4c-1.3,1.3-3.1,2-5.4,2c-2.5,0-4.4-0.8-5.8-2.4C119.5,31,118.8,28.8,118.8,25.9z
				 M126.6,30.5c0.6,0,1.1-0.2,1.5-0.7c0.4-0.5,0.6-1.2,0.6-2.2c0-1.7-0.7-2.5-2-2.5c-0.6,0-1.2,0.2-1.6,0.7c-0.4,0.4-0.6,1-0.6,1.6
				c0,0.9,0.2,1.7,0.6,2.2C125.4,30.2,125.9,30.5,126.6,30.5z"/>
		</g>
	</g>
</g>
<g>
	<g transform="translate(450.004711, 523.774635)">
		<g>
			<path class="st2" d="M111.1,74.3c0-2.9,0.4-5.3,1.2-7.1c0.8-1.8,2.1-3.1,3.7-4c1.6-0.9,3.6-1.3,6-1.3c0.8,0,1.8,0.1,3,0.2v4.4
				c-1-0.2-2-0.3-3.1-0.3c-1.9,0-3.3,0.4-4.2,1.2c-0.9,0.8-1.4,2.2-1.5,4h0.2c0.9-1.6,2.2-2.4,4.1-2.4c1.9,0,3.3,0.6,4.3,1.8
				c1,1.2,1.5,2.9,1.5,5c0,2.3-0.6,4.1-1.9,5.4c-1.3,1.3-3.1,2-5.4,2c-2.5,0-4.4-0.8-5.8-2.4C111.8,79.5,111.1,77.2,111.1,74.3z
				 M118.9,79c0.6,0,1.1-0.2,1.5-0.7c0.4-0.5,0.6-1.2,0.6-2.2c0-1.7-0.7-2.5-2-2.5c-0.6,0-1.2,0.2-1.6,0.7c-0.4,0.4-0.6,1-0.6,1.6
				c0,0.9,0.2,1.7,0.6,2.2C117.7,78.7,118.2,79,118.9,79z"/>
		</g>
	</g>
</g>
<g>
	<g transform="translate(231.094172, 111.924927)">
		<g>
			<path class="st2" d="M52.5-70.5c0,1.3-0.4,2.4-1.2,3.3c-0.8,0.9-1.9,1.6-3.4,2v0.1c3.5,0.4,5.2,2.1,5.2,4.9
				c0,1.9-0.8,3.5-2.3,4.6c-1.5,1.1-3.7,1.7-6.4,1.7c-1.1,0-2.2-0.1-3.1-0.2c-1-0.2-2-0.5-3.1-0.9v-4.7c0.9,0.5,1.8,0.8,2.8,1
				c0.9,0.2,1.8,0.3,2.6,0.3c1.2,0,2.1-0.2,2.7-0.5c0.6-0.4,0.9-0.9,0.9-1.6c0-0.6-0.2-1-0.5-1.3c-0.3-0.3-0.8-0.6-1.4-0.7
				c-0.7-0.2-1.5-0.2-2.6-0.2h-1.3v-4.3h1.3c2.9,0,4.3-0.7,4.3-2.2c0-0.5-0.2-0.9-0.6-1.2c-0.4-0.3-1-0.4-1.7-0.4
				c-1.3,0-2.7,0.5-4.1,1.4l-2.4-3.8c1.1-0.8,2.2-1.3,3.4-1.6c1.2-0.3,2.5-0.5,4-0.5c2.2,0,3.9,0.4,5.1,1.3
				C51.8-73.1,52.5-72,52.5-70.5z"/>
		</g>
	</g>
</g>
<g>
	<g transform="translate(180.342512, 245.537658)">
		<g>
			<path class="st2" d="M35.5-25.9c0,1.3-0.4,2.4-1.2,3.3c-0.8,0.9-1.9,1.6-3.4,2v0.1c3.5,0.4,5.2,2.1,5.2,4.9
				c0,1.9-0.8,3.5-2.3,4.6c-1.5,1.1-3.7,1.7-6.4,1.7c-1.1,0-2.2-0.1-3.1-0.2s-2-0.5-3.1-0.9v-4.7c0.9,0.5,1.8,0.8,2.8,1
				c0.9,0.2,1.8,0.3,2.6,0.3c1.2,0,2.1-0.2,2.7-0.5c0.6-0.4,0.9-0.9,0.9-1.6c0-0.6-0.2-1-0.5-1.3c-0.3-0.3-0.8-0.6-1.4-0.7
				c-0.7-0.2-1.5-0.2-2.6-0.2h-1.3v-4.2h1.3c2.9,0,4.3-0.7,4.3-2.2c0-0.5-0.2-0.9-0.6-1.2c-0.4-0.3-1-0.4-1.7-0.4
				c-1.3,0-2.7,0.5-4.1,1.4l-2.4-3.8c1.1-0.8,2.2-1.3,3.4-1.6c1.2-0.3,2.5-0.5,4-0.5c2.2,0,3.9,0.4,5.1,1.3
				C34.9-28.6,35.5-27.4,35.5-25.9z"/>
		</g>
	</g>
</g>
<g>
	<g transform="translate(204.760732, 378.878276)">
		<g>
			<path class="st2" d="M43.7,18.5c0,1.3-0.4,2.4-1.2,3.3c-0.8,0.9-1.9,1.6-3.4,2V24c3.5,0.4,5.2,2.1,5.2,4.9c0,1.9-0.8,3.5-2.3,4.6
				c-1.5,1.1-3.7,1.7-6.4,1.7c-1.1,0-2.2-0.1-3.1-0.2c-1-0.2-2-0.5-3.1-0.9v-4.7c0.9,0.5,1.8,0.8,2.8,1c0.9,0.2,1.8,0.3,2.6,0.3
				c1.2,0,2.1-0.2,2.7-0.5c0.6-0.4,0.9-0.9,0.9-1.6c0-0.6-0.2-1-0.5-1.3c-0.3-0.3-0.8-0.6-1.4-0.7c-0.7-0.2-1.5-0.2-2.6-0.2h-1.3
				v-4.2h1.3c2.9,0,4.3-0.7,4.3-2.2c0-0.5-0.2-0.9-0.6-1.2c-0.4-0.3-1-0.4-1.7-0.4c-1.3,0-2.7,0.5-4.1,1.4l-2.4-3.8
				c1.1-0.8,2.2-1.3,3.4-1.6c1.2-0.3,2.5-0.5,4-0.5c2.2,0,3.9,0.4,5.1,1.3C43.1,15.8,43.7,17,43.7,18.5z"/>
		</g>
	</g>
</g>
<g>
	<g transform="translate(178.539783, 523.774635)">
		<g>
			<path class="st2" d="M34.9,66.8c0,1.3-0.4,2.4-1.2,3.3c-0.8,0.9-1.9,1.6-3.4,2v0.1c3.5,0.4,5.2,2.1,5.2,4.9
				c0,1.9-0.8,3.5-2.3,4.6c-1.5,1.1-3.7,1.7-6.4,1.7c-1.1,0-2.2-0.1-3.1-0.2c-1-0.2-2-0.5-3.1-0.9v-4.7c0.9,0.5,1.8,0.8,2.8,1
				c0.9,0.2,1.8,0.3,2.6,0.3c1.2,0,2.1-0.2,2.7-0.5c0.6-0.4,0.9-0.9,0.9-1.6c0-0.6-0.2-1-0.5-1.3c-0.3-0.3-0.8-0.6-1.4-0.7
				c-0.7-0.2-1.5-0.2-2.6-0.2h-1.3v-4.2h1.3c2.9,0,4.3-0.7,4.3-2.2c0-0.5-0.2-0.9-0.6-1.2c-0.4-0.3-1-0.4-1.7-0.4
				c-1.3,0-2.7,0.5-4.1,1.4l-2.4-3.8c1.1-0.8,2.2-1.3,3.4-1.6c1.2-0.3,2.5-0.5,4-0.5c2.2,0,3.9,0.4,5.1,1.3
				C34.3,64.1,34.9,65.3,34.9,66.8z"/>
		</g>
	</g>
</g>
<g>
	<g transform="translate(344.507284, 111.924927)">
		<g>
			<path class="st2" d="M88.4-54.1h-5.7v-11.1c0-1.3,0-2.6,0.1-3.7c-0.3,0.4-0.8,0.9-1.3,1.3l-2.4,2l-2.9-3.6l7.2-5.8h5.1V-54.1z"/>
		</g>
	</g>
</g>
<g>
	<g transform="translate(357.359204, 111.924927)">
		<g>
			<path class="st2" d="M92.7-54.1h-5.7v-11.1c0-1.3,0-2.6,0.1-3.7c-0.3,0.4-0.8,0.9-1.3,1.3l-2.4,2l-2.9-3.6l7.2-5.8h5.1V-54.1z"/>
		</g>
	</g>
</g>
<g>
	<g transform="translate(394.683509, 247.541594)">
		<g>
			<path class="st2" d="M105.1-8.9h-5.7V-20c0-1.3,0-2.6,0.1-3.7c-0.3,0.4-0.8,0.9-1.3,1.3l-2.4,2l-2.9-3.6l7.2-5.8h5.1V-8.9z"/>
		</g>
	</g>
</g>
<g>
	<g transform="translate(407.535429, 247.541594)">
		<g>
			<path class="st2" d="M109.4-8.9h-5.7V-20c0-1.3,0-2.6,0.1-3.7c-0.3,0.4-0.8,0.9-1.3,1.3l-2.4,2l-2.9-3.6l7.2-5.8h5.1V-8.9z"/>
		</g>
	</g>
</g>
<g>
	<g transform="translate(369.696043, 381.330761)">
		<g>
			<path class="st2" d="M96.8,35.7h-5.7V24.6c0-1.3,0-2.6,0.1-3.7c-0.3,0.4-0.8,0.9-1.3,1.3l-2.4,2l-2.9-3.6l7.2-5.8h5.1V35.7z"/>
		</g>
	</g>
</g>
<g>
	<g transform="translate(382.547963, 381.330761)">
		<g>
			<path class="st2" d="M101.1,35.7h-5.7V24.6c0-1.3,0-2.6,0.1-3.7c-0.3,0.4-0.8,0.9-1.3,1.3l-2.4,2l-2.9-3.6l7.2-5.8h5.1V35.7z"/>
		</g>
	</g>
</g>
<g>
	<g transform="translate(403.88308, 523.774635)">
		<g>
			<path class="st2" d="M108.2,83.2h-5.7V72.1c0-1.3,0-2.6,0.1-3.7c-0.3,0.4-0.8,0.9-1.3,1.3l-2.4,2l-2.9-3.6l7.2-5.8h5.1V83.2z"/>
		</g>
	</g>
</g>
<g>
	<g transform="translate(416.735, 523.774635)">
		<g>
			<path class="st2" d="M112.5,83.2h-5.7V72.1c0-1.3,0-2.6,0.1-3.7c-0.3,0.4-0.8,0.9-1.3,1.3l-2.4,2l-2.9-3.6l7.2-5.8h5.1V83.2z"/>
		</g>
	</g>
</g>
<g>
	<g transform="translate(309.804838, 111.924927)">
		<g>
			<path class="st2" d="M79.6-65.4c0,4.1-0.9,7-2.6,8.9c-1.8,1.8-4.6,2.8-8.5,2.8c-1.3,0-2.2-0.1-2.9-0.1v-4.5
				c0.8,0.2,1.6,0.2,2.5,0.2c2,0,3.6-0.4,4.7-1.2c1.1-0.8,1.7-2.1,1.8-3.9h-0.2c-0.4,0.7-0.7,1.2-1.1,1.5c-0.4,0.3-0.8,0.5-1.3,0.7
				c-0.5,0.2-1.2,0.2-2,0.2c-1.8,0-3.2-0.6-4.2-1.8c-1-1.2-1.5-2.9-1.5-5c0-2.3,0.7-4.1,2-5.4c1.3-1.3,3.1-2,5.4-2
				c2.6,0,4.5,0.9,5.9,2.6C78.9-71,79.6-68.6,79.6-65.4z M71.7-70.7c-0.6,0-1.1,0.2-1.5,0.7c-0.4,0.4-0.6,1.2-0.6,2.1
				c0,0.8,0.2,1.4,0.5,1.9c0.3,0.5,0.8,0.7,1.5,0.7c0.6,0,1.2-0.2,1.6-0.7c0.5-0.5,0.7-1,0.7-1.6c0-0.8-0.2-1.6-0.6-2.2
				C72.9-70.4,72.3-70.7,71.7-70.7z"/>
		</g>
	</g>
</g>
<g>
	<g transform="translate(359.981064, 247.541594)">
		<g>
			<path class="st2" d="M96.3-20.2c0,4.1-0.9,7-2.6,8.9c-1.8,1.8-4.6,2.8-8.5,2.8c-1.3,0-2.2-0.1-2.9-0.1v-4.5
				c0.8,0.2,1.6,0.2,2.5,0.2c2,0,3.6-0.4,4.7-1.2c1.1-0.8,1.7-2.1,1.8-3.9H91c-0.4,0.7-0.7,1.2-1.1,1.5c-0.4,0.3-0.8,0.5-1.3,0.7
				c-0.5,0.2-1.2,0.2-2,0.2c-1.8,0-3.2-0.6-4.2-1.8c-1-1.2-1.5-2.9-1.5-5c0-2.3,0.7-4.1,2-5.4c1.3-1.3,3.1-2,5.4-2
				c2.6,0,4.5,0.9,5.9,2.6C95.6-25.8,96.3-23.3,96.3-20.2z M88.4-25.5c-0.6,0-1.1,0.2-1.5,0.7c-0.4,0.4-0.6,1.2-0.6,2.1
				c0,0.8,0.2,1.4,0.5,1.9c0.3,0.5,0.8,0.7,1.5,0.7c0.6,0,1.2-0.2,1.6-0.7c0.5-0.5,0.7-1,0.7-1.6c0-0.8-0.2-1.6-0.6-2.2
				C89.6-25.2,89.1-25.5,88.4-25.5z"/>
		</g>
	</g>
</g>
<g>
	<g transform="translate(334.993626, 381.330761)">
		<g>
			<path class="st2" d="M88,24.4c0,4.1-0.9,7-2.6,8.9c-1.8,1.8-4.6,2.8-8.5,2.8c-1.3,0-2.2-0.1-2.9-0.1v-4.5
				c0.8,0.2,1.6,0.2,2.5,0.2c2,0,3.6-0.4,4.7-1.2c1.1-0.8,1.7-2.1,1.8-3.9h-0.2c-0.4,0.7-0.7,1.2-1.1,1.5c-0.4,0.3-0.8,0.5-1.3,0.7
				c-0.5,0.2-1.2,0.2-2,0.2c-1.8,0-3.2-0.6-4.2-1.8c-1-1.2-1.5-2.9-1.5-5c0-2.3,0.7-4.1,2-5.4c1.3-1.3,3.1-2,5.4-2
				c2.6,0,4.5,0.9,5.9,2.6C87.2,18.8,88,21.2,88,24.4z M80.1,19.1c-0.6,0-1.1,0.2-1.5,0.7C78.2,20.2,78,21,78,21.9
				c0,0.8,0.2,1.4,0.5,1.9c0.3,0.5,0.8,0.7,1.5,0.7c0.6,0,1.2-0.2,1.6-0.7c0.5-0.5,0.7-1,0.7-1.6c0-0.8-0.2-1.6-0.6-2.2
				C81.3,19.4,80.7,19.1,80.1,19.1z"/>
		</g>
	</g>
</g>
<g>
	<g transform="translate(314.648836, 523.774635)">
		<g>
			<path class="st2" d="M81.2,71.8c0,4.1-0.9,7-2.6,8.9c-1.8,1.8-4.6,2.8-8.5,2.8c-1.3,0-2.2-0.1-2.9-0.1v-4.5
				c0.8,0.2,1.6,0.2,2.5,0.2c2,0,3.6-0.4,4.7-1.2c1.1-0.8,1.7-2.1,1.8-3.9h-0.2c-0.4,0.7-0.7,1.2-1.1,1.5c-0.4,0.3-0.8,0.5-1.3,0.7
				c-0.5,0.2-1.2,0.2-2,0.2c-1.8,0-3.2-0.6-4.2-1.8c-1-1.2-1.5-2.9-1.5-5c0-2.3,0.7-4.1,2-5.4c1.3-1.3,3.1-2,5.4-2
				c2.6,0,4.5,0.9,5.9,2.6C80.5,66.3,81.2,68.7,81.2,71.8z M73.3,66.6c-0.6,0-1.1,0.2-1.5,0.7c-0.4,0.4-0.6,1.2-0.6,2.1
				c0,0.8,0.2,1.4,0.5,1.9c0.3,0.5,0.8,0.7,1.5,0.7c0.6,0,1.2-0.2,1.6-0.7c0.5-0.5,0.7-1,0.7-1.6c0-0.8-0.2-1.6-0.6-2.2
				C74.5,66.9,73.9,66.6,73.3,66.6z"/>
		</g>
	</g>
</g>
<g>
	<g transform="translate(429.644802, 111.924927)">
		<g>
			<path class="st2" d="M119.3-54.1h-15.1v-3.7l5.1-5.2c1.4-1.5,2.4-2.5,2.8-3.1c0.5-0.6,0.8-1,0.9-1.4c0.2-0.4,0.3-0.8,0.3-1.3
				c0-0.5-0.2-1-0.5-1.3c-0.3-0.3-0.8-0.5-1.5-0.5c-0.7,0-1.3,0.2-2,0.6c-0.7,0.4-1.4,0.9-2.3,1.7l-3.1-3.6c1.1-1,2-1.6,2.7-2.1
				c0.7-0.4,1.5-0.7,2.4-1c0.9-0.2,1.8-0.3,2.9-0.3c1.4,0,2.6,0.2,3.6,0.7c1.1,0.5,1.9,1.2,2.5,2c0.6,0.9,0.9,1.9,0.9,3
				c0,0.8-0.1,1.6-0.3,2.3c-0.2,0.7-0.5,1.4-0.9,2c-0.4,0.7-1,1.4-1.7,2.1c-0.7,0.7-2.2,2.1-4.5,4.2v0.1h7.9V-54.1z"/>
		</g>
	</g>
</g>
<g>
	<g transform="translate(479.82103, 247.541594)">
		<g>
			<path class="st2" d="M136.1-8.9h-15.1v-3.7l5.1-5.2c1.4-1.5,2.4-2.5,2.8-3.1c0.5-0.6,0.8-1,0.9-1.4c0.2-0.4,0.3-0.8,0.3-1.3
				c0-0.5-0.2-1-0.5-1.3c-0.3-0.3-0.8-0.5-1.5-0.5c-0.7,0-1.3,0.2-2,0.6s-1.4,0.9-2.3,1.7l-3.1-3.6c1.1-1,2-1.6,2.7-2.1
				c0.7-0.4,1.5-0.7,2.4-1c0.9-0.2,1.8-0.3,2.9-0.3c1.4,0,2.6,0.2,3.6,0.7c1.1,0.5,1.9,1.2,2.5,2c0.6,0.9,0.9,1.9,0.9,3
				c0,0.8-0.1,1.6-0.3,2.3c-0.2,0.7-0.5,1.4-0.9,2c-0.4,0.7-1,1.4-1.7,2.1c-0.7,0.7-2.2,2.1-4.5,4.2v0.1h7.9V-8.9z"/>
		</g>
	</g>
</g>
<g>
	<g transform="translate(512.547974, 378.429703)">
		<g>
			<path class="st2" d="M147,34.7h-15.1V31l5.1-5.2c1.4-1.5,2.4-2.5,2.8-3.1c0.5-0.6,0.8-1,0.9-1.4c0.2-0.4,0.3-0.8,0.3-1.3
				c0-0.5-0.2-1-0.5-1.3c-0.3-0.3-0.8-0.5-1.5-0.5c-0.7,0-1.3,0.2-2,0.6c-0.7,0.4-1.4,0.9-2.3,1.7l-3.1-3.6c1.1-1,2-1.6,2.7-2.1
				c0.7-0.4,1.5-0.7,2.4-1c0.9-0.2,1.8-0.3,2.9-0.3c1.4,0,2.6,0.2,3.6,0.7c1.1,0.5,1.9,1.2,2.5,2c0.6,0.9,0.9,1.9,0.9,3
				c0,0.8-0.1,1.6-0.3,2.3c-0.2,0.7-0.5,1.4-0.9,2c-0.4,0.7-1,1.4-1.7,2.1c-0.7,0.7-2.2,2.1-4.5,4.2v0.1h7.9V34.7z"/>
		</g>
	</g>
</g>
<g>
	<g transform="translate(547.609958, 523.774635)">
		<g>
			<path class="st2" d="M158.7,83.2h-15.1v-3.7l5.1-5.2c1.4-1.5,2.4-2.5,2.8-3.1c0.5-0.6,0.8-1,0.9-1.4c0.2-0.4,0.3-0.8,0.3-1.3
				c0-0.5-0.2-1-0.5-1.3c-0.3-0.3-0.8-0.5-1.5-0.5c-0.7,0-1.3,0.2-2,0.6c-0.7,0.4-1.4,0.9-2.3,1.7l-3.1-3.6c1.1-1,2-1.6,2.7-2.1
				c0.7-0.4,1.5-0.7,2.4-1c0.9-0.2,1.8-0.3,2.9-0.3c1.4,0,2.6,0.2,3.6,0.7c1.1,0.5,1.9,1.2,2.5,2c0.6,0.9,0.9,1.9,0.9,3
				c0,0.8-0.1,1.6-0.3,2.3c-0.2,0.7-0.5,1.4-0.9,2c-0.4,0.7-1,1.4-1.7,2.1c-0.7,0.7-2.2,2.1-4.5,4.2v0.1h7.9V83.2z"/>
		</g>
	</g>
</g>
<g>
	<g transform="translate(155.620153, 134.584665)">
		<g>
			<path class="st3" d="M20.7-52.5c0,2.1-0.3,3.6-1,4.6c-0.7,1-1.6,1.5-3,1.5c-1.3,0-2.3-0.5-2.9-1.6c-0.7-1-1-2.6-1-4.6
				c0-2.1,0.3-3.6,1-4.6c0.7-1,1.6-1.5,3-1.5c1.3,0,2.3,0.5,2.9,1.6C20.4-56,20.7-54.5,20.7-52.5z M14.2-52.5c0,1.7,0.2,3,0.6,3.8
				c0.4,0.8,1.1,1.2,2,1.2c0.9,0,1.6-0.4,2-1.2c0.4-0.8,0.6-2.1,0.6-3.8c0-1.7-0.2-3-0.6-3.8c-0.4-0.8-1.1-1.2-2-1.2
				c-0.9,0-1.6,0.4-2,1.2C14.4-55.5,14.2-54.3,14.2-52.5z"/>
		</g>
	</g>
</g>
<g>
	<g transform="translate(104.86851, 268.1974)">
		<g>
			<path class="st3" d="M3.8-8c0,2.1-0.3,3.6-1,4.6c-0.7,1-1.6,1.5-3,1.5c-1.3,0-2.3-0.5-2.9-1.6s-1-2.6-1-4.6c0-2.1,0.3-3.6,1-4.6
				c0.7-1,1.6-1.5,3-1.5c1.3,0,2.3,0.5,2.9,1.6C3.4-11.5,3.8-10,3.8-8z M-2.7-8c0,1.7,0.2,3,0.6,3.8C-1.7-3.4-1.1-3-0.2-3
				c0.9,0,1.6-0.4,2-1.2C2.2-5,2.4-6.3,2.4-8s-0.2-3-0.6-3.8c-0.4-0.8-1.1-1.2-2-1.2c-0.9,0-1.6,0.4-2,1.2C-2.5-11-2.7-9.7-2.7-8z"
				/>
		</g>
	</g>
</g>
<g>
	<g transform="translate(72.71697, 402.762711)">
		<g>
			<path class="st3" d="M-6.9,36.9c0,2.1-0.3,3.6-1,4.6c-0.7,1-1.6,1.5-3,1.5c-1.3,0-2.3-0.5-2.9-1.6c-0.7-1-1-2.6-1-4.6
				c0-2.1,0.3-3.6,1-4.6c0.7-1,1.6-1.5,3-1.5c1.3,0,2.3,0.5,2.9,1.6C-7.3,33.3-6.9,34.9-6.9,36.9z M-13.5,36.9c0,1.7,0.2,3,0.6,3.8
				c0.4,0.8,1.1,1.2,2,1.2c0.9,0,1.6-0.4,2-1.2c0.4-0.8,0.6-2.1,0.6-3.8s-0.2-3-0.6-3.8c-0.4-0.8-1.1-1.2-2-1.2
				c-0.9,0-1.6,0.4-2,1.2C-13.3,33.9-13.5,35.1-13.5,36.9z"/>
		</g>
	</g>
</g>
<g>
	<g transform="translate(43.102213, 546.43444)">
		<g>
			<path class="st3" d="M-16.8,84.7c0,2.1-0.3,3.6-1,4.6c-0.7,1-1.6,1.5-3,1.5c-1.3,0-2.3-0.5-2.9-1.6c-0.7-1-1-2.6-1-4.6
				c0-2.1,0.3-3.6,1-4.6c0.7-1,1.6-1.5,3-1.5c1.3,0,2.3,0.5,2.9,1.6C-17.1,81.2-16.8,82.8-16.8,84.7z M-23.3,84.7
				c0,1.7,0.2,3,0.6,3.8c0.4,0.8,1.1,1.2,2,1.2c0.9,0,1.6-0.4,2-1.2c0.4-0.8,0.6-2.1,0.6-3.8s-0.2-3-0.6-3.8c-0.4-0.8-1.1-1.2-2-1.2
				c-0.9,0-1.6,0.4-2,1.2C-23.1,81.8-23.3,83-23.3,84.7z"/>
		</g>
	</g>
</g>
<g>
	<g transform="translate(235.718286, 134.584665)">
		<g>
			<path class="st3" d="M47.3-46.6h-7.8v-1.2l3.1-3.2c1-1,1.6-1.6,1.9-2.1c0.3-0.4,0.5-0.8,0.7-1.2c0.2-0.4,0.2-0.8,0.2-1.3
				c0-0.6-0.2-1.1-0.6-1.5c-0.4-0.4-0.9-0.6-1.6-0.6c-0.5,0-1,0.1-1.4,0.2c-0.4,0.2-0.9,0.4-1.5,0.9l-0.7-0.9
				c1.1-0.9,2.3-1.4,3.6-1.4c1.1,0,2,0.3,2.6,0.9c0.6,0.6,1,1.3,1,2.3c0,0.8-0.2,1.5-0.6,2.2c-0.4,0.7-1.2,1.7-2.4,2.8l-2.6,2.6v0.1
				h6.1V-46.6z"/>
		</g>
	</g>
</g>
<g>
	<g transform="translate(184.966642, 268.1974)">
		<g>
			<path class="st3" d="M30.4-2h-7.8v-1.2l3.1-3.2c1-1,1.6-1.6,1.9-2.1c0.3-0.4,0.5-0.8,0.7-1.2c0.2-0.4,0.2-0.8,0.2-1.3
				c0-0.6-0.2-1.1-0.6-1.5C27.6-12.8,27-13,26.3-13c-0.5,0-1,0.1-1.4,0.2c-0.4,0.2-0.9,0.4-1.5,0.9l-0.7-0.9
				c1.1-0.9,2.3-1.4,3.6-1.4c1.1,0,2,0.3,2.6,0.9c0.6,0.6,1,1.3,1,2.3c0,0.8-0.2,1.5-0.6,2.2C28.8-7.9,28-7,26.9-5.9l-2.6,2.6v0.1
				h6.1V-2z"/>
		</g>
	</g>
</g>
<g>
	<g transform="translate(209.384848, 401.53802)">
		<g>
			<path class="st3" d="M38.5,42.4h-7.8v-1.2l3.1-3.2c1-1,1.6-1.6,1.9-2.1c0.3-0.4,0.5-0.8,0.7-1.2c0.2-0.4,0.2-0.8,0.2-1.3
				c0-0.6-0.2-1.1-0.6-1.5c-0.4-0.4-0.9-0.6-1.6-0.6c-0.5,0-1,0.1-1.4,0.2c-0.4,0.2-0.9,0.4-1.5,0.9l-0.7-0.9
				c1.1-0.9,2.3-1.4,3.6-1.4c1.1,0,2,0.3,2.6,0.9c0.6,0.6,1,1.3,1,2.3c0,0.8-0.2,1.5-0.6,2.2c-0.4,0.7-1.2,1.7-2.4,2.8l-2.6,2.6v0.1
				h6.1V42.4z"/>
		</g>
	</g>
</g>
<g>
	<g transform="translate(183.163911, 546.43444)">
		<g>
			<path class="st3" d="M29.8,90.7H22v-1.2l3.1-3.2c1-1,1.6-1.6,1.9-2.1c0.3-0.4,0.5-0.8,0.7-1.2c0.2-0.4,0.2-0.8,0.2-1.3
				c0-0.6-0.2-1.1-0.6-1.5c-0.4-0.4-0.9-0.6-1.6-0.6c-0.5,0-1,0.1-1.4,0.2c-0.4,0.2-0.9,0.4-1.5,0.9L22.1,80
				c1.1-0.9,2.3-1.4,3.6-1.4c1.1,0,2,0.3,2.6,0.9c0.6,0.6,1,1.3,1,2.3c0,0.8-0.2,1.5-0.6,2.2c-0.4,0.7-1.2,1.7-2.4,2.8l-2.6,2.6v0.1
				h6.1V90.7z"/>
		</g>
	</g>
</g>
<g>
	<g transform="translate(355.561311, 134.584665)">
		<g>
			<path class="st3" d="M83.2-53.9c1.3,0,2.2,0.3,3,0.9c0.7,0.6,1.1,1.5,1.1,2.6c0,1.2-0.4,2.2-1.2,2.9c-0.8,0.7-1.9,1-3.2,1
				c-1.3,0-2.4-0.2-3.1-0.6v-1.3c0.4,0.2,0.8,0.4,1.4,0.6c0.6,0.1,1.1,0.2,1.7,0.2c0.9,0,1.7-0.2,2.2-0.7c0.5-0.5,0.8-1.1,0.8-2
				c0-1.7-1-2.5-3.1-2.5c-0.5,0-1.2,0.1-2.1,0.2L80-52.9l0.4-5.6h5.9v1.2h-4.8l-0.3,3.6C81.9-53.8,82.5-53.9,83.2-53.9z"/>
		</g>
	</g>
</g>
<g>
	<g transform="translate(405.737527, 270.201338)">
		<g>
			<path class="st3" d="M99.9-8.6c1.3,0,2.2,0.3,3,0.9c0.7,0.6,1.1,1.5,1.1,2.6c0,1.2-0.4,2.2-1.2,2.9c-0.8,0.7-1.9,1-3.2,1
				c-1.3,0-2.4-0.2-3.1-0.6v-1.3c0.4,0.2,0.8,0.4,1.4,0.6c0.6,0.1,1.1,0.2,1.7,0.2c0.9,0,1.7-0.2,2.2-0.7c0.5-0.5,0.8-1.1,0.8-2
				c0-1.7-1-2.5-3.1-2.5c-0.5,0-1.2,0.1-2.1,0.2l-0.7-0.5l0.4-5.6h5.9v1.2h-4.8L98-8.5C98.6-8.6,99.3-8.6,99.9-8.6z"/>
		</g>
	</g>
</g>
<g>
	<g transform="translate(380.750102, 403.990504)">
		<g>
			<path class="st3" d="M91.6,36c1.3,0,2.2,0.3,3,0.9c0.7,0.6,1.1,1.5,1.1,2.6c0,1.2-0.4,2.2-1.2,2.9c-0.8,0.7-1.9,1-3.2,1
				c-1.3,0-2.4-0.2-3.1-0.6v-1.3c0.4,0.2,0.8,0.4,1.4,0.6c0.6,0.1,1.1,0.2,1.7,0.2c0.9,0,1.7-0.2,2.2-0.7c0.5-0.5,0.8-1.1,0.8-2
				c0-1.7-1-2.5-3.1-2.5c-0.5,0-1.2,0.1-2.1,0.2l-0.7-0.5l0.4-5.6h5.9v1.2H90l-0.3,3.6C90.3,36,90.9,36,91.6,36z"/>
		</g>
	</g>
</g>
<g>
	<g transform="translate(414.937127, 546.43444)">
		<g>
			<path class="st3" d="M103,83.4c1.3,0,2.2,0.3,3,0.9c0.7,0.6,1.1,1.5,1.1,2.6c0,1.2-0.4,2.2-1.2,2.9c-0.8,0.7-1.9,1-3.2,1
				c-1.3,0-2.4-0.2-3.1-0.6v-1.3c0.4,0.2,0.8,0.4,1.4,0.6c0.6,0.1,1.1,0.2,1.7,0.2c0.9,0,1.7-0.2,2.2-0.7c0.5-0.5,0.8-1.1,0.8-2
				c0-1.7-1-2.5-3.1-2.5c-0.5,0-1.2,0.1-2.1,0.2l-0.7-0.5l0.4-5.6h5.9V80h-4.8l-0.3,3.6C101.7,83.5,102.3,83.4,103,83.4z"/>
		</g>
	</g>
</g>
<g>
	<g transform="translate(194.58194, 134.584665)">
		<g>
			<path class="st3" d="M30.8-46.6h-1.3v-8.5c0-0.7,0-1.4,0.1-2c-0.1,0.1-0.3,0.2-0.4,0.4c-0.1,0.1-0.8,0.7-1.9,1.6L26.5-56l3.1-2.5
				h1.1V-46.6z"/>
		</g>
	</g>
</g>
<g>
	<g transform="translate(143.830297, 268.1974)">
		<g>
			<path class="st3" d="M13.9-2h-1.3v-8.5c0-0.7,0-1.4,0.1-2c-0.1,0.1-0.3,0.2-0.4,0.4c-0.1,0.1-0.8,0.7-1.9,1.6l-0.7-0.9l3.1-2.5
				h1.1V-2z"/>
		</g>
	</g>
</g>
<g>
	<g transform="translate(111.678757, 402.762711)">
		<g>
			<path class="st3" d="M3.2,42.8H1.8v-8.5c0-0.7,0-1.4,0.1-2c-0.1,0.1-0.3,0.2-0.4,0.4c-0.1,0.1-0.8,0.7-1.9,1.6l-0.7-0.9L2,30.9
				h1.1V42.8z"/>
		</g>
	</g>
</g>
<g>
	<g transform="translate(140.246554, 546.43444)">
		<g>
			<path class="st3" d="M12.7,90.7h-1.3v-8.5c0-0.7,0-1.4,0.1-2c-0.1,0.1-0.3,0.2-0.4,0.4c-0.1,0.1-0.8,0.7-1.9,1.6l-0.7-0.9
				l3.1-2.5h1.1V90.7z"/>
		</g>
	</g>
</g>
<g>
	<g transform="translate(274.680073, 134.584665)">
		<g>
			<path class="st3" d="M59.9-55.7c0,0.8-0.2,1.4-0.6,1.9c-0.4,0.5-1,0.8-1.8,1v0.1c1,0.1,1.7,0.4,2.1,0.9c0.5,0.5,0.7,1.1,0.7,1.9
				c0,1.1-0.4,2-1.2,2.6c-0.8,0.6-1.9,0.9-3.4,0.9c-0.6,0-1.2-0.1-1.7-0.1c-0.5-0.1-1-0.3-1.5-0.5v-1.3c0.5,0.2,1.1,0.4,1.6,0.6
				c0.6,0.1,1.1,0.2,1.7,0.2c2.1,0,3.1-0.8,3.1-2.4c0-1.4-1.1-2.2-3.4-2.2h-1.2v-1.2h1.2c0.9,0,1.7-0.2,2.2-0.6
				c0.6-0.4,0.8-1,0.8-1.7c0-0.6-0.2-1-0.6-1.4c-0.4-0.3-0.9-0.5-1.6-0.5c-0.5,0-1,0.1-1.5,0.2c-0.5,0.1-1,0.4-1.6,0.8l-0.7-0.9
				c0.5-0.4,1-0.7,1.7-0.9c0.6-0.2,1.3-0.3,2-0.3c1.2,0,2.1,0.3,2.7,0.8C59.5-57.3,59.9-56.6,59.9-55.7z"/>
		</g>
	</g>
</g>
<g>
	<g transform="translate(223.928429, 268.1974)">
		<g>
			<path class="st3" d="M43-11.1c0,0.8-0.2,1.4-0.6,1.9c-0.4,0.5-1,0.8-1.8,1v0.1c1,0.1,1.7,0.4,2.1,0.9c0.5,0.5,0.7,1.1,0.7,1.9
				c0,1.1-0.4,2-1.2,2.6c-0.8,0.6-1.9,0.9-3.4,0.9c-0.6,0-1.2-0.1-1.7-0.1c-0.5-0.1-1-0.3-1.5-0.5v-1.3c0.5,0.2,1.1,0.4,1.6,0.6
				C37.7-3.1,38.3-3,38.8-3c2.1,0,3.1-0.8,3.1-2.4c0-1.4-1.1-2.2-3.4-2.2h-1.2v-1.2h1.2c0.9,0,1.7-0.2,2.2-0.6
				c0.6-0.4,0.8-1,0.8-1.7c0-0.6-0.2-1-0.6-1.4C40.5-12.8,40-13,39.3-13c-0.5,0-1,0.1-1.5,0.2c-0.5,0.1-1,0.4-1.6,0.8l-0.7-0.9
				c0.5-0.4,1-0.7,1.7-0.9c0.6-0.2,1.3-0.3,2-0.3c1.2,0,2.1,0.3,2.7,0.8C42.6-12.8,43-12.1,43-11.1z"/>
		</g>
	</g>
</g>
<g>
	<g transform="translate(248.34665, 401.53802)">
		<g>
			<path class="st3" d="M51.1,33.3c0,0.8-0.2,1.4-0.6,1.9c-0.4,0.5-1,0.8-1.8,1v0.1c1,0.1,1.7,0.4,2.1,0.9c0.5,0.5,0.7,1.1,0.7,1.9
				c0,1.1-0.4,2-1.2,2.6c-0.8,0.6-1.9,0.9-3.4,0.9c-0.6,0-1.2-0.1-1.7-0.1c-0.5-0.1-1-0.3-1.5-0.5v-1.3c0.5,0.2,1.1,0.4,1.6,0.6
				c0.6,0.1,1.1,0.2,1.7,0.2c2.1,0,3.1-0.8,3.1-2.4c0-1.4-1.1-2.2-3.4-2.2h-1.2v-1.2h1.2c0.9,0,1.7-0.2,2.2-0.6
				c0.6-0.4,0.8-1,0.8-1.7c0-0.6-0.2-1-0.6-1.4c-0.4-0.3-0.9-0.5-1.6-0.5c-0.5,0-1,0.1-1.5,0.2c-0.5,0.1-1,0.4-1.6,0.8l-0.7-0.9
				c0.5-0.4,1-0.7,1.7-0.9c0.6-0.2,1.3-0.3,2-0.3c1.2,0,2.1,0.3,2.7,0.8C50.8,31.7,51.1,32.4,51.1,33.3z"/>
		</g>
	</g>
</g>
<g>
	<g transform="translate(274.680073, 546.43444)">
		<g>
			<path class="st3" d="M59.9,81.6c0,0.8-0.2,1.4-0.6,1.9c-0.4,0.5-1,0.8-1.8,1v0.1c1,0.1,1.7,0.4,2.1,0.9c0.5,0.5,0.7,1.1,0.7,1.9
				c0,1.1-0.4,2-1.2,2.6c-0.8,0.6-1.9,0.9-3.4,0.9c-0.6,0-1.2-0.1-1.7-0.1c-0.5-0.1-1-0.3-1.5-0.5V89c0.5,0.2,1.1,0.4,1.6,0.6
				c0.6,0.1,1.1,0.2,1.7,0.2c2.1,0,3.1-0.8,3.1-2.4c0-1.4-1.1-2.2-3.4-2.2h-1.2V84h1.2c0.9,0,1.7-0.2,2.2-0.6c0.6-0.4,0.8-1,0.8-1.7
				c0-0.6-0.2-1-0.6-1.4c-0.4-0.3-0.9-0.5-1.6-0.5c-0.5,0-1,0.1-1.5,0.2c-0.5,0.1-1,0.4-1.6,0.8l-0.7-0.9c0.5-0.4,1-0.7,1.7-0.9
				c0.6-0.2,1.3-0.3,2-0.3c1.2,0,2.1,0.3,2.7,0.8C59.5,80,59.9,80.7,59.9,81.6z"/>
		</g>
	</g>
</g>
<g>
	<g transform="translate(394.5231, 134.584665)">
		<g>
			<path class="st3" d="M92.6-51.7c0-2.3,0.4-4.1,1.4-5.2c0.9-1.2,2.3-1.8,4-1.8c0.6,0,1.1,0.1,1.5,0.2v1.2
				c-0.4-0.1-0.9-0.2-1.4-0.2c-1.3,0-2.3,0.4-2.9,1.2c-0.7,0.8-1,2-1.1,3.8H94c0.6-0.9,1.5-1.4,2.8-1.4c1.1,0,1.9,0.3,2.5,1
				c0.6,0.6,0.9,1.5,0.9,2.6c0,1.2-0.3,2.2-1,2.9c-0.7,0.7-1.6,1.1-2.7,1.1c-1.2,0-2.2-0.5-2.9-1.4C92.9-48.7,92.6-50,92.6-51.7z
				 M96.6-47.5c0.8,0,1.4-0.2,1.8-0.7c0.4-0.5,0.6-1.2,0.6-2.1c0-0.8-0.2-1.4-0.6-1.8c-0.4-0.5-1-0.7-1.8-0.7
				c-0.5,0-0.9,0.1-1.4,0.3c-0.4,0.2-0.7,0.5-1,0.8c-0.2,0.3-0.4,0.7-0.4,1.1c0,0.6,0.1,1.1,0.3,1.6c0.2,0.5,0.5,0.9,0.9,1.2
				C95.6-47.7,96-47.5,96.6-47.5z"/>
		</g>
	</g>
</g>
<g>
	<g transform="translate(444.69935, 270.201338)">
		<g>
			<path class="st3" d="M109.3-6.5c0-2.3,0.4-4.1,1.4-5.3c0.9-1.2,2.3-1.8,4-1.8c0.6,0,1.1,0.1,1.5,0.2v1.2
				c-0.4-0.1-0.9-0.2-1.4-0.2c-1.3,0-2.3,0.4-2.9,1.2c-0.7,0.8-1,2-1.1,3.7h0.1c0.6-0.9,1.5-1.4,2.8-1.4c1.1,0,1.9,0.3,2.5,1
				c0.6,0.6,0.9,1.5,0.9,2.6c0,1.2-0.3,2.2-1,2.9c-0.7,0.7-1.6,1.1-2.7,1.1c-1.2,0-2.2-0.5-2.9-1.4C109.6-3.5,109.3-4.8,109.3-6.5z
				 M113.3-2.3c0.8,0,1.4-0.2,1.8-0.7c0.4-0.5,0.6-1.2,0.6-2.1c0-0.8-0.2-1.4-0.6-1.8c-0.4-0.5-1-0.7-1.8-0.7
				c-0.5,0-0.9,0.1-1.4,0.3c-0.4,0.2-0.7,0.5-1,0.8c-0.2,0.3-0.4,0.7-0.4,1.1c0,0.6,0.1,1.1,0.3,1.6c0.2,0.5,0.5,0.9,0.9,1.2
				C112.3-2.5,112.8-2.3,113.3-2.3z"/>
		</g>
	</g>
</g>
<g>
	<g transform="translate(477.426294, 401.089445)">
		<g>
			<path class="st3" d="M120.2,37.2c0-2.3,0.4-4.1,1.4-5.3c0.9-1.2,2.3-1.8,4-1.8c0.6,0,1.1,0.1,1.5,0.2v1.2
				c-0.4-0.1-0.9-0.2-1.4-0.2c-1.3,0-2.3,0.4-2.9,1.2c-0.7,0.8-1,2-1.1,3.8h0.1c0.6-0.9,1.5-1.4,2.8-1.4c1.1,0,1.9,0.3,2.5,1
				c0.6,0.6,0.9,1.5,0.9,2.6c0,1.2-0.3,2.2-1,2.9c-0.7,0.7-1.6,1.1-2.7,1.1c-1.2,0-2.2-0.5-2.9-1.4
				C120.6,40.1,120.2,38.8,120.2,37.2z M124.2,41.3c0.8,0,1.4-0.2,1.8-0.7c0.4-0.5,0.6-1.2,0.6-2.1c0-0.8-0.2-1.4-0.6-1.8
				c-0.4-0.5-1-0.7-1.8-0.7c-0.5,0-0.9,0.1-1.4,0.3c-0.4,0.2-0.7,0.5-1,0.8c-0.2,0.3-0.4,0.7-0.4,1.1c0,0.6,0.1,1.1,0.3,1.6
				c0.2,0.5,0.5,0.9,0.9,1.2C123.2,41.2,123.7,41.3,124.2,41.3z"/>
		</g>
	</g>
</g>
<g>
	<g transform="translate(454.238391, 546.43444)">
		<g>
			<path class="st3" d="M112.5,85.6c0-2.3,0.4-4.1,1.4-5.2c0.9-1.2,2.3-1.8,4-1.8c0.6,0,1.1,0.1,1.5,0.2V80
				c-0.4-0.1-0.9-0.2-1.4-0.2c-1.3,0-2.3,0.4-2.9,1.2c-0.7,0.8-1,2-1.1,3.8h0.1c0.6-0.9,1.5-1.4,2.8-1.4c1.1,0,1.9,0.3,2.5,1
				c0.6,0.6,0.9,1.5,0.9,2.6c0,1.2-0.3,2.2-1,2.9c-0.7,0.7-1.6,1.1-2.7,1.1c-1.2,0-2.2-0.5-2.9-1.4
				C112.8,88.6,112.5,87.3,112.5,85.6z M116.5,89.7c0.8,0,1.4-0.2,1.8-0.7c0.4-0.5,0.6-1.2,0.6-2.1c0-0.8-0.2-1.4-0.6-1.8
				c-0.4-0.5-1-0.7-1.8-0.7c-0.5,0-0.9,0.1-1.4,0.3c-0.4,0.2-0.7,0.5-1,0.8c-0.2,0.3-0.4,0.7-0.4,1.1c0,0.6,0.1,1.1,0.3,1.6
				c0.2,0.5,0.5,0.9,0.9,1.2C115.5,89.6,116,89.7,116.5,89.7z"/>
		</g>
	</g>
</g>
<g>
	<g transform="translate(312.647972, 134.584665)">
		<g>
			<path class="st3" d="M73.5-49.3h-1.8v2.8h-1.3v-2.8h-5.8v-1.2l5.7-8.1h1.4v8h1.8V-49.3z M70.5-50.5v-4c0-0.8,0-1.7,0.1-2.6h-0.1
				c-0.3,0.5-0.5,1-0.7,1.3L66-50.5H70.5z"/>
		</g>
	</g>
</g>
<g>
	<g transform="translate(362.824195, 270.201338)">
		<g>
			<path class="st3" d="M90.3-4.1h-1.8v2.8h-1.3v-2.8h-5.8v-1.2l5.7-8.1h1.4v8h1.8V-4.1z M87.2-5.3v-4c0-0.8,0-1.7,0.1-2.6h-0.1
				c-0.3,0.5-0.5,1-0.7,1.3l-3.7,5.3H87.2z"/>
		</g>
	</g>
</g>
<g>
	<g transform="translate(337.836731, 403.990504)">
		<g>
			<path class="st3" d="M81.9,40.5h-1.8v2.8h-1.3v-2.8h-5.8v-1.2l5.7-8.1h1.4v8h1.8V40.5z M78.9,39.3v-4c0-0.8,0-1.7,0.1-2.6h-0.1
				c-0.3,0.5-0.5,1-0.7,1.3l-3.7,5.3H78.9z"/>
		</g>
	</g>
</g>
<g>
	<g transform="translate(317.491967, 546.43444)">
		<g>
			<path class="st3" d="M75.2,88h-1.8v2.8h-1.3V88h-5.8v-1.2l5.7-8.1h1.4v8h1.8V88z M72.1,86.7v-4c0-0.8,0-1.7,0.1-2.6h-0.1
				c-0.3,0.5-0.5,1-0.7,1.3l-3.7,5.3H72.1z"/>
		</g>
	</g>
</g>
<g>
	<g transform="translate(432.491006, 134.584665)">
		<g>
			<path class="st3" d="M106.6-46.6l4.9-10.7H105v-1.2h7.9v1.1l-4.9,10.8H106.6z"/>
		</g>
	</g>
</g>
<g>
	<g transform="translate(482.66721, 270.201338)">
		<g>
			<path class="st3" d="M123.3-1.4l4.9-10.7h-6.5v-1.2h7.9v1.1l-4.9,10.8H123.3z"/>
		</g>
	</g>
</g>
<g>
	<g transform="translate(515.394178, 401.089445)">
		<g>
			<path class="st3" d="M134.2,42.3l4.9-10.7h-6.5v-1.2h7.9v1.1l-4.9,10.8H134.2z"/>
		</g>
	</g>
</g>
<g>
	<g transform="translate(550.45609, 546.43444)">
		<g>
			<path class="st3" d="M145.9,90.7l4.9-10.7h-6.5v-1.2h7.9v1.1l-4.9,10.8H145.9z"/>
		</g>
	</g>
</g>
<g>
	<g transform="translate(152.818496, 79.925174)">
		<g>
			<path class="st3" d="M20.4-64.5c-1,0-1.9-0.2-2.7-0.5c-0.8-0.4-1.5-0.9-2-1.7h-0.2c0.1,0.9,0.2,1.7,0.2,2.5v6.1h-2.2v-21.6h1.8
				l0.3,2h0.1c0.6-0.8,1.3-1.4,2-1.8c0.8-0.4,1.6-0.5,2.6-0.5c2,0,3.5,0.7,4.6,2c1.1,1.3,1.6,3.2,1.6,5.7c0,2.4-0.6,4.3-1.6,5.7
				C23.8-65.2,22.3-64.5,20.4-64.5z M20-78c-1.5,0-2.6,0.4-3.3,1.3c-0.7,0.8-1,2.2-1,4v0.5c0,2.1,0.3,3.6,1,4.5
				c0.7,0.9,1.8,1.3,3.4,1.3c1.3,0,2.3-0.5,3-1.5c0.7-1,1.1-2.5,1.1-4.3c0-1.9-0.4-3.3-1.1-4.3C22.4-77.5,21.4-78,20-78z"/>
		</g>
	</g>
</g>
<g>
	<g transform="translate(102.06686, 213.537892)">
		<g>
			<path class="st3" d="M3.4-20c-1,0-1.9-0.2-2.7-0.5c-0.8-0.4-1.5-0.9-2-1.7h-0.2c0.1,0.9,0.2,1.7,0.2,2.5v6.1h-2.2v-21.6h1.8
				l0.3,2h0.1c0.6-0.8,1.3-1.4,2-1.8c0.8-0.4,1.6-0.5,2.6-0.5c2,0,3.5,0.7,4.6,2c1.1,1.3,1.6,3.2,1.6,5.7c0,2.4-0.6,4.3-1.6,5.7
				C6.9-20.6,5.4-20,3.4-20z M3.1-33.5c-1.5,0-2.6,0.4-3.3,1.3c-0.7,0.8-1,2.2-1,4v0.5c0,2.1,0.3,3.6,1,4.5c0.7,0.9,1.8,1.3,3.4,1.3
				c1.3,0,2.3-0.5,3-1.5c0.7-1,1.1-2.5,1.1-4.3c0-1.9-0.4-3.3-1.1-4.3C5.5-33,4.4-33.5,3.1-33.5z"/>
		</g>
	</g>
</g>
<g>
	<g transform="translate(60.963566, 348.103203)">
		<g>
			<path class="st3" d="M-10.3,24.9c-1,0-1.9-0.2-2.7-0.5c-0.8-0.4-1.5-0.9-2-1.7h-0.2c0.1,0.9,0.2,1.7,0.2,2.5v6.1h-2.3V9.7h1.8
				l0.3,2h0.1c0.6-0.8,1.3-1.4,2-1.8c0.8-0.4,1.6-0.5,2.6-0.5c2,0,3.5,0.7,4.6,2c1.1,1.3,1.6,3.2,1.6,5.7c0,2.4-0.6,4.3-1.6,5.7
				C-6.8,24.2-8.3,24.9-10.3,24.9z M-10.6,11.4c-1.5,0-2.6,0.4-3.3,1.3c-0.7,0.8-1,2.2-1,4v0.5c0,2.1,0.3,3.6,1,4.5
				c0.7,0.9,1.8,1.3,3.4,1.3c1.3,0,2.3-0.5,3-1.5c0.7-1,1.1-2.5,1.1-4.3c0-1.9-0.4-3.3-1.1-4.3C-8.2,11.9-9.3,11.4-10.6,11.4z"/>
		</g>
	</g>
</g>
<g>
	<g transform="translate(73.741399, 348.103203)">
		<g>
			<path class="st3" d="M-10.6,21.4l0.2,0.3c-0.2,0.9-0.6,2-1,3.1c-0.4,1.2-0.9,2.3-1.4,3.4h-1.7c0.2-0.9,0.5-2.1,0.8-3.5
				c0.3-1.4,0.5-2.5,0.6-3.3H-10.6z"/>
		</g>
	</g>
</g>
<g>
	<g transform="translate(78.852533, 348.103203)">
		<g>
			<path class="st3" d="M-5.6,23c1.5,0,2.6-0.4,3.3-1.2c0.7-0.8,1.1-2.2,1.1-4.1v-0.5c0-2.1-0.4-3.6-1.1-4.5
				c-0.7-0.9-1.8-1.4-3.4-1.4c-1.3,0-2.3,0.5-3,1.5c-0.7,1-1,2.5-1,4.4s0.3,3.3,1,4.3C-8,22.5-7,23-5.6,23z M-6,24.9
				c-1.9,0-3.4-0.7-4.5-2c-1.1-1.3-1.6-3.2-1.6-5.6c0-2.4,0.5-4.3,1.6-5.7c1.1-1.4,2.6-2,4.5-2c2,0,3.6,0.8,4.7,2.3h0.1l0.3-2H1
				v21.6h-2.2v-6.4c0-0.9,0-1.7,0.1-2.3h-0.2C-2.3,24.1-3.9,24.9-6,24.9z"/>
		</g>
	</g>
</g>
<g>
	<g transform="translate(33.487452, 494.340192)">
		<g>
			<path class="st3" d="M-19.4,73.6c-1,0-1.9-0.2-2.7-0.5c-0.8-0.4-1.5-0.9-2-1.7h-0.2c0.1,0.9,0.2,1.7,0.2,2.5V80h-2.2V58.5h1.8
				l0.3,2h0.1c0.6-0.8,1.3-1.4,2-1.8c0.8-0.4,1.6-0.5,2.6-0.5c2,0,3.5,0.7,4.6,2c1.1,1.3,1.6,3.2,1.6,5.7c0,2.4-0.6,4.3-1.6,5.7
				C-16,73-17.5,73.6-19.4,73.6z M-19.7,60.1c-1.5,0-2.6,0.4-3.3,1.3c-0.7,0.8-1,2.2-1,4v0.5c0,2.1,0.3,3.6,1,4.5
				c0.7,0.9,1.8,1.3,3.4,1.3c1.3,0,2.3-0.5,3-1.5c0.7-1,1.1-2.5,1.1-4.3c0-1.9-0.4-3.3-1.1-4.3C-17.4,60.6-18.4,60.1-19.7,60.1z"/>
		</g>
	</g>
</g>
<g>
	<g transform="translate(46.265286, 494.340192)">
		<g>
			<path class="st3" d="M-19.7,70.1l0.2,0.3c-0.2,0.9-0.6,2-1,3.1c-0.4,1.2-0.9,2.3-1.4,3.4h-1.7c0.2-0.9,0.5-2.1,0.8-3.5
				c0.3-1.4,0.5-2.5,0.6-3.3H-19.7z"/>
		</g>
	</g>
</g>
<g>
	<g transform="translate(51.37642, 494.340192)">
		<g>
			<path class="st3" d="M-13.6,58.2c0.7,0,1.2,0.1,1.8,0.1l-0.3,2.1c-0.6-0.1-1.2-0.2-1.6-0.2c-1.2,0-2.2,0.5-3.1,1.5
				c-0.8,1-1.3,2.2-1.3,3.6v8h-2.2V58.5h1.9l0.2,2.8h0.1c0.5-1,1.2-1.7,2-2.2C-15.4,58.5-14.5,58.2-13.6,58.2z"/>
		</g>
	</g>
</g>
<g>
	<g transform="translate(129.244344, 494.340192)">
		<g>
			<path class="st3" d="M12.5,73.6c-1,0-1.9-0.2-2.7-0.5c-0.8-0.4-1.5-0.9-2-1.7H7.7c0.1,0.9,0.2,1.7,0.2,2.5V80H5.6V58.5h1.8l0.3,2
				h0.1c0.6-0.8,1.3-1.4,2-1.8c0.8-0.4,1.6-0.5,2.6-0.5c2,0,3.5,0.7,4.6,2c1.1,1.3,1.6,3.2,1.6,5.7c0,2.4-0.6,4.3-1.6,5.7
				C16,73,14.4,73.6,12.5,73.6z M12.2,60.1c-1.5,0-2.6,0.4-3.3,1.3c-0.7,0.8-1,2.2-1,4v0.5c0,2.1,0.3,3.6,1,4.5
				c0.7,0.9,1.8,1.3,3.4,1.3c1.3,0,2.3-0.5,3-1.5c0.7-1,1.1-2.5,1.1-4.3c0-1.9-0.4-3.3-1.1-4.3C14.5,60.6,13.5,60.1,12.2,60.1z"/>
		</g>
	</g>
</g>
<g>
	<g transform="translate(142.022177, 494.340192)">
		<g>
			<path class="st3" d="M12.2,70.1l0.2,0.3c-0.2,0.9-0.6,2-1,3.1c-0.4,1.2-0.9,2.3-1.4,3.4H8.3c0.2-0.9,0.5-2.1,0.8-3.5
				c0.3-1.4,0.5-2.5,0.6-3.3H12.2z"/>
		</g>
	</g>
</g>
<g>
	<g transform="translate(147.133311, 494.340192)">
		<g>
			<path class="st3" d="M18.3,58.2c0.7,0,1.2,0.1,1.8,0.1l-0.3,2.1c-0.6-0.1-1.2-0.2-1.6-0.2c-1.2,0-2.2,0.5-3.1,1.5
				c-0.8,1-1.3,2.2-1.3,3.6v8h-2.2V58.5h1.9l0.2,2.8h0.1c0.5-1,1.2-1.7,2-2.2C16.5,58.5,17.4,58.2,18.3,58.2z"/>
		</g>
	</g>
</g>
<g>
	<g transform="translate(171.768154, 494.340192)">
		<g>
			<path class="st3" d="M26.7,73.6c-1,0-1.9-0.2-2.7-0.5c-0.8-0.4-1.5-0.9-2-1.7h-0.2c0.1,0.9,0.2,1.7,0.2,2.5V80h-2.2V58.5h1.8
				l0.3,2H22c0.6-0.8,1.3-1.4,2-1.8c0.8-0.4,1.6-0.5,2.6-0.5c2,0,3.5,0.7,4.6,2c1.1,1.3,1.6,3.2,1.6,5.7c0,2.4-0.6,4.3-1.6,5.7
				C30.1,73,28.6,73.6,26.7,73.6z M26.4,60.1c-1.5,0-2.6,0.4-3.3,1.3c-0.7,0.8-1,2.2-1,4v0.5c0,2.1,0.3,3.6,1,4.5
				c0.7,0.9,1.8,1.3,3.4,1.3c1.3,0,2.3-0.5,3-1.5c0.7-1,1.1-2.5,1.1-4.3c0-1.9-0.4-3.3-1.1-4.3C28.7,60.6,27.7,60.1,26.4,60.1z"/>
		</g>
	</g>
</g>
<g>
	<g transform="translate(184.545988, 494.340192)">
		<g>
			<path class="st3" d="M26.4,70.1l0.2,0.3c-0.2,0.9-0.6,2-1,3.1c-0.4,1.2-0.9,2.3-1.4,3.4h-1.7c0.2-0.9,0.5-2.1,0.8-3.5
				c0.3-1.4,0.5-2.5,0.6-3.3H26.4z"/>
		</g>
	</g>
</g>
<g>
	<g transform="translate(189.657121, 494.340192)">
		<g>
			<path class="st3" d="M32.5,58.2c0.7,0,1.2,0.1,1.8,0.1L34,60.5c-0.6-0.1-1.2-0.2-1.6-0.2c-1.2,0-2.2,0.5-3.1,1.5
				c-0.8,1-1.3,2.2-1.3,3.6v8h-2.2V58.5h1.9l0.2,2.8h0.1c0.5-1,1.2-1.7,2-2.2C30.7,58.5,31.6,58.2,32.5,58.2z"/>
		</g>
	</g>
</g>
<g>
	<g transform="translate(263.404283, 494.340192)">
		<g>
			<path class="st3" d="M57.2,73.6c-1,0-1.9-0.2-2.7-0.5c-0.8-0.4-1.5-0.9-2-1.7h-0.2c0.1,0.9,0.2,1.7,0.2,2.5V80h-2.2V58.5h1.8
				l0.3,2h0.1c0.6-0.8,1.3-1.4,2-1.8c0.8-0.4,1.6-0.5,2.6-0.5c2,0,3.5,0.7,4.6,2c1.1,1.3,1.6,3.2,1.6,5.7c0,2.4-0.6,4.3-1.6,5.7
				C60.7,73,59.2,73.6,57.2,73.6z M56.9,60.1c-1.5,0-2.6,0.4-3.3,1.3c-0.7,0.8-1,2.2-1,4v0.5c0,2.1,0.3,3.6,1,4.5
				c0.7,0.9,1.8,1.3,3.4,1.3c1.3,0,2.3-0.5,3-1.5c0.7-1,1.1-2.5,1.1-4.3c0-1.9-0.4-3.3-1.1-4.3C59.2,60.6,58.2,60.1,56.9,60.1z"/>
		</g>
	</g>
</g>
<g>
	<g transform="translate(276.182117, 494.340192)">
		<g>
			<path class="st3" d="M56.9,70.1l0.2,0.3c-0.2,0.9-0.6,2-1,3.1c-0.4,1.2-0.9,2.3-1.4,3.4H53c0.2-0.9,0.5-2.1,0.8-3.5
				c0.3-1.4,0.5-2.5,0.6-3.3H56.9z"/>
		</g>
	</g>
</g>
<g>
	<g transform="translate(281.293251, 494.340192)">
		<g>
			<path class="st3" d="M63.1,58.2c0.7,0,1.2,0.1,1.8,0.1l-0.3,2.1c-0.6-0.1-1.2-0.2-1.6-0.2c-1.2,0-2.2,0.5-3.1,1.5
				c-0.8,1-1.3,2.2-1.3,3.6v8h-2.2V58.5h1.9l0.2,2.8h0.1c0.5-1,1.2-1.7,2-2.2C61.3,58.5,62.1,58.2,63.1,58.2z"/>
		</g>
	</g>
</g>
<g>
	<g transform="translate(307.877179, 494.340192)">
		<g>
			<path class="st3" d="M72,73.6c-1,0-1.9-0.2-2.7-0.5c-0.8-0.4-1.5-0.9-2-1.7h-0.2c0.1,0.9,0.2,1.7,0.2,2.5V80h-2.2V58.5H67l0.3,2
				h0.1c0.6-0.8,1.3-1.4,2-1.8c0.8-0.4,1.6-0.5,2.6-0.5c2,0,3.5,0.7,4.6,2c1.1,1.3,1.6,3.2,1.6,5.7c0,2.4-0.6,4.3-1.6,5.7
				C75.5,73,74,73.6,72,73.6z M71.7,60.1c-1.5,0-2.6,0.4-3.3,1.3c-0.7,0.8-1,2.2-1,4v0.5c0,2.1,0.3,3.6,1,4.5
				c0.7,0.9,1.8,1.3,3.4,1.3c1.3,0,2.3-0.5,3-1.5c0.7-1,1.1-2.5,1.1-4.3c0-1.9-0.4-3.3-1.1-4.3C74.1,60.6,73,60.1,71.7,60.1z"/>
		</g>
	</g>
</g>
<g>
	<g transform="translate(320.655012, 494.340192)">
		<g>
			<path class="st3" d="M71.7,70.1l0.2,0.3c-0.2,0.9-0.6,2-1,3.1c-0.4,1.2-0.9,2.3-1.4,3.4h-1.7c0.2-0.9,0.5-2.1,0.8-3.5
				c0.3-1.4,0.5-2.5,0.6-3.3H71.7z"/>
		</g>
	</g>
</g>
<g>
	<g transform="translate(325.766146, 494.340192)">
		<g>
			<path class="st3" d="M77.9,58.2c0.7,0,1.2,0.1,1.8,0.1l-0.3,2.1c-0.6-0.1-1.2-0.2-1.6-0.2c-1.2,0-2.2,0.5-3.1,1.5
				c-0.8,1-1.3,2.2-1.3,3.6v8h-2.2V58.5h1.9l0.2,2.8h0.1c0.5-1,1.2-1.7,2-2.2C76.1,58.5,76.9,58.2,77.9,58.2z"/>
		</g>
	</g>
</g>
<g>
	<g transform="translate(402.512737, 494.340192)">
		<g>
			<path class="st3" d="M103.6,73.6c-1,0-1.9-0.2-2.7-0.5c-0.8-0.4-1.5-0.9-2-1.7h-0.2c0.1,0.9,0.2,1.7,0.2,2.5V80h-2.2V58.5h1.8
				l0.3,2h0.1c0.6-0.8,1.3-1.4,2-1.8c0.8-0.4,1.6-0.5,2.6-0.5c2,0,3.5,0.7,4.6,2c1.1,1.3,1.6,3.2,1.6,5.7c0,2.4-0.6,4.3-1.6,5.7
				C107,73,105.5,73.6,103.6,73.6z M103.3,60.1c-1.5,0-2.6,0.4-3.3,1.3c-0.7,0.8-1,2.2-1,4v0.5c0,2.1,0.3,3.6,1,4.5
				c0.7,0.9,1.8,1.3,3.4,1.3c1.3,0,2.3-0.5,3-1.5c0.7-1,1.1-2.5,1.1-4.3c0-1.9-0.4-3.3-1.1-4.3C105.6,60.6,104.6,60.1,103.3,60.1z"
				/>
		</g>
	</g>
</g>
<g>
	<g transform="translate(415.290571, 494.340192)">
		<g>
			<path class="st3" d="M103.3,70.1l0.2,0.3c-0.2,0.9-0.6,2-1,3.1c-0.4,1.2-0.9,2.3-1.4,3.4h-1.7c0.2-0.9,0.5-2.1,0.8-3.5
				c0.3-1.4,0.5-2.5,0.6-3.3H103.3z"/>
		</g>
	</g>
</g>
<g>
	<g transform="translate(420.401704, 494.340192)">
		<g>
			<path class="st3" d="M109.4,58.2c0.7,0,1.2,0.1,1.8,0.1l-0.3,2.1c-0.6-0.1-1.2-0.2-1.6-0.2c-1.2,0-2.2,0.5-3.1,1.5
				c-0.8,1-1.3,2.2-1.3,3.6v8h-2.2V58.5h1.9l0.2,2.8h0.1c0.5-1,1.2-1.7,2-2.2C107.6,58.5,108.5,58.2,109.4,58.2z"/>
		</g>
	</g>
</g>
<g>
	<g transform="translate(444.620558, 494.340192)">
		<g>
			<path class="st3" d="M117.6,73.6c-1,0-1.9-0.2-2.7-0.5c-0.8-0.4-1.5-0.9-2-1.7h-0.2c0.1,0.9,0.2,1.7,0.2,2.5V80h-2.2V58.5h1.8
				l0.3,2h0.1c0.6-0.8,1.3-1.4,2-1.8c0.8-0.4,1.6-0.5,2.6-0.5c2,0,3.5,0.7,4.6,2c1.1,1.3,1.6,3.2,1.6,5.7c0,2.4-0.6,4.3-1.6,5.7
				C121.1,73,119.6,73.6,117.6,73.6z M117.3,60.1c-1.5,0-2.6,0.4-3.3,1.3c-0.7,0.8-1,2.2-1,4v0.5c0,2.1,0.3,3.6,1,4.5
				c0.7,0.9,1.8,1.3,3.4,1.3c1.3,0,2.3-0.5,3-1.5c0.7-1,1.1-2.5,1.1-4.3c0-1.9-0.4-3.3-1.1-4.3C119.6,60.6,118.6,60.1,117.3,60.1z"
				/>
		</g>
	</g>
</g>
<g>
	<g transform="translate(457.398392, 494.340192)">
		<g>
			<path class="st3" d="M117.3,70.1l0.2,0.3c-0.2,0.9-0.6,2-1,3.1c-0.4,1.2-0.9,2.3-1.4,3.4h-1.7c0.2-0.9,0.5-2.1,0.8-3.5
				c0.3-1.4,0.5-2.5,0.6-3.3H117.3z"/>
		</g>
	</g>
</g>
<g>
	<g transform="translate(462.509526, 494.340192)">
		<g>
			<path class="st3" d="M123.5,58.2c0.7,0,1.2,0.1,1.8,0.1l-0.3,2.1c-0.6-0.1-1.2-0.2-1.6-0.2c-1.2,0-2.2,0.5-3.1,1.5
				c-0.8,1-1.3,2.2-1.3,3.6v8h-2.2V58.5h1.9l0.2,2.8h0.1c0.5-1,1.2-1.7,2-2.2C121.7,58.5,122.5,58.2,123.5,58.2z"/>
		</g>
	</g>
</g>
<g>
	<g transform="translate(540.838233, 494.340192)">
		<g>
			<path class="st3" d="M149.7,73.6c-1,0-1.9-0.2-2.7-0.5c-0.8-0.4-1.5-0.9-2-1.7h-0.2c0.1,0.9,0.2,1.7,0.2,2.5V80h-2.2V58.5h1.8
				l0.3,2h0.1c0.6-0.8,1.3-1.4,2-1.8c0.8-0.4,1.6-0.5,2.6-0.5c2,0,3.5,0.7,4.6,2c1.1,1.3,1.6,3.2,1.6,5.7c0,2.4-0.6,4.3-1.6,5.7
				C153.1,73,151.6,73.6,149.7,73.6z M149.4,60.1c-1.5,0-2.6,0.4-3.3,1.3c-0.7,0.8-1,2.2-1,4v0.5c0,2.1,0.3,3.6,1,4.5
				c0.7,0.9,1.8,1.3,3.4,1.3c1.3,0,2.3-0.5,3-1.5c0.7-1,1.1-2.5,1.1-4.3c0-1.9-0.4-3.3-1.1-4.3C151.7,60.6,150.7,60.1,149.4,60.1z"
				/>
		</g>
	</g>
</g>
<g>
	<g transform="translate(553.616067, 494.340192)">
		<g>
			<path class="st3" d="M149.4,70.1l0.2,0.3c-0.2,0.9-0.6,2-1,3.1c-0.4,1.2-0.9,2.3-1.4,3.4h-1.7c0.2-0.9,0.5-2.1,0.8-3.5
				c0.3-1.4,0.5-2.5,0.6-3.3H149.4z"/>
		</g>
	</g>
</g>
<g>
	<g transform="translate(558.7272, 494.340192)">
		<g>
			<path class="st3" d="M155.5,58.2c0.7,0,1.2,0.1,1.8,0.1l-0.3,2.1c-0.6-0.1-1.2-0.2-1.6-0.2c-1.2,0-2.2,0.5-3.1,1.5
				c-0.8,1-1.3,2.2-1.3,3.6v8h-2.2V58.5h1.9l0.2,2.8h0.1c0.5-1,1.2-1.7,2-2.2C153.7,58.5,154.6,58.2,155.5,58.2z"/>
		</g>
	</g>
</g>
<g>
	<g transform="translate(194.908676, 346.878484)">
		<g>
			<path class="st3" d="M34.4,24.5c-1,0-1.9-0.2-2.7-0.5c-0.8-0.4-1.5-0.9-2-1.7h-0.2c0.1,0.9,0.2,1.7,0.2,2.5v6.1h-2.2V9.3h1.8
				l0.3,2h0.1c0.6-0.8,1.3-1.4,2-1.8c0.8-0.4,1.6-0.5,2.6-0.5c2,0,3.5,0.7,4.6,2c1.1,1.3,1.6,3.2,1.6,5.7c0,2.4-0.6,4.3-1.6,5.7
				C37.8,23.8,36.3,24.5,34.4,24.5z M34.1,11c-1.5,0-2.6,0.4-3.3,1.3c-0.7,0.8-1,2.2-1,4v0.5c0,2.1,0.3,3.6,1,4.5
				c0.7,0.9,1.8,1.3,3.4,1.3c1.3,0,2.3-0.5,3-1.5c0.7-1,1.1-2.5,1.1-4.3c0-1.9-0.4-3.3-1.1-4.3C36.4,11.5,35.4,11,34.1,11z"/>
		</g>
	</g>
</g>
<g>
	<g transform="translate(207.68651, 346.878484)">
		<g>
			<path class="st3" d="M34.1,21l0.2,0.3c-0.2,0.9-0.6,2-1,3.1c-0.4,1.2-0.9,2.3-1.4,3.4h-1.7c0.2-0.9,0.5-2.1,0.8-3.5
				c0.3-1.4,0.5-2.5,0.6-3.3H34.1z"/>
		</g>
	</g>
</g>
<g>
	<g transform="translate(212.797643, 346.878484)">
		<g>
			<path class="st3" d="M39.1,22.6c1.5,0,2.6-0.4,3.3-1.2c0.7-0.8,1.1-2.2,1.1-4.1v-0.5c0-2.1-0.4-3.6-1.1-4.5
				c-0.7-0.9-1.8-1.4-3.4-1.4c-1.3,0-2.3,0.5-3,1.5c-0.7,1-1,2.5-1,4.4s0.3,3.3,1,4.3C36.7,22.1,37.7,22.6,39.1,22.6z M38.7,24.5
				c-1.9,0-3.4-0.7-4.5-2c-1.1-1.3-1.6-3.2-1.6-5.6c0-2.4,0.5-4.3,1.6-5.7c1.1-1.4,2.6-2,4.5-2c2,0,3.6,0.8,4.7,2.3h0.1l0.3-2h1.8
				v21.6h-2.2v-6.4c0-0.9,0-1.7,0.1-2.3h-0.2C42.4,23.7,40.8,24.5,38.7,24.5z"/>
		</g>
	</g>
</g>
<g>
	<g transform="translate(325.501689, 348.103203)">
		<g>
			<path class="st3" d="M77.9,24.9c-1,0-1.9-0.2-2.7-0.5c-0.8-0.4-1.5-0.9-2-1.7h-0.2c0.1,0.9,0.2,1.7,0.2,2.5v6.1H71V9.7h1.8l0.3,2
				h0.1c0.6-0.8,1.3-1.4,2-1.8c0.8-0.4,1.6-0.5,2.6-0.5c2,0,3.5,0.7,4.6,2c1.1,1.3,1.6,3.2,1.6,5.7c0,2.4-0.6,4.3-1.6,5.7
				C81.4,24.2,79.9,24.9,77.9,24.9z M77.6,11.4c-1.5,0-2.6,0.4-3.3,1.3c-0.7,0.8-1,2.2-1,4v0.5c0,2.1,0.3,3.6,1,4.5
				c0.7,0.9,1.8,1.3,3.4,1.3c1.3,0,2.3-0.5,3-1.5c0.7-1,1.1-2.5,1.1-4.3c0-1.9-0.4-3.3-1.1-4.3C79.9,11.9,78.9,11.4,77.6,11.4z"/>
		</g>
	</g>
</g>
<g>
	<g transform="translate(338.279523, 348.103203)">
		<g>
			<path class="st3" d="M77.6,21.4l0.2,0.3c-0.2,0.9-0.6,2-1,3.1c-0.4,1.2-0.9,2.3-1.4,3.4h-1.7c0.2-0.9,0.5-2.1,0.8-3.5
				c0.3-1.4,0.5-2.5,0.6-3.3H77.6z"/>
		</g>
	</g>
</g>
<g>
	<g transform="translate(343.390656, 348.103203)">
		<g>
			<path class="st3" d="M82.6,23c1.5,0,2.6-0.4,3.3-1.2c0.7-0.8,1.1-2.2,1.1-4.1v-0.5c0-2.1-0.4-3.6-1.1-4.5
				c-0.7-0.9-1.8-1.4-3.4-1.4c-1.3,0-2.3,0.5-3,1.5c-0.7,1-1,2.5-1,4.4s0.3,3.3,1,4.3C80.2,22.5,81.2,23,82.6,23z M82.2,24.9
				c-1.9,0-3.4-0.7-4.5-2c-1.1-1.3-1.6-3.2-1.6-5.6c0-2.4,0.5-4.3,1.6-5.7c1.1-1.4,2.6-2,4.5-2c2,0,3.6,0.8,4.7,2.3h0.1l0.3-2h1.8
				v21.6H87v-6.4c0-0.9,0-1.7,0.1-2.3h-0.2C85.9,24.1,84.3,24.9,82.2,24.9z"/>
		</g>
	</g>
</g>
<g>
	<g transform="translate(462.85844, 346.878484)">
		<g>
			<path class="st3" d="M123.7,24.5c-1,0-1.9-0.2-2.7-0.5c-0.8-0.4-1.5-0.9-2-1.7h-0.2c0.1,0.9,0.2,1.7,0.2,2.5v6.1h-2.2V9.3h1.8
				l0.3,2h0.1c0.6-0.8,1.3-1.4,2-1.8c0.8-0.4,1.6-0.5,2.6-0.5c2,0,3.5,0.7,4.6,2c1.1,1.3,1.6,3.2,1.6,5.7c0,2.4-0.6,4.3-1.6,5.7
				C127.2,23.8,125.6,24.5,123.7,24.5z M123.4,11c-1.5,0-2.6,0.4-3.3,1.3c-0.7,0.8-1,2.2-1,4v0.5c0,2.1,0.3,3.6,1,4.5
				c0.7,0.9,1.8,1.3,3.4,1.3c1.3,0,2.3-0.5,3-1.5c0.7-1,1.1-2.5,1.1-4.3c0-1.9-0.4-3.3-1.1-4.3C125.7,11.5,124.7,11,123.4,11z"/>
		</g>
	</g>
</g>
<g>
	<g transform="translate(475.636274, 346.878484)">
		<g>
			<path class="st3" d="M123.4,21l0.2,0.3c-0.2,0.9-0.6,2-1,3.1c-0.4,1.2-0.9,2.3-1.4,3.4h-1.7c0.2-0.9,0.5-2.1,0.8-3.5
				c0.3-1.4,0.5-2.5,0.6-3.3H123.4z"/>
		</g>
	</g>
</g>
<g>
	<g transform="translate(480.747407, 346.878484)">
		<g>
			<path class="st3" d="M128.4,22.6c1.5,0,2.6-0.4,3.3-1.2c0.7-0.8,1.1-2.2,1.1-4.1v-0.5c0-2.1-0.4-3.6-1.1-4.5
				c-0.7-0.9-1.8-1.4-3.4-1.4c-1.3,0-2.3,0.5-3,1.5c-0.7,1-1,2.5-1,4.4s0.3,3.3,1,4.3C126,22.1,127,22.6,128.4,22.6z M128,24.5
				c-1.9,0-3.4-0.7-4.5-2c-1.1-1.3-1.6-3.2-1.6-5.6c0-2.4,0.5-4.3,1.6-5.7c1.1-1.4,2.6-2,4.5-2c2,0,3.6,0.8,4.7,2.3h0.1l0.3-2h1.8
				v21.6h-2.2v-6.4c0-0.9,0-1.7,0.1-2.3h-0.2C131.7,23.7,130.1,24.5,128,24.5z"/>
		</g>
	</g>
</g>
<g>
	<g transform="translate(271.878445, 79.925174)">
		<g>
			<path class="st3" d="M58.7-66.4c1.5,0,2.6-0.4,3.3-1.2c0.7-0.8,1.1-2.2,1.1-4.1v-0.5c0-2.1-0.4-3.6-1.1-4.5
				c-0.7-0.9-1.8-1.4-3.4-1.4c-1.3,0-2.3,0.5-3,1.5c-0.7,1-1,2.5-1,4.4s0.3,3.3,1,4.3C56.4-66.9,57.4-66.4,58.7-66.4z M58.4-64.5
				c-1.9,0-3.4-0.7-4.5-2c-1.1-1.3-1.6-3.2-1.6-5.6c0-2.4,0.5-4.3,1.6-5.7c1.1-1.4,2.6-2,4.5-2c2,0,3.6,0.8,4.7,2.3h0.1l0.3-2h1.8
				v21.6h-2.2v-6.4c0-0.9,0-1.7,0.1-2.3h-0.2C62.1-65.3,60.5-64.5,58.4-64.5z"/>
		</g>
	</g>
</g>
<g>
	<g transform="translate(222.579526, 215.987287)">
		<g>
			<path class="st3" d="M43.5-34.6c0.7,0,1.2,0.1,1.8,0.1l-0.3,2.1c-0.6-0.1-1.2-0.2-1.6-0.2c-1.2,0-2.2,0.5-3.1,1.5
				c-0.8,1-1.3,2.2-1.3,3.6v8h-2.2v-14.9h1.9l0.2,2.8h0.1c0.5-1,1.2-1.7,2-2.2C41.7-34.3,42.5-34.6,43.5-34.6z"/>
		</g>
	</g>
</g>
<g>
	<g transform="translate(246.997732, 349.327893)">
		<g>
			<path class="st3" d="M51.6,9.9c0.7,0,1.2,0.1,1.8,0.1l-0.3,2.1c-0.6-0.1-1.2-0.2-1.6-0.2c-1.2,0-2.2,0.5-3.1,1.5
				c-0.8,1-1.3,2.2-1.3,3.6v8h-2.2V10.1h1.9l0.2,2.8h0.1c0.5-1,1.2-1.7,2-2.2C49.8,10.1,50.7,9.9,51.6,9.9z"/>
		</g>
	</g>
</g>
<g>
	<g transform="translate(377.590759, 350.552584)">
		<g>
			<path class="st3" d="M95.2,10.3c0.7,0,1.2,0.1,1.8,0.1l-0.3,2.1c-0.6-0.1-1.2-0.2-1.6-0.2c-1.2,0-2.2,0.5-3.1,1.5
				c-0.8,1-1.3,2.2-1.3,3.6v8h-2.2V10.6h1.9l0.2,2.8h0.1c0.5-1,1.2-1.7,2-2.2C93.4,10.5,94.2,10.3,95.2,10.3z"/>
		</g>
	</g>
</g>
<g>
	<g transform="translate(514.947506, 349.327893)">
		<g>
			<path class="st3" d="M140.9,9.9c0.7,0,1.2,0.1,1.8,0.1l-0.3,2.1c-0.6-0.1-1.2-0.2-1.6-0.2c-1.2,0-2.2,0.5-3.1,1.5
				c-0.8,1-1.3,2.2-1.3,3.6v8h-2.2V10.1h1.9l0.2,2.8h0.1c0.5-1,1.2-1.7,2-2.2C139.1,10.1,140,9.9,140.9,9.9z"/>
		</g>
	</g>
</g>
<g>
	<g transform="translate(140.032466, 213.537892)">
		<g>
			<path class="st3" d="M14.8-21.9c1.5,0,2.6-0.4,3.3-1.2c0.7-0.8,1.1-2.2,1.1-4.1v-0.5c0-2.1-0.4-3.6-1.1-4.5
				c-0.7-0.9-1.8-1.4-3.4-1.4c-1.3,0-2.3,0.5-3,1.5c-0.7,1-1,2.5-1,4.4s0.3,3.3,1,4.3C12.4-22.4,13.4-21.9,14.8-21.9z M14.4-20
				c-1.9,0-3.4-0.7-4.5-2c-1.1-1.3-1.6-3.2-1.6-5.6c0-2.4,0.5-4.3,1.6-5.7c1.1-1.4,2.6-2,4.5-2c2,0,3.6,0.8,4.7,2.3h0.1l0.3-2h1.8
				v21.6h-2.2v-6.4c0-0.9,0-1.7,0.1-2.3h-0.2C18.1-20.7,16.5-20,14.4-20z"/>
		</g>
	</g>
</g>
<g>
	<g transform="translate(110.011937, 348.103203)">
		<g>
			<path class="st3" d="M6,9.5c0.7,0,1.2,0.1,1.8,0.1l-0.3,2.1c-0.6-0.1-1.2-0.2-1.6-0.2c-1.2,0-2.2,0.5-3.1,1.5
				c-0.8,1-1.3,2.2-1.3,3.6v8h-2.2V9.7H1l0.3,2.8h0.1c0.5-1,1.2-1.7,2-2.2C4.2,9.7,5,9.5,6,9.5z"/>
		</g>
	</g>
</g>
<g>
	<g transform="translate(431.81728, 84.259753)">
		<g>
			<path class="st3" d="M113.2-78.5c0.7,0,1.2,0.1,1.8,0.1l-0.3,2.1c-0.6-0.1-1.2-0.2-1.6-0.2c-1.2,0-2.2,0.5-3.1,1.5
				c-0.8,1-1.3,2.2-1.3,3.6v8h-2.2v-14.9h1.9l0.2,2.8h0.1c0.5-1,1.2-1.7,2-2.2C111.4-78.2,112.3-78.5,113.2-78.5z"/>
		</g>
	</g>
</g>
<g>
	<g transform="translate(482.670258, 219.664477)">
		<g>
			<path class="st3" d="M130.2-33.3c0.7,0,1.2,0.1,1.8,0.1l-0.3,2.1c-0.6-0.1-1.2-0.2-1.6-0.2c-1.2,0-2.2,0.5-3.1,1.5
				c-0.8,1-1.3,2.2-1.3,3.6v8h-2.2v-14.9h1.9l0.2,2.7h0.1c0.5-1,1.2-1.7,2-2.2C128.4-33.1,129.2-33.3,130.2-33.3z"/>
		</g>
	</g>
</g>
<g>
	<g transform="translate(360.022567, 215.987287)">
		<g>
			<path class="st3" d="M89.4-19.2c-1,0-1.9-0.2-2.7-0.5c-0.8-0.4-1.5-0.9-2-1.7h-0.2c0.1,0.9,0.2,1.7,0.2,2.5v6.1h-2.2v-21.6h1.8
				l0.3,2h0.1c0.6-0.8,1.3-1.4,2-1.8c0.8-0.4,1.6-0.5,2.6-0.5c2,0,3.5,0.7,4.6,2c1.1,1.3,1.6,3.2,1.6,5.7c0,2.4-0.6,4.3-1.6,5.7
				C92.9-19.8,91.4-19.2,89.4-19.2z M89.1-32.7c-1.5,0-2.6,0.4-3.3,1.3c-0.7,0.8-1,2.2-1,4v0.5c0,2.1,0.3,3.6,1,4.5
				c0.7,0.9,1.8,1.3,3.4,1.3c1.3,0,2.3-0.5,3-1.5c0.7-1,1.1-2.5,1.1-4.3c0-1.9-0.4-3.3-1.1-4.3C91.4-32.2,90.4-32.7,89.1-32.7z"/>
		</g>
	</g>
</g>
<g>
	<g transform="translate(402.932819, 215.987287)">
		<g>
			<path class="st3" d="M102.4-21.1c1.5,0,2.6-0.4,3.3-1.2c0.7-0.8,1.1-2.2,1.1-4.1v-0.5c0-2.1-0.4-3.6-1.1-4.5
				c-0.7-0.9-1.8-1.4-3.4-1.4c-1.3,0-2.3,0.5-3,1.5c-0.7,1-1,2.5-1,4.4c0,1.9,0.3,3.3,1,4.3C100-21.5,101.1-21.1,102.4-21.1z
				 M102.1-19.2c-1.9,0-3.4-0.7-4.5-2c-1.1-1.3-1.6-3.2-1.6-5.6c0-2.4,0.5-4.3,1.6-5.7c1.1-1.4,2.6-2,4.5-2c2,0,3.6,0.8,4.7,2.3h0.1
				l0.3-2h1.8v21.6h-2.2v-6.4c0-0.9,0-1.7,0.1-2.3h-0.2C105.7-19.9,104.2-19.2,102.1-19.2z"/>
		</g>
	</g>
</g>
<path class="st4" d="M330,100.9l-65.6,65.6"/>
<path class="st5" d="M267.1,170.2l-7.4,1.1l1.1-7.4L267.1,170.2z"/>
<path class="st4" d="M159,273.3l-65.6,65.6"/>
<path class="st5" d="M96.1,342.6l-7.4,1.1l1.1-7.4L96.1,342.6z"/>
<path class="st4" d="M62.4,449.1l-38.8,84.2"/>
<path class="st5" d="M27.4,535.8l-6.6,3.6l-1.6-7.4L27.4,535.8z"/>
<path class="st4" d="M420.4,451.3l-38.8,84.2"/>
<path class="st5" d="M385.4,538.1l-6.6,3.6l-1.6-7.4L385.4,538.1z"/>
<path class="st4" d="M240.6,448l-38.8,84.2"/>
<path class="st5" d="M205.5,534.8l-6.6,3.6l-1.6-7.4L205.5,534.8z"/>
<path class="st4" d="M603.8,448.7L565,532.8"/>
<path class="st5" d="M568.7,535.4l-6.6,3.6l-1.6-7.4L568.7,535.4z"/>
<path class="st4" d="M505.8,273.3l-65.6,65.6"/>
<path class="st5" d="M442.9,342.6l-7.4,1.1l1.1-7.4L442.9,342.6z"/>
<path class="st4" d="M382.8,100.9l65.6,65.6"/>
<path class="st5" d="M452.1,163.9l1.1,7.4l-7.4-1.1L452.1,163.9z"/>
<path class="st4" d="M211.8,273.3l65.6,65.6"/>
<path class="st5" d="M281,336.3l1.1,7.4l-7.4-1.1L281,336.3z"/>
<path class="st4" d="M113.8,449.7l39.2,84"/>
<path class="st5" d="M157.4,532.4l-1.5,7.4l-6.6-3.6L157.4,532.4z"/>
<path class="st4" d="M471.8,451.9l39.2,84"/>
<path class="st5" d="M515.5,534.7l-1.5,7.4l-6.6-3.6L515.5,534.7z"/>
<path class="st4" d="M292,448.6l39.2,84"/>
<path class="st5" d="M335.6,531.4l-1.5,7.4l-6.6-3.6L335.6,531.4z"/>
<path class="st4" d="M655.2,449.3l39.2,84"/>
<path class="st5" d="M698.8,532l-1.5,7.4l-6.6-3.6L698.8,532z"/>
<path class="st4" d="M558.6,273.3l65.6,65.6"/>
<path class="st5" d="M627.9,336.3l1.1,7.4l-7.4-1.1L627.9,336.3z"/>
</svg>
