<?xml version="1.0" encoding="utf-8"?>
<!-- Generator: Adobe Illustrator 25.2.3, SVG Export Plug-In . SVG Version: 6.00 Build 0)  -->
<svg version="1.1" id="Layer_1" xmlns="http://www.w3.org/2000/svg" xmlns:xlink="http://www.w3.org/1999/xlink" x="0px" y="0px"
	 viewBox="0 0 635.2 455.8" style="enable-background:new 0 0 635.2 455.8;" xml:space="preserve">
<style type="text/css">
	.st0{fill:#38B6FF;}
	.st1{fill:#004AAD;}
	.st2{fill:#FFFFFF;}
	.st3{fill:#8C52FF;}
	.st4{fill:none;stroke:#FFBD59;}
	.st5{fill:#FFBD59;stroke:#FFBD59;stroke-linecap:round;stroke-linejoin:round;}
</style>
<path class="st0" d="M152.6,436h-39.1c-1.2,0-2.2-1-2.2-2.2v-39.1c0-1.2,1-2.2,2.2-2.2h39.1c1.2,0,2.2,1,2.2,2.2v39.1
	C154.8,435,153.8,436,152.6,436"/>
<path class="st1" d="M152.6,393.1c0.8,0,1.5,0.7,1.5,1.5v39.1c0,0.8-0.7,1.5-1.5,1.5h-39.1c-0.8,0-1.5-0.7-1.5-1.5v-39.1
	c0-0.8,0.7-1.5,1.5-1.5H152.6 M152.6,391.7h-39.1c-1.6,0-2.9,1.3-2.9,2.9v39.1c0,1.6,1.3,2.9,2.9,2.9h39.1c1.6,0,2.9-1.3,2.9-2.9
	v-39.1C155.5,393.1,154.2,391.7,152.6,391.7"/>
<path class="st0" d="M82.7,248.4H43.5c-1.2,0-2.2-1-2.2-2.2V207c0-1.2,1-2.2,2.2-2.2h39.1c1.2,0,2.2,1,2.2,2.2v39.1
	C84.9,247.4,83.9,248.4,82.7,248.4"/>
<path class="st1" d="M82.7,205.5c0.8,0,1.5,0.7,1.5,1.5v39.1c0,0.8-0.7,1.5-1.5,1.5H43.5c-0.8,0-1.5-0.7-1.5-1.5V207
	c0-0.8,0.7-1.5,1.5-1.5H82.7 M82.7,204.1H43.5c-1.6,0-2.9,1.3-2.9,2.9v39.1c0,1.6,1.3,2.9,2.9,2.9h39.1c1.6,0,2.9-1.3,2.9-2.9V207
	C85.6,205.4,84.3,204.1,82.7,204.1"/>
<path class="st0" d="M42.1,70H2.9c-1.2,0-2.2-1-2.2-2.2V28.7c0-1.2,1-2.2,2.2-2.2H42c1.2,0,2.2,1,2.2,2.2v39.1
	C44.2,69,43.3,70,42.1,70"/>
<path class="st1" d="M42.1,27.1c0.8,0,1.5,0.7,1.5,1.5v39.1c0,0.8-0.7,1.5-1.5,1.5H2.9c-0.8,0-1.5-0.7-1.5-1.5V28.7
	c0-0.8,0.7-1.5,1.5-1.5H42.1 M42.1,25.7H2.9c-1.6,0-2.9,1.3-2.9,2.9v39.1c0,1.6,1.3,2.9,2.9,2.9h39.1c1.6,0,2.9-1.3,2.9-2.9V28.7
	C45,27.1,43.7,25.7,42.1,25.7"/>
<path class="st0" d="M204.6,436h-39.1c-1.2,0-2.2-1-2.2-2.2v-39.1c0-1.2,1-2.2,2.2-2.2h39.1c1.2,0,2.2,1,2.2,2.2v39.1
	C206.7,435,205.8,436,204.6,436"/>
<path class="st1" d="M204.6,393.1c0.8,0,1.5,0.7,1.5,1.5v39.1c0,0.8-0.7,1.5-1.5,1.5h-39.1c-0.8,0-1.5-0.7-1.5-1.5v-39.1
	c0-0.8,0.7-1.5,1.5-1.5H204.6 M204.6,391.7h-39.1c-1.6,0-2.9,1.3-2.9,2.9v39.1c0,1.6,1.3,2.9,2.9,2.9h39.1c1.6,0,2.9-1.3,2.9-2.9
	v-39.1C207.5,393.1,206.2,391.7,204.6,391.7"/>
<path class="st0" d="M134.6,248.4H95.5c-1.2,0-2.2-1-2.2-2.2V207c0-1.2,1-2.2,2.2-2.2h39.1c1.2,0,2.2,1,2.2,2.2v39.1
	C136.8,247.4,135.8,248.4,134.6,248.4"/>
<path class="st1" d="M134.6,205.5c0.8,0,1.5,0.7,1.5,1.5v39.1c0,0.8-0.7,1.5-1.5,1.5H95.5c-0.8,0-1.5-0.7-1.5-1.5V207
	c0-0.8,0.7-1.5,1.5-1.5H134.6 M134.6,204.1H95.5c-1.6,0-2.9,1.3-2.9,2.9v39.1c0,1.6,1.3,2.9,2.9,2.9h39.1c1.6,0,2.9-1.3,2.9-2.9V207
	C137.6,205.4,136.2,204.1,134.6,204.1"/>
<path class="st0" d="M94,70H54.9c-1.2,0-2.2-1-2.2-2.2V28.7c0-1.2,1-2.2,2.2-2.2H94c1.2,0,2.2,1,2.2,2.2v39.1C96.2,69,95.2,70,94,70
	"/>
<path class="st1" d="M94,27.1c0.8,0,1.5,0.7,1.5,1.5v39.1c0,0.8-0.7,1.5-1.5,1.5H54.9c-0.8,0-1.5-0.7-1.5-1.5V28.7
	c0-0.8,0.7-1.5,1.5-1.5H94 M94,25.7H54.9c-1.6,0-2.9,1.3-2.9,2.9v39.1c0,1.6,1.3,2.9,2.9,2.9H94c1.6,0,2.9-1.3,2.9-2.9V28.7
	C96.9,27.1,95.6,25.7,94,25.7"/>
<path class="st0" d="M309.5,436h-39.1c-1.2,0-2.2-1-2.2-2.2v-39.1c0-1.2,1-2.2,2.2-2.2h39.1c1.2,0,2.2,1,2.2,2.2v39.1
	C311.7,435,310.7,436,309.5,436"/>
<path class="st1" d="M309.5,393.1c0.8,0,1.5,0.7,1.5,1.5v39.1c0,0.8-0.7,1.5-1.5,1.5h-39.1c-0.8,0-1.5-0.7-1.5-1.5v-39.1
	c0-0.8,0.7-1.5,1.5-1.5H309.5 M309.5,391.7h-39.1c-1.6,0-2.9,1.3-2.9,2.9v39.1c0,1.6,1.3,2.9,2.9,2.9h39.1c1.6,0,2.9-1.3,2.9-2.9
	v-39.1C312.4,393.1,311.1,391.7,309.5,391.7"/>
<path class="st0" d="M239.6,248.4h-39.1c-1.2,0-2.2-1-2.2-2.2V207c0-1.2,1-2.2,2.2-2.2h39.1c1.2,0,2.2,1,2.2,2.2v39.1
	C241.8,247.4,240.8,248.4,239.6,248.4"/>
<path class="st1" d="M239.6,205.5c0.8,0,1.5,0.7,1.5,1.5v39.1c0,0.8-0.7,1.5-1.5,1.5h-39.1c-0.8,0-1.5-0.7-1.5-1.5V207
	c0-0.8,0.7-1.5,1.5-1.5H239.6 M239.6,204.1h-39.1c-1.6,0-2.9,1.3-2.9,2.9v39.1c0,1.6,1.3,2.9,2.9,2.9h39.1c1.6,0,2.9-1.3,2.9-2.9
	V207C242.5,205.4,241.2,204.1,239.6,204.1"/>
<path class="st0" d="M274.4,68.4h-39.1c-1.2,0-2.2-1-2.2-2.2V27c0-1.2,1-2.2,2.2-2.2h39.1c1.2,0,2.2,1,2.2,2.2v39.1
	C276.6,67.4,275.6,68.4,274.4,68.4"/>
<path class="st1" d="M274.4,25.5c0.8,0,1.5,0.7,1.5,1.5v39.1c0,0.8-0.7,1.5-1.5,1.5h-39.1c-0.8,0-1.5-0.7-1.5-1.5V27
	c0-0.8,0.7-1.5,1.5-1.5H274.4 M274.4,24.1h-39.1c-1.6,0-2.9,1.3-2.9,2.9v39.1c0,1.6,1.3,2.9,2.9,2.9h39.1c1.6,0,2.9-1.3,2.9-2.9V27
	C277.3,25.4,276,24.1,274.4,24.1"/>
<path class="st0" d="M469.3,436h-39.1c-1.2,0-2.2-1-2.2-2.2v-39.1c0-1.2,1-2.2,2.2-2.2h39.1c1.2,0,2.2,1,2.2,2.2v39.1
	C471.5,435,470.5,436,469.3,436"/>
<path class="st1" d="M469.3,393.1c0.8,0,1.5,0.7,1.5,1.5v39.1c0,0.8-0.7,1.5-1.5,1.5h-39.1c-0.8,0-1.5-0.7-1.5-1.5v-39.1
	c0-0.8,0.7-1.5,1.5-1.5H469.3 M469.3,391.7h-39.1c-1.6,0-2.9,1.3-2.9,2.9v39.1c0,1.6,1.3,2.9,2.9,2.9h39.1c1.6,0,2.9-1.3,2.9-2.9
	v-39.1C472.2,393.1,470.9,391.7,469.3,391.7"/>
<path class="st0" d="M543.5,251h-39.1c-1.2,0-2.2-1-2.2-2.2v-39.1c0-1.2,1-2.2,2.2-2.2h39.1c1.2,0,2.2,1,2.2,2.2v39.1
	C545.7,250.1,544.7,251,543.5,251"/>
<path class="st1" d="M543.5,208.2c0.8,0,1.5,0.7,1.5,1.5v39.1c0,0.8-0.7,1.5-1.5,1.5h-39.1c-0.8,0-1.5-0.7-1.5-1.5v-39.1
	c0-0.8,0.7-1.5,1.5-1.5H543.5 M543.5,206.8h-39.1c-1.6,0-2.9,1.3-2.9,2.9v39.1c0,1.6,1.3,2.9,2.9,2.9h39.1c1.6,0,2.9-1.3,2.9-2.9
	v-39.1C546.4,208.1,545.1,206.8,543.5,206.8"/>
<path class="st0" d="M579.8,67.8h-39.1c-1.2,0-2.2-1-2.2-2.2V26.4c0-1.2,1-2.2,2.2-2.2h39.1c1.2,0,2.2,1,2.2,2.2v39.1
	C582,66.8,581,67.8,579.8,67.8"/>
<path class="st1" d="M579.8,24.9c0.8,0,1.5,0.7,1.5,1.5v39.1c0,0.8-0.7,1.5-1.5,1.5h-39.1c-0.8,0-1.5-0.7-1.5-1.5V26.4
	c0-0.8,0.7-1.5,1.5-1.5H579.8 M579.8,23.5h-39.1c-1.6,0-2.9,1.3-2.9,2.9v39.1c0,1.6,1.3,2.9,2.9,2.9h39.1c1.6,0,2.9-1.3,2.9-2.9
	V26.4C582.8,24.8,581.4,23.5,579.8,23.5"/>
<path class="st0" d="M257,436h-39.1c-1.2,0-2.2-1-2.2-2.2v-39.1c0-1.2,1-2.2,2.2-2.2H257c1.2,0,2.2,1,2.2,2.2v39.1
	C259.2,435,258.2,436,257,436"/>
<path class="st1" d="M257,393.1c0.8,0,1.5,0.7,1.5,1.5v39.1c0,0.8-0.7,1.5-1.5,1.5h-39.1c-0.8,0-1.5-0.7-1.5-1.5v-39.1
	c0-0.8,0.7-1.5,1.5-1.5H257 M257,391.7h-39.1c-1.6,0-2.9,1.3-2.9,2.9v39.1c0,1.6,1.3,2.9,2.9,2.9H257c1.6,0,2.9-1.3,2.9-2.9v-39.1
	C260,393.1,258.6,391.7,257,391.7"/>
<path class="st0" d="M187.1,248.4H148c-1.2,0-2.2-1-2.2-2.2V207c0-1.2,1-2.2,2.2-2.2h39.1c1.2,0,2.2,1,2.2,2.2v39.1
	C189.3,247.4,188.3,248.4,187.1,248.4"/>
<path class="st1" d="M187.1,205.5c0.8,0,1.5,0.7,1.5,1.5v39.1c0,0.8-0.7,1.5-1.5,1.5H148c-0.8,0-1.5-0.7-1.5-1.5V207
	c0-0.8,0.7-1.5,1.5-1.5H187.1 M187.1,204.1H148c-1.6,0-2.9,1.3-2.9,2.9v39.1c0,1.6,1.3,2.9,2.9,2.9h39.1c1.6,0,2.9-1.3,2.9-2.9V207
	C190,205.4,188.7,204.1,187.1,204.1"/>
<path class="st0" d="M221.9,68.4h-39.1c-1.2,0-2.2-1-2.2-2.2V27c0-1.2,1-2.2,2.2-2.2h39.1c1.2,0,2.2,1,2.2,2.2v39.1
	C224.1,67.4,223.1,68.4,221.9,68.4"/>
<path class="st1" d="M221.9,25.5c0.8,0,1.5,0.7,1.5,1.5v39.1c0,0.8-0.7,1.5-1.5,1.5h-39.1c-0.8,0-1.5-0.7-1.5-1.5V27
	c0-0.8,0.7-1.5,1.5-1.5H221.9 M221.9,24.1h-39.1c-1.6,0-2.9,1.3-2.9,2.9v39.1c0,1.6,1.3,2.9,2.9,2.9h39.1c1.6,0,2.9-1.3,2.9-2.9V27
	C224.8,25.4,223.5,24.1,221.9,24.1"/>
<path class="st0" d="M416.8,436h-39.1c-1.2,0-2.2-1-2.2-2.2v-39.1c0-1.2,1-2.2,2.2-2.2h39.1c1.2,0,2.2,1,2.2,2.2v39.1
	C419,435,418,436,416.8,436"/>
<path class="st1" d="M416.8,393.1c0.8,0,1.5,0.7,1.5,1.5v39.1c0,0.8-0.7,1.5-1.5,1.5h-39.1c-0.8,0-1.5-0.7-1.5-1.5v-39.1
	c0-0.8,0.7-1.5,1.5-1.5H416.8 M416.8,391.7h-39.1c-1.6,0-2.9,1.3-2.9,2.9v39.1c0,1.6,1.3,2.9,2.9,2.9h39.1c1.6,0,2.9-1.3,2.9-2.9
	v-39.1C419.7,393.1,418.4,391.7,416.8,391.7"/>
<path class="st0" d="M491,251h-39.1c-1.2,0-2.2-1-2.2-2.2v-39.1c0-1.2,1-2.2,2.2-2.2H491c1.2,0,2.2,1,2.2,2.2v39.1
	C493.2,250.1,492.2,251,491,251"/>
<path class="st1" d="M491,208.2c0.8,0,1.5,0.7,1.5,1.5v39.1c0,0.8-0.7,1.5-1.5,1.5h-39.1c-0.8,0-1.5-0.7-1.5-1.5v-39.1
	c0-0.8,0.7-1.5,1.5-1.5H491 M491,206.8h-39.1c-1.6,0-2.9,1.3-2.9,2.9v39.1c0,1.6,1.3,2.9,2.9,2.9H491c1.6,0,2.9-1.3,2.9-2.9v-39.1
	C494,208.1,492.6,206.8,491,206.8"/>
<path class="st0" d="M450.4,71.6h-39.1c-1.2,0-2.2-1-2.2-2.2V30.3c0-1.2,1-2.2,2.2-2.2h39.1c1.2,0,2.2,1,2.2,2.2v39.1
	C452.6,70.6,451.6,71.6,450.4,71.6"/>
<path class="st1" d="M450.4,28.8c0.8,0,1.5,0.7,1.5,1.5v39.1c0,0.8-0.7,1.5-1.5,1.5h-39.1c-0.8,0-1.5-0.7-1.5-1.5V30.3
	c0-0.8,0.7-1.5,1.5-1.5H450.4 M450.4,27.4h-39.1c-1.6,0-2.9,1.3-2.9,2.9v39.1c0,1.6,1.3,2.9,2.9,2.9h39.1c1.6,0,2.9-1.3,2.9-2.9
	V30.3C453.3,28.7,452,27.4,450.4,27.4"/>
<path class="st0" d="M362,436h-39.1c-1.2,0-2.2-1-2.2-2.2v-39.1c0-1.2,1-2.2,2.2-2.2h39.1c1.2,0,2.2,1,2.2,2.2v39.1
	C364.2,435,363.2,436,362,436"/>
<path class="st1" d="M362,393.1c0.8,0,1.5,0.7,1.5,1.5v39.1c0,0.8-0.7,1.5-1.5,1.5h-39.1c-0.8,0-1.5-0.7-1.5-1.5v-39.1
	c0-0.8,0.7-1.5,1.5-1.5H362 M362,391.7h-39.1c-1.6,0-2.9,1.3-2.9,2.9v39.1c0,1.6,1.3,2.9,2.9,2.9H362c1.6,0,2.9-1.3,2.9-2.9v-39.1
	C364.9,393.1,363.6,391.7,362,391.7"/>
<path class="st0" d="M436.2,251H397c-1.2,0-2.2-1-2.2-2.2v-39.1c0-1.2,1-2.2,2.2-2.2h39.1c1.2,0,2.2,1,2.2,2.2v39.1
	C438.4,250.1,437.4,251,436.2,251"/>
<path class="st1" d="M436.2,208.2c0.8,0,1.5,0.7,1.5,1.5v39.1c0,0.8-0.7,1.5-1.5,1.5H397c-0.8,0-1.5-0.7-1.5-1.5v-39.1
	c0-0.8,0.7-1.5,1.5-1.5H436.2 M436.2,206.8H397c-1.6,0-2.9,1.3-2.9,2.9v39.1c0,1.6,1.3,2.9,2.9,2.9h39.1c1.6,0,2.9-1.3,2.9-2.9
	v-39.1C439.1,208.1,437.8,206.8,436.2,206.8"/>
<path class="st0" d="M395.6,71.6h-39.1c-1.2,0-2.2-1-2.2-2.2V30.3c0-1.2,1-2.2,2.2-2.2h39.1c1.2,0,2.2,1,2.2,2.2v39.1
	C397.7,70.6,396.8,71.6,395.6,71.6"/>
<path class="st1" d="M395.6,28.8c0.8,0,1.5,0.7,1.5,1.5v39.1c0,0.8-0.7,1.5-1.5,1.5h-39.1c-0.8,0-1.5-0.7-1.5-1.5V30.3
	c0-0.8,0.7-1.5,1.5-1.5H395.6 M395.6,27.4h-39.1c-1.6,0-2.9,1.3-2.9,2.9v39.1c0,1.6,1.3,2.9,2.9,2.9h39.1c1.6,0,2.9-1.3,2.9-2.9
	V30.3C398.5,28.7,397.2,27.4,395.6,27.4"/>
<path class="st0" d="M521.8,436h-39.1c-1.2,0-2.2-1-2.2-2.2v-39.1c0-1.2,1-2.2,2.2-2.2h39.1c1.2,0,2.2,1,2.2,2.2v39.1
	C523.9,435,523,436,521.8,436"/>
<path class="st1" d="M521.8,393.1c0.8,0,1.5,0.7,1.5,1.5v39.1c0,0.8-0.7,1.5-1.5,1.5h-39.1c-0.8,0-1.5-0.7-1.5-1.5v-39.1
	c0-0.8,0.7-1.5,1.5-1.5H521.8 M521.8,391.7h-39.1c-1.6,0-2.9,1.3-2.9,2.9v39.1c0,1.6,1.3,2.9,2.9,2.9h39.1c1.6,0,2.9-1.3,2.9-2.9
	v-39.1C524.7,393.1,523.4,391.7,521.8,391.7"/>
<path class="st0" d="M596,251h-39.1c-1.2,0-2.2-1-2.2-2.2v-39.1c0-1.2,1-2.2,2.2-2.2h39.1c1.2,0,2.2,1,2.2,2.2v39.1
	C598.2,250.1,597.2,251,596,251"/>
<path class="st1" d="M596,208.2c0.8,0,1.5,0.7,1.5,1.5v39.1c0,0.8-0.7,1.5-1.5,1.5h-39.1c-0.8,0-1.5-0.7-1.5-1.5v-39.1
	c0-0.8,0.7-1.5,1.5-1.5H596 M596,206.8h-39.1c-1.6,0-2.9,1.3-2.9,2.9v39.1c0,1.6,1.3,2.9,2.9,2.9H596c1.6,0,2.9-1.3,2.9-2.9v-39.1
	C598.9,208.1,597.6,206.8,596,206.8"/>
<path class="st0" d="M632.3,67.8h-39.1c-1.2,0-2.2-1-2.2-2.2V26.4c0-1.2,1-2.2,2.2-2.2h39.1c1.2,0,2.2,1,2.2,2.2v39.1
	C634.5,66.8,633.5,67.8,632.3,67.8"/>
<path class="st1" d="M632.3,24.9c0.8,0,1.5,0.7,1.5,1.5v39.1c0,0.8-0.7,1.5-1.5,1.5h-39.1c-0.8,0-1.5-0.7-1.5-1.5V26.4
	c0-0.8,0.7-1.5,1.5-1.5H632.3 M632.3,23.5h-39.1c-1.6,0-2.9,1.3-2.9,2.9v39.1c0,1.6,1.3,2.9,2.9,2.9h39.1c1.6,0,2.9-1.3,2.9-2.9
	V26.4C635.2,24.8,633.9,23.5,632.3,23.5"/>
<g>
	<g transform="translate(152.777036, 387.65106)">
		<g>
			<path class="st2" d="M-12.4,37.8h-15.1v-3.7l5.1-5.2c1.4-1.5,2.4-2.5,2.8-3.1c0.5-0.6,0.8-1,0.9-1.4c0.2-0.4,0.3-0.8,0.3-1.3
				c0-0.5-0.2-1-0.5-1.3c-0.3-0.3-0.8-0.5-1.5-0.5c-0.7,0-1.3,0.2-2,0.6c-0.7,0.4-1.4,0.9-2.3,1.7l-3.1-3.6c1.1-1,2-1.6,2.7-2.1
				c0.7-0.4,1.5-0.7,2.4-1c0.9-0.2,1.8-0.3,2.9-0.3c1.4,0,2.6,0.2,3.6,0.7c1.1,0.5,1.9,1.2,2.5,2c0.6,0.9,0.9,1.9,0.9,3
				c0,0.8-0.1,1.6-0.3,2.3c-0.2,0.7-0.5,1.4-0.9,2c-0.4,0.7-1,1.4-1.7,2.1c-0.7,0.7-2.2,2.1-4.5,4.2v0.1h7.9V37.8z"/>
		</g>
	</g>
</g>
<g>
	<g transform="translate(100.33381, 246.938792)">
		<g>
			<path class="st2" d="M-30.6-25.5c0,1.3-0.4,2.4-1.2,3.3c-0.8,0.9-1.9,1.6-3.4,2v0.1c3.5,0.4,5.2,2.1,5.2,4.9
				c0,1.9-0.8,3.5-2.3,4.6c-1.5,1.1-3.7,1.7-6.4,1.7c-1.1,0-2.2-0.1-3.1-0.2c-1-0.2-2-0.5-3.1-0.9v-4.7c0.9,0.5,1.8,0.8,2.8,1
				c0.9,0.2,1.8,0.3,2.6,0.3c1.2,0,2.1-0.2,2.7-0.5c0.6-0.4,0.9-0.9,0.9-1.6c0-0.6-0.2-1-0.5-1.3c-0.3-0.3-0.8-0.6-1.4-0.7
				c-0.7-0.2-1.5-0.2-2.6-0.2h-1.3v-4.2h1.3c2.9,0,4.3-0.7,4.3-2.2c0-0.5-0.2-0.9-0.6-1.2c-0.4-0.3-1-0.4-1.7-0.4
				c-1.3,0-2.7,0.5-4.1,1.4l-2.4-3.8c1.1-0.8,2.2-1.3,3.4-1.6c1.2-0.3,2.5-0.5,4-0.5c2.2,0,3.9,0.4,5.1,1.3
				C-31.2-28.1-30.6-27-30.6-25.5z"/>
		</g>
	</g>
</g>
<g>
	<g transform="translate(69.873853, 113.149618)">
		<g>
			<path class="st2" d="M-53.1-53.7l7.2-16.2h-9v-4.7h15.1v3.3l-7.4,17.5H-53.1z"/>
		</g>
	</g>
</g>
<g>
	<g transform="translate(191.738823, 387.65106)">
		<g>
			<path class="st2" d="M-0.1,21.4c0,1.3-0.4,2.4-1.2,3.3c-0.8,0.9-1.9,1.6-3.4,2v0.1c3.5,0.4,5.2,2.1,5.2,4.9
				c0,1.9-0.8,3.5-2.3,4.6c-1.5,1.1-3.7,1.7-6.4,1.7c-1.1,0-2.2-0.1-3.1-0.2s-2-0.5-3.1-0.9v-4.7c0.9,0.5,1.8,0.8,2.8,1
				c0.9,0.2,1.8,0.3,2.6,0.3c1.2,0,2.1-0.2,2.7-0.5c0.6-0.4,0.9-0.9,0.9-1.6c0-0.6-0.2-1-0.5-1.3c-0.3-0.3-0.8-0.6-1.4-0.7
				c-0.7-0.2-1.5-0.2-2.6-0.2h-1.3V25h1.3c2.9,0,4.3-0.7,4.3-2.2c0-0.5-0.2-0.9-0.6-1.2c-0.4-0.3-1-0.4-1.7-0.4
				c-1.3,0-2.7,0.5-4.1,1.4l-2.4-3.8c1.1-0.8,2.2-1.3,3.4-1.6c1.2-0.3,2.5-0.5,4-0.5c2.2,0,3.9,0.4,5.1,1.3
				C-0.8,18.8-0.1,19.9-0.1,21.4z"/>
		</g>
	</g>
</g>
<g>
	<g transform="translate(139.295604, 246.938792)">
		<g>
			<path class="st2" d="M-30-9.1l7.2-16.2h-9V-30h15.1v3.3l-7.4,17.5H-30z"/>
		</g>
	</g>
</g>
<g>
	<g transform="translate(102.40878, 113.149618)">
		<g>
			<path class="st2" d="M-31.8-53.7h-5.7v-11.1c0-1.3,0-2.6,0.1-3.7c-0.3,0.4-0.8,0.9-1.3,1.3l-2.4,2l-2.9-3.6l7.2-5.8h5.1V-53.7z"
				/>
		</g>
	</g>
</g>
<g>
	<g transform="translate(115.2607, 113.149618)">
		<g>
			<path class="st2" d="M-24.3-57.7h-2.3v4h-5.6v-4h-8.3v-4.1l8.7-12.7h5.2V-62h2.3V-57.7z M-32.1-62v-2.4c0-0.5,0-1.1,0-1.8
				c0-0.8,0.1-1.2,0.1-1.2h-0.2c-0.3,0.7-0.7,1.4-1.1,2.1l-2.3,3.4H-32.1z"/>
		</g>
	</g>
</g>
<g>
	<g transform="translate(270.449535, 387.65106)">
		<g>
			<path class="st2" d="M13.7,37.8l7.2-16.2h-9v-4.7H27v3.3l-7.4,17.5H13.7z"/>
		</g>
	</g>
</g>
<g>
	<g transform="translate(211.579441, 246.938792)">
		<g>
			<path class="st2" d="M4.6-9.1h-5.7v-11.1c0-1.3,0-2.6,0.1-3.7c-0.3,0.4-0.8,0.9-1.3,1.3l-2.4,2l-2.9-3.6l7.2-5.8h5.1V-9.1z"/>
		</g>
	</g>
</g>
<g>
	<g transform="translate(224.431361, 246.938792)">
		<g>
			<path class="st2" d="M12.1-13.1H9.8v4H4.3v-4h-8.3v-4.1L4.6-30h5.2v12.6h2.3V-13.1z M4.3-17.4v-2.4c0-0.5,0-1.1,0-1.8
				c0-0.8,0.1-1.2,0.1-1.2H4.2c-0.3,0.7-0.7,1.4-1.1,2.1l-2.3,3.4H4.3z"/>
		</g>
	</g>
</g>
<g>
	<g transform="translate(237.68922, 111.924927)">
		<g>
			<path class="st2" d="M13.3-54.1H7.6v-11.1c0-1.3,0-2.6,0.1-3.7c-0.3,0.4-0.8,0.9-1.3,1.3l-2.4,2l-2.9-3.6L8.2-75h5.1V-54.1z"/>
		</g>
	</g>
</g>
<g>
	<g transform="translate(250.54114, 111.924927)">
		<g>
			<path class="st2" d="M20.1-54.1H5v-3.7l5.1-5.2c1.4-1.5,2.4-2.5,2.8-3.1c0.5-0.6,0.8-1,0.9-1.4c0.2-0.4,0.3-0.8,0.3-1.3
				c0-0.5-0.2-1-0.5-1.3c-0.3-0.3-0.8-0.5-1.5-0.5c-0.7,0-1.3,0.2-2,0.6s-1.4,0.9-2.3,1.7l-3.1-3.6c1.1-1,2-1.6,2.7-2.1
				c0.7-0.4,1.5-0.7,2.4-1c0.9-0.2,1.8-0.3,2.9-0.3c1.4,0,2.6,0.2,3.6,0.7c1.1,0.5,1.9,1.2,2.5,2c0.6,0.9,0.9,1.9,0.9,3
				c0,0.8-0.1,1.6-0.3,2.3c-0.2,0.7-0.5,1.4-0.9,2c-0.4,0.7-1,1.4-1.7,2.1c-0.7,0.7-2.2,2.1-4.5,4.2v0.1h7.9V-54.1z"/>
		</g>
	</g>
</g>
<g>
	<g transform="translate(383.862618, 387.65106)">
		<g>
			<path class="st2" d="M62,37.8h-5.7V26.7c0-1.3,0-2.6,0.1-3.7c-0.3,0.4-0.8,0.9-1.3,1.3l-2.4,2l-2.9-3.6l7.2-5.8H62V37.8z"/>
		</g>
	</g>
</g>
<g>
	<g transform="translate(396.714538, 387.65106)">
		<g>
			<path class="st2" d="M68.9,37.8H53.7v-3.7l5.1-5.2c1.4-1.5,2.4-2.5,2.8-3.1c0.5-0.6,0.8-1,0.9-1.4c0.2-0.4,0.3-0.8,0.3-1.3
				c0-0.5-0.2-1-0.5-1.3c-0.3-0.3-0.8-0.5-1.5-0.5c-0.7,0-1.3,0.2-2,0.6c-0.7,0.4-1.4,0.9-2.3,1.7L53.5,20c1.1-1,2-1.6,2.7-2.1
				c0.7-0.4,1.5-0.7,2.4-1c0.9-0.2,1.8-0.3,2.9-0.3c1.4,0,2.6,0.2,3.6,0.7c1.1,0.5,1.9,1.2,2.5,2c0.6,0.9,0.9,1.9,0.9,3
				c0,0.8-0.1,1.6-0.3,2.3c-0.2,0.7-0.5,1.4-0.9,2c-0.4,0.7-1,1.4-1.7,2.1c-0.7,0.7-2.2,2.1-4.5,4.2v0.1h7.9V37.8z"/>
		</g>
	</g>
</g>
<g>
	<g transform="translate(445.947476, 248.942745)">
		<g>
			<path class="st2" d="M85.5-19.8c0,4.1-0.9,7-2.6,8.9c-1.8,1.8-4.6,2.8-8.5,2.8c-1.3,0-2.2-0.1-2.9-0.1v-4.5
				c0.8,0.2,1.6,0.2,2.5,0.2c2,0,3.6-0.4,4.7-1.2c1.1-0.8,1.7-2.1,1.8-3.9h-0.2c-0.4,0.7-0.7,1.2-1.1,1.5c-0.4,0.3-0.8,0.5-1.3,0.7
				c-0.5,0.2-1.2,0.2-2,0.2c-1.8,0-3.2-0.6-4.2-1.8c-1-1.2-1.5-2.9-1.5-5c0-2.3,0.7-4.1,2-5.4c1.3-1.3,3.1-2,5.4-2
				c2.6,0,4.5,0.9,5.9,2.6C84.7-25.3,85.5-22.9,85.5-19.8z M77.6-25c-0.6,0-1.1,0.2-1.5,0.7c-0.4,0.4-0.6,1.2-0.6,2.1
				c0,0.8,0.2,1.4,0.5,1.9c0.3,0.5,0.8,0.7,1.5,0.7c0.6,0,1.2-0.2,1.6-0.7c0.5-0.5,0.7-1,0.7-1.6c0-0.8-0.2-1.6-0.6-2.2
				C78.8-24.7,78.2-25,77.6-25z"/>
		</g>
	</g>
</g>
<g>
	<g transform="translate(473.192685, 111.476366)">
		<g>
			<path class="st2" d="M94.4-54.3H79.2V-58l5.1-5.2c1.4-1.5,2.4-2.5,2.8-3.1c0.5-0.6,0.8-1,0.9-1.4c0.2-0.4,0.3-0.8,0.3-1.3
				c0-0.5-0.2-1-0.5-1.3c-0.3-0.3-0.8-0.5-1.5-0.5c-0.7,0-1.3,0.2-2,0.6c-0.7,0.4-1.4,0.9-2.3,1.7L79-72.1c1.1-1,2-1.6,2.7-2.1
				c0.7-0.4,1.5-0.7,2.4-1c0.9-0.2,1.8-0.3,2.9-0.3c1.4,0,2.6,0.2,3.6,0.7c1.1,0.5,1.9,1.2,2.5,2c0.6,0.9,0.9,1.9,0.9,3
				c0,0.8-0.1,1.6-0.3,2.3c-0.2,0.7-0.5,1.4-0.9,2c-0.4,0.7-1,1.4-1.7,2.1c-0.7,0.7-2.2,2.1-4.5,4.2v0.1h7.9V-54.3z"/>
		</g>
	</g>
</g>
<g>
	<g transform="translate(231.094172, 387.65106)">
		<g>
			<path class="st2" d="M-1.4,29c0-2.9,0.4-5.3,1.2-7.1c0.8-1.8,2.1-3.1,3.7-4c1.6-0.9,3.6-1.3,6-1.3c0.8,0,1.8,0.1,3,0.2v4.4
				c-1-0.2-2-0.3-3.1-0.3c-1.9,0-3.3,0.4-4.2,1.2c-0.9,0.8-1.4,2.2-1.5,4h0.2c0.9-1.6,2.2-2.4,4.1-2.4c1.9,0,3.3,0.6,4.3,1.8
				c1,1.2,1.5,2.9,1.5,5c0,2.3-0.6,4.1-1.9,5.4s-3.1,2-5.4,2c-2.5,0-4.4-0.8-5.8-2.4C-0.7,34.1-1.4,31.8-1.4,29z M6.4,33.6
				c0.6,0,1.1-0.2,1.5-0.7c0.4-0.5,0.6-1.2,0.6-2.2c0-1.7-0.7-2.5-2-2.5c-0.6,0-1.2,0.2-1.6,0.7c-0.4,0.4-0.6,1-0.6,1.6
				c0,0.9,0.2,1.7,0.6,2.2C5.2,33.3,5.8,33.6,6.4,33.6z"/>
		</g>
	</g>
</g>
<g>
	<g transform="translate(172.224092, 246.938792)">
		<g>
			<path class="st2" d="M-8.5-9.1h-5.7v-11.1c0-1.3,0-2.6,0.1-3.7c-0.3,0.4-0.8,0.9-1.3,1.3l-2.4,2l-2.9-3.6l7.2-5.8h5.1V-9.1z"/>
		</g>
	</g>
</g>
<g>
	<g transform="translate(185.076012, 246.938792)">
		<g>
			<path class="st2" d="M-1.7-9.1h-15.1v-3.7l5.1-5.2c1.4-1.5,2.4-2.5,2.8-3.1c0.5-0.6,0.8-1,0.9-1.4c0.2-0.4,0.3-0.8,0.3-1.3
				c0-0.5-0.2-1-0.5-1.3c-0.3-0.3-0.8-0.5-1.5-0.5c-0.7,0-1.3,0.2-2,0.6c-0.7,0.4-1.4,0.9-2.3,1.7l-3.1-3.6c1.1-1,2-1.6,2.7-2.1
				c0.7-0.4,1.5-0.7,2.4-1c0.9-0.2,1.8-0.3,2.9-0.3c1.4,0,2.6,0.2,3.6,0.7c1.1,0.5,1.9,1.2,2.5,2c0.6,0.9,0.9,1.9,0.9,3
				c0,0.8-0.1,1.6-0.3,2.3c-0.2,0.7-0.5,1.4-0.9,2c-0.4,0.7-1,1.4-1.7,2.1c-0.7,0.7-2.2,2.1-4.5,4.2v0.1h7.9V-9.1z"/>
		</g>
	</g>
</g>
<g>
	<g transform="translate(204.760732, 111.924927)">
		<g>
			<path class="st2" d="M4.2-70.5c0,1.3-0.4,2.4-1.2,3.3c-0.8,0.9-1.9,1.6-3.4,2v0.1c3.5,0.4,5.2,2.1,5.2,4.9c0,1.9-0.8,3.5-2.3,4.6
				c-1.5,1.1-3.7,1.7-6.4,1.7c-1.1,0-2.2-0.1-3.1-0.2c-1-0.2-2-0.5-3.1-0.9v-4.7c0.9,0.5,1.8,0.8,2.8,1c0.9,0.2,1.8,0.3,2.6,0.3
				c1.2,0,2.1-0.2,2.7-0.5c0.6-0.4,0.9-0.9,0.9-1.6c0-0.6-0.2-1-0.5-1.3c-0.3-0.3-0.8-0.6-1.4-0.7c-0.7-0.2-1.5-0.2-2.6-0.2h-1.3
				v-4.3h1.3c2.9,0,4.3-0.7,4.3-2.2c0-0.5-0.2-0.9-0.6-1.2c-0.4-0.3-1-0.4-1.7-0.4c-1.3,0-2.7,0.5-4.1,1.4l-2.4-3.8
				c1.1-0.8,2.2-1.3,3.4-1.6c1.2-0.3,2.5-0.5,4-0.5c2.2,0,3.9,0.4,5.1,1.3C3.6-73.1,4.2-72,4.2-70.5z"/>
		</g>
	</g>
</g>
<g>
	<g transform="translate(344.507284, 387.65106)">
		<g>
			<path class="st2" d="M48.9,37.8h-5.7V26.7c0-1.3,0-2.6,0.1-3.7c-0.3,0.4-0.8,0.9-1.3,1.3l-2.4,2l-2.9-3.6l7.2-5.8h5.1V37.8z"/>
		</g>
	</g>
</g>
<g>
	<g transform="translate(357.359204, 387.65106)">
		<g>
			<path class="st2" d="M53.2,37.8h-5.7V26.7c0-1.3,0-2.6,0.1-3.7c-0.3,0.4-0.8,0.9-1.3,1.3l-2.4,2l-2.9-3.6l7.2-5.8h5.1V37.8z"/>
		</g>
	</g>
</g>
<g>
	<g transform="translate(406.592067, 248.942745)">
		<g>
			<path class="st2" d="M57.1-17.3c0-2.9,0.4-5.3,1.2-7.1c0.8-1.8,2.1-3.1,3.7-4c1.6-0.9,3.6-1.3,6-1.3c0.8,0,1.8,0.1,3,0.2v4.4
				c-1-0.2-2-0.3-3.1-0.3c-1.9,0-3.3,0.4-4.2,1.2c-0.9,0.8-1.4,2.2-1.5,4h0.2c0.9-1.6,2.2-2.4,4.1-2.4c1.9,0,3.3,0.6,4.3,1.8
				c1,1.2,1.5,2.9,1.5,5c0,2.3-0.6,4.1-1.9,5.4c-1.3,1.3-3.1,2-5.4,2c-2.5,0-4.4-0.8-5.8-2.4C57.8-12.2,57.1-14.4,57.1-17.3z
				 M64.9-12.6c0.6,0,1.1-0.2,1.5-0.7c0.4-0.5,0.6-1.2,0.6-2.2c0-1.7-0.7-2.5-2-2.5c-0.6,0-1.2,0.2-1.6,0.7c-0.4,0.4-0.6,1-0.6,1.6
				c0,0.9,0.2,1.7,0.6,2.2C63.7-12.9,64.3-12.6,64.9-12.6z"/>
		</g>
	</g>
</g>
<g>
	<g transform="translate(369.696043, 114.377427)">
		<g>
			<path class="st2" d="M57.3-53.3h-5.7v-11.1c0-1.3,0-2.6,0.1-3.7c-0.3,0.4-0.8,0.9-1.3,1.3l-2.4,2l-2.9-3.6l7.2-5.8h5.1V-53.3z"/>
		</g>
	</g>
</g>
<g>
	<g transform="translate(382.547963, 114.377427)">
		<g>
			<path class="st2" d="M61.6-53.3h-5.7v-11.1c0-1.3,0-2.6,0.1-3.7c-0.3,0.4-0.8,0.9-1.3,1.3l-2.4,2l-2.9-3.6l7.2-5.8h5.1V-53.3z"/>
		</g>
	</g>
</g>
<g>
	<g transform="translate(309.804838, 387.65106)">
		<g>
			<path class="st2" d="M40.1,26.5c0,4.1-0.9,7-2.6,8.9c-1.8,1.8-4.6,2.8-8.5,2.8c-1.3,0-2.2-0.1-2.9-0.1v-4.5
				c0.8,0.2,1.6,0.2,2.5,0.2c2,0,3.6-0.4,4.7-1.2c1.1-0.8,1.7-2.1,1.8-3.9h-0.2c-0.4,0.7-0.7,1.2-1.1,1.5c-0.4,0.3-0.8,0.5-1.3,0.7
				c-0.5,0.2-1.2,0.2-2,0.2c-1.8,0-3.2-0.6-4.2-1.8c-1-1.2-1.5-2.9-1.5-5c0-2.3,0.7-4.1,2-5.4c1.3-1.3,3.1-2,5.4-2
				c2.6,0,4.5,0.9,5.9,2.6C39.4,21,40.1,23.4,40.1,26.5z M32.2,21.2c-0.6,0-1.1,0.2-1.5,0.7c-0.4,0.4-0.6,1.2-0.6,2.1
				c0,0.8,0.2,1.4,0.5,1.9c0.3,0.5,0.8,0.7,1.5,0.7c0.6,0,1.2-0.2,1.6-0.7c0.5-0.5,0.7-1,0.7-1.6c0-0.8-0.2-1.6-0.6-2.2
				C33.4,21.5,32.8,21.2,32.2,21.2z"/>
		</g>
	</g>
</g>
<g>
	<g transform="translate(365.462841, 248.942745)">
		<g>
			<path class="st2" d="M58.5-8.4H43.3v-3.7l5.1-5.2c1.4-1.5,2.4-2.5,2.8-3.1c0.5-0.6,0.8-1,0.9-1.4c0.2-0.4,0.3-0.8,0.3-1.3
				c0-0.5-0.2-1-0.5-1.3c-0.3-0.3-0.8-0.5-1.5-0.5c-0.7,0-1.3,0.2-2,0.6s-1.4,0.9-2.3,1.7l-3.1-3.6c1.1-1,2-1.6,2.7-2.1
				c0.7-0.4,1.5-0.7,2.4-1c0.9-0.2,1.8-0.3,2.9-0.3c1.4,0,2.6,0.2,3.6,0.7c1.1,0.5,1.9,1.2,2.5,2c0.6,0.9,0.9,1.9,0.9,3
				c0,0.8-0.1,1.6-0.3,2.3c-0.2,0.7-0.5,1.4-0.9,2c-0.4,0.7-1,1.4-1.7,2.1c-0.7,0.7-2.2,2.1-4.5,4.2v0.1h7.9V-8.4z"/>
		</g>
	</g>
</g>
<g>
	<g transform="translate(334.993626, 114.377427)">
		<g>
			<path class="st2" d="M48.5-64.6c0,4.1-0.9,7-2.6,8.9c-1.8,1.8-4.6,2.8-8.5,2.8c-1.3,0-2.2-0.1-2.9-0.1v-4.5
				c0.8,0.2,1.6,0.2,2.5,0.2c2,0,3.6-0.4,4.7-1.2c1.1-0.8,1.7-2.1,1.8-3.9h-0.2c-0.4,0.7-0.7,1.2-1.1,1.5c-0.4,0.3-0.8,0.5-1.3,0.7
				c-0.5,0.2-1.2,0.2-2,0.2c-1.8,0-3.2-0.6-4.2-1.8c-1-1.2-1.5-2.9-1.5-5c0-2.3,0.7-4.1,2-5.4c1.3-1.3,3.1-2,5.4-2
				c2.6,0,4.5,0.9,5.9,2.6C47.8-70.1,48.5-67.7,48.5-64.6z M40.6-69.9c-0.6,0-1.1,0.2-1.5,0.7c-0.4,0.4-0.6,1.2-0.6,2.1
				c0,0.8,0.2,1.4,0.5,1.9c0.3,0.5,0.8,0.7,1.5,0.7c0.6,0,1.2-0.2,1.6-0.7c0.5-0.5,0.7-1,0.7-1.6c0-0.8-0.2-1.6-0.6-2.2
				C41.8-69.6,41.2-69.9,40.6-69.9z"/>
		</g>
	</g>
</g>
<g>
	<g transform="translate(423.217949, 387.65106)">
		<g>
			<path class="st2" d="M75.1,37.8h-5.7V26.7c0-1.3,0-2.6,0.1-3.7c-0.3,0.4-0.8,0.9-1.3,1.3l-2.4,2l-2.9-3.6l7.2-5.8h5.1V37.8z"/>
		</g>
	</g>
</g>
<g>
	<g transform="translate(436.069869, 387.65106)">
		<g>
			<path class="st2" d="M82.7,33.8h-2.3v4h-5.6v-4h-8.3v-4.1l8.7-12.7h5.2v12.6h2.3V33.8z M74.8,29.5v-2.4c0-0.5,0-1.1,0-1.8
				c0-0.8,0.1-1.2,0.1-1.2h-0.2c-0.3,0.7-0.7,1.4-1.1,2.1l-2.3,3.4H74.8z"/>
		</g>
	</g>
</g>
<g>
	<g transform="translate(478.875936, 248.942745)">
		<g>
			<path class="st2" d="M93.7-8.4H88v-11.1c0-1.3,0-2.6,0.1-3.7c-0.3,0.4-0.8,0.9-1.3,1.3l-2.4,2l-2.9-3.6l7.2-5.8h5.1V-8.4z"/>
		</g>
	</g>
</g>
<g>
	<g transform="translate(491.727856, 248.942745)">
		<g>
			<path class="st2" d="M98-8.4h-5.7v-11.1c0-1.3,0-2.6,0.1-3.7c-0.3,0.4-0.8,0.9-1.3,1.3l-2.4,2l-2.9-3.6l7.2-5.8H98V-8.4z"/>
		</g>
	</g>
</g>
<g>
	<g transform="translate(512.547974, 111.476366)">
		<g>
			<path class="st2" d="M92.5-63.1c0-2.9,0.4-5.3,1.2-7.1c0.8-1.8,2.1-3.1,3.7-4c1.6-0.9,3.6-1.3,6-1.3c0.8,0,1.8,0.1,3,0.2v4.4
				c-1-0.2-2-0.3-3.1-0.3c-1.9,0-3.3,0.4-4.2,1.2c-0.9,0.8-1.4,2.2-1.5,4h0.2c0.9-1.6,2.2-2.4,4.1-2.4c1.9,0,3.3,0.6,4.3,1.8
				c1,1.2,1.5,2.9,1.5,5c0,2.3-0.6,4.1-1.9,5.4c-1.3,1.3-3.1,2-5.4,2c-2.5,0-4.4-0.8-5.8-2.4C93.2-58,92.5-60.2,92.5-63.1z
				 M100.2-58.4c0.6,0,1.1-0.2,1.5-0.7c0.4-0.5,0.6-1.2,0.6-2.2c0-1.7-0.7-2.5-2-2.5c-0.6,0-1.2,0.2-1.6,0.7c-0.4,0.4-0.6,1-0.6,1.6
				c0,0.9,0.2,1.7,0.6,2.2C99.1-58.7,99.6-58.4,100.2-58.4z"/>
		</g>
	</g>
</g>
<g>
	<g transform="translate(155.620153, 410.310802)">
		<g>
			<path class="st3" d="M-18.8,39.4c0,2.1-0.3,3.6-1,4.6c-0.7,1-1.6,1.5-3,1.5c-1.3,0-2.3-0.5-2.9-1.6c-0.7-1-1-2.6-1-4.6
				c0-2.1,0.3-3.6,1-4.6c0.7-1,1.6-1.5,3-1.5c1.3,0,2.3,0.5,2.9,1.6C-19.1,35.9-18.8,37.4-18.8,39.4z M-25.3,39.4
				c0,1.7,0.2,3,0.6,3.8c0.4,0.8,1.1,1.2,2,1.2c0.9,0,1.6-0.4,2-1.2c0.4-0.8,0.6-2.1,0.6-3.8c0-1.7-0.2-3-0.6-3.8
				c-0.4-0.8-1.1-1.2-2-1.2c-0.9,0-1.6,0.4-2,1.2C-25.1,36.4-25.3,37.6-25.3,39.4z"/>
		</g>
	</g>
</g>
<g>
	<g transform="translate(103.176941, 269.598534)">
		<g>
			<path class="st3" d="M-36.3-7.5c0,2.1-0.3,3.6-1,4.6c-0.7,1-1.6,1.5-3,1.5c-1.3,0-2.3-0.5-2.9-1.6c-0.7-1-1-2.6-1-4.6
				c0-2.1,0.3-3.6,1-4.6c0.7-1,1.6-1.5,3-1.5c1.3,0,2.3,0.5,2.9,1.6C-36.6-11-36.3-9.5-36.3-7.5z M-42.8-7.5c0,1.7,0.2,3,0.6,3.8
				c0.4,0.8,1.1,1.2,2,1.2c0.9,0,1.6-0.4,2-1.2c0.4-0.8,0.6-2.1,0.6-3.8s-0.2-3-0.6-3.8c-0.4-0.8-1.1-1.2-2-1.2
				c-0.9,0-1.6,0.4-2,1.2C-42.6-10.5-42.8-9.3-42.8-7.5z"/>
		</g>
	</g>
</g>
<g>
	<g transform="translate(72.71697, 135.809362)">
		<g>
			<path class="st3" d="M-46.4-52.1c0,2.1-0.3,3.6-1,4.6c-0.7,1-1.6,1.5-3,1.5c-1.3,0-2.3-0.5-2.9-1.6c-0.7-1-1-2.6-1-4.6
				c0-2.1,0.3-3.6,1-4.6c0.7-1,1.6-1.5,3-1.5c1.3,0,2.3,0.5,2.9,1.6C-46.8-55.6-46.4-54.1-46.4-52.1z M-52.9-52.1
				c0,1.7,0.2,3,0.6,3.8c0.4,0.8,1.1,1.2,2,1.2c0.9,0,1.6-0.4,2-1.2c0.4-0.8,0.6-2.1,0.6-3.8s-0.2-3-0.6-3.8c-0.4-0.8-1.1-1.2-2-1.2
				c-0.9,0-1.6,0.4-2,1.2C-52.7-55.1-52.9-53.9-52.9-52.1z"/>
		</g>
	</g>
</g>
<g>
	<g transform="translate(235.718286, 410.310802)">
		<g>
			<path class="st3" d="M7.8,45.3H0v-1.2L3.1,41c1-1,1.6-1.6,1.9-2.1c0.3-0.4,0.5-0.8,0.7-1.2C5.9,37.4,6,36.9,6,36.5
				c0-0.6-0.2-1.1-0.6-1.5c-0.4-0.4-0.9-0.6-1.6-0.6c-0.5,0-1,0.1-1.4,0.2c-0.4,0.2-0.9,0.4-1.5,0.9l-0.7-0.9
				c1.1-0.9,2.3-1.4,3.6-1.4c1.1,0,2,0.3,2.6,0.9c0.6,0.6,1,1.3,1,2.3c0,0.8-0.2,1.5-0.6,2.2c-0.4,0.7-1.2,1.7-2.4,2.8L1.7,44v0.1
				h6.1V45.3z"/>
		</g>
	</g>
</g>
<g>
	<g transform="translate(183.275081, 269.598534)">
		<g>
			<path class="st3" d="M-9.6-1.6h-7.8v-1.2l3.1-3.2c1-1,1.6-1.6,1.9-2.1c0.3-0.4,0.5-0.8,0.7-1.2c0.2-0.4,0.2-0.8,0.2-1.3
				c0-0.6-0.2-1.1-0.6-1.5c-0.4-0.4-0.9-0.6-1.6-0.6c-0.5,0-1,0.1-1.4,0.2c-0.4,0.2-0.9,0.4-1.5,0.9l-0.7-0.9
				c1.1-0.9,2.3-1.4,3.6-1.4c1.1,0,2,0.3,2.6,0.9c0.6,0.6,1,1.3,1,2.3c0,0.8-0.2,1.5-0.6,2.2c-0.4,0.7-1.2,1.7-2.4,2.8l-2.6,2.6v0.1
				h6.1V-1.6z"/>
		</g>
	</g>
</g>
<g>
	<g transform="translate(209.384848, 134.584665)">
		<g>
			<path class="st3" d="M-0.9-46.6h-7.8v-1.2l3.1-3.2c1-1,1.6-1.6,1.9-2.1c0.3-0.4,0.5-0.8,0.7-1.2c0.2-0.4,0.2-0.8,0.2-1.3
				c0-0.6-0.2-1.1-0.6-1.5c-0.4-0.4-0.9-0.6-1.6-0.6c-0.5,0-1,0.1-1.4,0.2c-0.4,0.2-0.9,0.4-1.5,0.9l-0.7-0.9
				c1.1-0.9,2.3-1.4,3.6-1.4c1.1,0,2,0.3,2.6,0.9c0.6,0.6,1,1.3,1,2.3c0,0.8-0.2,1.5-0.6,2.2c-0.4,0.7-1.2,1.7-2.4,2.8l-2.6,2.6v0.1
				h6.1V-46.6z"/>
		</g>
	</g>
</g>
<g>
	<g transform="translate(355.561311, 410.310802)">
		<g>
			<path class="st3" d="M43.7,38.1c1.3,0,2.2,0.3,3,0.9c0.7,0.6,1.1,1.5,1.1,2.6c0,1.2-0.4,2.2-1.2,2.9c-0.8,0.7-1.9,1-3.2,1
				c-1.3,0-2.4-0.2-3.1-0.6v-1.3c0.4,0.2,0.8,0.4,1.4,0.6c0.6,0.1,1.1,0.2,1.7,0.2c0.9,0,1.7-0.2,2.2-0.7c0.5-0.5,0.8-1.1,0.8-2
				c0-1.7-1-2.5-3.1-2.5c-0.5,0-1.2,0.1-2.1,0.2L40.5,39l0.4-5.6h5.9v1.2h-4.8l-0.3,3.6C42.4,38.1,43.1,38.1,43.7,38.1z"/>
		</g>
	</g>
</g>
<g>
	<g transform="translate(411.219309, 271.602473)">
		<g>
			<path class="st3" d="M62.2-8.2c1.3,0,2.2,0.3,3,0.9c0.7,0.6,1.1,1.5,1.1,2.6c0,1.2-0.4,2.2-1.2,2.9c-0.8,0.7-1.9,1-3.2,1
				c-1.3,0-2.4-0.2-3.1-0.6v-1.3c0.4,0.2,0.8,0.4,1.4,0.6c0.6,0.1,1.1,0.2,1.7,0.2c0.9,0,1.7-0.2,2.2-0.7c0.5-0.5,0.8-1.1,0.8-2
				c0-1.7-1-2.5-3.1-2.5c-0.5,0-1.2,0.1-2.1,0.2l-0.7-0.5l0.4-5.6h5.9v1.2h-4.8L60.4-8C61-8.1,61.6-8.2,62.2-8.2z"/>
		</g>
	</g>
</g>
<g>
	<g transform="translate(380.750102, 137.037177)">
		<g>
			<path class="st3" d="M52.1-53c1.3,0,2.2,0.3,3,0.9c0.7,0.6,1.1,1.5,1.1,2.6c0,1.2-0.4,2.2-1.2,2.9c-0.8,0.7-1.9,1-3.2,1
				c-1.3,0-2.4-0.2-3.1-0.6v-1.3c0.4,0.2,0.8,0.4,1.4,0.6c0.6,0.1,1.1,0.2,1.7,0.2c0.9,0,1.7-0.2,2.2-0.7c0.5-0.5,0.8-1.1,0.8-2
				c0-1.7-1-2.5-3.1-2.5c-0.5,0-1.2,0.1-2.1,0.2l-0.7-0.5l0.4-5.6h5.9v1.2h-4.8l-0.3,3.6C50.8-53,51.4-53,52.1-53z"/>
		</g>
	</g>
</g>
<g>
	<g transform="translate(194.58194, 410.310802)">
		<g>
			<path class="st3" d="M-8.7,45.3H-10v-8.5c0-0.7,0-1.4,0.1-2c-0.1,0.1-0.3,0.2-0.4,0.4c-0.1,0.1-0.8,0.7-1.9,1.6l-0.7-0.9l3.1-2.5
				h1.1V45.3z"/>
		</g>
	</g>
</g>
<g>
	<g transform="translate(142.138721, 269.598534)">
		<g>
			<path class="st3" d="M-26.2-1.6h-1.3v-8.5c0-0.7,0-1.4,0.1-2c-0.1,0.1-0.3,0.2-0.4,0.4c-0.1,0.1-0.8,0.7-1.9,1.6l-0.7-0.9
				l3.1-2.5h1.1V-1.6z"/>
		</g>
	</g>
</g>
<g>
	<g transform="translate(111.678757, 135.809362)">
		<g>
			<path class="st3" d="M-36.3-46.2h-1.3v-8.5c0-0.7,0-1.4,0.1-2c-0.1,0.1-0.3,0.2-0.4,0.4c-0.1,0.1-0.8,0.7-1.9,1.6l-0.7-0.9
				l3.1-2.5h1.1V-46.2z"/>
		</g>
	</g>
</g>
<g>
	<g transform="translate(274.680073, 410.310802)">
		<g>
			<path class="st3" d="M20.4,36.2c0,0.8-0.2,1.4-0.6,1.9c-0.4,0.5-1,0.8-1.8,1v0.1c1,0.1,1.7,0.4,2.1,0.9c0.5,0.5,0.7,1.1,0.7,1.9
				c0,1.1-0.4,2-1.2,2.6c-0.8,0.6-1.9,0.9-3.4,0.9c-0.6,0-1.2-0.1-1.7-0.1c-0.5-0.1-1-0.3-1.5-0.5v-1.3c0.5,0.2,1.1,0.4,1.6,0.6
				c0.6,0.1,1.1,0.2,1.7,0.2c2.1,0,3.1-0.8,3.1-2.4c0-1.4-1.1-2.2-3.4-2.2h-1.2v-1.2h1.2c0.9,0,1.7-0.2,2.2-0.6
				c0.6-0.4,0.8-1,0.8-1.7c0-0.6-0.2-1-0.6-1.4c-0.4-0.3-0.9-0.5-1.6-0.5c-0.5,0-1,0.1-1.5,0.2c-0.5,0.1-1,0.4-1.6,0.8L13,34.5
				c0.5-0.4,1-0.7,1.7-0.9c0.6-0.2,1.3-0.3,2-0.3c1.2,0,2.1,0.3,2.7,0.8C20.1,34.6,20.4,35.3,20.4,36.2z"/>
		</g>
	</g>
</g>
<g>
	<g transform="translate(222.236868, 269.598534)">
		<g>
			<path class="st3" d="M2.9-10.7c0,0.8-0.2,1.4-0.6,1.9c-0.4,0.5-1,0.8-1.8,1v0.1c1,0.1,1.7,0.4,2.1,0.9C3-6.4,3.3-5.7,3.3-4.9
				c0,1.1-0.4,2-1.2,2.6C1.3-1.7,0.2-1.4-1.3-1.4c-0.6,0-1.2-0.1-1.7-0.1c-0.5-0.1-1-0.3-1.5-0.5v-1.3C-4-3.1-3.5-2.9-2.9-2.7
				c0.6,0.1,1.1,0.2,1.7,0.2c2.1,0,3.1-0.8,3.1-2.4c0-1.4-1.1-2.2-3.4-2.2h-1.2v-1.2h1.2c0.9,0,1.7-0.2,2.2-0.6
				c0.6-0.4,0.8-1,0.8-1.7c0-0.6-0.2-1-0.6-1.4c-0.4-0.3-0.9-0.5-1.6-0.5c-0.5,0-1,0.1-1.5,0.2c-0.5,0.1-1,0.4-1.6,0.8l-0.7-0.9
				c0.5-0.4,1-0.7,1.7-0.9c0.6-0.2,1.3-0.3,2-0.3c1.2,0,2.1,0.3,2.7,0.8C2.6-12.3,2.9-11.6,2.9-10.7z"/>
		</g>
	</g>
</g>
<g>
	<g transform="translate(248.34665, 134.584665)">
		<g>
			<path class="st3" d="M11.6-55.7c0,0.8-0.2,1.4-0.6,1.9c-0.4,0.5-1,0.8-1.8,1v0.1c1,0.1,1.7,0.4,2.1,0.9c0.5,0.5,0.7,1.1,0.7,1.9
				c0,1.1-0.4,2-1.2,2.6c-0.8,0.6-1.9,0.9-3.4,0.9c-0.6,0-1.2-0.1-1.7-0.1c-0.5-0.1-1-0.3-1.5-0.5v-1.3c0.5,0.2,1.1,0.4,1.6,0.6
				c0.6,0.1,1.1,0.2,1.7,0.2c2.1,0,3.1-0.8,3.1-2.4c0-1.4-1.1-2.2-3.4-2.2H6v-1.2h1.2c0.9,0,1.7-0.2,2.2-0.6c0.6-0.4,0.8-1,0.8-1.7
				c0-0.6-0.2-1-0.6-1.4c-0.4-0.3-0.9-0.5-1.6-0.5c-0.5,0-1,0.1-1.5,0.2c-0.5,0.1-1,0.4-1.6,0.8l-0.7-0.9c0.5-0.4,1-0.7,1.7-0.9
				c0.6-0.2,1.3-0.3,2-0.3c1.2,0,2.1,0.3,2.7,0.8C11.3-57.3,11.6-56.6,11.6-55.7z"/>
		</g>
	</g>
</g>
<g>
	<g transform="translate(394.5231, 410.310802)">
		<g>
			<path class="st3" d="M53.1,40.2c0-2.3,0.4-4.1,1.4-5.2c0.9-1.2,2.3-1.8,4-1.8c0.6,0,1.1,0.1,1.5,0.2v1.2
				c-0.4-0.1-0.9-0.2-1.4-0.2c-1.3,0-2.3,0.4-2.9,1.2c-0.7,0.8-1,2-1.1,3.8h0.1c0.6-0.9,1.5-1.4,2.8-1.4c1.1,0,1.9,0.3,2.5,1
				c0.6,0.6,0.9,1.5,0.9,2.6c0,1.2-0.3,2.2-1,2.9c-0.7,0.7-1.6,1.1-2.7,1.1c-1.2,0-2.2-0.5-2.9-1.4C53.4,43.2,53.1,41.9,53.1,40.2z
				 M57.1,44.4c0.8,0,1.4-0.2,1.8-0.7c0.4-0.5,0.6-1.2,0.6-2.1c0-0.8-0.2-1.4-0.6-1.8c-0.4-0.5-1-0.7-1.8-0.7
				c-0.5,0-0.9,0.1-1.4,0.3c-0.4,0.2-0.7,0.5-1,0.8c-0.2,0.3-0.4,0.7-0.4,1.1c0,0.6,0.1,1.1,0.3,1.6c0.2,0.5,0.5,0.9,0.9,1.2
				C56.1,44.2,56.6,44.4,57.1,44.4z"/>
		</g>
	</g>
</g>
<g>
	<g transform="translate(450.181084, 271.602473)">
		<g>
			<path class="st3" d="M71.6-6c0-2.3,0.4-4.1,1.4-5.3c0.9-1.2,2.3-1.8,4-1.8c0.6,0,1.1,0.1,1.5,0.2v1.2c-0.4-0.1-0.9-0.2-1.4-0.2
				c-1.3,0-2.3,0.4-2.9,1.2c-0.7,0.8-1,2-1.1,3.8h0.1c0.6-0.9,1.5-1.4,2.8-1.4c1.1,0,1.9,0.3,2.5,1c0.6,0.6,0.9,1.5,0.9,2.6
				c0,1.2-0.3,2.2-1,2.9c-0.7,0.7-1.6,1.1-2.7,1.1c-1.2,0-2.2-0.5-2.9-1.4C72-3,71.6-4.3,71.6-6z M75.6-1.9c0.8,0,1.4-0.2,1.8-0.7
				c0.4-0.5,0.6-1.2,0.6-2.1c0-0.8-0.2-1.4-0.6-1.8c-0.4-0.5-1-0.7-1.8-0.7c-0.5,0-0.9,0.1-1.4,0.3c-0.4,0.2-0.7,0.5-1,0.8
				C73.1-5.8,73-5.4,73-5c0,0.6,0.1,1.1,0.3,1.6c0.2,0.5,0.5,0.9,0.9,1.2C74.7-2,75.1-1.9,75.6-1.9z"/>
		</g>
	</g>
</g>
<g>
	<g transform="translate(477.426294, 134.136118)">
		<g>
			<path class="st3" d="M80.7-51.8c0-2.3,0.4-4.1,1.4-5.2c0.9-1.2,2.3-1.8,4-1.8c0.6,0,1.1,0.1,1.5,0.2v1.2
				c-0.4-0.1-0.9-0.2-1.4-0.2c-1.3,0-2.3,0.4-2.9,1.2c-0.7,0.8-1,2-1.1,3.8h0.1c0.6-0.9,1.5-1.4,2.8-1.4c1.1,0,1.9,0.3,2.5,1
				c0.6,0.6,0.9,1.5,0.9,2.6c0,1.2-0.3,2.2-1,2.9c-0.7,0.7-1.6,1.1-2.7,1.1c-1.2,0-2.2-0.5-2.9-1.4C81.1-48.9,80.7-50.2,80.7-51.8z
				 M84.7-47.7c0.8,0,1.4-0.2,1.8-0.7c0.4-0.5,0.6-1.2,0.6-2.1c0-0.8-0.2-1.4-0.6-1.8c-0.4-0.5-1-0.7-1.8-0.7
				c-0.5,0-0.9,0.1-1.4,0.3c-0.4,0.2-0.7,0.5-1,0.8c-0.2,0.3-0.4,0.7-0.4,1.1c0,0.6,0.1,1.1,0.3,1.6c0.2,0.5,0.5,0.9,0.9,1.2
				C83.7-47.8,84.2-47.7,84.7-47.7z"/>
		</g>
	</g>
</g>
<g>
	<g transform="translate(312.647972, 410.310802)">
		<g>
			<path class="st3" d="M34.1,42.6h-1.8v2.8H31v-2.8h-5.8v-1.2l5.7-8.1h1.4v8h1.8V42.6z M31,41.4v-4c0-0.8,0-1.7,0.1-2.6H31
				c-0.3,0.5-0.5,1-0.7,1.3l-3.7,5.3H31z"/>
		</g>
	</g>
</g>
<g>
	<g transform="translate(368.305944, 271.602473)">
		<g>
			<path class="st3" d="M52.6-3.6h-1.8v2.8h-1.3v-2.8h-5.8v-1.2l5.7-8.1h1.4v8h1.8V-3.6z M49.5-4.9v-4c0-0.8,0-1.7,0.1-2.6h-0.1
				c-0.3,0.5-0.5,1-0.7,1.3l-3.7,5.3H49.5z"/>
		</g>
	</g>
</g>
<g>
	<g transform="translate(337.836731, 137.037177)">
		<g>
			<path class="st3" d="M42.5-48.5h-1.8v2.8h-1.3v-2.8h-5.8v-1.2l5.7-8.1h1.4v8h1.8V-48.5z M39.4-49.7v-4c0-0.8,0-1.7,0.1-2.6h-0.1
				c-0.3,0.5-0.5,1-0.7,1.3l-3.7,5.3H39.4z"/>
		</g>
	</g>
</g>
<g>
	<g transform="translate(432.491006, 410.310802)">
		<g>
			<path class="st3" d="M67.1,45.3L72,34.7h-6.5v-1.2h7.9v1.1l-4.9,10.8H67.1z"/>
		</g>
	</g>
</g>
<g>
	<g transform="translate(488.148969, 271.602473)">
		<g>
			<path class="st3" d="M85.7-0.9l4.9-10.7h-6.5v-1.2H92v1.1L87.2-0.9H85.7z"/>
		</g>
	</g>
</g>
<g>
	<g transform="translate(515.394178, 134.136118)">
		<g>
			<path class="st3" d="M94.7-46.7l4.9-10.7h-6.5v-1.2h7.9v1.1l-4.9,10.8H94.7z"/>
		</g>
	</g>
</g>
<g>
	<g transform="translate(152.818496, 355.651295)">
		<g>
			<path class="st3" d="M-19.1,27.4c-1,0-1.9-0.2-2.7-0.5c-0.8-0.4-1.5-0.9-2-1.7H-24c0.1,0.9,0.2,1.7,0.2,2.5v6.1h-2.2V12.3h1.8
				l0.3,2h0.1c0.6-0.8,1.3-1.4,2-1.8c0.8-0.4,1.6-0.5,2.6-0.5c2,0,3.5,0.7,4.6,2c1.1,1.3,1.6,3.2,1.6,5.7c0,2.4-0.6,4.3-1.6,5.7
				C-15.7,26.7-17.2,27.4-19.1,27.4z M-19.4,13.9c-1.5,0-2.6,0.4-3.3,1.3c-0.7,0.8-1,2.2-1,4v0.5c0,2.1,0.3,3.6,1,4.5
				c0.7,0.9,1.8,1.3,3.4,1.3c1.3,0,2.3-0.5,3-1.5c0.7-1,1.1-2.5,1.1-4.3c0-1.9-0.4-3.3-1.1-4.3C-17.1,14.4-18.1,13.9-19.4,13.9z"/>
		</g>
	</g>
</g>
<g>
	<g transform="translate(100.375284, 214.939041)">
		<g>
			<path class="st3" d="M-36.6-19.5c-1,0-1.9-0.2-2.7-0.5c-0.8-0.4-1.5-0.9-2-1.7h-0.2c0.1,0.9,0.2,1.7,0.2,2.5v6.1h-2.2v-21.6h1.8
				l0.3,2h0.1c0.6-0.8,1.3-1.4,2-1.8c0.8-0.4,1.6-0.5,2.6-0.5c2,0,3.5,0.7,4.6,2c1.1,1.3,1.6,3.2,1.6,5.7c0,2.4-0.6,4.3-1.6,5.7
				C-33.2-20.2-34.7-19.5-36.6-19.5z M-36.9-33c-1.5,0-2.6,0.4-3.3,1.3c-0.7,0.8-1,2.2-1,4v0.5c0,2.1,0.3,3.6,1,4.5
				c0.7,0.9,1.8,1.3,3.4,1.3c1.3,0,2.3-0.5,3-1.5c0.7-1,1.1-2.5,1.1-4.3c0-1.9-0.4-3.3-1.1-4.3C-34.6-32.5-35.6-33-36.9-33z"/>
		</g>
	</g>
</g>
<g>
	<g transform="translate(60.963566, 81.149869)">
		<g>
			<path class="st3" d="M-49.8-64.1c-1,0-1.9-0.2-2.7-0.5c-0.8-0.4-1.5-0.9-2-1.7h-0.2c0.1,0.9,0.2,1.7,0.2,2.5v6.1h-2.2v-21.6h1.8
				l0.3,2h0.1c0.6-0.8,1.3-1.4,2-1.8c0.8-0.4,1.6-0.5,2.6-0.5c2,0,3.5,0.7,4.6,2c1.1,1.3,1.6,3.2,1.6,5.7c0,2.4-0.6,4.3-1.6,5.7
				C-46.3-64.8-47.8-64.1-49.8-64.1z M-50.1-77.6c-1.5,0-2.6,0.4-3.3,1.3c-0.7,0.8-1,2.2-1,4v0.5c0,2.1,0.3,3.6,1,4.5
				c0.7,0.9,1.8,1.3,3.4,1.3c1.3,0,2.3-0.5,3-1.5c0.7-1,1.1-2.5,1.1-4.3c0-1.9-0.4-3.3-1.1-4.3C-47.7-77.1-48.7-77.6-50.1-77.6z"/>
		</g>
	</g>
</g>
<g>
	<g transform="translate(73.741399, 81.149869)">
		<g>
			<path class="st3" d="M-50.1-67.6l0.2,0.3c-0.2,0.9-0.6,2-1,3.1c-0.4,1.2-0.9,2.3-1.4,3.4H-54c0.2-0.9,0.5-2.1,0.8-3.5
				c0.3-1.4,0.5-2.5,0.6-3.3H-50.1z"/>
		</g>
	</g>
</g>
<g>
	<g transform="translate(78.852533, 81.149869)">
		<g>
			<path class="st3" d="M-45.1-66c1.5,0,2.6-0.4,3.3-1.2c0.7-0.8,1.1-2.2,1.1-4.1v-0.5c0-2.1-0.4-3.6-1.1-4.5
				c-0.7-0.9-1.8-1.4-3.4-1.4c-1.3,0-2.3,0.5-3,1.5c-0.7,1-1,2.5-1,4.4s0.3,3.3,1,4.3C-47.5-66.5-46.4-66-45.1-66z M-45.4-64.1
				c-1.9,0-3.4-0.7-4.5-2c-1.1-1.3-1.6-3.2-1.6-5.6c0-2.4,0.5-4.3,1.6-5.7c1.1-1.4,2.6-2,4.5-2c2,0,3.6,0.8,4.7,2.3h0.1l0.3-2h1.8
				v21.6h-2.2v-6.4c0-0.9,0-1.7,0.1-2.3h-0.2C-41.8-64.9-43.3-64.1-45.4-64.1z"/>
		</g>
	</g>
</g>
<g>
	<g transform="translate(194.908676, 79.925174)">
		<g>
			<path class="st3" d="M-5.1-64.5c-1,0-1.9-0.2-2.7-0.5c-0.8-0.4-1.5-0.9-2-1.7h-0.2c0.1,0.9,0.2,1.7,0.2,2.5v6.1H-12v-21.6h1.8
				l0.3,2h0.1c0.6-0.8,1.3-1.4,2-1.8c0.8-0.4,1.6-0.5,2.6-0.5c2,0,3.5,0.7,4.6,2c1.1,1.3,1.6,3.2,1.6,5.7c0,2.4-0.6,4.3-1.6,5.7
				C-1.6-65.2-3.2-64.5-5.1-64.5z M-5.4-78c-1.5,0-2.6,0.4-3.3,1.3c-0.7,0.8-1,2.2-1,4v0.5c0,2.1,0.3,3.6,1,4.5
				c0.7,0.9,1.8,1.3,3.4,1.3c1.3,0,2.3-0.5,3-1.5c0.7-1,1.1-2.5,1.1-4.3c0-1.9-0.4-3.3-1.1-4.3C-3.1-77.5-4.1-78-5.4-78z"/>
		</g>
	</g>
</g>
<g>
	<g transform="translate(207.68651, 79.925174)">
		<g>
			<path class="st3" d="M-5.4-68l0.2,0.3c-0.2,0.9-0.6,2-1,3.1c-0.4,1.2-0.9,2.3-1.4,3.4h-1.7c0.2-0.9,0.5-2.1,0.8-3.5
				c0.3-1.4,0.5-2.5,0.6-3.3H-5.4z"/>
		</g>
	</g>
</g>
<g>
	<g transform="translate(212.797643, 79.925174)">
		<g>
			<path class="st3" d="M-0.4-66.4c1.5,0,2.6-0.4,3.3-1.2c0.7-0.8,1.1-2.2,1.1-4.1v-0.5c0-2.1-0.4-3.6-1.1-4.5s-1.8-1.4-3.4-1.4
				c-1.3,0-2.3,0.5-3,1.5c-0.7,1-1,2.5-1,4.4s0.3,3.3,1,4.3C-2.8-66.9-1.8-66.4-0.4-66.4z M-0.8-64.5c-1.9,0-3.4-0.7-4.5-2
				c-1.1-1.3-1.6-3.2-1.6-5.6c0-2.4,0.5-4.3,1.6-5.7c1.1-1.4,2.6-2,4.5-2c2,0,3.6,0.8,4.7,2.3h0.1l0.3-2h1.8v21.6H3.9v-6.4
				c0-0.9,0-1.7,0.1-2.3H3.9C2.9-65.3,1.3-64.5-0.8-64.5z"/>
		</g>
	</g>
</g>
<g>
	<g transform="translate(325.501689, 81.149869)">
		<g>
			<path class="st3" d="M38.4-64.1c-1,0-1.9-0.2-2.7-0.5c-0.8-0.4-1.5-0.9-2-1.7h-0.2c0.1,0.9,0.2,1.7,0.2,2.5v6.1h-2.2v-21.6h1.8
				l0.3,2h0.1c0.6-0.8,1.3-1.4,2-1.8c0.8-0.4,1.6-0.5,2.6-0.5c2,0,3.5,0.7,4.6,2c1.1,1.3,1.6,3.2,1.6,5.7c0,2.4-0.6,4.3-1.6,5.7
				C41.9-64.8,40.4-64.1,38.4-64.1z M38.1-77.6c-1.5,0-2.6,0.4-3.3,1.3c-0.7,0.8-1,2.2-1,4v0.5c0,2.1,0.3,3.6,1,4.5
				c0.7,0.9,1.8,1.3,3.4,1.3c1.3,0,2.3-0.5,3-1.5c0.7-1,1.1-2.5,1.1-4.3c0-1.9-0.4-3.3-1.1-4.3C40.5-77.1,39.4-77.6,38.1-77.6z"/>
		</g>
	</g>
</g>
<g>
	<g transform="translate(338.279523, 81.149869)">
		<g>
			<path class="st3" d="M38.1-67.6l0.2,0.3c-0.2,0.9-0.6,2-1,3.1c-0.4,1.2-0.9,2.3-1.4,3.4h-1.7c0.2-0.9,0.5-2.1,0.8-3.5
				c0.3-1.4,0.5-2.5,0.6-3.3H38.1z"/>
		</g>
	</g>
</g>
<g>
	<g transform="translate(343.390656, 81.149869)">
		<g>
			<path class="st3" d="M43.1-66c1.5,0,2.6-0.4,3.3-1.2c0.7-0.8,1.1-2.2,1.1-4.1v-0.5c0-2.1-0.4-3.6-1.1-4.5s-1.8-1.4-3.4-1.4
				c-1.3,0-2.3,0.5-3,1.5c-0.7,1-1,2.5-1,4.4s0.3,3.3,1,4.3C40.7-66.5,41.7-66,43.1-66z M42.7-64.1c-1.9,0-3.4-0.7-4.5-2
				c-1.1-1.3-1.6-3.2-1.6-5.6c0-2.4,0.5-4.3,1.6-5.7c1.1-1.4,2.6-2,4.5-2c2,0,3.6,0.8,4.7,2.3h0.1l0.3-2h1.8v21.6h-2.2v-6.4
				c0-0.9,0-1.7,0.1-2.3h-0.2C46.4-64.9,44.8-64.1,42.7-64.1z"/>
		</g>
	</g>
</g>
<g>
	<g transform="translate(462.85844, 79.925174)">
		<g>
			<path class="st3" d="M84.2-64.5c-1,0-1.9-0.2-2.7-0.5c-0.8-0.4-1.5-0.9-2-1.7h-0.2c0.1,0.9,0.2,1.7,0.2,2.5v6.1h-2.2v-21.6h1.8
				l0.3,2h0.1c0.6-0.8,1.3-1.4,2-1.8c0.8-0.4,1.6-0.5,2.6-0.5c2,0,3.5,0.7,4.6,2c1.1,1.3,1.6,3.2,1.6,5.7c0,2.4-0.6,4.3-1.6,5.7
				C87.7-65.2,86.2-64.5,84.2-64.5z M83.9-78c-1.5,0-2.6,0.4-3.3,1.3c-0.7,0.8-1,2.2-1,4v0.5c0,2.1,0.3,3.6,1,4.5
				c0.7,0.9,1.8,1.3,3.4,1.3c1.3,0,2.3-0.5,3-1.5c0.7-1,1.1-2.5,1.1-4.3c0-1.9-0.4-3.3-1.1-4.3C86.2-77.5,85.2-78,83.9-78z"/>
		</g>
	</g>
</g>
<g>
	<g transform="translate(475.636274, 79.925174)">
		<g>
			<path class="st3" d="M83.9-68l0.2,0.3c-0.2,0.9-0.6,2-1,3.1c-0.4,1.2-0.9,2.3-1.4,3.4H80c0.2-0.9,0.5-2.1,0.8-3.5
				c0.3-1.4,0.5-2.5,0.6-3.3H83.9z"/>
		</g>
	</g>
</g>
<g>
	<g transform="translate(480.747407, 79.925174)">
		<g>
			<path class="st3" d="M88.9-66.4c1.5,0,2.6-0.4,3.3-1.2c0.7-0.8,1.1-2.2,1.1-4.1v-0.5c0-2.1-0.4-3.6-1.1-4.5
				c-0.7-0.9-1.8-1.4-3.4-1.4c-1.3,0-2.3,0.5-3,1.5c-0.7,1-1,2.5-1,4.4s0.3,3.3,1,4.3C86.5-66.9,87.5-66.4,88.9-66.4z M88.5-64.5
				c-1.9,0-3.4-0.7-4.5-2c-1.1-1.3-1.6-3.2-1.6-5.6c0-2.4,0.5-4.3,1.6-5.7c1.1-1.4,2.6-2,4.5-2c2,0,3.6,0.8,4.7,2.3h0.1l0.3-2h1.8
				v21.6h-2.2v-6.4c0-0.9,0-1.7,0.1-2.3h-0.2C92.2-65.3,90.6-64.5,88.5-64.5z"/>
		</g>
	</g>
</g>
<g>
	<g transform="translate(271.878445, 355.651295)">
		<g>
			<path class="st3" d="M19.3,25.5c1.5,0,2.6-0.4,3.3-1.2c0.7-0.8,1.1-2.2,1.1-4.1v-0.5c0-2.1-0.4-3.6-1.1-4.5s-1.8-1.4-3.4-1.4
				c-1.3,0-2.3,0.5-3,1.5c-0.7,1-1,2.5-1,4.4s0.3,3.3,1,4.3C16.9,25,17.9,25.5,19.3,25.5z M18.9,27.4c-1.9,0-3.4-0.7-4.5-2
				c-1.1-1.3-1.6-3.2-1.6-5.6c0-2.4,0.5-4.3,1.6-5.7c1.1-1.4,2.6-2,4.5-2c2,0,3.6,0.8,4.7,2.3h0.1l0.3-2h1.8v21.6h-2.2v-6.4
				c0-0.9,0-1.7,0.1-2.3h-0.2C22.6,26.6,21,27.4,18.9,27.4z"/>
		</g>
	</g>
</g>
<g>
	<g transform="translate(220.887952, 217.388439)">
		<g>
			<path class="st3" d="M3.4-34.1c0.7,0,1.2,0.1,1.8,0.1l-0.3,2.1c-0.6-0.1-1.2-0.2-1.6-0.2c-1.2,0-2.2,0.5-3.1,1.5
				c-0.8,1-1.3,2.2-1.3,3.6v8h-2.2v-14.9h1.9l0.2,2.8h0.1c0.5-1,1.2-1.7,2-2.2C1.6-33.8,2.5-34.1,3.4-34.1z"/>
		</g>
	</g>
</g>
<g>
	<g transform="translate(246.997732, 82.374567)">
		<g>
			<path class="st3" d="M12.1-79.1c0.7,0,1.2,0.1,1.8,0.1l-0.3,2.1C13-77,12.4-77.1,12-77.1c-1.2,0-2.2,0.5-3.1,1.5
				c-0.8,1-1.3,2.2-1.3,3.6v8H5.3v-14.9h1.9l0.2,2.8h0.1c0.5-1,1.2-1.7,2-2.2C10.3-78.8,11.2-79.1,12.1-79.1z"/>
		</g>
	</g>
</g>
<g>
	<g transform="translate(377.590759, 83.599261)">
		<g>
			<path class="st3" d="M55.7-78.7c0.7,0,1.2,0.1,1.8,0.1l-0.3,2.1c-0.6-0.1-1.2-0.2-1.6-0.2c-1.2,0-2.2,0.5-3.1,1.5
				c-0.8,1-1.3,2.2-1.3,3.6v8h-2.2v-14.9h1.9l0.2,2.8h0.1c0.5-1,1.2-1.7,2-2.2C53.9-78.4,54.7-78.7,55.7-78.7z"/>
		</g>
	</g>
</g>
<g>
	<g transform="translate(514.947506, 82.374567)">
		<g>
			<path class="st3" d="M101.5-79.1c0.7,0,1.2,0.1,1.8,0.1l-0.3,2.1c-0.6-0.1-1.2-0.2-1.6-0.2c-1.2,0-2.2,0.5-3.1,1.5
				c-0.8,1-1.3,2.2-1.3,3.6v8h-2.2v-14.9h1.9l0.2,2.8h0.1c0.5-1,1.2-1.7,2-2.2C99.7-78.8,100.5-79.1,101.5-79.1z"/>
		</g>
	</g>
</g>
<g>
	<g transform="translate(138.340892, 214.939041)">
		<g>
			<path class="st3" d="M-25.3-21.4c1.5,0,2.6-0.4,3.3-1.2c0.7-0.8,1.1-2.2,1.1-4.1v-0.5c0-2.1-0.4-3.6-1.1-4.5s-1.8-1.4-3.4-1.4
				c-1.3,0-2.3,0.5-3,1.5c-0.7,1-1,2.5-1,4.4s0.3,3.3,1,4.3C-27.6-21.9-26.6-21.4-25.3-21.4z M-25.6-19.5c-1.9,0-3.4-0.7-4.5-2
				c-1.1-1.3-1.6-3.2-1.6-5.6c0-2.4,0.5-4.3,1.6-5.7c1.1-1.4,2.6-2,4.5-2c2,0,3.6,0.8,4.7,2.3h0.1l0.3-2h1.8v21.6h-2.2v-6.4
				c0-0.9,0-1.7,0.1-2.3h-0.2C-21.9-20.3-23.5-19.5-25.6-19.5z"/>
		</g>
	</g>
</g>
<g>
	<g transform="translate(110.011937, 81.149869)">
		<g>
			<path class="st3" d="M-33.5-79.5c0.7,0,1.2,0.1,1.8,0.1l-0.3,2.1c-0.6-0.1-1.2-0.2-1.6-0.2c-1.2,0-2.2,0.5-3.1,1.5
				c-0.8,1-1.3,2.2-1.3,3.6v8h-2.2v-14.9h1.9l0.2,2.8h0.1c0.5-1,1.2-1.7,2-2.2C-35.3-79.3-34.5-79.5-33.5-79.5z"/>
		</g>
	</g>
</g>
<g>
	<g transform="translate(431.81728, 359.985864)">
		<g>
			<path class="st3" d="M73.7,13.4c0.7,0,1.2,0.1,1.8,0.1l-0.3,2.1c-0.6-0.1-1.2-0.2-1.6-0.2c-1.2,0-2.2,0.5-3.1,1.5
				c-0.8,1-1.3,2.2-1.3,3.6v8h-2.2V13.7h1.9l0.2,2.7h0.1c0.5-1,1.2-1.7,2-2.2C71.9,13.7,72.8,13.4,73.7,13.4z"/>
		</g>
	</g>
</g>
<g>
	<g transform="translate(488.152016, 221.065626)">
		<g>
			<path class="st3" d="M92.5-32.9c0.7,0,1.2,0.1,1.8,0.1L94-30.6c-0.6-0.1-1.2-0.2-1.6-0.2c-1.2,0-2.2,0.5-3.1,1.5
				c-0.8,1-1.3,2.2-1.3,3.6v8h-2.2v-14.9h1.9l0.2,2.8H88c0.5-1,1.2-1.7,2-2.2C90.7-32.6,91.6-32.9,92.5-32.9z"/>
		</g>
	</g>
</g>
<g>
	<g transform="translate(365.504287, 217.388439)">
		<g>
			<path class="st3" d="M51.8-18.7c-1,0-1.9-0.2-2.7-0.5c-0.8-0.4-1.5-0.9-2-1.7h-0.2c0.1,0.9,0.2,1.7,0.2,2.5v6.1h-2.2v-21.6h1.8
				l0.3,2h0.1c0.6-0.8,1.3-1.4,2-1.8c0.8-0.4,1.6-0.5,2.6-0.5c2,0,3.5,0.7,4.6,2c1.1,1.3,1.6,3.2,1.6,5.7c0,2.4-0.6,4.3-1.6,5.7
				C55.2-19.4,53.7-18.7,51.8-18.7z M51.4-32.2c-1.5,0-2.6,0.4-3.3,1.3c-0.7,0.8-1,2.2-1,4v0.5c0,2.1,0.3,3.6,1,4.5
				c0.7,0.9,1.8,1.3,3.4,1.3c1.3,0,2.3-0.5,3-1.5c0.7-1,1.1-2.5,1.1-4.3c0-1.9-0.4-3.3-1.1-4.3C53.8-31.7,52.8-32.2,51.4-32.2z"/>
		</g>
	</g>
</g>
<g>
	<g transform="translate(408.414553, 217.388439)">
		<g>
			<path class="st3" d="M64.8-20.6c1.5,0,2.6-0.4,3.3-1.2c0.7-0.8,1.1-2.2,1.1-4.1v-0.5c0-2.1-0.4-3.6-1.1-4.5s-1.8-1.4-3.4-1.4
				c-1.3,0-2.3,0.5-3,1.5c-0.7,1-1,2.5-1,4.4s0.3,3.3,1,4.3C62.4-21.1,63.4-20.6,64.8-20.6z M64.4-18.7c-1.9,0-3.4-0.7-4.5-2
				c-1.1-1.3-1.6-3.2-1.6-5.6c0-2.4,0.5-4.3,1.6-5.7c1.1-1.4,2.6-2,4.5-2c2,0,3.6,0.8,4.7,2.3h0.1l0.3-2h1.8v21.6h-2.2v-6.4
				c0-0.9,0-1.7,0.1-2.3h-0.2C68.1-19.4,66.5-18.7,64.4-18.7z"/>
		</g>
	</g>
</g>
<path class="st4" d="M418.4,283.4L352.8,349"/>
<path class="st5" d="M355.5,352.7l-7.4,1.1l1.1-7.4L355.5,352.7z"/>
<path class="st4" d="M227.7,95l-65.6,65.6"/>
<path class="st5" d="M164.8,164.2l-7.4,1.1l1.1-7.4L164.8,164.2z"/>
<path class="st4" d="M589.2,95l-65.6,65.6"/>
<path class="st5" d="M526.2,164.2l-7.4,1.1l1.1-7.4L526.2,164.2z"/>
<path class="st4" d="M220.9,283.4l65.6,65.6"/>
<path class="st5" d="M290.2,346.3l1.1,7.4l-7.4-1.1L290.2,346.3z"/>
<path class="st4" d="M48.4,95l65.6,65.6"/>
<path class="st5" d="M117.7,157.9l1.1,7.4l-7.4-1.1L117.7,157.9z"/>
<path class="st4" d="M405.3,95l65.6,65.6"/>
<path class="st5" d="M474.6,157.9l1.1,7.4l-7.4-1.1L474.6,157.9z"/>
</svg>
