<svg xmlns="http://www.w3.org/2000/svg" xmlns:xlink="http://www.w3.org/1999/xlink" width="500" zoomAndPan="magnify" viewBox="0 0 375 374.999991" height="500" preserveAspectRatio="xMidYMid meet" version="1.0"><defs><clipPath id="id1"><path d="M 66 172 L 334.976562 172 L 334.976562 248 L 66 248 Z M 66 172 " clip-rule="nonzero"/></clipPath><clipPath id="id2"><path d="M 66 122 L 334.976562 122 L 334.976562 218 L 66 218 Z M 66 122 " clip-rule="nonzero"/></clipPath><clipPath id="id3"><path d="M 40.226562 129 L 309 129 L 309 205 L 40.226562 205 Z M 40.226562 129 " clip-rule="nonzero"/></clipPath><clipPath id="id4"><path d="M 40.226562 79 L 309 79 L 309 175 L 40.226562 175 Z M 40.226562 79 " clip-rule="nonzero"/></clipPath><clipPath id="id5"><path d="M 66 49 L 334.976562 49 L 334.976562 125 L 66 125 Z M 66 49 " clip-rule="nonzero"/></clipPath><clipPath id="id6"><path d="M 66 0 L 334.976562 0 L 334.976562 95 L 66 95 Z M 66 0 " clip-rule="nonzero"/></clipPath></defs><path fill="rgb(97.24884%, 61.959839%, 9.799194%)" d="M 324.316406 327.761719 L 324.316406 299.609375 L 55.808594 299.609375 L 55.808594 327.761719 C 55.808594 353.839844 115.921875 374.976562 190.066406 374.976562 C 264.207031 374.976562 324.316406 353.839844 324.316406 327.761719 " fill-opacity="1" fill-rule="nonzero"/><path fill="rgb(96.078491%, 75.689697%, 8.628845%)" d="M 190.066406 344.746094 C 115.921875 344.746094 55.808594 323.609375 55.808594 297.535156 C 55.808594 271.453125 115.921875 250.316406 190.066406 250.316406 C 264.207031 250.316406 324.316406 271.453125 324.316406 297.535156 C 324.316406 323.609375 264.207031 344.746094 190.066406 344.746094 " fill-opacity="1" fill-rule="nonzero"/><path fill="rgb(97.24884%, 61.959839%, 9.799194%)" d="M 198.148438 315.964844 C 203.527344 315.609375 207.910156 314.730469 211.285156 313.328125 C 214.667969 311.929688 216.351562 310.277344 216.351562 308.390625 C 216.351562 306.695312 214.9375 305.230469 212.097656 304.007812 C 209.253906 302.789062 204.617188 301.835938 198.148438 301.183594 L 198.148438 315.964844 M 182.523438 275.65625 C 178.292969 276.152344 174.910156 277.011719 172.398438 278.21875 C 169.878906 279.449219 168.621094 280.777344 168.621094 282.242188 C 168.621094 283.589844 169.777344 284.824219 172.070312 285.980469 C 174.375 287.121094 177.84375 288.054688 182.523438 288.757812 L 182.523438 275.65625 M 182.523438 315.425781 L 182.523438 299.554688 C 168.449219 298.140625 158.132812 296.003906 151.554688 293.136719 C 144.980469 290.269531 141.695312 286.792969 141.695312 282.703125 C 141.695312 278.558594 145.40625 275.074219 152.84375 272.261719 C 160.269531 269.4375 170.167969 267.824219 182.523438 267.398438 L 182.523438 263.640625 L 198.148438 263.640625 L 198.148438 267.398438 C 209.558594 267.871094 218.632812 269.246094 225.394531 271.503906 C 232.160156 273.769531 236.460938 276.78125 238.320312 280.582031 L 211.066406 281.828125 C 209.417969 278.847656 205.101562 276.828125 198.148438 275.769531 L 198.148438 290.582031 C 215.386719 292.210938 227.136719 294.351562 233.371094 296.960938 C 239.625 299.578125 242.738281 302.933594 242.738281 307.023438 C 242.738281 311.601562 238.816406 315.445312 230.964844 318.578125 C 223.082031 321.714844 212.148438 323.625 198.148438 324.34375 L 198.148438 331.421875 L 182.523438 331.421875 L 182.523438 324.527344 C 170.09375 323.996094 160 322.367188 152.25 319.636719 C 144.496094 316.90625 139.542969 313.0625 137.382812 308.089844 L 165.5 307.023438 C 166.660156 309.035156 168.804688 310.785156 171.972656 312.257812 C 175.121094 313.707031 178.644531 314.777344 182.523438 315.425781 " fill-opacity="1" fill-rule="nonzero"/><path fill="rgb(91.369629%, 54.508972%, 10.5896%)" d="M 309.152344 346.671875 L 309.117188 346.609375 L 309.117188 321.132812 C 310.714844 320.050781 312.210938 318.960938 313.566406 317.847656 L 313.566406 343.074219 C 312.226562 344.300781 310.773438 345.503906 309.152344 346.671875 " fill-opacity="1" fill-rule="nonzero"/><path fill="rgb(91.369629%, 54.508972%, 10.5896%)" d="M 302.464844 350.90625 C 301.921875 350.765625 301.542969 350.546875 301.542969 350.292969 L 301.542969 325.628906 C 303.109375 324.8125 304.578125 323.960938 305.992188 323.117188 L 305.992188 348.804688 C 304.871094 349.523438 303.691406 350.222656 302.464844 350.90625 " fill-opacity="1" fill-rule="nonzero"/><path fill="rgb(91.369629%, 54.508972%, 10.5896%)" d="M 316.691406 339.921875 L 316.691406 315.003906 C 318.480469 313.226562 319.964844 311.382812 321.140625 309.507812 L 321.140625 332.773438 C 320.179688 335.214844 318.699219 337.609375 316.691406 339.921875 " fill-opacity="1" fill-rule="nonzero"/><path fill="rgb(91.369629%, 54.508972%, 10.5896%)" d="M 295.109375 354.640625 C 294.445312 354.507812 293.960938 354.265625 293.960938 353.972656 L 293.960938 329.214844 C 295.507812 328.550781 296.980469 327.867188 298.421875 327.183594 L 298.421875 353.058594 C 297.347656 353.59375 296.246094 354.128906 295.109375 354.640625 " fill-opacity="1" fill-rule="nonzero"/><path fill="rgb(91.369629%, 54.508972%, 10.5896%)" d="M 286.808594 358.09375 C 286.570312 357.964844 286.390625 357.816406 286.390625 357.652344 L 286.390625 332.183594 C 287.917969 331.640625 289.398438 331.066406 290.847656 330.496094 L 290.847656 356.492188 C 289.535156 357.035156 288.191406 357.570312 286.808594 358.09375 " fill-opacity="1" fill-rule="nonzero"/><path fill="rgb(91.369629%, 54.508972%, 10.5896%)" d="M 278.824219 360.859375 L 278.824219 334.71875 C 280.335938 334.257812 281.820312 333.765625 283.277344 333.277344 L 283.277344 359.382812 C 281.820312 359.894531 280.34375 360.386719 278.824219 360.859375 " fill-opacity="1" fill-rule="nonzero"/><path fill="rgb(91.369629%, 54.508972%, 10.5896%)" d="M 271.246094 363.082031 L 271.246094 336.914062 C 272.753906 336.507812 274.246094 336.097656 275.699219 335.679688 L 275.699219 361.816406 C 274.242188 362.253906 272.757812 362.675781 271.246094 363.082031 " fill-opacity="1" fill-rule="nonzero"/><path fill="rgb(91.369629%, 54.508972%, 10.5896%)" d="M 263.671875 365.03125 L 263.671875 338.792969 C 265.183594 338.445312 266.660156 338.082031 268.128906 337.710938 L 268.128906 363.917969 C 266.660156 364.296875 265.183594 364.667969 263.671875 365.03125 " fill-opacity="1" fill-rule="nonzero"/><path fill="rgb(91.369629%, 54.508972%, 10.5896%)" d="M 256.101562 366.671875 L 256.101562 340.417969 C 257.601562 340.117188 259.085938 339.8125 260.546875 339.492188 L 260.546875 365.722656 C 259.085938 366.054688 257.601562 366.367188 256.101562 366.671875 " fill-opacity="1" fill-rule="nonzero"/><path fill="rgb(91.369629%, 54.508972%, 10.5896%)" d="M 248.53125 368.101562 L 248.53125 341.820312 C 250.03125 341.5625 251.507812 341.304688 252.976562 341.019531 L 252.976562 367.296875 C 251.511719 367.574219 250.015625 367.84375 248.53125 368.101562 " fill-opacity="1" fill-rule="nonzero"/><path fill="rgb(91.369629%, 54.508972%, 10.5896%)" d="M 240.953125 369.316406 L 240.953125 343.003906 C 242.449219 342.792969 243.933594 342.570312 245.398438 342.324219 L 245.398438 368.617188 C 243.933594 368.855469 242.449219 369.09375 240.953125 369.316406 " fill-opacity="1" fill-rule="nonzero"/><path fill="rgb(91.369629%, 54.508972%, 10.5896%)" d="M 139.183594 369.316406 C 137.679688 369.09375 136.195312 368.855469 134.734375 368.617188 L 134.734375 342.324219 C 136.195312 342.570312 137.679688 342.792969 139.183594 343.003906 L 139.183594 369.316406 " fill-opacity="1" fill-rule="nonzero"/><path fill="rgb(91.369629%, 54.508972%, 10.5896%)" d="M 131.597656 368.101562 C 130.105469 367.84375 128.617188 367.574219 127.15625 367.296875 L 127.15625 341.019531 C 128.625 341.304688 130.101562 341.5625 131.597656 341.820312 L 131.597656 368.101562 " fill-opacity="1" fill-rule="nonzero"/><path fill="rgb(91.369629%, 54.508972%, 10.5896%)" d="M 124.027344 366.671875 C 122.527344 366.367188 121.042969 366.054688 119.578125 365.722656 L 119.578125 339.492188 C 121.042969 339.8125 122.527344 340.117188 124.027344 340.417969 L 124.027344 366.671875 " fill-opacity="1" fill-rule="nonzero"/><path fill="rgb(91.369629%, 54.508972%, 10.5896%)" d="M 116.457031 365.03125 C 114.949219 364.667969 113.464844 364.296875 112.003906 363.917969 L 112.003906 337.710938 C 113.464844 338.082031 114.949219 338.445312 116.457031 338.792969 L 116.457031 365.03125 " fill-opacity="1" fill-rule="nonzero"/><path fill="rgb(91.369629%, 54.508972%, 10.5896%)" d="M 108.882812 363.082031 C 107.371094 362.675781 105.886719 362.253906 104.429688 361.816406 L 104.429688 335.679688 C 105.878906 336.097656 107.375 336.507812 108.882812 336.914062 L 108.882812 363.082031 " fill-opacity="1" fill-rule="nonzero"/><path fill="rgb(91.369629%, 54.508972%, 10.5896%)" d="M 177.042969 372.65625 C 175.546875 372.601562 174.078125 372.535156 172.597656 372.472656 L 172.597656 346.113281 C 174.078125 346.183594 175.546875 346.25 177.042969 346.300781 L 177.042969 372.65625 " fill-opacity="1" fill-rule="nonzero"/><path fill="rgb(91.369629%, 54.508972%, 10.5896%)" d="M 169.472656 372.316406 C 167.980469 372.242188 166.5 372.136719 165.019531 372.039062 L 165.019531 345.695312 C 166.5 345.789062 167.980469 345.898438 169.472656 345.976562 L 169.472656 372.316406 " fill-opacity="1" fill-rule="nonzero"/><path fill="rgb(91.369629%, 54.508972%, 10.5896%)" d="M 184.621094 372.847656 C 183.132812 372.8125 181.640625 372.777344 180.171875 372.742188 L 180.171875 346.386719 C 181.640625 346.421875 183.132812 346.453125 184.621094 346.480469 L 184.621094 372.847656 " fill-opacity="1" fill-rule="nonzero"/><path fill="rgb(91.369629%, 54.508972%, 10.5896%)" d="M 190.066406 372.890625 C 189.285156 372.890625 188.511719 372.871094 187.746094 372.859375 L 187.746094 346.503906 C 188.511719 346.511719 189.285156 346.523438 190.066406 346.523438 C 190.777344 346.523438 191.484375 346.515625 192.191406 346.511719 L 192.191406 372.859375 C 191.484375 372.871094 190.777344 372.890625 190.066406 372.890625 " fill-opacity="1" fill-rule="nonzero"/><path fill="rgb(91.369629%, 54.508972%, 10.5896%)" d="M 195.324219 372.847656 L 195.324219 346.480469 C 196.804688 346.460938 198.289062 346.433594 199.773438 346.394531 L 199.773438 372.75 C 198.289062 372.785156 196.804688 372.8125 195.324219 372.847656 " fill-opacity="1" fill-rule="nonzero"/><path fill="rgb(91.369629%, 54.508972%, 10.5896%)" d="M 202.894531 372.660156 L 202.894531 346.316406 C 204.386719 346.253906 205.863281 346.1875 207.34375 346.121094 L 207.34375 372.480469 C 205.863281 372.542969 204.386719 372.617188 202.894531 372.660156 " fill-opacity="1" fill-rule="nonzero"/><path fill="rgb(91.369629%, 54.508972%, 10.5896%)" d="M 210.464844 372.332031 L 210.464844 345.988281 C 211.960938 345.90625 213.429688 345.804688 214.921875 345.703125 L 214.921875 372.054688 C 213.429688 372.152344 211.960938 372.25 210.464844 372.332031 " fill-opacity="1" fill-rule="nonzero"/><path fill="rgb(91.369629%, 54.508972%, 10.5896%)" d="M 218.035156 371.828125 L 218.035156 345.488281 C 219.53125 345.382812 221.015625 345.261719 222.488281 345.132812 L 222.488281 371.472656 C 221.023438 371.597656 219.53125 371.71875 218.035156 371.828125 " fill-opacity="1" fill-rule="nonzero"/><path fill="rgb(91.369629%, 54.508972%, 10.5896%)" d="M 225.609375 371.171875 L 225.609375 344.839844 C 227.101562 344.699219 228.597656 344.558594 230.0625 344.394531 L 230.0625 370.710938 C 228.597656 370.878906 227.101562 371.023438 225.609375 371.171875 " fill-opacity="1" fill-rule="nonzero"/><path fill="rgb(91.369629%, 54.508972%, 10.5896%)" d="M 233.183594 370.339844 L 233.183594 344.027344 C 234.675781 343.847656 236.167969 343.664062 237.636719 343.460938 L 237.636719 369.78125 C 236.167969 369.972656 234.675781 370.15625 233.183594 370.339844 " fill-opacity="1" fill-rule="nonzero"/><path fill="rgb(91.369629%, 54.508972%, 10.5896%)" d="M 161.898438 371.820312 C 160.410156 371.703125 158.925781 371.589844 157.441406 371.457031 L 157.441406 345.121094 C 158.925781 345.246094 160.410156 345.367188 161.898438 345.476562 L 161.898438 371.820312 " fill-opacity="1" fill-rule="nonzero"/><path fill="rgb(91.369629%, 54.508972%, 10.5896%)" d="M 154.332031 371.152344 C 152.832031 371.007812 151.34375 370.851562 149.871094 370.695312 L 149.871094 344.367188 C 151.34375 344.53125 152.832031 344.675781 154.332031 344.824219 L 154.332031 371.152344 " fill-opacity="1" fill-rule="nonzero"/><path fill="rgb(91.369629%, 54.508972%, 10.5896%)" d="M 146.75 370.316406 C 145.257812 370.136719 143.773438 369.945312 142.296875 369.742188 L 142.296875 343.4375 C 143.769531 343.632812 145.257812 343.824219 146.75 344 L 146.75 370.316406 " fill-opacity="1" fill-rule="nonzero"/><path fill="rgb(91.369629%, 54.508972%, 10.5896%)" d="M 101.304688 360.859375 C 99.785156 360.386719 98.300781 359.894531 96.851562 359.382812 L 96.851562 333.277344 C 98.300781 333.765625 99.796875 334.257812 101.304688 334.71875 L 101.304688 360.859375 " fill-opacity="1" fill-rule="nonzero"/><path fill="rgb(91.369629%, 54.508972%, 10.5896%)" d="M 93.3125 358.09375 C 91.941406 357.570312 90.585938 357.035156 89.28125 356.492188 L 89.28125 330.496094 C 90.726562 331.066406 92.207031 331.640625 93.734375 332.183594 L 93.734375 357.652344 C 93.734375 357.816406 93.558594 357.964844 93.3125 358.09375 " fill-opacity="1" fill-rule="nonzero"/><path fill="rgb(91.369629%, 54.508972%, 10.5896%)" d="M 85.019531 354.640625 C 83.878906 354.128906 82.785156 353.59375 81.707031 353.058594 L 81.707031 327.183594 C 83.148438 327.867188 84.621094 328.550781 86.160156 329.214844 L 86.160156 353.972656 C 86.160156 354.265625 85.675781 354.507812 85.019531 354.640625 " fill-opacity="1" fill-rule="nonzero"/><path fill="rgb(91.369629%, 54.508972%, 10.5896%)" d="M 77.65625 350.90625 C 76.445312 350.222656 75.257812 349.523438 74.136719 348.804688 L 74.136719 323.117188 C 75.546875 323.960938 77.019531 324.8125 78.585938 325.628906 L 78.585938 350.292969 C 78.585938 350.546875 78.207031 350.765625 77.65625 350.90625 " fill-opacity="1" fill-rule="nonzero"/><path fill="rgb(91.369629%, 54.508972%, 10.5896%)" d="M 70.980469 346.671875 C 69.355469 345.503906 67.902344 344.300781 66.558594 343.074219 L 66.558594 317.847656 C 67.921875 318.960938 69.421875 320.050781 71.007812 321.132812 L 71.007812 346.609375 L 70.980469 346.671875 " fill-opacity="1" fill-rule="nonzero"/><path fill="rgb(91.369629%, 54.508972%, 10.5896%)" d="M 63.433594 339.921875 C 61.429688 337.609375 59.949219 335.226562 58.980469 332.773438 L 58.980469 309.507812 C 60.160156 311.382812 61.648438 313.226562 63.433594 315.003906 L 63.433594 339.921875 " fill-opacity="1" fill-rule="nonzero"/><path fill="rgb(97.24884%, 61.959839%, 9.799194%)" d="M 329.574219 288.457031 L 329.574219 260.300781 L 61.066406 260.300781 L 61.066406 288.457031 C 61.066406 314.535156 121.175781 335.679688 195.324219 335.679688 C 269.464844 335.679688 329.574219 314.535156 329.574219 288.457031 " fill-opacity="1" fill-rule="nonzero"/><path fill="rgb(96.078491%, 75.689697%, 8.628845%)" d="M 195.324219 305.441406 C 121.175781 305.441406 61.066406 284.308594 61.066406 258.226562 C 61.066406 232.15625 121.175781 211.015625 195.324219 211.015625 C 269.464844 211.015625 329.574219 232.15625 329.574219 258.226562 C 329.574219 284.308594 269.464844 305.441406 195.324219 305.441406 " fill-opacity="1" fill-rule="nonzero"/><path fill="rgb(97.24884%, 61.959839%, 9.799194%)" d="M 203.40625 276.660156 C 208.78125 276.308594 213.160156 275.425781 216.542969 274.027344 C 219.914062 272.628906 221.605469 270.980469 221.605469 269.085938 C 221.605469 267.398438 220.1875 265.933594 217.34375 264.707031 C 214.507812 263.480469 209.875 262.53125 203.40625 261.878906 L 203.40625 276.660156 M 187.78125 236.347656 C 183.542969 236.851562 180.160156 237.710938 177.652344 238.921875 C 175.140625 240.136719 173.886719 241.476562 173.886719 242.945312 C 173.886719 244.285156 175.03125 245.53125 177.328125 246.671875 C 179.632812 247.8125 183.101562 248.75 187.78125 249.457031 L 187.78125 236.347656 M 187.78125 276.132812 L 187.78125 260.261719 C 173.707031 258.835938 163.382812 256.703125 156.800781 253.828125 C 150.238281 250.96875 146.949219 247.488281 146.949219 243.394531 C 146.949219 239.25 150.671875 235.765625 158.097656 232.953125 C 165.523438 230.140625 175.425781 228.515625 187.78125 228.089844 L 187.78125 224.339844 L 203.40625 224.339844 L 203.40625 228.089844 C 214.816406 228.5625 223.890625 229.941406 230.65625 232.199219 C 237.410156 234.457031 241.71875 237.484375 243.574219 241.273438 L 216.324219 242.53125 C 214.675781 239.542969 210.359375 237.523438 203.40625 236.464844 L 203.40625 251.277344 C 220.636719 252.917969 232.390625 255.050781 238.628906 257.660156 C 244.878906 260.273438 247.996094 263.625 247.996094 267.714844 C 247.996094 272.289062 244.058594 276.144531 236.214844 279.269531 C 228.335938 282.40625 217.40625 284.328125 203.40625 285.035156 L 203.40625 292.121094 L 187.78125 292.121094 L 187.78125 285.21875 C 175.351562 284.699219 165.257812 283.074219 157.496094 280.335938 C 149.75 277.597656 144.800781 273.753906 142.640625 268.785156 L 170.753906 267.714844 C 171.910156 269.738281 174.054688 271.480469 177.222656 272.957031 C 180.378906 274.410156 183.898438 275.472656 187.78125 276.132812 " fill-opacity="1" fill-rule="nonzero"/><path fill="rgb(91.369629%, 54.508972%, 10.5896%)" d="M 314.402344 307.375 L 314.371094 307.308594 L 314.371094 281.828125 C 315.964844 280.753906 317.460938 279.660156 318.828125 278.542969 L 318.828125 303.777344 C 317.480469 304.996094 316.023438 306.195312 314.402344 307.375 " fill-opacity="1" fill-rule="nonzero"/><path fill="rgb(91.369629%, 54.508972%, 10.5896%)" d="M 307.722656 311.609375 C 307.179688 311.460938 306.792969 311.25 306.792969 310.988281 L 306.792969 286.328125 C 308.367188 285.503906 309.832031 284.667969 311.25 283.8125 L 311.25 309.5 C 310.128906 310.214844 308.945312 310.917969 307.722656 311.609375 " fill-opacity="1" fill-rule="nonzero"/><path fill="rgb(91.369629%, 54.508972%, 10.5896%)" d="M 321.949219 300.617188 L 321.949219 275.710938 C 323.734375 273.921875 325.21875 272.082031 326.394531 270.210938 L 326.394531 293.472656 C 325.4375 295.910156 323.945312 298.308594 321.949219 300.617188 " fill-opacity="1" fill-rule="nonzero"/><path fill="rgb(91.369629%, 54.508972%, 10.5896%)" d="M 300.363281 315.34375 C 299.699219 315.203125 299.21875 314.960938 299.21875 314.671875 L 299.21875 289.90625 C 300.769531 289.242188 302.238281 288.570312 303.675781 287.875 L 303.675781 313.75 C 302.601562 314.289062 301.503906 314.820312 300.363281 315.34375 " fill-opacity="1" fill-rule="nonzero"/><path fill="rgb(91.369629%, 54.508972%, 10.5896%)" d="M 292.066406 318.789062 C 291.828125 318.660156 291.65625 318.515625 291.65625 318.347656 L 291.65625 292.882812 C 293.171875 292.332031 294.65625 291.757812 296.105469 291.1875 L 296.105469 317.195312 C 294.789062 317.738281 293.449219 318.261719 292.066406 318.789062 " fill-opacity="1" fill-rule="nonzero"/><path fill="rgb(91.369629%, 54.508972%, 10.5896%)" d="M 284.074219 321.5625 L 284.074219 295.417969 C 285.589844 294.953125 287.082031 294.472656 288.53125 293.976562 L 288.53125 320.078125 C 287.082031 320.585938 285.597656 321.085938 284.074219 321.5625 " fill-opacity="1" fill-rule="nonzero"/><path fill="rgb(91.369629%, 54.508972%, 10.5896%)" d="M 276.503906 323.789062 L 276.503906 297.609375 C 278.003906 297.210938 279.5 296.796875 280.953125 296.375 L 280.953125 322.515625 C 279.496094 322.949219 278.015625 323.371094 276.503906 323.789062 " fill-opacity="1" fill-rule="nonzero"/><path fill="rgb(91.369629%, 54.508972%, 10.5896%)" d="M 268.921875 325.722656 L 268.921875 299.492188 C 270.441406 299.140625 271.910156 298.777344 273.386719 298.414062 L 273.386719 324.621094 C 271.910156 324.992188 270.441406 325.367188 268.921875 325.722656 " fill-opacity="1" fill-rule="nonzero"/><path fill="rgb(91.369629%, 54.508972%, 10.5896%)" d="M 261.355469 327.367188 L 261.355469 301.121094 C 262.847656 300.816406 264.34375 300.515625 265.804688 300.191406 L 265.804688 326.425781 C 264.34375 326.75 262.847656 327.0625 261.355469 327.367188 " fill-opacity="1" fill-rule="nonzero"/><path fill="rgb(91.369629%, 54.508972%, 10.5896%)" d="M 253.789062 328.796875 L 253.789062 302.523438 C 255.28125 302.269531 256.757812 302 258.234375 301.726562 L 258.234375 327.996094 C 256.769531 328.277344 255.28125 328.535156 253.789062 328.796875 " fill-opacity="1" fill-rule="nonzero"/><path fill="rgb(91.369629%, 54.508972%, 10.5896%)" d="M 246.207031 330.015625 L 246.207031 303.703125 C 247.699219 303.496094 249.191406 303.261719 250.65625 303.023438 L 250.65625 329.324219 C 249.191406 329.554688 247.699219 329.792969 246.207031 330.015625 " fill-opacity="1" fill-rule="nonzero"/><path fill="rgb(91.369629%, 54.508972%, 10.5896%)" d="M 144.429688 330.015625 C 142.9375 329.792969 141.453125 329.554688 139.984375 329.324219 L 139.984375 303.023438 C 141.453125 303.261719 142.9375 303.496094 144.429688 303.703125 L 144.429688 330.015625 " fill-opacity="1" fill-rule="nonzero"/><path fill="rgb(91.369629%, 54.508972%, 10.5896%)" d="M 136.855469 328.796875 C 135.359375 328.535156 133.867188 328.277344 132.40625 327.996094 L 132.40625 301.726562 C 133.882812 302 135.359375 302.269531 136.855469 302.523438 L 136.855469 328.796875 " fill-opacity="1" fill-rule="nonzero"/><path fill="rgb(91.369629%, 54.508972%, 10.5896%)" d="M 129.285156 327.367188 C 127.785156 327.0625 126.296875 326.75 124.832031 326.425781 L 124.832031 300.191406 C 126.296875 300.515625 127.785156 300.816406 129.285156 301.121094 L 129.285156 327.367188 " fill-opacity="1" fill-rule="nonzero"/><path fill="rgb(91.369629%, 54.508972%, 10.5896%)" d="M 121.714844 325.722656 C 120.203125 325.367188 118.722656 324.992188 117.253906 324.621094 L 117.253906 298.414062 C 118.722656 298.777344 120.203125 299.140625 121.714844 299.492188 L 121.714844 325.722656 " fill-opacity="1" fill-rule="nonzero"/><path fill="rgb(91.369629%, 54.508972%, 10.5896%)" d="M 114.136719 323.789062 C 112.628906 323.371094 111.136719 322.949219 109.6875 322.515625 L 109.6875 296.375 C 111.132812 296.796875 112.632812 297.210938 114.136719 297.609375 L 114.136719 323.789062 " fill-opacity="1" fill-rule="nonzero"/><path fill="rgb(91.369629%, 54.508972%, 10.5896%)" d="M 182.300781 333.355469 C 180.804688 333.296875 179.332031 333.234375 177.84375 333.164062 L 177.84375 306.816406 C 179.332031 306.886719 180.804688 306.949219 182.300781 307.003906 L 182.300781 333.355469 " fill-opacity="1" fill-rule="nonzero"/><path fill="rgb(91.369629%, 54.508972%, 10.5896%)" d="M 174.730469 333.019531 C 173.238281 332.9375 171.757812 332.839844 170.277344 332.734375 L 170.277344 306.390625 C 171.757812 306.492188 173.238281 306.589844 174.730469 306.675781 L 174.730469 333.019531 " fill-opacity="1" fill-rule="nonzero"/><path fill="rgb(91.369629%, 54.508972%, 10.5896%)" d="M 189.875 333.539062 C 188.378906 333.511719 186.898438 333.480469 185.429688 333.4375 L 185.429688 307.089844 C 186.898438 307.125 188.378906 307.160156 189.875 307.175781 L 189.875 333.539062 " fill-opacity="1" fill-rule="nonzero"/><path fill="rgb(91.369629%, 54.508972%, 10.5896%)" d="M 195.324219 333.582031 C 194.539062 333.582031 193.773438 333.5625 192.996094 333.558594 L 192.996094 307.203125 C 193.773438 307.210938 194.539062 307.230469 195.324219 307.230469 C 196.03125 307.230469 196.738281 307.214844 197.453125 307.210938 L 197.453125 333.558594 C 196.738281 333.5625 196.03125 333.582031 195.324219 333.582031 " fill-opacity="1" fill-rule="nonzero"/><path fill="rgb(91.369629%, 54.508972%, 10.5896%)" d="M 200.578125 333.539062 L 200.578125 307.175781 C 202.054688 307.160156 203.546875 307.128906 205.027344 307.089844 L 205.027344 333.445312 C 203.546875 333.484375 202.054688 333.511719 200.578125 333.539062 " fill-opacity="1" fill-rule="nonzero"/><path fill="rgb(91.369629%, 54.508972%, 10.5896%)" d="M 208.144531 333.363281 L 208.144531 307.007812 C 209.640625 306.957031 211.121094 306.886719 212.59375 306.820312 L 212.59375 333.167969 C 211.121094 333.246094 209.640625 333.316406 208.144531 333.363281 " fill-opacity="1" fill-rule="nonzero"/><path fill="rgb(91.369629%, 54.508972%, 10.5896%)" d="M 215.722656 333.027344 L 215.722656 306.683594 C 217.222656 306.605469 218.6875 306.5 220.171875 306.402344 L 220.171875 332.75 C 218.6875 332.84375 217.222656 332.949219 215.722656 333.027344 " fill-opacity="1" fill-rule="nonzero"/><path fill="rgb(91.369629%, 54.508972%, 10.5896%)" d="M 223.292969 332.527344 L 223.292969 306.195312 C 224.792969 306.074219 226.265625 305.957031 227.742188 305.832031 L 227.742188 332.175781 C 226.277344 332.300781 224.792969 332.421875 223.292969 332.527344 " fill-opacity="1" fill-rule="nonzero"/><path fill="rgb(91.369629%, 54.508972%, 10.5896%)" d="M 230.863281 331.863281 L 230.863281 305.539062 C 232.359375 305.394531 233.855469 305.257812 235.320312 305.089844 L 235.320312 331.410156 C 233.855469 331.578125 232.359375 331.71875 230.863281 331.863281 " fill-opacity="1" fill-rule="nonzero"/><path fill="rgb(91.369629%, 54.508972%, 10.5896%)" d="M 238.4375 331.039062 L 238.4375 304.722656 C 239.9375 304.542969 241.425781 304.359375 242.890625 304.164062 L 242.890625 330.472656 C 241.425781 330.671875 239.9375 330.859375 238.4375 331.039062 " fill-opacity="1" fill-rule="nonzero"/><path fill="rgb(91.369629%, 54.508972%, 10.5896%)" d="M 167.148438 332.515625 C 165.664062 332.402344 164.171875 332.28125 162.699219 332.15625 L 162.699219 305.820312 C 164.171875 305.941406 165.664062 306.070312 167.148438 306.175781 L 167.148438 332.515625 " fill-opacity="1" fill-rule="nonzero"/><path fill="rgb(91.369629%, 54.508972%, 10.5896%)" d="M 159.582031 331.84375 C 158.085938 331.703125 156.605469 331.558594 155.128906 331.394531 L 155.128906 305.070312 C 156.605469 305.230469 158.085938 305.375 159.582031 305.523438 L 159.582031 331.84375 " fill-opacity="1" fill-rule="nonzero"/><path fill="rgb(91.369629%, 54.508972%, 10.5896%)" d="M 152.003906 331.015625 C 150.511719 330.832031 149.027344 330.644531 147.554688 330.4375 L 147.554688 304.140625 C 149.027344 304.34375 150.511719 304.519531 152.003906 304.699219 L 152.003906 331.015625 " fill-opacity="1" fill-rule="nonzero"/><path fill="rgb(91.369629%, 54.508972%, 10.5896%)" d="M 106.5625 321.5625 C 105.042969 321.085938 103.558594 320.585938 102.109375 320.078125 L 102.109375 293.976562 C 103.558594 294.472656 105.050781 294.953125 106.5625 295.417969 L 106.5625 321.5625 " fill-opacity="1" fill-rule="nonzero"/><path fill="rgb(91.369629%, 54.508972%, 10.5896%)" d="M 98.574219 318.789062 C 97.191406 318.261719 95.84375 317.738281 94.539062 317.195312 L 94.539062 291.1875 C 95.980469 291.757812 97.464844 292.332031 98.988281 292.882812 L 98.988281 318.347656 C 98.988281 318.515625 98.808594 318.660156 98.574219 318.789062 " fill-opacity="1" fill-rule="nonzero"/><path fill="rgb(91.369629%, 54.508972%, 10.5896%)" d="M 90.273438 315.34375 C 89.132812 314.820312 88.035156 314.289062 86.960938 313.75 L 86.960938 287.875 C 88.398438 288.570312 89.878906 289.242188 91.417969 289.90625 L 91.417969 314.671875 C 91.417969 314.960938 90.941406 315.203125 90.273438 315.34375 " fill-opacity="1" fill-rule="nonzero"/><path fill="rgb(91.369629%, 54.508972%, 10.5896%)" d="M 82.914062 311.609375 C 81.695312 310.917969 80.507812 310.214844 79.390625 309.5 L 79.390625 283.8125 C 80.804688 284.667969 82.277344 285.503906 83.835938 286.328125 L 83.835938 310.988281 C 83.835938 311.25 83.460938 311.460938 82.914062 311.609375 " fill-opacity="1" fill-rule="nonzero"/><path fill="rgb(91.369629%, 54.508972%, 10.5896%)" d="M 76.234375 307.375 C 74.613281 306.195312 73.152344 304.996094 71.8125 303.777344 L 71.8125 278.542969 C 73.175781 279.660156 74.675781 280.753906 76.269531 281.828125 L 76.269531 307.308594 L 76.234375 307.375 " fill-opacity="1" fill-rule="nonzero"/><path fill="rgb(91.369629%, 54.508972%, 10.5896%)" d="M 68.691406 300.617188 C 66.6875 298.308594 65.203125 295.921875 64.242188 293.472656 L 64.242188 271.660156 C 64.84375 272.050781 65.464844 272.4375 66.097656 272.824219 C 66.878906 273.796875 67.742188 274.761719 68.691406 275.710938 L 68.691406 300.617188 " fill-opacity="1" fill-rule="nonzero"/><path fill="rgb(97.24884%, 61.959839%, 9.799194%)" d="M 316.550781 249.15625 L 316.550781 221 L 48.046875 221 L 48.046875 249.15625 C 48.046875 275.242188 108.160156 296.375 182.300781 296.375 C 256.441406 296.375 316.550781 275.242188 316.550781 249.15625 " fill-opacity="1" fill-rule="nonzero"/><path fill="rgb(96.078491%, 75.689697%, 8.628845%)" d="M 182.300781 266.144531 C 108.160156 266.144531 48.046875 245 48.046875 218.925781 C 48.046875 192.847656 108.160156 171.707031 182.300781 171.707031 C 256.441406 171.707031 316.550781 192.847656 316.550781 218.925781 C 316.550781 245 256.441406 266.144531 182.300781 266.144531 " fill-opacity="1" fill-rule="nonzero"/><path fill="rgb(97.24884%, 61.959839%, 9.799194%)" d="M 190.382812 237.363281 C 195.761719 237 200.144531 236.132812 203.527344 234.722656 C 206.894531 233.324219 208.578125 231.671875 208.578125 229.78125 C 208.578125 228.089844 207.167969 226.628906 204.332031 225.410156 C 201.488281 224.183594 196.855469 223.230469 190.382812 222.578125 L 190.382812 237.363281 M 174.757812 197.046875 C 170.519531 197.554688 167.144531 198.410156 164.632812 199.621094 C 162.121094 200.835938 160.859375 202.171875 160.859375 203.636719 C 160.859375 204.984375 162.011719 206.226562 164.308594 207.367188 C 166.605469 208.519531 170.082031 209.449219 174.757812 210.15625 L 174.757812 197.046875 M 174.757812 236.828125 L 174.757812 220.953125 C 160.683594 219.535156 150.363281 217.40625 143.785156 214.53125 C 137.21875 211.664062 133.929688 208.1875 133.929688 204.09375 C 133.929688 199.953125 137.644531 196.46875 145.082031 193.648438 C 152.507812 190.839844 162.40625 189.214844 174.757812 188.789062 L 174.757812 185.035156 L 190.382812 185.035156 L 190.382812 188.789062 C 201.796875 189.265625 210.871094 190.632812 217.632812 192.894531 C 224.390625 195.15625 228.695312 198.179688 230.558594 201.972656 L 203.304688 203.226562 C 201.652344 200.234375 197.339844 198.214844 190.382812 197.164062 L 190.382812 211.976562 C 207.621094 213.609375 219.371094 215.742188 225.609375 218.351562 C 231.859375 220.972656 234.976562 224.320312 234.976562 228.414062 C 234.976562 232.992188 231.050781 236.835938 223.199219 239.96875 C 215.320312 243.101562 204.386719 245.019531 190.382812 245.734375 L 190.382812 252.8125 L 174.757812 252.8125 L 174.757812 245.925781 C 162.335938 245.390625 152.238281 243.765625 144.484375 241.035156 C 136.726562 238.304688 131.777344 234.453125 129.621094 229.476562 L 157.738281 228.414062 C 158.890625 230.4375 161.039062 232.171875 164.203125 233.644531 C 167.359375 235.105469 170.882812 236.164062 174.757812 236.828125 " fill-opacity="1" fill-rule="nonzero"/><path fill="rgb(91.369629%, 54.508972%, 10.5896%)" d="M 301.382812 268.066406 L 301.351562 268.011719 L 301.351562 242.53125 C 302.945312 241.449219 304.441406 240.355469 305.804688 239.234375 L 305.804688 264.476562 C 304.464844 265.691406 303.003906 266.898438 301.382812 268.066406 " fill-opacity="1" fill-rule="nonzero"/><path fill="rgb(91.369629%, 54.508972%, 10.5896%)" d="M 294.703125 272.308594 C 294.160156 272.15625 293.773438 271.941406 293.773438 271.691406 L 293.773438 247.019531 C 295.347656 246.203125 296.8125 245.363281 298.230469 244.507812 L 298.230469 270.195312 C 297.109375 270.914062 295.921875 271.617188 294.703125 272.308594 " fill-opacity="1" fill-rule="nonzero"/><path fill="rgb(91.369629%, 54.508972%, 10.5896%)" d="M 308.929688 261.3125 L 308.929688 236.40625 C 310.71875 234.613281 312.203125 232.78125 313.375 230.90625 L 313.375 254.171875 C 312.410156 256.617188 310.933594 259.007812 308.929688 261.3125 " fill-opacity="1" fill-rule="nonzero"/><path fill="rgb(91.369629%, 54.508972%, 10.5896%)" d="M 287.339844 276.035156 C 286.679688 275.898438 286.199219 275.65625 286.199219 275.367188 L 286.199219 250.601562 C 287.742188 249.941406 289.21875 249.265625 290.652344 248.570312 L 290.652344 274.453125 C 289.582031 274.988281 288.484375 275.519531 287.339844 276.035156 " fill-opacity="1" fill-rule="nonzero"/><path fill="rgb(91.369629%, 54.508972%, 10.5896%)" d="M 279.046875 279.480469 C 278.804688 279.355469 278.625 279.210938 278.625 279.050781 L 278.625 253.578125 C 280.15625 253.027344 281.636719 252.464844 283.078125 251.890625 L 283.078125 277.890625 C 281.773438 278.433594 280.421875 278.96875 279.046875 279.480469 " fill-opacity="1" fill-rule="nonzero"/><path fill="rgb(91.369629%, 54.508972%, 10.5896%)" d="M 271.058594 282.261719 L 271.058594 256.121094 C 272.570312 255.65625 274.054688 255.167969 275.511719 254.667969 L 275.511719 280.777344 C 274.054688 281.289062 272.574219 281.78125 271.058594 282.261719 " fill-opacity="1" fill-rule="nonzero"/><path fill="rgb(91.369629%, 54.508972%, 10.5896%)" d="M 263.484375 284.480469 L 263.484375 258.3125 C 264.988281 257.910156 266.484375 257.5 267.9375 257.074219 L 267.9375 283.210938 C 266.476562 283.644531 264.992188 284.0625 263.484375 284.480469 " fill-opacity="1" fill-rule="nonzero"/><path fill="rgb(91.369629%, 54.508972%, 10.5896%)" d="M 255.910156 286.421875 L 255.910156 260.191406 C 257.417969 259.84375 258.890625 259.476562 260.359375 259.109375 L 260.359375 285.3125 C 258.890625 285.691406 257.417969 286.0625 255.910156 286.421875 " fill-opacity="1" fill-rule="nonzero"/><path fill="rgb(91.369629%, 54.508972%, 10.5896%)" d="M 248.335938 288.058594 L 248.335938 261.816406 C 249.828125 261.515625 251.324219 261.207031 252.785156 260.890625 L 252.785156 287.121094 C 251.324219 287.449219 249.828125 287.769531 248.335938 288.058594 " fill-opacity="1" fill-rule="nonzero"/><path fill="rgb(91.369629%, 54.508972%, 10.5896%)" d="M 240.761719 289.5 L 240.761719 263.226562 C 242.265625 262.964844 243.742188 262.691406 245.214844 262.421875 L 245.214844 288.695312 C 243.753906 288.96875 242.253906 289.242188 240.761719 289.5 " fill-opacity="1" fill-rule="nonzero"/><path fill="rgb(91.369629%, 54.508972%, 10.5896%)" d="M 233.183594 290.707031 L 233.183594 264.402344 C 234.683594 264.191406 236.167969 263.957031 237.636719 263.726562 L 237.636719 290.015625 C 236.167969 290.257812 234.683594 290.488281 233.183594 290.707031 " fill-opacity="1" fill-rule="nonzero"/><path fill="rgb(91.369629%, 54.508972%, 10.5896%)" d="M 131.417969 290.707031 C 129.921875 290.488281 128.429688 290.257812 126.96875 290.015625 L 126.96875 263.726562 C 128.429688 263.957031 129.921875 264.191406 131.417969 264.402344 L 131.417969 290.707031 " fill-opacity="1" fill-rule="nonzero"/><path fill="rgb(91.369629%, 54.508972%, 10.5896%)" d="M 123.835938 289.5 C 122.34375 289.242188 120.851562 288.96875 119.382812 288.695312 L 119.382812 262.421875 C 120.855469 262.691406 122.339844 262.964844 123.835938 263.226562 L 123.835938 289.5 " fill-opacity="1" fill-rule="nonzero"/><path fill="rgb(91.369629%, 54.508972%, 10.5896%)" d="M 116.265625 288.058594 C 114.761719 287.769531 113.28125 287.449219 111.816406 287.121094 L 111.816406 260.890625 C 113.28125 261.207031 114.761719 261.515625 116.265625 261.816406 L 116.265625 288.058594 " fill-opacity="1" fill-rule="nonzero"/><path fill="rgb(91.369629%, 54.508972%, 10.5896%)" d="M 108.691406 286.421875 C 107.175781 286.0625 105.699219 285.691406 104.242188 285.3125 L 104.242188 259.109375 C 105.699219 259.476562 107.175781 259.84375 108.691406 260.191406 L 108.691406 286.421875 " fill-opacity="1" fill-rule="nonzero"/><path fill="rgb(91.369629%, 54.508972%, 10.5896%)" d="M 101.121094 284.480469 C 99.609375 284.0625 98.125 283.644531 96.667969 283.210938 L 96.667969 257.074219 C 98.117188 257.5 99.613281 257.910156 101.121094 258.3125 L 101.121094 284.480469 " fill-opacity="1" fill-rule="nonzero"/><path fill="rgb(91.369629%, 54.508972%, 10.5896%)" d="M 169.28125 294.054688 C 167.785156 294.003906 166.3125 293.933594 164.828125 293.863281 L 164.828125 267.515625 C 166.3125 267.578125 167.785156 267.644531 169.28125 267.703125 L 169.28125 294.054688 " fill-opacity="1" fill-rule="nonzero"/><path fill="rgb(91.369629%, 54.508972%, 10.5896%)" d="M 161.710938 293.71875 C 160.210938 293.636719 158.738281 293.539062 157.257812 293.441406 L 157.257812 267.085938 C 158.738281 267.1875 160.210938 267.285156 161.710938 267.375 L 161.710938 293.71875 " fill-opacity="1" fill-rule="nonzero"/><path fill="rgb(91.369629%, 54.508972%, 10.5896%)" d="M 176.855469 294.234375 C 175.363281 294.21875 173.886719 294.171875 172.410156 294.140625 L 172.410156 267.78125 C 173.886719 267.824219 175.363281 267.851562 176.855469 267.875 L 176.855469 294.234375 " fill-opacity="1" fill-rule="nonzero"/><path fill="rgb(91.369629%, 54.508972%, 10.5896%)" d="M 182.300781 294.28125 C 181.523438 294.28125 180.75 294.261719 179.980469 294.261719 L 179.980469 267.894531 C 180.75 267.902344 181.523438 267.925781 182.300781 267.925781 C 183.015625 267.925781 183.71875 267.914062 184.429688 267.902344 L 184.429688 294.261719 C 183.71875 294.261719 183.015625 294.28125 182.300781 294.28125 " fill-opacity="1" fill-rule="nonzero"/><path fill="rgb(91.369629%, 54.508972%, 10.5896%)" d="M 187.558594 294.234375 L 187.558594 267.875 C 189.042969 267.863281 190.523438 267.832031 192.007812 267.792969 L 192.007812 294.140625 C 190.523438 294.183594 189.042969 294.21875 187.558594 294.234375 " fill-opacity="1" fill-rule="nonzero"/><path fill="rgb(91.369629%, 54.508972%, 10.5896%)" d="M 195.125 294.054688 L 195.125 267.703125 C 196.617188 267.652344 198.101562 267.589844 199.582031 267.523438 L 199.582031 293.871094 C 198.101562 293.9375 196.617188 294.011719 195.125 294.054688 " fill-opacity="1" fill-rule="nonzero"/><path fill="rgb(91.369629%, 54.508972%, 10.5896%)" d="M 202.699219 293.726562 L 202.699219 267.378906 C 204.195312 267.304688 205.667969 267.199219 207.148438 267.105469 L 207.148438 293.449219 C 205.667969 293.542969 204.195312 293.652344 202.699219 293.726562 " fill-opacity="1" fill-rule="nonzero"/><path fill="rgb(91.369629%, 54.508972%, 10.5896%)" d="M 210.269531 293.230469 L 210.269531 266.890625 C 211.769531 266.777344 213.253906 266.65625 214.722656 266.527344 L 214.722656 292.867188 C 213.261719 293 211.769531 293.117188 210.269531 293.230469 " fill-opacity="1" fill-rule="nonzero"/><path fill="rgb(91.369629%, 54.508972%, 10.5896%)" d="M 217.84375 292.570312 L 217.84375 266.238281 C 219.335938 266.089844 220.832031 265.949219 222.296875 265.792969 L 222.296875 292.105469 C 220.832031 292.277344 219.335938 292.425781 217.84375 292.570312 " fill-opacity="1" fill-rule="nonzero"/><path fill="rgb(91.369629%, 54.508972%, 10.5896%)" d="M 225.417969 291.742188 L 225.417969 265.425781 C 226.914062 265.238281 228.398438 265.058594 229.871094 264.863281 L 229.871094 291.171875 C 228.398438 291.375 226.914062 291.558594 225.417969 291.742188 " fill-opacity="1" fill-rule="nonzero"/><path fill="rgb(91.369629%, 54.508972%, 10.5896%)" d="M 154.132812 293.214844 C 152.644531 293.097656 151.160156 292.988281 149.679688 292.847656 L 149.679688 266.515625 C 151.160156 266.640625 152.644531 266.761719 154.132812 266.875 L 154.132812 293.214844 " fill-opacity="1" fill-rule="nonzero"/><path fill="rgb(91.369629%, 54.508972%, 10.5896%)" d="M 146.558594 292.546875 C 145.070312 292.40625 143.582031 292.257812 142.109375 292.089844 L 142.109375 265.769531 C 143.582031 265.933594 145.070312 266.074219 146.558594 266.21875 L 146.558594 292.546875 " fill-opacity="1" fill-rule="nonzero"/><path fill="rgb(91.369629%, 54.508972%, 10.5896%)" d="M 138.984375 291.710938 C 137.492188 291.527344 136.007812 291.335938 134.535156 291.144531 L 134.535156 264.832031 C 135.996094 265.035156 137.492188 265.222656 138.984375 265.402344 L 138.984375 291.710938 " fill-opacity="1" fill-rule="nonzero"/><path fill="rgb(91.369629%, 54.508972%, 10.5896%)" d="M 93.542969 282.261719 C 92.019531 281.78125 90.539062 281.289062 89.089844 280.777344 L 89.089844 254.667969 C 90.539062 255.167969 92.03125 255.65625 93.542969 256.121094 L 93.542969 282.261719 " fill-opacity="1" fill-rule="nonzero"/><path fill="rgb(91.369629%, 54.508972%, 10.5896%)" d="M 85.554688 279.480469 C 84.167969 278.96875 82.820312 278.433594 81.519531 277.890625 L 81.519531 251.890625 C 82.964844 252.464844 84.441406 253.027344 85.96875 253.578125 L 85.96875 279.050781 C 85.96875 279.210938 85.789062 279.355469 85.554688 279.480469 " fill-opacity="1" fill-rule="nonzero"/><path fill="rgb(91.369629%, 54.508972%, 10.5896%)" d="M 77.253906 276.035156 C 76.105469 275.519531 75.023438 274.988281 73.945312 274.453125 L 73.945312 248.570312 C 75.378906 249.265625 76.855469 249.941406 78.398438 250.601562 L 78.398438 275.367188 C 78.398438 275.65625 77.914062 275.898438 77.253906 276.035156 " fill-opacity="1" fill-rule="nonzero"/><path fill="rgb(91.369629%, 54.508972%, 10.5896%)" d="M 69.894531 272.308594 C 68.675781 271.617188 67.488281 270.914062 66.371094 270.195312 L 66.371094 244.507812 C 67.785156 245.363281 69.246094 246.203125 70.820312 247.019531 L 70.820312 271.691406 C 70.820312 271.941406 70.441406 272.15625 69.894531 272.308594 " fill-opacity="1" fill-rule="nonzero"/><path fill="rgb(91.369629%, 54.508972%, 10.5896%)" d="M 63.214844 268.066406 C 61.59375 266.898438 60.132812 265.691406 58.792969 264.476562 L 58.792969 239.234375 C 60.15625 240.355469 61.65625 241.449219 63.246094 242.53125 L 63.246094 268.011719 L 63.214844 268.066406 " fill-opacity="1" fill-rule="nonzero"/><path fill="rgb(91.369629%, 54.508972%, 10.5896%)" d="M 55.667969 261.3125 C 53.675781 259.007812 52.1875 256.617188 51.222656 254.171875 L 51.222656 230.90625 C 52.394531 232.78125 53.886719 234.613281 55.667969 236.40625 L 55.667969 261.3125 " fill-opacity="1" fill-rule="nonzero"/><g clip-path="url(#id1)"><path fill="rgb(97.24884%, 61.959839%, 9.799194%)" d="M 334.828125 200.144531 L 334.828125 172 L 66.324219 172 L 66.324219 200.144531 C 66.324219 226.230469 126.429688 247.367188 200.578125 247.367188 C 274.714844 247.367188 334.828125 226.230469 334.828125 200.144531 " fill-opacity="1" fill-rule="nonzero"/></g><g clip-path="url(#id2)"><path fill="rgb(96.078491%, 75.689697%, 8.628845%)" d="M 200.578125 217.136719 C 126.429688 217.136719 66.324219 195.992188 66.324219 169.921875 C 66.324219 143.839844 126.429688 122.707031 200.578125 122.707031 C 274.714844 122.707031 334.828125 143.839844 334.828125 169.921875 C 334.828125 195.992188 274.714844 217.136719 200.578125 217.136719 " fill-opacity="1" fill-rule="nonzero"/></g><path fill="rgb(97.24884%, 61.959839%, 9.799194%)" d="M 208.65625 188.355469 C 214.03125 187.996094 218.421875 187.121094 221.804688 185.71875 C 225.171875 184.3125 226.859375 182.660156 226.859375 180.773438 C 226.859375 179.082031 225.449219 177.625 222.601562 176.398438 C 219.765625 175.175781 215.132812 174.222656 208.65625 173.570312 L 208.65625 188.355469 M 193.03125 148.046875 C 188.800781 148.542969 185.417969 149.402344 182.910156 150.609375 C 180.398438 151.832031 179.136719 153.171875 179.136719 154.632812 C 179.136719 155.976562 180.285156 157.214844 182.582031 158.363281 C 184.882812 159.511719 188.359375 160.445312 193.03125 161.144531 L 193.03125 148.046875 M 193.03125 187.820312 L 193.03125 171.941406 C 178.953125 170.523438 168.640625 168.394531 162.054688 165.523438 C 155.496094 162.660156 152.207031 159.179688 152.207031 155.09375 C 152.207031 150.941406 155.925781 147.460938 163.355469 144.644531 C 170.785156 141.828125 180.679688 140.210938 193.03125 139.78125 L 193.03125 136.027344 L 208.65625 136.027344 L 208.65625 139.78125 C 220.074219 140.261719 229.148438 141.636719 235.90625 143.894531 C 242.667969 146.148438 246.976562 149.171875 248.832031 152.96875 L 221.585938 154.214844 C 219.933594 151.226562 215.617188 149.21875 208.65625 148.15625 L 208.65625 162.96875 C 225.894531 164.597656 237.640625 166.742188 243.886719 169.351562 C 250.128906 171.964844 253.253906 175.324219 253.253906 179.40625 C 253.253906 183.984375 249.316406 187.824219 241.472656 190.957031 C 233.597656 194.101562 222.660156 196.015625 208.65625 196.730469 L 208.65625 203.8125 L 193.03125 203.8125 L 193.03125 196.921875 C 180.609375 196.386719 170.515625 194.753906 162.753906 192.027344 C 155.007812 189.300781 150.054688 185.449219 147.898438 180.46875 L 176.007812 179.40625 C 177.164062 181.425781 179.3125 183.171875 182.476562 184.636719 C 185.628906 186.09375 189.15625 187.167969 193.03125 187.820312 " fill-opacity="1" fill-rule="nonzero"/><path fill="rgb(91.369629%, 54.508972%, 10.5896%)" d="M 319.660156 219.0625 L 319.617188 219 L 319.617188 193.519531 C 321.214844 192.441406 322.71875 191.351562 324.078125 190.234375 L 324.078125 215.464844 C 322.734375 216.691406 321.277344 217.894531 319.660156 219.0625 " fill-opacity="1" fill-rule="nonzero"/><path fill="rgb(91.369629%, 54.508972%, 10.5896%)" d="M 312.976562 223.300781 C 312.433594 223.152344 312.050781 222.933594 312.050781 222.679688 L 312.050781 198.015625 C 313.621094 197.203125 315.089844 196.351562 316.507812 195.507812 L 316.507812 221.1875 C 315.386719 221.902344 314.203125 222.609375 312.976562 223.300781 " fill-opacity="1" fill-rule="nonzero"/><path fill="rgb(91.369629%, 54.508972%, 10.5896%)" d="M 327.203125 212.304688 L 327.203125 187.394531 C 328.992188 185.605469 330.476562 183.769531 331.648438 181.894531 L 331.648438 205.164062 C 330.6875 207.609375 329.203125 209.996094 327.203125 212.304688 " fill-opacity="1" fill-rule="nonzero"/><path fill="rgb(91.369629%, 54.508972%, 10.5896%)" d="M 305.621094 227.035156 C 304.957031 226.898438 304.476562 226.652344 304.476562 226.363281 L 304.476562 201.605469 C 306.015625 200.929688 307.492188 200.253906 308.933594 199.566406 L 308.933594 225.445312 C 307.855469 225.980469 306.753906 226.511719 305.621094 227.035156 " fill-opacity="1" fill-rule="nonzero"/><path fill="rgb(91.369629%, 54.508972%, 10.5896%)" d="M 297.320312 230.476562 C 297.078125 230.351562 296.90625 230.207031 296.90625 230.039062 L 296.90625 204.574219 C 298.429688 204.023438 299.910156 203.460938 301.355469 202.878906 L 301.355469 228.882812 C 300.039062 229.421875 298.703125 229.957031 297.320312 230.476562 " fill-opacity="1" fill-rule="nonzero"/><path fill="rgb(91.369629%, 54.508972%, 10.5896%)" d="M 289.339844 233.25 L 289.339844 207.109375 C 290.847656 206.648438 292.335938 206.15625 293.789062 205.664062 L 293.789062 231.769531 C 292.335938 232.277344 290.847656 232.769531 289.339844 233.25 " fill-opacity="1" fill-rule="nonzero"/><path fill="rgb(91.369629%, 54.508972%, 10.5896%)" d="M 281.753906 235.472656 L 281.753906 209.304688 C 283.261719 208.898438 284.753906 208.488281 286.203125 208.066406 L 286.203125 234.207031 C 284.746094 234.644531 283.273438 235.058594 281.753906 235.472656 " fill-opacity="1" fill-rule="nonzero"/><path fill="rgb(91.369629%, 54.508972%, 10.5896%)" d="M 274.175781 237.414062 L 274.175781 211.183594 C 275.6875 210.835938 277.164062 210.46875 278.636719 210.097656 L 278.636719 236.304688 C 277.164062 236.683594 275.6875 237.0625 274.175781 237.414062 " fill-opacity="1" fill-rule="nonzero"/><path fill="rgb(91.369629%, 54.508972%, 10.5896%)" d="M 266.605469 239.058594 L 266.605469 212.8125 C 268.109375 212.503906 269.59375 212.203125 271.058594 211.886719 L 271.058594 238.117188 C 269.59375 238.449219 268.109375 238.757812 266.605469 239.058594 " fill-opacity="1" fill-rule="nonzero"/><path fill="rgb(91.369629%, 54.508972%, 10.5896%)" d="M 259.039062 240.488281 L 259.039062 214.222656 C 260.535156 213.953125 262.011719 213.6875 263.488281 213.410156 L 263.488281 239.691406 C 262.027344 239.964844 260.527344 240.230469 259.039062 240.488281 " fill-opacity="1" fill-rule="nonzero"/><path fill="rgb(91.369629%, 54.508972%, 10.5896%)" d="M 251.460938 241.707031 L 251.460938 215.390625 C 252.957031 215.179688 254.4375 214.957031 255.914062 214.71875 L 255.914062 241.011719 C 254.4375 241.246094 252.957031 241.476562 251.460938 241.707031 " fill-opacity="1" fill-rule="nonzero"/><path fill="rgb(91.369629%, 54.508972%, 10.5896%)" d="M 149.6875 241.707031 C 148.191406 241.476562 146.710938 241.246094 145.230469 241.011719 L 145.230469 214.71875 C 146.710938 214.957031 148.191406 215.179688 149.6875 215.390625 L 149.6875 241.707031 " fill-opacity="1" fill-rule="nonzero"/><path fill="rgb(91.369629%, 54.508972%, 10.5896%)" d="M 142.109375 240.488281 C 140.617188 240.230469 139.125 239.964844 137.660156 239.691406 L 137.660156 213.410156 C 139.140625 213.6875 140.609375 213.953125 142.109375 214.222656 L 142.109375 240.488281 " fill-opacity="1" fill-rule="nonzero"/><path fill="rgb(91.369629%, 54.508972%, 10.5896%)" d="M 134.539062 239.058594 C 133.03125 238.757812 131.558594 238.449219 130.085938 238.117188 L 130.085938 211.886719 C 131.558594 212.203125 133.03125 212.503906 134.539062 212.8125 L 134.539062 239.058594 " fill-opacity="1" fill-rule="nonzero"/><path fill="rgb(91.369629%, 54.508972%, 10.5896%)" d="M 126.96875 237.414062 C 125.457031 237.0625 123.972656 236.683594 122.511719 236.304688 L 122.511719 210.097656 C 123.972656 210.46875 125.457031 210.835938 126.96875 211.183594 L 126.96875 237.414062 " fill-opacity="1" fill-rule="nonzero"/><path fill="rgb(91.369629%, 54.508972%, 10.5896%)" d="M 119.394531 235.472656 C 117.878906 235.058594 116.394531 234.644531 114.945312 234.207031 L 114.945312 208.066406 C 116.390625 208.488281 117.886719 208.898438 119.394531 209.304688 L 119.394531 235.472656 " fill-opacity="1" fill-rule="nonzero"/><path fill="rgb(91.369629%, 54.508972%, 10.5896%)" d="M 187.558594 245.046875 C 186.058594 244.992188 184.585938 244.925781 183.101562 244.859375 L 183.101562 218.511719 C 184.585938 218.574219 186.058594 218.640625 187.558594 218.695312 L 187.558594 245.046875 " fill-opacity="1" fill-rule="nonzero"/><path fill="rgb(91.369629%, 54.508972%, 10.5896%)" d="M 179.980469 244.707031 C 178.488281 244.628906 177.003906 244.53125 175.535156 244.429688 L 175.535156 218.089844 C 177.003906 218.179688 178.488281 218.285156 179.980469 218.371094 L 179.980469 244.707031 " fill-opacity="1" fill-rule="nonzero"/><path fill="rgb(91.369629%, 54.508972%, 10.5896%)" d="M 195.132812 245.230469 C 193.636719 245.207031 192.15625 245.171875 190.679688 245.128906 L 190.679688 218.78125 C 192.15625 218.8125 193.636719 218.839844 195.132812 218.871094 L 195.132812 245.230469 " fill-opacity="1" fill-rule="nonzero"/><path fill="rgb(91.369629%, 54.508972%, 10.5896%)" d="M 200.578125 245.277344 C 199.796875 245.277344 199.03125 245.261719 198.25 245.25 L 198.25 218.894531 C 199.03125 218.902344 199.796875 218.917969 200.578125 218.917969 C 201.289062 218.917969 201.996094 218.90625 202.699219 218.902344 L 202.699219 245.25 C 201.996094 245.261719 201.289062 245.277344 200.578125 245.277344 " fill-opacity="1" fill-rule="nonzero"/><path fill="rgb(91.369629%, 54.508972%, 10.5896%)" d="M 205.832031 245.230469 L 205.832031 218.871094 C 207.320312 218.851562 208.792969 218.824219 210.28125 218.789062 L 210.28125 245.136719 C 208.792969 245.175781 207.320312 245.207031 205.832031 245.230469 " fill-opacity="1" fill-rule="nonzero"/><path fill="rgb(91.369629%, 54.508972%, 10.5896%)" d="M 213.398438 245.046875 L 213.398438 218.699219 C 214.898438 218.648438 216.371094 218.582031 217.847656 218.511719 L 217.847656 244.867188 C 216.371094 244.925781 214.898438 245 213.398438 245.046875 " fill-opacity="1" fill-rule="nonzero"/><path fill="rgb(91.369629%, 54.508972%, 10.5896%)" d="M 220.976562 244.714844 L 220.976562 218.371094 C 222.472656 218.296875 223.945312 218.191406 225.425781 218.09375 L 225.425781 244.4375 C 223.945312 244.542969 222.472656 244.644531 220.976562 244.714844 " fill-opacity="1" fill-rule="nonzero"/><path fill="rgb(91.369629%, 54.508972%, 10.5896%)" d="M 228.550781 244.21875 L 228.550781 217.882812 C 230.039062 217.769531 231.519531 217.648438 233 217.523438 L 233 243.859375 C 231.527344 243.988281 230.039062 244.105469 228.550781 244.21875 " fill-opacity="1" fill-rule="nonzero"/><path fill="rgb(91.369629%, 54.508972%, 10.5896%)" d="M 236.121094 243.566406 L 236.121094 217.230469 C 237.609375 217.089844 239.113281 216.945312 240.574219 216.785156 L 240.574219 243.101562 C 239.113281 243.265625 237.609375 243.414062 236.121094 243.566406 " fill-opacity="1" fill-rule="nonzero"/><path fill="rgb(91.369629%, 54.508972%, 10.5896%)" d="M 243.699219 242.734375 L 243.699219 216.417969 C 245.191406 216.230469 246.675781 216.050781 248.144531 215.855469 L 248.144531 242.164062 C 246.675781 242.363281 245.191406 242.546875 243.699219 242.734375 " fill-opacity="1" fill-rule="nonzero"/><path fill="rgb(91.369629%, 54.508972%, 10.5896%)" d="M 172.410156 244.207031 C 170.921875 244.085938 169.429688 243.976562 167.957031 243.847656 L 167.957031 217.507812 C 169.429688 217.632812 170.921875 217.75 172.410156 217.863281 L 172.410156 244.207031 " fill-opacity="1" fill-rule="nonzero"/><path fill="rgb(91.369629%, 54.508972%, 10.5896%)" d="M 164.839844 243.542969 C 163.339844 243.394531 161.851562 243.25 160.386719 243.085938 L 160.386719 216.761719 C 161.851562 216.925781 163.339844 217.066406 164.839844 217.210938 L 164.839844 243.542969 " fill-opacity="1" fill-rule="nonzero"/><path fill="rgb(91.369629%, 54.508972%, 10.5896%)" d="M 157.257812 242.707031 C 155.761719 242.53125 154.285156 242.335938 152.808594 242.132812 L 152.808594 215.832031 C 154.285156 216.027344 155.761719 216.210938 157.257812 216.394531 L 157.257812 242.707031 " fill-opacity="1" fill-rule="nonzero"/><path fill="rgb(91.369629%, 54.508972%, 10.5896%)" d="M 111.816406 233.25 C 110.300781 232.769531 108.8125 232.277344 107.367188 231.769531 L 107.367188 205.664062 C 108.8125 206.15625 110.300781 206.648438 111.816406 207.109375 L 111.816406 233.25 " fill-opacity="1" fill-rule="nonzero"/><path fill="rgb(91.369629%, 54.508972%, 10.5896%)" d="M 103.828125 230.476562 C 102.445312 229.957031 101.105469 229.421875 99.796875 228.882812 L 99.796875 202.878906 C 101.238281 203.460938 102.722656 204.023438 104.242188 204.574219 L 104.242188 230.039062 C 104.242188 230.207031 104.066406 230.351562 103.828125 230.476562 " fill-opacity="1" fill-rule="nonzero"/><path fill="rgb(91.369629%, 54.508972%, 10.5896%)" d="M 95.53125 227.035156 C 94.386719 226.511719 93.292969 225.980469 92.21875 225.445312 L 92.21875 199.566406 C 93.652344 200.253906 95.136719 200.929688 96.667969 201.605469 L 96.667969 226.363281 C 96.667969 226.652344 96.191406 226.898438 95.53125 227.035156 " fill-opacity="1" fill-rule="nonzero"/><path fill="rgb(91.369629%, 54.508972%, 10.5896%)" d="M 88.167969 223.300781 C 86.945312 222.609375 85.761719 221.902344 84.644531 221.1875 L 84.644531 195.507812 C 86.058594 196.351562 87.535156 197.203125 89.097656 198.015625 L 89.097656 222.679688 C 89.097656 222.933594 88.71875 223.152344 88.167969 223.300781 " fill-opacity="1" fill-rule="nonzero"/><path fill="rgb(91.369629%, 54.508972%, 10.5896%)" d="M 81.488281 219.0625 C 79.867188 217.894531 78.410156 216.691406 77.0625 215.464844 L 77.0625 190.234375 C 78.421875 191.351562 79.929688 192.441406 81.527344 193.519531 L 81.527344 219 L 81.488281 219.0625 " fill-opacity="1" fill-rule="nonzero"/><path fill="rgb(91.369629%, 54.508972%, 10.5896%)" d="M 73.949219 212.304688 C 71.945312 209.996094 70.460938 207.609375 69.492188 205.164062 L 69.492188 186.796875 C 70.933594 187.4375 72.417969 188.0625 73.949219 188.667969 L 73.949219 212.304688 " fill-opacity="1" fill-rule="nonzero"/><g clip-path="url(#id3)"><path fill="rgb(97.24884%, 61.959839%, 9.799194%)" d="M 308.886719 157.433594 L 308.886719 129.277344 L 40.378906 129.277344 L 40.378906 157.433594 C 40.378906 183.515625 100.488281 204.648438 174.632812 204.648438 C 248.78125 204.648438 308.886719 183.515625 308.886719 157.433594 " fill-opacity="1" fill-rule="nonzero"/></g><g clip-path="url(#id4)"><path fill="rgb(96.078491%, 75.689697%, 8.628845%)" d="M 174.632812 174.417969 C 100.488281 174.417969 40.378906 153.285156 40.378906 127.207031 C 40.378906 101.117188 100.488281 79.984375 174.632812 79.984375 C 248.78125 79.984375 308.886719 101.117188 308.886719 127.207031 C 308.886719 153.285156 248.78125 174.417969 174.632812 174.417969 " fill-opacity="1" fill-rule="nonzero"/></g><path fill="rgb(97.24884%, 61.959839%, 9.799194%)" d="M 182.71875 145.640625 C 188.09375 145.28125 192.476562 144.402344 195.859375 143.003906 C 199.222656 141.597656 200.917969 139.945312 200.917969 138.058594 C 200.917969 136.367188 199.5 134.910156 196.664062 133.679688 C 193.820312 132.457031 189.191406 131.507812 182.71875 130.855469 L 182.71875 145.640625 M 167.089844 105.324219 C 162.851562 105.828125 159.480469 106.683594 156.972656 107.886719 C 154.453125 109.113281 153.199219 110.449219 153.199219 111.917969 C 153.199219 113.257812 154.34375 114.496094 156.640625 115.648438 C 158.9375 116.789062 162.417969 117.722656 167.089844 118.429688 L 167.089844 105.324219 M 167.089844 145.101562 L 167.089844 129.226562 C 153.015625 127.8125 142.695312 125.679688 136.121094 122.808594 C 129.554688 119.949219 126.261719 116.457031 126.261719 112.378906 C 126.261719 108.222656 129.980469 104.746094 137.410156 101.929688 C 144.839844 99.109375 154.738281 97.492188 167.089844 97.0625 L 167.089844 93.316406 L 182.71875 93.316406 L 182.71875 97.0625 C 194.125 97.539062 203.203125 98.917969 209.964844 101.175781 C 216.730469 103.4375 221.03125 106.453125 222.890625 110.253906 L 195.636719 111.496094 C 193.984375 108.523438 189.667969 106.5 182.71875 105.4375 L 182.71875 120.25 C 199.953125 121.882812 211.707031 124.023438 217.941406 126.636719 C 224.191406 129.25 227.316406 132.609375 227.316406 136.6875 C 227.316406 141.265625 223.378906 145.121094 215.527344 148.25 C 207.648438 151.382812 196.714844 153.296875 182.71875 154.011719 L 182.71875 161.097656 L 167.089844 161.097656 L 167.089844 154.199219 C 154.667969 153.664062 144.566406 152.039062 136.816406 149.3125 C 129.0625 146.582031 124.113281 142.730469 121.953125 137.753906 L 150.070312 136.6875 C 151.226562 138.710938 153.371094 140.453125 156.535156 141.925781 C 159.691406 143.378906 163.210938 144.449219 167.089844 145.101562 " fill-opacity="1" fill-rule="nonzero"/><path fill="rgb(91.369629%, 54.508972%, 10.5896%)" d="M 293.71875 176.34375 L 293.683594 176.285156 L 293.683594 150.804688 C 295.277344 149.726562 296.777344 148.636719 298.132812 147.519531 L 298.132812 172.746094 C 296.792969 173.976562 295.335938 175.175781 293.71875 176.34375 " fill-opacity="1" fill-rule="nonzero"/><path fill="rgb(91.369629%, 54.508972%, 10.5896%)" d="M 287.035156 180.582031 C 286.492188 180.4375 286.109375 180.21875 286.109375 179.964844 L 286.109375 155.292969 C 287.675781 154.480469 289.144531 153.636719 290.554688 152.78125 L 290.554688 178.476562 C 289.441406 179.191406 288.253906 179.890625 287.035156 180.582031 " fill-opacity="1" fill-rule="nonzero"/><path fill="rgb(91.369629%, 54.508972%, 10.5896%)" d="M 301.261719 169.59375 L 301.261719 144.679688 C 302.140625 143.800781 302.949219 142.910156 303.683594 142.007812 C 304.386719 141.480469 305.0625 140.949219 305.710938 140.414062 L 305.710938 162.449219 C 304.75 164.890625 303.257812 167.285156 301.261719 169.59375 " fill-opacity="1" fill-rule="nonzero"/><path fill="rgb(91.369629%, 54.508972%, 10.5896%)" d="M 279.671875 184.3125 C 279.011719 184.171875 278.535156 183.9375 278.535156 183.648438 L 278.535156 158.886719 C 280.074219 158.21875 281.554688 157.542969 282.992188 156.851562 L 282.992188 182.726562 C 281.914062 183.265625 280.816406 183.796875 279.671875 184.3125 " fill-opacity="1" fill-rule="nonzero"/><path fill="rgb(91.369629%, 54.508972%, 10.5896%)" d="M 271.378906 187.765625 C 271.136719 187.632812 270.957031 187.488281 270.957031 187.328125 L 270.957031 161.851562 C 272.488281 161.308594 273.964844 160.734375 275.410156 160.167969 L 275.410156 186.167969 C 274.105469 186.714844 272.757812 187.242188 271.378906 187.765625 " fill-opacity="1" fill-rule="nonzero"/><path fill="rgb(91.369629%, 54.508972%, 10.5896%)" d="M 263.390625 190.535156 L 263.390625 164.394531 C 264.902344 163.929688 266.386719 163.453125 267.84375 162.953125 L 267.84375 189.054688 C 266.386719 189.5625 264.90625 190.054688 263.390625 190.535156 " fill-opacity="1" fill-rule="nonzero"/><path fill="rgb(91.369629%, 54.508972%, 10.5896%)" d="M 255.816406 192.753906 L 255.816406 166.585938 C 257.324219 166.175781 258.8125 165.773438 260.269531 165.351562 L 260.269531 191.492188 C 258.808594 191.925781 257.328125 192.34375 255.816406 192.753906 " fill-opacity="1" fill-rule="nonzero"/><path fill="rgb(91.369629%, 54.508972%, 10.5896%)" d="M 248.238281 194.699219 L 248.238281 168.46875 C 249.75 168.121094 251.226562 167.753906 252.699219 167.386719 L 252.699219 193.589844 C 251.226562 193.96875 249.75 194.335938 248.238281 194.699219 " fill-opacity="1" fill-rule="nonzero"/><path fill="rgb(91.369629%, 54.508972%, 10.5896%)" d="M 240.671875 196.347656 L 240.671875 170.09375 C 242.167969 169.792969 243.644531 169.488281 245.121094 169.167969 L 245.121094 195.398438 C 243.644531 195.722656 242.167969 196.039062 240.671875 196.347656 " fill-opacity="1" fill-rule="nonzero"/><path fill="rgb(91.369629%, 54.508972%, 10.5896%)" d="M 233.097656 197.773438 L 233.097656 171.5 C 234.597656 171.238281 236.066406 170.980469 237.542969 170.699219 L 237.542969 196.972656 C 236.078125 197.25 234.582031 197.515625 233.097656 197.773438 " fill-opacity="1" fill-rule="nonzero"/><path fill="rgb(91.369629%, 54.508972%, 10.5896%)" d="M 225.519531 198.992188 L 225.519531 172.679688 C 227.015625 172.46875 228.503906 172.238281 229.964844 172 L 229.964844 198.285156 C 228.503906 198.53125 227.015625 198.765625 225.519531 198.992188 " fill-opacity="1" fill-rule="nonzero"/><path fill="rgb(91.369629%, 54.508972%, 10.5896%)" d="M 123.75 198.992188 C 122.242188 198.765625 120.761719 198.53125 119.292969 198.285156 L 119.292969 172 C 120.761719 172.238281 122.242188 172.46875 123.75 172.679688 L 123.75 198.992188 " fill-opacity="1" fill-rule="nonzero"/><path fill="rgb(91.369629%, 54.508972%, 10.5896%)" d="M 116.171875 197.773438 C 114.675781 197.515625 113.183594 197.25 111.71875 196.972656 L 111.71875 170.699219 C 113.1875 170.980469 114.671875 171.238281 116.171875 171.5 L 116.171875 197.773438 " fill-opacity="1" fill-rule="nonzero"/><path fill="rgb(91.369629%, 54.508972%, 10.5896%)" d="M 108.597656 196.347656 C 107.097656 196.039062 105.609375 195.722656 104.148438 195.398438 L 104.148438 169.167969 C 105.609375 169.488281 107.097656 169.792969 108.597656 170.09375 L 108.597656 196.347656 " fill-opacity="1" fill-rule="nonzero"/><path fill="rgb(91.369629%, 54.508972%, 10.5896%)" d="M 101.023438 194.699219 C 99.507812 194.335938 98.035156 193.96875 96.570312 193.589844 L 96.570312 167.386719 C 98.035156 167.753906 99.507812 168.121094 101.023438 168.46875 L 101.023438 194.699219 " fill-opacity="1" fill-rule="nonzero"/><path fill="rgb(91.369629%, 54.508972%, 10.5896%)" d="M 93.449219 192.753906 C 91.941406 192.34375 90.460938 191.925781 89 191.492188 L 89 165.351562 C 90.445312 165.773438 91.945312 166.175781 93.449219 166.585938 L 93.449219 192.753906 " fill-opacity="1" fill-rule="nonzero"/><path fill="rgb(91.369629%, 54.508972%, 10.5896%)" d="M 161.609375 202.332031 C 160.125 202.277344 158.644531 202.210938 157.160156 202.144531 L 157.160156 175.792969 C 158.644531 175.855469 160.125 175.917969 161.609375 175.976562 L 161.609375 202.332031 " fill-opacity="1" fill-rule="nonzero"/><path fill="rgb(91.369629%, 54.508972%, 10.5896%)" d="M 154.039062 201.984375 C 152.542969 201.914062 151.066406 201.816406 149.585938 201.714844 L 149.585938 175.371094 C 151.066406 175.464844 152.542969 175.570312 154.039062 175.652344 L 154.039062 201.984375 " fill-opacity="1" fill-rule="nonzero"/><path fill="rgb(91.369629%, 54.508972%, 10.5896%)" d="M 169.1875 202.515625 C 167.695312 202.484375 166.210938 202.449219 164.742188 202.417969 L 164.742188 176.058594 C 166.210938 176.097656 167.695312 176.121094 169.1875 176.148438 L 169.1875 202.515625 " fill-opacity="1" fill-rule="nonzero"/><path fill="rgb(91.369629%, 54.508972%, 10.5896%)" d="M 174.632812 202.5625 C 173.851562 202.5625 173.085938 202.542969 172.3125 202.535156 L 172.3125 176.175781 C 173.085938 176.175781 173.851562 176.195312 174.632812 176.195312 C 175.347656 176.195312 176.050781 176.191406 176.761719 176.175781 L 176.761719 202.535156 C 176.050781 202.542969 175.347656 202.5625 174.632812 202.5625 " fill-opacity="1" fill-rule="nonzero"/><path fill="rgb(91.369629%, 54.508972%, 10.5896%)" d="M 179.890625 202.515625 L 179.890625 176.148438 C 181.375 176.128906 182.855469 176.105469 184.339844 176.070312 L 184.339844 202.421875 C 182.855469 202.457031 181.375 202.484375 179.890625 202.515625 " fill-opacity="1" fill-rule="nonzero"/><path fill="rgb(91.369629%, 54.508972%, 10.5896%)" d="M 187.457031 202.332031 L 187.457031 175.988281 C 188.953125 175.929688 190.4375 175.859375 191.90625 175.796875 L 191.90625 202.148438 C 190.4375 202.214844 188.953125 202.292969 187.457031 202.332031 " fill-opacity="1" fill-rule="nonzero"/><path fill="rgb(91.369629%, 54.508972%, 10.5896%)" d="M 195.03125 202.007812 L 195.03125 175.65625 C 196.527344 175.582031 198 175.476562 199.484375 175.378906 L 199.484375 201.726562 C 198 201.828125 196.527344 201.925781 195.03125 202.007812 " fill-opacity="1" fill-rule="nonzero"/><path fill="rgb(91.369629%, 54.508972%, 10.5896%)" d="M 202.601562 201.496094 L 202.601562 175.164062 C 204.101562 175.054688 205.582031 174.933594 207.054688 174.804688 L 207.054688 201.144531 C 205.589844 201.269531 204.101562 201.390625 202.601562 201.496094 " fill-opacity="1" fill-rule="nonzero"/><path fill="rgb(91.369629%, 54.508972%, 10.5896%)" d="M 210.171875 200.84375 L 210.171875 174.515625 C 211.667969 174.371094 213.160156 174.234375 214.636719 174.066406 L 214.636719 200.386719 C 213.160156 200.554688 211.667969 200.699219 210.171875 200.84375 " fill-opacity="1" fill-rule="nonzero"/><path fill="rgb(91.369629%, 54.508972%, 10.5896%)" d="M 217.753906 200.015625 L 217.753906 173.699219 C 219.246094 173.519531 220.730469 173.335938 222.203125 173.136719 L 222.203125 199.445312 C 220.730469 199.644531 219.246094 199.832031 217.753906 200.015625 " fill-opacity="1" fill-rule="nonzero"/><path fill="rgb(91.369629%, 54.508972%, 10.5896%)" d="M 146.460938 201.492188 C 144.976562 201.375 143.492188 201.261719 142.011719 201.132812 L 142.011719 174.792969 C 143.492188 174.917969 144.976562 175.042969 146.460938 175.148438 L 146.460938 201.492188 " fill-opacity="1" fill-rule="nonzero"/><path fill="rgb(91.369629%, 54.508972%, 10.5896%)" d="M 138.890625 200.828125 C 137.398438 200.679688 135.914062 200.53125 134.441406 200.367188 L 134.441406 174.042969 C 135.914062 174.207031 137.398438 174.351562 138.890625 174.496094 L 138.890625 200.828125 " fill-opacity="1" fill-rule="nonzero"/><path fill="rgb(91.369629%, 54.508972%, 10.5896%)" d="M 131.316406 199.992188 C 129.824219 199.8125 128.34375 199.621094 126.863281 199.417969 L 126.863281 173.113281 C 128.339844 173.308594 129.824219 173.496094 131.316406 173.679688 L 131.316406 199.992188 " fill-opacity="1" fill-rule="nonzero"/><path fill="rgb(91.369629%, 54.508972%, 10.5896%)" d="M 85.875 190.535156 C 84.351562 190.054688 82.878906 189.5625 81.421875 189.054688 L 81.421875 162.953125 C 82.878906 163.453125 84.363281 163.929688 85.875 164.394531 L 85.875 190.535156 " fill-opacity="1" fill-rule="nonzero"/><path fill="rgb(91.369629%, 54.508972%, 10.5896%)" d="M 77.886719 187.765625 C 76.507812 187.242188 75.15625 186.714844 73.851562 186.167969 L 73.851562 160.167969 C 75.292969 160.734375 76.777344 161.308594 78.300781 161.851562 L 78.300781 187.328125 C 78.300781 187.488281 78.128906 187.632812 77.886719 187.765625 " fill-opacity="1" fill-rule="nonzero"/><path fill="rgb(91.369629%, 54.508972%, 10.5896%)" d="M 69.585938 184.3125 C 68.449219 183.796875 67.34375 183.265625 66.273438 182.726562 L 66.273438 156.851562 C 67.714844 157.542969 69.1875 158.21875 70.730469 158.886719 L 70.730469 183.648438 C 70.730469 183.9375 70.253906 184.171875 69.585938 184.3125 " fill-opacity="1" fill-rule="nonzero"/><path fill="rgb(91.369629%, 54.508972%, 10.5896%)" d="M 62.234375 180.582031 C 61.007812 179.890625 59.8125 179.191406 58.703125 178.476562 L 58.703125 152.78125 C 60.117188 153.636719 61.585938 154.480469 63.152344 155.292969 L 63.152344 179.964844 C 63.152344 180.21875 62.769531 180.4375 62.234375 180.582031 " fill-opacity="1" fill-rule="nonzero"/><path fill="rgb(91.369629%, 54.508972%, 10.5896%)" d="M 55.546875 176.34375 C 53.925781 175.175781 52.464844 173.976562 51.125 172.746094 L 51.125 147.519531 C 52.488281 148.636719 53.988281 149.726562 55.585938 150.804688 L 55.585938 176.285156 L 55.546875 176.34375 " fill-opacity="1" fill-rule="nonzero"/><path fill="rgb(91.369629%, 54.508972%, 10.5896%)" d="M 48.007812 169.59375 C 46 167.285156 44.519531 164.894531 43.558594 162.449219 L 43.558594 139.183594 C 44.726562 141.058594 46.214844 142.894531 48.007812 144.679688 L 48.007812 169.59375 " fill-opacity="1" fill-rule="nonzero"/><path fill="rgb(97.24884%, 61.959839%, 9.799194%)" d="M 316.363281 121.949219 L 316.363281 93.792969 L 47.859375 93.792969 L 47.859375 121.949219 C 47.859375 148.027344 107.964844 169.167969 182.113281 169.167969 C 256.257812 169.167969 316.363281 148.027344 316.363281 121.949219 " fill-opacity="1" fill-rule="nonzero"/><path fill="rgb(96.078491%, 75.689697%, 8.628845%)" d="M 182.113281 138.933594 C 107.964844 138.933594 47.859375 117.800781 47.859375 91.722656 C 47.859375 65.644531 107.964844 44.5 182.113281 44.5 C 256.257812 44.5 316.363281 65.644531 316.363281 91.722656 C 316.363281 117.800781 256.257812 138.933594 182.113281 138.933594 " fill-opacity="1" fill-rule="nonzero"/><path fill="rgb(97.24884%, 61.959839%, 9.799194%)" d="M 190.203125 110.152344 C 195.578125 109.792969 199.957031 108.925781 203.335938 107.523438 C 206.703125 106.125 208.398438 104.46875 208.398438 102.578125 C 208.398438 100.878906 206.984375 99.421875 204.140625 98.203125 C 201.296875 96.976562 196.671875 96.027344 190.203125 95.371094 L 190.203125 110.152344 M 174.570312 69.839844 C 170.335938 70.351562 166.953125 71.203125 164.449219 72.410156 C 161.9375 73.632812 160.671875 74.96875 160.671875 76.4375 C 160.671875 77.773438 161.824219 79.015625 164.121094 80.164062 C 166.417969 81.308594 169.894531 82.246094 174.570312 82.949219 L 174.570312 69.839844 M 174.570312 109.628906 L 174.570312 93.75 C 160.496094 92.328125 150.175781 90.191406 143.597656 87.324219 C 137.035156 84.460938 133.742188 80.980469 133.742188 76.886719 C 133.742188 72.742188 137.464844 69.261719 144.894531 66.449219 C 152.320312 63.632812 162.214844 62.007812 174.570312 61.582031 L 174.570312 57.832031 L 190.203125 57.832031 L 190.203125 61.582031 C 201.609375 62.054688 210.683594 63.429688 217.449219 65.691406 C 224.203125 67.953125 228.511719 70.972656 230.367188 74.765625 L 203.121094 76.023438 C 201.46875 73.03125 197.15625 71.019531 190.203125 69.957031 L 190.203125 84.765625 C 207.429688 86.410156 219.183594 88.539062 225.417969 91.152344 C 231.664062 93.769531 234.789062 97.117188 234.789062 101.207031 C 234.789062 105.785156 230.855469 109.636719 223.011719 112.765625 C 215.132812 115.898438 204.195312 117.820312 190.203125 118.527344 L 190.203125 125.613281 L 174.570312 125.613281 L 174.570312 118.714844 C 162.140625 118.183594 152.054688 116.554688 144.292969 113.828125 C 136.542969 111.09375 131.59375 107.246094 129.4375 102.273438 L 157.546875 101.207031 C 158.699219 103.226562 160.847656 104.96875 164.011719 106.441406 C 167.167969 107.902344 170.691406 108.964844 174.570312 109.628906 " fill-opacity="1" fill-rule="nonzero"/><path fill="rgb(91.369629%, 54.508972%, 10.5896%)" d="M 301.195312 140.863281 L 301.160156 140.804688 L 301.160156 115.316406 C 302.757812 114.246094 304.261719 113.148438 305.621094 112.035156 L 305.621094 137.273438 C 304.273438 138.492188 302.816406 139.6875 301.195312 140.863281 " fill-opacity="1" fill-rule="nonzero"/><path fill="rgb(91.369629%, 54.508972%, 10.5896%)" d="M 294.511719 145.097656 C 293.976562 144.957031 293.59375 144.734375 293.59375 144.484375 L 293.59375 119.820312 C 295.15625 118.996094 296.628906 118.152344 298.042969 117.296875 L 298.042969 142.992188 C 296.925781 143.710938 295.742188 144.410156 294.511719 145.097656 " fill-opacity="1" fill-rule="nonzero"/><path fill="rgb(91.369629%, 54.508972%, 10.5896%)" d="M 308.738281 134.109375 L 308.738281 109.199219 C 310.53125 107.410156 312.011719 105.570312 313.191406 103.699219 L 313.191406 126.964844 C 312.226562 129.40625 310.738281 131.796875 308.738281 134.109375 " fill-opacity="1" fill-rule="nonzero"/><path fill="rgb(91.369629%, 54.508972%, 10.5896%)" d="M 287.15625 148.839844 C 286.492188 148.6875 286.011719 148.453125 286.011719 148.167969 L 286.011719 123.402344 C 287.550781 122.734375 289.03125 122.058594 290.46875 121.363281 L 290.46875 147.242188 C 289.394531 147.785156 288.296875 148.3125 287.15625 148.839844 " fill-opacity="1" fill-rule="nonzero"/><path fill="rgb(91.369629%, 54.508972%, 10.5896%)" d="M 278.859375 152.28125 C 278.621094 152.152344 278.445312 152.003906 278.445312 151.84375 L 278.445312 126.371094 C 279.964844 125.824219 281.445312 125.253906 282.890625 124.683594 L 282.890625 150.683594 C 281.582031 151.226562 280.238281 151.757812 278.859375 152.28125 " fill-opacity="1" fill-rule="nonzero"/><path fill="rgb(91.369629%, 54.508972%, 10.5896%)" d="M 270.878906 155.046875 L 270.878906 128.90625 C 272.382812 128.441406 273.871094 127.964844 275.324219 127.460938 L 275.324219 153.570312 C 273.871094 154.078125 272.394531 154.574219 270.878906 155.046875 " fill-opacity="1" fill-rule="nonzero"/><path fill="rgb(91.369629%, 54.508972%, 10.5896%)" d="M 263.289062 157.273438 L 263.289062 131.101562 C 264.796875 130.695312 266.292969 130.292969 267.746094 129.867188 L 267.746094 156.007812 C 266.289062 156.441406 264.804688 156.863281 263.289062 157.273438 " fill-opacity="1" fill-rule="nonzero"/><path fill="rgb(91.369629%, 54.508972%, 10.5896%)" d="M 255.714844 159.214844 L 255.714844 132.984375 C 257.230469 132.636719 258.710938 132.269531 260.175781 131.902344 L 260.175781 158.105469 C 258.710938 158.480469 257.230469 158.851562 255.714844 159.214844 " fill-opacity="1" fill-rule="nonzero"/><path fill="rgb(91.369629%, 54.508972%, 10.5896%)" d="M 248.144531 160.859375 L 248.144531 134.609375 C 249.644531 134.308594 251.136719 134.007812 252.597656 133.679688 L 252.597656 159.914062 C 251.136719 160.246094 249.644531 160.550781 248.144531 160.859375 " fill-opacity="1" fill-rule="nonzero"/><path fill="rgb(91.369629%, 54.508972%, 10.5896%)" d="M 240.574219 162.289062 L 240.574219 136.015625 C 242.082031 135.757812 243.546875 135.492188 245.027344 135.214844 L 245.027344 161.488281 C 243.566406 161.765625 242.078125 162.03125 240.574219 162.289062 " fill-opacity="1" fill-rule="nonzero"/><path fill="rgb(91.369629%, 54.508972%, 10.5896%)" d="M 233 163.503906 L 233 137.199219 C 234.5 136.984375 235.980469 136.757812 237.453125 136.519531 L 237.453125 162.816406 C 235.980469 163.046875 234.5 163.285156 233 163.503906 " fill-opacity="1" fill-rule="nonzero"/><path fill="rgb(91.369629%, 54.508972%, 10.5896%)" d="M 131.222656 163.503906 C 129.730469 163.285156 128.246094 163.046875 126.773438 162.816406 L 126.773438 136.519531 C 128.246094 136.757812 129.730469 136.984375 131.222656 137.199219 L 131.222656 163.503906 " fill-opacity="1" fill-rule="nonzero"/><path fill="rgb(91.369629%, 54.508972%, 10.5896%)" d="M 123.648438 162.289062 C 122.15625 162.03125 120.660156 161.765625 119.195312 161.488281 L 119.195312 135.214844 C 120.671875 135.492188 122.152344 135.757812 123.648438 136.015625 L 123.648438 162.289062 " fill-opacity="1" fill-rule="nonzero"/><path fill="rgb(91.369629%, 54.508972%, 10.5896%)" d="M 116.082031 160.859375 C 114.578125 160.550781 113.09375 160.246094 111.632812 159.914062 L 111.632812 133.679688 C 113.09375 134.007812 114.578125 134.308594 116.082031 134.609375 L 116.082031 160.859375 " fill-opacity="1" fill-rule="nonzero"/><path fill="rgb(91.369629%, 54.508972%, 10.5896%)" d="M 108.511719 159.214844 C 106.988281 158.851562 105.515625 158.480469 104.054688 158.105469 L 104.054688 131.902344 C 105.515625 132.269531 106.988281 132.636719 108.511719 132.984375 L 108.511719 159.214844 " fill-opacity="1" fill-rule="nonzero"/><path fill="rgb(91.369629%, 54.508972%, 10.5896%)" d="M 100.933594 157.273438 C 99.414062 156.863281 97.9375 156.441406 96.484375 156.007812 L 96.484375 129.867188 C 97.929688 130.292969 99.425781 130.695312 100.933594 131.101562 L 100.933594 157.273438 " fill-opacity="1" fill-rule="nonzero"/><path fill="rgb(91.369629%, 54.508972%, 10.5896%)" d="M 169.09375 166.84375 C 167.601562 166.792969 166.125 166.722656 164.644531 166.660156 L 164.644531 140.308594 C 166.125 140.367188 167.601562 140.445312 169.09375 140.492188 L 169.09375 166.84375 " fill-opacity="1" fill-rule="nonzero"/><path fill="rgb(91.369629%, 54.508972%, 10.5896%)" d="M 161.523438 166.511719 C 160.03125 166.425781 158.542969 166.335938 157.070312 166.230469 L 157.070312 139.886719 C 158.542969 139.972656 160.03125 140.085938 161.523438 140.167969 L 161.523438 166.511719 " fill-opacity="1" fill-rule="nonzero"/><path fill="rgb(91.369629%, 54.508972%, 10.5896%)" d="M 176.671875 167.03125 C 175.175781 167 173.691406 166.960938 172.222656 166.933594 L 172.222656 140.578125 C 173.691406 140.613281 175.175781 140.648438 176.671875 140.664062 L 176.671875 167.03125 " fill-opacity="1" fill-rule="nonzero"/><path fill="rgb(91.369629%, 54.508972%, 10.5896%)" d="M 182.113281 167.078125 C 181.335938 167.078125 180.570312 167.054688 179.785156 167.054688 L 179.785156 140.691406 C 180.570312 140.703125 181.335938 140.722656 182.113281 140.722656 C 182.824219 140.722656 183.535156 140.707031 184.246094 140.703125 L 184.246094 167.054688 C 183.535156 167.054688 182.824219 167.078125 182.113281 167.078125 " fill-opacity="1" fill-rule="nonzero"/><path fill="rgb(91.369629%, 54.508972%, 10.5896%)" d="M 187.363281 167.03125 L 187.363281 140.664062 C 188.859375 140.660156 190.339844 140.621094 191.820312 140.578125 L 191.820312 166.9375 C 190.339844 166.96875 188.859375 167 187.363281 167.03125 " fill-opacity="1" fill-rule="nonzero"/><path fill="rgb(91.369629%, 54.508972%, 10.5896%)" d="M 194.9375 166.851562 L 194.9375 140.5 C 196.425781 140.445312 197.914062 140.382812 199.386719 140.316406 L 199.386719 166.664062 C 197.914062 166.734375 196.425781 166.804688 194.9375 166.851562 " fill-opacity="1" fill-rule="nonzero"/><path fill="rgb(91.369629%, 54.508972%, 10.5896%)" d="M 202.511719 166.519531 L 202.511719 140.175781 C 204.011719 140.089844 205.492188 139.992188 206.964844 139.898438 L 206.964844 166.242188 C 205.492188 166.335938 204.011719 166.445312 202.511719 166.519531 " fill-opacity="1" fill-rule="nonzero"/><path fill="rgb(91.369629%, 54.508972%, 10.5896%)" d="M 210.089844 166.015625 L 210.089844 139.6875 C 211.578125 139.570312 213.066406 139.449219 214.535156 139.328125 L 214.535156 165.660156 C 213.070312 165.796875 211.578125 165.910156 210.089844 166.015625 " fill-opacity="1" fill-rule="nonzero"/><path fill="rgb(91.369629%, 54.508972%, 10.5896%)" d="M 217.65625 165.359375 L 217.65625 139.035156 C 219.148438 138.886719 220.644531 138.75 222.117188 138.578125 L 222.117188 164.894531 C 220.644531 165.070312 219.148438 165.214844 217.65625 165.359375 " fill-opacity="1" fill-rule="nonzero"/><path fill="rgb(91.369629%, 54.508972%, 10.5896%)" d="M 225.238281 164.535156 L 225.238281 138.21875 C 226.726562 138.035156 228.21875 137.847656 229.683594 137.648438 L 229.683594 163.96875 C 228.21875 164.167969 226.726562 164.351562 225.238281 164.535156 " fill-opacity="1" fill-rule="nonzero"/><path fill="rgb(91.369629%, 54.508972%, 10.5896%)" d="M 153.945312 166.003906 C 152.460938 165.894531 150.964844 165.777344 149.496094 165.648438 L 149.496094 139.308594 C 150.964844 139.4375 152.460938 139.554688 153.945312 139.667969 L 153.945312 166.003906 " fill-opacity="1" fill-rule="nonzero"/><path fill="rgb(91.369629%, 54.508972%, 10.5896%)" d="M 146.367188 165.339844 C 144.878906 165.195312 143.386719 165.046875 141.925781 164.886719 L 141.925781 138.5625 C 143.386719 138.726562 144.878906 138.867188 146.367188 139.011719 L 146.367188 165.339844 " fill-opacity="1" fill-rule="nonzero"/><path fill="rgb(91.369629%, 54.508972%, 10.5896%)" d="M 138.796875 164.511719 C 137.304688 164.328125 135.824219 164.128906 134.34375 163.9375 L 134.34375 137.632812 C 135.8125 137.828125 137.304688 138.011719 138.796875 138.195312 L 138.796875 164.511719 " fill-opacity="1" fill-rule="nonzero"/><path fill="rgb(91.369629%, 54.508972%, 10.5896%)" d="M 93.351562 155.046875 C 91.832031 154.574219 90.347656 154.078125 88.902344 153.570312 L 88.902344 127.460938 C 90.347656 127.964844 91.835938 128.441406 93.351562 128.90625 L 93.351562 155.046875 " fill-opacity="1" fill-rule="nonzero"/><path fill="rgb(91.369629%, 54.508972%, 10.5896%)" d="M 85.363281 152.28125 C 83.980469 151.757812 82.632812 151.226562 81.332031 150.683594 L 81.332031 124.683594 C 82.773438 125.253906 84.257812 125.824219 85.777344 126.371094 L 85.777344 151.84375 C 85.777344 152.003906 85.605469 152.152344 85.363281 152.28125 " fill-opacity="1" fill-rule="nonzero"/><path fill="rgb(91.369629%, 54.508972%, 10.5896%)" d="M 77.0625 148.839844 C 75.921875 148.3125 74.828125 147.785156 73.753906 147.242188 L 73.753906 121.363281 C 75.191406 122.058594 76.671875 122.734375 78.207031 123.402344 L 78.207031 148.167969 C 78.207031 148.453125 77.734375 148.6875 77.0625 148.839844 " fill-opacity="1" fill-rule="nonzero"/><path fill="rgb(91.369629%, 54.508972%, 10.5896%)" d="M 69.707031 145.097656 C 68.480469 144.410156 67.300781 143.710938 66.183594 142.992188 L 66.183594 117.296875 C 67.597656 118.152344 69.0625 118.996094 70.632812 119.820312 L 70.632812 144.484375 C 70.632812 144.734375 70.253906 144.957031 69.707031 145.097656 " fill-opacity="1" fill-rule="nonzero"/><path fill="rgb(91.369629%, 54.508972%, 10.5896%)" d="M 63.027344 140.863281 C 61.410156 139.6875 59.949219 138.492188 58.601562 137.273438 L 58.601562 112.035156 C 59.964844 113.148438 61.46875 114.246094 63.0625 115.316406 L 63.0625 140.804688 L 63.027344 140.863281 " fill-opacity="1" fill-rule="nonzero"/><path fill="rgb(91.369629%, 54.508972%, 10.5896%)" d="M 55.492188 134.109375 C 53.484375 131.796875 51.996094 129.410156 51.035156 126.964844 L 51.035156 103.699219 C 52.207031 105.570312 53.695312 107.410156 55.492188 109.199219 L 55.492188 134.109375 " fill-opacity="1" fill-rule="nonzero"/><g clip-path="url(#id5)"><path fill="rgb(97.24884%, 61.959839%, 9.799194%)" d="M 334.828125 77.460938 L 334.828125 49.304688 L 66.324219 49.304688 L 66.324219 77.460938 C 66.324219 103.539062 126.429688 124.683594 200.578125 124.683594 C 274.714844 124.683594 334.828125 103.539062 334.828125 77.460938 " fill-opacity="1" fill-rule="nonzero"/></g><g clip-path="url(#id6)"><path fill="rgb(96.078491%, 75.689697%, 8.628845%)" d="M 200.578125 94.453125 C 126.429688 94.453125 66.324219 73.308594 66.324219 47.234375 C 66.324219 21.152344 126.429688 0.0195312 200.578125 0.0195312 C 274.714844 0.0195312 334.828125 21.152344 334.828125 47.234375 C 334.828125 73.308594 274.714844 94.453125 200.578125 94.453125 " fill-opacity="1" fill-rule="nonzero"/></g><path fill="rgb(97.24884%, 61.959839%, 9.799194%)" d="M 208.65625 65.667969 C 214.03125 65.3125 218.421875 64.4375 221.804688 63.035156 C 225.171875 61.632812 226.859375 59.980469 226.859375 58.089844 C 226.859375 56.398438 225.449219 54.933594 222.601562 53.71875 C 219.765625 52.488281 215.132812 51.539062 208.65625 50.886719 Z M 193.03125 25.359375 C 188.800781 25.855469 185.417969 26.714844 182.910156 27.929688 C 180.398438 29.144531 179.136719 30.476562 179.136719 31.945312 C 179.136719 33.292969 180.285156 34.527344 182.582031 35.675781 C 184.882812 36.828125 188.359375 37.753906 193.03125 38.457031 Z M 193.03125 65.140625 L 193.03125 49.261719 C 178.953125 47.839844 168.640625 45.707031 162.054688 42.828125 C 155.496094 39.96875 152.207031 36.492188 152.207031 32.398438 C 152.207031 28.257812 155.925781 24.773438 163.355469 21.957031 C 170.785156 19.144531 180.679688 17.519531 193.03125 17.089844 L 193.03125 13.339844 L 208.65625 13.339844 L 208.65625 17.089844 C 220.074219 17.570312 229.148438 18.941406 235.90625 21.203125 C 242.667969 23.457031 246.976562 26.488281 248.832031 30.273438 L 221.585938 31.535156 C 219.933594 28.542969 215.617188 26.527344 208.65625 25.472656 L 208.65625 40.277344 C 225.894531 41.917969 237.640625 44.046875 243.886719 46.660156 C 250.128906 49.28125 253.253906 52.628906 253.253906 56.722656 C 253.253906 61.300781 249.316406 65.144531 241.472656 68.273438 C 233.597656 71.414062 222.660156 73.328125 208.65625 74.042969 L 208.65625 81.121094 L 193.03125 81.121094 L 193.03125 74.230469 C 180.609375 73.699219 170.515625 72.074219 162.753906 69.335938 C 155.007812 66.609375 150.054688 62.761719 147.898438 57.789062 L 176.007812 56.722656 C 177.164062 58.746094 179.3125 60.484375 182.476562 61.957031 C 185.628906 63.414062 189.15625 64.472656 193.03125 65.140625 " fill-opacity="1" fill-rule="nonzero"/><path fill="rgb(91.369629%, 54.508972%, 10.5896%)" d="M 319.660156 96.382812 L 319.617188 96.316406 L 319.617188 70.839844 C 321.214844 69.753906 322.71875 68.667969 324.078125 67.542969 L 324.078125 92.78125 C 322.734375 94 321.277344 95.199219 319.660156 96.382812 " fill-opacity="1" fill-rule="nonzero"/><path fill="rgb(91.369629%, 54.508972%, 10.5896%)" d="M 312.976562 100.609375 C 312.433594 100.464844 312.050781 100.25 312.050781 99.992188 L 312.050781 75.332031 C 313.621094 74.515625 315.089844 73.667969 316.507812 72.816406 L 316.507812 98.503906 C 315.386719 99.222656 314.203125 99.921875 312.976562 100.609375 " fill-opacity="1" fill-rule="nonzero"/><path fill="rgb(91.369629%, 54.508972%, 10.5896%)" d="M 327.203125 89.621094 L 327.203125 64.714844 C 328.992188 62.925781 330.476562 61.089844 331.648438 59.214844 L 331.648438 82.480469 C 330.6875 84.914062 329.203125 87.308594 327.203125 89.621094 " fill-opacity="1" fill-rule="nonzero"/><path fill="rgb(91.369629%, 54.508972%, 10.5896%)" d="M 305.621094 104.351562 C 304.957031 104.210938 304.476562 103.964844 304.476562 103.671875 L 304.476562 78.914062 C 306.015625 78.246094 307.492188 77.574219 308.933594 76.878906 L 308.933594 102.753906 C 307.855469 103.296875 306.753906 103.824219 305.621094 104.351562 " fill-opacity="1" fill-rule="nonzero"/><path fill="rgb(91.369629%, 54.508972%, 10.5896%)" d="M 297.320312 107.789062 C 297.078125 107.667969 296.90625 107.523438 296.90625 107.359375 L 296.90625 81.886719 C 298.429688 81.332031 299.910156 80.765625 301.355469 80.191406 L 301.355469 106.195312 C 300.039062 106.738281 298.703125 107.273438 297.320312 107.789062 " fill-opacity="1" fill-rule="nonzero"/><path fill="rgb(91.369629%, 54.508972%, 10.5896%)" d="M 289.339844 110.570312 L 289.339844 84.417969 C 290.847656 83.957031 292.335938 83.472656 293.789062 82.976562 L 293.789062 109.082031 C 292.335938 109.589844 290.847656 110.085938 289.339844 110.570312 " fill-opacity="1" fill-rule="nonzero"/><path fill="rgb(91.369629%, 54.508972%, 10.5896%)" d="M 281.753906 112.789062 L 281.753906 86.609375 C 283.261719 86.214844 284.753906 85.796875 286.203125 85.375 L 286.203125 111.519531 C 284.746094 111.953125 283.273438 112.382812 281.753906 112.789062 " fill-opacity="1" fill-rule="nonzero"/><path fill="rgb(91.369629%, 54.508972%, 10.5896%)" d="M 274.175781 114.730469 L 274.175781 88.503906 C 275.6875 88.140625 277.164062 87.78125 278.636719 87.414062 L 278.636719 113.617188 C 277.164062 114 275.6875 114.371094 274.175781 114.730469 " fill-opacity="1" fill-rule="nonzero"/><path fill="rgb(91.369629%, 54.508972%, 10.5896%)" d="M 266.605469 116.367188 L 266.605469 90.117188 C 268.109375 89.820312 269.59375 89.515625 271.058594 89.191406 L 271.058594 115.429688 C 269.59375 115.757812 268.109375 116.070312 266.605469 116.367188 " fill-opacity="1" fill-rule="nonzero"/><path fill="rgb(91.369629%, 54.508972%, 10.5896%)" d="M 259.039062 117.804688 L 259.039062 91.527344 C 260.535156 91.269531 262.011719 91 263.488281 90.726562 L 263.488281 116.996094 C 262.027344 117.277344 260.527344 117.546875 259.039062 117.804688 " fill-opacity="1" fill-rule="nonzero"/><path fill="rgb(91.369629%, 54.508972%, 10.5896%)" d="M 251.460938 119.015625 L 251.460938 92.710938 C 252.957031 92.492188 254.4375 92.261719 255.914062 92.039062 L 255.914062 118.324219 C 254.4375 118.550781 252.957031 118.796875 251.460938 119.015625 " fill-opacity="1" fill-rule="nonzero"/><path fill="rgb(91.369629%, 54.508972%, 10.5896%)" d="M 149.6875 119.015625 C 148.191406 118.796875 146.710938 118.550781 145.230469 118.324219 L 145.230469 92.039062 C 146.710938 92.261719 148.191406 92.492188 149.6875 92.710938 L 149.6875 119.015625 " fill-opacity="1" fill-rule="nonzero"/><path fill="rgb(91.369629%, 54.508972%, 10.5896%)" d="M 142.109375 117.804688 C 140.617188 117.546875 139.125 117.277344 137.660156 116.996094 L 137.660156 90.726562 C 139.140625 91 140.609375 91.269531 142.109375 91.527344 L 142.109375 117.804688 " fill-opacity="1" fill-rule="nonzero"/><path fill="rgb(91.369629%, 54.508972%, 10.5896%)" d="M 134.539062 116.367188 C 133.03125 116.070312 131.558594 115.757812 130.085938 115.429688 L 130.085938 89.191406 C 131.558594 89.515625 133.03125 89.820312 134.539062 90.117188 L 134.539062 116.367188 " fill-opacity="1" fill-rule="nonzero"/><path fill="rgb(91.369629%, 54.508972%, 10.5896%)" d="M 126.96875 114.730469 C 125.457031 114.371094 123.972656 114 122.511719 113.617188 L 122.511719 87.414062 C 123.972656 87.78125 125.457031 88.140625 126.96875 88.503906 L 126.96875 114.730469 " fill-opacity="1" fill-rule="nonzero"/><path fill="rgb(91.369629%, 54.508972%, 10.5896%)" d="M 119.394531 112.789062 C 117.878906 112.382812 116.394531 111.953125 114.945312 111.519531 L 114.945312 85.375 C 116.390625 85.796875 117.886719 86.214844 119.394531 86.609375 L 119.394531 112.789062 " fill-opacity="1" fill-rule="nonzero"/><path fill="rgb(91.369629%, 54.508972%, 10.5896%)" d="M 187.558594 122.355469 C 186.058594 122.300781 184.585938 122.230469 183.101562 122.171875 L 183.101562 95.816406 C 184.585938 95.894531 186.058594 95.957031 187.558594 96.003906 L 187.558594 122.355469 " fill-opacity="1" fill-rule="nonzero"/><path fill="rgb(91.369629%, 54.508972%, 10.5896%)" d="M 179.980469 122.023438 C 178.488281 121.941406 177.003906 121.847656 175.535156 121.75 L 175.535156 95.394531 C 177.003906 95.492188 178.488281 95.597656 179.980469 95.6875 L 179.980469 122.023438 " fill-opacity="1" fill-rule="nonzero"/><path fill="rgb(91.369629%, 54.508972%, 10.5896%)" d="M 195.132812 122.542969 C 193.636719 122.519531 192.15625 122.484375 190.679688 122.441406 L 190.679688 96.09375 C 192.15625 96.128906 193.636719 96.15625 195.132812 96.1875 L 195.132812 122.542969 " fill-opacity="1" fill-rule="nonzero"/><path fill="rgb(91.369629%, 54.508972%, 10.5896%)" d="M 200.578125 122.589844 C 199.796875 122.589844 199.03125 122.570312 198.25 122.570312 L 198.25 96.207031 C 199.03125 96.210938 199.796875 96.230469 200.578125 96.230469 C 201.289062 96.230469 201.996094 96.214844 202.699219 96.210938 L 202.699219 122.570312 C 201.996094 122.570312 201.289062 122.589844 200.578125 122.589844 " fill-opacity="1" fill-rule="nonzero"/><path fill="rgb(91.369629%, 54.508972%, 10.5896%)" d="M 205.832031 122.542969 L 205.832031 96.1875 C 207.320312 96.164062 208.792969 96.132812 210.28125 96.097656 L 210.28125 122.449219 C 208.792969 122.484375 207.320312 122.519531 205.832031 122.542969 " fill-opacity="1" fill-rule="nonzero"/><path fill="rgb(91.369629%, 54.508972%, 10.5896%)" d="M 213.398438 122.363281 L 213.398438 96.015625 C 214.898438 95.964844 216.371094 95.894531 217.847656 95.824219 L 217.847656 122.179688 C 216.371094 122.246094 214.898438 122.320312 213.398438 122.363281 " fill-opacity="1" fill-rule="nonzero"/><path fill="rgb(91.369629%, 54.508972%, 10.5896%)" d="M 220.976562 122.03125 L 220.976562 95.691406 C 222.472656 95.605469 223.945312 95.503906 225.425781 95.410156 L 225.425781 121.757812 C 223.945312 121.851562 222.472656 121.960938 220.976562 122.03125 " fill-opacity="1" fill-rule="nonzero"/><path fill="rgb(91.369629%, 54.508972%, 10.5896%)" d="M 228.550781 121.535156 L 228.550781 95.199219 C 230.039062 95.082031 231.519531 94.964844 233 94.835938 L 233 121.175781 C 231.527344 121.308594 230.039062 121.429688 228.550781 121.535156 " fill-opacity="1" fill-rule="nonzero"/><path fill="rgb(91.369629%, 54.508972%, 10.5896%)" d="M 236.121094 120.871094 L 236.121094 94.539062 C 237.609375 94.394531 239.113281 94.257812 240.574219 94.097656 L 240.574219 120.417969 C 239.113281 120.589844 237.609375 120.726562 236.121094 120.871094 " fill-opacity="1" fill-rule="nonzero"/><path fill="rgb(91.369629%, 54.508972%, 10.5896%)" d="M 243.699219 120.042969 L 243.699219 93.734375 C 245.191406 93.550781 246.675781 93.367188 248.144531 93.167969 L 248.144531 119.480469 C 246.675781 119.675781 245.191406 119.859375 243.699219 120.042969 " fill-opacity="1" fill-rule="nonzero"/><path fill="rgb(91.369629%, 54.508972%, 10.5896%)" d="M 172.410156 121.519531 C 170.921875 121.40625 169.429688 121.289062 167.957031 121.15625 L 167.957031 94.824219 C 169.429688 94.949219 170.921875 95.070312 172.410156 95.179688 L 172.410156 121.519531 " fill-opacity="1" fill-rule="nonzero"/><path fill="rgb(91.369629%, 54.508972%, 10.5896%)" d="M 164.839844 120.847656 C 163.339844 120.714844 161.851562 120.550781 160.386719 120.394531 L 160.386719 94.070312 C 161.851562 94.238281 163.339844 94.382812 164.839844 94.527344 L 164.839844 120.847656 " fill-opacity="1" fill-rule="nonzero"/><path fill="rgb(91.369629%, 54.508972%, 10.5896%)" d="M 157.257812 120.023438 C 155.761719 119.835938 154.285156 119.648438 152.808594 119.453125 L 152.808594 93.144531 C 154.285156 93.347656 155.761719 93.527344 157.257812 93.703125 L 157.257812 120.023438 " fill-opacity="1" fill-rule="nonzero"/><path fill="rgb(91.369629%, 54.508972%, 10.5896%)" d="M 111.816406 110.570312 C 110.300781 110.085938 108.8125 109.589844 107.367188 109.082031 L 107.367188 82.976562 C 108.8125 83.472656 110.300781 83.957031 111.816406 84.417969 L 111.816406 110.570312 " fill-opacity="1" fill-rule="nonzero"/><path fill="rgb(91.369629%, 54.508972%, 10.5896%)" d="M 103.828125 107.789062 C 102.445312 107.273438 101.105469 106.738281 99.796875 106.195312 L 99.796875 80.191406 C 101.238281 80.765625 102.722656 81.332031 104.242188 81.886719 L 104.242188 107.359375 C 104.242188 107.523438 104.066406 107.667969 103.828125 107.789062 " fill-opacity="1" fill-rule="nonzero"/><path fill="rgb(91.369629%, 54.508972%, 10.5896%)" d="M 95.53125 104.351562 C 94.386719 103.824219 93.292969 103.296875 92.21875 102.753906 L 92.21875 76.878906 C 93.652344 77.574219 95.136719 78.246094 96.667969 78.914062 L 96.667969 103.671875 C 96.667969 103.964844 96.191406 104.210938 95.53125 104.351562 " fill-opacity="1" fill-rule="nonzero"/><path fill="rgb(91.369629%, 54.508972%, 10.5896%)" d="M 88.167969 100.609375 C 86.945312 99.921875 85.761719 99.222656 84.644531 98.503906 L 84.644531 72.816406 C 86.058594 73.667969 87.535156 74.515625 89.097656 75.332031 L 89.097656 99.992188 C 89.097656 100.25 88.71875 100.464844 88.167969 100.609375 " fill-opacity="1" fill-rule="nonzero"/><path fill="rgb(91.369629%, 54.508972%, 10.5896%)" d="M 81.488281 96.382812 C 79.867188 95.199219 78.410156 94 77.0625 92.78125 L 77.0625 67.542969 C 78.421875 68.667969 79.929688 69.753906 81.527344 70.839844 L 81.527344 96.316406 L 81.488281 96.382812 " fill-opacity="1" fill-rule="nonzero"/><path fill="rgb(91.369629%, 54.508972%, 10.5896%)" d="M 73.949219 89.621094 C 71.945312 87.308594 70.460938 84.921875 69.492188 82.480469 L 69.492188 59.214844 C 70.675781 61.089844 72.15625 62.925781 73.949219 64.714844 L 73.949219 89.621094 " fill-opacity="1" fill-rule="nonzero"/></svg>