<svg xmlns="http://www.w3.org/2000/svg" xmlns:xlink="http://www.w3.org/1999/xlink" width="500" zoomAndPan="magnify" viewBox="0 0 375 374.999991" height="500" preserveAspectRatio="xMidYMid meet" version="1.0"><defs><clipPath id="id1"><path d="M 16.234375 210 L 103 210 L 103 297 L 16.234375 297 Z M 16.234375 210 " clip-rule="nonzero"/></clipPath><clipPath id="id2"><path d="M 152 271 L 239 271 L 239 358.5 L 152 358.5 Z M 152 271 " clip-rule="nonzero"/></clipPath><clipPath id="id3"><path d="M 288 135 L 374.734375 135 L 374.734375 223 L 288 223 Z M 288 135 " clip-rule="nonzero"/></clipPath><clipPath id="id4"><path d="M 16.234375 49 L 103 49 L 103 136 L 16.234375 136 Z M 16.234375 49 " clip-rule="nonzero"/></clipPath></defs><path fill="rgb(40.779114%, 37.649536%, 48.629761%)" d="M 82.113281 77.953125 L 168.644531 46.429688 L 172.878906 58.042969 L 86.34375 89.566406 Z M 82.113281 77.953125 " fill-opacity="1" fill-rule="nonzero"/><path fill="rgb(40.779114%, 37.649536%, 48.629761%)" d="M 209.65625 66.179688 L 218.394531 57.4375 L 317.292969 156.332031 L 308.550781 165.074219 Z M 209.65625 66.179688 " fill-opacity="1" fill-rule="nonzero"/><path fill="rgb(40.779114%, 37.649536%, 48.629761%)" d="M 225.539062 170.992188 L 227.222656 158.75 L 301.394531 168.949219 L 299.714844 181.1875 Z M 225.539062 170.992188 " fill-opacity="1" fill-rule="nonzero"/><path fill="rgb(40.779114%, 37.649536%, 48.629761%)" d="M 75.285156 107.53125 L 80.8125 96.472656 L 179.710938 145.921875 L 174.183594 156.980469 Z M 75.285156 107.53125 " fill-opacity="1" fill-rule="nonzero"/><path fill="rgb(40.779114%, 37.649536%, 48.629761%)" d="M 79.371094 270.273438 L 84.90625 259.214844 L 173.441406 303.53125 L 167.90625 314.589844 Z M 79.371094 270.273438 " fill-opacity="1" fill-rule="nonzero"/><path fill="rgb(40.779114%, 37.649536%, 48.629761%)" d="M 189.304688 185.429688 L 201.664062 185.429688 L 201.664062 290.507812 L 189.304688 290.507812 Z M 189.304688 185.429688 " fill-opacity="1" fill-rule="nonzero"/><path fill="rgb(40.779114%, 37.649536%, 48.629761%)" d="M 70.222656 225.3125 L 174.390625 64.679688 L 184.765625 71.40625 L 80.597656 232.035156 Z M 70.222656 225.3125 " fill-opacity="1" fill-rule="nonzero"/><path fill="rgb(40.779114%, 37.649536%, 48.629761%)" d="M 211.722656 295.484375 L 309.28125 193.511719 L 318.214844 202.058594 L 220.65625 304.03125 Z M 211.722656 295.484375 " fill-opacity="1" fill-rule="nonzero"/><path fill="rgb(40.779114%, 37.649536%, 48.629761%)" d="M 69.921875 122.265625 L 80.550781 115.953125 L 182.394531 287.359375 L 171.765625 293.675781 Z M 69.921875 122.265625 " fill-opacity="1" fill-rule="nonzero"/><g clip-path="url(#id1)"><path fill="rgb(30.589294%, 60.778809%, 72.549438%)" d="M 102.769531 253.421875 C 102.769531 260.40625 101.164062 266.957031 98.195312 272.769531 C 91.148438 286.984375 76.4375 296.691406 59.503906 296.691406 C 35.582031 296.691406 16.234375 277.34375 16.234375 253.421875 C 16.234375 229.5 35.582031 210.15625 59.503906 210.15625 C 68.21875 210.15625 76.253906 212.6875 82.988281 217.078125 C 94.917969 224.804688 102.769531 238.15625 102.769531 253.421875 Z M 102.769531 253.421875 " fill-opacity="1" fill-rule="nonzero"/></g><g clip-path="url(#id2)"><path fill="rgb(56.858826%, 79.60968%, 84.309387%)" d="M 228.304688 287.109375 C 234.859375 294.648438 238.753906 304.476562 238.753906 315.234375 C 238.753906 339.152344 219.40625 358.5 195.484375 358.5 C 171.5625 358.5 152.21875 339.152344 152.21875 315.234375 C 152.21875 310.226562 153.082031 305.464844 154.628906 301.015625 C 157.59375 292.300781 163.28125 284.945312 170.699219 279.753906 C 177.683594 274.808594 186.214844 271.964844 195.484375 271.964844 C 208.648438 271.964844 220.457031 277.835938 228.304688 287.109375 Z M 228.304688 287.109375 " fill-opacity="1" fill-rule="nonzero"/></g><g clip-path="url(#id3)"><path fill="rgb(100%, 81.568909%, 52.549744%)" d="M 331.46875 135.984375 C 355.386719 135.984375 374.734375 155.328125 374.734375 179.25 C 374.734375 203.171875 355.386719 222.515625 331.46875 222.515625 C 319.847656 222.515625 309.339844 218.003906 301.613281 210.464844 C 293.332031 202.675781 288.199219 191.550781 288.199219 179.25 C 288.199219 177.273438 288.324219 175.355469 288.632812 173.441406 C 289.867188 163.796875 294.320312 155.207031 300.871094 148.652344 C 308.722656 140.804688 319.476562 135.984375 331.46875 135.984375 Z M 331.46875 135.984375 " fill-opacity="1" fill-rule="nonzero"/></g><path fill="rgb(92.939758%, 39.608765%, 44.309998%)" d="M 238.320312 166.515625 C 235.539062 187.65625 217.425781 203.972656 195.484375 203.972656 C 171.5625 203.972656 152.21875 184.628906 152.21875 160.707031 C 152.21875 153.722656 153.824219 147.171875 156.792969 141.359375 C 163.835938 127.144531 178.546875 117.441406 195.484375 117.441406 C 219.40625 117.441406 238.753906 136.785156 238.753906 160.707031 C 238.753906 162.683594 238.628906 164.601562 238.320312 166.515625 Z M 238.320312 166.515625 " fill-opacity="1" fill-rule="nonzero"/><path fill="rgb(96.469116%, 58.039856%, 53.729248%)" d="M 195.484375 0 C 219.40625 0 238.753906 19.347656 238.753906 43.265625 C 238.753906 55.257812 233.929688 66.011719 226.082031 73.863281 C 218.230469 81.714844 207.476562 86.535156 195.484375 86.535156 C 186.769531 86.535156 178.734375 84 171.996094 79.613281 C 164.148438 74.542969 158.027344 67.003906 154.8125 58.039062 C 153.144531 53.464844 152.21875 48.460938 152.21875 43.265625 C 152.21875 19.347656 171.5625 0 195.484375 0 Z M 195.484375 0 " fill-opacity="1" fill-rule="nonzero"/><g clip-path="url(#id4)"><path fill="rgb(56.858826%, 79.60968%, 84.309387%)" d="M 100.171875 77.941406 C 101.84375 82.515625 102.769531 87.523438 102.769531 92.714844 C 102.769531 99.699219 101.164062 106.253906 98.195312 112.0625 C 94.488281 119.480469 88.738281 125.660156 81.628906 129.863281 C 75.203125 133.757812 67.597656 135.984375 59.503906 135.984375 C 35.582031 135.984375 16.234375 116.636719 16.234375 92.714844 C 16.234375 68.792969 35.582031 49.449219 59.503906 49.449219 C 78.230469 49.449219 94.117188 61.316406 100.171875 77.941406 Z M 100.171875 77.941406 " fill-opacity="1" fill-rule="nonzero"/></g></svg>