<svg xmlns="http://www.w3.org/2000/svg" width="1918.999" height="973.789" viewBox="0 0 1918.999 973.789"><path d="M-3921.355,539.5V176.574q2.425-1.1,4.888-2.132a174.415,174.415,0,0,1,32.479-9.937,194.4,194.4,0,0,1,38.555-3.769,228.3,228.3,0,0,1,28,1.774,270.379,270.379,0,0,1,30.669,5.685,330.168,330.168,0,0,1,33.413,10.132c11.8,4.25,23.987,9.337,36.229,15.121,12.749,6.024,25.908,12.971,39.114,20.648,13.723,7.977,27.878,16.966,42.074,26.715,14.718,10.108,29.893,21.318,45.1,33.32,15.738,12.418,31.957,26.034,48.2,40.466a318.978,318.978,0,0,0,31.566,24.866,212.176,212.176,0,0,0,29.854,17.2,148.786,148.786,0,0,0,28.3,9.992,116.905,116.905,0,0,0,26.9,3.23,108.826,108.826,0,0,0,18.189-1.535,114.153,114.153,0,0,0,17.64-4.5,129.879,129.879,0,0,0,17.145-7.306,157.532,157.532,0,0,0,16.712-9.95A199.257,199.257,0,0,0-3340,334.16c5.288-4.458,10.676-9.427,16.015-14.768,5.184-5.186,10.484-10.885,15.753-16.937,5.094-5.852,10.325-12.227,15.549-18.947,9.938-12.788,19.986-26.949,30.718-43.292,9.626-14.659,19.634-30.828,30.6-49.429,20.459-34.713,40.965-72.339,62.675-112.173l0-.006c31.645-58.063,64.366-118.1,101.118-176.859,19.9-31.818,38.911-59.958,58.116-86.028,10.463-14.2,21.085-27.9,31.57-40.707,11.046-13.492,22.31-26.451,33.48-38.517,11.694-12.633,23.661-24.691,35.566-35.84,12.408-11.618,25.137-22.612,37.833-32.675,13.181-10.447,26.731-20.211,40.274-29.021a480.03,480.03,0,0,1,42.9-24.882,446.656,446.656,0,0,1,45.693-20.252,433.069,433.069,0,0,1,48.668-15.136,440.4,440.4,0,0,1,51.82-9.532,469.8,469.8,0,0,1,55.15-3.438c1.415-.006,2.916-.009,4.34-.009,17.923,0,35.792.46,53.11,1.364,16.954.886,33.849,2.224,50.219,3.975,16.016,1.715,31.966,3.873,47.406,6.414,15.089,2.483,30.12,5.4,44.672,8.677,14.208,3.2,28.345,6.819,42.019,10.766,13.342,3.851,26.613,8.117,39.443,12.681,12.505,4.449,24.937,9.3,36.947,14.423,11.7,4.987,23.313,10.368,34.53,15.99,78.677,39.436,145.533,94.425,198.71,163.439,10.921,14.172,21.364,29.091,31.04,44.342q.862,1.358,1.717,2.723V539.5Z" transform="translate(3921.355 434.289)" fill="#164256"/></svg>