<svg xmlns="http://www.w3.org/2000/svg" width="1919" height="746.145" viewBox="0 0 1919 746.145"><path d="M-3916.535,539.5V289.149q4.78-1.723,9.649-3.235a232.669,232.669,0,0,1,33.106-7.649,249,249,0,0,1,38.129-2.9,276.9,276.9,0,0,1,34.629,2.225,317.108,317.108,0,0,1,37.913,7.24,375.737,375.737,0,0,1,41.19,13.1,459.146,459.146,0,0,1,44.46,19.812c11.661,5.932,23.5,12.571,35.175,19.732,10.477,6.424,20.926,13.3,31.948,21.037,20.367,14.289,38.914,28.852,56.85,42.937l.008.006c14.075,11.053,27.368,21.49,40.71,31.153a371.369,371.369,0,0,0,40.186,25.852A205.292,205.292,0,0,0-3430.4,476.1a170.071,170.071,0,0,0,22.631,4.835,171.042,171.042,0,0,0,24.076,1.693,192.387,192.387,0,0,0,29.066-2.283,241.836,241.836,0,0,0,31.718-7.189,327.948,327.948,0,0,0,34.811-12.605c12.244-5.194,25.147-11.429,38.348-18.533,13.487-7.257,27.728-15.658,42.329-24.971,14.874-9.485,30.6-20.225,46.754-31.919,16.415-11.887,33.783-25.137,51.62-39.379,18.094-14.448,37.248-30.378,56.929-47.349,20.573-17.738,40.525-34.345,59.3-49.357,18.238-14.582,35.911-28.1,52.532-40.169,16.094-11.69,31.69-22.384,46.354-31.782,14.151-9.071,27.867-17.213,40.767-24.2,12.4-6.717,24.436-12.579,35.774-17.424a292.879,292.879,0,0,1,31.37-11.449,207.97,207.97,0,0,1,27.558-6.281,161.377,161.377,0,0,1,24.34-1.914,141.7,141.7,0,0,1,23.906,2,155.683,155.683,0,0,1,21.487,5.274c13.715,4.37,26.536,10.284,38.933,16l.045.02.005,0c12.393,5.717,25.208,11.628,38.874,15.988a155.442,155.442,0,0,0,21.434,5.269,141.041,141.041,0,0,0,23.829,2,159.076,159.076,0,0,0,22.575-1.663,200.362,200.362,0,0,0,25.339-5.425c128.248-35.9,146.8-111.073,164.742-183.771,3.512-14.228,7.143-28.941,11.549-42.908,2.371-7.512,4.776-14.239,7.354-20.564a188.142,188.142,0,0,1,9.281-19.634,95.163,95.163,0,0,1,11.86-16.6,156.753,156.753,0,0,1,17.157-16.643,221.843,221.843,0,0,1,21.709-15.992,272.9,272.9,0,0,1,25.521-14.645,299.027,299.027,0,0,1,28.589-12.6,298.943,298.943,0,0,1,30.913-9.863,262.618,262.618,0,0,1,65.826-8.725c24.48,0,47.646,3.87,68.851,11.5a177.775,177.775,0,0,1,32.488,15.556,179.076,179.076,0,0,1,24.316,17.888V539.5Z" transform="translate(3916.535 206.645)" fill="#041c32"/></svg>