<svg xmlns="http://www.w3.org/2000/svg" viewBox="0 0 1919 923.79999"><path d="M1919,124.4V996.5H0V764c16.4,4,40,8.3,70,12.7,77.5,11.5,198.5,24.3,359.7,38,21.7,1.8,42.9,2.8,63.2,2.8,232.4,0,344.9-120.6,487.2-273.2,30.9-33.2,62.9-67.5,98.00006-102.5,18.9-18.9,36.9-36.2,54.9-52.8,20.1-18.5,40.4-36.3,60.4-53,21.9-18.2,44.4-35.9,66.9-52.4,24.19995-17.8,49.4-35,74.69995-51.1,27-17.2,55.1-33.7,83.6-49.2,30.1-16.3,61.6-32,93.6-46.6,24.3-11.1,48.19995-20.8,71-29,22.1-8,43.8-14.6,64.5-19.9a526.50933,526.50933,0,0,1,58.3-11.4,400.121,400.121,0,0,1,52.4-3.7c10.5,0,21,.5,31,1.5a279.53331,279.53331,0,0,1,28.7,4.2,272.83935,272.83935,0,0,1,26.6,6.8,240.98787,240.98787,0,0,1,24.5,9.2,237.28449,237.28449,0,0,1,22.5,11.4,232.77948,232.77948,0,0,1,20.5,13.4C1914.4,120.9,1916.7,122.6,1919,124.4Z" transform="translate(0 -72.70001)" fill="#30363d"/></svg>