<svg xmlns="http://www.w3.org/2000/svg" viewBox="0 0 1919 919.7001"><path d="M1919,338.5V973.8H0V664.6c1.6-.7,3.2-1.4,4.9-2.1a167.10006,167.10006,0,0,1,32.5-9.9,199.42736,199.42736,0,0,1,38.5-3.8,218.18344,218.18344,0,0,1,28,1.8,267.41252,267.41252,0,0,1,30.7,5.7A347.49991,347.49991,0,0,1,168,666.4a387.82562,387.82562,0,0,1,36.2,15.1c12.8,6,25.9,13,39.1,20.7,13.7,8,27.9,17,42.1,26.7,14.7,10.1,29.9,21.3,45.1,33.3,15.7,12.4,32,26,48.2,40.5a332.6507,332.6507,0,0,0,31.6,24.9,216.40864,216.40864,0,0,0,29.9,17.2,148.70183,148.70183,0,0,0,28.3,10,115.74413,115.74413,0,0,0,26.9,3.2,110.81634,110.81634,0,0,0,18.2-1.5,105.647,105.647,0,0,0,17.6-4.5,129.23445,129.23445,0,0,0,17.1-7.3,147.45566,147.45566,0,0,0,16.7-10c5.6-3.9,11.1-8,16.3-12.4,5.3-4.5,10.7-9.4,16-14.8,5.2-5.2,10.5-10.9,15.8-16.9,5.1-5.8,10.3-12.2,15.5-18.9,9.9-12.8,20-27,30.7-43.3,9.6-14.7,19.6-30.8,30.6-49.4,20.5-34.7,41-72.3,62.7-112.2,15.8-29,31.9-58.6,48.6-88.2,16.7-29.6,34.1-59.3,52.5-88.7,19.9-31.8,38.9-60,58.1-86,10.5-14.2,21.1-27.9,31.6-40.7,11-13.5,22.3-26.5,33.5-38.5,11.7-12.6,23.7-24.7,35.6-35.8,12.4-11.6,25.1-22.6,37.8-32.7,13.2-10.5,26.7-20.2,40.30005-29q20.85-13.5,42.9-24.9a422.85121,422.85121,0,0,1,45.69995-20.2,434.74434,434.74434,0,0,1,100.5-24.6,462.12852,462.12852,0,0,1,55.19995-3.4h4.30005c17.9,0,35.80005.5,53.1,1.4,17,.9,33.80005,2.2,50.2,4,16,1.7,32,3.9,47.4,6.4,15.1,2.5,30.1,5.4,44.69995,8.7,14.2,3.2,28.30005,6.8,42,10.8,13.30005,3.8,26.6,8.1,39.4,12.7,12.5,4.5,24.9,9.3,36.9,14.4,11.69995,5,23.30005,10.4,34.5,16a572.1161,572.1161,0,0,1,198.69995,163.4c10.9,14.2,21.4,29.1,31,44.3A7.3153,7.3153,0,0,1,1919,338.5Z" transform="translate(0 -54.09988)" fill="#393e46"/></svg>