<svg xmlns="http://www.w3.org/2000/svg" width="1919" height="985.936" viewBox="0 0 1919 985.936"><path d="M-3970.507,540.5V245.836c16.431,3.993,39.983,8.277,70.008,12.735,77.5,11.51,198.524,24.3,359.715,38.026,21.682,1.846,42.93,2.781,63.156,2.781,232.428,0,344.858-120.568,487.2-273.213,30.934-33.174,62.922-67.477,97.958-102.5,18.948-18.943,36.9-36.222,54.895-52.824,20.048-18.5,40.354-36.318,60.357-52.956,21.92-18.234,44.447-35.863,66.954-52.4,24.236-17.8,49.365-35.014,74.689-51.15,26.958-17.176,55.073-33.734,83.564-49.214,30.079-16.342,61.562-32.017,93.574-46.59,24.333-11.077,48.23-20.848,71.027-29.04,22.145-7.958,43.856-14.644,64.527-19.871a521.761,521.761,0,0,1,58.327-11.407,397.155,397.155,0,0,1,52.431-3.646c10.551,0,20.978.489,30.989,1.45a285.612,285.612,0,0,1,28.728,4.22,257.537,257.537,0,0,1,26.552,6.8,239.662,239.662,0,0,1,24.459,9.186,230.511,230.511,0,0,1,22.452,11.38,230.01,230.01,0,0,1,20.53,13.38q3.482,2.544,6.907,5.248V540.5Z" transform="translate(3970.507 445.436)" fill="#103140"/></svg>