<svg xmlns="http://www.w3.org/2000/svg" viewBox="0 0 1918.99597 746.15802"><path d="M0,746.145V495.794q4.77978-1.723,9.64893-3.235a232.6699,232.6699,0,0,1,33.106-7.649,248.99861,248.99861,0,0,1,38.12891-2.9,276.90309,276.90309,0,0,1,34.62891,2.225,317.1128,317.1128,0,0,1,37.91308,7.24,375.74394,375.74394,0,0,1,41.18994,13.1,459.13616,459.13616,0,0,1,44.46,19.812c11.66089,5.932,23.5,12.571,35.175,19.732,10.47705,6.424,20.926,13.3,31.948,21.037,20.36694,14.289,38.91406,28.852,56.8501,42.937l.008.006c14.075,11.053,27.36792,21.49,40.71,31.153a371.35055,371.35055,0,0,0,40.186,25.852A205.28636,205.28636,0,0,0,486.135,682.745a168.65321,168.65321,0,0,0,46.707,6.528A192.38922,192.38922,0,0,0,561.908,686.99a241.83781,241.83781,0,0,0,31.718-7.189,327.96029,327.96029,0,0,0,34.811-12.605c12.2439-5.194,25.147-11.429,38.3479-18.533,13.48706-7.257,27.728-15.658,42.3291-24.971,14.874-9.485,30.6001-20.225,46.75391-31.919,16.415-11.887,33.783-25.137,51.62012-39.379,18.094-14.448,37.248-30.378,56.929-47.349,20.573-17.738,40.5249-34.345,59.3-49.357,18.238-14.582,35.91089-28.1,52.532-40.169,16.094-11.69,31.68994-22.384,46.354-31.782,14.15088-9.071,27.86694-17.213,40.76709-24.2,12.3999-6.717,24.436-12.579,35.77392-17.424a292.8754,292.8754,0,0,1,31.37012-11.449,207.96718,207.96718,0,0,1,27.55811-6.281,161.375,161.375,0,0,1,24.34008-1.914,141.69663,141.69663,0,0,1,23.906,2,155.68756,155.68756,0,0,1,21.48706,5.274c13.71509,4.37,26.53589,10.284,38.93311,16l.04492.02h.00488c12.39307,5.717,25.208,11.628,38.874,15.988a155.44244,155.44244,0,0,0,21.43409,5.269,141.04213,141.04213,0,0,0,23.8291,2,159.0769,159.0769,0,0,0,22.57495-1.663,200.36266,200.36266,0,0,0,25.33911-5.425c128.248-35.9,146.80005-111.073,164.74194-183.771,3.512-14.228,7.14307-28.941,11.54908-42.908,2.37109-7.512,4.77587-14.239,7.354-20.564a188.13685,188.13685,0,0,1,9.281-19.634,95.16315,95.16315,0,0,1,11.86011-16.6,156.75533,156.75533,0,0,1,17.157-16.643,221.82274,221.82274,0,0,1,21.709-15.992,272.91408,272.91408,0,0,1,25.521-14.645,299.80848,299.80848,0,0,1,59.50219-22.463,262.618,262.618,0,0,1,65.82593-8.725c24.48,0,47.646,3.87,68.85107,11.5A176.64028,176.64028,0,0,1,1918.996,44.931V746.145Z" transform="translate(0 0.01302)" fill="#222831"/></svg>