<?xml version="1.0" encoding="utf-8"?>
<!-- Generator: Adobe Illustrator 25.2.3, SVG Export Plug-In . SVG Version: 6.00 Build 0)  -->
<svg version="1.1" id="Layer_1" xmlns="http://www.w3.org/2000/svg" xmlns:xlink="http://www.w3.org/1999/xlink" x="0px" y="0px"
	 viewBox="0 0 1919 985.9" style="enable-background:new 0 0 1919 985.9;" xml:space="preserve">
<style type="text/css">
	.st0{fill:#103140;}
</style>
<path class="st0" d="M1919,124.4v872.1H0V764c16.4,4,40,8.3,70,12.7c77.5,11.5,198.5,24.3,359.7,38c21.7,1.8,42.9,2.8,63.2,2.8
	c232.4,0,344.9-120.6,487.2-273.2c30.9-33.2,62.9-67.5,98-102.5c18.9-18.9,36.9-36.2,54.9-52.8c20.1-18.5,40.4-36.3,60.4-53
	c21.9-18.2,44.4-35.9,66.9-52.4c24.2-17.8,49.4-35,74.7-51.1c27-17.2,55.1-33.7,83.6-49.2c30.1-16.3,61.6-32,93.6-46.6
	c24.3-11.1,48.2-20.8,71-29c22.1-8,43.8-14.6,64.5-19.9c19.2-4.9,38.7-8.7,58.3-11.4c17.4-2.4,34.9-3.6,52.4-3.7
	c10.5,0,21,0.5,31,1.5c9.6,0.9,19.2,2.3,28.7,4.2c9,1.8,17.8,4.1,26.6,6.8c8.3,2.6,16.5,5.7,24.5,9.2c7.7,3.4,15.2,7.2,22.5,11.4
	c7.1,4.1,13.9,8.6,20.5,13.4C1914.4,120.9,1916.7,122.6,1919,124.4z"/>
</svg>
