<?xml version="1.0" encoding="utf-8"?>
<!-- Generator: Adobe Illustrator 25.2.3, SVG Export Plug-In . SVG Version: 6.00 Build 0)  -->
<svg version="1.1" id="Layer_1" xmlns="http://www.w3.org/2000/svg" xmlns:xlink="http://www.w3.org/1999/xlink" x="0px" y="0px"
	 viewBox="0 0 291 116" style="enable-background:new 0 0 291 116;" xml:space="preserve">
<style type="text/css">
	.st0{fill:none;stroke:#FFFFFF;stroke-linecap:round;}
	.st1{fill:#7ED957;}
	.st2{fill:#FFFFFF;}
	.st3{fill:#38B6FF;}
	.st4{fill:#004AAD;}
	.st5{fill:#FFFFFF;stroke:#FFFFFF;stroke-linecap:round;stroke-linejoin:round;}
</style>
<path class="st0" d="M11.4,11l67.9,67.9"/>
<path class="st0" d="M12,16.4l-0.4,64"/>
<path class="st0" d="M14.3,13.8h64"/>
<path class="st0" d="M13.6,77.7l29.9-29.6"/>
<path class="st1" d="M12,0C5.4,0,0,5.4,0,12c0,6.6,5.4,12,12,12c6.6,0,12-5.4,12-12C24,5.4,18.6,0,12,0"/>
<g>
	<g transform="translate(200.383178, 93.626714)">
		<g>
			<path class="st2" d="M-185.1-81.7c0,1.7-0.3,2.9-0.8,3.7c-0.6,0.8-1.4,1.2-2.6,1.2c-1.1,0-2-0.4-2.6-1.2c-0.6-0.8-0.9-2-0.9-3.6
				c0-1.7,0.3-2.9,0.8-3.7c0.6-0.8,1.4-1.2,2.6-1.2c1.1,0,2,0.4,2.5,1.2C-185.4-84.5-185.1-83.3-185.1-81.7z M-189.4-81.7
				c0,1.1,0.1,1.8,0.2,2.2c0.1,0.4,0.4,0.6,0.7,0.6c0.3,0,0.5-0.2,0.7-0.6c0.1-0.4,0.2-1.1,0.2-2.2c0-1-0.1-1.8-0.2-2.2
				c-0.1-0.4-0.4-0.6-0.7-0.6c-0.3,0-0.6,0.2-0.7,0.6C-189.4-83.5-189.4-82.7-189.4-81.7z"/>
		</g>
	</g>
</g>
<path class="st1" d="M45.7,33.7c-6.6,0-12,5.4-12,12s5.4,12,12,12s12-5.4,12-12S52.3,33.7,45.7,33.7"/>
<g>
	<g transform="translate(225.677154, 118.920694)">
		<g>
			<path class="st2" d="M-176.8-68.5h-6.8v-1.7l2.3-2.3c0.7-0.7,1.1-1.2,1.3-1.4c0.2-0.2,0.3-0.5,0.4-0.6c0.1-0.2,0.1-0.4,0.1-0.6
				c0-0.2-0.1-0.4-0.2-0.6c-0.2-0.1-0.4-0.2-0.6-0.2c-0.3,0-0.6,0.1-0.9,0.2c-0.3,0.2-0.6,0.4-1,0.8l-1.4-1.6
				c0.5-0.4,0.9-0.7,1.2-0.9c0.3-0.2,0.7-0.3,1.1-0.4c0.4-0.1,0.8-0.1,1.3-0.1c0.6,0,1.2,0.1,1.6,0.3c0.5,0.2,0.9,0.5,1.1,0.9
				c0.3,0.4,0.4,0.8,0.4,1.3c0,0.4-0.1,0.7-0.1,1c-0.1,0.3-0.2,0.6-0.4,0.9c-0.2,0.3-0.5,0.6-0.8,0.9c-0.3,0.3-1,1-2,1.9v0.1h3.6
				V-68.5z"/>
		</g>
	</g>
</g>
<path class="st3" d="M78,0c-6.6,0-12,5.4-12,12c0,6.6,5.4,12,12,12c6.6,0,12-5.4,12-12C90,5.4,84.7,0,78,0"/>
<g>
	<g transform="translate(249.167942, 93.626714)">
		<g>
			<path class="st2" d="M-169.2-84.3c0,0.6-0.2,1.1-0.5,1.5c-0.3,0.4-0.9,0.7-1.5,0.9v0c1.6,0.2,2.4,1,2.4,2.2c0,0.9-0.3,1.6-1,2.1
				c-0.7,0.5-1.7,0.8-2.9,0.8c-0.5,0-1,0-1.4-0.1c-0.4-0.1-0.9-0.2-1.4-0.4v-2.1c0.4,0.2,0.8,0.4,1.2,0.5c0.4,0.1,0.8,0.1,1.2,0.1
				c0.6,0,1-0.1,1.2-0.2c0.3-0.2,0.4-0.4,0.4-0.8c0-0.2-0.1-0.4-0.2-0.6c-0.1-0.2-0.3-0.3-0.6-0.3c-0.3-0.1-0.7-0.1-1.1-0.1h-0.6
				v-1.9h0.6c1.3,0,2-0.3,2-1c0-0.2-0.1-0.4-0.3-0.6c-0.2-0.1-0.5-0.2-0.8-0.2c-0.6,0-1.2,0.2-1.9,0.6l-1.1-1.7
				c0.5-0.3,1-0.6,1.5-0.7c0.5-0.2,1.1-0.2,1.8-0.2c1,0,1.7,0.2,2.3,0.6C-169.5-85.6-169.2-85-169.2-84.3z"/>
		</g>
	</g>
</g>
<path class="st3" d="M78,67.4c-6.6,0-12,5.4-12,12c0,6.6,5.4,12,12,12c6.6,0,12-5.4,12-12C90,72.8,84.7,67.4,78,67.4"/>
<g>
	<g transform="translate(249.921198, 144.21467)">
		<g>
			<path class="st2" d="M-168.4-61.9h-1v1.8h-2.5v-1.8h-3.8v-1.9l3.9-5.8h2.4v5.7h1V-61.9z M-171.9-63.8v-1.1c0-0.2,0-0.5,0-0.8
				c0-0.4,0-0.5,0-0.6h-0.1c-0.2,0.3-0.3,0.6-0.5,0.9l-1,1.6H-171.9z"/>
		</g>
	</g>
</g>
<path class="st1" d="M12,67.4c-6.6,0-12,5.4-12,12c0,6.6,5.4,12,12,12c6.6,0,12-5.4,12-12C24,72.8,18.6,67.4,12,67.4"/>
<g>
	<g transform="translate(200.383178, 144.21467)">
		<g>
			<path class="st2" d="M-186.3-60.1h-2.6v-5c0-0.6,0-1.1,0-1.6c-0.2,0.2-0.3,0.4-0.6,0.6l-1.1,0.9l-1.3-1.6l3.2-2.6h2.3V-60.1z"/>
		</g>
	</g>
</g>
<path class="st4" d="M108.3,7.5h25.8v25.8h-25.8V7.5"/>
<path class="st4" d="M108.3,33.4L108.3,33.4l-0.1-26h26v26H108.3 M108.4,7.6v25.7H134V7.6H108.4"/>
<path class="st3" d="M110.1,9.3h22.2v22.2h-22.2V9.3"/>
<path class="st4" d="M157.3,7.5h25.8v25.8h-25.8V7.5"/>
<path class="st4" d="M157.3,33.4L157.3,33.4l-0.1-26h26v26H157.3 M157.4,7.6v25.7H183V7.6H157.4"/>
<path class="st3" d="M159.1,9.3h22.2v22.2h-22.2V9.3"/>
<path class="st4" d="M204.9,7.5h25.8v25.8h-25.8V7.5"/>
<path class="st4" d="M204.9,33.4L204.9,33.4l-0.1-26h26v26H204.9 M205,7.6v25.7h25.7V7.6H205"/>
<path class="st3" d="M206.7,9.3h22.2v22.2h-22.2V9.3"/>
<path class="st4" d="M132.6,7.5h25.8v25.8h-25.8V7.5"/>
<path class="st4" d="M132.6,33.4L132.6,33.4l-0.1-26h26v26H132.6 M132.7,7.6v25.7h25.7V7.6H132.7"/>
<path class="st3" d="M134.5,9.3h22.2v22.2h-22.2V9.3"/>
<path class="st4" d="M181.7,7.5h25.8v25.8h-25.8V7.5"/>
<path class="st4" d="M181.7,33.4L181.7,33.4l-0.1-26h26v26H181.7 M181.8,7.6v25.7h25.7V7.6H181.8"/>
<path class="st3" d="M183.5,9.3h22.2v22.2h-22.2V9.3"/>
<g>
	<g transform="translate(282.18855, 99.714477)">
		<g>
			<path class="st2" d="M-156.9-80.3c0,1.9-0.3,3.3-1,4.1c-0.6,0.9-1.6,1.3-2.9,1.3c-1.3,0-2.2-0.5-2.9-1.4c-0.6-0.9-1-2.3-1-4.1
				c0-1.9,0.3-3.3,0.9-4.2c0.6-0.9,1.6-1.3,2.9-1.3c1.3,0,2.2,0.5,2.9,1.4C-157.2-83.5-156.9-82.1-156.9-80.3z M-161.8-80.3
				c0,1.2,0.1,2,0.2,2.5c0.2,0.4,0.4,0.7,0.8,0.7c0.4,0,0.6-0.2,0.8-0.7c0.2-0.5,0.2-1.3,0.2-2.5c0-1.2-0.1-2-0.2-2.5
				c-0.1-0.5-0.4-0.7-0.8-0.7c-0.3,0-0.6,0.2-0.8,0.7C-161.7-82.3-161.8-81.5-161.8-80.3z"/>
		</g>
	</g>
</g>
<g>
	<g transform="translate(300.465067, 99.714477)">
		<g>
			<path class="st2" d="M-152.2-74.9h-2.9v-5.6c0-0.7,0-1.3,0.1-1.9c-0.2,0.2-0.4,0.4-0.7,0.7l-1.2,1l-1.5-1.9l3.7-3h2.6V-74.9z"/>
		</g>
	</g>
</g>
<g>
	<g transform="translate(340.505093, 99.714477)">
	</g>
</g>
<g>
	<g transform="translate(318.60071, 99.714477)">
		<g>
			<path class="st2" d="M-144.8-74.9h-7.8v-1.9l2.6-2.6c0.8-0.8,1.2-1.3,1.5-1.6c0.2-0.3,0.4-0.5,0.5-0.8c0.1-0.2,0.1-0.4,0.1-0.6
				c0-0.3-0.1-0.5-0.3-0.6c-0.2-0.2-0.4-0.2-0.8-0.2c-0.3,0-0.7,0.1-1,0.3c-0.3,0.2-0.7,0.5-1.1,0.9l-1.6-1.9c0.5-0.5,1-0.9,1.4-1.1
				s0.8-0.4,1.2-0.5c0.4-0.1,0.9-0.2,1.5-0.2c0.7,0,1.3,0.1,1.9,0.4c0.5,0.2,1,0.6,1.2,1c0.3,0.4,0.5,0.9,0.5,1.5
				c0,0.4-0.1,0.8-0.2,1.2c-0.1,0.3-0.3,0.7-0.5,1c-0.2,0.3-0.5,0.7-0.9,1.1c-0.4,0.4-1.1,1.1-2.3,2.1v0.1h4V-74.9z"/>
		</g>
	</g>
</g>
<g>
	<g transform="translate(357.914406, 99.714477)">
	</g>
</g>
<path class="st4" d="M108.3,55.2h25.8v25.8h-25.8V55.2"/>
<path class="st4" d="M108.3,81.2L108.3,81.2l-0.1-26h26v26H108.3 M108.4,55.3V81H134V55.3H108.4"/>
<path class="st3" d="M110.1,57.1h22.2v22.2h-22.2V57.1"/>
<path class="st4" d="M157.3,55.2h25.8v25.8h-25.8V55.2"/>
<path class="st4" d="M157.3,81.2L157.3,81.2l-0.1-26h26v26H157.3 M157.4,55.3V81H183V55.3H157.4"/>
<path class="st3" d="M159.1,57.1h22.2v22.2h-22.2V57.1"/>
<path class="st4" d="M204.9,55.2h25.8v25.8h-25.8V55.2"/>
<path class="st4" d="M204.9,81.2L204.9,81.2l-0.1-26h26v26H204.9 M205,55.3V81h25.7V55.3H205"/>
<path class="st3" d="M206.7,57.1h22.2v22.2h-22.2V57.1"/>
<path class="st4" d="M132.6,55.2h25.8v25.8h-25.8V55.2"/>
<path class="st4" d="M132.6,81.2L132.6,81.2l-0.1-26h26v26H132.6 M132.7,55.3V81h25.7V55.3H132.7"/>
<path class="st3" d="M134.5,57.1h22.2v22.2h-22.2V57.1"/>
<path class="st4" d="M181.7,55.2h25.8v25.8h-25.8V55.2"/>
<path class="st4" d="M181.7,81.2L181.7,81.2l-0.1-26h26v26H181.7 M181.8,55.3V81h25.7V55.3H181.8"/>
<path class="st3" d="M183.5,57.1h22.2v22.2h-22.2V57.1"/>
<g>
	<g transform="translate(282.18855, 135.53514)">
		<g>
			<path class="st2" d="M-157.3-71.4c0,0.7-0.2,1.2-0.6,1.7c-0.4,0.5-1,0.8-1.8,1v0.1c1.8,0.2,2.7,1.1,2.7,2.5c0,1-0.4,1.8-1.2,2.3
				c-0.8,0.6-1.9,0.9-3.3,0.9c-0.6,0-1.1,0-1.6-0.1c-0.5-0.1-1-0.2-1.6-0.5v-2.4c0.5,0.2,0.9,0.4,1.4,0.5c0.5,0.1,0.9,0.2,1.3,0.2
				c0.6,0,1.1-0.1,1.4-0.2c0.3-0.2,0.4-0.5,0.4-0.9c0-0.3-0.1-0.5-0.2-0.7c-0.1-0.2-0.4-0.3-0.7-0.4c-0.3-0.1-0.8-0.1-1.3-0.1h-0.6
				v-2.2h0.7c1.5,0,2.2-0.4,2.2-1.1c0-0.3-0.1-0.5-0.3-0.6c-0.2-0.1-0.5-0.2-0.9-0.2c-0.7,0-1.4,0.2-2.1,0.7l-1.2-1.9
				c0.6-0.4,1.1-0.7,1.7-0.8c0.6-0.2,1.3-0.2,2-0.2c1.1,0,2,0.2,2.6,0.7C-157.6-72.7-157.3-72.1-157.3-71.4z"/>
		</g>
	</g>
</g>
<g>
	<g transform="translate(300.465067, 135.53514)">
		<g>
			<path class="st2" d="M-150.5-65.1h-1.2v2.1h-2.9v-2.1h-4.2v-2.1l4.4-6.5h2.7v6.5h1.2V-65.1z M-154.6-67.2v-1.2c0-0.2,0-0.5,0-0.9
				c0-0.4,0-0.6,0.1-0.6h-0.1c-0.2,0.4-0.4,0.7-0.6,1l-1.2,1.8H-154.6z"/>
		</g>
	</g>
</g>
<g>
	<g transform="translate(340.505093, 135.53514)">
	</g>
</g>
<g>
	<g transform="translate(321.879209, 135.53514)">
	</g>
</g>
<g>
	<g transform="translate(357.914406, 135.53514)">
	</g>
</g>
<g>
	<g transform="translate(374.084664, 101.448327)">
		<g>
			<path class="st2" d="M-122.7-86.5l-4.9,12.2h-2.1l-4.9-12.2h1.8c0.2,0,0.4,0.1,0.5,0.1c0.1,0.1,0.2,0.2,0.3,0.4l2.9,7.4
				c0.1,0.2,0.2,0.5,0.3,0.8c0.1,0.3,0.2,0.6,0.2,0.9c0.1-0.3,0.1-0.6,0.2-0.9c0.1-0.3,0.2-0.6,0.3-0.8l2.9-7.4
				c0-0.1,0.1-0.2,0.2-0.3c0.1-0.1,0.3-0.2,0.5-0.2H-122.7z"/>
		</g>
	</g>
</g>
<g>
	<g transform="translate(382.84735, 101.448327)">
		<g>
			<path class="st2" d="M-128.4-83v8.6h-2.1V-83H-128.4z M-128.1-85.5c0,0.2,0,0.3-0.1,0.5c-0.1,0.2-0.2,0.3-0.3,0.4
				c-0.1,0.1-0.2,0.2-0.4,0.3c-0.2,0.1-0.3,0.1-0.5,0.1c-0.2,0-0.4,0-0.5-0.1c-0.2-0.1-0.3-0.2-0.4-0.3c-0.1-0.1-0.2-0.3-0.3-0.4
				c-0.1-0.2-0.1-0.3-0.1-0.5c0-0.2,0-0.4,0.1-0.5c0.1-0.2,0.2-0.3,0.3-0.4c0.1-0.1,0.3-0.2,0.4-0.3c0.2-0.1,0.3-0.1,0.5-0.1
				c0.2,0,0.4,0,0.5,0.1c0.2,0.1,0.3,0.2,0.4,0.3c0.1,0.1,0.2,0.2,0.3,0.4C-128.2-85.9-128.1-85.7-128.1-85.5z"/>
		</g>
	</g>
</g>
<g>
	<g transform="translate(386.052134, 101.448327)">
		<g>
			<path class="st2" d="M-124.2-81.3c-0.1,0.1-0.1,0.2-0.2,0.2c-0.1,0-0.1,0-0.2,0c-0.1,0-0.2,0-0.3-0.1c-0.1-0.1-0.2-0.1-0.4-0.2
				c-0.2-0.1-0.3-0.1-0.5-0.2c-0.2-0.1-0.4-0.1-0.7-0.1c-0.4,0-0.7,0.1-1,0.3c-0.2,0.2-0.3,0.4-0.3,0.7c0,0.2,0.1,0.3,0.2,0.5
				c0.1,0.1,0.3,0.2,0.5,0.3c0.2,0.1,0.4,0.2,0.7,0.2c0.2,0.1,0.5,0.2,0.8,0.2c0.3,0.1,0.5,0.2,0.8,0.3c0.2,0.1,0.5,0.3,0.7,0.4
				c0.2,0.2,0.4,0.4,0.5,0.6c0.1,0.2,0.2,0.6,0.2,0.9c0,0.4-0.1,0.8-0.2,1.1c-0.1,0.3-0.4,0.7-0.6,0.9c-0.3,0.2-0.7,0.4-1.1,0.6
				c-0.4,0.1-0.9,0.2-1.5,0.2c-0.3,0-0.6,0-0.9-0.1c-0.3,0-0.6-0.1-0.8-0.2c-0.2-0.1-0.5-0.2-0.7-0.3c-0.2-0.1-0.4-0.3-0.6-0.4
				l0.5-0.8c0.1-0.1,0.1-0.2,0.2-0.2c0.1-0.1,0.2-0.1,0.3-0.1c0.1,0,0.2,0,0.4,0.1c0.1,0.1,0.3,0.1,0.4,0.2c0.2,0.1,0.3,0.2,0.5,0.2
				c0.2,0.1,0.5,0.1,0.8,0.1c0.2,0,0.5,0,0.6-0.1c0.2-0.1,0.3-0.2,0.4-0.2c0.1-0.1,0.2-0.2,0.2-0.3c0.1-0.1,0.1-0.3,0.1-0.4
				c0-0.2-0.1-0.4-0.2-0.5c-0.1-0.1-0.3-0.2-0.5-0.3c-0.2-0.1-0.4-0.2-0.7-0.2c-0.2-0.1-0.5-0.2-0.8-0.2c-0.3-0.1-0.5-0.2-0.8-0.3
				c-0.2-0.1-0.5-0.3-0.7-0.5c-0.2-0.2-0.4-0.4-0.5-0.7c-0.1-0.3-0.2-0.6-0.2-1c0-0.3,0.1-0.7,0.2-1c0.1-0.3,0.3-0.6,0.6-0.8
				c0.3-0.2,0.6-0.4,1-0.6c0.4-0.2,0.9-0.2,1.4-0.2c0.6,0,1.1,0.1,1.6,0.3c0.5,0.2,0.9,0.5,1.2,0.8L-124.2-81.3z"/>
		</g>
	</g>
</g>
<g>
	<g transform="translate(391.597415, 101.448327)">
		<g>
			<path class="st2" d="M-125.5-83v8.6h-2.1V-83H-125.5z M-125.2-85.5c0,0.2,0,0.3-0.1,0.5c-0.1,0.2-0.2,0.3-0.3,0.4
				c-0.1,0.1-0.2,0.2-0.4,0.3c-0.2,0.1-0.3,0.1-0.5,0.1c-0.2,0-0.4,0-0.5-0.1c-0.2-0.1-0.3-0.2-0.4-0.3c-0.1-0.1-0.2-0.3-0.3-0.4
				c-0.1-0.2-0.1-0.3-0.1-0.5c0-0.2,0-0.4,0.1-0.5c0.1-0.2,0.2-0.3,0.3-0.4c0.1-0.1,0.3-0.2,0.4-0.3c0.2-0.1,0.3-0.1,0.5-0.1
				c0.2,0,0.4,0,0.5,0.1c0.2,0.1,0.3,0.2,0.4,0.3c0.1,0.1,0.2,0.2,0.3,0.4C-125.3-85.9-125.2-85.7-125.2-85.5z"/>
		</g>
	</g>
</g>
<g>
	<g transform="translate(394.802199, 101.448327)">
		<g>
			<path class="st2" d="M-123.7-74.2c-0.8,0-1.3-0.2-1.7-0.6c-0.4-0.4-0.6-1-0.6-1.8v-4.8h-0.9c-0.1,0-0.2,0-0.3-0.1
				c-0.1-0.1-0.1-0.2-0.1-0.3v-0.8l1.4-0.2l0.4-2.4c0-0.1,0.1-0.2,0.2-0.2c0.1-0.1,0.2-0.1,0.3-0.1h1.1v2.7h2.3v1.5h-2.3v4.7
				c0,0.3,0.1,0.5,0.2,0.6c0.1,0.2,0.3,0.2,0.6,0.2c0.1,0,0.2,0,0.3,0c0.1,0,0.2-0.1,0.2-0.1c0.1,0,0.1-0.1,0.2-0.1
				c0.1,0,0.1-0.1,0.2-0.1c0.1,0,0.1,0,0.1,0.1c0,0,0.1,0.1,0.1,0.1l0.6,1c-0.3,0.2-0.7,0.4-1,0.6
				C-122.9-74.3-123.3-74.2-123.7-74.2z"/>
		</g>
	</g>
</g>
<g>
	<g transform="translate(399.49582, 101.448327)">
		<g>
			<path class="st2" d="M-119.5-79.7c0-0.3,0-0.5-0.1-0.8c-0.1-0.2-0.2-0.5-0.3-0.6c-0.1-0.2-0.3-0.3-0.6-0.4
				c-0.2-0.1-0.5-0.1-0.8-0.1c-0.6,0-1.1,0.2-1.4,0.5c-0.3,0.3-0.6,0.8-0.7,1.4H-119.5z M-123.4-78.4c0,0.4,0.1,0.8,0.2,1.2
				c0.1,0.3,0.3,0.6,0.5,0.8c0.2,0.2,0.4,0.4,0.7,0.5c0.3,0.1,0.6,0.1,0.9,0.1c0.3,0,0.6,0,0.9-0.1c0.2-0.1,0.5-0.2,0.6-0.3
				c0.2-0.1,0.3-0.2,0.5-0.2c0.1-0.1,0.3-0.1,0.4-0.1c0.2,0,0.3,0.1,0.4,0.2l0.6,0.8c-0.2,0.3-0.5,0.5-0.8,0.7
				c-0.3,0.2-0.6,0.3-0.9,0.4c-0.3,0.1-0.6,0.2-0.9,0.2c-0.3,0-0.6,0.1-0.9,0.1c-0.6,0-1.2-0.1-1.7-0.3c-0.5-0.2-1-0.5-1.4-0.9
				c-0.4-0.4-0.7-0.9-0.9-1.4c-0.2-0.6-0.3-1.2-0.3-2c0-0.6,0.1-1.2,0.3-1.7c0.2-0.5,0.5-1,0.8-1.4c0.4-0.4,0.8-0.7,1.3-0.9
				c0.5-0.2,1.1-0.3,1.8-0.3c0.5,0,1,0.1,1.5,0.3c0.5,0.2,0.9,0.4,1.2,0.8c0.3,0.3,0.6,0.7,0.8,1.2c0.2,0.5,0.3,1,0.3,1.7
				c0,0.3,0,0.5-0.1,0.6c-0.1,0.1-0.2,0.1-0.4,0.1H-123.4z"/>
		</g>
	</g>
</g>
<g>
	<g transform="translate(406.233434, 101.448327)">
		<g>
			<path class="st2" d="M-117.4-80.8c-0.2-0.3-0.5-0.5-0.8-0.6c-0.3-0.1-0.6-0.2-0.9-0.2c-0.3,0-0.6,0.1-0.9,0.2
				c-0.2,0.1-0.5,0.3-0.6,0.5c-0.2,0.2-0.3,0.5-0.4,0.9c-0.1,0.4-0.1,0.8-0.1,1.3s0,0.9,0.1,1.3c0.1,0.3,0.2,0.6,0.3,0.9
				c0.2,0.2,0.3,0.4,0.6,0.5c0.2,0.1,0.5,0.1,0.7,0.1c0.4,0,0.8-0.1,1.1-0.3c0.3-0.2,0.6-0.4,0.9-0.8V-80.8z M-115.3-86.9v12.5h-1.3
				c-0.3,0-0.5-0.1-0.5-0.4l-0.2-0.8c-0.3,0.4-0.8,0.7-1.2,1c-0.4,0.2-1,0.4-1.6,0.4c-0.5,0-0.9-0.1-1.3-0.3c-0.4-0.2-0.7-0.5-1-0.9
				c-0.3-0.4-0.5-0.8-0.6-1.4c-0.2-0.6-0.2-1.2-0.2-1.9c0-0.6,0.1-1.2,0.2-1.8c0.2-0.6,0.4-1,0.8-1.4c0.3-0.4,0.7-0.7,1.2-0.9
				c0.5-0.2,1-0.4,1.5-0.4c0.5,0,0.9,0.1,1.2,0.2c0.3,0.2,0.7,0.4,0.9,0.6v-4.5H-115.3z"/>
		</g>
	</g>
</g>
<g>
	<g transform="translate(374.084664, 137.268991)">
		<g>
			<path class="st2" d="M-131.6-68.5c0,0.7,0.1,1.3,0.3,1.8c0.2,0.5,0.4,1,0.8,1.4c0.3,0.4,0.7,0.6,1.2,0.9c0.5,0.2,1,0.3,1.6,0.3
				c0.6,0,1.1-0.1,1.6-0.3c0.5-0.2,0.9-0.5,1.2-0.9c0.3-0.4,0.6-0.8,0.8-1.4c0.2-0.5,0.3-1.1,0.3-1.8s-0.1-1.3-0.3-1.8
				c-0.2-0.5-0.4-1-0.8-1.4c-0.3-0.4-0.7-0.7-1.2-0.9c-0.5-0.2-1-0.3-1.6-0.3c-0.6,0-1.1,0.1-1.6,0.3c-0.5,0.2-0.9,0.5-1.2,0.9
				c-0.3,0.4-0.6,0.8-0.8,1.4C-131.5-69.8-131.6-69.2-131.6-68.5z M-120.9-60h-1.9c-0.3,0-0.5,0-0.7-0.1c-0.2-0.1-0.4-0.2-0.6-0.4
				l-1.8-2c-0.3,0.1-0.6,0.1-0.9,0.2c-0.3,0-0.6,0.1-0.9,0.1c-0.9,0-1.8-0.2-2.5-0.5c-0.8-0.3-1.4-0.7-1.9-1.3c-0.5-0.6-1-1.2-1.3-2
				c-0.3-0.8-0.4-1.6-0.4-2.5c0-0.9,0.1-1.7,0.4-2.5c0.3-0.8,0.7-1.4,1.3-2c0.5-0.6,1.2-1,1.9-1.3c0.8-0.3,1.6-0.5,2.5-0.5
				c0.6,0,1.2,0.1,1.7,0.2c0.6,0.1,1.1,0.3,1.5,0.6c0.5,0.3,0.9,0.6,1.2,1c0.4,0.4,0.7,0.8,0.9,1.2c0.3,0.5,0.5,1,0.6,1.5
				c0.1,0.5,0.2,1.1,0.2,1.7c0,0.5-0.1,1.1-0.2,1.6c-0.1,0.5-0.3,1-0.5,1.4c-0.2,0.4-0.5,0.8-0.8,1.2c-0.3,0.4-0.6,0.7-1,1
				L-120.9-60z"/>
		</g>
	</g>
</g>
<g>
	<g transform="translate(384.279409, 137.268991)">
		<g>
			<path class="st2" d="M-122.7-71.1v8.6h-1.3c-0.3,0-0.4-0.1-0.5-0.4l-0.1-0.7c-0.4,0.4-0.8,0.7-1.2,0.9c-0.4,0.2-0.9,0.3-1.5,0.3
				c-0.5,0-0.9-0.1-1.3-0.2c-0.4-0.2-0.7-0.4-0.9-0.7c-0.2-0.3-0.4-0.6-0.6-1c-0.1-0.4-0.2-0.8-0.2-1.3v-5.5h2.1v5.5
				c0,0.5,0.1,0.9,0.4,1.2c0.2,0.3,0.6,0.4,1.1,0.4c0.4,0,0.7-0.1,1-0.2c0.3-0.2,0.6-0.4,0.9-0.7v-6.2H-122.7z"/>
		</g>
	</g>
</g>
<g>
	<g transform="translate(391.395543, 137.268991)">
		<g>
			<path class="st2" d="M-122.2-67.7c0-0.3,0-0.5-0.1-0.8c-0.1-0.2-0.2-0.5-0.3-0.6c-0.1-0.2-0.3-0.3-0.6-0.4
				c-0.2-0.1-0.5-0.1-0.8-0.1c-0.6,0-1.1,0.2-1.4,0.5c-0.3,0.3-0.6,0.8-0.7,1.4H-122.2z M-126.1-66.5c0,0.4,0.1,0.8,0.2,1.2
				c0.1,0.3,0.3,0.6,0.5,0.8c0.2,0.2,0.4,0.4,0.7,0.5c0.3,0.1,0.6,0.1,0.9,0.1c0.3,0,0.6,0,0.9-0.1c0.2-0.1,0.5-0.2,0.6-0.3
				c0.2-0.1,0.3-0.2,0.5-0.2c0.1-0.1,0.3-0.1,0.4-0.1c0.2,0,0.3,0.1,0.4,0.2l0.6,0.8c-0.2,0.3-0.5,0.5-0.8,0.7
				c-0.3,0.2-0.6,0.3-0.9,0.4c-0.3,0.1-0.6,0.2-0.9,0.2c-0.3,0-0.6,0.1-0.9,0.1c-0.6,0-1.2-0.1-1.7-0.3c-0.5-0.2-1-0.5-1.4-0.9
				c-0.4-0.4-0.7-0.9-0.9-1.4c-0.2-0.6-0.3-1.2-0.3-2c0-0.6,0.1-1.2,0.3-1.7c0.2-0.5,0.5-1,0.8-1.4c0.4-0.4,0.8-0.7,1.3-0.9
				c0.5-0.2,1.1-0.3,1.8-0.3c0.5,0,1,0.1,1.5,0.3c0.5,0.2,0.9,0.4,1.2,0.8c0.3,0.3,0.6,0.7,0.8,1.2c0.2,0.5,0.3,1,0.3,1.7
				c0,0.3,0,0.5-0.1,0.6c-0.1,0.1-0.2,0.1-0.4,0.1H-126.1z"/>
		</g>
	</g>
</g>
<g>
	<g transform="translate(398.133157, 137.268991)">
		<g>
			<path class="st2" d="M-118-71.1v8.6h-1.3c-0.3,0-0.4-0.1-0.5-0.4l-0.1-0.7c-0.4,0.4-0.8,0.7-1.2,0.9c-0.4,0.2-0.9,0.3-1.5,0.3
				c-0.5,0-0.9-0.1-1.2-0.2c-0.4-0.2-0.7-0.4-0.9-0.7c-0.2-0.3-0.4-0.6-0.6-1c-0.1-0.4-0.2-0.8-0.2-1.3v-5.5h2.1v5.5
				c0,0.5,0.1,0.9,0.4,1.2c0.2,0.3,0.6,0.4,1.1,0.4c0.4,0,0.7-0.1,1-0.2c0.3-0.2,0.6-0.4,0.9-0.7v-6.2H-118z"/>
		</g>
	</g>
</g>
<g>
	<g transform="translate(405.249291, 137.268991)">
		<g>
			<path class="st2" d="M-117.5-67.7c0-0.3,0-0.5-0.1-0.8c-0.1-0.2-0.2-0.5-0.3-0.6c-0.1-0.2-0.3-0.3-0.6-0.4
				c-0.2-0.1-0.5-0.1-0.8-0.1c-0.6,0-1.1,0.2-1.4,0.5c-0.3,0.3-0.6,0.8-0.7,1.4H-117.5z M-121.5-66.5c0,0.4,0.1,0.8,0.2,1.2
				c0.1,0.3,0.3,0.6,0.5,0.8c0.2,0.2,0.4,0.4,0.7,0.5c0.3,0.1,0.6,0.1,0.9,0.1c0.3,0,0.6,0,0.9-0.1c0.2-0.1,0.5-0.2,0.6-0.3
				c0.2-0.1,0.3-0.2,0.5-0.2c0.1-0.1,0.3-0.1,0.4-0.1c0.2,0,0.3,0.1,0.4,0.2l0.6,0.8c-0.2,0.3-0.5,0.5-0.8,0.7
				c-0.3,0.2-0.6,0.3-0.9,0.4c-0.3,0.1-0.6,0.2-0.9,0.2c-0.3,0-0.6,0.1-0.9,0.1c-0.6,0-1.2-0.1-1.7-0.3c-0.5-0.2-1-0.5-1.4-0.9
				c-0.4-0.4-0.7-0.9-0.9-1.4c-0.2-0.6-0.3-1.2-0.3-2c0-0.6,0.1-1.2,0.3-1.7c0.2-0.5,0.5-1,0.8-1.4c0.4-0.4,0.8-0.7,1.3-0.9
				c0.5-0.2,1.1-0.3,1.8-0.3c0.5,0,1,0.1,1.5,0.3c0.5,0.2,0.9,0.4,1.2,0.8c0.3,0.3,0.6,0.7,0.8,1.2c0.2,0.5,0.3,1,0.3,1.7
				c0,0.3,0,0.5-0.1,0.6c-0.1,0.1-0.2,0.1-0.4,0.1H-121.5z"/>
		</g>
	</g>
</g>
<g>
	<g transform="translate(273.043893, 168.02256)">
		<g>
			<path class="st2" d="M-165.8-60.4v3.2h3.8v1h-3.8v4h-1.2v-9.2h5.7v1H-165.8z"/>
		</g>
	</g>
</g>
<g>
	<g transform="translate(278.484434, 168.02256)">
		<g>
			<path class="st2" d="M-164.4-57.4c0.2-0.5,0.5-0.8,0.8-1.1c0.3-0.2,0.7-0.4,1.1-0.4c0.1,0,0.3,0,0.4,0.1c0.1,0,0.3,0.1,0.4,0.1
				l-0.1,0.9c0,0.1-0.1,0.2-0.2,0.2c-0.1,0-0.1,0-0.3,0c-0.1,0-0.2,0-0.4,0c-0.2,0-0.4,0-0.6,0.1c-0.2,0.1-0.3,0.1-0.4,0.3
				c-0.1,0.1-0.2,0.3-0.4,0.4c-0.1,0.2-0.2,0.4-0.2,0.6v4.1h-1.2v-6.5h0.7c0.1,0,0.2,0,0.2,0.1c0.1,0,0.1,0.1,0.1,0.2L-164.4-57.4z"
				/>
		</g>
	</g>
</g>
<g>
	<g transform="translate(281.9864, 168.02256)">
		<g>
			<path class="st2" d="M-161.6-58.8c0.5,0,0.9,0.1,1.3,0.2c0.4,0.2,0.7,0.4,1,0.7c0.3,0.3,0.5,0.6,0.6,1.1c0.1,0.4,0.2,0.9,0.2,1.4
				c0,0.5-0.1,1-0.2,1.4c-0.1,0.4-0.3,0.8-0.6,1c-0.3,0.3-0.6,0.5-1,0.7c-0.4,0.2-0.8,0.2-1.3,0.2c-0.5,0-0.9-0.1-1.3-0.2
				c-0.4-0.2-0.7-0.4-1-0.7c-0.3-0.3-0.5-0.6-0.6-1c-0.1-0.4-0.2-0.9-0.2-1.4c0-0.5,0.1-1,0.2-1.4c0.2-0.4,0.4-0.8,0.6-1.1
				c0.3-0.3,0.6-0.5,1-0.7C-162.5-58.7-162.1-58.8-161.6-58.8z M-161.6-53c0.6,0,1.1-0.2,1.4-0.6c0.3-0.4,0.5-1,0.5-1.8
				c0-0.8-0.2-1.4-0.5-1.8c-0.3-0.4-0.8-0.6-1.4-0.6c-0.3,0-0.6,0.1-0.9,0.2c-0.2,0.1-0.4,0.3-0.6,0.5c-0.2,0.2-0.3,0.5-0.4,0.8
				c-0.1,0.3-0.1,0.7-0.1,1c0,0.8,0.2,1.4,0.5,1.8C-162.7-53.2-162.2-53-161.6-53z"/>
		</g>
	</g>
</g>
<g>
	<g transform="translate(287.441384, 168.02256)">
		<g>
			<path class="st2" d="M-161.4-57.7c0.1-0.2,0.3-0.3,0.4-0.4c0.2-0.1,0.3-0.2,0.5-0.3c0.2-0.1,0.4-0.2,0.6-0.2
				c0.2-0.1,0.4-0.1,0.6-0.1c0.4,0,0.7,0.1,0.9,0.2c0.3,0.1,0.5,0.3,0.7,0.5c0.2,0.2,0.3,0.5,0.4,0.8c0.1,0.3,0.1,0.6,0.1,1v4.1
				h-1.1v-4.1c0-0.5-0.1-0.9-0.3-1.1c-0.2-0.3-0.6-0.4-1-0.4c-0.3,0-0.7,0.1-1,0.2c-0.3,0.2-0.6,0.4-0.8,0.6v4.8h-1.2v-6.5h0.7
				c0.2,0,0.3,0.1,0.3,0.2L-161.4-57.7z"/>
		</g>
	</g>
</g>
<g>
	<g transform="translate(292.809774, 168.02256)">
		<g>
			<path class="st2" d="M-158.7-52.1c-0.5,0-0.9-0.1-1.2-0.4c-0.3-0.3-0.4-0.7-0.4-1.2v-4h-0.8c-0.1,0-0.1,0-0.2-0.1
				c0,0-0.1-0.1-0.1-0.2v-0.5l1.1-0.1l0.3-2c0-0.1,0-0.1,0.1-0.1c0,0,0.1-0.1,0.2-0.1h0.6v2.2h1.9v0.8h-1.9v3.9
				c0,0.3,0.1,0.5,0.2,0.6c0.1,0.1,0.3,0.2,0.5,0.2c0.1,0,0.2,0,0.3,0c0.1,0,0.2-0.1,0.2-0.1c0.1,0,0.1-0.1,0.2-0.1
				c0,0,0.1-0.1,0.1-0.1c0.1,0,0.1,0,0.2,0.1l0.3,0.6c-0.2,0.2-0.4,0.3-0.7,0.4C-158.1-52.1-158.4-52.1-158.7-52.1z"/>
		</g>
	</g>
</g>
<path class="st0" d="M121.3,90.3v13"/>
<path class="st5" d="M124.3,89.2l-3-4l-3,4H124.3z"/>
</svg>
