<svg xmlns="http://www.w3.org/2000/svg" xmlns:xlink="http://www.w3.org/1999/xlink" viewBox="0 0 438.97873 486.80774"><defs><clipPath id="a" transform="translate(-31.7144 -7.26964)"><rect x="27.5" y="0.22917" width="234.06251" height="284.00001" fill="none"/></clipPath><clipPath id="b" transform="translate(-31.7144 -7.26964)"><rect x="184.22917" y="274.89584" width="288.27084" height="225.33334" fill="none"/></clipPath></defs><path d="M247.10417,180.41146c-.15625-37.30208-14.54687-73.13021-32.56771-105.51042-16.6927-28.849-41.55208-56.38021-75.57812-65.26562C108.91146,2.04167,75.776,13.35417,54.51042,34.61979,33.03646,56.94271,28.8125,89.83854,33.35417,119c5.526,33.9323,19.53646,66.33334,38.28646,95.32813,17.33854,26.04167,42.91667,49.57813,75.45312,54.91667,27.67709,4.10937,53.39584-5.224,72.85417-24.53125-13.58854-9.86458-25.43229-18.36979-41.27083-24.474-7.79167-.86979-15.04167,3.10937-23.68229.40625-20.276-3.849-33.90625-20.95313-44.28126-37.03125-14.19791-24.07813-26.026-50.41667-28.76562-78.3073-1.5-15.92187,2.20312-34.95833,17.61979-43.60416,12.72917-8.06771,29.93229-6.39584,41.73959,2.5,22.60937,16.34375,34.94271,42.14062,45.099,66.93229,5.8125,15.09375,9.849,28.67708,10,44.90625,17.349,3.79688,34.16666,12.04688,48.89583,21.61979A94.21764,94.21764,0,0,0,247.10417,180.41146Z" transform="translate(-31.7144 -7.26964)" fill="#fff"/><g clip-path="url(#a)"><path d="M247.10413,180.41148c-.15625-37.30209-14.54687-73.13022-32.56771-105.51043-16.69273-28.849-41.55209-56.38021-75.57814-65.26563C108.9114,2.04167,75.776,13.35417,54.51032,34.6198,33.03636,56.94272,28.81242,89.83856,33.35407,119c5.526,33.93231,19.53648,66.33334,38.28646,95.32815,17.33855,26.04166,42.91668,49.57812,75.45316,54.91666,27.6771,4.10939,53.39585-5.22394,72.85417-24.53124-13.58853-9.8646-25.43228-18.36981-41.27083-24.474-7.79167-.8698-15.04168,3.10938-23.6823.40625-20.276-3.849-33.90624-20.95312-44.28127-37.03126-14.1979-24.07812-26.026-50.41667-28.76562-78.3073-1.5-15.92187,2.20313-34.95833,17.61981-43.60417,12.72914-8.06771,29.93228-6.39583,41.73958,2.5,22.60938,16.34376,34.94272,42.14063,45.099,66.9323,5.81251,15.09375,9.849,28.67709,10,44.90626,17.349,3.79688,34.16666,12.04687,48.89584,21.61979A94.2186,94.2186,0,0,0,247.10413,180.41148Z" transform="translate(-31.7144 -7.26964)" fill="none"/></g><path d="M339.1354,338.58339c-.91667-25.7396-9.96355-50.85418-25.08334-71.95835a263.85093,263.85093,0,0,0-72.18753-68.724c-7.33331-3.68751-16.40624-9.63021-25.07292-12.95834a135.10708,135.10708,0,0,0-59.17707-9.54688c-15.63022,1.25522-29.349,6.06771-36.78127,19.82814,9.73958,11.60417,21.96353,24.1198,38.24479,23.026,7.91667-6.125,18.375-1.94792,26.46876,2.54166,33.77083,16.46876,62.21876,41.57814,86.20315,69.65628,7.88021,9.63019,15.50522,20.44792,20.26562,32.19271,2.974,7.72914,2.54167,17.625-4.58853,23.10936-6.92709,8.6198-17.26564,2.54687-24.65626,4.54687-12.70313,8.29167-14.18229,23.99482-8.22917,38.22919,17.29166,5.41145,29.25522,8.09894,47.1771,3.849,20.90625-6.16145,37.34375-25.974,37.41667-47.48959C339.22393,342.78651,339.21351,340.68234,339.1354,338.58339ZM219.11975,314.86464c-17.44792-15.0469-30.55729-26.09377-44.25-44.46878-18.6823,4.59895-37.72395.48959-54.67707-8.21874,12.83331,37.9896,39.36456,66.63543,69.83852,92.52084,4.83335,5.07293,8.63021,7.26041,9.04168-.96353C203.27079,339.974,208.2812,324.75005,219.11975,314.86464Z" transform="translate(-31.7144 -7.26964)" fill="#fff"/><path d="M470.6771,409.3021c.67187-30.98959-19.86459-58.30209-44.474-76.14584-27.75521-19.95313-64.51042-36.23958-97.97917-43.88542,8.55208,12.39584,14.40625,44.04688,12.68229,57.21355,24.86458,8.86979,54.28125,19.84375,70.92709,40.72916,10.48958,12.33334,10.95833,31.1875.6875,43.75-12.1823,15.19792-34.39584,16.04167-52.44792,13.64063-26.82292-4.16667-52.73959-13.73958-76.17188-27.01563-16-9.651-33.15625-23.53645-34.80729-43.08854-1.17709-16.276,10.92187-32.01042,27.3125-35.5625,4.78125-3.43229,15.16146-.13542,15.375-4.776,2.05208-6.776-6.91146-24.82813-19.94271-40.61979-27.3125,2.36979-47.46354,12.53645-60.80729,36.224-14,23.599-17.29167,54.06251-3.98959,78.69792,14.82292,29.0573,43.69271,48.53126,73.125,62.02605,36.03126,15.8125,76.13022,28.05208,116.04168,22.02083,25.349-3.56771,49.54166-17.71875,61.83333-39.96875,7.54688-13.1875,12.375-28.09375,12.63542-43.24479Z" transform="translate(-31.7144 -7.26964)" fill="#fff"/><g clip-path="url(#b)"><path d="M470.67709,409.30215c.67188-30.98961-19.86459-58.3021-44.474-76.14586-27.75521-19.95313-64.51043-36.23959-97.97919-43.88541,8.55209,12.39582,14.40626,44.04688,12.6823,57.21354,24.86459,8.86979,54.28126,19.84376,70.9271,40.72918,10.48958,12.33333,10.95834,31.18748.6875,43.75-12.18229,15.19793-34.39584,16.04166-52.44793,13.64063-26.82292-4.16665-52.73959-13.73959-76.1719-27.01563-16-9.651-33.15625-23.53647-34.80729-43.08854-1.17708-16.276,10.92188-32.01042,27.31251-35.56252,4.78124-3.43227,15.16145-.13539,15.375-4.776,2.05209-6.776-6.91145-24.82813-19.9427-40.61977-27.31252,2.36978-47.46354,12.53646-60.80729,36.22394-14,23.599-17.2917,54.0625-3.9896,78.69792,14.82291,29.05729,43.69272,48.53126,73.125,62.02605,36.03125,15.81252,76.13022,28.0521,116.04169,22.02084,25.349-3.56769,49.54167-17.71873,61.83334-39.96874,7.54688-13.18752,12.375-28.09377,12.63542-43.24481Z" transform="translate(-31.7144 -7.26964)" fill="none"/></g></svg>