<svg xmlns="http://www.w3.org/2000/svg" xmlns:xlink="http://www.w3.org/1999/xlink" width="500" zoomAndPan="magnify" viewBox="0 0 375 374.999991" height="500" preserveAspectRatio="xMidYMid meet" version="1.0"><defs><clipPath id="id1"><path d="M 0 179 L 213 179 L 213 354.546875 L 0 354.546875 Z M 0 179 " clip-rule="nonzero"/></clipPath><clipPath id="id2"><path d="M 206 20.796875 L 375 20.796875 L 375 237 L 206 237 Z M 206 20.796875 " clip-rule="nonzero"/></clipPath></defs><path fill="rgb(100%, 100%, 100%)" d="M 135.136719 189.84375 C 107.160156 189.960938 80.289062 200.753906 56.003906 214.269531 C 34.367188 226.789062 13.71875 245.433594 7.054688 270.953125 C 1.359375 293.488281 9.84375 318.339844 25.792969 334.289062 C 42.535156 350.394531 67.207031 353.5625 89.078125 350.15625 C 114.527344 346.011719 138.828125 335.503906 160.574219 321.441406 C 180.105469 308.4375 197.757812 289.253906 201.761719 264.851562 C 204.84375 244.09375 197.84375 224.804688 183.363281 210.210938 C 175.964844 220.402344 169.585938 229.285156 165.007812 241.164062 C 164.355469 247.007812 167.339844 252.445312 165.3125 258.925781 C 162.425781 274.132812 149.597656 284.355469 137.539062 292.136719 C 119.480469 302.785156 99.726562 311.65625 78.808594 313.710938 C 66.867188 314.835938 52.589844 312.058594 46.105469 300.496094 C 40.054688 290.949219 41.308594 278.046875 47.980469 269.191406 C 60.238281 252.234375 79.585938 242.984375 98.179688 235.367188 C 109.5 231.007812 119.6875 227.980469 131.859375 227.867188 C 134.707031 214.855469 140.894531 202.242188 148.074219 191.195312 C 143.382812 190.367188 139.898438 189.875 135.136719 189.84375 Z M 135.136719 189.84375 " fill-opacity="1" fill-rule="nonzero"/><g clip-path="url(#id1)"><path stroke-linecap="butt" transform="matrix(1.476521, 0, 0, 1.478078, 3.894623, 2.319481)" fill="none" stroke-linejoin="miter" d="M 88.886042 126.870371 C 69.938418 126.949654 51.739492 134.251685 35.291938 143.395741 C 20.638086 151.865885 6.653565 164.479924 2.14021 181.745276 C -1.717042 196.991535 4.029152 213.804969 14.831044 224.595483 C 26.169988 235.491709 42.879454 237.635012 57.692041 235.330499 C 74.927976 232.526498 91.386112 225.417391 106.114041 215.903345 C 119.341927 207.105495 131.29729 194.12675 134.009007 177.617237 C 136.096368 163.573447 131.355493 150.523347 121.548338 140.649881 C 116.537615 147.544922 112.217387 153.554628 109.116771 161.591354 C 108.67496 165.544969 110.696181 169.223734 109.323126 173.608123 C 107.368044 183.896507 98.679969 190.81269 90.513072 196.077129 C 78.282568 203.281377 64.903884 209.283154 50.736818 210.673262 C 42.649289 211.434386 32.979704 209.555362 28.588046 201.732701 C 24.490046 195.273721 25.339277 186.544583 29.857923 180.553377 C 38.159744 169.081023 51.263288 162.822895 63.856236 157.669453 C 71.523119 154.720098 78.422784 152.671936 86.666403 152.595295 C 88.595028 143.792159 92.785623 135.258588 97.648194 127.784776 C 94.470855 127.224505 92.111001 126.891513 88.886042 126.870371 Z M 88.886042 126.870371 " stroke="rgb(0%, 0%, 0%)" stroke-width="1.25" stroke-opacity="1" stroke-miterlimit="4"/></g><path stroke-linecap="butt" transform="matrix(1.476521, 0, 0, 1.478078, 3.894623, 2.319481)" fill-opacity="1" fill="rgb(100%, 100%, 100%)" fill-rule="nonzero" stroke-linejoin="miter" d="M 169.229577 80.17226 C 156.155134 80.637391 143.398161 85.227918 132.678282 92.89994 C 118.953027 102.688836 106.963271 115.176022 97.76989 129.529018 C 95.896822 133.250067 92.878218 137.853809 91.187694 142.251412 C 87.348962 151.672961 85.682248 162.090842 86.338351 172.2788 C 86.975935 180.209814 89.420448 187.170925 96.410064 190.942187 C 102.30441 186.000169 108.661732 179.797539 108.10616 171.536175 C 104.994962 167.519134 107.116715 162.21241 109.397202 158.105513 C 117.762517 140.969659 130.516845 126.534736 144.779152 114.364685 C 149.670824 110.366143 155.165688 106.497097 161.131465 104.081587 C 165.057502 102.572553 170.084098 102.791905 172.869891 106.409885 C 177.248321 109.924797 174.163578 115.170736 175.17948 118.920856 C 179.391239 125.366623 187.367654 126.117175 194.598017 123.096466 C 197.346772 114.322401 198.71189 108.25191 196.553099 99.158068 C 193.423381 88.549906 183.359605 80.209259 172.430725 80.17226 C 171.364558 80.127332 170.295744 80.132618 169.229577 80.17226 Z M 157.181618 141.070085 C 149.538546 149.923433 143.927276 156.575338 134.59368 163.523234 C 136.929724 173.002924 134.842364 182.664967 130.418959 191.26725 C 149.715799 184.755414 164.266474 171.293039 177.414993 155.830071 C 179.991785 153.377561 181.102927 151.450966 176.925561 151.242186 C 169.935946 149.112097 162.202924 146.569732 157.181618 141.070085 Z M 157.181618 141.070085 " stroke="rgb(0%, 0%, 0%)" stroke-width="1.25" stroke-opacity="1" stroke-miterlimit="4"/><path fill="rgb(100%, 100%, 100%)" d="M 306.804688 22.164062 C 283.5625 21.660156 263.078125 37.0625 249.695312 55.519531 C 234.730469 76.335938 222.515625 103.902344 216.78125 129.003906 C 226.078125 122.589844 249.816406 118.199219 259.691406 119.492188 C 266.34375 100.84375 274.574219 78.78125 290.238281 66.296875 C 299.488281 58.429688 313.628906 58.078125 323.050781 65.78125 C 334.449219 74.917969 335.082031 91.578125 333.28125 105.117188 C 330.15625 125.234375 322.976562 144.671875 313.019531 162.246094 C 305.78125 174.246094 295.367188 187.113281 280.703125 188.351562 C 268.496094 189.234375 256.695312 180.160156 254.03125 167.867188 C 251.457031 164.28125 253.929688 156.496094 250.449219 156.335938 C 245.367188 154.796875 231.828125 161.519531 219.984375 171.292969 C 221.761719 191.777344 229.386719 206.890625 247.152344 216.898438 C 264.851562 227.398438 287.699219 229.867188 306.175781 219.890625 C 327.96875 208.773438 342.574219 187.121094 352.695312 165.046875 C 364.554688 138.023438 373.734375 107.949219 369.210938 78.015625 C 366.535156 59.003906 355.921875 40.859375 339.234375 31.640625 C 329.34375 25.980469 318.164062 22.359375 306.800781 22.164062 Z M 306.804688 22.164062 " fill-opacity="1" fill-rule="nonzero"/><g clip-path="url(#id2)"><path stroke-linecap="butt" transform="matrix(1.476521, 0, 0, 1.478078, 3.894623, 2.319481)" fill="none" stroke-linejoin="miter" d="M 205.151225 13.425939 C 189.41004 13.085019 175.536633 23.505543 166.472885 35.992728 C 156.337679 50.07616 148.064959 68.726333 144.181252 85.708906 C 150.477725 81.369444 166.554898 78.398947 173.242918 79.273711 C 177.748336 66.657028 183.322567 51.730547 193.931331 43.284188 C 200.196058 37.961607 209.773048 37.723756 216.15418 42.935339 C 223.873975 49.116827 224.302558 60.388329 223.082947 69.548241 C 220.966485 83.158613 216.103914 96.309139 209.360338 108.199055 C 204.458083 116.317707 197.404974 125.02306 187.473477 125.860825 C 179.206049 126.458095 171.21376 120.318893 169.409476 112.00203 C 167.666041 109.575949 169.340691 104.308867 166.983482 104.200512 C 163.541586 103.159253 154.372015 107.707496 146.350625 114.319758 C 147.554363 128.178552 152.718529 138.403509 164.750615 145.174339 C 176.737725 152.27816 192.211706 153.948404 204.725287 147.198716 C 219.484962 139.677334 229.376775 125.028345 236.231466 110.093936 C 244.263438 91.81111 250.480545 71.464265 247.416966 51.21256 C 245.604746 38.350098 238.416713 26.074335 227.114807 19.837349 C 220.416205 16.007946 212.844563 13.558079 205.148579 13.425939 Z M 205.151225 13.425939 " stroke="rgb(0%, 0%, 0%)" stroke-width="1.25" stroke-opacity="1" stroke-miterlimit="4"/></g></svg>