<svg xmlns="http://www.w3.org/2000/svg" xmlns:xlink="http://www.w3.org/1999/xlink" width="500" zoomAndPan="magnify" viewBox="0 0 375 374.999991" height="500" preserveAspectRatio="xMidYMid meet" version="1.0"><defs><clipPath id="id1"><path d="M 3.75 0 L 371.25 0 L 371.25 375 L 3.75 375 Z M 3.75 0 " clip-rule="nonzero"/></clipPath></defs><g clip-path="url(#id1)"><path fill="rgb(93.328857%, 93.328857%, 93.328857%)" d="M 325.253906 99.488281 C 350.578125 99.488281 371.171875 78.894531 371.171875 53.570312 C 371.171875 28.246094 350.578125 7.652344 325.253906 7.652344 C 299.929688 7.652344 279.335938 28.246094 279.335938 53.570312 C 279.335938 60.566406 280.953125 67.179688 283.769531 73.117188 L 181.996094 143.90625 C 173.65625 135.398438 162.0625 130.101562 149.234375 130.101562 C 144.949219 130.101562 140.824219 130.738281 136.882812 131.839844 L 114.207031 83.578125 C 126.105469 75.277344 133.929688 61.5 133.929688 45.917969 C 133.929688 20.59375 113.335938 0 88.011719 0 C 62.6875 0 42.09375 20.59375 42.09375 45.917969 C 42.09375 71.242188 62.6875 91.835938 88.011719 91.835938 C 92.296875 91.835938 96.421875 91.203125 100.363281 90.097656 L 123.039062 138.359375 C 111.128906 146.664062 103.316406 160.4375 103.316406 176.019531 C 103.316406 186.527344 106.898438 196.1875 112.859375 203.929688 L 74.921875 244.804688 C 67.683594 240.039062 59.042969 237.246094 49.746094 237.246094 C 24.421875 237.246094 3.828125 257.839844 3.828125 283.164062 C 3.828125 308.488281 24.421875 329.082031 49.746094 329.082031 C 75.070312 329.082031 95.664062 308.488281 95.664062 283.164062 C 95.664062 272.65625 92.082031 262.996094 86.121094 255.253906 L 124.054688 214.378906 C 131.289062 219.144531 139.9375 221.9375 149.234375 221.9375 C 153.238281 221.9375 157.09375 221.371094 160.796875 220.40625 L 192.574219 290.945312 C 180.289062 299.195312 172.195312 313.210938 172.195312 329.082031 C 172.195312 354.40625 192.789062 375 218.113281 375 C 243.4375 375 264.03125 354.40625 264.03125 329.082031 C 264.03125 303.757812 243.4375 283.164062 218.113281 283.164062 C 214.109375 283.164062 210.253906 283.730469 206.546875 284.695312 L 174.773438 214.15625 C 179.441406 211.019531 183.472656 207.039062 186.71875 202.453125 L 281.144531 247.570312 C 279.996094 251.585938 279.335938 255.820312 279.335938 260.203125 C 279.335938 285.527344 299.929688 306.121094 325.253906 306.121094 C 350.578125 306.121094 371.171875 285.527344 371.171875 260.203125 C 371.171875 234.878906 350.578125 214.285156 325.253906 214.285156 C 309.78125 214.285156 296.089844 222.007812 287.769531 233.769531 L 193.347656 188.65625 C 194.496094 184.636719 195.152344 180.40625 195.152344 176.019531 C 195.152344 169.027344 193.539062 162.414062 190.722656 156.472656 L 292.492188 85.683594 C 300.835938 94.195312 312.429688 99.488281 325.253906 99.488281 Z M 57.398438 45.917969 C 57.398438 29.035156 71.128906 15.304688 88.011719 15.304688 C 104.894531 15.304688 118.621094 29.035156 118.621094 45.917969 C 118.621094 62.800781 104.894531 76.53125 88.011719 76.53125 C 71.128906 76.53125 57.398438 62.800781 57.398438 45.917969 Z M 248.722656 329.082031 C 248.722656 345.964844 234.996094 359.695312 218.113281 359.695312 C 201.230469 359.695312 187.5 345.964844 187.5 329.082031 C 187.5 312.199219 201.230469 298.46875 218.113281 298.46875 C 234.996094 298.46875 248.722656 312.199219 248.722656 329.082031 Z M 325.253906 229.59375 C 342.136719 229.59375 355.867188 243.320312 355.867188 260.203125 C 355.867188 277.085938 342.136719 290.816406 325.253906 290.816406 C 308.371094 290.816406 294.644531 277.085938 294.644531 260.203125 C 294.644531 243.320312 308.371094 229.59375 325.253906 229.59375 Z M 49.746094 313.777344 C 32.863281 313.777344 19.132812 300.046875 19.132812 283.164062 C 19.132812 266.28125 32.863281 252.550781 49.746094 252.550781 C 66.628906 252.550781 80.355469 266.28125 80.355469 283.164062 C 80.355469 300.046875 66.628906 313.777344 49.746094 313.777344 Z M 149.234375 206.632812 C 132.351562 206.632812 118.621094 192.902344 118.621094 176.019531 C 118.621094 159.136719 132.351562 145.40625 149.234375 145.40625 C 166.117188 145.40625 179.847656 159.136719 179.847656 176.019531 C 179.847656 192.902344 166.117188 206.632812 149.234375 206.632812 Z M 325.253906 22.960938 C 342.136719 22.960938 355.867188 36.6875 355.867188 53.570312 C 355.867188 70.453125 342.136719 84.183594 325.253906 84.183594 C 308.371094 84.183594 294.644531 70.453125 294.644531 53.570312 C 294.644531 36.6875 308.371094 22.960938 325.253906 22.960938 Z M 325.253906 22.960938 " fill-opacity="1" fill-rule="nonzero"/></g></svg>