<svg xmlns="http://www.w3.org/2000/svg" xmlns:xlink="http://www.w3.org/1999/xlink" width="794" zoomAndPan="magnify" viewBox="0 0 595.5 842.249979" height="1123" preserveAspectRatio="xMidYMid meet" version="1.0"><defs><g><g id="id1"/><g id="id2"/></g></defs><path fill="rgb(21.958923%, 71.369934%, 100%)" d="M 134.371094 196.167969 L 59.996094 196.167969 C 57.726562 196.167969 55.855469 194.296875 55.855469 192.027344 L 55.855469 117.652344 C 55.855469 115.382812 57.726562 113.511719 59.996094 113.511719 L 134.316406 113.511719 C 136.585938 113.511719 138.457031 115.382812 138.457031 117.652344 L 138.457031 191.972656 C 138.511719 194.296875 136.640625 196.167969 134.371094 196.167969 " fill-opacity="1" fill-rule="nonzero"/><path fill="rgb(0%, 29.019165%, 67.83905%)" d="M 134.371094 114.757812 C 135.960938 114.757812 137.265625 116.0625 137.265625 117.652344 L 137.265625 192.027344 C 137.265625 193.617188 135.960938 194.921875 134.371094 194.921875 L 59.996094 194.921875 C 58.40625 194.921875 57.101562 193.617188 57.101562 192.027344 L 57.101562 117.652344 C 57.101562 116.0625 58.40625 114.757812 59.996094 114.757812 L 134.371094 114.757812 M 134.371094 112.09375 L 59.996094 112.09375 C 56.933594 112.09375 54.4375 114.589844 54.4375 117.652344 L 54.4375 192.027344 C 54.4375 195.089844 56.933594 197.585938 59.996094 197.585938 L 134.371094 197.585938 C 137.433594 197.585938 139.929688 195.089844 139.929688 192.027344 L 139.929688 117.652344 C 139.929688 114.589844 137.433594 112.09375 134.371094 112.09375 " fill-opacity="1" fill-rule="nonzero"/><path fill="rgb(21.958923%, 71.369934%, 100%)" d="M 233.828125 196.167969 L 159.449219 196.167969 C 157.179688 196.167969 155.308594 194.296875 155.308594 192.027344 L 155.308594 117.652344 C 155.308594 115.382812 157.179688 113.511719 159.449219 113.511719 L 233.769531 113.511719 C 236.039062 113.511719 237.910156 115.382812 237.910156 117.652344 L 237.910156 191.972656 C 237.96875 194.296875 236.097656 196.167969 233.828125 196.167969 " fill-opacity="1" fill-rule="nonzero"/><path fill="rgb(0%, 29.019165%, 67.83905%)" d="M 233.828125 114.757812 C 235.414062 114.757812 236.71875 116.0625 236.71875 117.652344 L 236.71875 192.027344 C 236.71875 193.617188 235.414062 194.921875 233.828125 194.921875 L 159.449219 194.921875 C 157.863281 194.921875 156.558594 193.617188 156.558594 192.027344 L 156.558594 117.652344 C 156.558594 116.0625 157.863281 114.757812 159.449219 114.757812 L 233.828125 114.757812 M 233.828125 112.09375 L 159.449219 112.09375 C 156.386719 112.09375 153.890625 114.589844 153.890625 117.652344 L 153.890625 192.027344 C 153.890625 195.089844 156.386719 197.585938 159.449219 197.585938 L 233.828125 197.585938 C 236.890625 197.585938 239.386719 195.089844 239.386719 192.027344 L 239.386719 117.652344 C 239.386719 114.589844 236.890625 112.09375 233.828125 112.09375 " fill-opacity="1" fill-rule="nonzero"/><path fill="rgb(21.958923%, 71.369934%, 100%)" d="M 434.746094 196.167969 L 360.371094 196.167969 C 358.101562 196.167969 356.230469 194.296875 356.230469 192.027344 L 356.230469 117.652344 C 356.230469 115.382812 358.101562 113.511719 360.371094 113.511719 L 434.691406 113.511719 C 436.957031 113.511719 438.832031 115.382812 438.832031 117.652344 L 438.832031 191.972656 C 438.886719 194.296875 437.015625 196.167969 434.746094 196.167969 " fill-opacity="1" fill-rule="nonzero"/><path fill="rgb(0%, 29.019165%, 67.83905%)" d="M 434.746094 114.757812 C 436.335938 114.757812 437.640625 116.0625 437.640625 117.652344 L 437.640625 192.027344 C 437.640625 193.617188 436.335938 194.921875 434.746094 194.921875 L 360.371094 194.921875 C 358.78125 194.921875 357.476562 193.617188 357.476562 192.027344 L 357.476562 117.652344 C 357.476562 116.0625 358.78125 114.757812 360.371094 114.757812 L 434.746094 114.757812 M 434.746094 112.09375 L 360.371094 112.09375 C 357.308594 112.09375 354.808594 114.589844 354.808594 117.652344 L 354.808594 192.027344 C 354.808594 195.089844 357.308594 197.585938 360.371094 197.585938 L 434.746094 197.585938 C 437.808594 197.585938 440.304688 195.089844 440.304688 192.027344 L 440.304688 117.652344 C 440.304688 114.589844 437.808594 112.09375 434.746094 112.09375 " fill-opacity="1" fill-rule="nonzero"/><path fill="rgb(21.958923%, 71.369934%, 100%)" d="M 334.285156 196.167969 L 259.910156 196.167969 C 257.640625 196.167969 255.769531 194.296875 255.769531 192.027344 L 255.769531 117.652344 C 255.769531 115.382812 257.640625 113.511719 259.910156 113.511719 L 334.230469 113.511719 C 336.5 113.511719 338.371094 115.382812 338.371094 117.652344 L 338.371094 191.972656 C 338.429688 194.296875 336.554688 196.167969 334.285156 196.167969 " fill-opacity="1" fill-rule="nonzero"/><path fill="rgb(0%, 29.019165%, 67.83905%)" d="M 334.285156 114.757812 C 335.875 114.757812 337.179688 116.0625 337.179688 117.652344 L 337.179688 192.027344 C 337.179688 193.617188 335.875 194.921875 334.285156 194.921875 L 259.910156 194.921875 C 258.320312 194.921875 257.015625 193.617188 257.015625 192.027344 L 257.015625 117.652344 C 257.015625 116.0625 258.320312 114.757812 259.910156 114.757812 L 334.285156 114.757812 M 334.285156 112.09375 L 259.910156 112.09375 C 256.847656 112.09375 254.351562 114.589844 254.351562 117.652344 L 254.351562 192.027344 C 254.351562 195.089844 256.847656 197.585938 259.910156 197.585938 L 334.285156 197.585938 C 337.351562 197.585938 339.847656 195.089844 339.847656 192.027344 L 339.847656 117.652344 C 339.847656 114.589844 337.351562 112.09375 334.285156 112.09375 " fill-opacity="1" fill-rule="nonzero"/><path fill="rgb(21.958923%, 71.369934%, 100%)" d="M 535.207031 196.167969 L 460.828125 196.167969 C 458.5625 196.167969 456.6875 194.296875 456.6875 192.027344 L 456.6875 117.652344 C 456.6875 115.382812 458.5625 113.511719 460.828125 113.511719 L 535.148438 113.511719 C 537.417969 113.511719 539.289062 115.382812 539.289062 117.652344 L 539.289062 191.972656 C 539.347656 194.296875 537.476562 196.167969 535.207031 196.167969 " fill-opacity="1" fill-rule="nonzero"/><path fill="rgb(0%, 29.019165%, 67.83905%)" d="M 535.207031 114.757812 C 536.792969 114.757812 538.097656 116.0625 538.097656 117.652344 L 538.097656 192.027344 C 538.097656 193.617188 536.792969 194.921875 535.207031 194.921875 L 460.828125 194.921875 C 459.242188 194.921875 457.9375 193.617188 457.9375 192.027344 L 457.9375 117.652344 C 457.9375 116.0625 459.242188 114.757812 460.828125 114.757812 L 535.207031 114.757812 M 535.207031 112.09375 L 460.828125 112.09375 C 457.765625 112.09375 455.269531 114.589844 455.269531 117.652344 L 455.269531 192.027344 C 455.269531 195.089844 457.765625 197.585938 460.828125 197.585938 L 535.207031 197.585938 C 538.269531 197.585938 540.765625 195.089844 540.765625 192.027344 L 540.765625 117.652344 C 540.765625 114.589844 538.269531 112.09375 535.207031 112.09375 " fill-opacity="1" fill-rule="nonzero"/><g fill="rgb(100%, 100%, 100%)" fill-opacity="1"><g transform="translate(64.409652, 176.625589)"><g><path d="M 25.75 0 L 14.78125 0 L 14.78125 -21.15625 C 14.78125 -23.726562 14.835938 -26.078125 14.953125 -28.203125 C 14.273438 -27.390625 13.4375 -26.535156 12.4375 -25.640625 L 7.90625 -21.890625 L 2.296875 -28.78125 L 16.015625 -39.96875 L 25.75 -39.96875 Z M 25.75 0 "/></g></g></g><g fill="rgb(100%, 100%, 100%)" fill-opacity="1"><g transform="translate(97.215905, 176.625589)"><g><path d="M 5.71875 0 L 19.4375 -30.96875 L 2.125 -30.96875 L 2.125 -39.90625 L 30.96875 -39.90625 L 30.96875 -33.546875 L 16.890625 0 Z M 5.71875 0 "/></g></g></g><g fill="rgb(100%, 100%, 100%)" fill-opacity="1"><g transform="translate(163.864846, 176.625589)"><g><path d="M 30.671875 0 L 1.671875 0 L 1.671875 -7.109375 L 11.421875 -16.96875 C 14.210938 -19.882812 16.035156 -21.875 16.890625 -22.9375 C 17.742188 -24.007812 18.335938 -24.925781 18.671875 -25.6875 C 19.015625 -26.457031 19.1875 -27.257812 19.1875 -28.09375 C 19.1875 -29.132812 18.847656 -29.957031 18.171875 -30.5625 C 17.503906 -31.164062 16.554688 -31.46875 15.328125 -31.46875 C 14.078125 -31.46875 12.804688 -31.101562 11.515625 -30.375 C 10.234375 -29.65625 8.78125 -28.597656 7.15625 -27.203125 L 1.234375 -34.140625 C 3.285156 -35.984375 5.015625 -37.300781 6.421875 -38.09375 C 7.828125 -38.882812 9.351562 -39.488281 11 -39.90625 C 12.65625 -40.332031 14.507812 -40.546875 16.5625 -40.546875 C 19.15625 -40.546875 21.46875 -40.085938 23.5 -39.171875 C 25.53125 -38.265625 27.101562 -36.96875 28.21875 -35.28125 C 29.34375 -33.59375 29.90625 -31.703125 29.90625 -29.609375 C 29.90625 -28.035156 29.707031 -26.582031 29.3125 -25.25 C 28.925781 -23.925781 28.320312 -22.617188 27.5 -21.328125 C 26.675781 -20.046875 25.585938 -18.691406 24.234375 -17.265625 C 22.878906 -15.847656 19.984375 -13.15625 15.546875 -9.1875 L 15.546875 -8.90625 L 30.671875 -8.90625 Z M 30.671875 0 "/></g></g></g><g fill="rgb(100%, 100%, 100%)" fill-opacity="1"><g transform="translate(196.671099, 176.625589)"><g><path d="M 18.15625 -26.1875 C 20.445312 -26.1875 22.515625 -25.648438 24.359375 -24.578125 C 26.210938 -23.515625 27.65625 -22.007812 28.6875 -20.0625 C 29.71875 -18.113281 30.234375 -15.863281 30.234375 -13.3125 C 30.234375 -8.84375 28.890625 -5.414062 26.203125 -3.03125 C 23.515625 -0.644531 19.445312 0.546875 14 0.546875 C 9.332031 0.546875 5.519531 -0.171875 2.5625 -1.609375 L 2.5625 -10.46875 C 4.15625 -9.738281 5.945312 -9.132812 7.9375 -8.65625 C 9.9375 -8.1875 11.65625 -7.953125 13.09375 -7.953125 C 15.09375 -7.953125 16.628906 -8.375 17.703125 -9.21875 C 18.785156 -10.070312 19.328125 -11.328125 19.328125 -12.984375 C 19.328125 -14.515625 18.78125 -15.707031 17.6875 -16.5625 C 16.59375 -17.414062 14.9375 -17.84375 12.71875 -17.84375 C 11.019531 -17.84375 9.1875 -17.523438 7.21875 -16.890625 L 3.25 -18.859375 L 4.75 -39.96875 L 27.5625 -39.96875 L 27.5625 -30.96875 L 13.9375 -30.96875 L 13.453125 -25.703125 C 14.867188 -25.972656 15.878906 -26.117188 16.484375 -26.140625 C 17.085938 -26.171875 17.644531 -26.1875 18.15625 -26.1875 Z M 18.15625 -26.1875 "/></g></g></g><g fill="rgb(100%, 100%, 100%)" fill-opacity="1"><g transform="translate(364.784461, 176.625589)"><g><path d="M 25.75 0 L 14.78125 0 L 14.78125 -21.15625 C 14.78125 -23.726562 14.835938 -26.078125 14.953125 -28.203125 C 14.273438 -27.390625 13.4375 -26.535156 12.4375 -25.640625 L 7.90625 -21.890625 L 2.296875 -28.78125 L 16.015625 -39.96875 L 25.75 -39.96875 Z M 25.75 0 "/></g></g></g><g fill="rgb(100%, 100%, 100%)" fill-opacity="1"><g transform="translate(397.590714, 176.625589)"><g><path d="M 29.328125 -31.296875 C 29.328125 -28.816406 28.570312 -26.6875 27.0625 -24.90625 C 25.550781 -23.132812 23.363281 -21.847656 20.5 -21.046875 L 20.5 -20.890625 C 27.164062 -20.046875 30.5 -16.890625 30.5 -11.421875 C 30.5 -7.703125 29.023438 -4.773438 26.078125 -2.640625 C 23.140625 -0.515625 19.054688 0.546875 13.828125 0.546875 C 11.679688 0.546875 9.691406 0.390625 7.859375 0.078125 C 6.023438 -0.222656 4.039062 -0.785156 1.90625 -1.609375 L 1.90625 -10.578125 C 3.65625 -9.679688 5.4375 -9.019531 7.25 -8.59375 C 9.070312 -8.164062 10.75 -7.953125 12.28125 -7.953125 C 14.644531 -7.953125 16.367188 -8.285156 17.453125 -8.953125 C 18.535156 -9.617188 19.078125 -10.660156 19.078125 -12.078125 C 19.078125 -13.171875 18.796875 -14.015625 18.234375 -14.609375 C 17.671875 -15.203125 16.757812 -15.648438 15.5 -15.953125 C 14.238281 -16.253906 12.597656 -16.40625 10.578125 -16.40625 L 8.125 -16.40625 L 8.125 -24.515625 L 10.640625 -24.515625 C 16.117188 -24.515625 18.859375 -25.921875 18.859375 -28.734375 C 18.859375 -29.785156 18.453125 -30.566406 17.640625 -31.078125 C 16.828125 -31.585938 15.738281 -31.84375 14.375 -31.84375 C 11.820312 -31.84375 9.179688 -30.988281 6.453125 -29.28125 L 1.96875 -36.5 C 4.082031 -37.957031 6.242188 -38.992188 8.453125 -39.609375 C 10.671875 -40.234375 13.210938 -40.546875 16.078125 -40.546875 C 20.210938 -40.546875 23.453125 -39.722656 25.796875 -38.078125 C 28.148438 -36.441406 29.328125 -34.179688 29.328125 -31.296875 Z M 29.328125 -31.296875 "/></g></g></g><g fill="rgb(100%, 100%, 100%)" fill-opacity="1"><g transform="translate(264.324648, 176.625589)"><g><path d="M 29.328125 -31.296875 C 29.328125 -28.816406 28.570312 -26.6875 27.0625 -24.90625 C 25.550781 -23.132812 23.363281 -21.847656 20.5 -21.046875 L 20.5 -20.890625 C 27.164062 -20.046875 30.5 -16.890625 30.5 -11.421875 C 30.5 -7.703125 29.023438 -4.773438 26.078125 -2.640625 C 23.140625 -0.515625 19.054688 0.546875 13.828125 0.546875 C 11.679688 0.546875 9.691406 0.390625 7.859375 0.078125 C 6.023438 -0.222656 4.039062 -0.785156 1.90625 -1.609375 L 1.90625 -10.578125 C 3.65625 -9.679688 5.4375 -9.019531 7.25 -8.59375 C 9.070312 -8.164062 10.75 -7.953125 12.28125 -7.953125 C 14.644531 -7.953125 16.367188 -8.285156 17.453125 -8.953125 C 18.535156 -9.617188 19.078125 -10.660156 19.078125 -12.078125 C 19.078125 -13.171875 18.796875 -14.015625 18.234375 -14.609375 C 17.671875 -15.203125 16.757812 -15.648438 15.5 -15.953125 C 14.238281 -16.253906 12.597656 -16.40625 10.578125 -16.40625 L 8.125 -16.40625 L 8.125 -24.515625 L 10.640625 -24.515625 C 16.117188 -24.515625 18.859375 -25.921875 18.859375 -28.734375 C 18.859375 -29.785156 18.453125 -30.566406 17.640625 -31.078125 C 16.828125 -31.585938 15.738281 -31.84375 14.375 -31.84375 C 11.820312 -31.84375 9.179688 -30.988281 6.453125 -29.28125 L 1.96875 -36.5 C 4.082031 -37.957031 6.242188 -38.992188 8.453125 -39.609375 C 10.671875 -40.234375 13.210938 -40.546875 16.078125 -40.546875 C 20.210938 -40.546875 23.453125 -39.722656 25.796875 -38.078125 C 28.148438 -36.441406 29.328125 -34.179688 29.328125 -31.296875 Z M 29.328125 -31.296875 "/></g></g></g><g fill="rgb(100%, 100%, 100%)" fill-opacity="1"><g transform="translate(297.130901, 176.625589)"><g><path d="M 25.75 0 L 14.78125 0 L 14.78125 -21.15625 C 14.78125 -23.726562 14.835938 -26.078125 14.953125 -28.203125 C 14.273438 -27.390625 13.4375 -26.535156 12.4375 -25.640625 L 7.90625 -21.890625 L 2.296875 -28.78125 L 16.015625 -39.96875 L 25.75 -39.96875 Z M 25.75 0 "/></g></g></g><g fill="rgb(100%, 100%, 100%)" fill-opacity="1"><g transform="translate(481.64969, 176.625589)"><g><path d="M 30.671875 0 L 1.671875 0 L 1.671875 -7.109375 L 11.421875 -16.96875 C 14.210938 -19.882812 16.035156 -21.875 16.890625 -22.9375 C 17.742188 -24.007812 18.335938 -24.925781 18.671875 -25.6875 C 19.015625 -26.457031 19.1875 -27.257812 19.1875 -28.09375 C 19.1875 -29.132812 18.847656 -29.957031 18.171875 -30.5625 C 17.503906 -31.164062 16.554688 -31.46875 15.328125 -31.46875 C 14.078125 -31.46875 12.804688 -31.101562 11.515625 -30.375 C 10.234375 -29.65625 8.78125 -28.597656 7.15625 -27.203125 L 1.234375 -34.140625 C 3.285156 -35.984375 5.015625 -37.300781 6.421875 -38.09375 C 7.828125 -38.882812 9.351562 -39.488281 11 -39.90625 C 12.65625 -40.332031 14.507812 -40.546875 16.5625 -40.546875 C 19.15625 -40.546875 21.46875 -40.085938 23.5 -39.171875 C 25.53125 -38.265625 27.101562 -36.96875 28.21875 -35.28125 C 29.34375 -33.59375 29.90625 -31.703125 29.90625 -29.609375 C 29.90625 -28.035156 29.707031 -26.582031 29.3125 -25.25 C 28.925781 -23.925781 28.320312 -22.617188 27.5 -21.328125 C 26.675781 -20.046875 25.585938 -18.691406 24.234375 -17.265625 C 22.878906 -15.847656 19.984375 -13.15625 15.546875 -9.1875 L 15.546875 -8.90625 L 30.671875 -8.90625 Z M 30.671875 0 "/></g></g></g><g fill="rgb(54.899597%, 32.159424%, 100%)" fill-opacity="1"><g transform="translate(88.072502, 234.467639)"><g><path d="M 16.703125 -11.453125 C 16.703125 -7.503906 16.078125 -4.554688 14.828125 -2.609375 C 13.585938 -0.660156 11.6875 0.3125 9.125 0.3125 C 6.664062 0.3125 4.796875 -0.679688 3.515625 -2.671875 C 2.234375 -4.671875 1.59375 -7.597656 1.59375 -11.453125 C 1.59375 -15.429688 2.210938 -18.382812 3.453125 -20.3125 C 4.691406 -22.238281 6.582031 -23.203125 9.125 -23.203125 C 11.601562 -23.203125 13.484375 -22.195312 14.765625 -20.1875 C 16.054688 -18.175781 16.703125 -15.265625 16.703125 -11.453125 Z M 4.21875 -11.453125 C 4.21875 -8.128906 4.609375 -5.707031 5.390625 -4.1875 C 6.171875 -2.675781 7.414062 -1.921875 9.125 -1.921875 C 10.851562 -1.921875 12.101562 -2.6875 12.875 -4.21875 C 13.65625 -5.757812 14.046875 -8.171875 14.046875 -11.453125 C 14.046875 -14.734375 13.65625 -17.132812 12.875 -18.65625 C 12.101562 -20.1875 10.851562 -20.953125 9.125 -20.953125 C 7.414062 -20.953125 6.171875 -20.195312 5.390625 -18.6875 C 4.609375 -17.1875 4.21875 -14.773438 4.21875 -11.453125 Z M 4.21875 -11.453125 "/></g></g></g><g fill="rgb(54.899597%, 32.159424%, 100%)" fill-opacity="1"><g transform="translate(292.533774, 234.467639)"><g><path d="M 16.578125 0 L 1.5625 0 L 1.5625 -2.234375 L 7.578125 -8.28125 C 9.410156 -10.132812 10.617188 -11.457031 11.203125 -12.25 C 11.785156 -13.039062 12.222656 -13.8125 12.515625 -14.5625 C 12.804688 -15.3125 12.953125 -16.117188 12.953125 -16.984375 C 12.953125 -18.203125 12.582031 -19.164062 11.84375 -19.875 C 11.101562 -20.59375 10.078125 -20.953125 8.765625 -20.953125 C 7.816406 -20.953125 6.914062 -20.796875 6.0625 -20.484375 C 5.21875 -20.171875 4.273438 -19.601562 3.234375 -18.78125 L 1.859375 -20.546875 C 3.960938 -22.296875 6.253906 -23.171875 8.734375 -23.171875 C 10.878906 -23.171875 12.5625 -22.617188 13.78125 -21.515625 C 15 -20.421875 15.609375 -18.945312 15.609375 -17.09375 C 15.609375 -15.644531 15.203125 -14.210938 14.390625 -12.796875 C 13.578125 -11.378906 12.054688 -9.585938 9.828125 -7.421875 L 4.828125 -2.53125 L 4.828125 -2.40625 L 16.578125 -2.40625 Z M 16.578125 0 "/></g></g></g><g fill="rgb(54.899597%, 32.159424%, 100%)" fill-opacity="1"><g transform="translate(187.527706, 234.467639)"><g><path d="M 11.171875 0 L 8.640625 0 L 8.640625 -16.28125 C 8.640625 -17.632812 8.679688 -18.914062 8.765625 -20.125 C 8.546875 -19.90625 8.300781 -19.675781 8.03125 -19.4375 C 7.757812 -19.195312 6.519531 -18.179688 4.3125 -16.390625 L 2.9375 -18.171875 L 8.984375 -22.84375 L 11.171875 -22.84375 Z M 11.171875 0 "/></g></g></g><g fill="rgb(54.899597%, 32.159424%, 100%)" fill-opacity="1"><g transform="translate(391.988983, 234.467639)"><g><path d="M 15.71875 -17.46875 C 15.71875 -16.007812 15.304688 -14.816406 14.484375 -13.890625 C 13.671875 -12.960938 12.515625 -12.34375 11.015625 -12.03125 L 11.015625 -11.90625 C 12.847656 -11.675781 14.207031 -11.09375 15.09375 -10.15625 C 15.976562 -9.21875 16.421875 -7.988281 16.421875 -6.46875 C 16.421875 -4.289062 15.664062 -2.613281 14.15625 -1.4375 C 12.644531 -0.269531 10.5 0.3125 7.71875 0.3125 C 6.507812 0.3125 5.398438 0.21875 4.390625 0.03125 C 3.390625 -0.144531 2.414062 -0.460938 1.46875 -0.921875 L 1.46875 -3.390625 C 2.457031 -2.898438 3.507812 -2.523438 4.625 -2.265625 C 5.75 -2.015625 6.8125 -1.890625 7.8125 -1.890625 C 11.757812 -1.890625 13.734375 -3.4375 13.734375 -6.53125 C 13.734375 -9.300781 11.554688 -10.6875 7.203125 -10.6875 L 4.953125 -10.6875 L 4.953125 -12.921875 L 7.234375 -12.921875 C 9.015625 -12.921875 10.425781 -13.3125 11.46875 -14.09375 C 12.507812 -14.882812 13.03125 -15.976562 13.03125 -17.375 C 13.03125 -18.488281 12.644531 -19.363281 11.875 -20 C 11.113281 -20.632812 10.078125 -20.953125 8.765625 -20.953125 C 7.765625 -20.953125 6.820312 -20.816406 5.9375 -20.546875 C 5.050781 -20.273438 4.039062 -19.773438 2.90625 -19.046875 L 1.59375 -20.796875 C 2.53125 -21.535156 3.609375 -22.113281 4.828125 -22.53125 C 6.054688 -22.957031 7.347656 -23.171875 8.703125 -23.171875 C 10.921875 -23.171875 12.644531 -22.660156 13.875 -21.640625 C 15.101562 -20.628906 15.71875 -19.238281 15.71875 -17.46875 Z M 15.71875 -17.46875 "/></g></g></g><g fill="rgb(54.899597%, 32.159424%, 100%)" fill-opacity="1"><g transform="translate(488.907115, 234.467639)"><g><path d="M 17.65625 -5.25 L 14.265625 -5.25 L 14.265625 0 L 11.78125 0 L 11.78125 -5.25 L 0.671875 -5.25 L 0.671875 -7.515625 L 11.515625 -22.96875 L 14.265625 -22.96875 L 14.265625 -7.609375 L 17.65625 -7.609375 Z M 11.78125 -7.609375 L 11.78125 -15.203125 C 11.78125 -16.691406 11.832031 -18.375 11.9375 -20.25 L 11.8125 -20.25 C 11.3125 -19.25 10.84375 -18.421875 10.40625 -17.765625 L 3.265625 -7.609375 Z M 11.78125 -7.609375 "/></g></g></g></svg>