<?xml version="1.0" encoding="utf-8"?>
<!-- Generator: Adobe Illustrator 25.2.3, SVG Export Plug-In . SVG Version: 6.00 Build 0)  -->
<svg version="1.1" id="Layer_1" xmlns="http://www.w3.org/2000/svg" xmlns:xlink="http://www.w3.org/1999/xlink" x="0px" y="0px"
	 viewBox="0 0 648.4 163.6" style="enable-background:new 0 0 648.4 163.6;" xml:space="preserve">
<style type="text/css">
	.st0{fill:#38B6FF;}
	.st1{fill:#004AAD;}
	.st2{fill:#FFFFFF;}
	.st3{fill:#8C52FF;}
</style>
<path class="st0" d="M106.6,112.1H7.4c-3,0-5.5-2.5-5.5-5.5V7.4c0-3,2.5-5.5,5.5-5.5h99.1c3,0,5.5,2.5,5.5,5.5v99.1
	C112.1,109.6,109.6,112.1,106.6,112.1"/>
<path class="st1" d="M106.6,3.6c2.1,0,3.9,1.7,3.9,3.9v99.2c0,2.1-1.7,3.9-3.9,3.9H7.4c-2.1,0-3.9-1.7-3.9-3.9V7.4
	c0-2.1,1.7-3.9,3.9-3.9H106.6 M106.6,0H7.4C3.3,0,0,3.3,0,7.4v99.2c0,4.1,3.3,7.4,7.4,7.4h99.2c4.1,0,7.4-3.3,7.4-7.4V7.4
	C114,3.3,110.7,0,106.6,0"/>
<path class="st0" d="M239.2,112.1H140c-3,0-5.5-2.5-5.5-5.5V7.4c0-3,2.5-5.5,5.5-5.5h99.1c3,0,5.5,2.5,5.5,5.5v99.1
	C244.7,109.6,242.2,112.1,239.2,112.1"/>
<path class="st1" d="M239.2,3.6c2.1,0,3.9,1.7,3.9,3.9v99.2c0,2.1-1.7,3.9-3.9,3.9H140c-2.1,0-3.9-1.7-3.9-3.9V7.4
	c0-2.1,1.7-3.9,3.9-3.9H239.2 M239.2,0H140c-4.1,0-7.4,3.3-7.4,7.4v99.2c0,4.1,3.3,7.4,7.4,7.4h99.2c4.1,0,7.4-3.3,7.4-7.4V7.4
	C246.6,3.3,243.3,0,239.2,0"/>
<path class="st0" d="M507.1,112.1h-99.2c-3,0-5.5-2.5-5.5-5.5V7.4c0-3,2.5-5.5,5.5-5.5H507c3,0,5.5,2.5,5.5,5.5v99.1
	C512.6,109.6,510.1,112.1,507.1,112.1"/>
<path class="st1" d="M507.1,3.6c2.1,0,3.9,1.7,3.9,3.9v99.2c0,2.1-1.7,3.9-3.9,3.9h-99.2c-2.1,0-3.9-1.7-3.9-3.9V7.4
	c0-2.1,1.7-3.9,3.9-3.9H507.1 M507.1,0h-99.2c-4.1,0-7.4,3.3-7.4,7.4v99.2c0,4.1,3.3,7.4,7.4,7.4h99.2c4.1,0,7.4-3.3,7.4-7.4V7.4
	C514.5,3.3,511.2,0,507.1,0"/>
<path class="st0" d="M373.1,112.1H274c-3,0-5.5-2.5-5.5-5.5V7.4c0-3,2.5-5.5,5.5-5.5h99.1c3,0,5.5,2.5,5.5,5.5v99.1
	C378.7,109.6,376.2,112.1,373.1,112.1"/>
<path class="st1" d="M373.1,3.6c2.1,0,3.9,1.7,3.9,3.9v99.2c0,2.1-1.7,3.9-3.9,3.9H274c-2.1,0-3.9-1.7-3.9-3.9V7.4
	c0-2.1,1.7-3.9,3.9-3.9H373.1 M373.1,0H274c-4.1,0-7.4,3.3-7.4,7.4v99.2c0,4.1,3.3,7.4,7.4,7.4h99.2c4.1,0,7.4-3.3,7.4-7.4V7.4
	C380.5,3.3,377.2,0,373.1,0"/>
<path class="st0" d="M641,112.1h-99.2c-3,0-5.5-2.5-5.5-5.5V7.4c0-3,2.5-5.5,5.5-5.5h99.1c3,0,5.5,2.5,5.5,5.5v99.1
	C646.5,109.6,644.1,112.1,641,112.1"/>
<path class="st1" d="M641,3.6c2.1,0,3.9,1.7,3.9,3.9v99.2c0,2.1-1.7,3.9-3.9,3.9h-99.2c-2.1,0-3.9-1.7-3.9-3.9V7.4
	c0-2.1,1.7-3.9,3.9-3.9H641 M641,0h-99.2c-4.1,0-7.4,3.3-7.4,7.4v99.2c0,4.1,3.3,7.4,7.4,7.4H641c4.1,0,7.4-3.3,7.4-7.4V7.4
	C648.4,3.3,645.1,0,641,0"/>
<g>
	<g transform="translate(80.815062, 176.625589)">
		<g>
			<path class="st2" d="M-4.7-90.6h-38.7v-9.5l13-13.1c3.7-3.9,6.2-6.5,7.3-8c1.1-1.4,1.9-2.7,2.4-3.7c0.5-1,0.7-2.1,0.7-3.2
				c0-1.4-0.5-2.5-1.4-3.3c-0.9-0.8-2.2-1.2-3.8-1.2c-1.7,0-3.4,0.5-5.1,1.5c-1.7,1-3.6,2.4-5.8,4.2l-7.9-9.3c2.7-2.5,5-4.2,6.9-5.3
				c1.9-1.1,3.9-1.9,6.1-2.4c2.2-0.6,4.7-0.9,7.4-0.9c3.5,0,6.5,0.6,9.3,1.8c2.7,1.2,4.8,2.9,6.3,5.2c1.5,2.2,2.3,4.8,2.3,7.6
				c0,2.1-0.3,4-0.8,5.8c-0.5,1.8-1.3,3.5-2.4,5.2c-1.1,1.7-2.6,3.5-4.4,5.4c-1.8,1.9-5.7,5.5-11.6,10.8v0.4h20.2V-90.6z"/>
		</g>
	</g>
</g>
<g>
	<g transform="translate(163.864846, 176.625589)">
		<g>
			<path class="st2" d="M16.4-90.6H1.7v-28.2c0-3.4,0.1-6.6,0.2-9.4c-0.9,1.1-2,2.2-3.4,3.4l-6,5l-7.5-9.2l18.3-14.9h13V-90.6z"/>
		</g>
	</g>
</g>
<g>
	<g transform="translate(196.671099, 176.625589)">
		<g>
			<path class="st2" d="M32.1-132.3c0,3.3-1,6.1-3,8.5c-2,2.4-4.9,4.1-8.8,5.1v0.2c8.9,1.1,13.3,5.3,13.3,12.6c0,5-2,8.9-5.9,11.7
				c-3.9,2.8-9.4,4.2-16.3,4.2c-2.9,0-5.5-0.2-8-0.6c-2.4-0.4-5.1-1.2-7.9-2.2v-12c2.3,1.2,4.7,2.1,7.1,2.6c2.4,0.6,4.7,0.9,6.7,0.9
				c3.2,0,5.4-0.4,6.9-1.3c1.4-0.9,2.2-2.3,2.2-4.2c0-1.5-0.4-2.6-1.1-3.4c-0.8-0.8-2-1.4-3.6-1.8c-1.7-0.4-3.9-0.6-6.6-0.6H3.8
				v-10.8h3.4c7.3,0,11-1.9,11-5.6c0-1.4-0.5-2.4-1.6-3.1c-1.1-0.7-2.5-1-4.4-1c-3.4,0-6.9,1.1-10.6,3.4l-6-9.6
				c2.8-1.9,5.7-3.3,8.6-4.1c3-0.8,6.3-1.2,10.2-1.2c5.5,0,9.8,1.1,13,3.3C30.5-139.2,32.1-136.2,32.1-132.3z"/>
		</g>
	</g>
</g>
<g>
	<g transform="translate(364.784461, 176.625589)">
		<g>
			<path class="st2" d="M89.9-90.6H51.2v-9.5l13-13.1c3.7-3.9,6.2-6.5,7.3-8c1.1-1.4,1.9-2.7,2.4-3.7c0.5-1,0.7-2.1,0.7-3.2
				c0-1.4-0.5-2.5-1.4-3.3c-0.9-0.8-2.2-1.2-3.8-1.2c-1.7,0-3.4,0.5-5.1,1.5c-1.7,1-3.6,2.4-5.8,4.2l-7.9-9.3c2.7-2.5,5-4.2,6.9-5.3
				c1.9-1.1,3.9-1.9,6.1-2.4c2.2-0.6,4.7-0.9,7.4-0.9c3.5,0,6.5,0.6,9.2,1.8c2.7,1.2,4.8,2.9,6.3,5.2c1.5,2.2,2.2,4.8,2.2,7.6
				c0,2.1-0.3,4-0.8,5.8c-0.5,1.8-1.3,3.5-2.4,5.2c-1.1,1.7-2.6,3.5-4.4,5.4c-1.8,1.9-5.7,5.5-11.6,10.8v0.4h20.2V-90.6z"/>
		</g>
	</g>
</g>
<g>
	<g transform="translate(397.590714, 176.625589)">
		<g>
			<path class="st2" d="M84.2-125.5c3.1,0,5.8,0.7,8.3,2.1c2.5,1.4,4.4,3.4,5.8,6c1.4,2.6,2.1,5.6,2.1,9c0,6-1.8,10.5-5.4,13.7
				c-3.6,3.2-9,4.8-16.3,4.8c-6.2,0-11.3-1-15.2-2.9v-11.8c2.1,1,4.5,1.8,7.2,2.4c2.7,0.6,5,0.9,6.9,0.9c2.7,0,4.7-0.6,6.1-1.7
				c1.4-1.1,2.2-2.8,2.2-5c0-2-0.7-3.6-2.2-4.8c-1.5-1.1-3.7-1.7-6.6-1.7c-2.3,0-4.7,0.4-7.3,1.3l-5.3-2.6l2-28.1h30.4v12H78.5
				l-0.6,7c1.9-0.4,3.2-0.6,4-0.6C82.7-125.5,83.5-125.5,84.2-125.5z"/>
		</g>
	</g>
</g>
<g>
	<g transform="translate(264.324648, 176.625589)">
		<g>
			<path class="st2" d="M49.9-90.6H35.2v-28.2c0-3.4,0.1-6.6,0.2-9.4c-0.9,1.1-2,2.2-3.4,3.4l-6,5l-7.5-9.2l18.3-14.9h13V-90.6z"/>
		</g>
	</g>
</g>
<g>
	<g transform="translate(297.130901, 176.625589)">
		<g>
			<path class="st2" d="M34.1-90.6l18.3-41.3H29.3v-11.9h38.5v8.5L49-90.6H34.1z"/>
		</g>
	</g>
</g>
<g>
	<g transform="translate(465.244267, 176.625589)">
		<g>
			<path class="st2" d="M121.6-132.3c0,3.3-1,6.1-3,8.5c-2,2.4-4.9,4.1-8.8,5.1v0.2c8.9,1.1,13.3,5.3,13.3,12.6c0,5-2,8.9-5.9,11.7
				c-3.9,2.8-9.4,4.2-16.3,4.2c-2.9,0-5.5-0.2-8-0.6c-2.4-0.4-5.1-1.2-7.9-2.2v-12c2.3,1.2,4.7,2.1,7.1,2.6c2.4,0.6,4.7,0.9,6.7,0.9
				c3.2,0,5.4-0.4,6.9-1.3c1.4-0.9,2.2-2.3,2.2-4.2c0-1.5-0.4-2.6-1.1-3.4c-0.8-0.8-2-1.4-3.6-1.8c-1.7-0.4-3.9-0.6-6.6-0.6h-3.3
				v-10.8h3.4c7.3,0,11-1.9,11-5.6c0-1.4-0.5-2.4-1.6-3.1c-1.1-0.7-2.5-1-4.4-1c-3.4,0-6.9,1.1-10.6,3.4l-6-9.6
				c2.8-1.9,5.7-3.3,8.6-4.1c3-0.8,6.3-1.2,10.2-1.2c5.5,0,9.8,1.1,13,3.3C120-139.2,121.6-136.2,121.6-132.3z"/>
		</g>
	</g>
</g>
<g>
	<g transform="translate(498.05052, 176.625589)">
		<g>
			<path class="st2" d="M127.8-90.6h-14.6v-28.2c0-3.4,0.1-6.6,0.2-9.4c-0.9,1.1-2,2.2-3.4,3.4l-6,5l-7.5-9.2l18.3-14.9h13V-90.6z"
				/>
		</g>
	</g>
</g>
<g>
	<g transform="translate(88.072502, 234.467639)">
		<g>
			<path class="st3" d="M-21-86.6c0,5.3-0.8,9.2-2.5,11.8c-1.7,2.6-4.2,3.9-7.6,3.9c-3.3,0-5.8-1.3-7.5-4c-1.7-2.7-2.6-6.6-2.6-11.7
				c0-5.3,0.8-9.2,2.5-11.8c1.7-2.6,4.2-3.9,7.6-3.9c3.3,0,5.8,1.3,7.5,4C-21.8-95.5-21-91.7-21-86.6z M-37.6-86.6
				c0,4.4,0.5,7.7,1.6,9.7c1,2,2.7,3,5,3c2.3,0,4-1,5-3.1c1-2.1,1.6-5.3,1.6-9.6s-0.5-7.6-1.6-9.6c-1-2-2.7-3.1-5-3.1
				c-2.3,0-3.9,1-5,3C-37.1-94.2-37.6-91-37.6-86.6z"/>
		</g>
	</g>
</g>
<g>
	<g transform="translate(292.533774, 234.467639)">
		<g>
			<path class="st3" d="M47-71.3H27v-3l8-8.1c2.4-2.5,4.1-4.2,4.8-5.3c0.8-1.1,1.4-2.1,1.8-3.1c0.4-1,0.6-2.1,0.6-3.2
				c0-1.6-0.5-2.9-1.5-3.9c-1-1-2.4-1.4-4.1-1.4c-1.3,0-2.5,0.2-3.6,0.6c-1.1,0.4-2.4,1.2-3.8,2.3l-1.8-2.4c2.8-2.3,5.9-3.5,9.2-3.5
				c2.9,0,5.1,0.7,6.7,2.2c1.6,1.5,2.4,3.4,2.4,5.9c0,1.9-0.5,3.8-1.6,5.7C43-86.5,41-84.1,38-81.2l-6.7,6.5v0.2H47V-71.3z"/>
		</g>
	</g>
</g>
<g>
	<g transform="translate(187.527706, 234.467639)">
		<g>
			<path class="st3" d="M4.8-71.3H1.4V-93c0-1.8,0.1-3.5,0.2-5.1c-0.3,0.3-0.6,0.6-1,0.9c-0.4,0.3-2,1.7-5,4.1l-1.8-2.4l8.1-6.2h2.9
				V-71.3z"/>
		</g>
	</g>
</g>
<g>
	<g transform="translate(391.988983, 234.467639)">
		<g>
			<path class="st3" d="M79-94.6c0,1.9-0.6,3.5-1.6,4.8c-1.1,1.2-2.6,2.1-4.6,2.5v0.2c2.4,0.3,4.3,1.1,5.4,2.3
				c1.2,1.2,1.8,2.9,1.8,4.9c0,2.9-1,5.1-3,6.7c-2,1.6-4.9,2.3-8.6,2.3c-1.6,0-3.1-0.1-4.4-0.4c-1.3-0.2-2.6-0.7-3.9-1.3v-3.3
				c1.3,0.7,2.7,1.2,4.2,1.5c1.5,0.3,2.9,0.5,4.2,0.5c5.3,0,7.9-2.1,7.9-6.2c0-3.7-2.9-5.5-8.7-5.5h-3v-3h3c2.4,0,4.3-0.5,5.6-1.6
				c1.4-1.1,2.1-2.5,2.1-4.4c0-1.5-0.5-2.7-1.5-3.5c-1-0.8-2.4-1.3-4.1-1.3c-1.3,0-2.6,0.2-3.8,0.5c-1.2,0.4-2.5,1-4,2L60.2-99
				c1.2-1,2.7-1.8,4.3-2.3c1.6-0.6,3.4-0.9,5.2-0.9c3,0,5.3,0.7,6.9,2C78.2-98.8,79-97,79-94.6z"/>
		</g>
	</g>
</g>
<g>
	<g transform="translate(488.907115, 234.467639)">
		<g>
			<path class="st3" d="M113.9-78.3h-4.5v7h-3.3v-7H91.3v-3l14.5-20.6h3.7v20.5h4.5V-78.3z M106.1-81.4v-10.1c0-2,0.1-4.2,0.2-6.7
				h-0.2c-0.7,1.3-1.3,2.4-1.9,3.3l-9.5,13.5H106.1z"/>
		</g>
	</g>
</g>
</svg>
