<?xml version="1.0" encoding="utf-8"?>
<!-- Generator: Adobe Illustrator 25.2.3, SVG Export Plug-In . SVG Version: 6.00 Build 0)  -->
<svg version="1.1" id="Layer_1" xmlns="http://www.w3.org/2000/svg" xmlns:xlink="http://www.w3.org/1999/xlink" x="0px" y="0px"
	 viewBox="0 0 648.4 223.4" style="enable-background:new 0 0 648.4 223.4;" xml:space="preserve">
<style type="text/css">
	.st0{fill:#38B6FF;}
	.st1{fill:#004AAD;}
	.st2{clip-path:url(#SVGID_2_);}
	.st3{fill:#FFFFFF;}
	.st4{fill:#8C52FF;}
</style>
<path class="st0" d="M106.6,171.9H7.4c-3,0-5.5-2.5-5.5-5.5V67.2c0-3,2.5-5.5,5.5-5.5h99.1c3,0,5.5,2.5,5.5,5.5v99.1
	C112.1,169.4,109.6,171.9,106.6,171.9"/>
<path class="st1" d="M106.6,63.4c2.1,0,3.9,1.7,3.9,3.9v99.2c0,2.1-1.7,3.9-3.9,3.9H7.4c-2.1,0-3.9-1.7-3.9-3.9V67.2
	c0-2.1,1.7-3.9,3.9-3.9H106.6 M106.6,59.8H7.4c-4.1,0-7.4,3.3-7.4,7.4v99.2c0,4.1,3.3,7.4,7.4,7.4h99.2c4.1,0,7.4-3.3,7.4-7.4V67.2
	C114,63.2,110.7,59.8,106.6,59.8"/>
<path class="st0" d="M239.2,171.9H140c-3,0-5.5-2.5-5.5-5.5V67.2c0-3,2.5-5.5,5.5-5.5h99.1c3,0,5.5,2.5,5.5,5.5v99.1
	C244.7,169.4,242.2,171.9,239.2,171.9"/>
<path class="st1" d="M239.2,63.4c2.1,0,3.9,1.7,3.9,3.9v99.2c0,2.1-1.7,3.9-3.9,3.9H140c-2.1,0-3.9-1.7-3.9-3.9V67.2
	c0-2.1,1.7-3.9,3.9-3.9H239.2 M239.2,59.8H140c-4.1,0-7.4,3.3-7.4,7.4v99.2c0,4.1,3.3,7.4,7.4,7.4h99.2c4.1,0,7.4-3.3,7.4-7.4V67.2
	C246.6,63.2,243.3,59.8,239.2,59.8"/>
<path class="st0" d="M507.1,171.9h-99.2c-3,0-5.5-2.5-5.5-5.5V67.2c0-3,2.5-5.5,5.5-5.5H507c3,0,5.5,2.5,5.5,5.5v99.1
	C512.6,169.4,510.1,171.9,507.1,171.9"/>
<path class="st1" d="M507.1,63.4c2.1,0,3.9,1.7,3.9,3.9v99.2c0,2.1-1.7,3.9-3.9,3.9h-99.2c-2.1,0-3.9-1.7-3.9-3.9V67.2
	c0-2.1,1.7-3.9,3.9-3.9H507.1 M507.1,59.8h-99.2c-4.1,0-7.4,3.3-7.4,7.4v99.2c0,4.1,3.3,7.4,7.4,7.4h99.2c4.1,0,7.4-3.3,7.4-7.4
	V67.2C514.5,63.2,511.2,59.8,507.1,59.8"/>
<path class="st0" d="M373.1,171.9H274c-3,0-5.5-2.5-5.5-5.5V67.2c0-3,2.5-5.5,5.5-5.5h99.1c3,0,5.5,2.5,5.5,5.5v99.1
	C378.7,169.4,376.2,171.9,373.1,171.9"/>
<path class="st1" d="M373.1,63.4c2.1,0,3.9,1.7,3.9,3.9v99.2c0,2.1-1.7,3.9-3.9,3.9H274c-2.1,0-3.9-1.7-3.9-3.9V67.2
	c0-2.1,1.7-3.9,3.9-3.9H373.1 M373.1,59.8H274c-4.1,0-7.4,3.3-7.4,7.4v99.2c0,4.1,3.3,7.4,7.4,7.4h99.2c4.1,0,7.4-3.3,7.4-7.4V67.2
	C380.5,63.2,377.2,59.8,373.1,59.8"/>
<path class="st0" d="M641,171.9h-99.2c-3,0-5.5-2.5-5.5-5.5V67.2c0-3,2.5-5.5,5.5-5.5h99.1c3,0,5.5,2.5,5.5,5.5v99.1
	C646.5,169.4,644.1,171.9,641,171.9"/>
<path class="st1" d="M641,63.4c2.1,0,3.9,1.7,3.9,3.9v99.2c0,2.1-1.7,3.9-3.9,3.9h-99.2c-2.1,0-3.9-1.7-3.9-3.9V67.2
	c0-2.1,1.7-3.9,3.9-3.9H641 M641,59.8h-99.2c-4.1,0-7.4,3.3-7.4,7.4v99.2c0,4.1,3.3,7.4,7.4,7.4H641c4.1,0,7.4-3.3,7.4-7.4V67.2
	C648.4,63.2,645.1,59.8,641,59.8"/>
<g>
	<defs>
		<rect id="SVGID_1_" x="57" width="133" height="47"/>
	</defs>
	<clipPath id="SVGID_2_">
		<use xlink:href="#SVGID_1_"  style="overflow:visible;"/>
	</clipPath>
	<g class="st2">
		<path class="st0" d="M59.2,41.2c-2-1.4-1.6-3-1-4.5c1.5-4.2,3.7-8.1,7.1-11.2c10.7-10,23.4-16.4,37.5-20c14.5-3.7,28.8-2.9,42.6,3
			c6.5,2.8,12.9,5.9,19.5,9c-0.2-0.7-0.5-1.6-0.8-2.5c-2.5-5.9-2.3-7.2,2.2-11.9c1-1,2.2-1.9,3.6-3.1c0.8,1.2,1.3,2.1,1.8,2.9
			c5.6,9.5,10.9,19.1,16.8,28.4c1.4,2.3,1.3,4,0.4,5.9c-1.9,3.9-5.2,6.6-8.6,9c-1.2,0.8-3.4,0.6-5.1,0.3
			c-12.4-1.8-24.8-2.4-37.3-1.5c-3.9,0.3-7.7,1.2-11.9,1.9c-0.5-1.2,0.3-2.6,1-3.7c3.5-5.4,7.7-9.9,14.5-10.9
			c3.2-0.4,6.5-0.9,9.8-1.3c1.4-0.2,2.9-0.2,4.7-0.4c-6.6-7.1-35.8-14-50.6-12.1C87.4,20.9,72.1,28.7,59.2,41.2z"/>
	</g>
</g>
<g>
	<g transform="translate(64.409652, 176.625589)">
		<g>
			<path class="st3" d="M-10.2-30.8h-38.7v-9.5l13-13.1c3.7-3.9,6.2-6.5,7.3-8c1.1-1.4,1.9-2.7,2.4-3.7c0.5-1,0.7-2.1,0.7-3.2
				c0-1.4-0.5-2.5-1.4-3.3c-0.9-0.8-2.2-1.2-3.8-1.2c-1.7,0-3.4,0.5-5.1,1.5c-1.7,1-3.6,2.4-5.8,4.2l-7.9-9.2c2.7-2.5,5-4.2,6.9-5.3
				c1.9-1.1,3.9-1.9,6.1-2.4c2.2-0.6,4.7-0.9,7.4-0.9c3.5,0,6.5,0.6,9.2,1.8c2.7,1.2,4.8,2.9,6.3,5.2c1.5,2.2,2.2,4.8,2.2,7.6
				c0,2.1-0.3,4-0.8,5.8c-0.5,1.8-1.3,3.5-2.4,5.2c-1.1,1.7-2.6,3.5-4.4,5.4c-1.8,1.9-5.7,5.5-11.6,10.8v0.4h20.2V-30.8z"/>
		</g>
	</g>
</g>
<g>
	<g transform="translate(97.215905, 176.625589)">
		<g>
			<path class="st3" d="M-16-65.7c3.1,0,5.8,0.7,8.3,2.1c2.5,1.4,4.4,3.4,5.8,6c1.4,2.6,2.1,5.6,2.1,9c0,6-1.8,10.5-5.4,13.7
				c-3.6,3.2-9,4.8-16.3,4.8c-6.2,0-11.3-1-15.3-2.9v-11.8c2.1,1,4.5,1.8,7.2,2.4c2.7,0.6,5,0.9,6.9,0.9c2.7,0,4.7-0.6,6.1-1.7
				c1.4-1.1,2.2-2.8,2.2-5c0-2-0.7-3.6-2.2-4.8c-1.5-1.1-3.7-1.7-6.6-1.7c-2.3,0-4.7,0.4-7.3,1.3l-5.3-2.6l2-28.1h30.4v12h-18.2
				l-0.6,7c1.9-0.4,3.2-0.6,4-0.6C-17.4-65.7-16.7-65.7-16-65.7z"/>
		</g>
	</g>
</g>
<g>
	<g transform="translate(163.864846, 176.625589)">
		<g>
			<path class="st3" d="M16.4-30.8H1.7V-59c0-3.4,0.1-6.6,0.2-9.4c-0.9,1.1-2,2.2-3.4,3.4l-6,5l-7.5-9.2L3.4-84h13V-30.8z"/>
		</g>
	</g>
</g>
<g>
	<g transform="translate(196.671099, 176.625589)">
		<g>
			<path class="st3" d="M0.6-30.8L18.9-72H-4.2V-84h38.5v8.5L15.5-30.8H0.6z"/>
		</g>
	</g>
</g>
<g>
	<g transform="translate(364.784461, 176.625589)">
		<g>
			<path class="st3" d="M83.3-30.8H68.7V-59c0-3.4,0.1-6.6,0.2-9.4c-0.9,1.1-2,2.2-3.4,3.4l-6,5l-7.5-9.2L70.4-84h13V-30.8z"/>
		</g>
	</g>
</g>
<g>
	<g transform="translate(397.590714, 176.625589)">
		<g>
			<path class="st3" d="M99.1-72.5c0,3.3-1,6.1-3,8.5c-2,2.4-4.9,4.1-8.8,5.1v0.2c8.9,1.1,13.3,5.3,13.3,12.6c0,5-2,8.9-5.9,11.7
				c-3.9,2.8-9.4,4.3-16.3,4.3c-2.9,0-5.5-0.2-8-0.6c-2.4-0.4-5.1-1.2-7.9-2.3v-12c2.3,1.2,4.7,2.1,7.1,2.6c2.4,0.6,4.7,0.9,6.7,0.9
				c3.2,0,5.4-0.4,6.9-1.3c1.4-0.9,2.2-2.3,2.2-4.2c0-1.5-0.4-2.6-1.1-3.4s-2-1.4-3.6-1.8c-1.7-0.4-3.9-0.6-6.6-0.6h-3.3v-10.8h3.4
				c7.3,0,11-1.9,11-5.6c0-1.4-0.5-2.4-1.6-3.1c-1.1-0.7-2.5-1-4.4-1c-3.4,0-6.9,1.1-10.6,3.4l-6-9.6c2.8-1.9,5.7-3.3,8.6-4.1
				c3-0.8,6.3-1.2,10.2-1.2c5.5,0,9.8,1.1,13,3.3C97.5-79.3,99.1-76.3,99.1-72.5z"/>
		</g>
	</g>
</g>
<g>
	<g transform="translate(264.324648, 176.625589)">
		<g>
			<path class="st3" d="M54.6-72.5c0,3.3-1,6.1-3,8.5c-2,2.4-4.9,4.1-8.8,5.1v0.2c8.9,1.1,13.3,5.3,13.3,12.6c0,5-2,8.9-5.9,11.7
				C46.4-31.4,40.9-30,34-30c-2.9,0-5.5-0.2-8-0.6c-2.4-0.4-5.1-1.2-7.9-2.3v-12c2.3,1.2,4.7,2.1,7.1,2.6c2.4,0.6,4.7,0.9,6.7,0.9
				c3.2,0,5.4-0.4,6.9-1.3c1.4-0.9,2.2-2.3,2.2-4.2c0-1.5-0.4-2.6-1.1-3.4s-2-1.4-3.6-1.8c-1.7-0.4-3.9-0.6-6.6-0.6h-3.3v-10.8h3.4
				c7.3,0,11-1.9,11-5.6c0-1.4-0.5-2.4-1.6-3.1c-1.1-0.7-2.5-1-4.4-1c-3.4,0-6.9,1.1-10.6,3.4l-6-9.6c2.8-1.9,5.7-3.3,8.6-4.1
				c3-0.8,6.3-1.2,10.2-1.2c5.5,0,9.8,1.1,13,3.3C53.1-79.3,54.6-76.3,54.6-72.5z"/>
		</g>
	</g>
</g>
<g>
	<g transform="translate(297.130901, 176.625589)">
		<g>
			<path class="st3" d="M60.8-30.8H46.2V-59c0-3.4,0.1-6.6,0.2-9.4c-0.9,1.1-2,2.2-3.4,3.4l-6,5l-7.5-9.2L47.8-84h13V-30.8z"/>
		</g>
	</g>
</g>
<g>
	<g transform="translate(481.64969, 176.625589)">
		<g>
			<path class="st3" d="M128.9-30.8H90.2v-9.5l13-13.1c3.7-3.9,6.2-6.5,7.3-8c1.1-1.4,1.9-2.7,2.4-3.7c0.5-1,0.7-2.1,0.7-3.2
				c0-1.4-0.5-2.5-1.4-3.3c-0.9-0.8-2.2-1.2-3.8-1.2c-1.7,0-3.4,0.5-5.1,1.5c-1.7,1-3.6,2.4-5.8,4.2l-7.9-9.2c2.7-2.5,5-4.2,6.9-5.3
				c1.9-1.1,3.9-1.9,6.1-2.4c2.2-0.6,4.7-0.9,7.4-0.9c3.5,0,6.5,0.6,9.2,1.8c2.7,1.2,4.8,2.9,6.3,5.2c1.5,2.2,2.2,4.8,2.2,7.6
				c0,2.1-0.3,4-0.8,5.8c-0.5,1.8-1.3,3.5-2.4,5.2c-1.1,1.7-2.6,3.5-4.4,5.4c-1.8,1.9-5.7,5.5-11.6,10.8v0.4h20.2V-30.8z"/>
		</g>
	</g>
</g>
<g>
	<g transform="translate(88.072502, 234.467639)">
		<g>
			<path class="st4" d="M-21-26.7c0,5.3-0.8,9.2-2.5,11.8c-1.7,2.6-4.2,3.9-7.6,3.9c-3.3,0-5.8-1.3-7.5-4c-1.7-2.7-2.6-6.6-2.6-11.7
				c0-5.3,0.8-9.2,2.5-11.8c1.7-2.6,4.2-3.9,7.6-3.9c3.3,0,5.8,1.3,7.5,4C-21.8-35.7-21-31.8-21-26.7z M-37.6-26.7
				c0,4.4,0.5,7.7,1.6,9.7c1,2,2.7,3,5,3c2.3,0,4-1,5-3.1c1-2.1,1.6-5.3,1.6-9.6s-0.5-7.6-1.6-9.6c-1-2-2.7-3.1-5-3.1
				c-2.3,0-3.9,1-5,3C-37.1-34.4-37.6-31.2-37.6-26.7z"/>
		</g>
	</g>
</g>
<g>
	<g transform="translate(292.533774, 234.467639)">
		<g>
			<path class="st4" d="M47-11.5H27v-3l8-8.1c2.4-2.5,4.1-4.2,4.8-5.3c0.8-1.1,1.4-2.1,1.8-3.1c0.4-1,0.6-2.1,0.6-3.2
				c0-1.6-0.5-2.9-1.5-3.9c-1-1-2.4-1.4-4.1-1.4c-1.3,0-2.5,0.2-3.6,0.6c-1.1,0.4-2.4,1.2-3.8,2.3l-1.8-2.4c2.8-2.3,5.9-3.5,9.2-3.5
				c2.9,0,5.1,0.7,6.7,2.2c1.6,1.5,2.4,3.4,2.4,5.9c0,1.9-0.5,3.8-1.6,5.7C43-26.6,41-24.3,38-21.4l-6.7,6.5v0.2H47V-11.5z"/>
		</g>
	</g>
</g>
<g>
	<g transform="translate(187.527706, 234.467639)">
		<g>
			<path class="st4" d="M4.8-11.5H1.4v-21.7c0-1.8,0.1-3.5,0.2-5.1c-0.3,0.3-0.6,0.6-1,0.9c-0.4,0.3-2,1.7-5,4.1l-1.8-2.4l8.1-6.2
				h2.9V-11.5z"/>
		</g>
	</g>
</g>
<g>
	<g transform="translate(391.988983, 234.467639)">
		<g>
			<path class="st4" d="M79-34.8c0,1.9-0.6,3.5-1.6,4.8c-1.1,1.2-2.6,2.1-4.6,2.5v0.2c2.4,0.3,4.3,1.1,5.4,2.3
				c1.2,1.2,1.8,2.9,1.8,4.9c0,2.9-1,5.1-3,6.7c-2,1.6-4.9,2.3-8.6,2.3c-1.6,0-3.1-0.1-4.4-0.4c-1.3-0.2-2.6-0.7-3.9-1.3V-16
				c1.3,0.7,2.7,1.2,4.2,1.5c1.5,0.3,2.9,0.5,4.2,0.5c5.3,0,7.9-2.1,7.9-6.2c0-3.7-2.9-5.5-8.7-5.5h-3v-3h3c2.4,0,4.3-0.5,5.6-1.6
				c1.4-1.1,2.1-2.5,2.1-4.4c0-1.5-0.5-2.7-1.5-3.5c-1-0.8-2.4-1.3-4.1-1.3c-1.3,0-2.6,0.2-3.8,0.5c-1.2,0.4-2.5,1-4,2l-1.8-2.3
				c1.2-1,2.7-1.8,4.3-2.3c1.6-0.6,3.4-0.9,5.2-0.9c3,0,5.3,0.7,6.9,2C78.2-39,79-37.1,79-34.8z"/>
		</g>
	</g>
</g>
<g>
	<g transform="translate(488.907115, 234.467639)">
		<g>
			<path class="st4" d="M113.9-18.5h-4.5v7h-3.3v-7H91.3v-3l14.5-20.6h3.7v20.5h4.5V-18.5z M106.1-21.6v-10.1c0-2,0.1-4.2,0.2-6.7
				h-0.2c-0.7,1.3-1.3,2.4-1.9,3.3l-9.5,13.5H106.1z"/>
		</g>
	</g>
</g>
</svg>
