<svg xmlns="http://www.w3.org/2000/svg" xmlns:xlink="http://www.w3.org/1999/xlink" viewBox="0 0 230.21138 60.0982"><defs><linearGradient id="a" x1="-13.47729" y1="-17.5777" x2="18.044" y2="25.89997" gradientUnits="userSpaceOnUse"><stop offset="0.24093" stop-color="#fff"/><stop offset="0.49232" stop-color="#a1a1a1"/><stop offset="0.74166" stop-color="#4b4b4b"/><stop offset="0.91569" stop-color="#151515"/><stop offset="1"/></linearGradient><linearGradient id="b" x1="42.61422" y1="-17.5777" x2="74.13551" y2="25.89997" xlink:href="#a"/><linearGradient id="c" x1="99.03717" y1="-17.5777" x2="130.55846" y2="25.89997" xlink:href="#a"/><linearGradient id="d" x1="155.91279" y1="-17.5777" x2="187.43408" y2="25.89997" xlink:href="#a"/></defs><g style="isolation:isolate"><polygon points="10.535 49.563 10.687 50.134 49.999 60.098 60.686 50.134 60.686 0.136 49.999 10.1 10.535 49.563" fill="#e26017"/><polygon points="0.136 9.963 10.671 49.427 50.135 9.963 60.821 0 10.823 0 0.136 9.963" fill="#fc8747"/><rect y="10.0996" width="49.9991" height="49.9986" fill="#fd7014"/><polygon points="0 55.388 0 10.1 46.012 10.1 0 55.388" fill="url(#a)" style="mix-blend-mode:screen"/><polygon points="66.627 49.563 66.778 50.134 106.091 60.098 116.777 50.134 116.777 0.136 106.091 10.1 66.627 49.563" fill="#e26017"/><polygon points="56.227 9.963 66.762 49.427 106.226 9.963 116.913 0 66.915 0 56.227 9.963" fill="#fc8747"/><rect x="56.09151" y="10.0996" width="49.9991" height="49.9986" fill="#fd7014"/><polygon points="56.092 55.388 56.092 10.1 102.103 10.1 56.092 55.388" fill="url(#b)" style="mix-blend-mode:screen"/><polygon points="123.05 49.563 123.201 50.134 162.514 60.098 173.2 50.134 173.2 0.136 162.514 10.1 123.05 49.563" fill="#e26017"/><polygon points="112.65 9.963 123.185 49.427 162.649 9.963 173.336 0 123.338 0 112.65 9.963" fill="#fc8747"/><rect x="112.51446" y="10.0996" width="49.9991" height="49.9986" fill="#fd7014"/><polygon points="112.514 55.388 112.514 10.1 158.526 10.1 112.514 55.388" fill="url(#c)" style="mix-blend-mode:screen"/><polygon points="179.925 49.563 180.077 50.134 219.389 60.098 230.076 50.134 230.076 0.136 219.389 10.1 179.925 49.563" fill="#e26017"/><polygon points="169.526 9.963 180.061 49.427 219.525 9.963 230.211 0 180.213 0 169.526 9.963" fill="#fc8747"/><rect x="169.39008" y="10.0996" width="49.9991" height="49.9986" fill="#fd7014"/><polygon points="169.39 55.388 169.39 10.1 215.402 10.1 169.39 55.388" fill="url(#d)" style="mix-blend-mode:screen"/></g></svg>