<svg xmlns="http://www.w3.org/2000/svg" viewBox="0 0 428.63024 121.42408"><rect x="1" y="30.06273" width="90" height="90" fill="#fd7014" stroke="#000" stroke-miterlimit="10" stroke-width="2"/><rect x="91" y="30.06273" width="90" height="90" fill="#fd7014" stroke="#000" stroke-miterlimit="10" stroke-width="2"/><rect x="181" y="30.06273" width="90" height="90" fill="#fd7014" stroke="#000" stroke-miterlimit="10" stroke-width="2"/><rect x="271" y="30.06273" width="90" height="90" fill="#fd7014" stroke="#000" stroke-miterlimit="10" stroke-width="2"/><polygon points="427.5 91.857 360.5 120.563 360.5 30.868 427.5 2.162 427.5 91.857" fill="#fd7014" stroke="#000" stroke-linejoin="round" stroke-width="1.7227"/><polygon points="90.932 29.063 0.932 29.063 68.068 0.563 158.068 0.563 90.932 29.063" fill="#fd7014" stroke="#000" stroke-linejoin="round" stroke-width="1.12546"/><polygon points="180.932 29.063 90.932 29.063 158.068 0.563 248.068 0.563 180.932 29.063" fill="#fd7014" stroke="#000" stroke-linejoin="round" stroke-width="1.12546"/><polygon points="270.932 29.063 180.932 29.063 248.068 0.563 338.068 0.563 270.932 29.063" fill="#fd7014" stroke="#000" stroke-linejoin="round" stroke-width="1.12546"/><polygon points="360.932 29.063 270.932 29.063 338.068 0.563 428.068 0.563 360.932 29.063" fill="#fd7014" stroke="#000" stroke-linejoin="round" stroke-width="1.12546"/><text transform="translate(8.5 99.27709)" font-size="60" fill="#eee" font-family="ArialRoundedMTBold, Arial Rounded MT Bold">10</text><text transform="translate(99.5 98.27709)" font-size="60" fill="#eee" font-family="ArialRoundedMTBold, Arial Rounded MT Bold">17</text><text transform="translate(191.5 98.27709)" font-size="60" fill="#eee" font-family="ArialRoundedMTBold, Arial Rounded MT Bold">23</text><text transform="translate(280.5 97.27709)" font-size="60" fill="#eee" font-family="ArialRoundedMTBold, Arial Rounded MT Bold">51</text></svg>