<svg xmlns="http://www.w3.org/2000/svg" viewBox="0 0 382 374.00488"><rect x="3.5" y="177.50488" width="75" height="75" fill="none" stroke="#fd0" stroke-linejoin="round" stroke-width="7"/><text transform="translate(22.39063 238.49414)" font-size="68.68486" fill="#d1d1d1" font-family="MyriadPro-Regular, Myriad Pro">1</text><rect x="78.5" y="177.50488" width="75" height="75" fill="none" stroke="#fd0" stroke-linejoin="round" stroke-width="7"/><text transform="translate(97.39063 238.49414)" font-size="68.68486" fill="#d1d1d1" font-family="MyriadPro-Regular, Myriad Pro">5</text><rect x="153.5" y="177.50488" width="75" height="75" fill="none" stroke="#fd0" stroke-linejoin="round" stroke-width="7"/><text transform="translate(172.39063 238.49414)" font-size="68.68486" fill="#d1d1d1" font-family="MyriadPro-Regular, Myriad Pro">7</text><rect x="228.5" y="177.50488" width="75" height="75" fill="none" stroke="#fd0" stroke-linejoin="round" stroke-width="7"/><text transform="translate(247.39063 238.49414)" font-size="68.68486" fill="#d1d1d1" font-family="MyriadPro-Regular, Myriad Pro">2</text><rect x="303.5" y="177.50488" width="75" height="75" fill="none" stroke="#fd0" stroke-linejoin="round" stroke-width="7"/><text transform="translate(322.39063 238.49414)" font-size="68.68486" fill="#d1d1d1" font-family="MyriadPro-Regular, Myriad Pro">3</text><text transform="translate(33.16992 279.56055)" font-size="25.77974" fill="#d1d1d1" font-family="MyriadPro-Regular, Myriad Pro">0</text><text transform="translate(109.16992 279.56055)" font-size="25.77974" fill="#d1d1d1" font-family="MyriadPro-Regular, Myriad Pro">1</text><text transform="translate(184.16992 279.56055)" font-size="25.77974" fill="#d1d1d1" font-family="MyriadPro-Regular, Myriad Pro">2</text><text transform="translate(260.16992 279.56055)" font-size="25.77974" fill="#d1d1d1" font-family="MyriadPro-Regular, Myriad Pro">3</text><text transform="translate(335.16992 279.56055)" font-size="25.77974" fill="#d1d1d1" font-family="MyriadPro-Regular, Myriad Pro">4</text><line x1="40.5" y1="82.00488" x2="40.5" y2="157.00488" fill="none" stroke="#ffb700" stroke-linejoin="round" stroke-width="5"/><polygon points="32.168 150.686 40.5 154.225 48.832 150.686 40.5 170.437 32.168 150.686" fill="#ffb700"/><line x1="115.5" y1="82.00488" x2="115.5" y2="157.00488" fill="none" stroke="#ffb700" stroke-linejoin="round" stroke-width="5"/><polygon points="107.168 150.686 115.5 154.225 123.832 150.686 115.5 170.437 107.168 150.686" fill="#ffb700"/><line x1="190.5" y1="82.00488" x2="190.5" y2="157.00488" fill="none" stroke="#ffb700" stroke-linejoin="round" stroke-width="5"/><polygon points="182.168 150.686 190.5 154.225 198.832 150.686 190.5 170.437 182.168 150.686" fill="#ffb700"/><line x1="266.5" y1="82.00488" x2="266.5" y2="157.00488" fill="none" stroke="#ffb700" stroke-linejoin="round" stroke-width="5"/><polygon points="258.168 150.686 266.5 154.225 274.832 150.686 266.5 170.437 258.168 150.686" fill="#ffb700"/><line x1="341.5" y1="82.00488" x2="341.5" y2="157.00488" fill="none" stroke="#ffb700" stroke-linejoin="round" stroke-width="5"/><polygon points="333.168 150.686 341.5 154.225 349.832 150.686 341.5 170.437 333.168 150.686" fill="#ffb700"/><text transform="translate(33.64014 67.76465)" font-size="80.96069" fill="#ade8f4" font-family="MyriadPro-Regular, Myriad Pro">Eleme<tspan x="207.58057" y="0" letter-spacing="-0.004em">n</tspan><tspan x="252.18896" y="0">ts</tspan></text><text transform="translate(21.63965 360.2041)" font-size="55.2019" fill="#ade8f4" font-family="MyriadPro-Regular, Myriad Pro" letter-spacing="0.01em">I<tspan x="13.74512" y="0" letter-spacing="-0.00001em">nd</tspan><tspan x="75.51514" y="0" letter-spacing="-0.00299em">e</tspan><tspan x="103.00586" y="0" letter-spacing="-0.01499em">x</tspan><tspan x="127.73633" y="0" letter-spacing="-0.00001em">es</tspan></text><line x1="3" y1="309.50488" x2="228" y2="309.50488" fill="none" stroke="#ffb700" stroke-miterlimit="10" stroke-width="5"/><polygon points="218.17 322.466 223.676 309.505 218.17 296.544 248.894 309.505 218.17 322.466" fill="#ffb700"/></svg>