<svg xmlns="http://www.w3.org/2000/svg" xmlns:xlink="http://www.w3.org/1999/xlink" width="500" zoomAndPan="magnify" viewBox="0 0 375 374.999991" height="500" preserveAspectRatio="xMidYMid meet" version="1.0"><defs><clipPath id="id1"><path d="M 0 39.753906 L 375 39.753906 L 375 334.945312 L 0 334.945312 Z M 0 39.753906 " clip-rule="nonzero"/></clipPath></defs><path fill="rgb(99.21875%, 43.919373%, 7.839966%)" d="M 97.117188 253.203125 C 92.363281 253.203125 88.515625 257.070312 88.515625 261.796875 C 88.515625 266.546875 92.363281 270.390625 97.117188 270.390625 C 101.867188 270.390625 105.714844 266.546875 105.714844 261.796875 C 105.714844 257.070312 101.867188 253.203125 97.117188 253.203125 " fill-opacity="1" fill-rule="nonzero"/><path fill="rgb(99.21875%, 43.919373%, 7.839966%)" d="M 97.117188 217.070312 C 97.117188 212.320312 93.269531 208.476562 88.515625 208.476562 C 83.765625 208.476562 79.917969 212.320312 79.917969 217.070312 C 79.917969 221.816406 83.765625 225.664062 88.515625 225.664062 C 93.269531 225.664062 97.117188 221.816406 97.117188 217.070312 " fill-opacity="1" fill-rule="nonzero"/><path fill="rgb(99.21875%, 43.919373%, 7.839966%)" d="M 136.238281 221.214844 C 131.511719 221.214844 127.640625 225.058594 127.640625 229.808594 C 127.640625 234.558594 131.511719 238.402344 136.238281 238.402344 C 140.992188 238.402344 144.839844 234.558594 144.839844 229.808594 C 144.839844 225.058594 140.992188 221.214844 136.238281 221.214844 " fill-opacity="1" fill-rule="nonzero"/><g clip-path="url(#id1)"><path fill="rgb(99.21875%, 43.919373%, 7.839966%)" d="M 359.511719 295.058594 C 191.75 346.019531 63.34375 308.539062 15.621094 289.894531 C 14.160156 288.273438 13.328125 281.394531 15.667969 278.21875 L 175.457031 62.964844 C 180.554688 56.988281 185.5625 53.953125 190.40625 53.953125 C 190.523438 53.953125 190.636719 53.953125 190.753906 53.976562 C 197.570312 54.183594 203.640625 60.484375 207.441406 65.582031 L 359.488281 283.476562 C 361.738281 286.699219 360.902344 293.324219 359.511719 295.058594 Z M 371.171875 275.347656 L 218.984375 57.265625 C 210.570312 45.960938 201.230469 40.054688 191.195312 39.753906 C 184.679688 39.546875 174.667969 41.839844 164.425781 53.953125 L 4.242188 269.765625 C -0.511719 276.160156 -0.789062 285.445312 1.042969 291.816406 C 2.640625 297.375 5.886719 301.359375 10.152344 303.050781 C 40.933594 315.097656 104.742188 334.945312 190.777344 334.945312 C 241.535156 334.945312 300.0625 328.019531 364.078125 308.539062 C 368.414062 307.21875 371.796875 303.5625 373.652344 298.234375 C 375.875 291.792969 375.96875 282.226562 371.171875 275.347656 " fill-opacity="1" fill-rule="nonzero"/></g><path fill="rgb(99.21875%, 43.919373%, 7.839966%)" d="M 133.574219 185.660156 C 133.574219 180.910156 129.726562 177.066406 124.976562 177.066406 C 120.246094 177.066406 116.375 180.910156 116.375 185.660156 C 116.375 190.40625 120.246094 194.253906 124.976562 194.253906 C 129.726562 194.253906 133.574219 190.40625 133.574219 185.660156 " fill-opacity="1" fill-rule="nonzero"/></svg>