<svg xmlns="http://www.w3.org/2000/svg" xmlns:xlink="http://www.w3.org/1999/xlink" viewBox="0 0 436.14628 340.4506"><defs><radialGradient id="a" cx="277.51972" cy="192.3786" r="12.92551" gradientUnits="userSpaceOnUse"><stop offset="0" stop-color="#ffc8af"/><stop offset="1" stop-color="#ffbb9c"/></radialGradient><radialGradient id="b" cx="279.60452" cy="169.18749" r="20.37751" gradientTransform="translate(-38.9136 62.4417) rotate(-12.15158)" xlink:href="#a"/><radialGradient id="c" cx="220.21794" cy="307.7732" r="8.12587" xlink:href="#a"/><radialGradient id="d" cx="168.7539" cy="309.81125" r="7.40153" xlink:href="#a"/><radialGradient id="e" cx="243.56056" cy="250.69742" r="41.44419" xlink:href="#a"/><radialGradient id="f" cx="243.56057" cy="250.69742" r="41.44397" xlink:href="#a"/></defs><g style="isolation:isolate"><path d="M465.6811,304.5845,449.9142,415.2942H48.99818l-11.8405-84.456a21.01662,21.01662,0,0,1,12.7428-22.3029l35.5823-14.7669V258.3812a20.96769,20.96769,0,0,1,17.9496-20.7664l8.4139-1.2316,14.1329-47.7885a20.9727,20.9727,0,0,1,20.1202-15.0353h144.5605a20.95756,20.95756,0,0,1,20.925,19.4617l68.83532,7.2676a21.0024,21.0024,0,0,1,18.7545,19.6447l2.7803,47.7519,48.6421,13.7427A20.99363,20.99363,0,0,1,465.6811,304.5845Z" transform="translate(-29.74468 -79.7747)" fill="#09c"/><path d="M73.03418,327.4173l12.5151,87.877H403.7805l9.3985-67.0379a16.682,16.682,0,0,0-10.1147-17.7031l-28.2438-11.7214v-28.089a16.64344,16.64344,0,0,0-14.2477-16.4835l-6.6786-.9776L342.676,235.3492a16.64722,16.64722,0,0,0-15.97063-11.9344H211.95908a16.63519,16.63519,0,0,0-16.6095,15.4479l-54.6388,5.7687a16.67094,16.67094,0,0,0-14.8865,15.5932l-2.2069,37.9035-38.6101,10.9085A16.66372,16.66372,0,0,0,73.03418,327.4173Z" transform="translate(-29.74468 -79.7747)" fill="#00b4d8"/><path d="M354.47524,382.5485a19.04841,19.04841,0,0,0-16.30643-18.8654l-7.6436-1.1188-12.8391-43.4137a19.05275,19.05275,0,0,0-18.2783-13.6588H168.08132a19.03877,19.03877,0,0,0-19.0094,17.68l-56.8577,6.003,12.2648,86.1195H355.91654l-1.4413-.5982Z" transform="translate(-29.74468 -79.7747)" fill="#48cae4"/><rect x="90.4869" y="19.3434" width="97.5543" height="91.0543" fill="#112b46"/><g style="mix-blend-mode:screen"><rect x="90.4869" y="19.3434" width="97.5543" height="9.63" fill="#1d262d"/></g><path d="M196.69858,104.0422a1.76525,1.76525,0,1,1-1.7652-1.7653A1.76519,1.76519,0,0,1,196.69858,104.0422Z" transform="translate(-29.74468 -79.7747)" fill="#606bf1"/><path d="M204.06928,104.0422a1.76525,1.76525,0,1,1-1.76528-1.7653A1.7652,1.7652,0,0,1,204.06928,104.0422Z" transform="translate(-29.74468 -79.7747)" fill="#fbd15b"/><path d="M210.91348,104.228a1.76524,1.76524,0,1,1-1.7652-1.7652A1.76528,1.76528,0,0,1,210.91348,104.228Z" transform="translate(-29.74468 -79.7747)" fill="#ff8578"/><rect x="107.8332" y="37.9249" width="13.8168" height="1.1614" fill="#ff8578"/><rect x="124.0505" y="37.9249" width="13.8167" height="1.1614" fill="#fbd15b"/><rect x="112.107" y="44.1807" width="21.4259" height="1.1614" fill="#606bf1"/><rect x="137.0757" y="44.1807" width="10.891" height="1.1614" fill="#ff8578"/><rect x="119.5396" y="50.4365" width="9.4102" height="1.1614" fill="#fbd15b"/><rect x="134.3881" y="50.4365" width="31.2175" height="1.1614" fill="#fbd15b"/><rect x="126.84832" y="56.6923" width="35.677" height="1.1613" fill="#606bf1"/><rect x="117.9282" y="62.9481" width="10.98012" height="1.1613" fill="#ff8578"/><rect x="133.60632" y="62.9481" width="10.98008" height="1.1613" fill="#606bf1"/><rect x="107.8332" y="95.4038" width="15.9735" height="1.1614" fill="#ff8578"/><rect x="129.4009" y="95.4038" width="15.9736" height="1.1614" fill="#fbd15b"/><rect x="150.388" y="95.4038" width="15.9735" height="1.1614" fill="#ff8578"/><rect x="112.107" y="89.1481" width="31.2174" height="1.1613" fill="#606bf1"/><rect x="148.1914" y="89.1481" width="31.2175" height="1.1613" fill="#ff8578"/><rect x="119.5396" y="82.8923" width="30.9779" height="1.1613" fill="#ff8578"/><rect x="153.2184" y="82.8923" width="8.6222" height="1.1613" fill="#fbd15b"/><rect x="117.5161" y="76.6365" width="11.6618" height="1.1613" fill="#fbd15b"/><rect x="135.3717" y="76.6365" width="11.6618" height="1.1613" fill="#606bf1"/><rect x="154.5338" y="76.6365" width="11.6618" height="1.1613" fill="#ff8578"/><rect x="131.0347" y="70.3807" width="16.3522" height="1.1613" fill="#fbd15b"/><rect x="108.513" y="70.3807" width="16.3522" height="1.1613" fill="#606bf1"/><rect x="98.7904" y="36.81" width="1.4865" height="1.4866" fill="#f9fbfc"/><path d="M130.02158,171.1259h-1.4865v-3.0311h1.4865Zm0-7.5792h-1.4865v-3.0311h1.4865Zm0-7.5793h-1.4865v-3.0318h1.4865Zm0-7.5792h-1.4865v-3.0318h1.4865Zm0-7.5792h-1.4865v-3.0319h1.4865Zm0-7.5793h-1.4865v-3.0318h1.4865Zm0-7.5792h-1.4865v-3.0318h1.4865Z" transform="translate(-29.74468 -79.7747)" fill="#f9fbfc"/><rect x="98.7904" y="95.8993" width="1.4865" height="1.4866" fill="#f9fbfc"/><rect x="209.03139" width="80.3302" height="49.515" fill="#ff8fa3"/><path d="M269.97478,99.6904l-9.5574,4.079,9.5574,4.019-1.2507,2.888-11.4619-5.1207v-3.5431l11.4619-5.1505Z" transform="translate(-29.74468 -79.7747)" fill="#f9fbfc"/><path d="M284.05928,90.2527l-6.9367,26.6461-3.3047-.7739,6.967-26.6163Z" transform="translate(-29.74468 -79.7747)" fill="#f9fbfc"/><path d="M300.64618,102.0126v3.5431l-11.4628,5.1207-1.2498-2.888,9.5271-4.019-9.5271-4.079,1.2498-2.8283Z" transform="translate(-29.74468 -79.7747)" fill="#f9fbfc"/><rect x="286.60249" y="95.9256" width="45.75362" height="32.5957" fill="#fd0"/><path d="M335.4859,182.7371c-1.4717,0-1.9622.3972-1.9622,1.4951v4.9059c0,1.9157-.7943,2.4998-2.126,2.8736,1.3317.3504,2.126.9344,2.126,2.8264v4.9059c0,1.098.5139,1.4951,1.9622,1.4951v2.1494c-3.7144,0-4.7659-1.1915-4.7659-3.6679v-4.6488c0-1.3316-.3503-1.8455-1.56493-1.8455v-2.453c1.21463,0,1.56493-.5372,1.56493-1.8689v-4.6488c0-2.4998,1.0515-3.6676,4.7659-3.6676Z" transform="translate(-29.74468 -79.7747)" fill="#f1f2f2"/><path d="M347.728,184.2556v4.6488c0,1.3317.3504,1.8689,1.5887,1.8689v2.453c-1.2383,0-1.5887.5139-1.5887,1.8455v4.6488c0,2.4764-1.0511,3.6679-4.7655,3.6679v-2.1494c1.4483,0,1.9621-.3971,1.9621-1.4951v-4.9059c0-1.892.7944-2.476,2.126-2.8264-1.3316-.3738-2.126-.9579-2.126-2.8736v-4.9059c0-1.0979-.4904-1.4951-1.9621-1.4951V180.588C346.6769,180.588,347.728,181.7558,347.728,184.2556Z" transform="translate(-29.74468 -79.7747)" fill="#f1f2f2"/><rect x="59.4384" y="7.1015" width="51.3295" height="34.3319" fill="#ffc300"/><path d="M106.171,96.7313a8.425,8.425,0,0,0,11.273,12.2471l5.38738,5.3873a.58219.58219,0,0,0,.8234,0l1.5135-1.5135a.58219.58219,0,0,0,0-.8234l-5.3874-5.3873A8.42508,8.42508,0,0,0,106.171,96.7313Zm10.81308,9.4502a5.95734,5.95734,0,1,1-.0004-8.4249A5.96427,5.96427,0,0,1,116.98408,106.1815Z" transform="translate(-29.74468 -79.7747)" fill="#f9fbfc"/><path d="M289.82568,192.9218c-.1119,1.1344-1.6616,12.9735-13.8363,12.9735-12.7817,0-10.6408-12.6539-10.6408-12.6539l-.0159-.0799a12.75806,12.75806,0,0,1,4.0102-.1917v-5.9915l14.5073-8.1164h.5273v13.98A26.39559,26.39559,0,0,1,289.82568,192.9218Z" transform="translate(-29.74468 -79.7747)" fill="url(#a)"/><path d="M282.77978,152.1165a16.58353,16.58353,0,0,1,4.36022,8.0849c1.39408,6.1459.08248,12.6486-1.70062,18.572a9.33734,9.33734,0,0,1-1.2771,2.888,10.262,10.262,0,0,1-1.5906,1.6055q-3.8709,3.3708-7.7352,6.7489c-1.74548,1.5278-12.4893,2.8006-14.5397,1.3346-7.9017-5.6497-9.422-22.018-7.8405-30.386C255.08008,147.0817,272.92268,142.1185,282.77978,152.1165Z" transform="translate(-29.74468 -79.7747)" fill="url(#b)"/><path d="M278.34208,169.8825c.1051-1.3363,1.4792-2.7995,2.858-1.9325,1.4277.8978,1.0917,3.2705.5001,4.5766-.464,1.0244-2.016,2.1451-3.0669,1.1929-.8808-.7982.4881-1.7396.5331-2.4685.0404-.656-1.2717-1.1257-.7347-1.8279" transform="translate(-29.74468 -79.7747)" fill="#f7b094"/><path d="M278.59478,176.0612a4.08009,4.08009,0,0,0,4.4969-2.6721,15.35722,15.35722,0,0,0,.55132-4.2961,10.292,10.292,0,0,1,.35248,4.7374c-.373,2.9216-1.397,5.7048-3.6901,5.7413C278.01238,179.6083,278.59478,176.0612,278.59478,176.0612Z" transform="translate(-29.74468 -79.7747)" fill="#f7b094"/><path d="M276.82818,173.9818a.51975.51975,0,0,1-.1613.0485c-.89188.1247-1.2475-.9541-1.37988-1.6295a29.93446,29.93446,0,0,1-.31552-4.7682,3.61437,3.61437,0,0,0-.1449-1.274c-.5013-1.1475-1.8359-1.8927-2.2431-3.0772-.4738-1.3782.86352-2.7533.3327-4.2617-.813-2.3106-3.7804-2.8422-5.9263-2.817a67.3639,67.3639,0,0,0-9.538,1.1282c-3.355.5206-7.6431,1.0148-10.5994-1.1068-3.5633-2.5574-5.0514-9.2218-2.3924-12.8707a8.63347,8.63347,0,0,1,6.6065-3.1034c2.5529-.0584,4.7095,1.4634,7.05142,2.229,1.86508.6098,3.66878-1.1743,5.41228-1.5227,2.1911-.4379,3.1218,1.9542,5.0603,2.02,1.8833.0638,3.7306-1.4071,5.5621-1.7416,3.6504-.6665,3.4355,3.0003,5.8846,4.2524,1.5223.7783,3.4888.3071,5.0292,1.0982,1.17.6009,1.3336,1.6566,1.5887,2.8534a27.86741,27.86741,0,0,0,.5733,3.211,7.25531,7.25531,0,0,0,1.628,2.1336,7.83594,7.83594,0,0,1,1.3558,2.5812,16.08665,16.08665,0,0,1,.6744,6.5562,44.53265,44.53265,0,0,1-2.74268,10.7866c-.79922,2.2533-1.09622,4.5988-2.32482,6.7309-.3301.5729-1.79618,2.2464-2.3414.9997a1.82809,1.82809,0,0,1-.0784-.862c.1619-2.3223,2.3242-17.2866-3.3443-15.4894a4.02043,4.02043,0,0,0-2.432,2.4972,9.72282,9.72282,0,0,0-.50008,4.1403c.00968.2043.015.4087.00708.6131A.699.699,0,0,1,276.82818,173.9818Z" transform="translate(-29.74468 -79.7747)" fill="#3d3d7a"/><path d="M269.34288,191.5987c6.446-1.0361,10.69912-6.1282,10.69912-6.1282a11.74746,11.74746,0,0,1-11.08622,9.0356Z" transform="translate(-29.74468 -79.7747)" fill="#f7b094"/><path d="M281.54948,308.5704h5.9748a1.626,1.626,0,0,1,1.626,1.626v88.5251a0,0,0,0,1,0,0h-9.2267a0,0,0,0,1,0,0V310.1963A1.6259,1.6259,0,0,1,281.54948,308.5704Z" transform="translate(539.32917 627.5172) rotate(180)" fill="#0a2033"/><path d="M265.48,309.8356h38.1139a6.3142,6.3142,0,0,1,6.3142,6.3142v1.3853a0,0,0,0,1,0,0h-50.7423a0,0,0,0,1,0,0v-1.3853A6.3142,6.3142,0,0,1,265.48,309.8356Z" transform="translate(539.32917 547.596) rotate(180)" fill="#30475e"/><path d="M281.54958,388.2253h5.9747a1.626,1.626,0,0,1,1.626,1.626v20.5139a0,0,0,0,1,0,0h-9.2267a0,0,0,0,1,0,0V389.8513A1.626,1.626,0,0,1,281.54958,388.2253Z" transform="translate(539.32917 718.8158) rotate(180)" fill="#0a2033"/><path d="M236.65708,404.9651a5.40005,5.40005,0,1,0,5.4001-5.4A5.40009,5.40009,0,0,0,236.65708,404.9651Z" transform="translate(-29.74468 -79.7747)" fill="#0a2033"/><path d="M321.61667,404.9651a5.40007,5.40007,0,1,0,5.4001-5.4A5.40009,5.40009,0,0,0,321.61667,404.9651Z" transform="translate(-29.74468 -79.7747)" fill="#0a2033"/><rect x="275.25588" y="381.3499" width="18.56212" height="16.2202" transform="translate(539.32919 699.1453) rotate(180)" fill="#30475e"/><path d="M236.65708,393.7536H332.4168a0,0,0,0,1,0,0v1.8815a5.7515,5.7515,0,0,1-5.7515,5.7515H242.40848a5.7514,5.7514,0,0,1-5.7514-5.7514v-1.8816A0,0,0,0,1,236.65708,393.7536Z" transform="translate(539.32919 715.3655) rotate(180)" fill="#fbd15b"/><rect x="251.59179" y="239.5798" width="3.20052" height="60.5483" fill="#30475e"/><path d="M320.78647,244.4027A3.76405,3.76405,0,0,0,316.9,248.3771c.63368,10.9896-1.69552,37.7997-11.93242,46.9476-12.5155,11.184-47.9892,9.6607-47.9892,9.6607s-5.8583,7.1897,5.8583,8.7875c11.7166,1.5977,44.7361.5325,52.7247-6.9235,7.733-7.2174,12.32319-26.1264,8.86369-59.0384a3.78834,3.78834,0,0,0-3.6386-3.4083Z" transform="translate(-29.74468 -79.7747)" fill="#fbd15b"/><polygon points="224.58 300.128 228.798 309.746 215.872 315.418 211.638 305.768 224.58 300.128" fill="url(#c)"/><path d="M315.27728,272.9994c-.7988,1.5978-58.2288.032-63.6531.5273,0,0-35.1498,16.776-40.1986,32.4816a17.1621,17.1621,0,0,0-.4953,6.1672c1.406,22.1124,26.5861,75.0608,26.5861,75.0608l3.8664-1.6936,12.9416-5.6399,1.8373-.7989s-19.9714-59.515-15.9771-62.7104,49.2576-11.184,64.9632-15.434C320.86927,296.6936,315.27728,272.9994,315.27728,272.9994Z" transform="translate(-29.74468 -79.7747)" fill="#56548c"/><polygon points="175.303 302.602 176.313 317.052 162.205 317.052 161.195 302.57 175.303 302.602" fill="url(#d)"/><path d="M251.33668,273.0314l-.5114.2237s-58.8439,8.2602-68.4302,24.7646c-6.23108,10.7366,5.8298,89.1892,5.8298,89.1892l20.8183.0479s-3.1137-65.3512-2.07518-68.994c1.16628-4.1541,3.16348-5.6559,3.96228-6.0873a17.1621,17.1621,0,0,1,.4953-6.1672c5.0488-15.7056,40.1986-32.4816,40.1986-32.4816A1.00907,1.00907,0,0,1,251.33668,273.0314Z" transform="translate(-29.74468 -79.7747)" fill="#3d3d7a"/><path d="M308.17278,218.661l-3.9464.5433a193.00516,193.00516,0,0,1-3.3073,21.2816l-49.1617,18.6613-.6711,3.5629c-.2076-.016-.41528-.0319-.607-.0479.0158.7349.0158,1.4539.0478,2.125.11192,4.1061.3835,7.0619.81492,8.2442a1.00845,1.00845,0,0,0,.28758.4953c1.3356,1.0889,18.7231-1.0214,37.5207,5.8806,16.303,5.9861,25.4401,12.5247,25.8626,11.6463C320.13627,280.402,310.809,238.6006,308.17278,218.661Z" transform="translate(-29.74468 -79.7747)" fill="#ff4d6d"/><path d="M303.04408,243.0422c-1.31008,6.295-4.6973,18.8212-11.3437,20.4988-8.6756,2.2048-25.4517,2.093-41.1733,1.2462-.032-.6711-.032-1.3901-.0478-2.125.19172.016.3994.0319.607.0479l.6711-3.5629,49.1617-18.6613a193.00516,193.00516,0,0,0,3.3073-21.2816,1.38053,1.38053,0,0,0,.016.1757C304.33828,221.0257,305.00928,233.7435,303.04408,243.0422Z" transform="translate(-29.74468 -79.7747)" fill="#f4675d"/><path d="M253.76518,202.9555c-.8788,1.5977-2.141,18.6933-2.828,35.6611l-10.0496-9.3786C245.15348,220.9778,253.76518,202.9555,253.76518,202.9555Z" transform="translate(-29.74468 -79.7747)" fill="#c9184a"/><path d="M247.74178,251.0149c-8.4839,1.4699-16.28078,2.7321-16.28078,2.7321l-.01592.4154c-9.4426-7.5413-23.806-28.9028-23.806-28.9028s4.2978-5.1606,5.3683-6.5186c.1598-.2078,23.5823,15.9132,24.78062,15.7694.30358-.0319,1.50188-2.1409,3.09958-5.2724l10.0496,9.3786c-.1598,4.0422-.2876,8.0684-.3675,11.887C249.62708,250.6793,248.68438,250.8391,247.74178,251.0149Z" transform="translate(-29.74468 -79.7747)" fill="#f7b094"/><path d="M231.461,253.747l-.20772,6.998h-25.5635s2.5404-9.9858,9.4585-9.9858,9.5863,3.6588,9.5863,3.6588Z" transform="translate(-29.74468 -79.7747)" fill="url(#e)"/><path d="M212.81568,218.5812l.1917.1598c-1.0705,1.358-5.3683,6.5186-5.3683,6.5186l-2.6682-1.8853a6.63427,6.63427,0,0,1-6.359-.0799c-3.56288-1.9332-1.3577-6.5495-1.175-7.0961-.6906.1945-4.9602,3.6451-5.6312,3.2776-.6711-.3675-1.1664-1.5817,3.6108-6.295,4.7612-4.7133,11.2479,1.3421,11.4397,1.3421Z" transform="translate(-29.74468 -79.7747)" fill="#f7b094"/><path d="M199.16788,222.4928s-1.03,1.9287.80112,2.7668a18.23279,18.23279,0,0,0,6.92388,1.296c1.5303-.1474,2.7467-2.2889,2.7467-2.2889l-4.635-4.3489h-3.7051Z" transform="translate(-29.74468 -79.7747)" fill="#f7b094"/><path d="M198.89328,223.4397c.2746-.9469,2.9063-.4421,4.5376-.4033,1.2017.0286,1.8598-.2861,2.2317-1.2017.372-.9155-1.3733-2.3747-1.7167-1.9169-.3433.4578.6295,1.102.65812,1.7097.02858.6078-1.71672.8081-3.06142.8081a32.70508,32.70508,0,0,0-3.6649.3504Z" transform="translate(-29.74468 -79.7747)" fill="#e8987c"/><path d="M298.42138,249.5609l-25.0363-8.8673c-1.8213,3.4032-3.7706,5.9595-5.7038,6.4708-2.9238.7668-9.9857,2.093-17.1116,3.3392-.9426.1758-1.8852.3355-2.8279.5112-8.4839,1.47-16.28078,2.7322-16.28078,2.7322l-.016.4154v.2716l-.19172,6.311v1.6012a176.95331,176.95331,0,0,1,19.2206.316c15.0026,1.0705,34.3509,1.7096,40.7578-1.3101,3.0037-1.422,5.40032-6.0873,7.2856-11.8391Z" transform="translate(-29.74468 -79.7747)" fill="url(#f)"/><polygon points="243.64 160.919 268.677 169.786 267.543 173.132 242.764 162.502 243.64 160.919" fill="#f7b094"/><path d="M273.38518,240.6936c-1.8214,3.4031-3.7707,5.9595-5.7039,6.4708-2.9238.7669-9.9857,2.093-17.1116,3.3392.0799-3.8186.2077-7.8448.3675-11.887.687-16.9678,1.9492-34.0634,2.828-35.6611,1.4379-2.6682,5.3683-8.4679,11.5675-9.794l.0159.0799s-2.1409,12.6539,10.6408,12.6539c12.1747,0,13.7244-11.8391,13.8363-12.9735,6.263.703,15.86532,3.8345,17.1914,16.4246.2716,2.4924.6551,5.6878,1.1504,9.3147l-3.9464.5432s-1.5977,17.7347-5.7038,30.3087l-.0959.0479Z" transform="translate(-29.74468 -79.7747)" fill="#ff4d6d"/><polygon points="243.381 158.612 253.379 134.411 246.014 159.589 243.381 158.612" fill="#6d4b35" style="mix-blend-mode:screen"/><path d="M289.82568,192.9218h-5.4482s-7.7532,8.5131-12.7373,8.5131-2.2973-8.4651-2.2973-8.4651h-2.4313a13.74445,13.74445,0,0,0-13.6533,12.1856c-.0906.795-.1734,1.5489-.244,2.2306-.53328,5.1501,20.3296,8.8981,20.3296,8.8981l10.7422-.6008,6.5234-12.7278,1.29952-5.2115Z" transform="translate(-29.74468 -79.7747)" fill="#ff4d6d"/><path d="M224.08308,406.2633c.4855,2.6032,2.2895,4.4536,4.8927,3.968l34.7007-6.4723a1.6169,1.6169,0,0,0,1.293-1.886l-.5742-3.0786s-36.4955,6.3864-40.3299,7.4498Z" transform="translate(-29.74468 -79.7747)" fill="#f1f2f2"/><path d="M234.40688,397.5264c.36212-.3141.7102-.6256,1.0722-.9398.6962-.623,1.38092-1.2294,2.0402-1.8166.3481-.3115.6961-.623,1.0188-.9153.6338-.5679,1.23092-1.1,1.7657-1.5769.3849-.3474.7443-.6755,1.067-.9678.5929-.5316,1.0777-.9657,1.41722-1.2697a.7845.7845,0,0,1,1.03258-.0216c1.4266,1.1993,6.0373,3.9416,14.3881-1.226a.80147.80147,0,0,1,1.1364.2962l5.0502,9.7054s-36.4955,6.3865-40.3299,7.4499C225.32578,405.4578,229.98468,401.4265,234.40688,397.5264Z" transform="translate(-29.74468 -79.7747)" fill="#3d3d7a"/><path d="M169.432,405.9228c.06458,2.6472,1.55068,4.7614,4.198,4.6968l35.28868-.8614a1.61686,1.61686,0,0,0,1.577-1.6559l-.0764-3.1307s-37.0469.4906-41.0017.9294Z" transform="translate(-29.74468 -79.7747)" fill="#f1f2f2"/><path d="M181.01588,398.9422c.4075-.2525.8007-.5045,1.2082-.757.7865-.5041,1.5591-.9937,2.3035-1.4684.3933-.252.7865-.5042,1.1517-.7413.7162-.4597,1.3904-.8898,1.9944-1.2754.43532-.2817.8424-.5483,1.2075-.7855.67-.4303,1.2177-.7817,1.6014-1.0277a.78444.78444,0,0,1,1.0228.1432c1.2173,1.4113,5.3323,4.8531,14.3997,1.0819a.80151.80151,0,0,1,1.0747.4735l3.4395,10.3861s-37.0469.4905-41.0017.9294C170.78718,405.3256,176.02878,402.0879,181.01588,398.9422Z" transform="translate(-29.74468 -79.7747)" fill="#3d3d7a"/><polygon points="114.584 182.572 95.738 132.308 149.392 132.308 168.238 182.572 114.584 182.572" fill="#abb5ba"/><polygon points="171.555 182.572 168.238 182.572 149.392 132.308 152.404 132.442 169.835 177.938 171.555 182.572" fill="#8495a0"/><polyline points="98.624 177.139 98.896 177.139 166.176 177.139" fill="none"/><path d="M200.25878,262.3462H235.712l-.09642-3.1687h-36.082" transform="translate(-29.74468 -79.7747)" fill="#8495a0"/><rect x="313.02082" y="192.1575" width="8.5359" height="140.234" fill="#8495a0"/><rect x="266.68699" y="192.1575" width="8.5359" height="140.234" fill="#abb5ba"/><rect x="118.24832" y="192.1575" width="8.53578" height="140.234" fill="#8495a0"/><rect x="71.9151" y="192.1575" width="8.5358" height="140.234" fill="#abb5ba"/><path d="M63.73842,182.5716H330.09884a4.14908,4.14908,0,0,1,4.14908,4.14908v1.82072a4.1491,4.1491,0,0,1-4.1491,4.1491H63.73842a4.1491,4.1491,0,0,1-4.1491-4.1491v-1.8207a4.1491,4.1491,0,0,1,4.1491-4.1491Z" fill="#141b56"/><polygon points="104.696 137.591 105.614 140.039 116.302 140.039 115.385 137.591 104.696 137.591" fill="#8495a0"/><polygon points="211.143 149.463 210.376 150.946 221.192 162.124 221.192 158.842 211.143 149.463" fill="#e8987c"/><rect y="330.5885" width="431.91582" height="9.8621" fill="#a5b7c6"/><path d="M393.183,337.2145c-1.7157,8.3254-1.1988,22.5061-12.2125,24.7522-2.9659.6049-5.8306-1.4508-7.5548-3.8067-2.2559-3.0827-2.7959-9.6087-2.7564-13.3408.0313-2.9583,1.0399-6.2571,1.3646-9.2408.3507-3.2233.6361-6.4535,1.012-9.6742,1.3547-11.608,7.4187-21.337,17.676-27.1315.794,3.8101,2.604,7.0353,4.1993,10.694a37.98223,37.98223,0,0,1,1.8572,5.1752c.839,3.0955-.176,6.2236-.9288,9.188C394.7265,328.2132,394.0966,332.7814,393.183,337.2145Z" transform="translate(-29.74468 -79.7747)" fill="#ffd000"/><path d="M379.1065,362.2475q.117-1.04745.2563-2.0946a8.96258,8.96258,0,0,0,3.7909-1.3237,20.1634,20.1634,0,0,0,4.9747-3.9394c.0802-.0812-.0555-.2125-.1415-.1403a22.4099,22.4099,0,0,1-4.8438,3.3149,13.65725,13.65725,0,0,1-3.6798,1.3699q.17355-1.25.3817-2.4951a10.45616,10.45616,0,0,0,3.7856-1.7563,43.35326,43.35326,0,0,0,5.4261-4.1425.02011.02011,0,0,0-.0246-.0318c-2.6896,1.9532-5.6855,4.7334-9.0873,5.3421.1798-1.0398.3709-2.0774.589-3.1078.0114-.0538.0234-.1073.0348-.161,3.9373-.9961,6.6006-4.0839,9.6151-6.5801.0488-.0405-.0035-.124-.055-.0839-2.969,2.3053-5.7582,4.9369-9.4281,6.0554.318-1.474.6491-2.9437.9821-4.4122a21.00617,21.00617,0,0,0,8.8973-6.3083c.0416-.0487-.0267-.1172-.0719-.0702a27.12955,27.12955,0,0,1-8.6827,5.7492c.3292-1.4534.656-2.9067.9653-4.3642a32.60136,32.60136,0,0,0,4.5856-2.2156,12.543,12.543,0,0,0,3.5677-3.6177.07031.07031,0,0,0-.1184-.0757c-1.9932,2.8654-4.9983,3.757-7.9024,5.2644q.42435-2.03745.783-4.0909c3.2365-1.7821,6.7531-3.4338,8.587-6.8491.018-.0335-.0293-.0669-.05-.0335-1.9431,3.1378-5.3389,4.489-8.4217,6.1974.0402-.2442.0847-.487.1229-.7318.1984-1.2705.3839-2.5427.5659-3.815a31.09224,31.09224,0,0,0,5.3059-2.886,10.11235,10.11235,0,0,0,3.234-2.7546.07035.07035,0,0,0-.1153-.0805c-1.736,2.487-5.5373,3.9245-8.3451,5.169q.2739-1.9278.5461-3.8557c3.1155-1.8854,6.7808-2.9278,8.6978-6.3258a.09043.09043,0,0,0-.1536-.0953c-1.9855,3.1029-5.4813,4.06-8.4589,5.821q.17175-1.19415.3511-2.3875c3.364-1.2367,7.276-4.0535,9.0504-7.0946a.1507.1507,0,0,0-.2537-.1624,18.8777,18.8777,0,0,1-8.6977,6.6252c.1989-1.2888.4067-2.5762.636-3.8605a.37021.37021,0,0,0,.0501-.1139,19.29907,19.29907,0,0,0,4.3075-2.3142,11.77832,11.77832,0,0,0,4.0508-3.6913c.1081-.1762-.1785-.3389-.2798-.1581-1.4945,2.667-5.0409,4.4546-7.9774,5.473.0868-.4684.1713-.9373.2641-1.4049q.2079-1.0494.4243-2.0977c1.202-.8301,2.7283-1.2275,3.9351-2.1043a22.27674,22.27674,0,0,0,2.8643-2.6101c.0896-.0925-.0431-.2351-.1376-.1461a18.91748,18.91748,0,0,1-3.9534,3.0367c-.8289.4437-1.7743.6969-2.5771,1.1831.2349-1.1428.4687-2.2858.6924-3.4302.0144-.0026.0283-.0066.0426-.0094l.0432.0086a.21237.21237,0,0,0,.1975-.0609c1.6343-.4122,2.885-1.8199,3.9833-3.0189a.03014.03014,0,0,0-.0421-.0431,10.9084,10.9084,0,0,1-4.0062,2.703c-.006-.0014-.0097-.0053-.0164-.0063l-.1173-.0187q.269-1.39725.5048-2.7996a.21434.21434,0,0,0,.1934-.24,17.202,17.202,0,0,0,2.3925-2.0487.06034.06034,0,0,0-.0816-.0888,13.95946,13.95946,0,0,1-2.3905,1.6871,57.72168,57.72168,0,0,0,.6501-5.836c.01-.1817-.2649-.1836-.2811-.0049-.1712,1.8884-.4454,3.7584-.7701,5.6194a17.3812,17.3812,0,0,1-2.4561-3.7553c-.0287-.0702-.1399-.0418-.1157.0338a10.76581,10.76581,0,0,0,1.1948,2.3243,14.22871,14.22871,0,0,0,1.266,2.0418q-.272,1.49895-.5832,2.9907a5.51263,5.51263,0,0,1-3.0066-1.1774,5.45607,5.45607,0,0,1-1.8476-3.7574c-.0133-.1798-.2976-.1789-.281.0008a6.21684,6.21684,0,0,0,1.5988,3.6597,5.85171,5.85171,0,0,0,3.4509,1.6828q-.36015,1.72365-.7406,3.4441a26.77627,26.77627,0,0,1-2.818-2.0927,38.376,38.376,0,0,1-3.5604-3.8428c-.1258-.13-.3315.0579-.2074.19a40.37561,40.37561,0,0,0,3.3152,3.7339,19.06329,19.06329,0,0,0,3.1799,2.4243l-.0399.1817c-.0124.0117-.0261.0207-.0382.0325a.18455.18455,0,0,0-.0255.2565c-.2419,1.0989-.4833,2.1979-.7151,3.2989-.0145.0689-.0268.1381-.0411.2071-2.5617-1.1725-6.3902-3.2103-6.7292-6.182a.2.2,0,1,0-.3892.085c.7576,3.3634,4.4544,4.8538,7.0009,6.6878q-.37635,1.8678-.6926,3.7454a15.15589,15.15589,0,0,1-4.617-2.3781c-1.2636-1.0049-3.0507-2.2167-3.6196-3.7733-.0178-.0489-.0904-.017-.0738.0314.5269,1.5474,2.1303,2.6107,3.297,3.6664a12.338,12.338,0,0,0,4.8992,3.0131.34375.34375,0,0,0-.0048.1671q-.19545,1.19055-.3781,2.3834c-3.1111-.2392-7.4641-2.6015-9.054-4.9548-.0073-.011-.0225.0011-.0159.0119a10.20631,10.20631,0,0,0,4.5719,3.7559,12.624,12.624,0,0,0,4.4343,1.6011c-.2234,1.4722-.4394,2.9457-.659,4.4185-1.3498-.5031-2.7797-.7442-4.1154-1.279a10.19139,10.19139,0,0,1-4.6713-3.9774c-.0705-.1059-.2471-.0168-.1776.0936,2.1542,3.4243,5.2524,4.4289,8.8823,5.7111q-.27225,1.8126-.5696,3.6211c-2.9708-.5693-6.8131-2.3824-8.3159-4.9626-.1103-.1895-.4117-.032-.302.1592a9.63836,9.63836,0,0,0,4.2545,3.5417c1.2016.6069,2.8572,1.6133,4.2887,1.7206-.0067.0396-.0127.0794-.0194.1187-.2937,1.7354-.6366,3.4613-1.0069,5.1816-3.3186-.8338-5.4638-3.2926-7.8755-5.5934-.1678-.16-.4297.084-.2632.2479,2.4573,2.4181,4.6156,4.9557,8.0297,5.8498q-.45975,2.1-.9703,4.189a15.33529,15.33529,0,0,1-7.4521-5.1001c-.1296-.1633-.3571.0582-.234.2204a16.49555,16.49555,0,0,0,7.5557,5.42q-.5502,2.2422-1.1298,4.4764a11.00336,11.00336,0,0,1-6.9288-4.5574c-.0417-.0535-.1353.0165-.0955.0721,1.5885,2.2106,3.9921,4.7632,6.8836,5.0307q-.18405.7134-.3683,1.4267-.11145.43035-.2306.8713a16.493,16.493,0,0,1-6.0286-2.9062c-.0507-.0415-.1083.0372-.0608.0799a15.7242,15.7242,0,0,0,5.9703,3.2642c-.2439.8949-.5013,1.8151-.7554,2.7526a12.22939,12.22939,0,0,0-1.6626-.7078,11.95278,11.95278,0,0,1-2.7424-1.5865c-.0871-.0524-.185.0705-.0975.1278a12.4545,12.4545,0,0,0,2.3668,1.5996c.7032.2649,1.3658.6025,2.0451.9036-.9981,3.72-1.8806,7.6738-1.4016,11.2445.1062.7919,1.4347,1.0017,1.6399.1593A63.74389,63.74389,0,0,0,379.1065,362.2475Z" transform="translate(-29.74468 -79.7747)" fill="#747ded"/><path d="M358.3285,334.8312c1.9583,8.2718,8.412,20.9094-.6247,27.5941-2.4337,1.8001-5.8983,1.1454-8.4556-.2628-3.3462-1.8424-6.5902-7.5308-8.1295-10.9309-1.2202-2.695-1.6981-6.1115-2.6629-8.9535-1.0426-3.0702-2.1471-6.1189-3.1656-9.1974-3.671-11.0953-2.2797-22.4745,4.5738-32.0568,2.3278,3.1191,5.33,5.2789,8.3203,7.9227a37.97369,37.97369,0,0,1,3.8679,3.9077c2.067,2.4523,2.4671,5.7164,3.0358,8.7215C355.9288,326.0194,357.2857,330.4268,358.3285,334.8312Z" transform="translate(-29.74468 -79.7747)" fill="#fd0"/><path d="M356.1324,363.4665q-.3363-.99915-.6517-2.0071a8.96543,8.96543,0,0,0,2.8781-2.7999,20.16731,20.16731,0,0,0,2.8472-5.671c.0384-.1074-.14-.1693-.1874-.0674a22.41769,22.41769,0,0,1-2.9923,5.0496,13.65861,13.65861,0,0,1-2.7578,2.7948q-.3702-1.20645-.7072-2.4231a10.4555,10.4555,0,0,0,2.6909-3.1899,43.36434,43.36434,0,0,0,3.1707-6.0455.02007.02007,0,0,0-.0356-.0185c-1.614,2.9059-3.1568,6.6907-5.9837,8.6783-.276-1.0186-.5405-2.0398-.7777-3.0661-.0124-.0535-.0241-.1071-.0363-.1605,3.1489-2.5648,4.2601-6.4883,5.9396-10.0235.0272-.0573-.0555-.111-.0854-.0528-1.7186,3.3429-3.1365,6.9059-5.9914,9.4687-.3339-1.4705-.6541-2.9426-.9719-4.4144a21.00668,21.00668,0,0,0,5.4035-9.474.05022.05022,0,0,0-.0947-.0333,27.12575,27.12575,0,0,1-5.4452,8.8765c-.3149-1.4566-.6319-2.912-.9667-4.3639a32.56393,32.56393,0,0,0,3.222-3.9439,12.538,12.538,0,0,0,1.7077-4.7855.07036.07036,0,0,0-.1394-.0185c-.5976,3.4388-2.9455,5.5155-4.9423,8.1076-.3168-1.3507-.6527-2.6975-1.0166-4.0391,2.182-2.9816,4.6729-5.963,4.8941-9.8333.0022-.038-.0549-.0483-.0596-.0092-.4371,3.6646-2.9454,6.3228-5.0192,9.1727-.0666-.2384-.1288-.4774-.1974-.7154-.3563-1.2355-.7251-2.467-1.0972-3.6973a31.09587,31.09587,0,0,0,3.5923-4.8557,10.11526,10.11526,0,0,0,1.7693-3.8622.07036.07036,0,0,0-.1385-.0244c-.5242,2.9874-3.3637,5.8949-5.384,8.2082q-.5652-1.86345-1.1321-3.7259c2.0287-3.0242,4.9115-5.5163,5.2154-9.4058a.09045.09045,0,0,0-.1795-.0215c-.4904,3.6509-3.2558,5.994-5.2119,8.8472q-.34845-1.15515-.6893-2.3125c2.5277-2.5411,4.8854-6.7458,5.2105-10.2517a.15068.15068,0,0,0-.2985-.0401,18.878,18.878,0,0,1-5.0889,9.6771c-.3637-1.2523-.7187-2.5071-1.0528-3.7682a.36374.36374,0,0,0-.0028-.1244,19.288,19.288,0,0,0,2.9285-3.9161,11.778,11.778,0,0,0,2.1144-5.056.16074.16074,0,0,0-.3203-.0252c-.2293,3.0486-2.6901,6.1659-4.9222,8.3286-.1191-.4613-.2404-.922-.3536-1.3851q-.2544-1.03935-.5007-2.0809c.7394-1.2598,1.9554-2.2643,2.6793-3.5683a22.27666,22.27666,0,0,0,1.4953-3.5753.10051.10051,0,0,0-.1866-.0744,18.90758,18.90758,0,0,1-2.3024,4.4214c-.5642.7522-1.3144,1.3807-1.8368,2.1604-.2694-1.1352-.5399-2.2701-.8201-3.4019.012-.0084.0229-.0181.0347-.0265l.0428-.0105a.21214.21214,0,0,0,.1532-.1386c1.3077-1.0634,1.8474-2.8676,2.3371-4.4181a.03012.03012,0,0,0-.0564-.0211,10.90984,10.90984,0,0,1-2.4909,4.1411c-.0063.0013-.0112-.0006-.0176.0012l-.1143.0328q-.3459-1.38045-.724-2.7512a.21432.21432,0,0,0,.0741-.2992,17.18522,17.18522,0,0,0,1.3042-2.867.06024.06024,0,0,0-.1112-.0462,13.978,13.978,0,0,1-1.4552,2.5384,57.7558,57.7558,0,0,0-1.8738-5.5651c-.0676-.1689-.3177-.0546-.2569.1143.6417,1.7842,1.1825,3.5952,1.6736,5.4193a17.37844,17.37844,0,0,1-3.8118-2.3679c-.0554-.0515-.1443.0212-.0906.0794a10.75927,10.75927,0,0,0,2.0642,1.603,14.22833,14.22833,0,0,0,2.0095,1.3168q.38595,1.4736.7335,2.9574a5.51152,5.51152,0,0,1-3.2226.2015,5.456,5.456,0,0,1-3.2607-2.6265c-.088-.1573-.3454-.0366-.2545.1194a6.21827,6.21827,0,0,0,2.9939,2.643,5.85252,5.85252,0,0,0,3.8389.069q.4008,1.7145.7822,3.4348a26.76979,26.76979,0,0,1-3.4381-.7078,38.38484,38.38484,0,0,1-4.8496-1.981.14066.14066,0,0,0-.1077.2597,40.36305,40.36305,0,0,0,4.5812,1.9859,19.06822,19.06822,0,0,0,3.9061.8558l.0404.1814c-.0062.0159-.0149.0299-.021.0457a.18457.18457,0,0,0,.0854.2432c.2444,1.0984.4893,2.1966.7439,3.2926.0159.0685.034.1364.0501.205-2.8171.0182-7.148-.2133-8.7094-2.7643-.1488-.2427-.4982.0065-.317.2413,2.1061,2.7294,6.0867,2.5203,9.1693,3.1083q.447,1.852.9528,3.6878a15.1566,15.1566,0,0,1-5.1893-.2074c-1.5695-.3776-3.7012-.7221-4.8739-1.8932-.0369-.0367-.0891.0228-.0537.0598,1.1307,1.1804,3.0332,1.4677,4.5362,1.9322a12.33534,12.33534,0,0,0,5.7132.6639.34521.34521,0,0,0,.0663.1535q.32535,1.1619.6632,2.3204c-2.9214,1.0963-7.8648.7918-10.2993-.6707-.0112-.0069-.02.0105-.0094.0176a10.2066,10.2066,0,0,0,5.7298,1.4754,12.62524,12.62524,0,0,0,4.6958-.42c.4188,1.4289.8449,2.8558,1.2674,4.2838-1.436.1136-2.834.4986-4.2706.5774a10.192,10.192,0,0,1-5.9136-1.6343c-.1086-.0663-.2312.0891-.1215.1599,3.3982,2.1951,6.6309,1.7983,10.4629,1.4287q.5181,1.7583,1.0118,3.5232c-2.9335.7377-7.182.7156-9.6334-.9893-.18-.1253-.3868.1449-.2065.2718a9.63687,9.63687,0,0,0,5.3517,1.4152c1.3455.043,3.2711.2567,4.6141-.2502.0108.0388.0221.0773.0327.1159.4661,1.6972.8837,3.4065,1.2741,5.1225-3.3607.6445-6.343-.679-9.5006-1.747-.2195-.0743-.3541.2575-.1339.3358,3.2482,1.1551,6.2758,2.5447,9.7485,1.9142q.46935,2.0979.8883,4.2072a15.33867,15.33867,0,0,1-8.9085-1.4783c-.1864-.0936-.2992.2034-.1191.2984a16.49478,16.49478,0,0,0,9.1374,1.7248q.44745,2.26485.865,4.535a11.00331,11.00331,0,0,1-8.2051-1.2074c-.0603-.0309-.1157.0722-.0559.1057,2.3729,1.3337,5.6293,2.6334,8.3636,1.6556q.13425.7245.2682,1.4488c.0538.2915.1065.5879.1587.8872a16.49121,16.49121,0,0,1-6.692-.0904c-.0633-.0161-.0824.0795-.0214.0981a15.7221,15.7221,0,0,0,6.7902.4396c.1566.9142.3116,1.857.477,2.8141a12.24845,12.24845,0,0,0-1.8061.0601,11.95835,11.95835,0,0,1-3.1557-.2808c-.101-.0107-.138.1421-.0343.1569a12.448,12.448,0,0,0,2.8206.4514c.7493-.0568,1.4926-.0303,2.2355-.044.6651,3.7936,1.5338,7.7505,3.4751,10.7855.4304.6731,1.7234.3026,1.5539-.5477A63.7458,63.7458,0,0,0,356.1324,363.4665Z" transform="translate(-29.74468 -79.7747)" fill="#747ded"/><path d="M377.4168,328.4196c.4655,10.5096,5.3852,27.3672-7.1485,33.4015-3.3753,1.6249-7.4357.027-10.2186-2.2771-3.6413-3.0146-6.268-10.6811-7.3521-15.171-.8594-3.5589-.6493-7.8227-1.1643-11.5012-.5565-3.9737-1.1934-7.936-1.7189-11.9144-1.8939-14.3383,2.4322-27.85,12.9825-37.9122,2.1077,4.3307,5.2573,7.6516,8.2806,11.5579a46.96719,46.96719,0,0,1,3.7974,5.6462c1.9452,3.4598,1.6758,7.5206,1.6714,11.3057C376.5397,317.1517,377.1689,322.8239,377.4168,328.4196Z" transform="translate(-29.74468 -79.7747)" fill="#ffea00"/><path d="M368.1169,362.7231q-.1773-1.2924-.3274-2.5909a11.09331,11.09331,0,0,0,4.147-2.7375,24.9515,24.9515,0,0,0,4.7744-6.235c.0717-.1217-.1309-.2382-.2122-.1253a27.7348,27.7348,0,0,1-4.8067,5.4458,16.9033,16.9033,0,0,1-3.9999,2.7594q-.1707-1.55265-.2986-3.1095c1.5932-.6167,2.8265-2.077,4.0098-3.255a53.65185,53.65185,0,0,0,5.2544-6.6155.02487.02487,0,0,0-.0391-.0307c-2.6349,3.1591-5.3867,7.4029-9.2837,9.1649-.0996-1.3023-.1847-2.6051-.2356-3.9076-.0026-.0678-.0044-.1356-.007-.2036,4.4221-2.389,6.6814-6.9013,9.5416-10.8103.0464-.0633-.0418-.1477-.0915-.0839-2.8634,3.6661-5.4121,7.6694-9.4761,10.1239-.0655-1.865-.1139-3.7288-.1595-5.5917a25.9941,25.9941,0,0,0,8.7626-10.2663c.0352-.0711-.0673-.1326-.1075-.0625-2.2788,3.9997-5.2169,6.7082-8.6747,9.5305-.0456-1.8437-.0941-3.6865-.1649-5.529,1.6192-1.3768,3.4243-2.4216,4.8301-4.0486a15.52215,15.52215,0,0,0,3.1839-5.4223.087.087,0,0,0-.165-.0549c-1.5228,4.0422-4.8581,6.0232-7.8855,8.7121-.0725-1.7154-.169-3.4305-.3008-5.1456,3.343-3.1196,7.0615-6.1675,8.2264-10.8213.0115-.0458-.0555-.0714-.0702-.025-1.38,4.3538-5.0448,7.0047-8.2258,9.9892-.0255-.3052-.0459-.6101-.0742-.9155-.1471-1.5844-.3103-3.167-.4779-4.7489a38.46836,38.46836,0,0,0,5.4915-5.0713,12.522,12.522,0,0,0,3.0451-4.2856.087.087,0,0,0-.1627-.0616c-1.3289,3.5103-5.4541,6.3876-8.4457,8.7321q-.2559-2.39625-.5138-4.7917c3.1665-3.2068,7.2482-5.5689,8.5182-10.227a.11194.11194,0,0,0-.2132-.0679c-1.4416,4.3249-5.3458,6.5332-8.3846,9.5489q-.156-1.485-.3025-2.971c3.6612-2.5038,7.501-7.0696,8.708-11.2564a.18653.18653,0,0,0-.3537-.1179,23.36383,23.36383,0,0,1-8.427,10.5862c-.1523-1.6067-.2932-3.2143-.4075-4.8247a.456.456,0,0,0,.0256-.152,23.88349,23.88349,0,0,0,4.4667-4.0827,14.57775,14.57775,0,0,0,3.7411-5.6571c.0762-.2441-.3169-.3524-.3835-.1049-.9846,3.6532-4.6979,6.8731-7.9123,8.9856-.038-.5885-.0787-1.1767-.1093-1.7658q-.06855-1.32255-.1268-2.6456c1.1906-1.3604,2.9015-2.3,4.0835-3.7177a27.59929,27.59929,0,0,0,2.6455-4.0002.1244.1244,0,0,0-.2097-.1336,23.4032,23.4032,0,0,1-3.8225,4.842c-.8601.7837-1.9177,1.3741-2.7334,2.2011-.0647-1.4426-.1307-2.8848-.2093-4.3257.0166-.0075.032-.0166.0484-.0242l.0543-.0027a.2629.2629,0,0,0,.2185-.1331c1.8358-.99,2.9097-3.0584,3.8641-4.8299a.03731.03731,0,0,0-.0637-.0388,13.50072,13.50072,0,0,1-3.9871,4.4576c-.0078.0002-.0134-.0033-.0216-.0026l-.1465.0132q-.1008-1.758-.2432-3.5121a.26513.26513,0,0,0,.1594-.3465,21.28367,21.28367,0,0,0,2.2493-3.1835.0746.0746,0,0,0-.1246-.0819,17.29871,17.29871,0,0,1-2.3567,2.7491,71.46418,71.46418,0,0,0-.9895-7.1994c-.043-.2211-.3735-.1399-.3387.0795.3671,2.3176.6051,4.6445.7797,6.9756a21.50262,21.50262,0,0,1-4.0856-3.7611c-.0556-.0754-.1804-.0076-.1285.0757a13.31421,13.31421,0,0,0,2.1383,2.4266,17.60929,17.60929,0,0,0,2.138,2.066c.0855,1.2539.1521,2.509.2071,3.7652a6.82267,6.82267,0,0,1-3.9644-.5011,6.752,6.752,0,0,1-3.356-3.9481c-.0706-.2117-.4115-.1245-.3371.0863a7.69479,7.69479,0,0,0,3.028,3.9062,7.24271,7.24271,0,0,0,4.6508.9728q.09015,2.17725.1556,4.3567a33.11621,33.11621,0,0,1-4.0158-1.6565c-2.0872-.9462-3.5347-2.3529-5.437-3.5312a.17413.17413,0,0,0-.1911.2909c1.7932,1.1456,3.1599,2.5313,5.1096,3.4748a23.59217,23.59217,0,0,0,4.5504,1.9449l.0073.2299c-.0113.0178-.0251.0328-.036.0506a.22845.22845,0,0,0,.0473.3156c.0429,1.3918.0864,2.7837.1421,4.1749.0035.0869.0098.1738.0134.2609-3.429-.6302-8.6405-1.9144-9.9481-5.3771a.24748.24748,0,1,0-.4412.22c1.9286,3.8058,6.8161,4.4731,10.4275,5.9017q.1146,2.355.3045,4.7038a18.75294,18.75294,0,0,1-6.2607-1.4536c-1.8207-.8224-4.3323-1.7348-5.4869-3.4299-.0363-.0532-.1135.0071-.079.0602,1.1014,1.6968,3.3476,2.4865,5.0674,3.3992a15.26719,15.26719,0,0,0,6.7918,2.13.42635.42635,0,0,0,.045.202q.1266,1.48785.2689,2.9743c-3.8054.6563-9.7444-.8583-12.3655-3.2-.0121-.011-.0268.0082-.0157.0192a12.63012,12.63012,0,0,0,6.6243,3.1202,15.62015,15.62015,0,0,0,5.806.5768c.1783,1.834.3659,3.6674.5489,5.5011-1.772-.1941-3.5606-.0499-5.3255-.2867a12.61208,12.61208,0,0,1-6.8106-3.3561c-.1168-.1057-.3017.0548-.1847.1663,3.6228,3.4555,7.6447,3.7215,12.3888,4.1594q.2229,2.25735.4143,4.5174c-3.737.2177-8.8969-.7929-11.4823-3.4331-.1897-.1939-.5038.0865-.3139.2826a11.92585,11.92585,0,0,0,6.1783,2.9595c1.6258.3639,3.9172,1.0695,5.6674.7643.004.0495.0088.099.0128.1484.1738,2.1712.2856,4.3459.3628,6.5223-4.2346.0056-7.5539-2.2941-11.1452-4.3235-.2497-.1411-.4901.2311-.2406.3772,3.6815,2.1564,7.0405,4.5467,11.408,4.5843q.08505,2.6589.1058,5.3203a18.97924,18.97924,0,0,1-10.4876-3.8599c-.205-.1567-.4109.1781-.2139.3353a20.412,20.412,0,0,0,10.7089,4.2125c.0131,1.9047.0101,3.8094.0015,5.7134-3.618.35-6.8532-1.1531-9.6953-3.3674-.0661-.0516-.1573.0608-.0925.1154,2.5761,2.1709,6.234,4.5048,9.7844,3.9492q-.00465.91155-.0094,1.8233c-.0021.3669-.0066.7394-.0125,1.1154a20.40979,20.40979,0,0,1-8.1145-1.6593c-.0733-.0343-.1186.0776-.0487.1145a19.4589,19.4589,0,0,0,8.1531,2.1062c-.0214,1.1478-.0512,2.3298-.0717,3.5317a15.159,15.159,0,0,0-2.2096-.3451,14.79413,14.79413,0,0,1-3.7714-1.0721c-.1203-.0364-.2006.1408-.078.1829a15.4006,15.4006,0,0,0,3.3244,1.2016c.9242.1046,1.8216.3089,2.7279.4642-.0698,4.766.0702,9.7775,1.7274,13.9166.3677.918,2.0253.7668,2.016-.306C369.442,369.2949,368.5645,365.9864,368.1169,362.7231Z" transform="translate(-29.74468 -79.7747)" fill="#747ded"/><polygon points="354.59 286.885 354.126 295.428 353.4 308.731 352.21 330.588 322.619 330.588 321.429 308.731 320.703 295.428 320.239 286.885 354.59 286.885" fill="#95a8b5"/><polygon points="354.126 295.428 354.031 297.142 353.936 298.915 353.4 308.731 321.429 308.731 320.893 298.915 320.798 297.142 320.703 295.428 354.126 295.428" fill="#a5b7c6"/><polygon points="354.031 297.142 353.936 298.915 320.893 298.915 320.798 297.142 354.031 297.142" fill="#95a8b5"/></g></svg>